%TF.GenerationSoftware,KiCad,Pcbnew,(7.0.0)*%
%TF.CreationDate,2023-04-19T13:17:30+09:00*%
%TF.ProjectId,project4,70726f6a-6563-4743-942e-6b696361645f,1.5*%
%TF.SameCoordinates,Original*%
%TF.FileFunction,Legend,Bot*%
%TF.FilePolarity,Positive*%
%FSLAX46Y46*%
G04 Gerber Fmt 4.6, Leading zero omitted, Abs format (unit mm)*
G04 Created by KiCad (PCBNEW (7.0.0)) date 2023-04-19 13:17:30*
%MOMM*%
%LPD*%
G01*
G04 APERTURE LIST*
%ADD10C,0.100000*%
G04 APERTURE END LIST*
D10*
%TO.C,CE1*%
X170576952Y-140828587D02*
X170176952Y-140828587D01*
X170176952Y-140828587D02*
X170576952Y-141057158D01*
X170576952Y-141057158D02*
X170176952Y-141057158D01*
X170538857Y-141247635D02*
X170557904Y-141266682D01*
X170557904Y-141266682D02*
X170576952Y-141247635D01*
X170576952Y-141247635D02*
X170557904Y-141228587D01*
X170557904Y-141228587D02*
X170538857Y-141247635D01*
X170538857Y-141247635D02*
X170576952Y-141247635D01*
X170538857Y-141666682D02*
X170557904Y-141647634D01*
X170557904Y-141647634D02*
X170576952Y-141590492D01*
X170576952Y-141590492D02*
X170576952Y-141552396D01*
X170576952Y-141552396D02*
X170557904Y-141495253D01*
X170557904Y-141495253D02*
X170519809Y-141457158D01*
X170519809Y-141457158D02*
X170481714Y-141438111D01*
X170481714Y-141438111D02*
X170405523Y-141419063D01*
X170405523Y-141419063D02*
X170348380Y-141419063D01*
X170348380Y-141419063D02*
X170272190Y-141438111D01*
X170272190Y-141438111D02*
X170234095Y-141457158D01*
X170234095Y-141457158D02*
X170196000Y-141495253D01*
X170196000Y-141495253D02*
X170176952Y-141552396D01*
X170176952Y-141552396D02*
X170176952Y-141590492D01*
X170176952Y-141590492D02*
X170196000Y-141647634D01*
X170196000Y-141647634D02*
X170215047Y-141666682D01*
X170538857Y-141838111D02*
X170557904Y-141857158D01*
X170557904Y-141857158D02*
X170576952Y-141838111D01*
X170576952Y-141838111D02*
X170557904Y-141819063D01*
X170557904Y-141819063D02*
X170538857Y-141838111D01*
X170538857Y-141838111D02*
X170576952Y-141838111D01*
X132466952Y-141218111D02*
X132066952Y-141218111D01*
X132066952Y-141218111D02*
X132066952Y-141313349D01*
X132066952Y-141313349D02*
X132086000Y-141370492D01*
X132086000Y-141370492D02*
X132124095Y-141408587D01*
X132124095Y-141408587D02*
X132162190Y-141427634D01*
X132162190Y-141427634D02*
X132238380Y-141446682D01*
X132238380Y-141446682D02*
X132295523Y-141446682D01*
X132295523Y-141446682D02*
X132371714Y-141427634D01*
X132371714Y-141427634D02*
X132409809Y-141408587D01*
X132409809Y-141408587D02*
X132447904Y-141370492D01*
X132447904Y-141370492D02*
X132466952Y-141313349D01*
X132466952Y-141313349D02*
X132466952Y-141218111D01*
X132066952Y-141580015D02*
X132066952Y-141827634D01*
X132066952Y-141827634D02*
X132219333Y-141694301D01*
X132219333Y-141694301D02*
X132219333Y-141751444D01*
X132219333Y-141751444D02*
X132238380Y-141789539D01*
X132238380Y-141789539D02*
X132257428Y-141808587D01*
X132257428Y-141808587D02*
X132295523Y-141827634D01*
X132295523Y-141827634D02*
X132390761Y-141827634D01*
X132390761Y-141827634D02*
X132428857Y-141808587D01*
X132428857Y-141808587D02*
X132447904Y-141789539D01*
X132447904Y-141789539D02*
X132466952Y-141751444D01*
X132466952Y-141751444D02*
X132466952Y-141637158D01*
X132466952Y-141637158D02*
X132447904Y-141599063D01*
X132447904Y-141599063D02*
X132428857Y-141580015D01*
X114677904Y-140194777D02*
X114696952Y-140251920D01*
X114696952Y-140251920D02*
X114696952Y-140347158D01*
X114696952Y-140347158D02*
X114677904Y-140385253D01*
X114677904Y-140385253D02*
X114658857Y-140404301D01*
X114658857Y-140404301D02*
X114620761Y-140423348D01*
X114620761Y-140423348D02*
X114582666Y-140423348D01*
X114582666Y-140423348D02*
X114544571Y-140404301D01*
X114544571Y-140404301D02*
X114525523Y-140385253D01*
X114525523Y-140385253D02*
X114506476Y-140347158D01*
X114506476Y-140347158D02*
X114487428Y-140270967D01*
X114487428Y-140270967D02*
X114468380Y-140232872D01*
X114468380Y-140232872D02*
X114449333Y-140213825D01*
X114449333Y-140213825D02*
X114411238Y-140194777D01*
X114411238Y-140194777D02*
X114373142Y-140194777D01*
X114373142Y-140194777D02*
X114335047Y-140213825D01*
X114335047Y-140213825D02*
X114316000Y-140232872D01*
X114316000Y-140232872D02*
X114296952Y-140270967D01*
X114296952Y-140270967D02*
X114296952Y-140366206D01*
X114296952Y-140366206D02*
X114316000Y-140423348D01*
X114696952Y-140594777D02*
X114296952Y-140594777D01*
X114296952Y-140594777D02*
X114696952Y-140823348D01*
X114696952Y-140823348D02*
X114296952Y-140823348D01*
X114696952Y-141013825D02*
X114296952Y-141013825D01*
X114296952Y-141013825D02*
X114296952Y-141109063D01*
X114296952Y-141109063D02*
X114316000Y-141166206D01*
X114316000Y-141166206D02*
X114354095Y-141204301D01*
X114354095Y-141204301D02*
X114392190Y-141223348D01*
X114392190Y-141223348D02*
X114468380Y-141242396D01*
X114468380Y-141242396D02*
X114525523Y-141242396D01*
X114525523Y-141242396D02*
X114601714Y-141223348D01*
X114601714Y-141223348D02*
X114639809Y-141204301D01*
X114639809Y-141204301D02*
X114677904Y-141166206D01*
X114677904Y-141166206D02*
X114696952Y-141109063D01*
X114696952Y-141109063D02*
X114696952Y-141013825D01*
X114696952Y-141413825D02*
X114296952Y-141413825D01*
X114696952Y-141604301D02*
X114296952Y-141604301D01*
X114296952Y-141604301D02*
X114696952Y-141832872D01*
X114696952Y-141832872D02*
X114296952Y-141832872D01*
X142502666Y-141227635D02*
X142502666Y-141418111D01*
X142616952Y-141189540D02*
X142216952Y-141322873D01*
X142216952Y-141322873D02*
X142616952Y-141456206D01*
X142616952Y-141799063D02*
X142616952Y-141570492D01*
X142616952Y-141684778D02*
X142216952Y-141684778D01*
X142216952Y-141684778D02*
X142274095Y-141646682D01*
X142274095Y-141646682D02*
X142312190Y-141608587D01*
X142312190Y-141608587D02*
X142331238Y-141570492D01*
X135016952Y-141188111D02*
X134616952Y-141188111D01*
X134616952Y-141188111D02*
X134616952Y-141283349D01*
X134616952Y-141283349D02*
X134636000Y-141340492D01*
X134636000Y-141340492D02*
X134674095Y-141378587D01*
X134674095Y-141378587D02*
X134712190Y-141397634D01*
X134712190Y-141397634D02*
X134788380Y-141416682D01*
X134788380Y-141416682D02*
X134845523Y-141416682D01*
X134845523Y-141416682D02*
X134921714Y-141397634D01*
X134921714Y-141397634D02*
X134959809Y-141378587D01*
X134959809Y-141378587D02*
X134997904Y-141340492D01*
X134997904Y-141340492D02*
X135016952Y-141283349D01*
X135016952Y-141283349D02*
X135016952Y-141188111D01*
X135016952Y-141797634D02*
X135016952Y-141569063D01*
X135016952Y-141683349D02*
X134616952Y-141683349D01*
X134616952Y-141683349D02*
X134674095Y-141645253D01*
X134674095Y-141645253D02*
X134712190Y-141607158D01*
X134712190Y-141607158D02*
X134731238Y-141569063D01*
X137422666Y-141197635D02*
X137422666Y-141388111D01*
X137536952Y-141159540D02*
X137136952Y-141292873D01*
X137136952Y-141292873D02*
X137536952Y-141426206D01*
X137136952Y-141750016D02*
X137136952Y-141559540D01*
X137136952Y-141559540D02*
X137327428Y-141540492D01*
X137327428Y-141540492D02*
X137308380Y-141559540D01*
X137308380Y-141559540D02*
X137289333Y-141597635D01*
X137289333Y-141597635D02*
X137289333Y-141692873D01*
X137289333Y-141692873D02*
X137308380Y-141730968D01*
X137308380Y-141730968D02*
X137327428Y-141750016D01*
X137327428Y-141750016D02*
X137365523Y-141769063D01*
X137365523Y-141769063D02*
X137460761Y-141769063D01*
X137460761Y-141769063D02*
X137498857Y-141750016D01*
X137498857Y-141750016D02*
X137517904Y-141730968D01*
X137517904Y-141730968D02*
X137536952Y-141692873D01*
X137536952Y-141692873D02*
X137536952Y-141597635D01*
X137536952Y-141597635D02*
X137517904Y-141559540D01*
X137517904Y-141559540D02*
X137498857Y-141540492D01*
X145062666Y-140837159D02*
X145062666Y-141027635D01*
X145176952Y-140799064D02*
X144776952Y-140932397D01*
X144776952Y-140932397D02*
X145176952Y-141065730D01*
X145176952Y-141408587D02*
X145176952Y-141180016D01*
X145176952Y-141294302D02*
X144776952Y-141294302D01*
X144776952Y-141294302D02*
X144834095Y-141256206D01*
X144834095Y-141256206D02*
X144872190Y-141218111D01*
X144872190Y-141218111D02*
X144891238Y-141180016D01*
X144910285Y-141751444D02*
X145176952Y-141751444D01*
X144757904Y-141656206D02*
X145043619Y-141560968D01*
X145043619Y-141560968D02*
X145043619Y-141808587D01*
X173048857Y-140685730D02*
X173067904Y-140666682D01*
X173067904Y-140666682D02*
X173086952Y-140609540D01*
X173086952Y-140609540D02*
X173086952Y-140571444D01*
X173086952Y-140571444D02*
X173067904Y-140514301D01*
X173067904Y-140514301D02*
X173029809Y-140476206D01*
X173029809Y-140476206D02*
X172991714Y-140457159D01*
X172991714Y-140457159D02*
X172915523Y-140438111D01*
X172915523Y-140438111D02*
X172858380Y-140438111D01*
X172858380Y-140438111D02*
X172782190Y-140457159D01*
X172782190Y-140457159D02*
X172744095Y-140476206D01*
X172744095Y-140476206D02*
X172706000Y-140514301D01*
X172706000Y-140514301D02*
X172686952Y-140571444D01*
X172686952Y-140571444D02*
X172686952Y-140609540D01*
X172686952Y-140609540D02*
X172706000Y-140666682D01*
X172706000Y-140666682D02*
X172725047Y-140685730D01*
X173067904Y-140838111D02*
X173086952Y-140895254D01*
X173086952Y-140895254D02*
X173086952Y-140990492D01*
X173086952Y-140990492D02*
X173067904Y-141028587D01*
X173067904Y-141028587D02*
X173048857Y-141047635D01*
X173048857Y-141047635D02*
X173010761Y-141066682D01*
X173010761Y-141066682D02*
X172972666Y-141066682D01*
X172972666Y-141066682D02*
X172934571Y-141047635D01*
X172934571Y-141047635D02*
X172915523Y-141028587D01*
X172915523Y-141028587D02*
X172896476Y-140990492D01*
X172896476Y-140990492D02*
X172877428Y-140914301D01*
X172877428Y-140914301D02*
X172858380Y-140876206D01*
X172858380Y-140876206D02*
X172839333Y-140857159D01*
X172839333Y-140857159D02*
X172801238Y-140838111D01*
X172801238Y-140838111D02*
X172763142Y-140838111D01*
X172763142Y-140838111D02*
X172725047Y-140857159D01*
X172725047Y-140857159D02*
X172706000Y-140876206D01*
X172706000Y-140876206D02*
X172686952Y-140914301D01*
X172686952Y-140914301D02*
X172686952Y-141009540D01*
X172686952Y-141009540D02*
X172706000Y-141066682D01*
X173086952Y-141447634D02*
X173086952Y-141219063D01*
X173086952Y-141333349D02*
X172686952Y-141333349D01*
X172686952Y-141333349D02*
X172744095Y-141295253D01*
X172744095Y-141295253D02*
X172782190Y-141257158D01*
X172782190Y-141257158D02*
X172801238Y-141219063D01*
X172725047Y-141600015D02*
X172706000Y-141619063D01*
X172706000Y-141619063D02*
X172686952Y-141657158D01*
X172686952Y-141657158D02*
X172686952Y-141752396D01*
X172686952Y-141752396D02*
X172706000Y-141790491D01*
X172706000Y-141790491D02*
X172725047Y-141809539D01*
X172725047Y-141809539D02*
X172763142Y-141828586D01*
X172763142Y-141828586D02*
X172801238Y-141828586D01*
X172801238Y-141828586D02*
X172858380Y-141809539D01*
X172858380Y-141809539D02*
X173086952Y-141580967D01*
X173086952Y-141580967D02*
X173086952Y-141828586D01*
X172546000Y-140401921D02*
X172546000Y-141864777D01*
X147602666Y-140827159D02*
X147602666Y-141017635D01*
X147716952Y-140789064D02*
X147316952Y-140922397D01*
X147316952Y-140922397D02*
X147716952Y-141055730D01*
X147716952Y-141398587D02*
X147716952Y-141170016D01*
X147716952Y-141284302D02*
X147316952Y-141284302D01*
X147316952Y-141284302D02*
X147374095Y-141246206D01*
X147374095Y-141246206D02*
X147412190Y-141208111D01*
X147412190Y-141208111D02*
X147431238Y-141170016D01*
X147355047Y-141550968D02*
X147336000Y-141570016D01*
X147336000Y-141570016D02*
X147316952Y-141608111D01*
X147316952Y-141608111D02*
X147316952Y-141703349D01*
X147316952Y-141703349D02*
X147336000Y-141741444D01*
X147336000Y-141741444D02*
X147355047Y-141760492D01*
X147355047Y-141760492D02*
X147393142Y-141779539D01*
X147393142Y-141779539D02*
X147431238Y-141779539D01*
X147431238Y-141779539D02*
X147488380Y-141760492D01*
X147488380Y-141760492D02*
X147716952Y-141531920D01*
X147716952Y-141531920D02*
X147716952Y-141779539D01*
X150142666Y-141207635D02*
X150142666Y-141398111D01*
X150256952Y-141169540D02*
X149856952Y-141302873D01*
X149856952Y-141302873D02*
X150256952Y-141436206D01*
X149856952Y-141531444D02*
X149856952Y-141798111D01*
X149856952Y-141798111D02*
X150256952Y-141626682D01*
X127386952Y-141218111D02*
X126986952Y-141218111D01*
X126986952Y-141218111D02*
X126986952Y-141313349D01*
X126986952Y-141313349D02*
X127006000Y-141370492D01*
X127006000Y-141370492D02*
X127044095Y-141408587D01*
X127044095Y-141408587D02*
X127082190Y-141427634D01*
X127082190Y-141427634D02*
X127158380Y-141446682D01*
X127158380Y-141446682D02*
X127215523Y-141446682D01*
X127215523Y-141446682D02*
X127291714Y-141427634D01*
X127291714Y-141427634D02*
X127329809Y-141408587D01*
X127329809Y-141408587D02*
X127367904Y-141370492D01*
X127367904Y-141370492D02*
X127386952Y-141313349D01*
X127386952Y-141313349D02*
X127386952Y-141218111D01*
X126986952Y-141580015D02*
X126986952Y-141846682D01*
X126986952Y-141846682D02*
X127386952Y-141675253D01*
X160006952Y-141111920D02*
X160406952Y-141207158D01*
X160406952Y-141207158D02*
X160121238Y-141283349D01*
X160121238Y-141283349D02*
X160406952Y-141359539D01*
X160406952Y-141359539D02*
X160006952Y-141454778D01*
X160406952Y-141835730D02*
X160216476Y-141702397D01*
X160406952Y-141607159D02*
X160006952Y-141607159D01*
X160006952Y-141607159D02*
X160006952Y-141759540D01*
X160006952Y-141759540D02*
X160026000Y-141797635D01*
X160026000Y-141797635D02*
X160045047Y-141816682D01*
X160045047Y-141816682D02*
X160083142Y-141835730D01*
X160083142Y-141835730D02*
X160140285Y-141835730D01*
X160140285Y-141835730D02*
X160178380Y-141816682D01*
X160178380Y-141816682D02*
X160197428Y-141797635D01*
X160197428Y-141797635D02*
X160216476Y-141759540D01*
X160216476Y-141759540D02*
X160216476Y-141607159D01*
X159866000Y-141551921D02*
X159866000Y-141871921D01*
X129926952Y-141218111D02*
X129526952Y-141218111D01*
X129526952Y-141218111D02*
X129526952Y-141313349D01*
X129526952Y-141313349D02*
X129546000Y-141370492D01*
X129546000Y-141370492D02*
X129584095Y-141408587D01*
X129584095Y-141408587D02*
X129622190Y-141427634D01*
X129622190Y-141427634D02*
X129698380Y-141446682D01*
X129698380Y-141446682D02*
X129755523Y-141446682D01*
X129755523Y-141446682D02*
X129831714Y-141427634D01*
X129831714Y-141427634D02*
X129869809Y-141408587D01*
X129869809Y-141408587D02*
X129907904Y-141370492D01*
X129907904Y-141370492D02*
X129926952Y-141313349D01*
X129926952Y-141313349D02*
X129926952Y-141218111D01*
X129526952Y-141808587D02*
X129526952Y-141618111D01*
X129526952Y-141618111D02*
X129717428Y-141599063D01*
X129717428Y-141599063D02*
X129698380Y-141618111D01*
X129698380Y-141618111D02*
X129679333Y-141656206D01*
X129679333Y-141656206D02*
X129679333Y-141751444D01*
X129679333Y-141751444D02*
X129698380Y-141789539D01*
X129698380Y-141789539D02*
X129717428Y-141808587D01*
X129717428Y-141808587D02*
X129755523Y-141827634D01*
X129755523Y-141827634D02*
X129850761Y-141827634D01*
X129850761Y-141827634D02*
X129888857Y-141808587D01*
X129888857Y-141808587D02*
X129907904Y-141789539D01*
X129907904Y-141789539D02*
X129926952Y-141751444D01*
X129926952Y-141751444D02*
X129926952Y-141656206D01*
X129926952Y-141656206D02*
X129907904Y-141618111D01*
X129907904Y-141618111D02*
X129888857Y-141599063D01*
X165466952Y-141189540D02*
X165066952Y-141189540D01*
X165066952Y-141189540D02*
X165352666Y-141322873D01*
X165352666Y-141322873D02*
X165066952Y-141456206D01*
X165066952Y-141456206D02*
X165466952Y-141456206D01*
X165466952Y-141856206D02*
X165466952Y-141627635D01*
X165466952Y-141741921D02*
X165066952Y-141741921D01*
X165066952Y-141741921D02*
X165124095Y-141703825D01*
X165124095Y-141703825D02*
X165162190Y-141665730D01*
X165162190Y-141665730D02*
X165181238Y-141627635D01*
X164926000Y-141134302D02*
X164926000Y-141892397D01*
X162966952Y-140584301D02*
X162566952Y-140584301D01*
X162566952Y-140850967D02*
X162566952Y-140927158D01*
X162566952Y-140927158D02*
X162586000Y-140965253D01*
X162586000Y-140965253D02*
X162624095Y-141003348D01*
X162624095Y-141003348D02*
X162700285Y-141022396D01*
X162700285Y-141022396D02*
X162833619Y-141022396D01*
X162833619Y-141022396D02*
X162909809Y-141003348D01*
X162909809Y-141003348D02*
X162947904Y-140965253D01*
X162947904Y-140965253D02*
X162966952Y-140927158D01*
X162966952Y-140927158D02*
X162966952Y-140850967D01*
X162966952Y-140850967D02*
X162947904Y-140812872D01*
X162947904Y-140812872D02*
X162909809Y-140774777D01*
X162909809Y-140774777D02*
X162833619Y-140755729D01*
X162833619Y-140755729D02*
X162700285Y-140755729D01*
X162700285Y-140755729D02*
X162624095Y-140774777D01*
X162624095Y-140774777D02*
X162586000Y-140812872D01*
X162586000Y-140812872D02*
X162566952Y-140850967D01*
X162966952Y-141422396D02*
X162776476Y-141289063D01*
X162966952Y-141193825D02*
X162566952Y-141193825D01*
X162566952Y-141193825D02*
X162566952Y-141346206D01*
X162566952Y-141346206D02*
X162586000Y-141384301D01*
X162586000Y-141384301D02*
X162605047Y-141403348D01*
X162605047Y-141403348D02*
X162643142Y-141422396D01*
X162643142Y-141422396D02*
X162700285Y-141422396D01*
X162700285Y-141422396D02*
X162738380Y-141403348D01*
X162738380Y-141403348D02*
X162757428Y-141384301D01*
X162757428Y-141384301D02*
X162776476Y-141346206D01*
X162776476Y-141346206D02*
X162776476Y-141193825D01*
X163005047Y-141860491D02*
X162986000Y-141822396D01*
X162986000Y-141822396D02*
X162947904Y-141784301D01*
X162947904Y-141784301D02*
X162890761Y-141727158D01*
X162890761Y-141727158D02*
X162871714Y-141689063D01*
X162871714Y-141689063D02*
X162871714Y-141650967D01*
X162966952Y-141670015D02*
X162947904Y-141631920D01*
X162947904Y-141631920D02*
X162909809Y-141593825D01*
X162909809Y-141593825D02*
X162833619Y-141574777D01*
X162833619Y-141574777D02*
X162700285Y-141574777D01*
X162700285Y-141574777D02*
X162624095Y-141593825D01*
X162624095Y-141593825D02*
X162586000Y-141631920D01*
X162586000Y-141631920D02*
X162566952Y-141670015D01*
X162566952Y-141670015D02*
X162566952Y-141746206D01*
X162566952Y-141746206D02*
X162586000Y-141784301D01*
X162586000Y-141784301D02*
X162624095Y-141822396D01*
X162624095Y-141822396D02*
X162700285Y-141841444D01*
X162700285Y-141841444D02*
X162833619Y-141841444D01*
X162833619Y-141841444D02*
X162909809Y-141822396D01*
X162909809Y-141822396D02*
X162947904Y-141784301D01*
X162947904Y-141784301D02*
X162966952Y-141746206D01*
X162966952Y-141746206D02*
X162966952Y-141670015D01*
X162426000Y-140529063D02*
X162426000Y-141877635D01*
X119654571Y-140838111D02*
X119654571Y-141142873D01*
X119806952Y-140990492D02*
X119502190Y-140990492D01*
X119406952Y-141523825D02*
X119406952Y-141333349D01*
X119406952Y-141333349D02*
X119597428Y-141314301D01*
X119597428Y-141314301D02*
X119578380Y-141333349D01*
X119578380Y-141333349D02*
X119559333Y-141371444D01*
X119559333Y-141371444D02*
X119559333Y-141466682D01*
X119559333Y-141466682D02*
X119578380Y-141504777D01*
X119578380Y-141504777D02*
X119597428Y-141523825D01*
X119597428Y-141523825D02*
X119635523Y-141542872D01*
X119635523Y-141542872D02*
X119730761Y-141542872D01*
X119730761Y-141542872D02*
X119768857Y-141523825D01*
X119768857Y-141523825D02*
X119787904Y-141504777D01*
X119787904Y-141504777D02*
X119806952Y-141466682D01*
X119806952Y-141466682D02*
X119806952Y-141371444D01*
X119806952Y-141371444D02*
X119787904Y-141333349D01*
X119787904Y-141333349D02*
X119768857Y-141314301D01*
X119540285Y-141676205D02*
X119806952Y-141771443D01*
X119806952Y-141771443D02*
X119540285Y-141866682D01*
X157866952Y-140442396D02*
X157676476Y-140309063D01*
X157866952Y-140213825D02*
X157466952Y-140213825D01*
X157466952Y-140213825D02*
X157466952Y-140366206D01*
X157466952Y-140366206D02*
X157486000Y-140404301D01*
X157486000Y-140404301D02*
X157505047Y-140423348D01*
X157505047Y-140423348D02*
X157543142Y-140442396D01*
X157543142Y-140442396D02*
X157600285Y-140442396D01*
X157600285Y-140442396D02*
X157638380Y-140423348D01*
X157638380Y-140423348D02*
X157657428Y-140404301D01*
X157657428Y-140404301D02*
X157676476Y-140366206D01*
X157676476Y-140366206D02*
X157676476Y-140213825D01*
X157657428Y-140613825D02*
X157657428Y-140747158D01*
X157866952Y-140804301D02*
X157866952Y-140613825D01*
X157866952Y-140613825D02*
X157466952Y-140613825D01*
X157466952Y-140613825D02*
X157466952Y-140804301D01*
X157847904Y-140956682D02*
X157866952Y-141013825D01*
X157866952Y-141013825D02*
X157866952Y-141109063D01*
X157866952Y-141109063D02*
X157847904Y-141147158D01*
X157847904Y-141147158D02*
X157828857Y-141166206D01*
X157828857Y-141166206D02*
X157790761Y-141185253D01*
X157790761Y-141185253D02*
X157752666Y-141185253D01*
X157752666Y-141185253D02*
X157714571Y-141166206D01*
X157714571Y-141166206D02*
X157695523Y-141147158D01*
X157695523Y-141147158D02*
X157676476Y-141109063D01*
X157676476Y-141109063D02*
X157657428Y-141032872D01*
X157657428Y-141032872D02*
X157638380Y-140994777D01*
X157638380Y-140994777D02*
X157619333Y-140975730D01*
X157619333Y-140975730D02*
X157581238Y-140956682D01*
X157581238Y-140956682D02*
X157543142Y-140956682D01*
X157543142Y-140956682D02*
X157505047Y-140975730D01*
X157505047Y-140975730D02*
X157486000Y-140994777D01*
X157486000Y-140994777D02*
X157466952Y-141032872D01*
X157466952Y-141032872D02*
X157466952Y-141128111D01*
X157466952Y-141128111D02*
X157486000Y-141185253D01*
X157657428Y-141356682D02*
X157657428Y-141490015D01*
X157866952Y-141547158D02*
X157866952Y-141356682D01*
X157866952Y-141356682D02*
X157466952Y-141356682D01*
X157466952Y-141356682D02*
X157466952Y-141547158D01*
X157466952Y-141661444D02*
X157466952Y-141890015D01*
X157866952Y-141775729D02*
X157466952Y-141775729D01*
X157326000Y-140158587D02*
X157326000Y-141888111D01*
X152662666Y-140827159D02*
X152662666Y-141017635D01*
X152776952Y-140789064D02*
X152376952Y-140922397D01*
X152376952Y-140922397D02*
X152776952Y-141055730D01*
X152776952Y-141398587D02*
X152776952Y-141170016D01*
X152776952Y-141284302D02*
X152376952Y-141284302D01*
X152376952Y-141284302D02*
X152434095Y-141246206D01*
X152434095Y-141246206D02*
X152472190Y-141208111D01*
X152472190Y-141208111D02*
X152491238Y-141170016D01*
X152776952Y-141779539D02*
X152776952Y-141550968D01*
X152776952Y-141665254D02*
X152376952Y-141665254D01*
X152376952Y-141665254D02*
X152434095Y-141627158D01*
X152434095Y-141627158D02*
X152472190Y-141589063D01*
X152472190Y-141589063D02*
X152491238Y-141550968D01*
X139982666Y-141207635D02*
X139982666Y-141398111D01*
X140096952Y-141169540D02*
X139696952Y-141302873D01*
X139696952Y-141302873D02*
X140096952Y-141436206D01*
X139696952Y-141531444D02*
X139696952Y-141779063D01*
X139696952Y-141779063D02*
X139849333Y-141645730D01*
X139849333Y-141645730D02*
X139849333Y-141702873D01*
X139849333Y-141702873D02*
X139868380Y-141740968D01*
X139868380Y-141740968D02*
X139887428Y-141760016D01*
X139887428Y-141760016D02*
X139925523Y-141779063D01*
X139925523Y-141779063D02*
X140020761Y-141779063D01*
X140020761Y-141779063D02*
X140058857Y-141760016D01*
X140058857Y-141760016D02*
X140077904Y-141740968D01*
X140077904Y-141740968D02*
X140096952Y-141702873D01*
X140096952Y-141702873D02*
X140096952Y-141588587D01*
X140096952Y-141588587D02*
X140077904Y-141550492D01*
X140077904Y-141550492D02*
X140058857Y-141531444D01*
X121946000Y-141008586D02*
X121926952Y-140970491D01*
X121926952Y-140970491D02*
X121926952Y-140913348D01*
X121926952Y-140913348D02*
X121946000Y-140856205D01*
X121946000Y-140856205D02*
X121984095Y-140818110D01*
X121984095Y-140818110D02*
X122022190Y-140799063D01*
X122022190Y-140799063D02*
X122098380Y-140780015D01*
X122098380Y-140780015D02*
X122155523Y-140780015D01*
X122155523Y-140780015D02*
X122231714Y-140799063D01*
X122231714Y-140799063D02*
X122269809Y-140818110D01*
X122269809Y-140818110D02*
X122307904Y-140856205D01*
X122307904Y-140856205D02*
X122326952Y-140913348D01*
X122326952Y-140913348D02*
X122326952Y-140951444D01*
X122326952Y-140951444D02*
X122307904Y-141008586D01*
X122307904Y-141008586D02*
X122288857Y-141027634D01*
X122288857Y-141027634D02*
X122155523Y-141027634D01*
X122155523Y-141027634D02*
X122155523Y-140951444D01*
X122326952Y-141199063D02*
X121926952Y-141199063D01*
X121926952Y-141199063D02*
X122326952Y-141427634D01*
X122326952Y-141427634D02*
X121926952Y-141427634D01*
X122326952Y-141618111D02*
X121926952Y-141618111D01*
X121926952Y-141618111D02*
X121926952Y-141713349D01*
X121926952Y-141713349D02*
X121946000Y-141770492D01*
X121946000Y-141770492D02*
X121984095Y-141808587D01*
X121984095Y-141808587D02*
X122022190Y-141827634D01*
X122022190Y-141827634D02*
X122098380Y-141846682D01*
X122098380Y-141846682D02*
X122155523Y-141846682D01*
X122155523Y-141846682D02*
X122231714Y-141827634D01*
X122231714Y-141827634D02*
X122269809Y-141808587D01*
X122269809Y-141808587D02*
X122307904Y-141770492D01*
X122307904Y-141770492D02*
X122326952Y-141713349D01*
X122326952Y-141713349D02*
X122326952Y-141618111D01*
X155212666Y-141207635D02*
X155212666Y-141398111D01*
X155326952Y-141169540D02*
X154926952Y-141302873D01*
X154926952Y-141302873D02*
X155326952Y-141436206D01*
X155326952Y-141588587D02*
X155326952Y-141664778D01*
X155326952Y-141664778D02*
X155307904Y-141702873D01*
X155307904Y-141702873D02*
X155288857Y-141721921D01*
X155288857Y-141721921D02*
X155231714Y-141760016D01*
X155231714Y-141760016D02*
X155155523Y-141779063D01*
X155155523Y-141779063D02*
X155003142Y-141779063D01*
X155003142Y-141779063D02*
X154965047Y-141760016D01*
X154965047Y-141760016D02*
X154946000Y-141740968D01*
X154946000Y-141740968D02*
X154926952Y-141702873D01*
X154926952Y-141702873D02*
X154926952Y-141626682D01*
X154926952Y-141626682D02*
X154946000Y-141588587D01*
X154946000Y-141588587D02*
X154965047Y-141569540D01*
X154965047Y-141569540D02*
X155003142Y-141550492D01*
X155003142Y-141550492D02*
X155098380Y-141550492D01*
X155098380Y-141550492D02*
X155136476Y-141569540D01*
X155136476Y-141569540D02*
X155155523Y-141588587D01*
X155155523Y-141588587D02*
X155174571Y-141626682D01*
X155174571Y-141626682D02*
X155174571Y-141702873D01*
X155174571Y-141702873D02*
X155155523Y-141740968D01*
X155155523Y-141740968D02*
X155136476Y-141760016D01*
X155136476Y-141760016D02*
X155098380Y-141779063D01*
X124446000Y-141008586D02*
X124426952Y-140970491D01*
X124426952Y-140970491D02*
X124426952Y-140913348D01*
X124426952Y-140913348D02*
X124446000Y-140856205D01*
X124446000Y-140856205D02*
X124484095Y-140818110D01*
X124484095Y-140818110D02*
X124522190Y-140799063D01*
X124522190Y-140799063D02*
X124598380Y-140780015D01*
X124598380Y-140780015D02*
X124655523Y-140780015D01*
X124655523Y-140780015D02*
X124731714Y-140799063D01*
X124731714Y-140799063D02*
X124769809Y-140818110D01*
X124769809Y-140818110D02*
X124807904Y-140856205D01*
X124807904Y-140856205D02*
X124826952Y-140913348D01*
X124826952Y-140913348D02*
X124826952Y-140951444D01*
X124826952Y-140951444D02*
X124807904Y-141008586D01*
X124807904Y-141008586D02*
X124788857Y-141027634D01*
X124788857Y-141027634D02*
X124655523Y-141027634D01*
X124655523Y-141027634D02*
X124655523Y-140951444D01*
X124826952Y-141199063D02*
X124426952Y-141199063D01*
X124426952Y-141199063D02*
X124826952Y-141427634D01*
X124826952Y-141427634D02*
X124426952Y-141427634D01*
X124826952Y-141618111D02*
X124426952Y-141618111D01*
X124426952Y-141618111D02*
X124426952Y-141713349D01*
X124426952Y-141713349D02*
X124446000Y-141770492D01*
X124446000Y-141770492D02*
X124484095Y-141808587D01*
X124484095Y-141808587D02*
X124522190Y-141827634D01*
X124522190Y-141827634D02*
X124598380Y-141846682D01*
X124598380Y-141846682D02*
X124655523Y-141846682D01*
X124655523Y-141846682D02*
X124731714Y-141827634D01*
X124731714Y-141827634D02*
X124769809Y-141808587D01*
X124769809Y-141808587D02*
X124807904Y-141770492D01*
X124807904Y-141770492D02*
X124826952Y-141713349D01*
X124826952Y-141713349D02*
X124826952Y-141618111D01*
X175598857Y-141076206D02*
X175617904Y-141057158D01*
X175617904Y-141057158D02*
X175636952Y-141000016D01*
X175636952Y-141000016D02*
X175636952Y-140961920D01*
X175636952Y-140961920D02*
X175617904Y-140904777D01*
X175617904Y-140904777D02*
X175579809Y-140866682D01*
X175579809Y-140866682D02*
X175541714Y-140847635D01*
X175541714Y-140847635D02*
X175465523Y-140828587D01*
X175465523Y-140828587D02*
X175408380Y-140828587D01*
X175408380Y-140828587D02*
X175332190Y-140847635D01*
X175332190Y-140847635D02*
X175294095Y-140866682D01*
X175294095Y-140866682D02*
X175256000Y-140904777D01*
X175256000Y-140904777D02*
X175236952Y-140961920D01*
X175236952Y-140961920D02*
X175236952Y-141000016D01*
X175236952Y-141000016D02*
X175256000Y-141057158D01*
X175256000Y-141057158D02*
X175275047Y-141076206D01*
X175617904Y-141228587D02*
X175636952Y-141285730D01*
X175636952Y-141285730D02*
X175636952Y-141380968D01*
X175636952Y-141380968D02*
X175617904Y-141419063D01*
X175617904Y-141419063D02*
X175598857Y-141438111D01*
X175598857Y-141438111D02*
X175560761Y-141457158D01*
X175560761Y-141457158D02*
X175522666Y-141457158D01*
X175522666Y-141457158D02*
X175484571Y-141438111D01*
X175484571Y-141438111D02*
X175465523Y-141419063D01*
X175465523Y-141419063D02*
X175446476Y-141380968D01*
X175446476Y-141380968D02*
X175427428Y-141304777D01*
X175427428Y-141304777D02*
X175408380Y-141266682D01*
X175408380Y-141266682D02*
X175389333Y-141247635D01*
X175389333Y-141247635D02*
X175351238Y-141228587D01*
X175351238Y-141228587D02*
X175313142Y-141228587D01*
X175313142Y-141228587D02*
X175275047Y-141247635D01*
X175275047Y-141247635D02*
X175256000Y-141266682D01*
X175256000Y-141266682D02*
X175236952Y-141304777D01*
X175236952Y-141304777D02*
X175236952Y-141400016D01*
X175236952Y-141400016D02*
X175256000Y-141457158D01*
X175636952Y-141838110D02*
X175636952Y-141609539D01*
X175636952Y-141723825D02*
X175236952Y-141723825D01*
X175236952Y-141723825D02*
X175294095Y-141685729D01*
X175294095Y-141685729D02*
X175332190Y-141647634D01*
X175332190Y-141647634D02*
X175351238Y-141609539D01*
X175096000Y-140792397D02*
X175096000Y-141874301D01*
X167626952Y-140672872D02*
X168026952Y-140768110D01*
X168026952Y-140768110D02*
X167741238Y-140844301D01*
X167741238Y-140844301D02*
X168026952Y-140920491D01*
X168026952Y-140920491D02*
X167626952Y-141015730D01*
X167912666Y-141149063D02*
X167912666Y-141339539D01*
X168026952Y-141110968D02*
X167626952Y-141244301D01*
X167626952Y-141244301D02*
X168026952Y-141377634D01*
X168026952Y-141510968D02*
X167626952Y-141510968D01*
X167626952Y-141644301D02*
X167626952Y-141872872D01*
X168026952Y-141758586D02*
X167626952Y-141758586D01*
X167486000Y-140655730D02*
X167486000Y-141870968D01*
%TD*%
M02*
