%TF.GenerationSoftware,KiCad,Pcbnew,(7.0.0)*%
%TF.CreationDate,2023-04-19T13:17:44+09:00*%
%TF.ProjectId,project4,70726f6a-6563-4743-942e-6b696361645f,1.5*%
%TF.SameCoordinates,Original*%
%TF.FileFunction,Drillmap*%
%TF.FilePolarity,Positive*%
%FSLAX45Y45*%
G04 Gerber Fmt 4.5, Leading zero omitted, Abs format (unit mm)*
G04 Created by KiCad (PCBNEW (7.0.0)) date 2023-04-19 13:17:44*
%MOMM*%
%LPD*%
G01*
G04 APERTURE LIST*
%ADD10C,0.100000*%
%ADD11C,0.200000*%
%ADD12C,0.040000*%
%ADD13C,0.080000*%
G04 APERTURE END LIST*
D10*
X17712913Y-13898596D02*
X18981147Y-13898948D01*
X11171246Y-14993062D02*
X11171292Y-13899382D01*
X11171246Y-14993062D02*
G75*
G03*
X11251388Y-15073593I80534J2D01*
G01*
X9961708Y-13899382D02*
X9961499Y-12897827D01*
X17713249Y-14994369D02*
X17712913Y-13898596D01*
X18976403Y-5253997D02*
X18981147Y-13898948D01*
X11171292Y-13899382D02*
X9961708Y-13899382D01*
X8908537Y-12898388D02*
X8903406Y-5261772D01*
X11251388Y-15073593D02*
X17636396Y-15072395D01*
X17636396Y-15072400D02*
G75*
G03*
X17713249Y-14994369I-1186J78030D01*
G01*
X8903406Y-5261772D02*
X18976403Y-5253997D01*
X9961499Y-12897827D02*
X8908537Y-12898388D01*
D11*
D12*
X9251000Y-10838500D02*
X9291000Y-10878500D01*
X9291000Y-10838500D02*
X9251000Y-10878500D01*
X9284166Y-9815906D02*
X9324166Y-9855906D01*
X9324166Y-9815906D02*
X9284166Y-9855906D01*
X9378000Y-6584000D02*
X9418000Y-6624000D01*
X9418000Y-6584000D02*
X9378000Y-6624000D01*
X9378000Y-6838000D02*
X9418000Y-6878000D01*
X9418000Y-6838000D02*
X9378000Y-6878000D01*
X9505000Y-6457000D02*
X9545000Y-6497000D01*
X9545000Y-6457000D02*
X9505000Y-6497000D01*
X9505000Y-6711000D02*
X9545000Y-6751000D01*
X9545000Y-6711000D02*
X9505000Y-6751000D01*
X9632000Y-6330000D02*
X9672000Y-6370000D01*
X9672000Y-6330000D02*
X9632000Y-6370000D01*
X9632000Y-6584000D02*
X9672000Y-6624000D01*
X9672000Y-6584000D02*
X9632000Y-6624000D01*
X9632000Y-9568500D02*
X9672000Y-9608500D01*
X9672000Y-9568500D02*
X9632000Y-9608500D01*
X9632000Y-12172000D02*
X9672000Y-12212000D01*
X9672000Y-12172000D02*
X9632000Y-12212000D01*
X9632000Y-12426000D02*
X9672000Y-12466000D01*
X9672000Y-12426000D02*
X9632000Y-12466000D01*
X9759000Y-6457000D02*
X9799000Y-6497000D01*
X9799000Y-6457000D02*
X9759000Y-6497000D01*
X9759000Y-10838500D02*
X9799000Y-10878500D01*
X9799000Y-10838500D02*
X9759000Y-10878500D01*
X9886000Y-6330000D02*
X9926000Y-6370000D01*
X9926000Y-6330000D02*
X9886000Y-6370000D01*
X9886000Y-9124000D02*
X9926000Y-9164000D01*
X9926000Y-9124000D02*
X9886000Y-9164000D01*
X9886000Y-9378000D02*
X9926000Y-9418000D01*
X9926000Y-9378000D02*
X9886000Y-9418000D01*
X9886000Y-11537000D02*
X9926000Y-11577000D01*
X9926000Y-11537000D02*
X9886000Y-11577000D01*
X10140000Y-9378000D02*
X10180000Y-9418000D01*
X10180000Y-9378000D02*
X10140000Y-9418000D01*
X10140000Y-12172000D02*
X10180000Y-12212000D01*
X10180000Y-12172000D02*
X10140000Y-12212000D01*
X10140000Y-12426000D02*
X10180000Y-12466000D01*
X10180000Y-12426000D02*
X10140000Y-12466000D01*
X10140000Y-13696000D02*
X10180000Y-13736000D01*
X10180000Y-13696000D02*
X10140000Y-13736000D01*
X10267000Y-8108000D02*
X10307000Y-8148000D01*
X10307000Y-8108000D02*
X10267000Y-8148000D01*
X10330500Y-13696000D02*
X10370500Y-13736000D01*
X10370500Y-13696000D02*
X10330500Y-13736000D01*
X10461725Y-9564275D02*
X10501725Y-9604275D01*
X10501725Y-9564275D02*
X10461725Y-9604275D01*
X10521000Y-7473000D02*
X10561000Y-7513000D01*
X10561000Y-7473000D02*
X10521000Y-7513000D01*
X10521000Y-9251000D02*
X10561000Y-9291000D01*
X10561000Y-9251000D02*
X10521000Y-9291000D01*
X10648000Y-6584000D02*
X10688000Y-6624000D01*
X10688000Y-6584000D02*
X10648000Y-6624000D01*
X10648000Y-6838000D02*
X10688000Y-6878000D01*
X10688000Y-6838000D02*
X10648000Y-6878000D01*
X10648000Y-11029000D02*
X10688000Y-11069000D01*
X10688000Y-11029000D02*
X10648000Y-11069000D01*
X10648000Y-12172000D02*
X10688000Y-12212000D01*
X10688000Y-12172000D02*
X10648000Y-12212000D01*
X10648000Y-12426000D02*
X10688000Y-12466000D01*
X10688000Y-12426000D02*
X10648000Y-12466000D01*
X10775000Y-6330000D02*
X10815000Y-6370000D01*
X10815000Y-6330000D02*
X10775000Y-6370000D01*
X10775000Y-8997000D02*
X10815000Y-9037000D01*
X10815000Y-8997000D02*
X10775000Y-9037000D01*
X10775000Y-10838500D02*
X10815000Y-10878500D01*
X10815000Y-10838500D02*
X10775000Y-10878500D01*
X10775000Y-11537000D02*
X10815000Y-11577000D01*
X10815000Y-11537000D02*
X10775000Y-11577000D01*
X10775000Y-11791000D02*
X10815000Y-11831000D01*
X10815000Y-11791000D02*
X10775000Y-11831000D01*
X10902000Y-8997000D02*
X10942000Y-9037000D01*
X10942000Y-8997000D02*
X10902000Y-9037000D01*
X11283000Y-6330000D02*
X11323000Y-6370000D01*
X11323000Y-6330000D02*
X11283000Y-6370000D01*
X11283000Y-6584000D02*
X11323000Y-6624000D01*
X11323000Y-6584000D02*
X11283000Y-6624000D01*
X11283000Y-8552500D02*
X11323000Y-8592500D01*
X11323000Y-8552500D02*
X11283000Y-8592500D01*
X11410000Y-8552500D02*
X11450000Y-8592500D01*
X11450000Y-8552500D02*
X11410000Y-8592500D01*
X11410000Y-9505000D02*
X11450000Y-9545000D01*
X11450000Y-9505000D02*
X11410000Y-9545000D01*
X11537000Y-13823000D02*
X11577000Y-13863000D01*
X11577000Y-13823000D02*
X11537000Y-13863000D01*
X11727500Y-13823000D02*
X11767500Y-13863000D01*
X11767500Y-13823000D02*
X11727500Y-13863000D01*
X11791000Y-6330000D02*
X11831000Y-6370000D01*
X11831000Y-6330000D02*
X11791000Y-6370000D01*
X11791000Y-7854000D02*
X11831000Y-7894000D01*
X11831000Y-7854000D02*
X11791000Y-7894000D01*
X11791000Y-9505000D02*
X11831000Y-9545000D01*
X11831000Y-9505000D02*
X11791000Y-9545000D01*
X11854500Y-11791000D02*
X11894500Y-11831000D01*
X11894500Y-11791000D02*
X11854500Y-11831000D01*
X11918000Y-6711000D02*
X11958000Y-6751000D01*
X11958000Y-6711000D02*
X11918000Y-6751000D01*
X11981500Y-8171500D02*
X12021500Y-8211500D01*
X12021500Y-8171500D02*
X11981500Y-8211500D01*
X12045000Y-6330000D02*
X12085000Y-6370000D01*
X12085000Y-6330000D02*
X12045000Y-6370000D01*
X12045000Y-7600000D02*
X12085000Y-7640000D01*
X12085000Y-7600000D02*
X12045000Y-7640000D01*
X12172000Y-9505000D02*
X12212000Y-9545000D01*
X12212000Y-9505000D02*
X12172000Y-9545000D01*
X12426000Y-8235000D02*
X12466000Y-8275000D01*
X12466000Y-8235000D02*
X12426000Y-8275000D01*
X12553000Y-8108000D02*
X12593000Y-8148000D01*
X12593000Y-8108000D02*
X12553000Y-8148000D01*
X12553000Y-8235000D02*
X12593000Y-8275000D01*
X12593000Y-8235000D02*
X12553000Y-8275000D01*
X12616500Y-6330000D02*
X12656500Y-6370000D01*
X12656500Y-6330000D02*
X12616500Y-6370000D01*
X12616500Y-6711000D02*
X12656500Y-6751000D01*
X12656500Y-6711000D02*
X12616500Y-6751000D01*
X12689084Y-7142836D02*
X12729084Y-7182836D01*
X12729084Y-7142836D02*
X12689084Y-7182836D01*
X12743500Y-6901500D02*
X12783500Y-6941500D01*
X12783500Y-6901500D02*
X12743500Y-6941500D01*
X12743500Y-7282500D02*
X12783500Y-7322500D01*
X12783500Y-7282500D02*
X12743500Y-7322500D01*
X12743500Y-13823000D02*
X12783500Y-13863000D01*
X12783500Y-13823000D02*
X12743500Y-13863000D01*
X12807000Y-11791000D02*
X12847000Y-11831000D01*
X12847000Y-11791000D02*
X12807000Y-11831000D01*
X12870500Y-6330000D02*
X12910500Y-6370000D01*
X12910500Y-6330000D02*
X12870500Y-6370000D01*
X12938347Y-6885661D02*
X12978347Y-6925661D01*
X12978347Y-6885661D02*
X12938347Y-6925661D01*
X12997500Y-13823000D02*
X13037500Y-13863000D01*
X13037500Y-13823000D02*
X12997500Y-13863000D01*
X13188000Y-8362000D02*
X13228000Y-8402000D01*
X13228000Y-8362000D02*
X13188000Y-8402000D01*
X13188000Y-8997000D02*
X13228000Y-9037000D01*
X13228000Y-8997000D02*
X13188000Y-9037000D01*
X13251500Y-13823000D02*
X13291500Y-13863000D01*
X13291500Y-13823000D02*
X13251500Y-13863000D01*
X13315000Y-8997000D02*
X13355000Y-9037000D01*
X13355000Y-8997000D02*
X13315000Y-9037000D01*
X13442000Y-6330000D02*
X13482000Y-6370000D01*
X13482000Y-6330000D02*
X13442000Y-6370000D01*
X13442000Y-7854000D02*
X13482000Y-7894000D01*
X13482000Y-7854000D02*
X13442000Y-7894000D01*
X13442000Y-8108000D02*
X13482000Y-8148000D01*
X13482000Y-8108000D02*
X13442000Y-8148000D01*
X13505500Y-13823000D02*
X13545500Y-13863000D01*
X13545500Y-13823000D02*
X13505500Y-13863000D01*
X13569000Y-6584000D02*
X13609000Y-6624000D01*
X13609000Y-6584000D02*
X13569000Y-6624000D01*
X13632500Y-8489000D02*
X13672500Y-8529000D01*
X13672500Y-8489000D02*
X13632500Y-8529000D01*
X13696000Y-6330000D02*
X13736000Y-6370000D01*
X13736000Y-6330000D02*
X13696000Y-6370000D01*
X13696000Y-13823000D02*
X13736000Y-13863000D01*
X13736000Y-13823000D02*
X13696000Y-13863000D01*
X13759500Y-13242550D02*
X13799500Y-13282550D01*
X13799500Y-13242550D02*
X13759500Y-13282550D01*
X13823000Y-9505000D02*
X13863000Y-9545000D01*
X13863000Y-9505000D02*
X13823000Y-9545000D01*
X13886500Y-13315000D02*
X13926500Y-13355000D01*
X13926500Y-13315000D02*
X13886500Y-13355000D01*
X13950000Y-11791000D02*
X13990000Y-11831000D01*
X13990000Y-11791000D02*
X13950000Y-11831000D01*
X13950000Y-13061000D02*
X13990000Y-13101000D01*
X13990000Y-13061000D02*
X13950000Y-13101000D01*
X13950000Y-13823000D02*
X13990000Y-13863000D01*
X13990000Y-13823000D02*
X13950000Y-13863000D01*
X14013500Y-13414049D02*
X14053500Y-13454049D01*
X14053500Y-13414049D02*
X14013500Y-13454049D01*
X14077000Y-11791000D02*
X14117000Y-11831000D01*
X14117000Y-11791000D02*
X14077000Y-11831000D01*
X14077000Y-13061000D02*
X14117000Y-13101000D01*
X14117000Y-13061000D02*
X14077000Y-13101000D01*
X14130449Y-13505500D02*
X14170449Y-13545500D01*
X14170449Y-13505500D02*
X14130449Y-13545500D01*
X14204000Y-13823000D02*
X14244000Y-13863000D01*
X14244000Y-13823000D02*
X14204000Y-13863000D01*
X14331000Y-9505000D02*
X14371000Y-9545000D01*
X14371000Y-9505000D02*
X14331000Y-9545000D01*
X14331000Y-13505500D02*
X14371000Y-13545500D01*
X14371000Y-13505500D02*
X14331000Y-13545500D01*
X14458000Y-8362000D02*
X14498000Y-8402000D01*
X14498000Y-8362000D02*
X14458000Y-8402000D01*
X14712000Y-6330000D02*
X14752000Y-6370000D01*
X14752000Y-6330000D02*
X14712000Y-6370000D01*
X14966000Y-6330000D02*
X15006000Y-6370000D01*
X15006000Y-6330000D02*
X14966000Y-6370000D01*
X14966000Y-6584000D02*
X15006000Y-6624000D01*
X15006000Y-6584000D02*
X14966000Y-6624000D01*
X15026832Y-7595236D02*
X15066832Y-7635236D01*
X15066832Y-7595236D02*
X15026832Y-7635236D01*
X15029500Y-7346000D02*
X15069500Y-7386000D01*
X15069500Y-7346000D02*
X15029500Y-7386000D01*
X15029500Y-7854000D02*
X15069500Y-7894000D01*
X15069500Y-7854000D02*
X15029500Y-7894000D01*
X15029500Y-13632500D02*
X15069500Y-13672500D01*
X15069500Y-13632500D02*
X15029500Y-13672500D01*
X15347000Y-9505000D02*
X15387000Y-9545000D01*
X15387000Y-9505000D02*
X15347000Y-9545000D01*
X15347000Y-11791000D02*
X15387000Y-11831000D01*
X15387000Y-11791000D02*
X15347000Y-11831000D01*
X15347000Y-13061000D02*
X15387000Y-13101000D01*
X15387000Y-13061000D02*
X15347000Y-13101000D01*
X15471006Y-7591384D02*
X15511006Y-7631384D01*
X15511006Y-7591384D02*
X15471006Y-7631384D01*
X15474000Y-6330000D02*
X15514000Y-6370000D01*
X15514000Y-6330000D02*
X15474000Y-6370000D01*
X15474000Y-6584000D02*
X15514000Y-6624000D01*
X15514000Y-6584000D02*
X15474000Y-6624000D01*
X15474000Y-7854000D02*
X15514000Y-7894000D01*
X15514000Y-7854000D02*
X15474000Y-7894000D01*
X15474000Y-8108000D02*
X15514000Y-8148000D01*
X15514000Y-8108000D02*
X15474000Y-8148000D01*
X15474000Y-13505500D02*
X15514000Y-13545500D01*
X15514000Y-13505500D02*
X15474000Y-13545500D01*
X15601000Y-9505000D02*
X15641000Y-9545000D01*
X15641000Y-9505000D02*
X15601000Y-9545000D01*
X15855000Y-13505500D02*
X15895000Y-13545500D01*
X15895000Y-13505500D02*
X15855000Y-13545500D01*
X15982000Y-6330000D02*
X16022000Y-6370000D01*
X16022000Y-6330000D02*
X15982000Y-6370000D01*
X15982000Y-8108000D02*
X16022000Y-8148000D01*
X16022000Y-8108000D02*
X15982000Y-8148000D01*
X16045500Y-11791000D02*
X16085500Y-11831000D01*
X16085500Y-11791000D02*
X16045500Y-11831000D01*
X16109000Y-8108000D02*
X16149000Y-8148000D01*
X16149000Y-8108000D02*
X16109000Y-8148000D01*
X16109000Y-13061000D02*
X16149000Y-13101000D01*
X16149000Y-13061000D02*
X16109000Y-13101000D01*
X16172500Y-9441500D02*
X16212500Y-9481500D01*
X16212500Y-9441500D02*
X16172500Y-9481500D01*
X16236000Y-6330000D02*
X16276000Y-6370000D01*
X16276000Y-6330000D02*
X16236000Y-6370000D01*
X16236000Y-6584000D02*
X16276000Y-6624000D01*
X16276000Y-6584000D02*
X16236000Y-6624000D01*
X16236000Y-6838000D02*
X16276000Y-6878000D01*
X16276000Y-6838000D02*
X16236000Y-6878000D01*
X16236000Y-13505500D02*
X16276000Y-13545500D01*
X16276000Y-13505500D02*
X16236000Y-13545500D01*
X16627941Y-7469434D02*
X16667941Y-7509434D01*
X16667941Y-7469434D02*
X16627941Y-7509434D01*
X16744000Y-6076000D02*
X16784000Y-6116000D01*
X16784000Y-6076000D02*
X16744000Y-6116000D01*
X16744000Y-6330000D02*
X16784000Y-6370000D01*
X16784000Y-6330000D02*
X16744000Y-6370000D01*
X16934500Y-13759500D02*
X16974500Y-13799500D01*
X16974500Y-13759500D02*
X16934500Y-13799500D01*
X17125000Y-8552500D02*
X17165000Y-8592500D01*
X17165000Y-8552500D02*
X17125000Y-8592500D01*
X17442500Y-8552500D02*
X17482500Y-8592500D01*
X17482500Y-8552500D02*
X17442500Y-8592500D01*
X17442500Y-8933500D02*
X17482500Y-8973500D01*
X17482500Y-8933500D02*
X17442500Y-8973500D01*
X17506000Y-11537000D02*
X17546000Y-11577000D01*
X17546000Y-11537000D02*
X17506000Y-11577000D01*
X17506000Y-11791000D02*
X17546000Y-11831000D01*
X17546000Y-11791000D02*
X17506000Y-11831000D01*
X17633000Y-13514450D02*
X17673000Y-13554450D01*
X17673000Y-13514450D02*
X17633000Y-13554450D01*
X17887000Y-9505000D02*
X17927000Y-9545000D01*
X17927000Y-9505000D02*
X17887000Y-9545000D01*
X17887000Y-11600500D02*
X17927000Y-11640500D01*
X17927000Y-11600500D02*
X17887000Y-11640500D01*
X17950500Y-13124500D02*
X17990500Y-13164500D01*
X17990500Y-13124500D02*
X17950500Y-13164500D01*
X18141000Y-11600500D02*
X18181000Y-11640500D01*
X18181000Y-11600500D02*
X18141000Y-11640500D01*
X18268000Y-13569000D02*
X18308000Y-13609000D01*
X18308000Y-13569000D02*
X18268000Y-13609000D01*
X18395000Y-9505000D02*
X18435000Y-9545000D01*
X18435000Y-9505000D02*
X18395000Y-9545000D01*
X18458500Y-11664000D02*
X18498500Y-11704000D01*
X18498500Y-11664000D02*
X18458500Y-11704000D01*
X18712500Y-13569000D02*
X18752500Y-13609000D01*
X18752500Y-13569000D02*
X18712500Y-13609000D01*
D13*
X10327000Y-6350000D02*
G75*
G03*
X10327000Y-6350000I-40000J0D01*
G01*
X10327000Y-6604000D02*
G75*
G03*
X10327000Y-6604000I-40000J0D01*
G01*
X10327000Y-6858000D02*
G75*
G03*
X10327000Y-6858000I-40000J0D01*
G01*
X10327000Y-7112000D02*
G75*
G03*
X10327000Y-7112000I-40000J0D01*
G01*
X10327000Y-7366000D02*
G75*
G03*
X10327000Y-7366000I-40000J0D01*
G01*
X10327000Y-7620000D02*
G75*
G03*
X10327000Y-7620000I-40000J0D01*
G01*
X10327000Y-7874000D02*
G75*
G03*
X10327000Y-7874000I-40000J0D01*
G01*
X10327000Y-13208000D02*
G75*
G03*
X10327000Y-13208000I-40000J0D01*
G01*
X10577000Y-13208000D02*
G75*
G03*
X10577000Y-13208000I-40000J0D01*
G01*
X10589000Y-6032500D02*
G75*
G03*
X10589000Y-6032500I-40000J0D01*
G01*
X11089000Y-6032500D02*
G75*
G03*
X11089000Y-6032500I-40000J0D01*
G01*
X11089000Y-6350000D02*
G75*
G03*
X11089000Y-6350000I-40000J0D01*
G01*
X11089000Y-6604000D02*
G75*
G03*
X11089000Y-6604000I-40000J0D01*
G01*
X11089000Y-6858000D02*
G75*
G03*
X11089000Y-6858000I-40000J0D01*
G01*
X11089000Y-7112000D02*
G75*
G03*
X11089000Y-7112000I-40000J0D01*
G01*
X11089000Y-7366000D02*
G75*
G03*
X11089000Y-7366000I-40000J0D01*
G01*
X11089000Y-7620000D02*
G75*
G03*
X11089000Y-7620000I-40000J0D01*
G01*
X11089000Y-7874000D02*
G75*
G03*
X11089000Y-7874000I-40000J0D01*
G01*
X11089000Y-9271000D02*
G75*
G03*
X11089000Y-9271000I-40000J0D01*
G01*
X11089000Y-9525000D02*
G75*
G03*
X11089000Y-9525000I-40000J0D01*
G01*
X11089000Y-9779000D02*
G75*
G03*
X11089000Y-9779000I-40000J0D01*
G01*
X11089000Y-10033000D02*
G75*
G03*
X11089000Y-10033000I-40000J0D01*
G01*
X11089000Y-10287000D02*
G75*
G03*
X11089000Y-10287000I-40000J0D01*
G01*
X11089000Y-10541000D02*
G75*
G03*
X11089000Y-10541000I-40000J0D01*
G01*
X11089000Y-10795000D02*
G75*
G03*
X11089000Y-10795000I-40000J0D01*
G01*
X11089000Y-11049000D02*
G75*
G03*
X11089000Y-11049000I-40000J0D01*
G01*
X11089000Y-11303000D02*
G75*
G03*
X11089000Y-11303000I-40000J0D01*
G01*
X11089000Y-11557000D02*
G75*
G03*
X11089000Y-11557000I-40000J0D01*
G01*
X11089000Y-11811000D02*
G75*
G03*
X11089000Y-11811000I-40000J0D01*
G01*
X11089000Y-12065000D02*
G75*
G03*
X11089000Y-12065000I-40000J0D01*
G01*
X11089000Y-12319000D02*
G75*
G03*
X11089000Y-12319000I-40000J0D01*
G01*
X11089000Y-12573000D02*
G75*
G03*
X11089000Y-12573000I-40000J0D01*
G01*
X11089000Y-12827000D02*
G75*
G03*
X11089000Y-12827000I-40000J0D01*
G01*
X11089000Y-13081000D02*
G75*
G03*
X11089000Y-13081000I-40000J0D01*
G01*
X11598000Y-6349500D02*
G75*
G03*
X11598000Y-6349500I-40000J0D01*
G01*
X11598000Y-6603500D02*
G75*
G03*
X11598000Y-6603500I-40000J0D01*
G01*
X11598000Y-6857500D02*
G75*
G03*
X11598000Y-6857500I-40000J0D01*
G01*
X11598000Y-7111500D02*
G75*
G03*
X11598000Y-7111500I-40000J0D01*
G01*
X11598000Y-7365500D02*
G75*
G03*
X11598000Y-7365500I-40000J0D01*
G01*
X11598000Y-7619500D02*
G75*
G03*
X11598000Y-7619500I-40000J0D01*
G01*
X11598000Y-7873500D02*
G75*
G03*
X11598000Y-7873500I-40000J0D01*
G01*
X11855000Y-6032500D02*
G75*
G03*
X11855000Y-6032500I-40000J0D01*
G01*
X12105000Y-8953500D02*
G75*
G03*
X12105000Y-8953500I-40000J0D01*
G01*
X12355000Y-6032500D02*
G75*
G03*
X12355000Y-6032500I-40000J0D01*
G01*
X12360000Y-6349500D02*
G75*
G03*
X12360000Y-6349500I-40000J0D01*
G01*
X12360000Y-6603500D02*
G75*
G03*
X12360000Y-6603500I-40000J0D01*
G01*
X12360000Y-6857500D02*
G75*
G03*
X12360000Y-6857500I-40000J0D01*
G01*
X12360000Y-7111500D02*
G75*
G03*
X12360000Y-7111500I-40000J0D01*
G01*
X12360000Y-7365500D02*
G75*
G03*
X12360000Y-7365500I-40000J0D01*
G01*
X12360000Y-7619500D02*
G75*
G03*
X12360000Y-7619500I-40000J0D01*
G01*
X12360000Y-7873500D02*
G75*
G03*
X12360000Y-7873500I-40000J0D01*
G01*
X12605000Y-8953500D02*
G75*
G03*
X12605000Y-8953500I-40000J0D01*
G01*
X12613000Y-9271000D02*
G75*
G03*
X12613000Y-9271000I-40000J0D01*
G01*
X12613000Y-9525000D02*
G75*
G03*
X12613000Y-9525000I-40000J0D01*
G01*
X12613000Y-9779000D02*
G75*
G03*
X12613000Y-9779000I-40000J0D01*
G01*
X12613000Y-10033000D02*
G75*
G03*
X12613000Y-10033000I-40000J0D01*
G01*
X12613000Y-10287000D02*
G75*
G03*
X12613000Y-10287000I-40000J0D01*
G01*
X12613000Y-10541000D02*
G75*
G03*
X12613000Y-10541000I-40000J0D01*
G01*
X12613000Y-10795000D02*
G75*
G03*
X12613000Y-10795000I-40000J0D01*
G01*
X12613000Y-11049000D02*
G75*
G03*
X12613000Y-11049000I-40000J0D01*
G01*
X12613000Y-11303000D02*
G75*
G03*
X12613000Y-11303000I-40000J0D01*
G01*
X12613000Y-11557000D02*
G75*
G03*
X12613000Y-11557000I-40000J0D01*
G01*
X12613000Y-11811000D02*
G75*
G03*
X12613000Y-11811000I-40000J0D01*
G01*
X12613000Y-12065000D02*
G75*
G03*
X12613000Y-12065000I-40000J0D01*
G01*
X12613000Y-12319000D02*
G75*
G03*
X12613000Y-12319000I-40000J0D01*
G01*
X12613000Y-12573000D02*
G75*
G03*
X12613000Y-12573000I-40000J0D01*
G01*
X12613000Y-12827000D02*
G75*
G03*
X12613000Y-12827000I-40000J0D01*
G01*
X12613000Y-13081000D02*
G75*
G03*
X12613000Y-13081000I-40000J0D01*
G01*
X13121000Y-9271000D02*
G75*
G03*
X13121000Y-9271000I-40000J0D01*
G01*
X13121000Y-9525000D02*
G75*
G03*
X13121000Y-9525000I-40000J0D01*
G01*
X13121000Y-9779000D02*
G75*
G03*
X13121000Y-9779000I-40000J0D01*
G01*
X13121000Y-10033000D02*
G75*
G03*
X13121000Y-10033000I-40000J0D01*
G01*
X13121000Y-10287000D02*
G75*
G03*
X13121000Y-10287000I-40000J0D01*
G01*
X13121000Y-10541000D02*
G75*
G03*
X13121000Y-10541000I-40000J0D01*
G01*
X13121000Y-10795000D02*
G75*
G03*
X13121000Y-10795000I-40000J0D01*
G01*
X13121000Y-11049000D02*
G75*
G03*
X13121000Y-11049000I-40000J0D01*
G01*
X13121000Y-11303000D02*
G75*
G03*
X13121000Y-11303000I-40000J0D01*
G01*
X13121000Y-11557000D02*
G75*
G03*
X13121000Y-11557000I-40000J0D01*
G01*
X13121000Y-11811000D02*
G75*
G03*
X13121000Y-11811000I-40000J0D01*
G01*
X13121000Y-12065000D02*
G75*
G03*
X13121000Y-12065000I-40000J0D01*
G01*
X13121000Y-12319000D02*
G75*
G03*
X13121000Y-12319000I-40000J0D01*
G01*
X13121000Y-12573000D02*
G75*
G03*
X13121000Y-12573000I-40000J0D01*
G01*
X13121000Y-12827000D02*
G75*
G03*
X13121000Y-12827000I-40000J0D01*
G01*
X13121000Y-13081000D02*
G75*
G03*
X13121000Y-13081000I-40000J0D01*
G01*
X13247000Y-6350000D02*
G75*
G03*
X13247000Y-6350000I-40000J0D01*
G01*
X13247000Y-6604000D02*
G75*
G03*
X13247000Y-6604000I-40000J0D01*
G01*
X13247000Y-6858000D02*
G75*
G03*
X13247000Y-6858000I-40000J0D01*
G01*
X13247000Y-7112000D02*
G75*
G03*
X13247000Y-7112000I-40000J0D01*
G01*
X13247000Y-7366000D02*
G75*
G03*
X13247000Y-7366000I-40000J0D01*
G01*
X13247000Y-7620000D02*
G75*
G03*
X13247000Y-7620000I-40000J0D01*
G01*
X13247000Y-7874000D02*
G75*
G03*
X13247000Y-7874000I-40000J0D01*
G01*
X13247000Y-8128000D02*
G75*
G03*
X13247000Y-8128000I-40000J0D01*
G01*
X13506000Y-6032500D02*
G75*
G03*
X13506000Y-6032500I-40000J0D01*
G01*
X14006000Y-6032500D02*
G75*
G03*
X14006000Y-6032500I-40000J0D01*
G01*
X14009000Y-6350000D02*
G75*
G03*
X14009000Y-6350000I-40000J0D01*
G01*
X14009000Y-6604000D02*
G75*
G03*
X14009000Y-6604000I-40000J0D01*
G01*
X14009000Y-6858000D02*
G75*
G03*
X14009000Y-6858000I-40000J0D01*
G01*
X14009000Y-7112000D02*
G75*
G03*
X14009000Y-7112000I-40000J0D01*
G01*
X14009000Y-7366000D02*
G75*
G03*
X14009000Y-7366000I-40000J0D01*
G01*
X14009000Y-7620000D02*
G75*
G03*
X14009000Y-7620000I-40000J0D01*
G01*
X14009000Y-7874000D02*
G75*
G03*
X14009000Y-7874000I-40000J0D01*
G01*
X14009000Y-8128000D02*
G75*
G03*
X14009000Y-8128000I-40000J0D01*
G01*
X14137000Y-8953500D02*
G75*
G03*
X14137000Y-8953500I-40000J0D01*
G01*
X14518000Y-6350000D02*
G75*
G03*
X14518000Y-6350000I-40000J0D01*
G01*
X14518000Y-6604000D02*
G75*
G03*
X14518000Y-6604000I-40000J0D01*
G01*
X14518000Y-6858000D02*
G75*
G03*
X14518000Y-6858000I-40000J0D01*
G01*
X14518000Y-7112000D02*
G75*
G03*
X14518000Y-7112000I-40000J0D01*
G01*
X14518000Y-7366000D02*
G75*
G03*
X14518000Y-7366000I-40000J0D01*
G01*
X14518000Y-7620000D02*
G75*
G03*
X14518000Y-7620000I-40000J0D01*
G01*
X14518000Y-7874000D02*
G75*
G03*
X14518000Y-7874000I-40000J0D01*
G01*
X14518000Y-8128000D02*
G75*
G03*
X14518000Y-8128000I-40000J0D01*
G01*
X14637000Y-8953500D02*
G75*
G03*
X14637000Y-8953500I-40000J0D01*
G01*
X14645000Y-9271000D02*
G75*
G03*
X14645000Y-9271000I-40000J0D01*
G01*
X14645000Y-9525000D02*
G75*
G03*
X14645000Y-9525000I-40000J0D01*
G01*
X14645000Y-9779000D02*
G75*
G03*
X14645000Y-9779000I-40000J0D01*
G01*
X14645000Y-10033000D02*
G75*
G03*
X14645000Y-10033000I-40000J0D01*
G01*
X14645000Y-10287000D02*
G75*
G03*
X14645000Y-10287000I-40000J0D01*
G01*
X14645000Y-10541000D02*
G75*
G03*
X14645000Y-10541000I-40000J0D01*
G01*
X14645000Y-10795000D02*
G75*
G03*
X14645000Y-10795000I-40000J0D01*
G01*
X14645000Y-11049000D02*
G75*
G03*
X14645000Y-11049000I-40000J0D01*
G01*
X14645000Y-11303000D02*
G75*
G03*
X14645000Y-11303000I-40000J0D01*
G01*
X14645000Y-11557000D02*
G75*
G03*
X14645000Y-11557000I-40000J0D01*
G01*
X14645000Y-11811000D02*
G75*
G03*
X14645000Y-11811000I-40000J0D01*
G01*
X14645000Y-12065000D02*
G75*
G03*
X14645000Y-12065000I-40000J0D01*
G01*
X14645000Y-12319000D02*
G75*
G03*
X14645000Y-12319000I-40000J0D01*
G01*
X14645000Y-12573000D02*
G75*
G03*
X14645000Y-12573000I-40000J0D01*
G01*
X14645000Y-12827000D02*
G75*
G03*
X14645000Y-12827000I-40000J0D01*
G01*
X14645000Y-13081000D02*
G75*
G03*
X14645000Y-13081000I-40000J0D01*
G01*
X14776000Y-6032500D02*
G75*
G03*
X14776000Y-6032500I-40000J0D01*
G01*
X15153000Y-9271000D02*
G75*
G03*
X15153000Y-9271000I-40000J0D01*
G01*
X15153000Y-9525000D02*
G75*
G03*
X15153000Y-9525000I-40000J0D01*
G01*
X15153000Y-9779000D02*
G75*
G03*
X15153000Y-9779000I-40000J0D01*
G01*
X15153000Y-10033000D02*
G75*
G03*
X15153000Y-10033000I-40000J0D01*
G01*
X15153000Y-10287000D02*
G75*
G03*
X15153000Y-10287000I-40000J0D01*
G01*
X15153000Y-10541000D02*
G75*
G03*
X15153000Y-10541000I-40000J0D01*
G01*
X15153000Y-10795000D02*
G75*
G03*
X15153000Y-10795000I-40000J0D01*
G01*
X15153000Y-11049000D02*
G75*
G03*
X15153000Y-11049000I-40000J0D01*
G01*
X15153000Y-11303000D02*
G75*
G03*
X15153000Y-11303000I-40000J0D01*
G01*
X15153000Y-11557000D02*
G75*
G03*
X15153000Y-11557000I-40000J0D01*
G01*
X15153000Y-11811000D02*
G75*
G03*
X15153000Y-11811000I-40000J0D01*
G01*
X15153000Y-12065000D02*
G75*
G03*
X15153000Y-12065000I-40000J0D01*
G01*
X15153000Y-12319000D02*
G75*
G03*
X15153000Y-12319000I-40000J0D01*
G01*
X15153000Y-12573000D02*
G75*
G03*
X15153000Y-12573000I-40000J0D01*
G01*
X15153000Y-12827000D02*
G75*
G03*
X15153000Y-12827000I-40000J0D01*
G01*
X15153000Y-13081000D02*
G75*
G03*
X15153000Y-13081000I-40000J0D01*
G01*
X15276000Y-6032500D02*
G75*
G03*
X15276000Y-6032500I-40000J0D01*
G01*
X15280000Y-6350000D02*
G75*
G03*
X15280000Y-6350000I-40000J0D01*
G01*
X15280000Y-6604000D02*
G75*
G03*
X15280000Y-6604000I-40000J0D01*
G01*
X15280000Y-6858000D02*
G75*
G03*
X15280000Y-6858000I-40000J0D01*
G01*
X15280000Y-7112000D02*
G75*
G03*
X15280000Y-7112000I-40000J0D01*
G01*
X15280000Y-7366000D02*
G75*
G03*
X15280000Y-7366000I-40000J0D01*
G01*
X15280000Y-7620000D02*
G75*
G03*
X15280000Y-7620000I-40000J0D01*
G01*
X15280000Y-7874000D02*
G75*
G03*
X15280000Y-7874000I-40000J0D01*
G01*
X15280000Y-8128000D02*
G75*
G03*
X15280000Y-8128000I-40000J0D01*
G01*
X15788000Y-6350000D02*
G75*
G03*
X15788000Y-6350000I-40000J0D01*
G01*
X15788000Y-6604000D02*
G75*
G03*
X15788000Y-6604000I-40000J0D01*
G01*
X15788000Y-6858000D02*
G75*
G03*
X15788000Y-6858000I-40000J0D01*
G01*
X15788000Y-7112000D02*
G75*
G03*
X15788000Y-7112000I-40000J0D01*
G01*
X15788000Y-7366000D02*
G75*
G03*
X15788000Y-7366000I-40000J0D01*
G01*
X15788000Y-7620000D02*
G75*
G03*
X15788000Y-7620000I-40000J0D01*
G01*
X15788000Y-7874000D02*
G75*
G03*
X15788000Y-7874000I-40000J0D01*
G01*
X15788000Y-8128000D02*
G75*
G03*
X15788000Y-8128000I-40000J0D01*
G01*
X16050000Y-6032500D02*
G75*
G03*
X16050000Y-6032500I-40000J0D01*
G01*
X16169000Y-8953500D02*
G75*
G03*
X16169000Y-8953500I-40000J0D01*
G01*
X16550000Y-6032500D02*
G75*
G03*
X16550000Y-6032500I-40000J0D01*
G01*
X16550000Y-6350000D02*
G75*
G03*
X16550000Y-6350000I-40000J0D01*
G01*
X16550000Y-6604000D02*
G75*
G03*
X16550000Y-6604000I-40000J0D01*
G01*
X16550000Y-6858000D02*
G75*
G03*
X16550000Y-6858000I-40000J0D01*
G01*
X16550000Y-7112000D02*
G75*
G03*
X16550000Y-7112000I-40000J0D01*
G01*
X16550000Y-7366000D02*
G75*
G03*
X16550000Y-7366000I-40000J0D01*
G01*
X16550000Y-7620000D02*
G75*
G03*
X16550000Y-7620000I-40000J0D01*
G01*
X16550000Y-7874000D02*
G75*
G03*
X16550000Y-7874000I-40000J0D01*
G01*
X16550000Y-8128000D02*
G75*
G03*
X16550000Y-8128000I-40000J0D01*
G01*
X16669000Y-8953500D02*
G75*
G03*
X16669000Y-8953500I-40000J0D01*
G01*
X16677000Y-9271000D02*
G75*
G03*
X16677000Y-9271000I-40000J0D01*
G01*
X16677000Y-9525000D02*
G75*
G03*
X16677000Y-9525000I-40000J0D01*
G01*
X16677000Y-9779000D02*
G75*
G03*
X16677000Y-9779000I-40000J0D01*
G01*
X16677000Y-10033000D02*
G75*
G03*
X16677000Y-10033000I-40000J0D01*
G01*
X16677000Y-10287000D02*
G75*
G03*
X16677000Y-10287000I-40000J0D01*
G01*
X16677000Y-10541000D02*
G75*
G03*
X16677000Y-10541000I-40000J0D01*
G01*
X16677000Y-10795000D02*
G75*
G03*
X16677000Y-10795000I-40000J0D01*
G01*
X16677000Y-11049000D02*
G75*
G03*
X16677000Y-11049000I-40000J0D01*
G01*
X16677000Y-11303000D02*
G75*
G03*
X16677000Y-11303000I-40000J0D01*
G01*
X16677000Y-11557000D02*
G75*
G03*
X16677000Y-11557000I-40000J0D01*
G01*
X16677000Y-11811000D02*
G75*
G03*
X16677000Y-11811000I-40000J0D01*
G01*
X16677000Y-12065000D02*
G75*
G03*
X16677000Y-12065000I-40000J0D01*
G01*
X16677000Y-12319000D02*
G75*
G03*
X16677000Y-12319000I-40000J0D01*
G01*
X16677000Y-12573000D02*
G75*
G03*
X16677000Y-12573000I-40000J0D01*
G01*
X16677000Y-12827000D02*
G75*
G03*
X16677000Y-12827000I-40000J0D01*
G01*
X16677000Y-13081000D02*
G75*
G03*
X16677000Y-13081000I-40000J0D01*
G01*
X17185000Y-9271000D02*
G75*
G03*
X17185000Y-9271000I-40000J0D01*
G01*
X17185000Y-9525000D02*
G75*
G03*
X17185000Y-9525000I-40000J0D01*
G01*
X17185000Y-9779000D02*
G75*
G03*
X17185000Y-9779000I-40000J0D01*
G01*
X17185000Y-10033000D02*
G75*
G03*
X17185000Y-10033000I-40000J0D01*
G01*
X17185000Y-10287000D02*
G75*
G03*
X17185000Y-10287000I-40000J0D01*
G01*
X17185000Y-10541000D02*
G75*
G03*
X17185000Y-10541000I-40000J0D01*
G01*
X17185000Y-10795000D02*
G75*
G03*
X17185000Y-10795000I-40000J0D01*
G01*
X17185000Y-11049000D02*
G75*
G03*
X17185000Y-11049000I-40000J0D01*
G01*
X17185000Y-11303000D02*
G75*
G03*
X17185000Y-11303000I-40000J0D01*
G01*
X17185000Y-11557000D02*
G75*
G03*
X17185000Y-11557000I-40000J0D01*
G01*
X17185000Y-11811000D02*
G75*
G03*
X17185000Y-11811000I-40000J0D01*
G01*
X17185000Y-12065000D02*
G75*
G03*
X17185000Y-12065000I-40000J0D01*
G01*
X17185000Y-12319000D02*
G75*
G03*
X17185000Y-12319000I-40000J0D01*
G01*
X17185000Y-12573000D02*
G75*
G03*
X17185000Y-12573000I-40000J0D01*
G01*
X17185000Y-12827000D02*
G75*
G03*
X17185000Y-12827000I-40000J0D01*
G01*
X17185000Y-13081000D02*
G75*
G03*
X17185000Y-13081000I-40000J0D01*
G01*
X17248500Y-6223000D02*
G75*
G03*
X17248500Y-6223000I-40000J0D01*
G01*
X17248500Y-6540500D02*
G75*
G03*
X17248500Y-6540500I-40000J0D01*
G01*
X17248500Y-6858000D02*
G75*
G03*
X17248500Y-6858000I-40000J0D01*
G01*
X17248500Y-7175500D02*
G75*
G03*
X17248500Y-7175500I-40000J0D01*
G01*
X17248500Y-7493000D02*
G75*
G03*
X17248500Y-7493000I-40000J0D01*
G01*
X17248500Y-7810500D02*
G75*
G03*
X17248500Y-7810500I-40000J0D01*
G01*
X17248500Y-8128000D02*
G75*
G03*
X17248500Y-8128000I-40000J0D01*
G01*
X18201000Y-8953500D02*
G75*
G03*
X18201000Y-8953500I-40000J0D01*
G01*
X18264500Y-6223000D02*
G75*
G03*
X18264500Y-6223000I-40000J0D01*
G01*
X18264500Y-6540500D02*
G75*
G03*
X18264500Y-6540500I-40000J0D01*
G01*
X18264500Y-6858000D02*
G75*
G03*
X18264500Y-6858000I-40000J0D01*
G01*
X18264500Y-7175500D02*
G75*
G03*
X18264500Y-7175500I-40000J0D01*
G01*
X18264500Y-7493000D02*
G75*
G03*
X18264500Y-7493000I-40000J0D01*
G01*
X18264500Y-7810500D02*
G75*
G03*
X18264500Y-7810500I-40000J0D01*
G01*
X18264500Y-8128000D02*
G75*
G03*
X18264500Y-8128000I-40000J0D01*
G01*
X18701000Y-8953500D02*
G75*
G03*
X18701000Y-8953500I-40000J0D01*
G01*
X18709000Y-9271000D02*
G75*
G03*
X18709000Y-9271000I-40000J0D01*
G01*
X18709000Y-9525000D02*
G75*
G03*
X18709000Y-9525000I-40000J0D01*
G01*
X18709000Y-9779000D02*
G75*
G03*
X18709000Y-9779000I-40000J0D01*
G01*
X18709000Y-10033000D02*
G75*
G03*
X18709000Y-10033000I-40000J0D01*
G01*
X18709000Y-10287000D02*
G75*
G03*
X18709000Y-10287000I-40000J0D01*
G01*
X18709000Y-10541000D02*
G75*
G03*
X18709000Y-10541000I-40000J0D01*
G01*
X18709000Y-10795000D02*
G75*
G03*
X18709000Y-10795000I-40000J0D01*
G01*
X18709000Y-11049000D02*
G75*
G03*
X18709000Y-11049000I-40000J0D01*
G01*
X18709000Y-11303000D02*
G75*
G03*
X18709000Y-11303000I-40000J0D01*
G01*
X18709000Y-11557000D02*
G75*
G03*
X18709000Y-11557000I-40000J0D01*
G01*
X18709000Y-11811000D02*
G75*
G03*
X18709000Y-11811000I-40000J0D01*
G01*
X18709000Y-12065000D02*
G75*
G03*
X18709000Y-12065000I-40000J0D01*
G01*
X18709000Y-12319000D02*
G75*
G03*
X18709000Y-12319000I-40000J0D01*
G01*
X18709000Y-12573000D02*
G75*
G03*
X18709000Y-12573000I-40000J0D01*
G01*
X18709000Y-12827000D02*
G75*
G03*
X18709000Y-12827000I-40000J0D01*
G01*
X18709000Y-13081000D02*
G75*
G03*
X18709000Y-13081000I-40000J0D01*
G01*
D10*
X9397500Y-8712500D02*
X9397500Y-8812500D01*
X9347500Y-8762500D02*
X9447500Y-8762500D01*
X9397500Y-8966500D02*
X9397500Y-9066500D01*
X9347500Y-9016500D02*
X9447500Y-9016500D01*
X9397500Y-9220500D02*
X9397500Y-9320500D01*
X9347500Y-9270500D02*
X9447500Y-9270500D01*
X9397500Y-9984500D02*
X9397500Y-10084500D01*
X9347500Y-10034500D02*
X9447500Y-10034500D01*
X9397500Y-10238500D02*
X9397500Y-10338500D01*
X9347500Y-10288500D02*
X9447500Y-10288500D01*
X9397500Y-10492500D02*
X9397500Y-10592500D01*
X9347500Y-10542500D02*
X9447500Y-10542500D01*
X9397500Y-11253000D02*
X9397500Y-11353000D01*
X9347500Y-11303000D02*
X9447500Y-11303000D01*
X9397500Y-11507000D02*
X9397500Y-11607000D01*
X9347500Y-11557000D02*
X9447500Y-11557000D01*
X9397500Y-11761000D02*
X9397500Y-11861000D01*
X9347500Y-11811000D02*
X9447500Y-11811000D01*
X9651500Y-8712500D02*
X9651500Y-8812500D01*
X9601500Y-8762500D02*
X9701500Y-8762500D01*
X9651500Y-8966500D02*
X9651500Y-9066500D01*
X9601500Y-9016500D02*
X9701500Y-9016500D01*
X9651500Y-9220500D02*
X9651500Y-9320500D01*
X9601500Y-9270500D02*
X9701500Y-9270500D01*
X9651500Y-9984500D02*
X9651500Y-10084500D01*
X9601500Y-10034500D02*
X9701500Y-10034500D01*
X9651500Y-10238500D02*
X9651500Y-10338500D01*
X9601500Y-10288500D02*
X9701500Y-10288500D01*
X9651500Y-10492500D02*
X9651500Y-10592500D01*
X9601500Y-10542500D02*
X9701500Y-10542500D01*
X9651500Y-11253000D02*
X9651500Y-11353000D01*
X9601500Y-11303000D02*
X9701500Y-11303000D01*
X9651500Y-11507000D02*
X9651500Y-11607000D01*
X9601500Y-11557000D02*
X9701500Y-11557000D01*
X9651500Y-11761000D02*
X9651500Y-11861000D01*
X9601500Y-11811000D02*
X9701500Y-11811000D01*
X10286500Y-8712500D02*
X10286500Y-8812500D01*
X10236500Y-8762500D02*
X10336500Y-8762500D01*
X10286500Y-8966500D02*
X10286500Y-9066500D01*
X10236500Y-9016500D02*
X10336500Y-9016500D01*
X10286500Y-9984500D02*
X10286500Y-10084500D01*
X10236500Y-10034500D02*
X10336500Y-10034500D01*
X10286500Y-10238500D02*
X10286500Y-10338500D01*
X10236500Y-10288500D02*
X10336500Y-10288500D01*
X10286500Y-10492500D02*
X10286500Y-10592500D01*
X10236500Y-10542500D02*
X10336500Y-10542500D01*
X10286500Y-11254500D02*
X10286500Y-11354500D01*
X10236500Y-11304500D02*
X10336500Y-11304500D01*
X10286500Y-11508500D02*
X10286500Y-11608500D01*
X10236500Y-11558500D02*
X10336500Y-11558500D01*
X10286500Y-11762500D02*
X10286500Y-11862500D01*
X10236500Y-11812500D02*
X10336500Y-11812500D01*
X10540500Y-8712500D02*
X10540500Y-8812500D01*
X10490500Y-8762500D02*
X10590500Y-8762500D01*
X10540500Y-8966500D02*
X10540500Y-9066500D01*
X10490500Y-9016500D02*
X10590500Y-9016500D01*
X10540500Y-9984500D02*
X10540500Y-10084500D01*
X10490500Y-10034500D02*
X10590500Y-10034500D01*
X10540500Y-10238500D02*
X10540500Y-10338500D01*
X10490500Y-10288500D02*
X10590500Y-10288500D01*
X10540500Y-10492500D02*
X10540500Y-10592500D01*
X10490500Y-10542500D02*
X10590500Y-10542500D01*
X10540500Y-11254500D02*
X10540500Y-11354500D01*
X10490500Y-11304500D02*
X10590500Y-11304500D01*
X10540500Y-11508500D02*
X10540500Y-11608500D01*
X10490500Y-11558500D02*
X10590500Y-11558500D01*
X10540500Y-11762500D02*
X10540500Y-11862500D01*
X10490500Y-11812500D02*
X10590500Y-11812500D01*
D11*
X9146025Y-15372069D02*
X9146025Y-15172069D01*
X9146025Y-15172069D02*
X9193644Y-15172069D01*
X9193644Y-15172069D02*
X9222216Y-15181593D01*
X9222216Y-15181593D02*
X9241263Y-15200641D01*
X9241263Y-15200641D02*
X9250787Y-15219689D01*
X9250787Y-15219689D02*
X9260311Y-15257784D01*
X9260311Y-15257784D02*
X9260311Y-15286355D01*
X9260311Y-15286355D02*
X9250787Y-15324450D01*
X9250787Y-15324450D02*
X9241263Y-15343498D01*
X9241263Y-15343498D02*
X9222216Y-15362546D01*
X9222216Y-15362546D02*
X9193644Y-15372069D01*
X9193644Y-15372069D02*
X9146025Y-15372069D01*
X9346025Y-15372069D02*
X9346025Y-15238736D01*
X9346025Y-15276831D02*
X9355549Y-15257784D01*
X9355549Y-15257784D02*
X9365073Y-15248260D01*
X9365073Y-15248260D02*
X9384121Y-15238736D01*
X9384121Y-15238736D02*
X9403168Y-15238736D01*
X9469835Y-15372069D02*
X9469835Y-15238736D01*
X9469835Y-15172069D02*
X9460311Y-15181593D01*
X9460311Y-15181593D02*
X9469835Y-15191117D01*
X9469835Y-15191117D02*
X9479359Y-15181593D01*
X9479359Y-15181593D02*
X9469835Y-15172069D01*
X9469835Y-15172069D02*
X9469835Y-15191117D01*
X9593644Y-15372069D02*
X9574597Y-15362546D01*
X9574597Y-15362546D02*
X9565073Y-15343498D01*
X9565073Y-15343498D02*
X9565073Y-15172069D01*
X9698406Y-15372069D02*
X9679359Y-15362546D01*
X9679359Y-15362546D02*
X9669835Y-15343498D01*
X9669835Y-15343498D02*
X9669835Y-15172069D01*
X9894597Y-15372069D02*
X9894597Y-15172069D01*
X9894597Y-15172069D02*
X9961263Y-15314927D01*
X9961263Y-15314927D02*
X10027930Y-15172069D01*
X10027930Y-15172069D02*
X10027930Y-15372069D01*
X10208882Y-15372069D02*
X10208882Y-15267308D01*
X10208882Y-15267308D02*
X10199359Y-15248260D01*
X10199359Y-15248260D02*
X10180311Y-15238736D01*
X10180311Y-15238736D02*
X10142216Y-15238736D01*
X10142216Y-15238736D02*
X10123168Y-15248260D01*
X10208882Y-15362546D02*
X10189835Y-15372069D01*
X10189835Y-15372069D02*
X10142216Y-15372069D01*
X10142216Y-15372069D02*
X10123168Y-15362546D01*
X10123168Y-15362546D02*
X10113644Y-15343498D01*
X10113644Y-15343498D02*
X10113644Y-15324450D01*
X10113644Y-15324450D02*
X10123168Y-15305403D01*
X10123168Y-15305403D02*
X10142216Y-15295879D01*
X10142216Y-15295879D02*
X10189835Y-15295879D01*
X10189835Y-15295879D02*
X10208882Y-15286355D01*
X10304121Y-15238736D02*
X10304121Y-15438736D01*
X10304121Y-15248260D02*
X10323168Y-15238736D01*
X10323168Y-15238736D02*
X10361263Y-15238736D01*
X10361263Y-15238736D02*
X10380311Y-15248260D01*
X10380311Y-15248260D02*
X10389835Y-15257784D01*
X10389835Y-15257784D02*
X10399359Y-15276831D01*
X10399359Y-15276831D02*
X10399359Y-15333974D01*
X10399359Y-15333974D02*
X10389835Y-15353022D01*
X10389835Y-15353022D02*
X10380311Y-15362546D01*
X10380311Y-15362546D02*
X10361263Y-15372069D01*
X10361263Y-15372069D02*
X10323168Y-15372069D01*
X10323168Y-15372069D02*
X10304121Y-15362546D01*
X10485073Y-15353022D02*
X10494597Y-15362546D01*
X10494597Y-15362546D02*
X10485073Y-15372069D01*
X10485073Y-15372069D02*
X10475549Y-15362546D01*
X10475549Y-15362546D02*
X10485073Y-15353022D01*
X10485073Y-15353022D02*
X10485073Y-15372069D01*
X10485073Y-15248260D02*
X10494597Y-15257784D01*
X10494597Y-15257784D02*
X10485073Y-15267308D01*
X10485073Y-15267308D02*
X10475549Y-15257784D01*
X10475549Y-15257784D02*
X10485073Y-15248260D01*
X10485073Y-15248260D02*
X10485073Y-15267308D01*
D12*
X8858406Y-15698593D02*
X8898406Y-15738593D01*
X8898406Y-15698593D02*
X8858406Y-15738593D01*
D11*
X9184121Y-15592069D02*
X9203168Y-15592069D01*
X9203168Y-15592069D02*
X9222216Y-15601593D01*
X9222216Y-15601593D02*
X9231740Y-15611117D01*
X9231740Y-15611117D02*
X9241263Y-15630165D01*
X9241263Y-15630165D02*
X9250787Y-15668260D01*
X9250787Y-15668260D02*
X9250787Y-15715879D01*
X9250787Y-15715879D02*
X9241263Y-15753974D01*
X9241263Y-15753974D02*
X9231740Y-15773022D01*
X9231740Y-15773022D02*
X9222216Y-15782546D01*
X9222216Y-15782546D02*
X9203168Y-15792069D01*
X9203168Y-15792069D02*
X9184121Y-15792069D01*
X9184121Y-15792069D02*
X9165073Y-15782546D01*
X9165073Y-15782546D02*
X9155549Y-15773022D01*
X9155549Y-15773022D02*
X9146025Y-15753974D01*
X9146025Y-15753974D02*
X9136502Y-15715879D01*
X9136502Y-15715879D02*
X9136502Y-15668260D01*
X9136502Y-15668260D02*
X9146025Y-15630165D01*
X9146025Y-15630165D02*
X9155549Y-15611117D01*
X9155549Y-15611117D02*
X9165073Y-15601593D01*
X9165073Y-15601593D02*
X9184121Y-15592069D01*
X9336502Y-15773022D02*
X9346025Y-15782546D01*
X9346025Y-15782546D02*
X9336502Y-15792069D01*
X9336502Y-15792069D02*
X9326978Y-15782546D01*
X9326978Y-15782546D02*
X9336502Y-15773022D01*
X9336502Y-15773022D02*
X9336502Y-15792069D01*
X9517454Y-15658736D02*
X9517454Y-15792069D01*
X9469835Y-15582546D02*
X9422216Y-15725403D01*
X9422216Y-15725403D02*
X9546025Y-15725403D01*
X9660311Y-15592069D02*
X9679359Y-15592069D01*
X9679359Y-15592069D02*
X9698406Y-15601593D01*
X9698406Y-15601593D02*
X9707930Y-15611117D01*
X9707930Y-15611117D02*
X9717454Y-15630165D01*
X9717454Y-15630165D02*
X9726978Y-15668260D01*
X9726978Y-15668260D02*
X9726978Y-15715879D01*
X9726978Y-15715879D02*
X9717454Y-15753974D01*
X9717454Y-15753974D02*
X9707930Y-15773022D01*
X9707930Y-15773022D02*
X9698406Y-15782546D01*
X9698406Y-15782546D02*
X9679359Y-15792069D01*
X9679359Y-15792069D02*
X9660311Y-15792069D01*
X9660311Y-15792069D02*
X9641263Y-15782546D01*
X9641263Y-15782546D02*
X9631740Y-15773022D01*
X9631740Y-15773022D02*
X9622216Y-15753974D01*
X9622216Y-15753974D02*
X9612692Y-15715879D01*
X9612692Y-15715879D02*
X9612692Y-15668260D01*
X9612692Y-15668260D02*
X9622216Y-15630165D01*
X9622216Y-15630165D02*
X9631740Y-15611117D01*
X9631740Y-15611117D02*
X9641263Y-15601593D01*
X9641263Y-15601593D02*
X9660311Y-15592069D01*
X9850787Y-15592069D02*
X9869835Y-15592069D01*
X9869835Y-15592069D02*
X9888883Y-15601593D01*
X9888883Y-15601593D02*
X9898406Y-15611117D01*
X9898406Y-15611117D02*
X9907930Y-15630165D01*
X9907930Y-15630165D02*
X9917454Y-15668260D01*
X9917454Y-15668260D02*
X9917454Y-15715879D01*
X9917454Y-15715879D02*
X9907930Y-15753974D01*
X9907930Y-15753974D02*
X9898406Y-15773022D01*
X9898406Y-15773022D02*
X9888883Y-15782546D01*
X9888883Y-15782546D02*
X9869835Y-15792069D01*
X9869835Y-15792069D02*
X9850787Y-15792069D01*
X9850787Y-15792069D02*
X9831740Y-15782546D01*
X9831740Y-15782546D02*
X9822216Y-15773022D01*
X9822216Y-15773022D02*
X9812692Y-15753974D01*
X9812692Y-15753974D02*
X9803168Y-15715879D01*
X9803168Y-15715879D02*
X9803168Y-15668260D01*
X9803168Y-15668260D02*
X9812692Y-15630165D01*
X9812692Y-15630165D02*
X9822216Y-15611117D01*
X9822216Y-15611117D02*
X9831740Y-15601593D01*
X9831740Y-15601593D02*
X9850787Y-15592069D01*
X10003168Y-15792069D02*
X10003168Y-15658736D01*
X10003168Y-15677784D02*
X10012692Y-15668260D01*
X10012692Y-15668260D02*
X10031740Y-15658736D01*
X10031740Y-15658736D02*
X10060311Y-15658736D01*
X10060311Y-15658736D02*
X10079359Y-15668260D01*
X10079359Y-15668260D02*
X10088883Y-15687308D01*
X10088883Y-15687308D02*
X10088883Y-15792069D01*
X10088883Y-15687308D02*
X10098406Y-15668260D01*
X10098406Y-15668260D02*
X10117454Y-15658736D01*
X10117454Y-15658736D02*
X10146025Y-15658736D01*
X10146025Y-15658736D02*
X10165073Y-15668260D01*
X10165073Y-15668260D02*
X10174597Y-15687308D01*
X10174597Y-15687308D02*
X10174597Y-15792069D01*
X10269835Y-15792069D02*
X10269835Y-15658736D01*
X10269835Y-15677784D02*
X10279359Y-15668260D01*
X10279359Y-15668260D02*
X10298406Y-15658736D01*
X10298406Y-15658736D02*
X10326978Y-15658736D01*
X10326978Y-15658736D02*
X10346025Y-15668260D01*
X10346025Y-15668260D02*
X10355549Y-15687308D01*
X10355549Y-15687308D02*
X10355549Y-15792069D01*
X10355549Y-15687308D02*
X10365073Y-15668260D01*
X10365073Y-15668260D02*
X10384121Y-15658736D01*
X10384121Y-15658736D02*
X10412692Y-15658736D01*
X10412692Y-15658736D02*
X10431740Y-15668260D01*
X10431740Y-15668260D02*
X10441264Y-15687308D01*
X10441264Y-15687308D02*
X10441264Y-15792069D01*
X10799359Y-15582546D02*
X10627930Y-15839689D01*
X11024121Y-15592069D02*
X11043168Y-15592069D01*
X11043168Y-15592069D02*
X11062216Y-15601593D01*
X11062216Y-15601593D02*
X11071740Y-15611117D01*
X11071740Y-15611117D02*
X11081264Y-15630165D01*
X11081264Y-15630165D02*
X11090787Y-15668260D01*
X11090787Y-15668260D02*
X11090787Y-15715879D01*
X11090787Y-15715879D02*
X11081264Y-15753974D01*
X11081264Y-15753974D02*
X11071740Y-15773022D01*
X11071740Y-15773022D02*
X11062216Y-15782546D01*
X11062216Y-15782546D02*
X11043168Y-15792069D01*
X11043168Y-15792069D02*
X11024121Y-15792069D01*
X11024121Y-15792069D02*
X11005073Y-15782546D01*
X11005073Y-15782546D02*
X10995549Y-15773022D01*
X10995549Y-15773022D02*
X10986025Y-15753974D01*
X10986025Y-15753974D02*
X10976502Y-15715879D01*
X10976502Y-15715879D02*
X10976502Y-15668260D01*
X10976502Y-15668260D02*
X10986025Y-15630165D01*
X10986025Y-15630165D02*
X10995549Y-15611117D01*
X10995549Y-15611117D02*
X11005073Y-15601593D01*
X11005073Y-15601593D02*
X11024121Y-15592069D01*
X11176502Y-15773022D02*
X11186025Y-15782546D01*
X11186025Y-15782546D02*
X11176502Y-15792069D01*
X11176502Y-15792069D02*
X11166978Y-15782546D01*
X11166978Y-15782546D02*
X11176502Y-15773022D01*
X11176502Y-15773022D02*
X11176502Y-15792069D01*
X11309835Y-15592069D02*
X11328883Y-15592069D01*
X11328883Y-15592069D02*
X11347930Y-15601593D01*
X11347930Y-15601593D02*
X11357454Y-15611117D01*
X11357454Y-15611117D02*
X11366978Y-15630165D01*
X11366978Y-15630165D02*
X11376502Y-15668260D01*
X11376502Y-15668260D02*
X11376502Y-15715879D01*
X11376502Y-15715879D02*
X11366978Y-15753974D01*
X11366978Y-15753974D02*
X11357454Y-15773022D01*
X11357454Y-15773022D02*
X11347930Y-15782546D01*
X11347930Y-15782546D02*
X11328883Y-15792069D01*
X11328883Y-15792069D02*
X11309835Y-15792069D01*
X11309835Y-15792069D02*
X11290787Y-15782546D01*
X11290787Y-15782546D02*
X11281263Y-15773022D01*
X11281263Y-15773022D02*
X11271740Y-15753974D01*
X11271740Y-15753974D02*
X11262216Y-15715879D01*
X11262216Y-15715879D02*
X11262216Y-15668260D01*
X11262216Y-15668260D02*
X11271740Y-15630165D01*
X11271740Y-15630165D02*
X11281263Y-15611117D01*
X11281263Y-15611117D02*
X11290787Y-15601593D01*
X11290787Y-15601593D02*
X11309835Y-15592069D01*
X11566978Y-15792069D02*
X11452692Y-15792069D01*
X11509835Y-15792069D02*
X11509835Y-15592069D01*
X11509835Y-15592069D02*
X11490787Y-15620641D01*
X11490787Y-15620641D02*
X11471740Y-15639689D01*
X11471740Y-15639689D02*
X11452692Y-15649212D01*
X11747930Y-15592069D02*
X11652692Y-15592069D01*
X11652692Y-15592069D02*
X11643168Y-15687308D01*
X11643168Y-15687308D02*
X11652692Y-15677784D01*
X11652692Y-15677784D02*
X11671740Y-15668260D01*
X11671740Y-15668260D02*
X11719359Y-15668260D01*
X11719359Y-15668260D02*
X11738406Y-15677784D01*
X11738406Y-15677784D02*
X11747930Y-15687308D01*
X11747930Y-15687308D02*
X11757454Y-15706355D01*
X11757454Y-15706355D02*
X11757454Y-15753974D01*
X11757454Y-15753974D02*
X11747930Y-15773022D01*
X11747930Y-15773022D02*
X11738406Y-15782546D01*
X11738406Y-15782546D02*
X11719359Y-15792069D01*
X11719359Y-15792069D02*
X11671740Y-15792069D01*
X11671740Y-15792069D02*
X11652692Y-15782546D01*
X11652692Y-15782546D02*
X11643168Y-15773022D01*
X11824121Y-15592069D02*
X11957454Y-15592069D01*
X11957454Y-15592069D02*
X11871740Y-15792069D01*
X12024121Y-15592069D02*
X12024121Y-15630165D01*
X12100311Y-15592069D02*
X12100311Y-15630165D01*
X12363168Y-15868260D02*
X12353644Y-15858736D01*
X12353644Y-15858736D02*
X12334597Y-15830165D01*
X12334597Y-15830165D02*
X12325073Y-15811117D01*
X12325073Y-15811117D02*
X12315549Y-15782546D01*
X12315549Y-15782546D02*
X12306025Y-15734927D01*
X12306025Y-15734927D02*
X12306025Y-15696831D01*
X12306025Y-15696831D02*
X12315549Y-15649212D01*
X12315549Y-15649212D02*
X12325073Y-15620641D01*
X12325073Y-15620641D02*
X12334597Y-15601593D01*
X12334597Y-15601593D02*
X12353644Y-15573022D01*
X12353644Y-15573022D02*
X12363168Y-15563498D01*
X12544121Y-15792069D02*
X12429835Y-15792069D01*
X12486978Y-15792069D02*
X12486978Y-15592069D01*
X12486978Y-15592069D02*
X12467930Y-15620641D01*
X12467930Y-15620641D02*
X12448883Y-15639689D01*
X12448883Y-15639689D02*
X12429835Y-15649212D01*
X12610787Y-15592069D02*
X12734597Y-15592069D01*
X12734597Y-15592069D02*
X12667930Y-15668260D01*
X12667930Y-15668260D02*
X12696502Y-15668260D01*
X12696502Y-15668260D02*
X12715549Y-15677784D01*
X12715549Y-15677784D02*
X12725073Y-15687308D01*
X12725073Y-15687308D02*
X12734597Y-15706355D01*
X12734597Y-15706355D02*
X12734597Y-15753974D01*
X12734597Y-15753974D02*
X12725073Y-15773022D01*
X12725073Y-15773022D02*
X12715549Y-15782546D01*
X12715549Y-15782546D02*
X12696502Y-15792069D01*
X12696502Y-15792069D02*
X12639359Y-15792069D01*
X12639359Y-15792069D02*
X12620311Y-15782546D01*
X12620311Y-15782546D02*
X12610787Y-15773022D01*
X12848883Y-15677784D02*
X12829835Y-15668260D01*
X12829835Y-15668260D02*
X12820311Y-15658736D01*
X12820311Y-15658736D02*
X12810787Y-15639689D01*
X12810787Y-15639689D02*
X12810787Y-15630165D01*
X12810787Y-15630165D02*
X12820311Y-15611117D01*
X12820311Y-15611117D02*
X12829835Y-15601593D01*
X12829835Y-15601593D02*
X12848883Y-15592069D01*
X12848883Y-15592069D02*
X12886978Y-15592069D01*
X12886978Y-15592069D02*
X12906025Y-15601593D01*
X12906025Y-15601593D02*
X12915549Y-15611117D01*
X12915549Y-15611117D02*
X12925073Y-15630165D01*
X12925073Y-15630165D02*
X12925073Y-15639689D01*
X12925073Y-15639689D02*
X12915549Y-15658736D01*
X12915549Y-15658736D02*
X12906025Y-15668260D01*
X12906025Y-15668260D02*
X12886978Y-15677784D01*
X12886978Y-15677784D02*
X12848883Y-15677784D01*
X12848883Y-15677784D02*
X12829835Y-15687308D01*
X12829835Y-15687308D02*
X12820311Y-15696831D01*
X12820311Y-15696831D02*
X12810787Y-15715879D01*
X12810787Y-15715879D02*
X12810787Y-15753974D01*
X12810787Y-15753974D02*
X12820311Y-15773022D01*
X12820311Y-15773022D02*
X12829835Y-15782546D01*
X12829835Y-15782546D02*
X12848883Y-15792069D01*
X12848883Y-15792069D02*
X12886978Y-15792069D01*
X12886978Y-15792069D02*
X12906025Y-15782546D01*
X12906025Y-15782546D02*
X12915549Y-15773022D01*
X12915549Y-15773022D02*
X12925073Y-15753974D01*
X12925073Y-15753974D02*
X12925073Y-15715879D01*
X12925073Y-15715879D02*
X12915549Y-15696831D01*
X12915549Y-15696831D02*
X12906025Y-15687308D01*
X12906025Y-15687308D02*
X12886978Y-15677784D01*
X13130787Y-15792069D02*
X13130787Y-15592069D01*
X13216502Y-15792069D02*
X13216502Y-15687308D01*
X13216502Y-15687308D02*
X13206978Y-15668260D01*
X13206978Y-15668260D02*
X13187930Y-15658736D01*
X13187930Y-15658736D02*
X13159359Y-15658736D01*
X13159359Y-15658736D02*
X13140311Y-15668260D01*
X13140311Y-15668260D02*
X13130787Y-15677784D01*
X13340311Y-15792069D02*
X13321264Y-15782546D01*
X13321264Y-15782546D02*
X13311740Y-15773022D01*
X13311740Y-15773022D02*
X13302216Y-15753974D01*
X13302216Y-15753974D02*
X13302216Y-15696831D01*
X13302216Y-15696831D02*
X13311740Y-15677784D01*
X13311740Y-15677784D02*
X13321264Y-15668260D01*
X13321264Y-15668260D02*
X13340311Y-15658736D01*
X13340311Y-15658736D02*
X13368883Y-15658736D01*
X13368883Y-15658736D02*
X13387930Y-15668260D01*
X13387930Y-15668260D02*
X13397454Y-15677784D01*
X13397454Y-15677784D02*
X13406978Y-15696831D01*
X13406978Y-15696831D02*
X13406978Y-15753974D01*
X13406978Y-15753974D02*
X13397454Y-15773022D01*
X13397454Y-15773022D02*
X13387930Y-15782546D01*
X13387930Y-15782546D02*
X13368883Y-15792069D01*
X13368883Y-15792069D02*
X13340311Y-15792069D01*
X13521264Y-15792069D02*
X13502216Y-15782546D01*
X13502216Y-15782546D02*
X13492692Y-15763498D01*
X13492692Y-15763498D02*
X13492692Y-15592069D01*
X13673645Y-15782546D02*
X13654597Y-15792069D01*
X13654597Y-15792069D02*
X13616502Y-15792069D01*
X13616502Y-15792069D02*
X13597454Y-15782546D01*
X13597454Y-15782546D02*
X13587930Y-15763498D01*
X13587930Y-15763498D02*
X13587930Y-15687308D01*
X13587930Y-15687308D02*
X13597454Y-15668260D01*
X13597454Y-15668260D02*
X13616502Y-15658736D01*
X13616502Y-15658736D02*
X13654597Y-15658736D01*
X13654597Y-15658736D02*
X13673645Y-15668260D01*
X13673645Y-15668260D02*
X13683168Y-15687308D01*
X13683168Y-15687308D02*
X13683168Y-15706355D01*
X13683168Y-15706355D02*
X13587930Y-15725403D01*
X13759359Y-15782546D02*
X13778406Y-15792069D01*
X13778406Y-15792069D02*
X13816502Y-15792069D01*
X13816502Y-15792069D02*
X13835549Y-15782546D01*
X13835549Y-15782546D02*
X13845073Y-15763498D01*
X13845073Y-15763498D02*
X13845073Y-15753974D01*
X13845073Y-15753974D02*
X13835549Y-15734927D01*
X13835549Y-15734927D02*
X13816502Y-15725403D01*
X13816502Y-15725403D02*
X13787930Y-15725403D01*
X13787930Y-15725403D02*
X13768883Y-15715879D01*
X13768883Y-15715879D02*
X13759359Y-15696831D01*
X13759359Y-15696831D02*
X13759359Y-15687308D01*
X13759359Y-15687308D02*
X13768883Y-15668260D01*
X13768883Y-15668260D02*
X13787930Y-15658736D01*
X13787930Y-15658736D02*
X13816502Y-15658736D01*
X13816502Y-15658736D02*
X13835549Y-15668260D01*
X13911740Y-15868260D02*
X13921264Y-15858736D01*
X13921264Y-15858736D02*
X13940311Y-15830165D01*
X13940311Y-15830165D02*
X13949835Y-15811117D01*
X13949835Y-15811117D02*
X13959359Y-15782546D01*
X13959359Y-15782546D02*
X13968883Y-15734927D01*
X13968883Y-15734927D02*
X13968883Y-15696831D01*
X13968883Y-15696831D02*
X13959359Y-15649212D01*
X13959359Y-15649212D02*
X13949835Y-15620641D01*
X13949835Y-15620641D02*
X13940311Y-15601593D01*
X13940311Y-15601593D02*
X13921264Y-15573022D01*
X13921264Y-15573022D02*
X13911740Y-15563498D01*
D13*
X8898406Y-15982593D02*
G75*
G03*
X8898406Y-15982593I-40000J0D01*
G01*
D11*
X9184121Y-15856069D02*
X9203168Y-15856069D01*
X9203168Y-15856069D02*
X9222216Y-15865593D01*
X9222216Y-15865593D02*
X9231740Y-15875117D01*
X9231740Y-15875117D02*
X9241263Y-15894165D01*
X9241263Y-15894165D02*
X9250787Y-15932260D01*
X9250787Y-15932260D02*
X9250787Y-15979879D01*
X9250787Y-15979879D02*
X9241263Y-16017974D01*
X9241263Y-16017974D02*
X9231740Y-16037022D01*
X9231740Y-16037022D02*
X9222216Y-16046546D01*
X9222216Y-16046546D02*
X9203168Y-16056069D01*
X9203168Y-16056069D02*
X9184121Y-16056069D01*
X9184121Y-16056069D02*
X9165073Y-16046546D01*
X9165073Y-16046546D02*
X9155549Y-16037022D01*
X9155549Y-16037022D02*
X9146025Y-16017974D01*
X9146025Y-16017974D02*
X9136502Y-15979879D01*
X9136502Y-15979879D02*
X9136502Y-15932260D01*
X9136502Y-15932260D02*
X9146025Y-15894165D01*
X9146025Y-15894165D02*
X9155549Y-15875117D01*
X9155549Y-15875117D02*
X9165073Y-15865593D01*
X9165073Y-15865593D02*
X9184121Y-15856069D01*
X9336502Y-16037022D02*
X9346025Y-16046546D01*
X9346025Y-16046546D02*
X9336502Y-16056069D01*
X9336502Y-16056069D02*
X9326978Y-16046546D01*
X9326978Y-16046546D02*
X9336502Y-16037022D01*
X9336502Y-16037022D02*
X9336502Y-16056069D01*
X9460311Y-15941784D02*
X9441263Y-15932260D01*
X9441263Y-15932260D02*
X9431740Y-15922736D01*
X9431740Y-15922736D02*
X9422216Y-15903689D01*
X9422216Y-15903689D02*
X9422216Y-15894165D01*
X9422216Y-15894165D02*
X9431740Y-15875117D01*
X9431740Y-15875117D02*
X9441263Y-15865593D01*
X9441263Y-15865593D02*
X9460311Y-15856069D01*
X9460311Y-15856069D02*
X9498406Y-15856069D01*
X9498406Y-15856069D02*
X9517454Y-15865593D01*
X9517454Y-15865593D02*
X9526978Y-15875117D01*
X9526978Y-15875117D02*
X9536502Y-15894165D01*
X9536502Y-15894165D02*
X9536502Y-15903689D01*
X9536502Y-15903689D02*
X9526978Y-15922736D01*
X9526978Y-15922736D02*
X9517454Y-15932260D01*
X9517454Y-15932260D02*
X9498406Y-15941784D01*
X9498406Y-15941784D02*
X9460311Y-15941784D01*
X9460311Y-15941784D02*
X9441263Y-15951308D01*
X9441263Y-15951308D02*
X9431740Y-15960831D01*
X9431740Y-15960831D02*
X9422216Y-15979879D01*
X9422216Y-15979879D02*
X9422216Y-16017974D01*
X9422216Y-16017974D02*
X9431740Y-16037022D01*
X9431740Y-16037022D02*
X9441263Y-16046546D01*
X9441263Y-16046546D02*
X9460311Y-16056069D01*
X9460311Y-16056069D02*
X9498406Y-16056069D01*
X9498406Y-16056069D02*
X9517454Y-16046546D01*
X9517454Y-16046546D02*
X9526978Y-16037022D01*
X9526978Y-16037022D02*
X9536502Y-16017974D01*
X9536502Y-16017974D02*
X9536502Y-15979879D01*
X9536502Y-15979879D02*
X9526978Y-15960831D01*
X9526978Y-15960831D02*
X9517454Y-15951308D01*
X9517454Y-15951308D02*
X9498406Y-15941784D01*
X9660311Y-15856069D02*
X9679359Y-15856069D01*
X9679359Y-15856069D02*
X9698406Y-15865593D01*
X9698406Y-15865593D02*
X9707930Y-15875117D01*
X9707930Y-15875117D02*
X9717454Y-15894165D01*
X9717454Y-15894165D02*
X9726978Y-15932260D01*
X9726978Y-15932260D02*
X9726978Y-15979879D01*
X9726978Y-15979879D02*
X9717454Y-16017974D01*
X9717454Y-16017974D02*
X9707930Y-16037022D01*
X9707930Y-16037022D02*
X9698406Y-16046546D01*
X9698406Y-16046546D02*
X9679359Y-16056069D01*
X9679359Y-16056069D02*
X9660311Y-16056069D01*
X9660311Y-16056069D02*
X9641263Y-16046546D01*
X9641263Y-16046546D02*
X9631740Y-16037022D01*
X9631740Y-16037022D02*
X9622216Y-16017974D01*
X9622216Y-16017974D02*
X9612692Y-15979879D01*
X9612692Y-15979879D02*
X9612692Y-15932260D01*
X9612692Y-15932260D02*
X9622216Y-15894165D01*
X9622216Y-15894165D02*
X9631740Y-15875117D01*
X9631740Y-15875117D02*
X9641263Y-15865593D01*
X9641263Y-15865593D02*
X9660311Y-15856069D01*
X9850787Y-15856069D02*
X9869835Y-15856069D01*
X9869835Y-15856069D02*
X9888883Y-15865593D01*
X9888883Y-15865593D02*
X9898406Y-15875117D01*
X9898406Y-15875117D02*
X9907930Y-15894165D01*
X9907930Y-15894165D02*
X9917454Y-15932260D01*
X9917454Y-15932260D02*
X9917454Y-15979879D01*
X9917454Y-15979879D02*
X9907930Y-16017974D01*
X9907930Y-16017974D02*
X9898406Y-16037022D01*
X9898406Y-16037022D02*
X9888883Y-16046546D01*
X9888883Y-16046546D02*
X9869835Y-16056069D01*
X9869835Y-16056069D02*
X9850787Y-16056069D01*
X9850787Y-16056069D02*
X9831740Y-16046546D01*
X9831740Y-16046546D02*
X9822216Y-16037022D01*
X9822216Y-16037022D02*
X9812692Y-16017974D01*
X9812692Y-16017974D02*
X9803168Y-15979879D01*
X9803168Y-15979879D02*
X9803168Y-15932260D01*
X9803168Y-15932260D02*
X9812692Y-15894165D01*
X9812692Y-15894165D02*
X9822216Y-15875117D01*
X9822216Y-15875117D02*
X9831740Y-15865593D01*
X9831740Y-15865593D02*
X9850787Y-15856069D01*
X10003168Y-16056069D02*
X10003168Y-15922736D01*
X10003168Y-15941784D02*
X10012692Y-15932260D01*
X10012692Y-15932260D02*
X10031740Y-15922736D01*
X10031740Y-15922736D02*
X10060311Y-15922736D01*
X10060311Y-15922736D02*
X10079359Y-15932260D01*
X10079359Y-15932260D02*
X10088883Y-15951308D01*
X10088883Y-15951308D02*
X10088883Y-16056069D01*
X10088883Y-15951308D02*
X10098406Y-15932260D01*
X10098406Y-15932260D02*
X10117454Y-15922736D01*
X10117454Y-15922736D02*
X10146025Y-15922736D01*
X10146025Y-15922736D02*
X10165073Y-15932260D01*
X10165073Y-15932260D02*
X10174597Y-15951308D01*
X10174597Y-15951308D02*
X10174597Y-16056069D01*
X10269835Y-16056069D02*
X10269835Y-15922736D01*
X10269835Y-15941784D02*
X10279359Y-15932260D01*
X10279359Y-15932260D02*
X10298406Y-15922736D01*
X10298406Y-15922736D02*
X10326978Y-15922736D01*
X10326978Y-15922736D02*
X10346025Y-15932260D01*
X10346025Y-15932260D02*
X10355549Y-15951308D01*
X10355549Y-15951308D02*
X10355549Y-16056069D01*
X10355549Y-15951308D02*
X10365073Y-15932260D01*
X10365073Y-15932260D02*
X10384121Y-15922736D01*
X10384121Y-15922736D02*
X10412692Y-15922736D01*
X10412692Y-15922736D02*
X10431740Y-15932260D01*
X10431740Y-15932260D02*
X10441264Y-15951308D01*
X10441264Y-15951308D02*
X10441264Y-16056069D01*
X10799359Y-15846546D02*
X10627930Y-16103689D01*
X11024121Y-15856069D02*
X11043168Y-15856069D01*
X11043168Y-15856069D02*
X11062216Y-15865593D01*
X11062216Y-15865593D02*
X11071740Y-15875117D01*
X11071740Y-15875117D02*
X11081264Y-15894165D01*
X11081264Y-15894165D02*
X11090787Y-15932260D01*
X11090787Y-15932260D02*
X11090787Y-15979879D01*
X11090787Y-15979879D02*
X11081264Y-16017974D01*
X11081264Y-16017974D02*
X11071740Y-16037022D01*
X11071740Y-16037022D02*
X11062216Y-16046546D01*
X11062216Y-16046546D02*
X11043168Y-16056069D01*
X11043168Y-16056069D02*
X11024121Y-16056069D01*
X11024121Y-16056069D02*
X11005073Y-16046546D01*
X11005073Y-16046546D02*
X10995549Y-16037022D01*
X10995549Y-16037022D02*
X10986025Y-16017974D01*
X10986025Y-16017974D02*
X10976502Y-15979879D01*
X10976502Y-15979879D02*
X10976502Y-15932260D01*
X10976502Y-15932260D02*
X10986025Y-15894165D01*
X10986025Y-15894165D02*
X10995549Y-15875117D01*
X10995549Y-15875117D02*
X11005073Y-15865593D01*
X11005073Y-15865593D02*
X11024121Y-15856069D01*
X11176502Y-16037022D02*
X11186025Y-16046546D01*
X11186025Y-16046546D02*
X11176502Y-16056069D01*
X11176502Y-16056069D02*
X11166978Y-16046546D01*
X11166978Y-16046546D02*
X11176502Y-16037022D01*
X11176502Y-16037022D02*
X11176502Y-16056069D01*
X11309835Y-15856069D02*
X11328883Y-15856069D01*
X11328883Y-15856069D02*
X11347930Y-15865593D01*
X11347930Y-15865593D02*
X11357454Y-15875117D01*
X11357454Y-15875117D02*
X11366978Y-15894165D01*
X11366978Y-15894165D02*
X11376502Y-15932260D01*
X11376502Y-15932260D02*
X11376502Y-15979879D01*
X11376502Y-15979879D02*
X11366978Y-16017974D01*
X11366978Y-16017974D02*
X11357454Y-16037022D01*
X11357454Y-16037022D02*
X11347930Y-16046546D01*
X11347930Y-16046546D02*
X11328883Y-16056069D01*
X11328883Y-16056069D02*
X11309835Y-16056069D01*
X11309835Y-16056069D02*
X11290787Y-16046546D01*
X11290787Y-16046546D02*
X11281263Y-16037022D01*
X11281263Y-16037022D02*
X11271740Y-16017974D01*
X11271740Y-16017974D02*
X11262216Y-15979879D01*
X11262216Y-15979879D02*
X11262216Y-15932260D01*
X11262216Y-15932260D02*
X11271740Y-15894165D01*
X11271740Y-15894165D02*
X11281263Y-15875117D01*
X11281263Y-15875117D02*
X11290787Y-15865593D01*
X11290787Y-15865593D02*
X11309835Y-15856069D01*
X11443168Y-15856069D02*
X11566978Y-15856069D01*
X11566978Y-15856069D02*
X11500311Y-15932260D01*
X11500311Y-15932260D02*
X11528883Y-15932260D01*
X11528883Y-15932260D02*
X11547930Y-15941784D01*
X11547930Y-15941784D02*
X11557454Y-15951308D01*
X11557454Y-15951308D02*
X11566978Y-15970355D01*
X11566978Y-15970355D02*
X11566978Y-16017974D01*
X11566978Y-16017974D02*
X11557454Y-16037022D01*
X11557454Y-16037022D02*
X11547930Y-16046546D01*
X11547930Y-16046546D02*
X11528883Y-16056069D01*
X11528883Y-16056069D02*
X11471740Y-16056069D01*
X11471740Y-16056069D02*
X11452692Y-16046546D01*
X11452692Y-16046546D02*
X11443168Y-16037022D01*
X11757454Y-16056069D02*
X11643168Y-16056069D01*
X11700311Y-16056069D02*
X11700311Y-15856069D01*
X11700311Y-15856069D02*
X11681263Y-15884641D01*
X11681263Y-15884641D02*
X11662216Y-15903689D01*
X11662216Y-15903689D02*
X11643168Y-15913212D01*
X11938406Y-15856069D02*
X11843168Y-15856069D01*
X11843168Y-15856069D02*
X11833644Y-15951308D01*
X11833644Y-15951308D02*
X11843168Y-15941784D01*
X11843168Y-15941784D02*
X11862216Y-15932260D01*
X11862216Y-15932260D02*
X11909835Y-15932260D01*
X11909835Y-15932260D02*
X11928883Y-15941784D01*
X11928883Y-15941784D02*
X11938406Y-15951308D01*
X11938406Y-15951308D02*
X11947930Y-15970355D01*
X11947930Y-15970355D02*
X11947930Y-16017974D01*
X11947930Y-16017974D02*
X11938406Y-16037022D01*
X11938406Y-16037022D02*
X11928883Y-16046546D01*
X11928883Y-16046546D02*
X11909835Y-16056069D01*
X11909835Y-16056069D02*
X11862216Y-16056069D01*
X11862216Y-16056069D02*
X11843168Y-16046546D01*
X11843168Y-16046546D02*
X11833644Y-16037022D01*
X12024121Y-15856069D02*
X12024121Y-15894165D01*
X12100311Y-15856069D02*
X12100311Y-15894165D01*
X12363168Y-16132260D02*
X12353644Y-16122736D01*
X12353644Y-16122736D02*
X12334597Y-16094165D01*
X12334597Y-16094165D02*
X12325073Y-16075117D01*
X12325073Y-16075117D02*
X12315549Y-16046546D01*
X12315549Y-16046546D02*
X12306025Y-15998927D01*
X12306025Y-15998927D02*
X12306025Y-15960831D01*
X12306025Y-15960831D02*
X12315549Y-15913212D01*
X12315549Y-15913212D02*
X12325073Y-15884641D01*
X12325073Y-15884641D02*
X12334597Y-15865593D01*
X12334597Y-15865593D02*
X12353644Y-15837022D01*
X12353644Y-15837022D02*
X12363168Y-15827498D01*
X12429835Y-15875117D02*
X12439359Y-15865593D01*
X12439359Y-15865593D02*
X12458406Y-15856069D01*
X12458406Y-15856069D02*
X12506025Y-15856069D01*
X12506025Y-15856069D02*
X12525073Y-15865593D01*
X12525073Y-15865593D02*
X12534597Y-15875117D01*
X12534597Y-15875117D02*
X12544121Y-15894165D01*
X12544121Y-15894165D02*
X12544121Y-15913212D01*
X12544121Y-15913212D02*
X12534597Y-15941784D01*
X12534597Y-15941784D02*
X12420311Y-16056069D01*
X12420311Y-16056069D02*
X12544121Y-16056069D01*
X12610787Y-15856069D02*
X12734597Y-15856069D01*
X12734597Y-15856069D02*
X12667930Y-15932260D01*
X12667930Y-15932260D02*
X12696502Y-15932260D01*
X12696502Y-15932260D02*
X12715549Y-15941784D01*
X12715549Y-15941784D02*
X12725073Y-15951308D01*
X12725073Y-15951308D02*
X12734597Y-15970355D01*
X12734597Y-15970355D02*
X12734597Y-16017974D01*
X12734597Y-16017974D02*
X12725073Y-16037022D01*
X12725073Y-16037022D02*
X12715549Y-16046546D01*
X12715549Y-16046546D02*
X12696502Y-16056069D01*
X12696502Y-16056069D02*
X12639359Y-16056069D01*
X12639359Y-16056069D02*
X12620311Y-16046546D01*
X12620311Y-16046546D02*
X12610787Y-16037022D01*
X12848883Y-15941784D02*
X12829835Y-15932260D01*
X12829835Y-15932260D02*
X12820311Y-15922736D01*
X12820311Y-15922736D02*
X12810787Y-15903689D01*
X12810787Y-15903689D02*
X12810787Y-15894165D01*
X12810787Y-15894165D02*
X12820311Y-15875117D01*
X12820311Y-15875117D02*
X12829835Y-15865593D01*
X12829835Y-15865593D02*
X12848883Y-15856069D01*
X12848883Y-15856069D02*
X12886978Y-15856069D01*
X12886978Y-15856069D02*
X12906025Y-15865593D01*
X12906025Y-15865593D02*
X12915549Y-15875117D01*
X12915549Y-15875117D02*
X12925073Y-15894165D01*
X12925073Y-15894165D02*
X12925073Y-15903689D01*
X12925073Y-15903689D02*
X12915549Y-15922736D01*
X12915549Y-15922736D02*
X12906025Y-15932260D01*
X12906025Y-15932260D02*
X12886978Y-15941784D01*
X12886978Y-15941784D02*
X12848883Y-15941784D01*
X12848883Y-15941784D02*
X12829835Y-15951308D01*
X12829835Y-15951308D02*
X12820311Y-15960831D01*
X12820311Y-15960831D02*
X12810787Y-15979879D01*
X12810787Y-15979879D02*
X12810787Y-16017974D01*
X12810787Y-16017974D02*
X12820311Y-16037022D01*
X12820311Y-16037022D02*
X12829835Y-16046546D01*
X12829835Y-16046546D02*
X12848883Y-16056069D01*
X12848883Y-16056069D02*
X12886978Y-16056069D01*
X12886978Y-16056069D02*
X12906025Y-16046546D01*
X12906025Y-16046546D02*
X12915549Y-16037022D01*
X12915549Y-16037022D02*
X12925073Y-16017974D01*
X12925073Y-16017974D02*
X12925073Y-15979879D01*
X12925073Y-15979879D02*
X12915549Y-15960831D01*
X12915549Y-15960831D02*
X12906025Y-15951308D01*
X12906025Y-15951308D02*
X12886978Y-15941784D01*
X13130787Y-16056069D02*
X13130787Y-15856069D01*
X13216502Y-16056069D02*
X13216502Y-15951308D01*
X13216502Y-15951308D02*
X13206978Y-15932260D01*
X13206978Y-15932260D02*
X13187930Y-15922736D01*
X13187930Y-15922736D02*
X13159359Y-15922736D01*
X13159359Y-15922736D02*
X13140311Y-15932260D01*
X13140311Y-15932260D02*
X13130787Y-15941784D01*
X13340311Y-16056069D02*
X13321264Y-16046546D01*
X13321264Y-16046546D02*
X13311740Y-16037022D01*
X13311740Y-16037022D02*
X13302216Y-16017974D01*
X13302216Y-16017974D02*
X13302216Y-15960831D01*
X13302216Y-15960831D02*
X13311740Y-15941784D01*
X13311740Y-15941784D02*
X13321264Y-15932260D01*
X13321264Y-15932260D02*
X13340311Y-15922736D01*
X13340311Y-15922736D02*
X13368883Y-15922736D01*
X13368883Y-15922736D02*
X13387930Y-15932260D01*
X13387930Y-15932260D02*
X13397454Y-15941784D01*
X13397454Y-15941784D02*
X13406978Y-15960831D01*
X13406978Y-15960831D02*
X13406978Y-16017974D01*
X13406978Y-16017974D02*
X13397454Y-16037022D01*
X13397454Y-16037022D02*
X13387930Y-16046546D01*
X13387930Y-16046546D02*
X13368883Y-16056069D01*
X13368883Y-16056069D02*
X13340311Y-16056069D01*
X13521264Y-16056069D02*
X13502216Y-16046546D01*
X13502216Y-16046546D02*
X13492692Y-16027498D01*
X13492692Y-16027498D02*
X13492692Y-15856069D01*
X13673645Y-16046546D02*
X13654597Y-16056069D01*
X13654597Y-16056069D02*
X13616502Y-16056069D01*
X13616502Y-16056069D02*
X13597454Y-16046546D01*
X13597454Y-16046546D02*
X13587930Y-16027498D01*
X13587930Y-16027498D02*
X13587930Y-15951308D01*
X13587930Y-15951308D02*
X13597454Y-15932260D01*
X13597454Y-15932260D02*
X13616502Y-15922736D01*
X13616502Y-15922736D02*
X13654597Y-15922736D01*
X13654597Y-15922736D02*
X13673645Y-15932260D01*
X13673645Y-15932260D02*
X13683168Y-15951308D01*
X13683168Y-15951308D02*
X13683168Y-15970355D01*
X13683168Y-15970355D02*
X13587930Y-15989403D01*
X13759359Y-16046546D02*
X13778406Y-16056069D01*
X13778406Y-16056069D02*
X13816502Y-16056069D01*
X13816502Y-16056069D02*
X13835549Y-16046546D01*
X13835549Y-16046546D02*
X13845073Y-16027498D01*
X13845073Y-16027498D02*
X13845073Y-16017974D01*
X13845073Y-16017974D02*
X13835549Y-15998927D01*
X13835549Y-15998927D02*
X13816502Y-15989403D01*
X13816502Y-15989403D02*
X13787930Y-15989403D01*
X13787930Y-15989403D02*
X13768883Y-15979879D01*
X13768883Y-15979879D02*
X13759359Y-15960831D01*
X13759359Y-15960831D02*
X13759359Y-15951308D01*
X13759359Y-15951308D02*
X13768883Y-15932260D01*
X13768883Y-15932260D02*
X13787930Y-15922736D01*
X13787930Y-15922736D02*
X13816502Y-15922736D01*
X13816502Y-15922736D02*
X13835549Y-15932260D01*
X13911740Y-16132260D02*
X13921264Y-16122736D01*
X13921264Y-16122736D02*
X13940311Y-16094165D01*
X13940311Y-16094165D02*
X13949835Y-16075117D01*
X13949835Y-16075117D02*
X13959359Y-16046546D01*
X13959359Y-16046546D02*
X13968883Y-15998927D01*
X13968883Y-15998927D02*
X13968883Y-15960831D01*
X13968883Y-15960831D02*
X13959359Y-15913212D01*
X13959359Y-15913212D02*
X13949835Y-15884641D01*
X13949835Y-15884641D02*
X13940311Y-15865593D01*
X13940311Y-15865593D02*
X13921264Y-15837022D01*
X13921264Y-15837022D02*
X13911740Y-15827498D01*
D10*
X8848406Y-16196593D02*
X8848406Y-16296593D01*
X8798406Y-16246593D02*
X8898406Y-16246593D01*
D11*
X9250787Y-16320069D02*
X9136502Y-16320069D01*
X9193644Y-16320069D02*
X9193644Y-16120069D01*
X9193644Y-16120069D02*
X9174597Y-16148641D01*
X9174597Y-16148641D02*
X9155549Y-16167689D01*
X9155549Y-16167689D02*
X9136502Y-16177212D01*
X9336502Y-16301022D02*
X9346025Y-16310546D01*
X9346025Y-16310546D02*
X9336502Y-16320069D01*
X9336502Y-16320069D02*
X9326978Y-16310546D01*
X9326978Y-16310546D02*
X9336502Y-16301022D01*
X9336502Y-16301022D02*
X9336502Y-16320069D01*
X9469835Y-16120069D02*
X9488883Y-16120069D01*
X9488883Y-16120069D02*
X9507930Y-16129593D01*
X9507930Y-16129593D02*
X9517454Y-16139117D01*
X9517454Y-16139117D02*
X9526978Y-16158165D01*
X9526978Y-16158165D02*
X9536502Y-16196260D01*
X9536502Y-16196260D02*
X9536502Y-16243879D01*
X9536502Y-16243879D02*
X9526978Y-16281974D01*
X9526978Y-16281974D02*
X9517454Y-16301022D01*
X9517454Y-16301022D02*
X9507930Y-16310546D01*
X9507930Y-16310546D02*
X9488883Y-16320069D01*
X9488883Y-16320069D02*
X9469835Y-16320069D01*
X9469835Y-16320069D02*
X9450787Y-16310546D01*
X9450787Y-16310546D02*
X9441263Y-16301022D01*
X9441263Y-16301022D02*
X9431740Y-16281974D01*
X9431740Y-16281974D02*
X9422216Y-16243879D01*
X9422216Y-16243879D02*
X9422216Y-16196260D01*
X9422216Y-16196260D02*
X9431740Y-16158165D01*
X9431740Y-16158165D02*
X9441263Y-16139117D01*
X9441263Y-16139117D02*
X9450787Y-16129593D01*
X9450787Y-16129593D02*
X9469835Y-16120069D01*
X9660311Y-16120069D02*
X9679359Y-16120069D01*
X9679359Y-16120069D02*
X9698406Y-16129593D01*
X9698406Y-16129593D02*
X9707930Y-16139117D01*
X9707930Y-16139117D02*
X9717454Y-16158165D01*
X9717454Y-16158165D02*
X9726978Y-16196260D01*
X9726978Y-16196260D02*
X9726978Y-16243879D01*
X9726978Y-16243879D02*
X9717454Y-16281974D01*
X9717454Y-16281974D02*
X9707930Y-16301022D01*
X9707930Y-16301022D02*
X9698406Y-16310546D01*
X9698406Y-16310546D02*
X9679359Y-16320069D01*
X9679359Y-16320069D02*
X9660311Y-16320069D01*
X9660311Y-16320069D02*
X9641263Y-16310546D01*
X9641263Y-16310546D02*
X9631740Y-16301022D01*
X9631740Y-16301022D02*
X9622216Y-16281974D01*
X9622216Y-16281974D02*
X9612692Y-16243879D01*
X9612692Y-16243879D02*
X9612692Y-16196260D01*
X9612692Y-16196260D02*
X9622216Y-16158165D01*
X9622216Y-16158165D02*
X9631740Y-16139117D01*
X9631740Y-16139117D02*
X9641263Y-16129593D01*
X9641263Y-16129593D02*
X9660311Y-16120069D01*
X9850787Y-16120069D02*
X9869835Y-16120069D01*
X9869835Y-16120069D02*
X9888883Y-16129593D01*
X9888883Y-16129593D02*
X9898406Y-16139117D01*
X9898406Y-16139117D02*
X9907930Y-16158165D01*
X9907930Y-16158165D02*
X9917454Y-16196260D01*
X9917454Y-16196260D02*
X9917454Y-16243879D01*
X9917454Y-16243879D02*
X9907930Y-16281974D01*
X9907930Y-16281974D02*
X9898406Y-16301022D01*
X9898406Y-16301022D02*
X9888883Y-16310546D01*
X9888883Y-16310546D02*
X9869835Y-16320069D01*
X9869835Y-16320069D02*
X9850787Y-16320069D01*
X9850787Y-16320069D02*
X9831740Y-16310546D01*
X9831740Y-16310546D02*
X9822216Y-16301022D01*
X9822216Y-16301022D02*
X9812692Y-16281974D01*
X9812692Y-16281974D02*
X9803168Y-16243879D01*
X9803168Y-16243879D02*
X9803168Y-16196260D01*
X9803168Y-16196260D02*
X9812692Y-16158165D01*
X9812692Y-16158165D02*
X9822216Y-16139117D01*
X9822216Y-16139117D02*
X9831740Y-16129593D01*
X9831740Y-16129593D02*
X9850787Y-16120069D01*
X10003168Y-16320069D02*
X10003168Y-16186736D01*
X10003168Y-16205784D02*
X10012692Y-16196260D01*
X10012692Y-16196260D02*
X10031740Y-16186736D01*
X10031740Y-16186736D02*
X10060311Y-16186736D01*
X10060311Y-16186736D02*
X10079359Y-16196260D01*
X10079359Y-16196260D02*
X10088883Y-16215308D01*
X10088883Y-16215308D02*
X10088883Y-16320069D01*
X10088883Y-16215308D02*
X10098406Y-16196260D01*
X10098406Y-16196260D02*
X10117454Y-16186736D01*
X10117454Y-16186736D02*
X10146025Y-16186736D01*
X10146025Y-16186736D02*
X10165073Y-16196260D01*
X10165073Y-16196260D02*
X10174597Y-16215308D01*
X10174597Y-16215308D02*
X10174597Y-16320069D01*
X10269835Y-16320069D02*
X10269835Y-16186736D01*
X10269835Y-16205784D02*
X10279359Y-16196260D01*
X10279359Y-16196260D02*
X10298406Y-16186736D01*
X10298406Y-16186736D02*
X10326978Y-16186736D01*
X10326978Y-16186736D02*
X10346025Y-16196260D01*
X10346025Y-16196260D02*
X10355549Y-16215308D01*
X10355549Y-16215308D02*
X10355549Y-16320069D01*
X10355549Y-16215308D02*
X10365073Y-16196260D01*
X10365073Y-16196260D02*
X10384121Y-16186736D01*
X10384121Y-16186736D02*
X10412692Y-16186736D01*
X10412692Y-16186736D02*
X10431740Y-16196260D01*
X10431740Y-16196260D02*
X10441264Y-16215308D01*
X10441264Y-16215308D02*
X10441264Y-16320069D01*
X10799359Y-16110546D02*
X10627930Y-16367689D01*
X11024121Y-16120069D02*
X11043168Y-16120069D01*
X11043168Y-16120069D02*
X11062216Y-16129593D01*
X11062216Y-16129593D02*
X11071740Y-16139117D01*
X11071740Y-16139117D02*
X11081264Y-16158165D01*
X11081264Y-16158165D02*
X11090787Y-16196260D01*
X11090787Y-16196260D02*
X11090787Y-16243879D01*
X11090787Y-16243879D02*
X11081264Y-16281974D01*
X11081264Y-16281974D02*
X11071740Y-16301022D01*
X11071740Y-16301022D02*
X11062216Y-16310546D01*
X11062216Y-16310546D02*
X11043168Y-16320069D01*
X11043168Y-16320069D02*
X11024121Y-16320069D01*
X11024121Y-16320069D02*
X11005073Y-16310546D01*
X11005073Y-16310546D02*
X10995549Y-16301022D01*
X10995549Y-16301022D02*
X10986025Y-16281974D01*
X10986025Y-16281974D02*
X10976502Y-16243879D01*
X10976502Y-16243879D02*
X10976502Y-16196260D01*
X10976502Y-16196260D02*
X10986025Y-16158165D01*
X10986025Y-16158165D02*
X10995549Y-16139117D01*
X10995549Y-16139117D02*
X11005073Y-16129593D01*
X11005073Y-16129593D02*
X11024121Y-16120069D01*
X11176502Y-16301022D02*
X11186025Y-16310546D01*
X11186025Y-16310546D02*
X11176502Y-16320069D01*
X11176502Y-16320069D02*
X11166978Y-16310546D01*
X11166978Y-16310546D02*
X11176502Y-16301022D01*
X11176502Y-16301022D02*
X11176502Y-16320069D01*
X11309835Y-16120069D02*
X11328883Y-16120069D01*
X11328883Y-16120069D02*
X11347930Y-16129593D01*
X11347930Y-16129593D02*
X11357454Y-16139117D01*
X11357454Y-16139117D02*
X11366978Y-16158165D01*
X11366978Y-16158165D02*
X11376502Y-16196260D01*
X11376502Y-16196260D02*
X11376502Y-16243879D01*
X11376502Y-16243879D02*
X11366978Y-16281974D01*
X11366978Y-16281974D02*
X11357454Y-16301022D01*
X11357454Y-16301022D02*
X11347930Y-16310546D01*
X11347930Y-16310546D02*
X11328883Y-16320069D01*
X11328883Y-16320069D02*
X11309835Y-16320069D01*
X11309835Y-16320069D02*
X11290787Y-16310546D01*
X11290787Y-16310546D02*
X11281263Y-16301022D01*
X11281263Y-16301022D02*
X11271740Y-16281974D01*
X11271740Y-16281974D02*
X11262216Y-16243879D01*
X11262216Y-16243879D02*
X11262216Y-16196260D01*
X11262216Y-16196260D02*
X11271740Y-16158165D01*
X11271740Y-16158165D02*
X11281263Y-16139117D01*
X11281263Y-16139117D02*
X11290787Y-16129593D01*
X11290787Y-16129593D02*
X11309835Y-16120069D01*
X11443168Y-16120069D02*
X11566978Y-16120069D01*
X11566978Y-16120069D02*
X11500311Y-16196260D01*
X11500311Y-16196260D02*
X11528883Y-16196260D01*
X11528883Y-16196260D02*
X11547930Y-16205784D01*
X11547930Y-16205784D02*
X11557454Y-16215308D01*
X11557454Y-16215308D02*
X11566978Y-16234355D01*
X11566978Y-16234355D02*
X11566978Y-16281974D01*
X11566978Y-16281974D02*
X11557454Y-16301022D01*
X11557454Y-16301022D02*
X11547930Y-16310546D01*
X11547930Y-16310546D02*
X11528883Y-16320069D01*
X11528883Y-16320069D02*
X11471740Y-16320069D01*
X11471740Y-16320069D02*
X11452692Y-16310546D01*
X11452692Y-16310546D02*
X11443168Y-16301022D01*
X11662216Y-16320069D02*
X11700311Y-16320069D01*
X11700311Y-16320069D02*
X11719359Y-16310546D01*
X11719359Y-16310546D02*
X11728883Y-16301022D01*
X11728883Y-16301022D02*
X11747930Y-16272450D01*
X11747930Y-16272450D02*
X11757454Y-16234355D01*
X11757454Y-16234355D02*
X11757454Y-16158165D01*
X11757454Y-16158165D02*
X11747930Y-16139117D01*
X11747930Y-16139117D02*
X11738406Y-16129593D01*
X11738406Y-16129593D02*
X11719359Y-16120069D01*
X11719359Y-16120069D02*
X11681263Y-16120069D01*
X11681263Y-16120069D02*
X11662216Y-16129593D01*
X11662216Y-16129593D02*
X11652692Y-16139117D01*
X11652692Y-16139117D02*
X11643168Y-16158165D01*
X11643168Y-16158165D02*
X11643168Y-16205784D01*
X11643168Y-16205784D02*
X11652692Y-16224831D01*
X11652692Y-16224831D02*
X11662216Y-16234355D01*
X11662216Y-16234355D02*
X11681263Y-16243879D01*
X11681263Y-16243879D02*
X11719359Y-16243879D01*
X11719359Y-16243879D02*
X11738406Y-16234355D01*
X11738406Y-16234355D02*
X11747930Y-16224831D01*
X11747930Y-16224831D02*
X11757454Y-16205784D01*
X11928883Y-16186736D02*
X11928883Y-16320069D01*
X11881263Y-16110546D02*
X11833644Y-16253403D01*
X11833644Y-16253403D02*
X11957454Y-16253403D01*
X12024121Y-16120069D02*
X12024121Y-16158165D01*
X12100311Y-16120069D02*
X12100311Y-16158165D01*
X12363168Y-16396260D02*
X12353644Y-16386736D01*
X12353644Y-16386736D02*
X12334597Y-16358165D01*
X12334597Y-16358165D02*
X12325073Y-16339117D01*
X12325073Y-16339117D02*
X12315549Y-16310546D01*
X12315549Y-16310546D02*
X12306025Y-16262927D01*
X12306025Y-16262927D02*
X12306025Y-16224831D01*
X12306025Y-16224831D02*
X12315549Y-16177212D01*
X12315549Y-16177212D02*
X12325073Y-16148641D01*
X12325073Y-16148641D02*
X12334597Y-16129593D01*
X12334597Y-16129593D02*
X12353644Y-16101022D01*
X12353644Y-16101022D02*
X12363168Y-16091498D01*
X12420311Y-16120069D02*
X12544121Y-16120069D01*
X12544121Y-16120069D02*
X12477454Y-16196260D01*
X12477454Y-16196260D02*
X12506025Y-16196260D01*
X12506025Y-16196260D02*
X12525073Y-16205784D01*
X12525073Y-16205784D02*
X12534597Y-16215308D01*
X12534597Y-16215308D02*
X12544121Y-16234355D01*
X12544121Y-16234355D02*
X12544121Y-16281974D01*
X12544121Y-16281974D02*
X12534597Y-16301022D01*
X12534597Y-16301022D02*
X12525073Y-16310546D01*
X12525073Y-16310546D02*
X12506025Y-16320069D01*
X12506025Y-16320069D02*
X12448883Y-16320069D01*
X12448883Y-16320069D02*
X12429835Y-16310546D01*
X12429835Y-16310546D02*
X12420311Y-16301022D01*
X12715549Y-16186736D02*
X12715549Y-16320069D01*
X12667930Y-16110546D02*
X12620311Y-16253403D01*
X12620311Y-16253403D02*
X12744121Y-16253403D01*
X12940311Y-16320069D02*
X12940311Y-16120069D01*
X13026025Y-16320069D02*
X13026025Y-16215308D01*
X13026025Y-16215308D02*
X13016502Y-16196260D01*
X13016502Y-16196260D02*
X12997454Y-16186736D01*
X12997454Y-16186736D02*
X12968883Y-16186736D01*
X12968883Y-16186736D02*
X12949835Y-16196260D01*
X12949835Y-16196260D02*
X12940311Y-16205784D01*
X13149835Y-16320069D02*
X13130787Y-16310546D01*
X13130787Y-16310546D02*
X13121264Y-16301022D01*
X13121264Y-16301022D02*
X13111740Y-16281974D01*
X13111740Y-16281974D02*
X13111740Y-16224831D01*
X13111740Y-16224831D02*
X13121264Y-16205784D01*
X13121264Y-16205784D02*
X13130787Y-16196260D01*
X13130787Y-16196260D02*
X13149835Y-16186736D01*
X13149835Y-16186736D02*
X13178406Y-16186736D01*
X13178406Y-16186736D02*
X13197454Y-16196260D01*
X13197454Y-16196260D02*
X13206978Y-16205784D01*
X13206978Y-16205784D02*
X13216502Y-16224831D01*
X13216502Y-16224831D02*
X13216502Y-16281974D01*
X13216502Y-16281974D02*
X13206978Y-16301022D01*
X13206978Y-16301022D02*
X13197454Y-16310546D01*
X13197454Y-16310546D02*
X13178406Y-16320069D01*
X13178406Y-16320069D02*
X13149835Y-16320069D01*
X13330787Y-16320069D02*
X13311740Y-16310546D01*
X13311740Y-16310546D02*
X13302216Y-16291498D01*
X13302216Y-16291498D02*
X13302216Y-16120069D01*
X13483168Y-16310546D02*
X13464121Y-16320069D01*
X13464121Y-16320069D02*
X13426025Y-16320069D01*
X13426025Y-16320069D02*
X13406978Y-16310546D01*
X13406978Y-16310546D02*
X13397454Y-16291498D01*
X13397454Y-16291498D02*
X13397454Y-16215308D01*
X13397454Y-16215308D02*
X13406978Y-16196260D01*
X13406978Y-16196260D02*
X13426025Y-16186736D01*
X13426025Y-16186736D02*
X13464121Y-16186736D01*
X13464121Y-16186736D02*
X13483168Y-16196260D01*
X13483168Y-16196260D02*
X13492692Y-16215308D01*
X13492692Y-16215308D02*
X13492692Y-16234355D01*
X13492692Y-16234355D02*
X13397454Y-16253403D01*
X13568883Y-16310546D02*
X13587930Y-16320069D01*
X13587930Y-16320069D02*
X13626025Y-16320069D01*
X13626025Y-16320069D02*
X13645073Y-16310546D01*
X13645073Y-16310546D02*
X13654597Y-16291498D01*
X13654597Y-16291498D02*
X13654597Y-16281974D01*
X13654597Y-16281974D02*
X13645073Y-16262927D01*
X13645073Y-16262927D02*
X13626025Y-16253403D01*
X13626025Y-16253403D02*
X13597454Y-16253403D01*
X13597454Y-16253403D02*
X13578406Y-16243879D01*
X13578406Y-16243879D02*
X13568883Y-16224831D01*
X13568883Y-16224831D02*
X13568883Y-16215308D01*
X13568883Y-16215308D02*
X13578406Y-16196260D01*
X13578406Y-16196260D02*
X13597454Y-16186736D01*
X13597454Y-16186736D02*
X13626025Y-16186736D01*
X13626025Y-16186736D02*
X13645073Y-16196260D01*
X13721264Y-16396260D02*
X13730787Y-16386736D01*
X13730787Y-16386736D02*
X13749835Y-16358165D01*
X13749835Y-16358165D02*
X13759359Y-16339117D01*
X13759359Y-16339117D02*
X13768883Y-16310546D01*
X13768883Y-16310546D02*
X13778406Y-16262927D01*
X13778406Y-16262927D02*
X13778406Y-16224831D01*
X13778406Y-16224831D02*
X13768883Y-16177212D01*
X13768883Y-16177212D02*
X13759359Y-16148641D01*
X13759359Y-16148641D02*
X13749835Y-16129593D01*
X13749835Y-16129593D02*
X13730787Y-16101022D01*
X13730787Y-16101022D02*
X13721264Y-16091498D01*
M02*
