%TF.GenerationSoftware,KiCad,Pcbnew,(7.0.0)*%
%TF.CreationDate,2023-04-19T13:17:30+09:00*%
%TF.ProjectId,project4,70726f6a-6563-4743-942e-6b696361645f,1.5*%
%TF.SameCoordinates,Original*%
%TF.FileFunction,Soldermask,Top*%
%TF.FilePolarity,Negative*%
%FSLAX46Y46*%
G04 Gerber Fmt 4.6, Leading zero omitted, Abs format (unit mm)*
G04 Created by KiCad (PCBNEW (7.0.0)) date 2023-04-19 13:17:30*
%MOMM*%
%LPD*%
G01*
G04 APERTURE LIST*
%ADD10R,1.600000X1.600000*%
%ADD11O,1.600000X1.600000*%
%ADD12R,1.700000X1.700000*%
%ADD13O,1.700000X1.700000*%
%ADD14C,1.600000*%
%ADD15R,1.700000X8.000000*%
%ADD16R,1.700000X7.500000*%
G04 APERTURE END LIST*
D10*
%TO.C,U1*%
X110489999Y-92709999D03*
D11*
X110489999Y-95249999D03*
X110489999Y-97789999D03*
X110489999Y-100329999D03*
X110489999Y-102869999D03*
X110489999Y-105409999D03*
X110489999Y-107949999D03*
X110489999Y-110489999D03*
X110489999Y-113029999D03*
X110489999Y-115569999D03*
X110489999Y-118109999D03*
X110489999Y-120649999D03*
X110489999Y-123189999D03*
X110489999Y-125729999D03*
X110489999Y-128269999D03*
X110489999Y-130809999D03*
X125729999Y-130809999D03*
X125729999Y-128269999D03*
X125729999Y-125729999D03*
X125729999Y-123189999D03*
X125729999Y-120649999D03*
X125729999Y-118109999D03*
X125729999Y-115569999D03*
X125729999Y-113029999D03*
X125729999Y-110489999D03*
X125729999Y-107949999D03*
X125729999Y-105409999D03*
X125729999Y-102869999D03*
X125729999Y-100329999D03*
X125729999Y-97789999D03*
X125729999Y-95249999D03*
X125729999Y-92709999D03*
%TD*%
D12*
%TO.C,J2*%
X93974999Y-100344999D03*
D13*
X96514999Y-100344999D03*
X93974999Y-102884999D03*
X96514999Y-102884999D03*
X93974999Y-105424999D03*
X96514999Y-105424999D03*
%TD*%
D14*
%TO.C,R5*%
X182245000Y-62230000D03*
D11*
X172084999Y-62229999D03*
%TD*%
D14*
%TO.C,R6*%
X182245000Y-74930000D03*
D11*
X172084999Y-74929999D03*
%TD*%
D14*
%TO.C,C4*%
X186610000Y-89535000D03*
X181610000Y-89535000D03*
%TD*%
D10*
%TO.C,U5*%
X132069999Y-63499999D03*
D11*
X132069999Y-66039999D03*
X132069999Y-68579999D03*
X132069999Y-71119999D03*
X132069999Y-73659999D03*
X132069999Y-76199999D03*
X132069999Y-78739999D03*
X132069999Y-81279999D03*
X139689999Y-81279999D03*
X139689999Y-78739999D03*
X139689999Y-76199999D03*
X139689999Y-73659999D03*
X139689999Y-71119999D03*
X139689999Y-68579999D03*
X139689999Y-66039999D03*
X139689999Y-63499999D03*
%TD*%
D14*
%TO.C,R1*%
X182245000Y-68580000D03*
D11*
X172084999Y-68579999D03*
%TD*%
D10*
%TO.C,U9*%
X157479999Y-63499999D03*
D11*
X157479999Y-66039999D03*
X157479999Y-68579999D03*
X157479999Y-71119999D03*
X157479999Y-73659999D03*
X157479999Y-76199999D03*
X157479999Y-78739999D03*
X157479999Y-81279999D03*
X165099999Y-81279999D03*
X165099999Y-78739999D03*
X165099999Y-76199999D03*
X165099999Y-73659999D03*
X165099999Y-71119999D03*
X165099999Y-68579999D03*
X165099999Y-66039999D03*
X165099999Y-63499999D03*
%TD*%
D14*
%TO.C,R7*%
X182245000Y-71755000D03*
D11*
X172084999Y-71754999D03*
%TD*%
D12*
%TO.C,J1*%
X93974999Y-87624999D03*
D13*
X96514999Y-87624999D03*
X93974999Y-90164999D03*
X96514999Y-90164999D03*
X93974999Y-92704999D03*
X96514999Y-92704999D03*
%TD*%
D12*
%TO.C,J5*%
X102864999Y-113044999D03*
D13*
X105404999Y-113044999D03*
X102864999Y-115584999D03*
X105404999Y-115584999D03*
X102864999Y-118124999D03*
X105404999Y-118124999D03*
%TD*%
D12*
%TO.C,J6*%
X102864999Y-87624999D03*
D13*
X105404999Y-87624999D03*
X102864999Y-90164999D03*
X105404999Y-90164999D03*
%TD*%
D14*
%TO.C,C8*%
X152360000Y-60325000D03*
X147360000Y-60325000D03*
%TD*%
%TO.C,C2*%
X145970000Y-89535000D03*
X140970000Y-89535000D03*
%TD*%
%TO.C,R3*%
X182245000Y-65405000D03*
D11*
X172084999Y-65404999D03*
%TD*%
D15*
%TO.C,CE1*%
X174909839Y-145940788D03*
X172369839Y-145940788D03*
X169829839Y-145940788D03*
X167289839Y-145940788D03*
X164749839Y-145940788D03*
X162209839Y-145940788D03*
X159669839Y-145940788D03*
X157129839Y-145940788D03*
X154589839Y-145940788D03*
X152049839Y-145940788D03*
X149509839Y-145940788D03*
X146969839Y-145940788D03*
X144429839Y-145940788D03*
X141889839Y-145940788D03*
X139349839Y-145940788D03*
X136809839Y-145940788D03*
X134269839Y-145940788D03*
X131729839Y-145940788D03*
X129189839Y-145940788D03*
X126649839Y-145940788D03*
X124109839Y-145940788D03*
D16*
X121569999Y-145691348D03*
D15*
X119029839Y-145940788D03*
X116489839Y-145940788D03*
X113949839Y-145940788D03*
%TD*%
D14*
%TO.C,C6*%
X110490000Y-60325000D03*
X105490000Y-60325000D03*
%TD*%
D10*
%TO.C,U7*%
X115579999Y-63494999D03*
D11*
X115579999Y-66034999D03*
X115579999Y-68574999D03*
X115579999Y-71114999D03*
X115579999Y-73654999D03*
X115579999Y-76194999D03*
X115579999Y-78734999D03*
X123199999Y-78734999D03*
X123199999Y-76194999D03*
X123199999Y-73654999D03*
X123199999Y-71114999D03*
X123199999Y-68574999D03*
X123199999Y-66034999D03*
X123199999Y-63494999D03*
%TD*%
D14*
%TO.C,C3*%
X166290000Y-89535000D03*
X161290000Y-89535000D03*
%TD*%
D10*
%TO.C,U2*%
X130809999Y-92709999D03*
D11*
X130809999Y-95249999D03*
X130809999Y-97789999D03*
X130809999Y-100329999D03*
X130809999Y-102869999D03*
X130809999Y-105409999D03*
X130809999Y-107949999D03*
X130809999Y-110489999D03*
X130809999Y-113029999D03*
X130809999Y-115569999D03*
X130809999Y-118109999D03*
X130809999Y-120649999D03*
X130809999Y-123189999D03*
X130809999Y-125729999D03*
X130809999Y-128269999D03*
X130809999Y-130809999D03*
X146049999Y-130809999D03*
X146049999Y-128269999D03*
X146049999Y-125729999D03*
X146049999Y-123189999D03*
X146049999Y-120649999D03*
X146049999Y-118109999D03*
X146049999Y-115569999D03*
X146049999Y-113029999D03*
X146049999Y-110489999D03*
X146049999Y-107949999D03*
X146049999Y-105409999D03*
X146049999Y-102869999D03*
X146049999Y-100329999D03*
X146049999Y-97789999D03*
X146049999Y-95249999D03*
X146049999Y-92709999D03*
%TD*%
D14*
%TO.C,R4*%
X182245000Y-78105000D03*
D11*
X172084999Y-78104999D03*
%TD*%
D10*
%TO.C,U3*%
X151129999Y-92709999D03*
D11*
X151129999Y-95249999D03*
X151129999Y-97789999D03*
X151129999Y-100329999D03*
X151129999Y-102869999D03*
X151129999Y-105409999D03*
X151129999Y-107949999D03*
X151129999Y-110489999D03*
X151129999Y-113029999D03*
X151129999Y-115569999D03*
X151129999Y-118109999D03*
X151129999Y-120649999D03*
X151129999Y-123189999D03*
X151129999Y-125729999D03*
X151129999Y-128269999D03*
X151129999Y-130809999D03*
X166369999Y-130809999D03*
X166369999Y-128269999D03*
X166369999Y-125729999D03*
X166369999Y-123189999D03*
X166369999Y-120649999D03*
X166369999Y-118109999D03*
X166369999Y-115569999D03*
X166369999Y-113029999D03*
X166369999Y-110489999D03*
X166369999Y-107949999D03*
X166369999Y-105409999D03*
X166369999Y-102869999D03*
X166369999Y-100329999D03*
X166369999Y-97789999D03*
X166369999Y-95249999D03*
X166369999Y-92709999D03*
%TD*%
D10*
%TO.C,U6*%
X102869999Y-63499999D03*
D11*
X102869999Y-66039999D03*
X102869999Y-68579999D03*
X102869999Y-71119999D03*
X102869999Y-73659999D03*
X102869999Y-76199999D03*
X102869999Y-78739999D03*
X110489999Y-78739999D03*
X110489999Y-76199999D03*
X110489999Y-73659999D03*
X110489999Y-71119999D03*
X110489999Y-68579999D03*
X110489999Y-66039999D03*
X110489999Y-63499999D03*
%TD*%
D12*
%TO.C,J3*%
X102864999Y-100344999D03*
D13*
X105404999Y-100344999D03*
X102864999Y-102884999D03*
X105404999Y-102884999D03*
X102864999Y-105424999D03*
X105404999Y-105424999D03*
%TD*%
D10*
%TO.C,U8*%
X144779999Y-63499999D03*
D11*
X144779999Y-66039999D03*
X144779999Y-68579999D03*
X144779999Y-71119999D03*
X144779999Y-73659999D03*
X144779999Y-76199999D03*
X144779999Y-78739999D03*
X144779999Y-81279999D03*
X152399999Y-81279999D03*
X152399999Y-78739999D03*
X152399999Y-76199999D03*
X152399999Y-73659999D03*
X152399999Y-71119999D03*
X152399999Y-68579999D03*
X152399999Y-66039999D03*
X152399999Y-63499999D03*
%TD*%
D14*
%TO.C,C9*%
X165100000Y-60325000D03*
X160100000Y-60325000D03*
%TD*%
%TO.C,C1*%
X125650000Y-89535000D03*
X120650000Y-89535000D03*
%TD*%
%TO.C,R2*%
X182245000Y-81280000D03*
D11*
X172084999Y-81279999D03*
%TD*%
D12*
%TO.C,J4*%
X93974999Y-113029999D03*
D13*
X96514999Y-113029999D03*
X93974999Y-115569999D03*
X96514999Y-115569999D03*
X93974999Y-118109999D03*
X96514999Y-118109999D03*
%TD*%
D14*
%TO.C,C5*%
X139660000Y-60325000D03*
X134660000Y-60325000D03*
%TD*%
D10*
%TO.C,U4*%
X171449999Y-92709999D03*
D11*
X171449999Y-95249999D03*
X171449999Y-97789999D03*
X171449999Y-100329999D03*
X171449999Y-102869999D03*
X171449999Y-105409999D03*
X171449999Y-107949999D03*
X171449999Y-110489999D03*
X171449999Y-113029999D03*
X171449999Y-115569999D03*
X171449999Y-118109999D03*
X171449999Y-120649999D03*
X171449999Y-123189999D03*
X171449999Y-125729999D03*
X171449999Y-128269999D03*
X171449999Y-130809999D03*
X186689999Y-130809999D03*
X186689999Y-128269999D03*
X186689999Y-125729999D03*
X186689999Y-123189999D03*
X186689999Y-120649999D03*
X186689999Y-118109999D03*
X186689999Y-115569999D03*
X186689999Y-113029999D03*
X186689999Y-110489999D03*
X186689999Y-107949999D03*
X186689999Y-105409999D03*
X186689999Y-102869999D03*
X186689999Y-100329999D03*
X186689999Y-97789999D03*
X186689999Y-95249999D03*
X186689999Y-92709999D03*
%TD*%
D14*
%TO.C,C7*%
X123150000Y-60325000D03*
X118150000Y-60325000D03*
%TD*%
D10*
%TO.C,C10*%
X102869999Y-132079999D03*
D14*
X105370000Y-132080000D03*
%TD*%
M02*
