M48
; DRILL file {KiCad (7.0.0)} date Wed Apr 19 13:17:42 2023
; FORMAT={-:-/ absolute / metric / decimal}
; #@! TF.CreationDate,2023-04-19T13:17:42+09:00
; #@! TF.GenerationSoftware,Kicad,Pcbnew,(7.0.0)
; #@! TF.FileFunction,Plated,1,2,PTH
FMAT,2
METRIC
; #@! TA.AperFunction,Plated,PTH,ViaDrill
T1C0.400
; #@! TA.AperFunction,Plated,PTH,ComponentDrill
T2C0.800
; #@! TA.AperFunction,Plated,PTH,ComponentDrill
T3C1.000
%
G90
G05
T1
X92.71Y-108.585
X93.042Y-98.359
X93.98Y-66.04
X93.98Y-68.58
X95.25Y-64.77
X95.25Y-67.31
X96.52Y-63.5
X96.52Y-66.04
X96.52Y-95.885
X96.52Y-121.92
X96.52Y-124.46
X97.79Y-64.77
X97.79Y-108.585
X99.06Y-63.5
X99.06Y-91.44
X99.06Y-93.98
X99.06Y-115.57
X101.6Y-93.98
X101.6Y-121.92
X101.6Y-124.46
X101.6Y-137.16
X102.87Y-81.28
X103.505Y-137.16
X104.817Y-95.843
X105.41Y-74.93
X105.41Y-92.71
X106.68Y-66.04
X106.68Y-68.58
X106.68Y-110.49
X106.68Y-121.92
X106.68Y-124.46
X107.95Y-63.5
X107.95Y-90.17
X107.95Y-108.585
X107.95Y-115.57
X107.95Y-118.11
X109.22Y-90.17
X113.03Y-63.5
X113.03Y-66.04
X113.03Y-85.725
X114.3Y-85.725
X114.3Y-95.25
X115.57Y-138.43
X117.475Y-138.43
X118.11Y-63.5
X118.11Y-78.74
X118.11Y-95.25
X118.745Y-118.11
X119.38Y-67.31
X120.015Y-81.915
X120.65Y-63.5
X120.65Y-76.2
X121.92Y-95.25
X124.46Y-82.55
X125.73Y-81.28
X125.73Y-82.55
X126.365Y-63.5
X126.365Y-67.31
X127.091Y-71.628
X127.635Y-69.215
X127.635Y-73.025
X127.635Y-138.43
X128.27Y-118.11
X128.905Y-63.5
X129.583Y-69.057
X130.175Y-138.43
X132.08Y-83.82
X132.08Y-90.17
X132.715Y-138.43
X133.35Y-90.17
X134.62Y-63.5
X134.62Y-78.74
X134.62Y-81.28
X135.255Y-138.43
X135.89Y-66.04
X136.525Y-85.09
X137.16Y-63.5
X137.16Y-138.43
X137.795Y-132.625
X138.43Y-95.25
X139.065Y-133.35
X139.7Y-118.11
X139.7Y-130.81
X139.7Y-138.43
X140.335Y-134.34
X140.97Y-118.11
X140.97Y-130.81
X141.504Y-135.255
X142.24Y-138.43
X143.51Y-95.25
X143.51Y-135.255
X144.78Y-83.82
X147.32Y-63.5
X149.86Y-63.5
X149.86Y-66.04
X150.468Y-76.152
X150.495Y-73.66
X150.495Y-78.74
X150.495Y-136.525
X153.67Y-95.25
X153.67Y-118.11
X153.67Y-130.81
X154.91Y-76.114
X154.94Y-63.5
X154.94Y-66.04
X154.94Y-78.74
X154.94Y-81.28
X154.94Y-135.255
X156.21Y-95.25
X158.75Y-135.255
X160.02Y-63.5
X160.02Y-81.28
X160.655Y-118.11
X161.29Y-81.28
X161.29Y-130.81
X161.925Y-94.615
X162.56Y-63.5
X162.56Y-66.04
X162.56Y-68.58
X162.56Y-135.255
X166.479Y-74.894
X167.64Y-60.96
X167.64Y-63.5
X169.545Y-137.795
X171.45Y-85.725
X174.625Y-85.725
X174.625Y-89.535
X175.26Y-115.57
X175.26Y-118.11
X176.53Y-135.344
X179.07Y-95.25
X179.07Y-116.205
X179.705Y-131.445
X181.61Y-116.205
X182.88Y-135.89
X184.15Y-95.25
X184.785Y-116.84
X187.325Y-135.89
T2
X102.87Y-63.5
X102.87Y-66.04
X102.87Y-68.58
X102.87Y-71.12
X102.87Y-73.66
X102.87Y-76.2
X102.87Y-78.74
X102.87Y-132.08
X105.37Y-132.08
X105.49Y-60.325
X110.49Y-60.325
X110.49Y-63.5
X110.49Y-66.04
X110.49Y-68.58
X110.49Y-71.12
X110.49Y-73.66
X110.49Y-76.2
X110.49Y-78.74
X110.49Y-92.71
X110.49Y-95.25
X110.49Y-97.79
X110.49Y-100.33
X110.49Y-102.87
X110.49Y-105.41
X110.49Y-107.95
X110.49Y-110.49
X110.49Y-113.03
X110.49Y-115.57
X110.49Y-118.11
X110.49Y-120.65
X110.49Y-123.19
X110.49Y-125.73
X110.49Y-128.27
X110.49Y-130.81
X115.58Y-63.495
X115.58Y-66.035
X115.58Y-68.575
X115.58Y-71.115
X115.58Y-73.655
X115.58Y-76.195
X115.58Y-78.735
X118.15Y-60.325
X120.65Y-89.535
X123.15Y-60.325
X123.2Y-63.495
X123.2Y-66.035
X123.2Y-68.575
X123.2Y-71.115
X123.2Y-73.655
X123.2Y-76.195
X123.2Y-78.735
X125.65Y-89.535
X125.73Y-92.71
X125.73Y-95.25
X125.73Y-97.79
X125.73Y-100.33
X125.73Y-102.87
X125.73Y-105.41
X125.73Y-107.95
X125.73Y-110.49
X125.73Y-113.03
X125.73Y-115.57
X125.73Y-118.11
X125.73Y-120.65
X125.73Y-123.19
X125.73Y-125.73
X125.73Y-128.27
X125.73Y-130.81
X130.81Y-92.71
X130.81Y-95.25
X130.81Y-97.79
X130.81Y-100.33
X130.81Y-102.87
X130.81Y-105.41
X130.81Y-107.95
X130.81Y-110.49
X130.81Y-113.03
X130.81Y-115.57
X130.81Y-118.11
X130.81Y-120.65
X130.81Y-123.19
X130.81Y-125.73
X130.81Y-128.27
X130.81Y-130.81
X132.07Y-63.5
X132.07Y-66.04
X132.07Y-68.58
X132.07Y-71.12
X132.07Y-73.66
X132.07Y-76.2
X132.07Y-78.74
X132.07Y-81.28
X134.66Y-60.325
X139.66Y-60.325
X139.69Y-63.5
X139.69Y-66.04
X139.69Y-68.58
X139.69Y-71.12
X139.69Y-73.66
X139.69Y-76.2
X139.69Y-78.74
X139.69Y-81.28
X140.97Y-89.535
X144.78Y-63.5
X144.78Y-66.04
X144.78Y-68.58
X144.78Y-71.12
X144.78Y-73.66
X144.78Y-76.2
X144.78Y-78.74
X144.78Y-81.28
X145.97Y-89.535
X146.05Y-92.71
X146.05Y-95.25
X146.05Y-97.79
X146.05Y-100.33
X146.05Y-102.87
X146.05Y-105.41
X146.05Y-107.95
X146.05Y-110.49
X146.05Y-113.03
X146.05Y-115.57
X146.05Y-118.11
X146.05Y-120.65
X146.05Y-123.19
X146.05Y-125.73
X146.05Y-128.27
X146.05Y-130.81
X147.36Y-60.325
X151.13Y-92.71
X151.13Y-95.25
X151.13Y-97.79
X151.13Y-100.33
X151.13Y-102.87
X151.13Y-105.41
X151.13Y-107.95
X151.13Y-110.49
X151.13Y-113.03
X151.13Y-115.57
X151.13Y-118.11
X151.13Y-120.65
X151.13Y-123.19
X151.13Y-125.73
X151.13Y-128.27
X151.13Y-130.81
X152.36Y-60.325
X152.4Y-63.5
X152.4Y-66.04
X152.4Y-68.58
X152.4Y-71.12
X152.4Y-73.66
X152.4Y-76.2
X152.4Y-78.74
X152.4Y-81.28
X157.48Y-63.5
X157.48Y-66.04
X157.48Y-68.58
X157.48Y-71.12
X157.48Y-73.66
X157.48Y-76.2
X157.48Y-78.74
X157.48Y-81.28
X160.1Y-60.325
X161.29Y-89.535
X165.1Y-60.325
X165.1Y-63.5
X165.1Y-66.04
X165.1Y-68.58
X165.1Y-71.12
X165.1Y-73.66
X165.1Y-76.2
X165.1Y-78.74
X165.1Y-81.28
X166.29Y-89.535
X166.37Y-92.71
X166.37Y-95.25
X166.37Y-97.79
X166.37Y-100.33
X166.37Y-102.87
X166.37Y-105.41
X166.37Y-107.95
X166.37Y-110.49
X166.37Y-113.03
X166.37Y-115.57
X166.37Y-118.11
X166.37Y-120.65
X166.37Y-123.19
X166.37Y-125.73
X166.37Y-128.27
X166.37Y-130.81
X171.45Y-92.71
X171.45Y-95.25
X171.45Y-97.79
X171.45Y-100.33
X171.45Y-102.87
X171.45Y-105.41
X171.45Y-107.95
X171.45Y-110.49
X171.45Y-113.03
X171.45Y-115.57
X171.45Y-118.11
X171.45Y-120.65
X171.45Y-123.19
X171.45Y-125.73
X171.45Y-128.27
X171.45Y-130.81
X172.085Y-62.23
X172.085Y-65.405
X172.085Y-68.58
X172.085Y-71.755
X172.085Y-74.93
X172.085Y-78.105
X172.085Y-81.28
X181.61Y-89.535
X182.245Y-62.23
X182.245Y-65.405
X182.245Y-68.58
X182.245Y-71.755
X182.245Y-74.93
X182.245Y-78.105
X182.245Y-81.28
X186.61Y-89.535
X186.69Y-92.71
X186.69Y-95.25
X186.69Y-97.79
X186.69Y-100.33
X186.69Y-102.87
X186.69Y-105.41
X186.69Y-107.95
X186.69Y-110.49
X186.69Y-113.03
X186.69Y-115.57
X186.69Y-118.11
X186.69Y-120.65
X186.69Y-123.19
X186.69Y-125.73
X186.69Y-128.27
X186.69Y-130.81
T3
X93.975Y-87.625
X93.975Y-90.165
X93.975Y-92.705
X93.975Y-100.345
X93.975Y-102.885
X93.975Y-105.425
X93.975Y-113.03
X93.975Y-115.57
X93.975Y-118.11
X96.515Y-87.625
X96.515Y-90.165
X96.515Y-92.705
X96.515Y-100.345
X96.515Y-102.885
X96.515Y-105.425
X96.515Y-113.03
X96.515Y-115.57
X96.515Y-118.11
X102.865Y-87.625
X102.865Y-90.165
X102.865Y-100.345
X102.865Y-102.885
X102.865Y-105.425
X102.865Y-113.045
X102.865Y-115.585
X102.865Y-118.125
X105.405Y-87.625
X105.405Y-90.165
X105.405Y-100.345
X105.405Y-102.885
X105.405Y-105.425
X105.405Y-113.045
X105.405Y-115.585
X105.405Y-118.125
T0
M30
