%TF.GenerationSoftware,KiCad,Pcbnew,(7.0.0)*%
%TF.CreationDate,2023-03-31T15:06:47+09:00*%
%TF.ProjectId,project3,70726f6a-6563-4743-932e-6b696361645f,rev?*%
%TF.SameCoordinates,Original*%
%TF.FileFunction,Legend,Top*%
%TF.FilePolarity,Positive*%
%FSLAX46Y46*%
G04 Gerber Fmt 4.6, Leading zero omitted, Abs format (unit mm)*
G04 Created by KiCad (PCBNEW (7.0.0)) date 2023-03-31 15:06:47*
%MOMM*%
%LPD*%
G01*
G04 APERTURE LIST*
%ADD10C,0.200000*%
%ADD11C,0.150000*%
%ADD12C,0.100000*%
%ADD13C,0.120000*%
G04 APERTURE END LIST*
D10*
X90728453Y-66329714D02*
X90728453Y-66996380D01*
X90537977Y-65948761D02*
X90347500Y-66663047D01*
X90347500Y-66663047D02*
X90842739Y-66663047D01*
X91627501Y-66996380D02*
X91627501Y-65996380D01*
X91627501Y-65996380D02*
X91894167Y-66710666D01*
X91894167Y-66710666D02*
X92160834Y-65996380D01*
X92160834Y-65996380D02*
X92160834Y-66996380D01*
X92846549Y-66948761D02*
X92770358Y-66996380D01*
X92770358Y-66996380D02*
X92617977Y-66996380D01*
X92617977Y-66996380D02*
X92541787Y-66948761D01*
X92541787Y-66948761D02*
X92503691Y-66853523D01*
X92503691Y-66853523D02*
X92503691Y-66472571D01*
X92503691Y-66472571D02*
X92541787Y-66377333D01*
X92541787Y-66377333D02*
X92617977Y-66329714D01*
X92617977Y-66329714D02*
X92770358Y-66329714D01*
X92770358Y-66329714D02*
X92846549Y-66377333D01*
X92846549Y-66377333D02*
X92884644Y-66472571D01*
X92884644Y-66472571D02*
X92884644Y-66567809D01*
X92884644Y-66567809D02*
X92503691Y-66663047D01*
X93570358Y-66329714D02*
X93570358Y-67139238D01*
X93570358Y-67139238D02*
X93532263Y-67234476D01*
X93532263Y-67234476D02*
X93494167Y-67282095D01*
X93494167Y-67282095D02*
X93417977Y-67329714D01*
X93417977Y-67329714D02*
X93303691Y-67329714D01*
X93303691Y-67329714D02*
X93227501Y-67282095D01*
X93570358Y-66948761D02*
X93494167Y-66996380D01*
X93494167Y-66996380D02*
X93341786Y-66996380D01*
X93341786Y-66996380D02*
X93265596Y-66948761D01*
X93265596Y-66948761D02*
X93227501Y-66901142D01*
X93227501Y-66901142D02*
X93189405Y-66805904D01*
X93189405Y-66805904D02*
X93189405Y-66520190D01*
X93189405Y-66520190D02*
X93227501Y-66424952D01*
X93227501Y-66424952D02*
X93265596Y-66377333D01*
X93265596Y-66377333D02*
X93341786Y-66329714D01*
X93341786Y-66329714D02*
X93494167Y-66329714D01*
X93494167Y-66329714D02*
X93570358Y-66377333D01*
X94294168Y-66996380D02*
X94294168Y-66472571D01*
X94294168Y-66472571D02*
X94256073Y-66377333D01*
X94256073Y-66377333D02*
X94179882Y-66329714D01*
X94179882Y-66329714D02*
X94027501Y-66329714D01*
X94027501Y-66329714D02*
X93951311Y-66377333D01*
X94294168Y-66948761D02*
X94217977Y-66996380D01*
X94217977Y-66996380D02*
X94027501Y-66996380D01*
X94027501Y-66996380D02*
X93951311Y-66948761D01*
X93951311Y-66948761D02*
X93913215Y-66853523D01*
X93913215Y-66853523D02*
X93913215Y-66758285D01*
X93913215Y-66758285D02*
X93951311Y-66663047D01*
X93951311Y-66663047D02*
X94027501Y-66615428D01*
X94027501Y-66615428D02*
X94217977Y-66615428D01*
X94217977Y-66615428D02*
X94294168Y-66567809D01*
X95612264Y-66996380D02*
X95345597Y-66520190D01*
X95155121Y-66996380D02*
X95155121Y-65996380D01*
X95155121Y-65996380D02*
X95459883Y-65996380D01*
X95459883Y-65996380D02*
X95536073Y-66044000D01*
X95536073Y-66044000D02*
X95574168Y-66091619D01*
X95574168Y-66091619D02*
X95612264Y-66186857D01*
X95612264Y-66186857D02*
X95612264Y-66329714D01*
X95612264Y-66329714D02*
X95574168Y-66424952D01*
X95574168Y-66424952D02*
X95536073Y-66472571D01*
X95536073Y-66472571D02*
X95459883Y-66520190D01*
X95459883Y-66520190D02*
X95155121Y-66520190D01*
X96069406Y-66996380D02*
X95993216Y-66948761D01*
X95993216Y-66948761D02*
X95955121Y-66901142D01*
X95955121Y-66901142D02*
X95917025Y-66805904D01*
X95917025Y-66805904D02*
X95917025Y-66520190D01*
X95917025Y-66520190D02*
X95955121Y-66424952D01*
X95955121Y-66424952D02*
X95993216Y-66377333D01*
X95993216Y-66377333D02*
X96069406Y-66329714D01*
X96069406Y-66329714D02*
X96183692Y-66329714D01*
X96183692Y-66329714D02*
X96259883Y-66377333D01*
X96259883Y-66377333D02*
X96297978Y-66424952D01*
X96297978Y-66424952D02*
X96336073Y-66520190D01*
X96336073Y-66520190D02*
X96336073Y-66805904D01*
X96336073Y-66805904D02*
X96297978Y-66901142D01*
X96297978Y-66901142D02*
X96259883Y-66948761D01*
X96259883Y-66948761D02*
X96183692Y-66996380D01*
X96183692Y-66996380D02*
X96069406Y-66996380D01*
X96678931Y-66996380D02*
X96678931Y-66329714D01*
X96678931Y-66424952D02*
X96717026Y-66377333D01*
X96717026Y-66377333D02*
X96793216Y-66329714D01*
X96793216Y-66329714D02*
X96907502Y-66329714D01*
X96907502Y-66329714D02*
X96983693Y-66377333D01*
X96983693Y-66377333D02*
X97021788Y-66472571D01*
X97021788Y-66472571D02*
X97021788Y-66996380D01*
X97021788Y-66472571D02*
X97059883Y-66377333D01*
X97059883Y-66377333D02*
X97136074Y-66329714D01*
X97136074Y-66329714D02*
X97250359Y-66329714D01*
X97250359Y-66329714D02*
X97326550Y-66377333D01*
X97326550Y-66377333D02*
X97364645Y-66472571D01*
X97364645Y-66472571D02*
X97364645Y-66996380D01*
X98225598Y-66996380D02*
X98225598Y-65996380D01*
X98225598Y-65996380D02*
X98530360Y-65996380D01*
X98530360Y-65996380D02*
X98606550Y-66044000D01*
X98606550Y-66044000D02*
X98644645Y-66091619D01*
X98644645Y-66091619D02*
X98682741Y-66186857D01*
X98682741Y-66186857D02*
X98682741Y-66329714D01*
X98682741Y-66329714D02*
X98644645Y-66424952D01*
X98644645Y-66424952D02*
X98606550Y-66472571D01*
X98606550Y-66472571D02*
X98530360Y-66520190D01*
X98530360Y-66520190D02*
X98225598Y-66520190D01*
X99368455Y-66996380D02*
X99368455Y-66472571D01*
X99368455Y-66472571D02*
X99330360Y-66377333D01*
X99330360Y-66377333D02*
X99254169Y-66329714D01*
X99254169Y-66329714D02*
X99101788Y-66329714D01*
X99101788Y-66329714D02*
X99025598Y-66377333D01*
X99368455Y-66948761D02*
X99292264Y-66996380D01*
X99292264Y-66996380D02*
X99101788Y-66996380D01*
X99101788Y-66996380D02*
X99025598Y-66948761D01*
X99025598Y-66948761D02*
X98987502Y-66853523D01*
X98987502Y-66853523D02*
X98987502Y-66758285D01*
X98987502Y-66758285D02*
X99025598Y-66663047D01*
X99025598Y-66663047D02*
X99101788Y-66615428D01*
X99101788Y-66615428D02*
X99292264Y-66615428D01*
X99292264Y-66615428D02*
X99368455Y-66567809D01*
X100092265Y-66948761D02*
X100016074Y-66996380D01*
X100016074Y-66996380D02*
X99863693Y-66996380D01*
X99863693Y-66996380D02*
X99787503Y-66948761D01*
X99787503Y-66948761D02*
X99749408Y-66901142D01*
X99749408Y-66901142D02*
X99711312Y-66805904D01*
X99711312Y-66805904D02*
X99711312Y-66520190D01*
X99711312Y-66520190D02*
X99749408Y-66424952D01*
X99749408Y-66424952D02*
X99787503Y-66377333D01*
X99787503Y-66377333D02*
X99863693Y-66329714D01*
X99863693Y-66329714D02*
X100016074Y-66329714D01*
X100016074Y-66329714D02*
X100092265Y-66377333D01*
X100435122Y-66996380D02*
X100435122Y-65996380D01*
X100511312Y-66615428D02*
X100739884Y-66996380D01*
X100739884Y-66329714D02*
X100435122Y-66710666D01*
X101448455Y-65996380D02*
X101715122Y-66996380D01*
X101715122Y-66996380D02*
X101981788Y-65996380D01*
X102553217Y-66948761D02*
X102477026Y-66996380D01*
X102477026Y-66996380D02*
X102324645Y-66996380D01*
X102324645Y-66996380D02*
X102248455Y-66948761D01*
X102248455Y-66948761D02*
X102210359Y-66853523D01*
X102210359Y-66853523D02*
X102210359Y-66472571D01*
X102210359Y-66472571D02*
X102248455Y-66377333D01*
X102248455Y-66377333D02*
X102324645Y-66329714D01*
X102324645Y-66329714D02*
X102477026Y-66329714D01*
X102477026Y-66329714D02*
X102553217Y-66377333D01*
X102553217Y-66377333D02*
X102591312Y-66472571D01*
X102591312Y-66472571D02*
X102591312Y-66567809D01*
X102591312Y-66567809D02*
X102210359Y-66663047D01*
X102934169Y-66996380D02*
X102934169Y-66329714D01*
X102934169Y-66520190D02*
X102972264Y-66424952D01*
X102972264Y-66424952D02*
X103010359Y-66377333D01*
X103010359Y-66377333D02*
X103086550Y-66329714D01*
X103086550Y-66329714D02*
X103162740Y-66329714D01*
X104328454Y-66996380D02*
X103871311Y-66996380D01*
X104099883Y-66996380D02*
X104099883Y-65996380D01*
X104099883Y-65996380D02*
X104023692Y-66139238D01*
X104023692Y-66139238D02*
X103947502Y-66234476D01*
X103947502Y-66234476D02*
X103871311Y-66282095D01*
X104671312Y-66901142D02*
X104709407Y-66948761D01*
X104709407Y-66948761D02*
X104671312Y-66996380D01*
X104671312Y-66996380D02*
X104633216Y-66948761D01*
X104633216Y-66948761D02*
X104671312Y-66901142D01*
X104671312Y-66901142D02*
X104671312Y-66996380D01*
X105471311Y-66996380D02*
X105014168Y-66996380D01*
X105242740Y-66996380D02*
X105242740Y-65996380D01*
X105242740Y-65996380D02*
X105166549Y-66139238D01*
X105166549Y-66139238D02*
X105090359Y-66234476D01*
X105090359Y-66234476D02*
X105014168Y-66282095D01*
X90385596Y-68616380D02*
X90385596Y-67616380D01*
X90385596Y-67616380D02*
X90576072Y-67616380D01*
X90576072Y-67616380D02*
X90690358Y-67664000D01*
X90690358Y-67664000D02*
X90766548Y-67759238D01*
X90766548Y-67759238D02*
X90804643Y-67854476D01*
X90804643Y-67854476D02*
X90842739Y-68044952D01*
X90842739Y-68044952D02*
X90842739Y-68187809D01*
X90842739Y-68187809D02*
X90804643Y-68378285D01*
X90804643Y-68378285D02*
X90766548Y-68473523D01*
X90766548Y-68473523D02*
X90690358Y-68568761D01*
X90690358Y-68568761D02*
X90576072Y-68616380D01*
X90576072Y-68616380D02*
X90385596Y-68616380D01*
X91490358Y-68568761D02*
X91414167Y-68616380D01*
X91414167Y-68616380D02*
X91261786Y-68616380D01*
X91261786Y-68616380D02*
X91185596Y-68568761D01*
X91185596Y-68568761D02*
X91147500Y-68473523D01*
X91147500Y-68473523D02*
X91147500Y-68092571D01*
X91147500Y-68092571D02*
X91185596Y-67997333D01*
X91185596Y-67997333D02*
X91261786Y-67949714D01*
X91261786Y-67949714D02*
X91414167Y-67949714D01*
X91414167Y-67949714D02*
X91490358Y-67997333D01*
X91490358Y-67997333D02*
X91528453Y-68092571D01*
X91528453Y-68092571D02*
X91528453Y-68187809D01*
X91528453Y-68187809D02*
X91147500Y-68283047D01*
X91833214Y-68568761D02*
X91909405Y-68616380D01*
X91909405Y-68616380D02*
X92061786Y-68616380D01*
X92061786Y-68616380D02*
X92137976Y-68568761D01*
X92137976Y-68568761D02*
X92176072Y-68473523D01*
X92176072Y-68473523D02*
X92176072Y-68425904D01*
X92176072Y-68425904D02*
X92137976Y-68330666D01*
X92137976Y-68330666D02*
X92061786Y-68283047D01*
X92061786Y-68283047D02*
X91947500Y-68283047D01*
X91947500Y-68283047D02*
X91871310Y-68235428D01*
X91871310Y-68235428D02*
X91833214Y-68140190D01*
X91833214Y-68140190D02*
X91833214Y-68092571D01*
X91833214Y-68092571D02*
X91871310Y-67997333D01*
X91871310Y-67997333D02*
X91947500Y-67949714D01*
X91947500Y-67949714D02*
X92061786Y-67949714D01*
X92061786Y-67949714D02*
X92137976Y-67997333D01*
X92518929Y-68616380D02*
X92518929Y-67949714D01*
X92518929Y-67616380D02*
X92480833Y-67664000D01*
X92480833Y-67664000D02*
X92518929Y-67711619D01*
X92518929Y-67711619D02*
X92557024Y-67664000D01*
X92557024Y-67664000D02*
X92518929Y-67616380D01*
X92518929Y-67616380D02*
X92518929Y-67711619D01*
X93242738Y-67949714D02*
X93242738Y-68759238D01*
X93242738Y-68759238D02*
X93204643Y-68854476D01*
X93204643Y-68854476D02*
X93166547Y-68902095D01*
X93166547Y-68902095D02*
X93090357Y-68949714D01*
X93090357Y-68949714D02*
X92976071Y-68949714D01*
X92976071Y-68949714D02*
X92899881Y-68902095D01*
X93242738Y-68568761D02*
X93166547Y-68616380D01*
X93166547Y-68616380D02*
X93014166Y-68616380D01*
X93014166Y-68616380D02*
X92937976Y-68568761D01*
X92937976Y-68568761D02*
X92899881Y-68521142D01*
X92899881Y-68521142D02*
X92861785Y-68425904D01*
X92861785Y-68425904D02*
X92861785Y-68140190D01*
X92861785Y-68140190D02*
X92899881Y-68044952D01*
X92899881Y-68044952D02*
X92937976Y-67997333D01*
X92937976Y-67997333D02*
X93014166Y-67949714D01*
X93014166Y-67949714D02*
X93166547Y-67949714D01*
X93166547Y-67949714D02*
X93242738Y-67997333D01*
X93623691Y-67949714D02*
X93623691Y-68616380D01*
X93623691Y-68044952D02*
X93661786Y-67997333D01*
X93661786Y-67997333D02*
X93737976Y-67949714D01*
X93737976Y-67949714D02*
X93852262Y-67949714D01*
X93852262Y-67949714D02*
X93928453Y-67997333D01*
X93928453Y-67997333D02*
X93966548Y-68092571D01*
X93966548Y-68092571D02*
X93966548Y-68616380D01*
X94652263Y-68568761D02*
X94576072Y-68616380D01*
X94576072Y-68616380D02*
X94423691Y-68616380D01*
X94423691Y-68616380D02*
X94347501Y-68568761D01*
X94347501Y-68568761D02*
X94309405Y-68473523D01*
X94309405Y-68473523D02*
X94309405Y-68092571D01*
X94309405Y-68092571D02*
X94347501Y-67997333D01*
X94347501Y-67997333D02*
X94423691Y-67949714D01*
X94423691Y-67949714D02*
X94576072Y-67949714D01*
X94576072Y-67949714D02*
X94652263Y-67997333D01*
X94652263Y-67997333D02*
X94690358Y-68092571D01*
X94690358Y-68092571D02*
X94690358Y-68187809D01*
X94690358Y-68187809D02*
X94309405Y-68283047D01*
X95376072Y-68616380D02*
X95376072Y-67616380D01*
X95376072Y-68568761D02*
X95299881Y-68616380D01*
X95299881Y-68616380D02*
X95147500Y-68616380D01*
X95147500Y-68616380D02*
X95071310Y-68568761D01*
X95071310Y-68568761D02*
X95033215Y-68521142D01*
X95033215Y-68521142D02*
X94995119Y-68425904D01*
X94995119Y-68425904D02*
X94995119Y-68140190D01*
X94995119Y-68140190D02*
X95033215Y-68044952D01*
X95033215Y-68044952D02*
X95071310Y-67997333D01*
X95071310Y-67997333D02*
X95147500Y-67949714D01*
X95147500Y-67949714D02*
X95299881Y-67949714D01*
X95299881Y-67949714D02*
X95376072Y-67997333D01*
X96237025Y-68616380D02*
X96237025Y-67616380D01*
X96237025Y-67997333D02*
X96313215Y-67949714D01*
X96313215Y-67949714D02*
X96465596Y-67949714D01*
X96465596Y-67949714D02*
X96541787Y-67997333D01*
X96541787Y-67997333D02*
X96579882Y-68044952D01*
X96579882Y-68044952D02*
X96617977Y-68140190D01*
X96617977Y-68140190D02*
X96617977Y-68425904D01*
X96617977Y-68425904D02*
X96579882Y-68521142D01*
X96579882Y-68521142D02*
X96541787Y-68568761D01*
X96541787Y-68568761D02*
X96465596Y-68616380D01*
X96465596Y-68616380D02*
X96313215Y-68616380D01*
X96313215Y-68616380D02*
X96237025Y-68568761D01*
X96884644Y-67949714D02*
X97075120Y-68616380D01*
X97265597Y-67949714D02*
X97075120Y-68616380D01*
X97075120Y-68616380D02*
X96998930Y-68854476D01*
X96998930Y-68854476D02*
X96960835Y-68902095D01*
X96960835Y-68902095D02*
X96884644Y-68949714D01*
X98012263Y-68568761D02*
X98088454Y-68616380D01*
X98088454Y-68616380D02*
X98240835Y-68616380D01*
X98240835Y-68616380D02*
X98317025Y-68568761D01*
X98317025Y-68568761D02*
X98355121Y-68473523D01*
X98355121Y-68473523D02*
X98355121Y-68425904D01*
X98355121Y-68425904D02*
X98317025Y-68330666D01*
X98317025Y-68330666D02*
X98240835Y-68283047D01*
X98240835Y-68283047D02*
X98126549Y-68283047D01*
X98126549Y-68283047D02*
X98050359Y-68235428D01*
X98050359Y-68235428D02*
X98012263Y-68140190D01*
X98012263Y-68140190D02*
X98012263Y-68092571D01*
X98012263Y-68092571D02*
X98050359Y-67997333D01*
X98050359Y-67997333D02*
X98126549Y-67949714D01*
X98126549Y-67949714D02*
X98240835Y-67949714D01*
X98240835Y-67949714D02*
X98317025Y-67997333D01*
X99040835Y-67949714D02*
X99040835Y-68616380D01*
X98697978Y-67949714D02*
X98697978Y-68473523D01*
X98697978Y-68473523D02*
X98736073Y-68568761D01*
X98736073Y-68568761D02*
X98812263Y-68616380D01*
X98812263Y-68616380D02*
X98926549Y-68616380D01*
X98926549Y-68616380D02*
X99002740Y-68568761D01*
X99002740Y-68568761D02*
X99040835Y-68521142D01*
X99421788Y-67949714D02*
X99421788Y-68949714D01*
X99421788Y-67997333D02*
X99497978Y-67949714D01*
X99497978Y-67949714D02*
X99650359Y-67949714D01*
X99650359Y-67949714D02*
X99726550Y-67997333D01*
X99726550Y-67997333D02*
X99764645Y-68044952D01*
X99764645Y-68044952D02*
X99802740Y-68140190D01*
X99802740Y-68140190D02*
X99802740Y-68425904D01*
X99802740Y-68425904D02*
X99764645Y-68521142D01*
X99764645Y-68521142D02*
X99726550Y-68568761D01*
X99726550Y-68568761D02*
X99650359Y-68616380D01*
X99650359Y-68616380D02*
X99497978Y-68616380D01*
X99497978Y-68616380D02*
X99421788Y-68568761D01*
X100450360Y-68568761D02*
X100374169Y-68616380D01*
X100374169Y-68616380D02*
X100221788Y-68616380D01*
X100221788Y-68616380D02*
X100145598Y-68568761D01*
X100145598Y-68568761D02*
X100107502Y-68473523D01*
X100107502Y-68473523D02*
X100107502Y-68092571D01*
X100107502Y-68092571D02*
X100145598Y-67997333D01*
X100145598Y-67997333D02*
X100221788Y-67949714D01*
X100221788Y-67949714D02*
X100374169Y-67949714D01*
X100374169Y-67949714D02*
X100450360Y-67997333D01*
X100450360Y-67997333D02*
X100488455Y-68092571D01*
X100488455Y-68092571D02*
X100488455Y-68187809D01*
X100488455Y-68187809D02*
X100107502Y-68283047D01*
X100831312Y-68616380D02*
X100831312Y-67949714D01*
X100831312Y-68140190D02*
X100869407Y-68044952D01*
X100869407Y-68044952D02*
X100907502Y-67997333D01*
X100907502Y-67997333D02*
X100983693Y-67949714D01*
X100983693Y-67949714D02*
X101059883Y-67949714D01*
X101288454Y-68568761D02*
X101364645Y-68616380D01*
X101364645Y-68616380D02*
X101517026Y-68616380D01*
X101517026Y-68616380D02*
X101593216Y-68568761D01*
X101593216Y-68568761D02*
X101631312Y-68473523D01*
X101631312Y-68473523D02*
X101631312Y-68425904D01*
X101631312Y-68425904D02*
X101593216Y-68330666D01*
X101593216Y-68330666D02*
X101517026Y-68283047D01*
X101517026Y-68283047D02*
X101402740Y-68283047D01*
X101402740Y-68283047D02*
X101326550Y-68235428D01*
X101326550Y-68235428D02*
X101288454Y-68140190D01*
X101288454Y-68140190D02*
X101288454Y-68092571D01*
X101288454Y-68092571D02*
X101326550Y-67997333D01*
X101326550Y-67997333D02*
X101402740Y-67949714D01*
X101402740Y-67949714D02*
X101517026Y-67949714D01*
X101517026Y-67949714D02*
X101593216Y-67997333D01*
X102126550Y-67616380D02*
X102202740Y-67616380D01*
X102202740Y-67616380D02*
X102278931Y-67664000D01*
X102278931Y-67664000D02*
X102317026Y-67711619D01*
X102317026Y-67711619D02*
X102355121Y-67806857D01*
X102355121Y-67806857D02*
X102393216Y-67997333D01*
X102393216Y-67997333D02*
X102393216Y-68235428D01*
X102393216Y-68235428D02*
X102355121Y-68425904D01*
X102355121Y-68425904D02*
X102317026Y-68521142D01*
X102317026Y-68521142D02*
X102278931Y-68568761D01*
X102278931Y-68568761D02*
X102202740Y-68616380D01*
X102202740Y-68616380D02*
X102126550Y-68616380D01*
X102126550Y-68616380D02*
X102050359Y-68568761D01*
X102050359Y-68568761D02*
X102012264Y-68521142D01*
X102012264Y-68521142D02*
X101974169Y-68425904D01*
X101974169Y-68425904D02*
X101936073Y-68235428D01*
X101936073Y-68235428D02*
X101936073Y-67997333D01*
X101936073Y-67997333D02*
X101974169Y-67806857D01*
X101974169Y-67806857D02*
X102012264Y-67711619D01*
X102012264Y-67711619D02*
X102050359Y-67664000D01*
X102050359Y-67664000D02*
X102126550Y-67616380D01*
X102697978Y-67711619D02*
X102736074Y-67664000D01*
X102736074Y-67664000D02*
X102812264Y-67616380D01*
X102812264Y-67616380D02*
X103002740Y-67616380D01*
X103002740Y-67616380D02*
X103078931Y-67664000D01*
X103078931Y-67664000D02*
X103117026Y-67711619D01*
X103117026Y-67711619D02*
X103155121Y-67806857D01*
X103155121Y-67806857D02*
X103155121Y-67902095D01*
X103155121Y-67902095D02*
X103117026Y-68044952D01*
X103117026Y-68044952D02*
X102659883Y-68616380D01*
X102659883Y-68616380D02*
X103155121Y-68616380D01*
D11*
X178228571Y-116146190D02*
X178228571Y-116622380D01*
X177895238Y-115622380D02*
X178228571Y-116146190D01*
X178228571Y-116146190D02*
X178561904Y-115622380D01*
X179038095Y-116622380D02*
X178942857Y-116574761D01*
X178942857Y-116574761D02*
X178895238Y-116527142D01*
X178895238Y-116527142D02*
X178847619Y-116431904D01*
X178847619Y-116431904D02*
X178847619Y-116146190D01*
X178847619Y-116146190D02*
X178895238Y-116050952D01*
X178895238Y-116050952D02*
X178942857Y-116003333D01*
X178942857Y-116003333D02*
X179038095Y-115955714D01*
X179038095Y-115955714D02*
X179180952Y-115955714D01*
X179180952Y-115955714D02*
X179276190Y-116003333D01*
X179276190Y-116003333D02*
X179323809Y-116050952D01*
X179323809Y-116050952D02*
X179371428Y-116146190D01*
X179371428Y-116146190D02*
X179371428Y-116431904D01*
X179371428Y-116431904D02*
X179323809Y-116527142D01*
X179323809Y-116527142D02*
X179276190Y-116574761D01*
X179276190Y-116574761D02*
X179180952Y-116622380D01*
X179180952Y-116622380D02*
X179038095Y-116622380D01*
X180228571Y-115955714D02*
X180228571Y-116622380D01*
X179800000Y-115955714D02*
X179800000Y-116479523D01*
X179800000Y-116479523D02*
X179847619Y-116574761D01*
X179847619Y-116574761D02*
X179942857Y-116622380D01*
X179942857Y-116622380D02*
X180085714Y-116622380D01*
X180085714Y-116622380D02*
X180180952Y-116574761D01*
X180180952Y-116574761D02*
X180228571Y-116527142D01*
X180704762Y-115955714D02*
X180704762Y-116622380D01*
X180704762Y-116050952D02*
X180752381Y-116003333D01*
X180752381Y-116003333D02*
X180847619Y-115955714D01*
X180847619Y-115955714D02*
X180990476Y-115955714D01*
X180990476Y-115955714D02*
X181085714Y-116003333D01*
X181085714Y-116003333D02*
X181133333Y-116098571D01*
X181133333Y-116098571D02*
X181133333Y-116622380D01*
X182038095Y-115955714D02*
X182038095Y-116765238D01*
X182038095Y-116765238D02*
X181990476Y-116860476D01*
X181990476Y-116860476D02*
X181942857Y-116908095D01*
X181942857Y-116908095D02*
X181847619Y-116955714D01*
X181847619Y-116955714D02*
X181704762Y-116955714D01*
X181704762Y-116955714D02*
X181609524Y-116908095D01*
X182038095Y-116574761D02*
X181942857Y-116622380D01*
X181942857Y-116622380D02*
X181752381Y-116622380D01*
X181752381Y-116622380D02*
X181657143Y-116574761D01*
X181657143Y-116574761D02*
X181609524Y-116527142D01*
X181609524Y-116527142D02*
X181561905Y-116431904D01*
X181561905Y-116431904D02*
X181561905Y-116146190D01*
X181561905Y-116146190D02*
X181609524Y-116050952D01*
X181609524Y-116050952D02*
X181657143Y-116003333D01*
X181657143Y-116003333D02*
X181752381Y-115955714D01*
X181752381Y-115955714D02*
X181942857Y-115955714D01*
X181942857Y-115955714D02*
X182038095Y-116003333D01*
X182514286Y-116622380D02*
X182514286Y-115622380D01*
X182609524Y-116241428D02*
X182895238Y-116622380D01*
X182895238Y-115955714D02*
X182514286Y-116336666D01*
X183323810Y-116622380D02*
X183323810Y-115955714D01*
X183323810Y-115622380D02*
X183276191Y-115670000D01*
X183276191Y-115670000D02*
X183323810Y-115717619D01*
X183323810Y-115717619D02*
X183371429Y-115670000D01*
X183371429Y-115670000D02*
X183323810Y-115622380D01*
X183323810Y-115622380D02*
X183323810Y-115717619D01*
X184400000Y-116622380D02*
X184400000Y-115622380D01*
X184400000Y-115622380D02*
X184780952Y-115622380D01*
X184780952Y-115622380D02*
X184876190Y-115670000D01*
X184876190Y-115670000D02*
X184923809Y-115717619D01*
X184923809Y-115717619D02*
X184971428Y-115812857D01*
X184971428Y-115812857D02*
X184971428Y-115955714D01*
X184971428Y-115955714D02*
X184923809Y-116050952D01*
X184923809Y-116050952D02*
X184876190Y-116098571D01*
X184876190Y-116098571D02*
X184780952Y-116146190D01*
X184780952Y-116146190D02*
X184400000Y-116146190D01*
X185828571Y-116622380D02*
X185828571Y-116098571D01*
X185828571Y-116098571D02*
X185780952Y-116003333D01*
X185780952Y-116003333D02*
X185685714Y-115955714D01*
X185685714Y-115955714D02*
X185495238Y-115955714D01*
X185495238Y-115955714D02*
X185400000Y-116003333D01*
X185828571Y-116574761D02*
X185733333Y-116622380D01*
X185733333Y-116622380D02*
X185495238Y-116622380D01*
X185495238Y-116622380D02*
X185400000Y-116574761D01*
X185400000Y-116574761D02*
X185352381Y-116479523D01*
X185352381Y-116479523D02*
X185352381Y-116384285D01*
X185352381Y-116384285D02*
X185400000Y-116289047D01*
X185400000Y-116289047D02*
X185495238Y-116241428D01*
X185495238Y-116241428D02*
X185733333Y-116241428D01*
X185733333Y-116241428D02*
X185828571Y-116193809D01*
X186304762Y-116622380D02*
X186304762Y-115955714D01*
X186304762Y-116146190D02*
X186352381Y-116050952D01*
X186352381Y-116050952D02*
X186400000Y-116003333D01*
X186400000Y-116003333D02*
X186495238Y-115955714D01*
X186495238Y-115955714D02*
X186590476Y-115955714D01*
X186923810Y-116622380D02*
X186923810Y-115622380D01*
X187019048Y-116241428D02*
X187304762Y-116622380D01*
X187304762Y-115955714D02*
X186923810Y-116336666D01*
%TO.C,R4*%
X100321962Y-88900589D02*
X99845772Y-89233922D01*
X100321962Y-89472017D02*
X99321962Y-89472017D01*
X99321962Y-89472017D02*
X99321962Y-89091065D01*
X99321962Y-89091065D02*
X99369582Y-88995827D01*
X99369582Y-88995827D02*
X99417201Y-88948208D01*
X99417201Y-88948208D02*
X99512439Y-88900589D01*
X99512439Y-88900589D02*
X99655296Y-88900589D01*
X99655296Y-88900589D02*
X99750534Y-88948208D01*
X99750534Y-88948208D02*
X99798153Y-88995827D01*
X99798153Y-88995827D02*
X99845772Y-89091065D01*
X99845772Y-89091065D02*
X99845772Y-89472017D01*
X99655296Y-88043446D02*
X100321962Y-88043446D01*
X99274343Y-88281541D02*
X99988629Y-88519636D01*
X99988629Y-88519636D02*
X99988629Y-87900589D01*
X102069183Y-89577862D02*
X102735849Y-89577862D01*
X101688230Y-89815957D02*
X102402516Y-90054052D01*
X102402516Y-90054052D02*
X102402516Y-89435005D01*
X101735849Y-89149290D02*
X101735849Y-88482624D01*
X101735849Y-88482624D02*
X102735849Y-88911195D01*
X101735849Y-87911195D02*
X101735849Y-87815957D01*
X101735849Y-87815957D02*
X101783469Y-87720719D01*
X101783469Y-87720719D02*
X101831088Y-87673100D01*
X101831088Y-87673100D02*
X101926326Y-87625481D01*
X101926326Y-87625481D02*
X102116802Y-87577862D01*
X102116802Y-87577862D02*
X102354897Y-87577862D01*
X102354897Y-87577862D02*
X102545373Y-87625481D01*
X102545373Y-87625481D02*
X102640611Y-87673100D01*
X102640611Y-87673100D02*
X102688230Y-87720719D01*
X102688230Y-87720719D02*
X102735849Y-87815957D01*
X102735849Y-87815957D02*
X102735849Y-87911195D01*
X102735849Y-87911195D02*
X102688230Y-88006433D01*
X102688230Y-88006433D02*
X102640611Y-88054052D01*
X102640611Y-88054052D02*
X102545373Y-88101671D01*
X102545373Y-88101671D02*
X102354897Y-88149290D01*
X102354897Y-88149290D02*
X102116802Y-88149290D01*
X102116802Y-88149290D02*
X101926326Y-88101671D01*
X101926326Y-88101671D02*
X101831088Y-88054052D01*
X101831088Y-88054052D02*
X101783469Y-88006433D01*
X101783469Y-88006433D02*
X101735849Y-87911195D01*
%TO.C,U2*%
X143751820Y-99700397D02*
X144561344Y-99700397D01*
X144561344Y-99700397D02*
X144656582Y-99652778D01*
X144656582Y-99652778D02*
X144704201Y-99605159D01*
X144704201Y-99605159D02*
X144751820Y-99509921D01*
X144751820Y-99509921D02*
X144751820Y-99319445D01*
X144751820Y-99319445D02*
X144704201Y-99224207D01*
X144704201Y-99224207D02*
X144656582Y-99176588D01*
X144656582Y-99176588D02*
X144561344Y-99128969D01*
X144561344Y-99128969D02*
X143751820Y-99128969D01*
X143847059Y-98700397D02*
X143799440Y-98652778D01*
X143799440Y-98652778D02*
X143751820Y-98557540D01*
X143751820Y-98557540D02*
X143751820Y-98319445D01*
X143751820Y-98319445D02*
X143799440Y-98224207D01*
X143799440Y-98224207D02*
X143847059Y-98176588D01*
X143847059Y-98176588D02*
X143942297Y-98128969D01*
X143942297Y-98128969D02*
X144037535Y-98128969D01*
X144037535Y-98128969D02*
X144180392Y-98176588D01*
X144180392Y-98176588D02*
X144751820Y-98748016D01*
X144751820Y-98748016D02*
X144751820Y-98128969D01*
X187464201Y-103319445D02*
X187511820Y-103176588D01*
X187511820Y-103176588D02*
X187511820Y-102938493D01*
X187511820Y-102938493D02*
X187464201Y-102843255D01*
X187464201Y-102843255D02*
X187416582Y-102795636D01*
X187416582Y-102795636D02*
X187321344Y-102748017D01*
X187321344Y-102748017D02*
X187226106Y-102748017D01*
X187226106Y-102748017D02*
X187130868Y-102795636D01*
X187130868Y-102795636D02*
X187083249Y-102843255D01*
X187083249Y-102843255D02*
X187035630Y-102938493D01*
X187035630Y-102938493D02*
X186988011Y-103128969D01*
X186988011Y-103128969D02*
X186940392Y-103224207D01*
X186940392Y-103224207D02*
X186892773Y-103271826D01*
X186892773Y-103271826D02*
X186797535Y-103319445D01*
X186797535Y-103319445D02*
X186702297Y-103319445D01*
X186702297Y-103319445D02*
X186607059Y-103271826D01*
X186607059Y-103271826D02*
X186559440Y-103224207D01*
X186559440Y-103224207D02*
X186511820Y-103128969D01*
X186511820Y-103128969D02*
X186511820Y-102890874D01*
X186511820Y-102890874D02*
X186559440Y-102748017D01*
X187464201Y-102367064D02*
X187511820Y-102224207D01*
X187511820Y-102224207D02*
X187511820Y-101986112D01*
X187511820Y-101986112D02*
X187464201Y-101890874D01*
X187464201Y-101890874D02*
X187416582Y-101843255D01*
X187416582Y-101843255D02*
X187321344Y-101795636D01*
X187321344Y-101795636D02*
X187226106Y-101795636D01*
X187226106Y-101795636D02*
X187130868Y-101843255D01*
X187130868Y-101843255D02*
X187083249Y-101890874D01*
X187083249Y-101890874D02*
X187035630Y-101986112D01*
X187035630Y-101986112D02*
X186988011Y-102176588D01*
X186988011Y-102176588D02*
X186940392Y-102271826D01*
X186940392Y-102271826D02*
X186892773Y-102319445D01*
X186892773Y-102319445D02*
X186797535Y-102367064D01*
X186797535Y-102367064D02*
X186702297Y-102367064D01*
X186702297Y-102367064D02*
X186607059Y-102319445D01*
X186607059Y-102319445D02*
X186559440Y-102271826D01*
X186559440Y-102271826D02*
X186511820Y-102176588D01*
X186511820Y-102176588D02*
X186511820Y-101938493D01*
X186511820Y-101938493D02*
X186559440Y-101795636D01*
X186511820Y-101509921D02*
X186511820Y-100938493D01*
X187511820Y-101224207D02*
X186511820Y-101224207D01*
X186607059Y-100652778D02*
X186559440Y-100605159D01*
X186559440Y-100605159D02*
X186511820Y-100509921D01*
X186511820Y-100509921D02*
X186511820Y-100271826D01*
X186511820Y-100271826D02*
X186559440Y-100176588D01*
X186559440Y-100176588D02*
X186607059Y-100128969D01*
X186607059Y-100128969D02*
X186702297Y-100081350D01*
X186702297Y-100081350D02*
X186797535Y-100081350D01*
X186797535Y-100081350D02*
X186940392Y-100128969D01*
X186940392Y-100128969D02*
X187511820Y-100700397D01*
X187511820Y-100700397D02*
X187511820Y-100081350D01*
X186511820Y-99748016D02*
X186511820Y-99081350D01*
X186511820Y-99081350D02*
X187511820Y-99509921D01*
X187464201Y-98748016D02*
X187511820Y-98605159D01*
X187511820Y-98605159D02*
X187511820Y-98367064D01*
X187511820Y-98367064D02*
X187464201Y-98271826D01*
X187464201Y-98271826D02*
X187416582Y-98224207D01*
X187416582Y-98224207D02*
X187321344Y-98176588D01*
X187321344Y-98176588D02*
X187226106Y-98176588D01*
X187226106Y-98176588D02*
X187130868Y-98224207D01*
X187130868Y-98224207D02*
X187083249Y-98271826D01*
X187083249Y-98271826D02*
X187035630Y-98367064D01*
X187035630Y-98367064D02*
X186988011Y-98557540D01*
X186988011Y-98557540D02*
X186940392Y-98652778D01*
X186940392Y-98652778D02*
X186892773Y-98700397D01*
X186892773Y-98700397D02*
X186797535Y-98748016D01*
X186797535Y-98748016D02*
X186702297Y-98748016D01*
X186702297Y-98748016D02*
X186607059Y-98700397D01*
X186607059Y-98700397D02*
X186559440Y-98652778D01*
X186559440Y-98652778D02*
X186511820Y-98557540D01*
X186511820Y-98557540D02*
X186511820Y-98319445D01*
X186511820Y-98319445D02*
X186559440Y-98176588D01*
X186511820Y-97890873D02*
X186511820Y-97319445D01*
X187511820Y-97605159D02*
X186511820Y-97605159D01*
X186511820Y-96795635D02*
X186511820Y-96700397D01*
X186511820Y-96700397D02*
X186559440Y-96605159D01*
X186559440Y-96605159D02*
X186607059Y-96557540D01*
X186607059Y-96557540D02*
X186702297Y-96509921D01*
X186702297Y-96509921D02*
X186892773Y-96462302D01*
X186892773Y-96462302D02*
X187130868Y-96462302D01*
X187130868Y-96462302D02*
X187321344Y-96509921D01*
X187321344Y-96509921D02*
X187416582Y-96557540D01*
X187416582Y-96557540D02*
X187464201Y-96605159D01*
X187464201Y-96605159D02*
X187511820Y-96700397D01*
X187511820Y-96700397D02*
X187511820Y-96795635D01*
X187511820Y-96795635D02*
X187464201Y-96890873D01*
X187464201Y-96890873D02*
X187416582Y-96938492D01*
X187416582Y-96938492D02*
X187321344Y-96986111D01*
X187321344Y-96986111D02*
X187130868Y-97033730D01*
X187130868Y-97033730D02*
X186892773Y-97033730D01*
X186892773Y-97033730D02*
X186702297Y-96986111D01*
X186702297Y-96986111D02*
X186607059Y-96938492D01*
X186607059Y-96938492D02*
X186559440Y-96890873D01*
X186559440Y-96890873D02*
X186511820Y-96795635D01*
X186607059Y-96081349D02*
X186559440Y-96033730D01*
X186559440Y-96033730D02*
X186511820Y-95938492D01*
X186511820Y-95938492D02*
X186511820Y-95700397D01*
X186511820Y-95700397D02*
X186559440Y-95605159D01*
X186559440Y-95605159D02*
X186607059Y-95557540D01*
X186607059Y-95557540D02*
X186702297Y-95509921D01*
X186702297Y-95509921D02*
X186797535Y-95509921D01*
X186797535Y-95509921D02*
X186940392Y-95557540D01*
X186940392Y-95557540D02*
X187511820Y-96128968D01*
X187511820Y-96128968D02*
X187511820Y-95509921D01*
X186511820Y-94890873D02*
X186511820Y-94795635D01*
X186511820Y-94795635D02*
X186559440Y-94700397D01*
X186559440Y-94700397D02*
X186607059Y-94652778D01*
X186607059Y-94652778D02*
X186702297Y-94605159D01*
X186702297Y-94605159D02*
X186892773Y-94557540D01*
X186892773Y-94557540D02*
X187130868Y-94557540D01*
X187130868Y-94557540D02*
X187321344Y-94605159D01*
X187321344Y-94605159D02*
X187416582Y-94652778D01*
X187416582Y-94652778D02*
X187464201Y-94700397D01*
X187464201Y-94700397D02*
X187511820Y-94795635D01*
X187511820Y-94795635D02*
X187511820Y-94890873D01*
X187511820Y-94890873D02*
X187464201Y-94986111D01*
X187464201Y-94986111D02*
X187416582Y-95033730D01*
X187416582Y-95033730D02*
X187321344Y-95081349D01*
X187321344Y-95081349D02*
X187130868Y-95128968D01*
X187130868Y-95128968D02*
X186892773Y-95128968D01*
X186892773Y-95128968D02*
X186702297Y-95081349D01*
X186702297Y-95081349D02*
X186607059Y-95033730D01*
X186607059Y-95033730D02*
X186559440Y-94986111D01*
X186559440Y-94986111D02*
X186511820Y-94890873D01*
%TO.C,U6*%
X103738160Y-68829401D02*
X103738160Y-69638925D01*
X103738160Y-69638925D02*
X103785779Y-69734163D01*
X103785779Y-69734163D02*
X103833398Y-69781782D01*
X103833398Y-69781782D02*
X103928636Y-69829401D01*
X103928636Y-69829401D02*
X104119112Y-69829401D01*
X104119112Y-69829401D02*
X104214350Y-69781782D01*
X104214350Y-69781782D02*
X104261969Y-69734163D01*
X104261969Y-69734163D02*
X104309588Y-69638925D01*
X104309588Y-69638925D02*
X104309588Y-68829401D01*
X105214350Y-68829401D02*
X105023874Y-68829401D01*
X105023874Y-68829401D02*
X104928636Y-68877021D01*
X104928636Y-68877021D02*
X104881017Y-68924640D01*
X104881017Y-68924640D02*
X104785779Y-69067497D01*
X104785779Y-69067497D02*
X104738160Y-69257973D01*
X104738160Y-69257973D02*
X104738160Y-69638925D01*
X104738160Y-69638925D02*
X104785779Y-69734163D01*
X104785779Y-69734163D02*
X104833398Y-69781782D01*
X104833398Y-69781782D02*
X104928636Y-69829401D01*
X104928636Y-69829401D02*
X105119112Y-69829401D01*
X105119112Y-69829401D02*
X105214350Y-69781782D01*
X105214350Y-69781782D02*
X105261969Y-69734163D01*
X105261969Y-69734163D02*
X105309588Y-69638925D01*
X105309588Y-69638925D02*
X105309588Y-69400830D01*
X105309588Y-69400830D02*
X105261969Y-69305592D01*
X105261969Y-69305592D02*
X105214350Y-69257973D01*
X105214350Y-69257973D02*
X105119112Y-69210354D01*
X105119112Y-69210354D02*
X104928636Y-69210354D01*
X104928636Y-69210354D02*
X104833398Y-69257973D01*
X104833398Y-69257973D02*
X104785779Y-69305592D01*
X104785779Y-69305592D02*
X104738160Y-69400830D01*
X105194671Y-91569940D02*
X105861337Y-91569940D01*
X105861337Y-91569940D02*
X105432766Y-92569940D01*
X106670861Y-91903274D02*
X106670861Y-92569940D01*
X106432766Y-91522321D02*
X106194671Y-92236607D01*
X106194671Y-92236607D02*
X106813718Y-92236607D01*
X107670861Y-92569940D02*
X107194671Y-92569940D01*
X107194671Y-92569940D02*
X107194671Y-91569940D01*
X107956576Y-92522321D02*
X108099433Y-92569940D01*
X108099433Y-92569940D02*
X108337528Y-92569940D01*
X108337528Y-92569940D02*
X108432766Y-92522321D01*
X108432766Y-92522321D02*
X108480385Y-92474702D01*
X108480385Y-92474702D02*
X108528004Y-92379464D01*
X108528004Y-92379464D02*
X108528004Y-92284226D01*
X108528004Y-92284226D02*
X108480385Y-92188988D01*
X108480385Y-92188988D02*
X108432766Y-92141369D01*
X108432766Y-92141369D02*
X108337528Y-92093750D01*
X108337528Y-92093750D02*
X108147052Y-92046131D01*
X108147052Y-92046131D02*
X108051814Y-91998512D01*
X108051814Y-91998512D02*
X108004195Y-91950893D01*
X108004195Y-91950893D02*
X107956576Y-91855655D01*
X107956576Y-91855655D02*
X107956576Y-91760417D01*
X107956576Y-91760417D02*
X108004195Y-91665179D01*
X108004195Y-91665179D02*
X108051814Y-91617560D01*
X108051814Y-91617560D02*
X108147052Y-91569940D01*
X108147052Y-91569940D02*
X108385147Y-91569940D01*
X108385147Y-91569940D02*
X108528004Y-91617560D01*
X109385147Y-91569940D02*
X109194671Y-91569940D01*
X109194671Y-91569940D02*
X109099433Y-91617560D01*
X109099433Y-91617560D02*
X109051814Y-91665179D01*
X109051814Y-91665179D02*
X108956576Y-91808036D01*
X108956576Y-91808036D02*
X108908957Y-91998512D01*
X108908957Y-91998512D02*
X108908957Y-92379464D01*
X108908957Y-92379464D02*
X108956576Y-92474702D01*
X108956576Y-92474702D02*
X109004195Y-92522321D01*
X109004195Y-92522321D02*
X109099433Y-92569940D01*
X109099433Y-92569940D02*
X109289909Y-92569940D01*
X109289909Y-92569940D02*
X109385147Y-92522321D01*
X109385147Y-92522321D02*
X109432766Y-92474702D01*
X109432766Y-92474702D02*
X109480385Y-92379464D01*
X109480385Y-92379464D02*
X109480385Y-92141369D01*
X109480385Y-92141369D02*
X109432766Y-92046131D01*
X109432766Y-92046131D02*
X109385147Y-91998512D01*
X109385147Y-91998512D02*
X109289909Y-91950893D01*
X109289909Y-91950893D02*
X109099433Y-91950893D01*
X109099433Y-91950893D02*
X109004195Y-91998512D01*
X109004195Y-91998512D02*
X108956576Y-92046131D01*
X108956576Y-92046131D02*
X108908957Y-92141369D01*
X109813719Y-91569940D02*
X110480385Y-91569940D01*
X110480385Y-91569940D02*
X110051814Y-92569940D01*
X111051814Y-91569940D02*
X111147052Y-91569940D01*
X111147052Y-91569940D02*
X111242290Y-91617560D01*
X111242290Y-91617560D02*
X111289909Y-91665179D01*
X111289909Y-91665179D02*
X111337528Y-91760417D01*
X111337528Y-91760417D02*
X111385147Y-91950893D01*
X111385147Y-91950893D02*
X111385147Y-92188988D01*
X111385147Y-92188988D02*
X111337528Y-92379464D01*
X111337528Y-92379464D02*
X111289909Y-92474702D01*
X111289909Y-92474702D02*
X111242290Y-92522321D01*
X111242290Y-92522321D02*
X111147052Y-92569940D01*
X111147052Y-92569940D02*
X111051814Y-92569940D01*
X111051814Y-92569940D02*
X110956576Y-92522321D01*
X110956576Y-92522321D02*
X110908957Y-92474702D01*
X110908957Y-92474702D02*
X110861338Y-92379464D01*
X110861338Y-92379464D02*
X110813719Y-92188988D01*
X110813719Y-92188988D02*
X110813719Y-91950893D01*
X110813719Y-91950893D02*
X110861338Y-91760417D01*
X110861338Y-91760417D02*
X110908957Y-91665179D01*
X110908957Y-91665179D02*
X110956576Y-91617560D01*
X110956576Y-91617560D02*
X111051814Y-91569940D01*
%TO.C,U4*%
X116078095Y-68936953D02*
X116078095Y-69746477D01*
X116078095Y-69746477D02*
X116125714Y-69841715D01*
X116125714Y-69841715D02*
X116173333Y-69889334D01*
X116173333Y-69889334D02*
X116268571Y-69936953D01*
X116268571Y-69936953D02*
X116459047Y-69936953D01*
X116459047Y-69936953D02*
X116554285Y-69889334D01*
X116554285Y-69889334D02*
X116601904Y-69841715D01*
X116601904Y-69841715D02*
X116649523Y-69746477D01*
X116649523Y-69746477D02*
X116649523Y-68936953D01*
X117554285Y-69270287D02*
X117554285Y-69936953D01*
X117316190Y-68889334D02*
X117078095Y-69603620D01*
X117078095Y-69603620D02*
X117697142Y-69603620D01*
X117739654Y-91376953D02*
X118406320Y-91376953D01*
X118406320Y-91376953D02*
X117977749Y-92376953D01*
X119215844Y-91710287D02*
X119215844Y-92376953D01*
X118977749Y-91329334D02*
X118739654Y-92043620D01*
X118739654Y-92043620D02*
X119358701Y-92043620D01*
X120215844Y-92376953D02*
X119739654Y-92376953D01*
X119739654Y-92376953D02*
X119739654Y-91376953D01*
X120501559Y-92329334D02*
X120644416Y-92376953D01*
X120644416Y-92376953D02*
X120882511Y-92376953D01*
X120882511Y-92376953D02*
X120977749Y-92329334D01*
X120977749Y-92329334D02*
X121025368Y-92281715D01*
X121025368Y-92281715D02*
X121072987Y-92186477D01*
X121072987Y-92186477D02*
X121072987Y-92091239D01*
X121072987Y-92091239D02*
X121025368Y-91996001D01*
X121025368Y-91996001D02*
X120977749Y-91948382D01*
X120977749Y-91948382D02*
X120882511Y-91900763D01*
X120882511Y-91900763D02*
X120692035Y-91853144D01*
X120692035Y-91853144D02*
X120596797Y-91805525D01*
X120596797Y-91805525D02*
X120549178Y-91757906D01*
X120549178Y-91757906D02*
X120501559Y-91662668D01*
X120501559Y-91662668D02*
X120501559Y-91567430D01*
X120501559Y-91567430D02*
X120549178Y-91472192D01*
X120549178Y-91472192D02*
X120596797Y-91424573D01*
X120596797Y-91424573D02*
X120692035Y-91376953D01*
X120692035Y-91376953D02*
X120930130Y-91376953D01*
X120930130Y-91376953D02*
X121072987Y-91424573D01*
X121930130Y-91376953D02*
X121739654Y-91376953D01*
X121739654Y-91376953D02*
X121644416Y-91424573D01*
X121644416Y-91424573D02*
X121596797Y-91472192D01*
X121596797Y-91472192D02*
X121501559Y-91615049D01*
X121501559Y-91615049D02*
X121453940Y-91805525D01*
X121453940Y-91805525D02*
X121453940Y-92186477D01*
X121453940Y-92186477D02*
X121501559Y-92281715D01*
X121501559Y-92281715D02*
X121549178Y-92329334D01*
X121549178Y-92329334D02*
X121644416Y-92376953D01*
X121644416Y-92376953D02*
X121834892Y-92376953D01*
X121834892Y-92376953D02*
X121930130Y-92329334D01*
X121930130Y-92329334D02*
X121977749Y-92281715D01*
X121977749Y-92281715D02*
X122025368Y-92186477D01*
X122025368Y-92186477D02*
X122025368Y-91948382D01*
X122025368Y-91948382D02*
X121977749Y-91853144D01*
X121977749Y-91853144D02*
X121930130Y-91805525D01*
X121930130Y-91805525D02*
X121834892Y-91757906D01*
X121834892Y-91757906D02*
X121644416Y-91757906D01*
X121644416Y-91757906D02*
X121549178Y-91805525D01*
X121549178Y-91805525D02*
X121501559Y-91853144D01*
X121501559Y-91853144D02*
X121453940Y-91948382D01*
X122358702Y-91376953D02*
X123025368Y-91376953D01*
X123025368Y-91376953D02*
X122596797Y-92376953D01*
X123596797Y-91376953D02*
X123692035Y-91376953D01*
X123692035Y-91376953D02*
X123787273Y-91424573D01*
X123787273Y-91424573D02*
X123834892Y-91472192D01*
X123834892Y-91472192D02*
X123882511Y-91567430D01*
X123882511Y-91567430D02*
X123930130Y-91757906D01*
X123930130Y-91757906D02*
X123930130Y-91996001D01*
X123930130Y-91996001D02*
X123882511Y-92186477D01*
X123882511Y-92186477D02*
X123834892Y-92281715D01*
X123834892Y-92281715D02*
X123787273Y-92329334D01*
X123787273Y-92329334D02*
X123692035Y-92376953D01*
X123692035Y-92376953D02*
X123596797Y-92376953D01*
X123596797Y-92376953D02*
X123501559Y-92329334D01*
X123501559Y-92329334D02*
X123453940Y-92281715D01*
X123453940Y-92281715D02*
X123406321Y-92186477D01*
X123406321Y-92186477D02*
X123358702Y-91996001D01*
X123358702Y-91996001D02*
X123358702Y-91757906D01*
X123358702Y-91757906D02*
X123406321Y-91567430D01*
X123406321Y-91567430D02*
X123453940Y-91472192D01*
X123453940Y-91472192D02*
X123501559Y-91424573D01*
X123501559Y-91424573D02*
X123596797Y-91376953D01*
%TO.C,C4*%
X108508376Y-116644508D02*
X108460757Y-116692127D01*
X108460757Y-116692127D02*
X108317900Y-116739746D01*
X108317900Y-116739746D02*
X108222662Y-116739746D01*
X108222662Y-116739746D02*
X108079805Y-116692127D01*
X108079805Y-116692127D02*
X107984567Y-116596889D01*
X107984567Y-116596889D02*
X107936948Y-116501651D01*
X107936948Y-116501651D02*
X107889329Y-116311175D01*
X107889329Y-116311175D02*
X107889329Y-116168318D01*
X107889329Y-116168318D02*
X107936948Y-115977842D01*
X107936948Y-115977842D02*
X107984567Y-115882604D01*
X107984567Y-115882604D02*
X108079805Y-115787366D01*
X108079805Y-115787366D02*
X108222662Y-115739746D01*
X108222662Y-115739746D02*
X108317900Y-115739746D01*
X108317900Y-115739746D02*
X108460757Y-115787366D01*
X108460757Y-115787366D02*
X108508376Y-115834985D01*
X109365519Y-116073080D02*
X109365519Y-116739746D01*
X109127424Y-115692127D02*
X108889329Y-116406413D01*
X108889329Y-116406413D02*
X109508376Y-116406413D01*
X107603614Y-109239746D02*
X107032186Y-109239746D01*
X107317900Y-109239746D02*
X107317900Y-108239746D01*
X107317900Y-108239746D02*
X107222662Y-108382604D01*
X107222662Y-108382604D02*
X107127424Y-108477842D01*
X107127424Y-108477842D02*
X107032186Y-108525461D01*
X108222662Y-108239746D02*
X108317900Y-108239746D01*
X108317900Y-108239746D02*
X108413138Y-108287366D01*
X108413138Y-108287366D02*
X108460757Y-108334985D01*
X108460757Y-108334985D02*
X108508376Y-108430223D01*
X108508376Y-108430223D02*
X108555995Y-108620699D01*
X108555995Y-108620699D02*
X108555995Y-108858794D01*
X108555995Y-108858794D02*
X108508376Y-109049270D01*
X108508376Y-109049270D02*
X108460757Y-109144508D01*
X108460757Y-109144508D02*
X108413138Y-109192127D01*
X108413138Y-109192127D02*
X108317900Y-109239746D01*
X108317900Y-109239746D02*
X108222662Y-109239746D01*
X108222662Y-109239746D02*
X108127424Y-109192127D01*
X108127424Y-109192127D02*
X108079805Y-109144508D01*
X108079805Y-109144508D02*
X108032186Y-109049270D01*
X108032186Y-109049270D02*
X107984567Y-108858794D01*
X107984567Y-108858794D02*
X107984567Y-108620699D01*
X107984567Y-108620699D02*
X108032186Y-108430223D01*
X108032186Y-108430223D02*
X108079805Y-108334985D01*
X108079805Y-108334985D02*
X108127424Y-108287366D01*
X108127424Y-108287366D02*
X108222662Y-108239746D01*
X109413138Y-108573080D02*
X109413138Y-109239746D01*
X108984567Y-108573080D02*
X108984567Y-109096889D01*
X108984567Y-109096889D02*
X109032186Y-109192127D01*
X109032186Y-109192127D02*
X109127424Y-109239746D01*
X109127424Y-109239746D02*
X109270281Y-109239746D01*
X109270281Y-109239746D02*
X109365519Y-109192127D01*
X109365519Y-109192127D02*
X109413138Y-109144508D01*
X110222662Y-108715937D02*
X109889329Y-108715937D01*
X109889329Y-109239746D02*
X109889329Y-108239746D01*
X109889329Y-108239746D02*
X110365519Y-108239746D01*
%TO.C,C3*%
X122043618Y-68566043D02*
X121995999Y-68613662D01*
X121995999Y-68613662D02*
X121853142Y-68661281D01*
X121853142Y-68661281D02*
X121757904Y-68661281D01*
X121757904Y-68661281D02*
X121615047Y-68613662D01*
X121615047Y-68613662D02*
X121519809Y-68518424D01*
X121519809Y-68518424D02*
X121472190Y-68423186D01*
X121472190Y-68423186D02*
X121424571Y-68232710D01*
X121424571Y-68232710D02*
X121424571Y-68089853D01*
X121424571Y-68089853D02*
X121472190Y-67899377D01*
X121472190Y-67899377D02*
X121519809Y-67804139D01*
X121519809Y-67804139D02*
X121615047Y-67708901D01*
X121615047Y-67708901D02*
X121757904Y-67661281D01*
X121757904Y-67661281D02*
X121853142Y-67661281D01*
X121853142Y-67661281D02*
X121995999Y-67708901D01*
X121995999Y-67708901D02*
X122043618Y-67756520D01*
X122376952Y-67661281D02*
X122995999Y-67661281D01*
X122995999Y-67661281D02*
X122662666Y-68042234D01*
X122662666Y-68042234D02*
X122805523Y-68042234D01*
X122805523Y-68042234D02*
X122900761Y-68089853D01*
X122900761Y-68089853D02*
X122948380Y-68137472D01*
X122948380Y-68137472D02*
X122995999Y-68232710D01*
X122995999Y-68232710D02*
X122995999Y-68470805D01*
X122995999Y-68470805D02*
X122948380Y-68566043D01*
X122948380Y-68566043D02*
X122900761Y-68613662D01*
X122900761Y-68613662D02*
X122805523Y-68661281D01*
X122805523Y-68661281D02*
X122519809Y-68661281D01*
X122519809Y-68661281D02*
X122424571Y-68613662D01*
X122424571Y-68613662D02*
X122376952Y-68566043D01*
X126112254Y-67671377D02*
X126207492Y-67671377D01*
X126207492Y-67671377D02*
X126302730Y-67718997D01*
X126302730Y-67718997D02*
X126350349Y-67766616D01*
X126350349Y-67766616D02*
X126397968Y-67861854D01*
X126397968Y-67861854D02*
X126445587Y-68052330D01*
X126445587Y-68052330D02*
X126445587Y-68290425D01*
X126445587Y-68290425D02*
X126397968Y-68480901D01*
X126397968Y-68480901D02*
X126350349Y-68576139D01*
X126350349Y-68576139D02*
X126302730Y-68623758D01*
X126302730Y-68623758D02*
X126207492Y-68671377D01*
X126207492Y-68671377D02*
X126112254Y-68671377D01*
X126112254Y-68671377D02*
X126017016Y-68623758D01*
X126017016Y-68623758D02*
X125969397Y-68576139D01*
X125969397Y-68576139D02*
X125921778Y-68480901D01*
X125921778Y-68480901D02*
X125874159Y-68290425D01*
X125874159Y-68290425D02*
X125874159Y-68052330D01*
X125874159Y-68052330D02*
X125921778Y-67861854D01*
X125921778Y-67861854D02*
X125969397Y-67766616D01*
X125969397Y-67766616D02*
X126017016Y-67718997D01*
X126017016Y-67718997D02*
X126112254Y-67671377D01*
X126874159Y-68576139D02*
X126921778Y-68623758D01*
X126921778Y-68623758D02*
X126874159Y-68671377D01*
X126874159Y-68671377D02*
X126826540Y-68623758D01*
X126826540Y-68623758D02*
X126874159Y-68576139D01*
X126874159Y-68576139D02*
X126874159Y-68671377D01*
X127874158Y-68671377D02*
X127302730Y-68671377D01*
X127588444Y-68671377D02*
X127588444Y-67671377D01*
X127588444Y-67671377D02*
X127493206Y-67814235D01*
X127493206Y-67814235D02*
X127397968Y-67909473D01*
X127397968Y-67909473D02*
X127302730Y-67957092D01*
X128731301Y-68004711D02*
X128731301Y-68671377D01*
X128302730Y-68004711D02*
X128302730Y-68528520D01*
X128302730Y-68528520D02*
X128350349Y-68623758D01*
X128350349Y-68623758D02*
X128445587Y-68671377D01*
X128445587Y-68671377D02*
X128588444Y-68671377D01*
X128588444Y-68671377D02*
X128683682Y-68623758D01*
X128683682Y-68623758D02*
X128731301Y-68576139D01*
X129540825Y-68147568D02*
X129207492Y-68147568D01*
X129207492Y-68671377D02*
X129207492Y-67671377D01*
X129207492Y-67671377D02*
X129683682Y-67671377D01*
%TO.C,C6*%
X137432142Y-100686486D02*
X137479761Y-100734105D01*
X137479761Y-100734105D02*
X137527380Y-100876962D01*
X137527380Y-100876962D02*
X137527380Y-100972200D01*
X137527380Y-100972200D02*
X137479761Y-101115057D01*
X137479761Y-101115057D02*
X137384523Y-101210295D01*
X137384523Y-101210295D02*
X137289285Y-101257914D01*
X137289285Y-101257914D02*
X137098809Y-101305533D01*
X137098809Y-101305533D02*
X136955952Y-101305533D01*
X136955952Y-101305533D02*
X136765476Y-101257914D01*
X136765476Y-101257914D02*
X136670238Y-101210295D01*
X136670238Y-101210295D02*
X136575000Y-101115057D01*
X136575000Y-101115057D02*
X136527380Y-100972200D01*
X136527380Y-100972200D02*
X136527380Y-100876962D01*
X136527380Y-100876962D02*
X136575000Y-100734105D01*
X136575000Y-100734105D02*
X136622619Y-100686486D01*
X136527380Y-99829343D02*
X136527380Y-100019819D01*
X136527380Y-100019819D02*
X136575000Y-100115057D01*
X136575000Y-100115057D02*
X136622619Y-100162676D01*
X136622619Y-100162676D02*
X136765476Y-100257914D01*
X136765476Y-100257914D02*
X136955952Y-100305533D01*
X136955952Y-100305533D02*
X137336904Y-100305533D01*
X137336904Y-100305533D02*
X137432142Y-100257914D01*
X137432142Y-100257914D02*
X137479761Y-100210295D01*
X137479761Y-100210295D02*
X137527380Y-100115057D01*
X137527380Y-100115057D02*
X137527380Y-99924581D01*
X137527380Y-99924581D02*
X137479761Y-99829343D01*
X137479761Y-99829343D02*
X137432142Y-99781724D01*
X137432142Y-99781724D02*
X137336904Y-99734105D01*
X137336904Y-99734105D02*
X137098809Y-99734105D01*
X137098809Y-99734105D02*
X137003571Y-99781724D01*
X137003571Y-99781724D02*
X136955952Y-99829343D01*
X136955952Y-99829343D02*
X136908333Y-99924581D01*
X136908333Y-99924581D02*
X136908333Y-100115057D01*
X136908333Y-100115057D02*
X136955952Y-100210295D01*
X136955952Y-100210295D02*
X137003571Y-100257914D01*
X137003571Y-100257914D02*
X137098809Y-100305533D01*
X139197178Y-102315069D02*
X139197178Y-102219831D01*
X139197178Y-102219831D02*
X139244798Y-102124593D01*
X139244798Y-102124593D02*
X139292417Y-102076974D01*
X139292417Y-102076974D02*
X139387655Y-102029355D01*
X139387655Y-102029355D02*
X139578131Y-101981736D01*
X139578131Y-101981736D02*
X139816226Y-101981736D01*
X139816226Y-101981736D02*
X140006702Y-102029355D01*
X140006702Y-102029355D02*
X140101940Y-102076974D01*
X140101940Y-102076974D02*
X140149559Y-102124593D01*
X140149559Y-102124593D02*
X140197178Y-102219831D01*
X140197178Y-102219831D02*
X140197178Y-102315069D01*
X140197178Y-102315069D02*
X140149559Y-102410307D01*
X140149559Y-102410307D02*
X140101940Y-102457926D01*
X140101940Y-102457926D02*
X140006702Y-102505545D01*
X140006702Y-102505545D02*
X139816226Y-102553164D01*
X139816226Y-102553164D02*
X139578131Y-102553164D01*
X139578131Y-102553164D02*
X139387655Y-102505545D01*
X139387655Y-102505545D02*
X139292417Y-102457926D01*
X139292417Y-102457926D02*
X139244798Y-102410307D01*
X139244798Y-102410307D02*
X139197178Y-102315069D01*
X140101940Y-101553164D02*
X140149559Y-101505545D01*
X140149559Y-101505545D02*
X140197178Y-101553164D01*
X140197178Y-101553164D02*
X140149559Y-101600783D01*
X140149559Y-101600783D02*
X140101940Y-101553164D01*
X140101940Y-101553164D02*
X140197178Y-101553164D01*
X140197178Y-100553165D02*
X140197178Y-101124593D01*
X140197178Y-100838879D02*
X139197178Y-100838879D01*
X139197178Y-100838879D02*
X139340036Y-100934117D01*
X139340036Y-100934117D02*
X139435274Y-101029355D01*
X139435274Y-101029355D02*
X139482893Y-101124593D01*
X139530512Y-99696022D02*
X140197178Y-99696022D01*
X139530512Y-100124593D02*
X140054321Y-100124593D01*
X140054321Y-100124593D02*
X140149559Y-100076974D01*
X140149559Y-100076974D02*
X140197178Y-99981736D01*
X140197178Y-99981736D02*
X140197178Y-99838879D01*
X140197178Y-99838879D02*
X140149559Y-99743641D01*
X140149559Y-99743641D02*
X140101940Y-99696022D01*
X139673369Y-98886498D02*
X139673369Y-99219831D01*
X140197178Y-99219831D02*
X139197178Y-99219831D01*
X139197178Y-99219831D02*
X139197178Y-98743641D01*
%TO.C,C5*%
X109419843Y-68544196D02*
X109372224Y-68591815D01*
X109372224Y-68591815D02*
X109229367Y-68639434D01*
X109229367Y-68639434D02*
X109134129Y-68639434D01*
X109134129Y-68639434D02*
X108991272Y-68591815D01*
X108991272Y-68591815D02*
X108896034Y-68496577D01*
X108896034Y-68496577D02*
X108848415Y-68401339D01*
X108848415Y-68401339D02*
X108800796Y-68210863D01*
X108800796Y-68210863D02*
X108800796Y-68068006D01*
X108800796Y-68068006D02*
X108848415Y-67877530D01*
X108848415Y-67877530D02*
X108896034Y-67782292D01*
X108896034Y-67782292D02*
X108991272Y-67687054D01*
X108991272Y-67687054D02*
X109134129Y-67639434D01*
X109134129Y-67639434D02*
X109229367Y-67639434D01*
X109229367Y-67639434D02*
X109372224Y-67687054D01*
X109372224Y-67687054D02*
X109419843Y-67734673D01*
X110324605Y-67639434D02*
X109848415Y-67639434D01*
X109848415Y-67639434D02*
X109800796Y-68115625D01*
X109800796Y-68115625D02*
X109848415Y-68068006D01*
X109848415Y-68068006D02*
X109943653Y-68020387D01*
X109943653Y-68020387D02*
X110181748Y-68020387D01*
X110181748Y-68020387D02*
X110276986Y-68068006D01*
X110276986Y-68068006D02*
X110324605Y-68115625D01*
X110324605Y-68115625D02*
X110372224Y-68210863D01*
X110372224Y-68210863D02*
X110372224Y-68448958D01*
X110372224Y-68448958D02*
X110324605Y-68544196D01*
X110324605Y-68544196D02*
X110276986Y-68591815D01*
X110276986Y-68591815D02*
X110181748Y-68639434D01*
X110181748Y-68639434D02*
X109943653Y-68639434D01*
X109943653Y-68639434D02*
X109848415Y-68591815D01*
X109848415Y-68591815D02*
X109800796Y-68544196D01*
X113588650Y-67636877D02*
X113683888Y-67636877D01*
X113683888Y-67636877D02*
X113779126Y-67684497D01*
X113779126Y-67684497D02*
X113826745Y-67732116D01*
X113826745Y-67732116D02*
X113874364Y-67827354D01*
X113874364Y-67827354D02*
X113921983Y-68017830D01*
X113921983Y-68017830D02*
X113921983Y-68255925D01*
X113921983Y-68255925D02*
X113874364Y-68446401D01*
X113874364Y-68446401D02*
X113826745Y-68541639D01*
X113826745Y-68541639D02*
X113779126Y-68589258D01*
X113779126Y-68589258D02*
X113683888Y-68636877D01*
X113683888Y-68636877D02*
X113588650Y-68636877D01*
X113588650Y-68636877D02*
X113493412Y-68589258D01*
X113493412Y-68589258D02*
X113445793Y-68541639D01*
X113445793Y-68541639D02*
X113398174Y-68446401D01*
X113398174Y-68446401D02*
X113350555Y-68255925D01*
X113350555Y-68255925D02*
X113350555Y-68017830D01*
X113350555Y-68017830D02*
X113398174Y-67827354D01*
X113398174Y-67827354D02*
X113445793Y-67732116D01*
X113445793Y-67732116D02*
X113493412Y-67684497D01*
X113493412Y-67684497D02*
X113588650Y-67636877D01*
X114350555Y-68541639D02*
X114398174Y-68589258D01*
X114398174Y-68589258D02*
X114350555Y-68636877D01*
X114350555Y-68636877D02*
X114302936Y-68589258D01*
X114302936Y-68589258D02*
X114350555Y-68541639D01*
X114350555Y-68541639D02*
X114350555Y-68636877D01*
X115350554Y-68636877D02*
X114779126Y-68636877D01*
X115064840Y-68636877D02*
X115064840Y-67636877D01*
X115064840Y-67636877D02*
X114969602Y-67779735D01*
X114969602Y-67779735D02*
X114874364Y-67874973D01*
X114874364Y-67874973D02*
X114779126Y-67922592D01*
X116207697Y-67970211D02*
X116207697Y-68636877D01*
X115779126Y-67970211D02*
X115779126Y-68494020D01*
X115779126Y-68494020D02*
X115826745Y-68589258D01*
X115826745Y-68589258D02*
X115921983Y-68636877D01*
X115921983Y-68636877D02*
X116064840Y-68636877D01*
X116064840Y-68636877D02*
X116160078Y-68589258D01*
X116160078Y-68589258D02*
X116207697Y-68541639D01*
X117017221Y-68113068D02*
X116683888Y-68113068D01*
X116683888Y-68636877D02*
X116683888Y-67636877D01*
X116683888Y-67636877D02*
X117160078Y-67636877D01*
%TO.C,U1*%
X143770442Y-79245516D02*
X144579966Y-79245516D01*
X144579966Y-79245516D02*
X144675204Y-79197897D01*
X144675204Y-79197897D02*
X144722823Y-79150278D01*
X144722823Y-79150278D02*
X144770442Y-79055040D01*
X144770442Y-79055040D02*
X144770442Y-78864564D01*
X144770442Y-78864564D02*
X144722823Y-78769326D01*
X144722823Y-78769326D02*
X144675204Y-78721707D01*
X144675204Y-78721707D02*
X144579966Y-78674088D01*
X144579966Y-78674088D02*
X143770442Y-78674088D01*
X144770442Y-77674088D02*
X144770442Y-78245516D01*
X144770442Y-77959802D02*
X143770442Y-77959802D01*
X143770442Y-77959802D02*
X143913300Y-78055040D01*
X143913300Y-78055040D02*
X144008538Y-78150278D01*
X144008538Y-78150278D02*
X144056157Y-78245516D01*
X187482823Y-82864564D02*
X187530442Y-82721707D01*
X187530442Y-82721707D02*
X187530442Y-82483612D01*
X187530442Y-82483612D02*
X187482823Y-82388374D01*
X187482823Y-82388374D02*
X187435204Y-82340755D01*
X187435204Y-82340755D02*
X187339966Y-82293136D01*
X187339966Y-82293136D02*
X187244728Y-82293136D01*
X187244728Y-82293136D02*
X187149490Y-82340755D01*
X187149490Y-82340755D02*
X187101871Y-82388374D01*
X187101871Y-82388374D02*
X187054252Y-82483612D01*
X187054252Y-82483612D02*
X187006633Y-82674088D01*
X187006633Y-82674088D02*
X186959014Y-82769326D01*
X186959014Y-82769326D02*
X186911395Y-82816945D01*
X186911395Y-82816945D02*
X186816157Y-82864564D01*
X186816157Y-82864564D02*
X186720919Y-82864564D01*
X186720919Y-82864564D02*
X186625681Y-82816945D01*
X186625681Y-82816945D02*
X186578062Y-82769326D01*
X186578062Y-82769326D02*
X186530442Y-82674088D01*
X186530442Y-82674088D02*
X186530442Y-82435993D01*
X186530442Y-82435993D02*
X186578062Y-82293136D01*
X187482823Y-81912183D02*
X187530442Y-81769326D01*
X187530442Y-81769326D02*
X187530442Y-81531231D01*
X187530442Y-81531231D02*
X187482823Y-81435993D01*
X187482823Y-81435993D02*
X187435204Y-81388374D01*
X187435204Y-81388374D02*
X187339966Y-81340755D01*
X187339966Y-81340755D02*
X187244728Y-81340755D01*
X187244728Y-81340755D02*
X187149490Y-81388374D01*
X187149490Y-81388374D02*
X187101871Y-81435993D01*
X187101871Y-81435993D02*
X187054252Y-81531231D01*
X187054252Y-81531231D02*
X187006633Y-81721707D01*
X187006633Y-81721707D02*
X186959014Y-81816945D01*
X186959014Y-81816945D02*
X186911395Y-81864564D01*
X186911395Y-81864564D02*
X186816157Y-81912183D01*
X186816157Y-81912183D02*
X186720919Y-81912183D01*
X186720919Y-81912183D02*
X186625681Y-81864564D01*
X186625681Y-81864564D02*
X186578062Y-81816945D01*
X186578062Y-81816945D02*
X186530442Y-81721707D01*
X186530442Y-81721707D02*
X186530442Y-81483612D01*
X186530442Y-81483612D02*
X186578062Y-81340755D01*
X186530442Y-81055040D02*
X186530442Y-80483612D01*
X187530442Y-80769326D02*
X186530442Y-80769326D01*
X186625681Y-80197897D02*
X186578062Y-80150278D01*
X186578062Y-80150278D02*
X186530442Y-80055040D01*
X186530442Y-80055040D02*
X186530442Y-79816945D01*
X186530442Y-79816945D02*
X186578062Y-79721707D01*
X186578062Y-79721707D02*
X186625681Y-79674088D01*
X186625681Y-79674088D02*
X186720919Y-79626469D01*
X186720919Y-79626469D02*
X186816157Y-79626469D01*
X186816157Y-79626469D02*
X186959014Y-79674088D01*
X186959014Y-79674088D02*
X187530442Y-80245516D01*
X187530442Y-80245516D02*
X187530442Y-79626469D01*
X186530442Y-79293135D02*
X186530442Y-78626469D01*
X186530442Y-78626469D02*
X187530442Y-79055040D01*
X187482823Y-78293135D02*
X187530442Y-78150278D01*
X187530442Y-78150278D02*
X187530442Y-77912183D01*
X187530442Y-77912183D02*
X187482823Y-77816945D01*
X187482823Y-77816945D02*
X187435204Y-77769326D01*
X187435204Y-77769326D02*
X187339966Y-77721707D01*
X187339966Y-77721707D02*
X187244728Y-77721707D01*
X187244728Y-77721707D02*
X187149490Y-77769326D01*
X187149490Y-77769326D02*
X187101871Y-77816945D01*
X187101871Y-77816945D02*
X187054252Y-77912183D01*
X187054252Y-77912183D02*
X187006633Y-78102659D01*
X187006633Y-78102659D02*
X186959014Y-78197897D01*
X186959014Y-78197897D02*
X186911395Y-78245516D01*
X186911395Y-78245516D02*
X186816157Y-78293135D01*
X186816157Y-78293135D02*
X186720919Y-78293135D01*
X186720919Y-78293135D02*
X186625681Y-78245516D01*
X186625681Y-78245516D02*
X186578062Y-78197897D01*
X186578062Y-78197897D02*
X186530442Y-78102659D01*
X186530442Y-78102659D02*
X186530442Y-77864564D01*
X186530442Y-77864564D02*
X186578062Y-77721707D01*
X186530442Y-77435992D02*
X186530442Y-76864564D01*
X187530442Y-77150278D02*
X186530442Y-77150278D01*
X186530442Y-76340754D02*
X186530442Y-76245516D01*
X186530442Y-76245516D02*
X186578062Y-76150278D01*
X186578062Y-76150278D02*
X186625681Y-76102659D01*
X186625681Y-76102659D02*
X186720919Y-76055040D01*
X186720919Y-76055040D02*
X186911395Y-76007421D01*
X186911395Y-76007421D02*
X187149490Y-76007421D01*
X187149490Y-76007421D02*
X187339966Y-76055040D01*
X187339966Y-76055040D02*
X187435204Y-76102659D01*
X187435204Y-76102659D02*
X187482823Y-76150278D01*
X187482823Y-76150278D02*
X187530442Y-76245516D01*
X187530442Y-76245516D02*
X187530442Y-76340754D01*
X187530442Y-76340754D02*
X187482823Y-76435992D01*
X187482823Y-76435992D02*
X187435204Y-76483611D01*
X187435204Y-76483611D02*
X187339966Y-76531230D01*
X187339966Y-76531230D02*
X187149490Y-76578849D01*
X187149490Y-76578849D02*
X186911395Y-76578849D01*
X186911395Y-76578849D02*
X186720919Y-76531230D01*
X186720919Y-76531230D02*
X186625681Y-76483611D01*
X186625681Y-76483611D02*
X186578062Y-76435992D01*
X186578062Y-76435992D02*
X186530442Y-76340754D01*
X186625681Y-75626468D02*
X186578062Y-75578849D01*
X186578062Y-75578849D02*
X186530442Y-75483611D01*
X186530442Y-75483611D02*
X186530442Y-75245516D01*
X186530442Y-75245516D02*
X186578062Y-75150278D01*
X186578062Y-75150278D02*
X186625681Y-75102659D01*
X186625681Y-75102659D02*
X186720919Y-75055040D01*
X186720919Y-75055040D02*
X186816157Y-75055040D01*
X186816157Y-75055040D02*
X186959014Y-75102659D01*
X186959014Y-75102659D02*
X187530442Y-75674087D01*
X187530442Y-75674087D02*
X187530442Y-75055040D01*
X186530442Y-74435992D02*
X186530442Y-74340754D01*
X186530442Y-74340754D02*
X186578062Y-74245516D01*
X186578062Y-74245516D02*
X186625681Y-74197897D01*
X186625681Y-74197897D02*
X186720919Y-74150278D01*
X186720919Y-74150278D02*
X186911395Y-74102659D01*
X186911395Y-74102659D02*
X187149490Y-74102659D01*
X187149490Y-74102659D02*
X187339966Y-74150278D01*
X187339966Y-74150278D02*
X187435204Y-74197897D01*
X187435204Y-74197897D02*
X187482823Y-74245516D01*
X187482823Y-74245516D02*
X187530442Y-74340754D01*
X187530442Y-74340754D02*
X187530442Y-74435992D01*
X187530442Y-74435992D02*
X187482823Y-74531230D01*
X187482823Y-74531230D02*
X187435204Y-74578849D01*
X187435204Y-74578849D02*
X187339966Y-74626468D01*
X187339966Y-74626468D02*
X187149490Y-74674087D01*
X187149490Y-74674087D02*
X186911395Y-74674087D01*
X186911395Y-74674087D02*
X186720919Y-74626468D01*
X186720919Y-74626468D02*
X186625681Y-74578849D01*
X186625681Y-74578849D02*
X186578062Y-74531230D01*
X186578062Y-74531230D02*
X186530442Y-74435992D01*
%TO.C,U5*%
X128660864Y-68867083D02*
X128660864Y-69676607D01*
X128660864Y-69676607D02*
X128708483Y-69771845D01*
X128708483Y-69771845D02*
X128756102Y-69819464D01*
X128756102Y-69819464D02*
X128851340Y-69867083D01*
X128851340Y-69867083D02*
X129041816Y-69867083D01*
X129041816Y-69867083D02*
X129137054Y-69819464D01*
X129137054Y-69819464D02*
X129184673Y-69771845D01*
X129184673Y-69771845D02*
X129232292Y-69676607D01*
X129232292Y-69676607D02*
X129232292Y-68867083D01*
X130184673Y-68867083D02*
X129708483Y-68867083D01*
X129708483Y-68867083D02*
X129660864Y-69343274D01*
X129660864Y-69343274D02*
X129708483Y-69295655D01*
X129708483Y-69295655D02*
X129803721Y-69248036D01*
X129803721Y-69248036D02*
X130041816Y-69248036D01*
X130041816Y-69248036D02*
X130137054Y-69295655D01*
X130137054Y-69295655D02*
X130184673Y-69343274D01*
X130184673Y-69343274D02*
X130232292Y-69438512D01*
X130232292Y-69438512D02*
X130232292Y-69676607D01*
X130232292Y-69676607D02*
X130184673Y-69771845D01*
X130184673Y-69771845D02*
X130137054Y-69819464D01*
X130137054Y-69819464D02*
X130041816Y-69867083D01*
X130041816Y-69867083D02*
X129803721Y-69867083D01*
X129803721Y-69867083D02*
X129708483Y-69819464D01*
X129708483Y-69819464D02*
X129660864Y-69771845D01*
X130201112Y-91359829D02*
X130867778Y-91359829D01*
X130867778Y-91359829D02*
X130439207Y-92359829D01*
X131677302Y-91693163D02*
X131677302Y-92359829D01*
X131439207Y-91312210D02*
X131201112Y-92026496D01*
X131201112Y-92026496D02*
X131820159Y-92026496D01*
X132677302Y-92359829D02*
X132201112Y-92359829D01*
X132201112Y-92359829D02*
X132201112Y-91359829D01*
X132963017Y-92312210D02*
X133105874Y-92359829D01*
X133105874Y-92359829D02*
X133343969Y-92359829D01*
X133343969Y-92359829D02*
X133439207Y-92312210D01*
X133439207Y-92312210D02*
X133486826Y-92264591D01*
X133486826Y-92264591D02*
X133534445Y-92169353D01*
X133534445Y-92169353D02*
X133534445Y-92074115D01*
X133534445Y-92074115D02*
X133486826Y-91978877D01*
X133486826Y-91978877D02*
X133439207Y-91931258D01*
X133439207Y-91931258D02*
X133343969Y-91883639D01*
X133343969Y-91883639D02*
X133153493Y-91836020D01*
X133153493Y-91836020D02*
X133058255Y-91788401D01*
X133058255Y-91788401D02*
X133010636Y-91740782D01*
X133010636Y-91740782D02*
X132963017Y-91645544D01*
X132963017Y-91645544D02*
X132963017Y-91550306D01*
X132963017Y-91550306D02*
X133010636Y-91455068D01*
X133010636Y-91455068D02*
X133058255Y-91407449D01*
X133058255Y-91407449D02*
X133153493Y-91359829D01*
X133153493Y-91359829D02*
X133391588Y-91359829D01*
X133391588Y-91359829D02*
X133534445Y-91407449D01*
X134486826Y-92359829D02*
X133915398Y-92359829D01*
X134201112Y-92359829D02*
X134201112Y-91359829D01*
X134201112Y-91359829D02*
X134105874Y-91502687D01*
X134105874Y-91502687D02*
X134010636Y-91597925D01*
X134010636Y-91597925D02*
X133915398Y-91645544D01*
X134820160Y-91359829D02*
X135439207Y-91359829D01*
X135439207Y-91359829D02*
X135105874Y-91740782D01*
X135105874Y-91740782D02*
X135248731Y-91740782D01*
X135248731Y-91740782D02*
X135343969Y-91788401D01*
X135343969Y-91788401D02*
X135391588Y-91836020D01*
X135391588Y-91836020D02*
X135439207Y-91931258D01*
X135439207Y-91931258D02*
X135439207Y-92169353D01*
X135439207Y-92169353D02*
X135391588Y-92264591D01*
X135391588Y-92264591D02*
X135343969Y-92312210D01*
X135343969Y-92312210D02*
X135248731Y-92359829D01*
X135248731Y-92359829D02*
X134963017Y-92359829D01*
X134963017Y-92359829D02*
X134867779Y-92312210D01*
X134867779Y-92312210D02*
X134820160Y-92264591D01*
X135915398Y-92359829D02*
X136105874Y-92359829D01*
X136105874Y-92359829D02*
X136201112Y-92312210D01*
X136201112Y-92312210D02*
X136248731Y-92264591D01*
X136248731Y-92264591D02*
X136343969Y-92121734D01*
X136343969Y-92121734D02*
X136391588Y-91931258D01*
X136391588Y-91931258D02*
X136391588Y-91550306D01*
X136391588Y-91550306D02*
X136343969Y-91455068D01*
X136343969Y-91455068D02*
X136296350Y-91407449D01*
X136296350Y-91407449D02*
X136201112Y-91359829D01*
X136201112Y-91359829D02*
X136010636Y-91359829D01*
X136010636Y-91359829D02*
X135915398Y-91407449D01*
X135915398Y-91407449D02*
X135867779Y-91455068D01*
X135867779Y-91455068D02*
X135820160Y-91550306D01*
X135820160Y-91550306D02*
X135820160Y-91788401D01*
X135820160Y-91788401D02*
X135867779Y-91883639D01*
X135867779Y-91883639D02*
X135915398Y-91931258D01*
X135915398Y-91931258D02*
X136010636Y-91978877D01*
X136010636Y-91978877D02*
X136201112Y-91978877D01*
X136201112Y-91978877D02*
X136296350Y-91931258D01*
X136296350Y-91931258D02*
X136343969Y-91883639D01*
X136343969Y-91883639D02*
X136391588Y-91788401D01*
%TO.C,CE1*%
X131871112Y-130984702D02*
X131823493Y-131032321D01*
X131823493Y-131032321D02*
X131680636Y-131079940D01*
X131680636Y-131079940D02*
X131585398Y-131079940D01*
X131585398Y-131079940D02*
X131442541Y-131032321D01*
X131442541Y-131032321D02*
X131347303Y-130937083D01*
X131347303Y-130937083D02*
X131299684Y-130841845D01*
X131299684Y-130841845D02*
X131252065Y-130651369D01*
X131252065Y-130651369D02*
X131252065Y-130508512D01*
X131252065Y-130508512D02*
X131299684Y-130318036D01*
X131299684Y-130318036D02*
X131347303Y-130222798D01*
X131347303Y-130222798D02*
X131442541Y-130127560D01*
X131442541Y-130127560D02*
X131585398Y-130079940D01*
X131585398Y-130079940D02*
X131680636Y-130079940D01*
X131680636Y-130079940D02*
X131823493Y-130127560D01*
X131823493Y-130127560D02*
X131871112Y-130175179D01*
X132299684Y-130556131D02*
X132633017Y-130556131D01*
X132775874Y-131079940D02*
X132299684Y-131079940D01*
X132299684Y-131079940D02*
X132299684Y-130079940D01*
X132299684Y-130079940D02*
X132775874Y-130079940D01*
X133728255Y-131079940D02*
X133156827Y-131079940D01*
X133442541Y-131079940D02*
X133442541Y-130079940D01*
X133442541Y-130079940D02*
X133347303Y-130222798D01*
X133347303Y-130222798D02*
X133252065Y-130318036D01*
X133252065Y-130318036D02*
X133156827Y-130365655D01*
D12*
X146752826Y-120318273D02*
X146752826Y-120127797D01*
X146867112Y-120356368D02*
X146467112Y-120223035D01*
X146467112Y-120223035D02*
X146867112Y-120089702D01*
X146638540Y-119899226D02*
X146619493Y-119937321D01*
X146619493Y-119937321D02*
X146600445Y-119956368D01*
X146600445Y-119956368D02*
X146562350Y-119975416D01*
X146562350Y-119975416D02*
X146543302Y-119975416D01*
X146543302Y-119975416D02*
X146505207Y-119956368D01*
X146505207Y-119956368D02*
X146486160Y-119937321D01*
X146486160Y-119937321D02*
X146467112Y-119899226D01*
X146467112Y-119899226D02*
X146467112Y-119823035D01*
X146467112Y-119823035D02*
X146486160Y-119784940D01*
X146486160Y-119784940D02*
X146505207Y-119765892D01*
X146505207Y-119765892D02*
X146543302Y-119746845D01*
X146543302Y-119746845D02*
X146562350Y-119746845D01*
X146562350Y-119746845D02*
X146600445Y-119765892D01*
X146600445Y-119765892D02*
X146619493Y-119784940D01*
X146619493Y-119784940D02*
X146638540Y-119823035D01*
X146638540Y-119823035D02*
X146638540Y-119899226D01*
X146638540Y-119899226D02*
X146657588Y-119937321D01*
X146657588Y-119937321D02*
X146676636Y-119956368D01*
X146676636Y-119956368D02*
X146714731Y-119975416D01*
X146714731Y-119975416D02*
X146790921Y-119975416D01*
X146790921Y-119975416D02*
X146829017Y-119956368D01*
X146829017Y-119956368D02*
X146848064Y-119937321D01*
X146848064Y-119937321D02*
X146867112Y-119899226D01*
X146867112Y-119899226D02*
X146867112Y-119823035D01*
X146867112Y-119823035D02*
X146848064Y-119784940D01*
X146848064Y-119784940D02*
X146829017Y-119765892D01*
X146829017Y-119765892D02*
X146790921Y-119746845D01*
X146790921Y-119746845D02*
X146714731Y-119746845D01*
X146714731Y-119746845D02*
X146676636Y-119765892D01*
X146676636Y-119765892D02*
X146657588Y-119784940D01*
X146657588Y-119784940D02*
X146638540Y-119823035D01*
X167197112Y-120364464D02*
X166797112Y-120364464D01*
X167197112Y-120173988D02*
X166797112Y-120173988D01*
X166797112Y-120173988D02*
X167197112Y-119945417D01*
X167197112Y-119945417D02*
X166797112Y-119945417D01*
X166797112Y-119812083D02*
X166797112Y-119583512D01*
X167197112Y-119697798D02*
X166797112Y-119697798D01*
X166656160Y-120419703D02*
X166656160Y-119585417D01*
X174759017Y-120129702D02*
X174778064Y-120148750D01*
X174778064Y-120148750D02*
X174797112Y-120205892D01*
X174797112Y-120205892D02*
X174797112Y-120243988D01*
X174797112Y-120243988D02*
X174778064Y-120301131D01*
X174778064Y-120301131D02*
X174739969Y-120339226D01*
X174739969Y-120339226D02*
X174701874Y-120358273D01*
X174701874Y-120358273D02*
X174625683Y-120377321D01*
X174625683Y-120377321D02*
X174568540Y-120377321D01*
X174568540Y-120377321D02*
X174492350Y-120358273D01*
X174492350Y-120358273D02*
X174454255Y-120339226D01*
X174454255Y-120339226D02*
X174416160Y-120301131D01*
X174416160Y-120301131D02*
X174397112Y-120243988D01*
X174397112Y-120243988D02*
X174397112Y-120205892D01*
X174397112Y-120205892D02*
X174416160Y-120148750D01*
X174416160Y-120148750D02*
X174435207Y-120129702D01*
X174778064Y-119977321D02*
X174797112Y-119920178D01*
X174797112Y-119920178D02*
X174797112Y-119824940D01*
X174797112Y-119824940D02*
X174778064Y-119786845D01*
X174778064Y-119786845D02*
X174759017Y-119767797D01*
X174759017Y-119767797D02*
X174720921Y-119748750D01*
X174720921Y-119748750D02*
X174682826Y-119748750D01*
X174682826Y-119748750D02*
X174644731Y-119767797D01*
X174644731Y-119767797D02*
X174625683Y-119786845D01*
X174625683Y-119786845D02*
X174606636Y-119824940D01*
X174606636Y-119824940D02*
X174587588Y-119901131D01*
X174587588Y-119901131D02*
X174568540Y-119939226D01*
X174568540Y-119939226D02*
X174549493Y-119958273D01*
X174549493Y-119958273D02*
X174511398Y-119977321D01*
X174511398Y-119977321D02*
X174473302Y-119977321D01*
X174473302Y-119977321D02*
X174435207Y-119958273D01*
X174435207Y-119958273D02*
X174416160Y-119939226D01*
X174416160Y-119939226D02*
X174397112Y-119901131D01*
X174397112Y-119901131D02*
X174397112Y-119805892D01*
X174397112Y-119805892D02*
X174416160Y-119748750D01*
X174435207Y-119596369D02*
X174416160Y-119577321D01*
X174416160Y-119577321D02*
X174397112Y-119539226D01*
X174397112Y-119539226D02*
X174397112Y-119443988D01*
X174397112Y-119443988D02*
X174416160Y-119405893D01*
X174416160Y-119405893D02*
X174435207Y-119386845D01*
X174435207Y-119386845D02*
X174473302Y-119367798D01*
X174473302Y-119367798D02*
X174511398Y-119367798D01*
X174511398Y-119367798D02*
X174568540Y-119386845D01*
X174568540Y-119386845D02*
X174797112Y-119615417D01*
X174797112Y-119615417D02*
X174797112Y-119367798D01*
X174256160Y-120413512D02*
X174256160Y-119331608D01*
X162087112Y-120316369D02*
X161687112Y-120316369D01*
X161687112Y-120316369D02*
X161972826Y-120183036D01*
X161972826Y-120183036D02*
X161687112Y-120049703D01*
X161687112Y-120049703D02*
X162087112Y-120049703D01*
X161877588Y-119859226D02*
X161877588Y-119725893D01*
X162087112Y-119668750D02*
X162087112Y-119859226D01*
X162087112Y-119859226D02*
X161687112Y-119859226D01*
X161687112Y-119859226D02*
X161687112Y-119668750D01*
X162087112Y-119268750D02*
X161896636Y-119402083D01*
X162087112Y-119497321D02*
X161687112Y-119497321D01*
X161687112Y-119497321D02*
X161687112Y-119344940D01*
X161687112Y-119344940D02*
X161706160Y-119306845D01*
X161706160Y-119306845D02*
X161725207Y-119287798D01*
X161725207Y-119287798D02*
X161763302Y-119268750D01*
X161763302Y-119268750D02*
X161820445Y-119268750D01*
X161820445Y-119268750D02*
X161858540Y-119287798D01*
X161858540Y-119287798D02*
X161877588Y-119306845D01*
X161877588Y-119306845D02*
X161896636Y-119344940D01*
X161896636Y-119344940D02*
X161896636Y-119497321D01*
X162125207Y-118830655D02*
X162106160Y-118868750D01*
X162106160Y-118868750D02*
X162068064Y-118906845D01*
X162068064Y-118906845D02*
X162010921Y-118963988D01*
X162010921Y-118963988D02*
X161991874Y-119002083D01*
X161991874Y-119002083D02*
X161991874Y-119040179D01*
X162087112Y-119021131D02*
X162068064Y-119059226D01*
X162068064Y-119059226D02*
X162029969Y-119097321D01*
X162029969Y-119097321D02*
X161953779Y-119116369D01*
X161953779Y-119116369D02*
X161820445Y-119116369D01*
X161820445Y-119116369D02*
X161744255Y-119097321D01*
X161744255Y-119097321D02*
X161706160Y-119059226D01*
X161706160Y-119059226D02*
X161687112Y-119021131D01*
X161687112Y-119021131D02*
X161687112Y-118944940D01*
X161687112Y-118944940D02*
X161706160Y-118906845D01*
X161706160Y-118906845D02*
X161744255Y-118868750D01*
X161744255Y-118868750D02*
X161820445Y-118849702D01*
X161820445Y-118849702D02*
X161953779Y-118849702D01*
X161953779Y-118849702D02*
X162029969Y-118868750D01*
X162029969Y-118868750D02*
X162068064Y-118906845D01*
X162068064Y-118906845D02*
X162087112Y-118944940D01*
X162087112Y-118944940D02*
X162087112Y-119021131D01*
X161546160Y-120371608D02*
X161546160Y-118813512D01*
X134157112Y-120327797D02*
X133757112Y-120327797D01*
X133757112Y-120327797D02*
X133757112Y-120232559D01*
X133757112Y-120232559D02*
X133776160Y-120175416D01*
X133776160Y-120175416D02*
X133814255Y-120137321D01*
X133814255Y-120137321D02*
X133852350Y-120118274D01*
X133852350Y-120118274D02*
X133928540Y-120099226D01*
X133928540Y-120099226D02*
X133985683Y-120099226D01*
X133985683Y-120099226D02*
X134061874Y-120118274D01*
X134061874Y-120118274D02*
X134099969Y-120137321D01*
X134099969Y-120137321D02*
X134138064Y-120175416D01*
X134138064Y-120175416D02*
X134157112Y-120232559D01*
X134157112Y-120232559D02*
X134157112Y-120327797D01*
X133757112Y-119851607D02*
X133757112Y-119813512D01*
X133757112Y-119813512D02*
X133776160Y-119775416D01*
X133776160Y-119775416D02*
X133795207Y-119756369D01*
X133795207Y-119756369D02*
X133833302Y-119737321D01*
X133833302Y-119737321D02*
X133909493Y-119718274D01*
X133909493Y-119718274D02*
X134004731Y-119718274D01*
X134004731Y-119718274D02*
X134080921Y-119737321D01*
X134080921Y-119737321D02*
X134119017Y-119756369D01*
X134119017Y-119756369D02*
X134138064Y-119775416D01*
X134138064Y-119775416D02*
X134157112Y-119813512D01*
X134157112Y-119813512D02*
X134157112Y-119851607D01*
X134157112Y-119851607D02*
X134138064Y-119889702D01*
X134138064Y-119889702D02*
X134119017Y-119908750D01*
X134119017Y-119908750D02*
X134080921Y-119927797D01*
X134080921Y-119927797D02*
X134004731Y-119946845D01*
X134004731Y-119946845D02*
X133909493Y-119946845D01*
X133909493Y-119946845D02*
X133833302Y-119927797D01*
X133833302Y-119927797D02*
X133795207Y-119908750D01*
X133795207Y-119908750D02*
X133776160Y-119889702D01*
X133776160Y-119889702D02*
X133757112Y-119851607D01*
X123949017Y-120070179D02*
X123968064Y-120089227D01*
X123968064Y-120089227D02*
X123987112Y-120146369D01*
X123987112Y-120146369D02*
X123987112Y-120184465D01*
X123987112Y-120184465D02*
X123968064Y-120241608D01*
X123968064Y-120241608D02*
X123929969Y-120279703D01*
X123929969Y-120279703D02*
X123891874Y-120298750D01*
X123891874Y-120298750D02*
X123815683Y-120317798D01*
X123815683Y-120317798D02*
X123758540Y-120317798D01*
X123758540Y-120317798D02*
X123682350Y-120298750D01*
X123682350Y-120298750D02*
X123644255Y-120279703D01*
X123644255Y-120279703D02*
X123606160Y-120241608D01*
X123606160Y-120241608D02*
X123587112Y-120184465D01*
X123587112Y-120184465D02*
X123587112Y-120146369D01*
X123587112Y-120146369D02*
X123606160Y-120089227D01*
X123606160Y-120089227D02*
X123625207Y-120070179D01*
X123987112Y-119708274D02*
X123987112Y-119898750D01*
X123987112Y-119898750D02*
X123587112Y-119898750D01*
X123587112Y-119498750D02*
X123587112Y-119422559D01*
X123587112Y-119422559D02*
X123606160Y-119384464D01*
X123606160Y-119384464D02*
X123644255Y-119346369D01*
X123644255Y-119346369D02*
X123720445Y-119327321D01*
X123720445Y-119327321D02*
X123853779Y-119327321D01*
X123853779Y-119327321D02*
X123929969Y-119346369D01*
X123929969Y-119346369D02*
X123968064Y-119384464D01*
X123968064Y-119384464D02*
X123987112Y-119422559D01*
X123987112Y-119422559D02*
X123987112Y-119498750D01*
X123987112Y-119498750D02*
X123968064Y-119536845D01*
X123968064Y-119536845D02*
X123929969Y-119574940D01*
X123929969Y-119574940D02*
X123853779Y-119593988D01*
X123853779Y-119593988D02*
X123720445Y-119593988D01*
X123720445Y-119593988D02*
X123644255Y-119574940D01*
X123644255Y-119574940D02*
X123606160Y-119536845D01*
X123606160Y-119536845D02*
X123587112Y-119498750D01*
X123949017Y-118927321D02*
X123968064Y-118946369D01*
X123968064Y-118946369D02*
X123987112Y-119003511D01*
X123987112Y-119003511D02*
X123987112Y-119041607D01*
X123987112Y-119041607D02*
X123968064Y-119098750D01*
X123968064Y-119098750D02*
X123929969Y-119136845D01*
X123929969Y-119136845D02*
X123891874Y-119155892D01*
X123891874Y-119155892D02*
X123815683Y-119174940D01*
X123815683Y-119174940D02*
X123758540Y-119174940D01*
X123758540Y-119174940D02*
X123682350Y-119155892D01*
X123682350Y-119155892D02*
X123644255Y-119136845D01*
X123644255Y-119136845D02*
X123606160Y-119098750D01*
X123606160Y-119098750D02*
X123587112Y-119041607D01*
X123587112Y-119041607D02*
X123587112Y-119003511D01*
X123587112Y-119003511D02*
X123606160Y-118946369D01*
X123606160Y-118946369D02*
X123625207Y-118927321D01*
X123987112Y-118755892D02*
X123587112Y-118755892D01*
X123987112Y-118527321D02*
X123758540Y-118698750D01*
X123587112Y-118527321D02*
X123815683Y-118755892D01*
X164437588Y-120223988D02*
X164456636Y-120166845D01*
X164456636Y-120166845D02*
X164475683Y-120147798D01*
X164475683Y-120147798D02*
X164513779Y-120128750D01*
X164513779Y-120128750D02*
X164570921Y-120128750D01*
X164570921Y-120128750D02*
X164609017Y-120147798D01*
X164609017Y-120147798D02*
X164628064Y-120166845D01*
X164628064Y-120166845D02*
X164647112Y-120204940D01*
X164647112Y-120204940D02*
X164647112Y-120357321D01*
X164647112Y-120357321D02*
X164247112Y-120357321D01*
X164247112Y-120357321D02*
X164247112Y-120223988D01*
X164247112Y-120223988D02*
X164266160Y-120185893D01*
X164266160Y-120185893D02*
X164285207Y-120166845D01*
X164285207Y-120166845D02*
X164323302Y-120147798D01*
X164323302Y-120147798D02*
X164361398Y-120147798D01*
X164361398Y-120147798D02*
X164399493Y-120166845D01*
X164399493Y-120166845D02*
X164418540Y-120185893D01*
X164418540Y-120185893D02*
X164437588Y-120223988D01*
X164437588Y-120223988D02*
X164437588Y-120357321D01*
X164247112Y-119957321D02*
X164570921Y-119957321D01*
X164570921Y-119957321D02*
X164609017Y-119938274D01*
X164609017Y-119938274D02*
X164628064Y-119919226D01*
X164628064Y-119919226D02*
X164647112Y-119881131D01*
X164647112Y-119881131D02*
X164647112Y-119804940D01*
X164647112Y-119804940D02*
X164628064Y-119766845D01*
X164628064Y-119766845D02*
X164609017Y-119747798D01*
X164609017Y-119747798D02*
X164570921Y-119728750D01*
X164570921Y-119728750D02*
X164247112Y-119728750D01*
X164628064Y-119557321D02*
X164647112Y-119500178D01*
X164647112Y-119500178D02*
X164647112Y-119404940D01*
X164647112Y-119404940D02*
X164628064Y-119366845D01*
X164628064Y-119366845D02*
X164609017Y-119347797D01*
X164609017Y-119347797D02*
X164570921Y-119328750D01*
X164570921Y-119328750D02*
X164532826Y-119328750D01*
X164532826Y-119328750D02*
X164494731Y-119347797D01*
X164494731Y-119347797D02*
X164475683Y-119366845D01*
X164475683Y-119366845D02*
X164456636Y-119404940D01*
X164456636Y-119404940D02*
X164437588Y-119481131D01*
X164437588Y-119481131D02*
X164418540Y-119519226D01*
X164418540Y-119519226D02*
X164399493Y-119538273D01*
X164399493Y-119538273D02*
X164361398Y-119557321D01*
X164361398Y-119557321D02*
X164323302Y-119557321D01*
X164323302Y-119557321D02*
X164285207Y-119538273D01*
X164285207Y-119538273D02*
X164266160Y-119519226D01*
X164266160Y-119519226D02*
X164247112Y-119481131D01*
X164247112Y-119481131D02*
X164247112Y-119385892D01*
X164247112Y-119385892D02*
X164266160Y-119328750D01*
X164647112Y-119157321D02*
X164247112Y-119157321D01*
X164247112Y-119157321D02*
X164247112Y-119062083D01*
X164247112Y-119062083D02*
X164266160Y-119004940D01*
X164266160Y-119004940D02*
X164304255Y-118966845D01*
X164304255Y-118966845D02*
X164342350Y-118947798D01*
X164342350Y-118947798D02*
X164418540Y-118928750D01*
X164418540Y-118928750D02*
X164475683Y-118928750D01*
X164475683Y-118928750D02*
X164551874Y-118947798D01*
X164551874Y-118947798D02*
X164589969Y-118966845D01*
X164589969Y-118966845D02*
X164628064Y-119004940D01*
X164628064Y-119004940D02*
X164647112Y-119062083D01*
X164647112Y-119062083D02*
X164647112Y-119157321D01*
X164106160Y-120412560D02*
X164106160Y-118892560D01*
X141682826Y-120318273D02*
X141682826Y-120127797D01*
X141797112Y-120356368D02*
X141397112Y-120223035D01*
X141397112Y-120223035D02*
X141797112Y-120089702D01*
X141397112Y-119880178D02*
X141397112Y-119842083D01*
X141397112Y-119842083D02*
X141416160Y-119803987D01*
X141416160Y-119803987D02*
X141435207Y-119784940D01*
X141435207Y-119784940D02*
X141473302Y-119765892D01*
X141473302Y-119765892D02*
X141549493Y-119746845D01*
X141549493Y-119746845D02*
X141644731Y-119746845D01*
X141644731Y-119746845D02*
X141720921Y-119765892D01*
X141720921Y-119765892D02*
X141759017Y-119784940D01*
X141759017Y-119784940D02*
X141778064Y-119803987D01*
X141778064Y-119803987D02*
X141797112Y-119842083D01*
X141797112Y-119842083D02*
X141797112Y-119880178D01*
X141797112Y-119880178D02*
X141778064Y-119918273D01*
X141778064Y-119918273D02*
X141759017Y-119937321D01*
X141759017Y-119937321D02*
X141720921Y-119956368D01*
X141720921Y-119956368D02*
X141644731Y-119975416D01*
X141644731Y-119975416D02*
X141549493Y-119975416D01*
X141549493Y-119975416D02*
X141473302Y-119956368D01*
X141473302Y-119956368D02*
X141435207Y-119937321D01*
X141435207Y-119937321D02*
X141416160Y-119918273D01*
X141416160Y-119918273D02*
X141397112Y-119880178D01*
X151822826Y-120298749D02*
X151822826Y-120108273D01*
X151937112Y-120336844D02*
X151537112Y-120203511D01*
X151537112Y-120203511D02*
X151937112Y-120070178D01*
X151937112Y-119727321D02*
X151937112Y-119955892D01*
X151937112Y-119841606D02*
X151537112Y-119841606D01*
X151537112Y-119841606D02*
X151594255Y-119879702D01*
X151594255Y-119879702D02*
X151632350Y-119917797D01*
X151632350Y-119917797D02*
X151651398Y-119955892D01*
X151537112Y-119479702D02*
X151537112Y-119441607D01*
X151537112Y-119441607D02*
X151556160Y-119403511D01*
X151556160Y-119403511D02*
X151575207Y-119384464D01*
X151575207Y-119384464D02*
X151613302Y-119365416D01*
X151613302Y-119365416D02*
X151689493Y-119346369D01*
X151689493Y-119346369D02*
X151784731Y-119346369D01*
X151784731Y-119346369D02*
X151860921Y-119365416D01*
X151860921Y-119365416D02*
X151899017Y-119384464D01*
X151899017Y-119384464D02*
X151918064Y-119403511D01*
X151918064Y-119403511D02*
X151937112Y-119441607D01*
X151937112Y-119441607D02*
X151937112Y-119479702D01*
X151937112Y-119479702D02*
X151918064Y-119517797D01*
X151918064Y-119517797D02*
X151899017Y-119536845D01*
X151899017Y-119536845D02*
X151860921Y-119555892D01*
X151860921Y-119555892D02*
X151784731Y-119574940D01*
X151784731Y-119574940D02*
X151689493Y-119574940D01*
X151689493Y-119574940D02*
X151613302Y-119555892D01*
X151613302Y-119555892D02*
X151575207Y-119536845D01*
X151575207Y-119536845D02*
X151556160Y-119517797D01*
X151556160Y-119517797D02*
X151537112Y-119479702D01*
X159567112Y-120108750D02*
X159376636Y-120242083D01*
X159567112Y-120337321D02*
X159167112Y-120337321D01*
X159167112Y-120337321D02*
X159167112Y-120184940D01*
X159167112Y-120184940D02*
X159186160Y-120146845D01*
X159186160Y-120146845D02*
X159205207Y-120127798D01*
X159205207Y-120127798D02*
X159243302Y-120108750D01*
X159243302Y-120108750D02*
X159300445Y-120108750D01*
X159300445Y-120108750D02*
X159338540Y-120127798D01*
X159338540Y-120127798D02*
X159357588Y-120146845D01*
X159357588Y-120146845D02*
X159376636Y-120184940D01*
X159376636Y-120184940D02*
X159376636Y-120337321D01*
X159567112Y-119937321D02*
X159167112Y-119937321D01*
X159167112Y-119937321D02*
X159167112Y-119842083D01*
X159167112Y-119842083D02*
X159186160Y-119784940D01*
X159186160Y-119784940D02*
X159224255Y-119746845D01*
X159224255Y-119746845D02*
X159262350Y-119727798D01*
X159262350Y-119727798D02*
X159338540Y-119708750D01*
X159338540Y-119708750D02*
X159395683Y-119708750D01*
X159395683Y-119708750D02*
X159471874Y-119727798D01*
X159471874Y-119727798D02*
X159509969Y-119746845D01*
X159509969Y-119746845D02*
X159548064Y-119784940D01*
X159548064Y-119784940D02*
X159567112Y-119842083D01*
X159567112Y-119842083D02*
X159567112Y-119937321D01*
X159026160Y-120392560D02*
X159026160Y-119672560D01*
X169757112Y-120140178D02*
X169566636Y-120273511D01*
X169757112Y-120368749D02*
X169357112Y-120368749D01*
X169357112Y-120368749D02*
X169357112Y-120216368D01*
X169357112Y-120216368D02*
X169376160Y-120178273D01*
X169376160Y-120178273D02*
X169395207Y-120159226D01*
X169395207Y-120159226D02*
X169433302Y-120140178D01*
X169433302Y-120140178D02*
X169490445Y-120140178D01*
X169490445Y-120140178D02*
X169528540Y-120159226D01*
X169528540Y-120159226D02*
X169547588Y-120178273D01*
X169547588Y-120178273D02*
X169566636Y-120216368D01*
X169566636Y-120216368D02*
X169566636Y-120368749D01*
X169547588Y-119835416D02*
X169547588Y-119968749D01*
X169757112Y-119968749D02*
X169357112Y-119968749D01*
X169357112Y-119968749D02*
X169357112Y-119778273D01*
X169738064Y-119644940D02*
X169757112Y-119587797D01*
X169757112Y-119587797D02*
X169757112Y-119492559D01*
X169757112Y-119492559D02*
X169738064Y-119454464D01*
X169738064Y-119454464D02*
X169719017Y-119435416D01*
X169719017Y-119435416D02*
X169680921Y-119416369D01*
X169680921Y-119416369D02*
X169642826Y-119416369D01*
X169642826Y-119416369D02*
X169604731Y-119435416D01*
X169604731Y-119435416D02*
X169585683Y-119454464D01*
X169585683Y-119454464D02*
X169566636Y-119492559D01*
X169566636Y-119492559D02*
X169547588Y-119568750D01*
X169547588Y-119568750D02*
X169528540Y-119606845D01*
X169528540Y-119606845D02*
X169509493Y-119625892D01*
X169509493Y-119625892D02*
X169471398Y-119644940D01*
X169471398Y-119644940D02*
X169433302Y-119644940D01*
X169433302Y-119644940D02*
X169395207Y-119625892D01*
X169395207Y-119625892D02*
X169376160Y-119606845D01*
X169376160Y-119606845D02*
X169357112Y-119568750D01*
X169357112Y-119568750D02*
X169357112Y-119473511D01*
X169357112Y-119473511D02*
X169376160Y-119416369D01*
X169757112Y-119244940D02*
X169357112Y-119244940D01*
X169547588Y-119244940D02*
X169547588Y-119016369D01*
X169757112Y-119016369D02*
X169357112Y-119016369D01*
X169216160Y-120423988D02*
X169216160Y-118961131D01*
X139122826Y-120318273D02*
X139122826Y-120127797D01*
X139237112Y-120356368D02*
X138837112Y-120223035D01*
X138837112Y-120223035D02*
X139237112Y-120089702D01*
X138875207Y-119975416D02*
X138856160Y-119956368D01*
X138856160Y-119956368D02*
X138837112Y-119918273D01*
X138837112Y-119918273D02*
X138837112Y-119823035D01*
X138837112Y-119823035D02*
X138856160Y-119784940D01*
X138856160Y-119784940D02*
X138875207Y-119765892D01*
X138875207Y-119765892D02*
X138913302Y-119746845D01*
X138913302Y-119746845D02*
X138951398Y-119746845D01*
X138951398Y-119746845D02*
X139008540Y-119765892D01*
X139008540Y-119765892D02*
X139237112Y-119994464D01*
X139237112Y-119994464D02*
X139237112Y-119746845D01*
X136602826Y-120318273D02*
X136602826Y-120127797D01*
X136717112Y-120356368D02*
X136317112Y-120223035D01*
X136317112Y-120223035D02*
X136717112Y-120089702D01*
X136450445Y-119784940D02*
X136717112Y-119784940D01*
X136298064Y-119880178D02*
X136583779Y-119975416D01*
X136583779Y-119975416D02*
X136583779Y-119727797D01*
X144202826Y-120268749D02*
X144202826Y-120078273D01*
X144317112Y-120306844D02*
X143917112Y-120173511D01*
X143917112Y-120173511D02*
X144317112Y-120040178D01*
X144317112Y-119697321D02*
X144317112Y-119925892D01*
X144317112Y-119811606D02*
X143917112Y-119811606D01*
X143917112Y-119811606D02*
X143974255Y-119849702D01*
X143974255Y-119849702D02*
X144012350Y-119887797D01*
X144012350Y-119887797D02*
X144031398Y-119925892D01*
X143917112Y-119563988D02*
X143917112Y-119316369D01*
X143917112Y-119316369D02*
X144069493Y-119449702D01*
X144069493Y-119449702D02*
X144069493Y-119392559D01*
X144069493Y-119392559D02*
X144088540Y-119354464D01*
X144088540Y-119354464D02*
X144107588Y-119335416D01*
X144107588Y-119335416D02*
X144145683Y-119316369D01*
X144145683Y-119316369D02*
X144240921Y-119316369D01*
X144240921Y-119316369D02*
X144279017Y-119335416D01*
X144279017Y-119335416D02*
X144298064Y-119354464D01*
X144298064Y-119354464D02*
X144317112Y-119392559D01*
X144317112Y-119392559D02*
X144317112Y-119506845D01*
X144317112Y-119506845D02*
X144298064Y-119544940D01*
X144298064Y-119544940D02*
X144279017Y-119563988D01*
X113684731Y-120327320D02*
X113684731Y-120022559D01*
X113837112Y-119622559D02*
X113837112Y-119851130D01*
X113837112Y-119736844D02*
X113437112Y-119736844D01*
X113437112Y-119736844D02*
X113494255Y-119774940D01*
X113494255Y-119774940D02*
X113532350Y-119813035D01*
X113532350Y-119813035D02*
X113551398Y-119851130D01*
X113475207Y-119470178D02*
X113456160Y-119451130D01*
X113456160Y-119451130D02*
X113437112Y-119413035D01*
X113437112Y-119413035D02*
X113437112Y-119317797D01*
X113437112Y-119317797D02*
X113456160Y-119279702D01*
X113456160Y-119279702D02*
X113475207Y-119260654D01*
X113475207Y-119260654D02*
X113513302Y-119241607D01*
X113513302Y-119241607D02*
X113551398Y-119241607D01*
X113551398Y-119241607D02*
X113608540Y-119260654D01*
X113608540Y-119260654D02*
X113837112Y-119489226D01*
X113837112Y-119489226D02*
X113837112Y-119241607D01*
X113437112Y-119127321D02*
X113837112Y-118993988D01*
X113837112Y-118993988D02*
X113437112Y-118860655D01*
X157017112Y-120367321D02*
X156617112Y-120367321D01*
X156617112Y-120367321D02*
X157017112Y-120138750D01*
X157017112Y-120138750D02*
X156617112Y-120138750D01*
X156979017Y-119948273D02*
X156998064Y-119929226D01*
X156998064Y-119929226D02*
X157017112Y-119948273D01*
X157017112Y-119948273D02*
X156998064Y-119967321D01*
X156998064Y-119967321D02*
X156979017Y-119948273D01*
X156979017Y-119948273D02*
X157017112Y-119948273D01*
X156979017Y-119529226D02*
X156998064Y-119548274D01*
X156998064Y-119548274D02*
X157017112Y-119605416D01*
X157017112Y-119605416D02*
X157017112Y-119643512D01*
X157017112Y-119643512D02*
X156998064Y-119700655D01*
X156998064Y-119700655D02*
X156959969Y-119738750D01*
X156959969Y-119738750D02*
X156921874Y-119757797D01*
X156921874Y-119757797D02*
X156845683Y-119776845D01*
X156845683Y-119776845D02*
X156788540Y-119776845D01*
X156788540Y-119776845D02*
X156712350Y-119757797D01*
X156712350Y-119757797D02*
X156674255Y-119738750D01*
X156674255Y-119738750D02*
X156636160Y-119700655D01*
X156636160Y-119700655D02*
X156617112Y-119643512D01*
X156617112Y-119643512D02*
X156617112Y-119605416D01*
X156617112Y-119605416D02*
X156636160Y-119548274D01*
X156636160Y-119548274D02*
X156655207Y-119529226D01*
X156979017Y-119357797D02*
X156998064Y-119338750D01*
X156998064Y-119338750D02*
X157017112Y-119357797D01*
X157017112Y-119357797D02*
X156998064Y-119376845D01*
X156998064Y-119376845D02*
X156979017Y-119357797D01*
X156979017Y-119357797D02*
X157017112Y-119357797D01*
X154312826Y-120298749D02*
X154312826Y-120108273D01*
X154427112Y-120336844D02*
X154027112Y-120203511D01*
X154027112Y-120203511D02*
X154427112Y-120070178D01*
X154427112Y-119727321D02*
X154427112Y-119955892D01*
X154427112Y-119841606D02*
X154027112Y-119841606D01*
X154027112Y-119841606D02*
X154084255Y-119879702D01*
X154084255Y-119879702D02*
X154122350Y-119917797D01*
X154122350Y-119917797D02*
X154141398Y-119955892D01*
X154027112Y-119365416D02*
X154027112Y-119555892D01*
X154027112Y-119555892D02*
X154217588Y-119574940D01*
X154217588Y-119574940D02*
X154198540Y-119555892D01*
X154198540Y-119555892D02*
X154179493Y-119517797D01*
X154179493Y-119517797D02*
X154179493Y-119422559D01*
X154179493Y-119422559D02*
X154198540Y-119384464D01*
X154198540Y-119384464D02*
X154217588Y-119365416D01*
X154217588Y-119365416D02*
X154255683Y-119346369D01*
X154255683Y-119346369D02*
X154350921Y-119346369D01*
X154350921Y-119346369D02*
X154389017Y-119365416D01*
X154389017Y-119365416D02*
X154408064Y-119384464D01*
X154408064Y-119384464D02*
X154427112Y-119422559D01*
X154427112Y-119422559D02*
X154427112Y-119517797D01*
X154427112Y-119517797D02*
X154408064Y-119555892D01*
X154408064Y-119555892D02*
X154389017Y-119574940D01*
X126537112Y-120297797D02*
X126137112Y-120297797D01*
X126137112Y-120297797D02*
X126137112Y-120202559D01*
X126137112Y-120202559D02*
X126156160Y-120145416D01*
X126156160Y-120145416D02*
X126194255Y-120107321D01*
X126194255Y-120107321D02*
X126232350Y-120088274D01*
X126232350Y-120088274D02*
X126308540Y-120069226D01*
X126308540Y-120069226D02*
X126365683Y-120069226D01*
X126365683Y-120069226D02*
X126441874Y-120088274D01*
X126441874Y-120088274D02*
X126479969Y-120107321D01*
X126479969Y-120107321D02*
X126518064Y-120145416D01*
X126518064Y-120145416D02*
X126537112Y-120202559D01*
X126537112Y-120202559D02*
X126537112Y-120297797D01*
X126137112Y-119726369D02*
X126137112Y-119802559D01*
X126137112Y-119802559D02*
X126156160Y-119840655D01*
X126156160Y-119840655D02*
X126175207Y-119859702D01*
X126175207Y-119859702D02*
X126232350Y-119897797D01*
X126232350Y-119897797D02*
X126308540Y-119916845D01*
X126308540Y-119916845D02*
X126460921Y-119916845D01*
X126460921Y-119916845D02*
X126499017Y-119897797D01*
X126499017Y-119897797D02*
X126518064Y-119878750D01*
X126518064Y-119878750D02*
X126537112Y-119840655D01*
X126537112Y-119840655D02*
X126537112Y-119764464D01*
X126537112Y-119764464D02*
X126518064Y-119726369D01*
X126518064Y-119726369D02*
X126499017Y-119707321D01*
X126499017Y-119707321D02*
X126460921Y-119688274D01*
X126460921Y-119688274D02*
X126365683Y-119688274D01*
X126365683Y-119688274D02*
X126327588Y-119707321D01*
X126327588Y-119707321D02*
X126308540Y-119726369D01*
X126308540Y-119726369D02*
X126289493Y-119764464D01*
X126289493Y-119764464D02*
X126289493Y-119840655D01*
X126289493Y-119840655D02*
X126308540Y-119878750D01*
X126308540Y-119878750D02*
X126327588Y-119897797D01*
X126327588Y-119897797D02*
X126365683Y-119916845D01*
X131607112Y-120327797D02*
X131207112Y-120327797D01*
X131207112Y-120327797D02*
X131207112Y-120232559D01*
X131207112Y-120232559D02*
X131226160Y-120175416D01*
X131226160Y-120175416D02*
X131264255Y-120137321D01*
X131264255Y-120137321D02*
X131302350Y-120118274D01*
X131302350Y-120118274D02*
X131378540Y-120099226D01*
X131378540Y-120099226D02*
X131435683Y-120099226D01*
X131435683Y-120099226D02*
X131511874Y-120118274D01*
X131511874Y-120118274D02*
X131549969Y-120137321D01*
X131549969Y-120137321D02*
X131588064Y-120175416D01*
X131588064Y-120175416D02*
X131607112Y-120232559D01*
X131607112Y-120232559D02*
X131607112Y-120327797D01*
X131245207Y-119946845D02*
X131226160Y-119927797D01*
X131226160Y-119927797D02*
X131207112Y-119889702D01*
X131207112Y-119889702D02*
X131207112Y-119794464D01*
X131207112Y-119794464D02*
X131226160Y-119756369D01*
X131226160Y-119756369D02*
X131245207Y-119737321D01*
X131245207Y-119737321D02*
X131283302Y-119718274D01*
X131283302Y-119718274D02*
X131321398Y-119718274D01*
X131321398Y-119718274D02*
X131378540Y-119737321D01*
X131378540Y-119737321D02*
X131607112Y-119965893D01*
X131607112Y-119965893D02*
X131607112Y-119718274D01*
X172248064Y-120383512D02*
X172267112Y-120326369D01*
X172267112Y-120326369D02*
X172267112Y-120231131D01*
X172267112Y-120231131D02*
X172248064Y-120193036D01*
X172248064Y-120193036D02*
X172229017Y-120173988D01*
X172229017Y-120173988D02*
X172190921Y-120154941D01*
X172190921Y-120154941D02*
X172152826Y-120154941D01*
X172152826Y-120154941D02*
X172114731Y-120173988D01*
X172114731Y-120173988D02*
X172095683Y-120193036D01*
X172095683Y-120193036D02*
X172076636Y-120231131D01*
X172076636Y-120231131D02*
X172057588Y-120307322D01*
X172057588Y-120307322D02*
X172038540Y-120345417D01*
X172038540Y-120345417D02*
X172019493Y-120364464D01*
X172019493Y-120364464D02*
X171981398Y-120383512D01*
X171981398Y-120383512D02*
X171943302Y-120383512D01*
X171943302Y-120383512D02*
X171905207Y-120364464D01*
X171905207Y-120364464D02*
X171886160Y-120345417D01*
X171886160Y-120345417D02*
X171867112Y-120307322D01*
X171867112Y-120307322D02*
X171867112Y-120212083D01*
X171867112Y-120212083D02*
X171886160Y-120154941D01*
X172267112Y-119793036D02*
X172267112Y-119983512D01*
X172267112Y-119983512D02*
X171867112Y-119983512D01*
X171867112Y-119716845D02*
X171867112Y-119488274D01*
X172267112Y-119602560D02*
X171867112Y-119602560D01*
X172248064Y-119373988D02*
X172267112Y-119316845D01*
X172267112Y-119316845D02*
X172267112Y-119221607D01*
X172267112Y-119221607D02*
X172248064Y-119183512D01*
X172248064Y-119183512D02*
X172229017Y-119164464D01*
X172229017Y-119164464D02*
X172190921Y-119145417D01*
X172190921Y-119145417D02*
X172152826Y-119145417D01*
X172152826Y-119145417D02*
X172114731Y-119164464D01*
X172114731Y-119164464D02*
X172095683Y-119183512D01*
X172095683Y-119183512D02*
X172076636Y-119221607D01*
X172076636Y-119221607D02*
X172057588Y-119297798D01*
X172057588Y-119297798D02*
X172038540Y-119335893D01*
X172038540Y-119335893D02*
X172019493Y-119354940D01*
X172019493Y-119354940D02*
X171981398Y-119373988D01*
X171981398Y-119373988D02*
X171943302Y-119373988D01*
X171943302Y-119373988D02*
X171905207Y-119354940D01*
X171905207Y-119354940D02*
X171886160Y-119335893D01*
X171886160Y-119335893D02*
X171867112Y-119297798D01*
X171867112Y-119297798D02*
X171867112Y-119202559D01*
X171867112Y-119202559D02*
X171886160Y-119145417D01*
X172267112Y-118783512D02*
X172267112Y-118973988D01*
X172267112Y-118973988D02*
X171867112Y-118973988D01*
X171726160Y-120419703D02*
X171726160Y-118785417D01*
X129057112Y-120327797D02*
X128657112Y-120327797D01*
X128657112Y-120327797D02*
X128657112Y-120232559D01*
X128657112Y-120232559D02*
X128676160Y-120175416D01*
X128676160Y-120175416D02*
X128714255Y-120137321D01*
X128714255Y-120137321D02*
X128752350Y-120118274D01*
X128752350Y-120118274D02*
X128828540Y-120099226D01*
X128828540Y-120099226D02*
X128885683Y-120099226D01*
X128885683Y-120099226D02*
X128961874Y-120118274D01*
X128961874Y-120118274D02*
X128999969Y-120137321D01*
X128999969Y-120137321D02*
X129038064Y-120175416D01*
X129038064Y-120175416D02*
X129057112Y-120232559D01*
X129057112Y-120232559D02*
X129057112Y-120327797D01*
X128790445Y-119756369D02*
X129057112Y-119756369D01*
X128638064Y-119851607D02*
X128923779Y-119946845D01*
X128923779Y-119946845D02*
X128923779Y-119699226D01*
X149272826Y-120288273D02*
X149272826Y-120097797D01*
X149387112Y-120326368D02*
X148987112Y-120193035D01*
X148987112Y-120193035D02*
X149387112Y-120059702D01*
X148987112Y-119754940D02*
X148987112Y-119831130D01*
X148987112Y-119831130D02*
X149006160Y-119869226D01*
X149006160Y-119869226D02*
X149025207Y-119888273D01*
X149025207Y-119888273D02*
X149082350Y-119926368D01*
X149082350Y-119926368D02*
X149158540Y-119945416D01*
X149158540Y-119945416D02*
X149310921Y-119945416D01*
X149310921Y-119945416D02*
X149349017Y-119926368D01*
X149349017Y-119926368D02*
X149368064Y-119907321D01*
X149368064Y-119907321D02*
X149387112Y-119869226D01*
X149387112Y-119869226D02*
X149387112Y-119793035D01*
X149387112Y-119793035D02*
X149368064Y-119754940D01*
X149368064Y-119754940D02*
X149349017Y-119735892D01*
X149349017Y-119735892D02*
X149310921Y-119716845D01*
X149310921Y-119716845D02*
X149215683Y-119716845D01*
X149215683Y-119716845D02*
X149177588Y-119735892D01*
X149177588Y-119735892D02*
X149158540Y-119754940D01*
X149158540Y-119754940D02*
X149139493Y-119793035D01*
X149139493Y-119793035D02*
X149139493Y-119869226D01*
X149139493Y-119869226D02*
X149158540Y-119907321D01*
X149158540Y-119907321D02*
X149177588Y-119926368D01*
X149177588Y-119926368D02*
X149215683Y-119945416D01*
D11*
%TO.C,C1*%
X143011768Y-73586622D02*
X143059387Y-73634241D01*
X143059387Y-73634241D02*
X143107006Y-73777098D01*
X143107006Y-73777098D02*
X143107006Y-73872336D01*
X143107006Y-73872336D02*
X143059387Y-74015193D01*
X143059387Y-74015193D02*
X142964149Y-74110431D01*
X142964149Y-74110431D02*
X142868911Y-74158050D01*
X142868911Y-74158050D02*
X142678435Y-74205669D01*
X142678435Y-74205669D02*
X142535578Y-74205669D01*
X142535578Y-74205669D02*
X142345102Y-74158050D01*
X142345102Y-74158050D02*
X142249864Y-74110431D01*
X142249864Y-74110431D02*
X142154626Y-74015193D01*
X142154626Y-74015193D02*
X142107006Y-73872336D01*
X142107006Y-73872336D02*
X142107006Y-73777098D01*
X142107006Y-73777098D02*
X142154626Y-73634241D01*
X142154626Y-73634241D02*
X142202245Y-73586622D01*
X143107006Y-72634241D02*
X143107006Y-73205669D01*
X143107006Y-72919955D02*
X142107006Y-72919955D01*
X142107006Y-72919955D02*
X142249864Y-73015193D01*
X142249864Y-73015193D02*
X142345102Y-73110431D01*
X142345102Y-73110431D02*
X142392721Y-73205669D01*
X139594874Y-75055416D02*
X139594874Y-74960178D01*
X139594874Y-74960178D02*
X139642494Y-74864940D01*
X139642494Y-74864940D02*
X139690113Y-74817321D01*
X139690113Y-74817321D02*
X139785351Y-74769702D01*
X139785351Y-74769702D02*
X139975827Y-74722083D01*
X139975827Y-74722083D02*
X140213922Y-74722083D01*
X140213922Y-74722083D02*
X140404398Y-74769702D01*
X140404398Y-74769702D02*
X140499636Y-74817321D01*
X140499636Y-74817321D02*
X140547255Y-74864940D01*
X140547255Y-74864940D02*
X140594874Y-74960178D01*
X140594874Y-74960178D02*
X140594874Y-75055416D01*
X140594874Y-75055416D02*
X140547255Y-75150654D01*
X140547255Y-75150654D02*
X140499636Y-75198273D01*
X140499636Y-75198273D02*
X140404398Y-75245892D01*
X140404398Y-75245892D02*
X140213922Y-75293511D01*
X140213922Y-75293511D02*
X139975827Y-75293511D01*
X139975827Y-75293511D02*
X139785351Y-75245892D01*
X139785351Y-75245892D02*
X139690113Y-75198273D01*
X139690113Y-75198273D02*
X139642494Y-75150654D01*
X139642494Y-75150654D02*
X139594874Y-75055416D01*
X140499636Y-74293511D02*
X140547255Y-74245892D01*
X140547255Y-74245892D02*
X140594874Y-74293511D01*
X140594874Y-74293511D02*
X140547255Y-74341130D01*
X140547255Y-74341130D02*
X140499636Y-74293511D01*
X140499636Y-74293511D02*
X140594874Y-74293511D01*
X140594874Y-73293512D02*
X140594874Y-73864940D01*
X140594874Y-73579226D02*
X139594874Y-73579226D01*
X139594874Y-73579226D02*
X139737732Y-73674464D01*
X139737732Y-73674464D02*
X139832970Y-73769702D01*
X139832970Y-73769702D02*
X139880589Y-73864940D01*
X139928208Y-72436369D02*
X140594874Y-72436369D01*
X139928208Y-72864940D02*
X140452017Y-72864940D01*
X140452017Y-72864940D02*
X140547255Y-72817321D01*
X140547255Y-72817321D02*
X140594874Y-72722083D01*
X140594874Y-72722083D02*
X140594874Y-72579226D01*
X140594874Y-72579226D02*
X140547255Y-72483988D01*
X140547255Y-72483988D02*
X140499636Y-72436369D01*
X140071065Y-71626845D02*
X140071065Y-71960178D01*
X140594874Y-71960178D02*
X139594874Y-71960178D01*
X139594874Y-71960178D02*
X139594874Y-71483988D01*
%TO.C,C7*%
X134393322Y-68591163D02*
X134345703Y-68638782D01*
X134345703Y-68638782D02*
X134202846Y-68686401D01*
X134202846Y-68686401D02*
X134107608Y-68686401D01*
X134107608Y-68686401D02*
X133964751Y-68638782D01*
X133964751Y-68638782D02*
X133869513Y-68543544D01*
X133869513Y-68543544D02*
X133821894Y-68448306D01*
X133821894Y-68448306D02*
X133774275Y-68257830D01*
X133774275Y-68257830D02*
X133774275Y-68114973D01*
X133774275Y-68114973D02*
X133821894Y-67924497D01*
X133821894Y-67924497D02*
X133869513Y-67829259D01*
X133869513Y-67829259D02*
X133964751Y-67734021D01*
X133964751Y-67734021D02*
X134107608Y-67686401D01*
X134107608Y-67686401D02*
X134202846Y-67686401D01*
X134202846Y-67686401D02*
X134345703Y-67734021D01*
X134345703Y-67734021D02*
X134393322Y-67781640D01*
X134726656Y-67686401D02*
X135393322Y-67686401D01*
X135393322Y-67686401D02*
X134964751Y-68686401D01*
X138678488Y-66501335D02*
X138773726Y-66501335D01*
X138773726Y-66501335D02*
X138868964Y-66548955D01*
X138868964Y-66548955D02*
X138916583Y-66596574D01*
X138916583Y-66596574D02*
X138964202Y-66691812D01*
X138964202Y-66691812D02*
X139011821Y-66882288D01*
X139011821Y-66882288D02*
X139011821Y-67120383D01*
X139011821Y-67120383D02*
X138964202Y-67310859D01*
X138964202Y-67310859D02*
X138916583Y-67406097D01*
X138916583Y-67406097D02*
X138868964Y-67453716D01*
X138868964Y-67453716D02*
X138773726Y-67501335D01*
X138773726Y-67501335D02*
X138678488Y-67501335D01*
X138678488Y-67501335D02*
X138583250Y-67453716D01*
X138583250Y-67453716D02*
X138535631Y-67406097D01*
X138535631Y-67406097D02*
X138488012Y-67310859D01*
X138488012Y-67310859D02*
X138440393Y-67120383D01*
X138440393Y-67120383D02*
X138440393Y-66882288D01*
X138440393Y-66882288D02*
X138488012Y-66691812D01*
X138488012Y-66691812D02*
X138535631Y-66596574D01*
X138535631Y-66596574D02*
X138583250Y-66548955D01*
X138583250Y-66548955D02*
X138678488Y-66501335D01*
X139440393Y-67406097D02*
X139488012Y-67453716D01*
X139488012Y-67453716D02*
X139440393Y-67501335D01*
X139440393Y-67501335D02*
X139392774Y-67453716D01*
X139392774Y-67453716D02*
X139440393Y-67406097D01*
X139440393Y-67406097D02*
X139440393Y-67501335D01*
X140440392Y-67501335D02*
X139868964Y-67501335D01*
X140154678Y-67501335D02*
X140154678Y-66501335D01*
X140154678Y-66501335D02*
X140059440Y-66644193D01*
X140059440Y-66644193D02*
X139964202Y-66739431D01*
X139964202Y-66739431D02*
X139868964Y-66787050D01*
X141297535Y-66834669D02*
X141297535Y-67501335D01*
X140868964Y-66834669D02*
X140868964Y-67358478D01*
X140868964Y-67358478D02*
X140916583Y-67453716D01*
X140916583Y-67453716D02*
X141011821Y-67501335D01*
X141011821Y-67501335D02*
X141154678Y-67501335D01*
X141154678Y-67501335D02*
X141249916Y-67453716D01*
X141249916Y-67453716D02*
X141297535Y-67406097D01*
X142107059Y-66977526D02*
X141773726Y-66977526D01*
X141773726Y-67501335D02*
X141773726Y-66501335D01*
X141773726Y-66501335D02*
X142249916Y-66501335D01*
%TO.C,U3*%
X134141099Y-99544464D02*
X134950623Y-99544464D01*
X134950623Y-99544464D02*
X135045861Y-99496845D01*
X135045861Y-99496845D02*
X135093480Y-99449226D01*
X135093480Y-99449226D02*
X135141099Y-99353988D01*
X135141099Y-99353988D02*
X135141099Y-99163512D01*
X135141099Y-99163512D02*
X135093480Y-99068274D01*
X135093480Y-99068274D02*
X135045861Y-99020655D01*
X135045861Y-99020655D02*
X134950623Y-98973036D01*
X134950623Y-98973036D02*
X134141099Y-98973036D01*
X134141099Y-98592083D02*
X134141099Y-97973036D01*
X134141099Y-97973036D02*
X134522052Y-98306369D01*
X134522052Y-98306369D02*
X134522052Y-98163512D01*
X134522052Y-98163512D02*
X134569671Y-98068274D01*
X134569671Y-98068274D02*
X134617290Y-98020655D01*
X134617290Y-98020655D02*
X134712528Y-97973036D01*
X134712528Y-97973036D02*
X134950623Y-97973036D01*
X134950623Y-97973036D02*
X135045861Y-98020655D01*
X135045861Y-98020655D02*
X135093480Y-98068274D01*
X135093480Y-98068274D02*
X135141099Y-98163512D01*
X135141099Y-98163512D02*
X135141099Y-98449226D01*
X135141099Y-98449226D02*
X135093480Y-98544464D01*
X135093480Y-98544464D02*
X135045861Y-98592083D01*
X114241099Y-101425416D02*
X114241099Y-100758750D01*
X114241099Y-100758750D02*
X115241099Y-101187321D01*
X114574433Y-99949226D02*
X115241099Y-99949226D01*
X114193480Y-100187321D02*
X114907766Y-100425416D01*
X114907766Y-100425416D02*
X114907766Y-99806369D01*
X115241099Y-98949226D02*
X115241099Y-99425416D01*
X115241099Y-99425416D02*
X114241099Y-99425416D01*
X115193480Y-98663511D02*
X115241099Y-98520654D01*
X115241099Y-98520654D02*
X115241099Y-98282559D01*
X115241099Y-98282559D02*
X115193480Y-98187321D01*
X115193480Y-98187321D02*
X115145861Y-98139702D01*
X115145861Y-98139702D02*
X115050623Y-98092083D01*
X115050623Y-98092083D02*
X114955385Y-98092083D01*
X114955385Y-98092083D02*
X114860147Y-98139702D01*
X114860147Y-98139702D02*
X114812528Y-98187321D01*
X114812528Y-98187321D02*
X114764909Y-98282559D01*
X114764909Y-98282559D02*
X114717290Y-98473035D01*
X114717290Y-98473035D02*
X114669671Y-98568273D01*
X114669671Y-98568273D02*
X114622052Y-98615892D01*
X114622052Y-98615892D02*
X114526814Y-98663511D01*
X114526814Y-98663511D02*
X114431576Y-98663511D01*
X114431576Y-98663511D02*
X114336338Y-98615892D01*
X114336338Y-98615892D02*
X114288719Y-98568273D01*
X114288719Y-98568273D02*
X114241099Y-98473035D01*
X114241099Y-98473035D02*
X114241099Y-98234940D01*
X114241099Y-98234940D02*
X114288719Y-98092083D01*
X114241099Y-97473035D02*
X114241099Y-97377797D01*
X114241099Y-97377797D02*
X114288719Y-97282559D01*
X114288719Y-97282559D02*
X114336338Y-97234940D01*
X114336338Y-97234940D02*
X114431576Y-97187321D01*
X114431576Y-97187321D02*
X114622052Y-97139702D01*
X114622052Y-97139702D02*
X114860147Y-97139702D01*
X114860147Y-97139702D02*
X115050623Y-97187321D01*
X115050623Y-97187321D02*
X115145861Y-97234940D01*
X115145861Y-97234940D02*
X115193480Y-97282559D01*
X115193480Y-97282559D02*
X115241099Y-97377797D01*
X115241099Y-97377797D02*
X115241099Y-97473035D01*
X115241099Y-97473035D02*
X115193480Y-97568273D01*
X115193480Y-97568273D02*
X115145861Y-97615892D01*
X115145861Y-97615892D02*
X115050623Y-97663511D01*
X115050623Y-97663511D02*
X114860147Y-97711130D01*
X114860147Y-97711130D02*
X114622052Y-97711130D01*
X114622052Y-97711130D02*
X114431576Y-97663511D01*
X114431576Y-97663511D02*
X114336338Y-97615892D01*
X114336338Y-97615892D02*
X114288719Y-97568273D01*
X114288719Y-97568273D02*
X114241099Y-97473035D01*
X114336338Y-96758749D02*
X114288719Y-96711130D01*
X114288719Y-96711130D02*
X114241099Y-96615892D01*
X114241099Y-96615892D02*
X114241099Y-96377797D01*
X114241099Y-96377797D02*
X114288719Y-96282559D01*
X114288719Y-96282559D02*
X114336338Y-96234940D01*
X114336338Y-96234940D02*
X114431576Y-96187321D01*
X114431576Y-96187321D02*
X114526814Y-96187321D01*
X114526814Y-96187321D02*
X114669671Y-96234940D01*
X114669671Y-96234940D02*
X115241099Y-96806368D01*
X115241099Y-96806368D02*
X115241099Y-96187321D01*
%TO.C,C2*%
X142901515Y-93835446D02*
X142949134Y-93883065D01*
X142949134Y-93883065D02*
X142996753Y-94025922D01*
X142996753Y-94025922D02*
X142996753Y-94121160D01*
X142996753Y-94121160D02*
X142949134Y-94264017D01*
X142949134Y-94264017D02*
X142853896Y-94359255D01*
X142853896Y-94359255D02*
X142758658Y-94406874D01*
X142758658Y-94406874D02*
X142568182Y-94454493D01*
X142568182Y-94454493D02*
X142425325Y-94454493D01*
X142425325Y-94454493D02*
X142234849Y-94406874D01*
X142234849Y-94406874D02*
X142139611Y-94359255D01*
X142139611Y-94359255D02*
X142044373Y-94264017D01*
X142044373Y-94264017D02*
X141996753Y-94121160D01*
X141996753Y-94121160D02*
X141996753Y-94025922D01*
X141996753Y-94025922D02*
X142044373Y-93883065D01*
X142044373Y-93883065D02*
X142091992Y-93835446D01*
X142091992Y-93454493D02*
X142044373Y-93406874D01*
X142044373Y-93406874D02*
X141996753Y-93311636D01*
X141996753Y-93311636D02*
X141996753Y-93073541D01*
X141996753Y-93073541D02*
X142044373Y-92978303D01*
X142044373Y-92978303D02*
X142091992Y-92930684D01*
X142091992Y-92930684D02*
X142187230Y-92883065D01*
X142187230Y-92883065D02*
X142282468Y-92883065D01*
X142282468Y-92883065D02*
X142425325Y-92930684D01*
X142425325Y-92930684D02*
X142996753Y-93502112D01*
X142996753Y-93502112D02*
X142996753Y-92883065D01*
X139510955Y-95295416D02*
X139510955Y-95200178D01*
X139510955Y-95200178D02*
X139558575Y-95104940D01*
X139558575Y-95104940D02*
X139606194Y-95057321D01*
X139606194Y-95057321D02*
X139701432Y-95009702D01*
X139701432Y-95009702D02*
X139891908Y-94962083D01*
X139891908Y-94962083D02*
X140130003Y-94962083D01*
X140130003Y-94962083D02*
X140320479Y-95009702D01*
X140320479Y-95009702D02*
X140415717Y-95057321D01*
X140415717Y-95057321D02*
X140463336Y-95104940D01*
X140463336Y-95104940D02*
X140510955Y-95200178D01*
X140510955Y-95200178D02*
X140510955Y-95295416D01*
X140510955Y-95295416D02*
X140463336Y-95390654D01*
X140463336Y-95390654D02*
X140415717Y-95438273D01*
X140415717Y-95438273D02*
X140320479Y-95485892D01*
X140320479Y-95485892D02*
X140130003Y-95533511D01*
X140130003Y-95533511D02*
X139891908Y-95533511D01*
X139891908Y-95533511D02*
X139701432Y-95485892D01*
X139701432Y-95485892D02*
X139606194Y-95438273D01*
X139606194Y-95438273D02*
X139558575Y-95390654D01*
X139558575Y-95390654D02*
X139510955Y-95295416D01*
X140415717Y-94533511D02*
X140463336Y-94485892D01*
X140463336Y-94485892D02*
X140510955Y-94533511D01*
X140510955Y-94533511D02*
X140463336Y-94581130D01*
X140463336Y-94581130D02*
X140415717Y-94533511D01*
X140415717Y-94533511D02*
X140510955Y-94533511D01*
X140510955Y-93533512D02*
X140510955Y-94104940D01*
X140510955Y-93819226D02*
X139510955Y-93819226D01*
X139510955Y-93819226D02*
X139653813Y-93914464D01*
X139653813Y-93914464D02*
X139749051Y-94009702D01*
X139749051Y-94009702D02*
X139796670Y-94104940D01*
X139844289Y-92676369D02*
X140510955Y-92676369D01*
X139844289Y-93104940D02*
X140368098Y-93104940D01*
X140368098Y-93104940D02*
X140463336Y-93057321D01*
X140463336Y-93057321D02*
X140510955Y-92962083D01*
X140510955Y-92962083D02*
X140510955Y-92819226D01*
X140510955Y-92819226D02*
X140463336Y-92723988D01*
X140463336Y-92723988D02*
X140415717Y-92676369D01*
X139987146Y-91866845D02*
X139987146Y-92200178D01*
X140510955Y-92200178D02*
X139510955Y-92200178D01*
X139510955Y-92200178D02*
X139510955Y-91723988D01*
%TO.C,R2*%
X100354061Y-76433655D02*
X99877871Y-76766988D01*
X100354061Y-77005083D02*
X99354061Y-77005083D01*
X99354061Y-77005083D02*
X99354061Y-76624131D01*
X99354061Y-76624131D02*
X99401681Y-76528893D01*
X99401681Y-76528893D02*
X99449300Y-76481274D01*
X99449300Y-76481274D02*
X99544538Y-76433655D01*
X99544538Y-76433655D02*
X99687395Y-76433655D01*
X99687395Y-76433655D02*
X99782633Y-76481274D01*
X99782633Y-76481274D02*
X99830252Y-76528893D01*
X99830252Y-76528893D02*
X99877871Y-76624131D01*
X99877871Y-76624131D02*
X99877871Y-77005083D01*
X99449300Y-76052702D02*
X99401681Y-76005083D01*
X99401681Y-76005083D02*
X99354061Y-75909845D01*
X99354061Y-75909845D02*
X99354061Y-75671750D01*
X99354061Y-75671750D02*
X99401681Y-75576512D01*
X99401681Y-75576512D02*
X99449300Y-75528893D01*
X99449300Y-75528893D02*
X99544538Y-75481274D01*
X99544538Y-75481274D02*
X99639776Y-75481274D01*
X99639776Y-75481274D02*
X99782633Y-75528893D01*
X99782633Y-75528893D02*
X100354061Y-76100321D01*
X100354061Y-76100321D02*
X100354061Y-75481274D01*
X102037944Y-77099353D02*
X102704610Y-77099353D01*
X101656991Y-77337448D02*
X102371277Y-77575543D01*
X102371277Y-77575543D02*
X102371277Y-76956496D01*
X101704610Y-76670781D02*
X101704610Y-76004115D01*
X101704610Y-76004115D02*
X102704610Y-76432686D01*
X101704610Y-75432686D02*
X101704610Y-75337448D01*
X101704610Y-75337448D02*
X101752230Y-75242210D01*
X101752230Y-75242210D02*
X101799849Y-75194591D01*
X101799849Y-75194591D02*
X101895087Y-75146972D01*
X101895087Y-75146972D02*
X102085563Y-75099353D01*
X102085563Y-75099353D02*
X102323658Y-75099353D01*
X102323658Y-75099353D02*
X102514134Y-75146972D01*
X102514134Y-75146972D02*
X102609372Y-75194591D01*
X102609372Y-75194591D02*
X102656991Y-75242210D01*
X102656991Y-75242210D02*
X102704610Y-75337448D01*
X102704610Y-75337448D02*
X102704610Y-75432686D01*
X102704610Y-75432686D02*
X102656991Y-75527924D01*
X102656991Y-75527924D02*
X102609372Y-75575543D01*
X102609372Y-75575543D02*
X102514134Y-75623162D01*
X102514134Y-75623162D02*
X102323658Y-75670781D01*
X102323658Y-75670781D02*
X102085563Y-75670781D01*
X102085563Y-75670781D02*
X101895087Y-75623162D01*
X101895087Y-75623162D02*
X101799849Y-75575543D01*
X101799849Y-75575543D02*
X101752230Y-75527924D01*
X101752230Y-75527924D02*
X101704610Y-75432686D01*
%TO.C,R6*%
X100822058Y-97046478D02*
X100488725Y-96570288D01*
X100250630Y-97046478D02*
X100250630Y-96046478D01*
X100250630Y-96046478D02*
X100631582Y-96046478D01*
X100631582Y-96046478D02*
X100726820Y-96094098D01*
X100726820Y-96094098D02*
X100774439Y-96141717D01*
X100774439Y-96141717D02*
X100822058Y-96236955D01*
X100822058Y-96236955D02*
X100822058Y-96379812D01*
X100822058Y-96379812D02*
X100774439Y-96475050D01*
X100774439Y-96475050D02*
X100726820Y-96522669D01*
X100726820Y-96522669D02*
X100631582Y-96570288D01*
X100631582Y-96570288D02*
X100250630Y-96570288D01*
X101679201Y-96046478D02*
X101488725Y-96046478D01*
X101488725Y-96046478D02*
X101393487Y-96094098D01*
X101393487Y-96094098D02*
X101345868Y-96141717D01*
X101345868Y-96141717D02*
X101250630Y-96284574D01*
X101250630Y-96284574D02*
X101203011Y-96475050D01*
X101203011Y-96475050D02*
X101203011Y-96856002D01*
X101203011Y-96856002D02*
X101250630Y-96951240D01*
X101250630Y-96951240D02*
X101298249Y-96998859D01*
X101298249Y-96998859D02*
X101393487Y-97046478D01*
X101393487Y-97046478D02*
X101583963Y-97046478D01*
X101583963Y-97046478D02*
X101679201Y-96998859D01*
X101679201Y-96998859D02*
X101726820Y-96951240D01*
X101726820Y-96951240D02*
X101774439Y-96856002D01*
X101774439Y-96856002D02*
X101774439Y-96617907D01*
X101774439Y-96617907D02*
X101726820Y-96522669D01*
X101726820Y-96522669D02*
X101679201Y-96475050D01*
X101679201Y-96475050D02*
X101583963Y-96427431D01*
X101583963Y-96427431D02*
X101393487Y-96427431D01*
X101393487Y-96427431D02*
X101298249Y-96475050D01*
X101298249Y-96475050D02*
X101250630Y-96522669D01*
X101250630Y-96522669D02*
X101203011Y-96617907D01*
X102318804Y-94197057D02*
X102318804Y-94863723D01*
X102080709Y-93816104D02*
X101842614Y-94530390D01*
X101842614Y-94530390D02*
X102461661Y-94530390D01*
X102747376Y-93863723D02*
X103414042Y-93863723D01*
X103414042Y-93863723D02*
X102985471Y-94863723D01*
X103985471Y-93863723D02*
X104080709Y-93863723D01*
X104080709Y-93863723D02*
X104175947Y-93911343D01*
X104175947Y-93911343D02*
X104223566Y-93958962D01*
X104223566Y-93958962D02*
X104271185Y-94054200D01*
X104271185Y-94054200D02*
X104318804Y-94244676D01*
X104318804Y-94244676D02*
X104318804Y-94482771D01*
X104318804Y-94482771D02*
X104271185Y-94673247D01*
X104271185Y-94673247D02*
X104223566Y-94768485D01*
X104223566Y-94768485D02*
X104175947Y-94816104D01*
X104175947Y-94816104D02*
X104080709Y-94863723D01*
X104080709Y-94863723D02*
X103985471Y-94863723D01*
X103985471Y-94863723D02*
X103890233Y-94816104D01*
X103890233Y-94816104D02*
X103842614Y-94768485D01*
X103842614Y-94768485D02*
X103794995Y-94673247D01*
X103794995Y-94673247D02*
X103747376Y-94482771D01*
X103747376Y-94482771D02*
X103747376Y-94244676D01*
X103747376Y-94244676D02*
X103794995Y-94054200D01*
X103794995Y-94054200D02*
X103842614Y-93958962D01*
X103842614Y-93958962D02*
X103890233Y-93911343D01*
X103890233Y-93911343D02*
X103985471Y-93863723D01*
%TO.C,R5*%
X100817871Y-101107687D02*
X100484538Y-100631497D01*
X100246443Y-101107687D02*
X100246443Y-100107687D01*
X100246443Y-100107687D02*
X100627395Y-100107687D01*
X100627395Y-100107687D02*
X100722633Y-100155307D01*
X100722633Y-100155307D02*
X100770252Y-100202926D01*
X100770252Y-100202926D02*
X100817871Y-100298164D01*
X100817871Y-100298164D02*
X100817871Y-100441021D01*
X100817871Y-100441021D02*
X100770252Y-100536259D01*
X100770252Y-100536259D02*
X100722633Y-100583878D01*
X100722633Y-100583878D02*
X100627395Y-100631497D01*
X100627395Y-100631497D02*
X100246443Y-100631497D01*
X101722633Y-100107687D02*
X101246443Y-100107687D01*
X101246443Y-100107687D02*
X101198824Y-100583878D01*
X101198824Y-100583878D02*
X101246443Y-100536259D01*
X101246443Y-100536259D02*
X101341681Y-100488640D01*
X101341681Y-100488640D02*
X101579776Y-100488640D01*
X101579776Y-100488640D02*
X101675014Y-100536259D01*
X101675014Y-100536259D02*
X101722633Y-100583878D01*
X101722633Y-100583878D02*
X101770252Y-100679116D01*
X101770252Y-100679116D02*
X101770252Y-100917211D01*
X101770252Y-100917211D02*
X101722633Y-101012449D01*
X101722633Y-101012449D02*
X101675014Y-101060068D01*
X101675014Y-101060068D02*
X101579776Y-101107687D01*
X101579776Y-101107687D02*
X101341681Y-101107687D01*
X101341681Y-101107687D02*
X101246443Y-101060068D01*
X101246443Y-101060068D02*
X101198824Y-101012449D01*
X100219570Y-103025084D02*
X100219570Y-103691750D01*
X99981475Y-102644131D02*
X99743380Y-103358417D01*
X99743380Y-103358417D02*
X100362427Y-103358417D01*
X100648142Y-102691750D02*
X101314808Y-102691750D01*
X101314808Y-102691750D02*
X100886237Y-103691750D01*
X101886237Y-102691750D02*
X101981475Y-102691750D01*
X101981475Y-102691750D02*
X102076713Y-102739370D01*
X102076713Y-102739370D02*
X102124332Y-102786989D01*
X102124332Y-102786989D02*
X102171951Y-102882227D01*
X102171951Y-102882227D02*
X102219570Y-103072703D01*
X102219570Y-103072703D02*
X102219570Y-103310798D01*
X102219570Y-103310798D02*
X102171951Y-103501274D01*
X102171951Y-103501274D02*
X102124332Y-103596512D01*
X102124332Y-103596512D02*
X102076713Y-103644131D01*
X102076713Y-103644131D02*
X101981475Y-103691750D01*
X101981475Y-103691750D02*
X101886237Y-103691750D01*
X101886237Y-103691750D02*
X101790999Y-103644131D01*
X101790999Y-103644131D02*
X101743380Y-103596512D01*
X101743380Y-103596512D02*
X101695761Y-103501274D01*
X101695761Y-103501274D02*
X101648142Y-103310798D01*
X101648142Y-103310798D02*
X101648142Y-103072703D01*
X101648142Y-103072703D02*
X101695761Y-102882227D01*
X101695761Y-102882227D02*
X101743380Y-102786989D01*
X101743380Y-102786989D02*
X101790999Y-102739370D01*
X101790999Y-102739370D02*
X101886237Y-102691750D01*
%TO.C,R1*%
X96212626Y-76424104D02*
X95736436Y-76757437D01*
X96212626Y-76995532D02*
X95212626Y-76995532D01*
X95212626Y-76995532D02*
X95212626Y-76614580D01*
X95212626Y-76614580D02*
X95260246Y-76519342D01*
X95260246Y-76519342D02*
X95307865Y-76471723D01*
X95307865Y-76471723D02*
X95403103Y-76424104D01*
X95403103Y-76424104D02*
X95545960Y-76424104D01*
X95545960Y-76424104D02*
X95641198Y-76471723D01*
X95641198Y-76471723D02*
X95688817Y-76519342D01*
X95688817Y-76519342D02*
X95736436Y-76614580D01*
X95736436Y-76614580D02*
X95736436Y-76995532D01*
X96212626Y-75471723D02*
X96212626Y-76043151D01*
X96212626Y-75757437D02*
X95212626Y-75757437D01*
X95212626Y-75757437D02*
X95355484Y-75852675D01*
X95355484Y-75852675D02*
X95450722Y-75947913D01*
X95450722Y-75947913D02*
X95498341Y-76043151D01*
X93447331Y-77018738D02*
X94113997Y-77018738D01*
X93066378Y-77256833D02*
X93780664Y-77494928D01*
X93780664Y-77494928D02*
X93780664Y-76875881D01*
X93113997Y-76590166D02*
X93113997Y-75923500D01*
X93113997Y-75923500D02*
X94113997Y-76352071D01*
X93113997Y-75352071D02*
X93113997Y-75256833D01*
X93113997Y-75256833D02*
X93161617Y-75161595D01*
X93161617Y-75161595D02*
X93209236Y-75113976D01*
X93209236Y-75113976D02*
X93304474Y-75066357D01*
X93304474Y-75066357D02*
X93494950Y-75018738D01*
X93494950Y-75018738D02*
X93733045Y-75018738D01*
X93733045Y-75018738D02*
X93923521Y-75066357D01*
X93923521Y-75066357D02*
X94018759Y-75113976D01*
X94018759Y-75113976D02*
X94066378Y-75161595D01*
X94066378Y-75161595D02*
X94113997Y-75256833D01*
X94113997Y-75256833D02*
X94113997Y-75352071D01*
X94113997Y-75352071D02*
X94066378Y-75447309D01*
X94066378Y-75447309D02*
X94018759Y-75494928D01*
X94018759Y-75494928D02*
X93923521Y-75542547D01*
X93923521Y-75542547D02*
X93733045Y-75590166D01*
X93733045Y-75590166D02*
X93494950Y-75590166D01*
X93494950Y-75590166D02*
X93304474Y-75542547D01*
X93304474Y-75542547D02*
X93209236Y-75494928D01*
X93209236Y-75494928D02*
X93161617Y-75447309D01*
X93161617Y-75447309D02*
X93113997Y-75352071D01*
%TO.C,R3*%
X96268855Y-88907046D02*
X95792665Y-89240379D01*
X96268855Y-89478474D02*
X95268855Y-89478474D01*
X95268855Y-89478474D02*
X95268855Y-89097522D01*
X95268855Y-89097522D02*
X95316475Y-89002284D01*
X95316475Y-89002284D02*
X95364094Y-88954665D01*
X95364094Y-88954665D02*
X95459332Y-88907046D01*
X95459332Y-88907046D02*
X95602189Y-88907046D01*
X95602189Y-88907046D02*
X95697427Y-88954665D01*
X95697427Y-88954665D02*
X95745046Y-89002284D01*
X95745046Y-89002284D02*
X95792665Y-89097522D01*
X95792665Y-89097522D02*
X95792665Y-89478474D01*
X95268855Y-88573712D02*
X95268855Y-87954665D01*
X95268855Y-87954665D02*
X95649808Y-88287998D01*
X95649808Y-88287998D02*
X95649808Y-88145141D01*
X95649808Y-88145141D02*
X95697427Y-88049903D01*
X95697427Y-88049903D02*
X95745046Y-88002284D01*
X95745046Y-88002284D02*
X95840284Y-87954665D01*
X95840284Y-87954665D02*
X96078379Y-87954665D01*
X96078379Y-87954665D02*
X96173617Y-88002284D01*
X96173617Y-88002284D02*
X96221236Y-88049903D01*
X96221236Y-88049903D02*
X96268855Y-88145141D01*
X96268855Y-88145141D02*
X96268855Y-88430855D01*
X96268855Y-88430855D02*
X96221236Y-88526093D01*
X96221236Y-88526093D02*
X96173617Y-88573712D01*
X93391102Y-89482937D02*
X94057768Y-89482937D01*
X93010149Y-89721032D02*
X93724435Y-89959127D01*
X93724435Y-89959127D02*
X93724435Y-89340080D01*
X93057768Y-89054365D02*
X93057768Y-88387699D01*
X93057768Y-88387699D02*
X94057768Y-88816270D01*
X93057768Y-87816270D02*
X93057768Y-87721032D01*
X93057768Y-87721032D02*
X93105388Y-87625794D01*
X93105388Y-87625794D02*
X93153007Y-87578175D01*
X93153007Y-87578175D02*
X93248245Y-87530556D01*
X93248245Y-87530556D02*
X93438721Y-87482937D01*
X93438721Y-87482937D02*
X93676816Y-87482937D01*
X93676816Y-87482937D02*
X93867292Y-87530556D01*
X93867292Y-87530556D02*
X93962530Y-87578175D01*
X93962530Y-87578175D02*
X94010149Y-87625794D01*
X94010149Y-87625794D02*
X94057768Y-87721032D01*
X94057768Y-87721032D02*
X94057768Y-87816270D01*
X94057768Y-87816270D02*
X94010149Y-87911508D01*
X94010149Y-87911508D02*
X93962530Y-87959127D01*
X93962530Y-87959127D02*
X93867292Y-88006746D01*
X93867292Y-88006746D02*
X93676816Y-88054365D01*
X93676816Y-88054365D02*
X93438721Y-88054365D01*
X93438721Y-88054365D02*
X93248245Y-88006746D01*
X93248245Y-88006746D02*
X93153007Y-87959127D01*
X93153007Y-87959127D02*
X93105388Y-87911508D01*
X93105388Y-87911508D02*
X93057768Y-87816270D01*
D13*
%TO.C,R4*%
X99945376Y-92733762D02*
X99945376Y-91963762D01*
X98575376Y-91963762D02*
X101315376Y-91963762D01*
X101315376Y-91963762D02*
X101315376Y-85423762D01*
X98575376Y-85423762D02*
X98575376Y-91963762D01*
X101315376Y-85423762D02*
X98575376Y-85423762D01*
X99945376Y-84653762D02*
X99945376Y-85423762D01*
%TO.C,U2*%
X145324440Y-107888493D02*
X186204440Y-107888493D01*
X186204440Y-107888493D02*
X186204440Y-89988493D01*
X145384440Y-105398493D02*
X186144440Y-105398493D01*
X186144440Y-105398493D02*
X186144440Y-92478493D01*
X145384440Y-99938493D02*
X145384440Y-105398493D01*
X145384440Y-92478493D02*
X145384440Y-97938493D01*
X186144440Y-92478493D02*
X145384440Y-92478493D01*
X145324440Y-89988493D02*
X145324440Y-107888493D01*
X186204440Y-89988493D02*
X145324440Y-89988493D01*
X145384440Y-99938493D02*
G75*
G03*
X145384440Y-97938493I0J1000000D01*
G01*
%TO.C,U6*%
X103173719Y-70702560D02*
X103173719Y-91262560D01*
X103173719Y-91262560D02*
X113453719Y-91262560D01*
X105663719Y-70762560D02*
X105663719Y-91202560D01*
X105663719Y-91202560D02*
X110963719Y-91202560D01*
X107313719Y-70762560D02*
X105663719Y-70762560D01*
X110963719Y-70762560D02*
X109313719Y-70762560D01*
X110963719Y-91202560D02*
X110963719Y-70762560D01*
X113453719Y-70702560D02*
X103173719Y-70702560D01*
X113453719Y-91262560D02*
X113453719Y-70702560D01*
X107313719Y-70762560D02*
G75*
G03*
X109313719Y-70762560I1000000J0D01*
G01*
%TO.C,U4*%
X115718702Y-70509573D02*
X115718702Y-91069573D01*
X115718702Y-91069573D02*
X125998702Y-91069573D01*
X118208702Y-70569573D02*
X118208702Y-91009573D01*
X118208702Y-91009573D02*
X123508702Y-91009573D01*
X119858702Y-70569573D02*
X118208702Y-70569573D01*
X123508702Y-70569573D02*
X121858702Y-70569573D01*
X123508702Y-91009573D02*
X123508702Y-70569573D01*
X125998702Y-70509573D02*
X115718702Y-70509573D01*
X125998702Y-91069573D02*
X125998702Y-70509573D01*
X119858702Y-70569573D02*
G75*
G03*
X121858702Y-70569573I1000000J0D01*
G01*
%TO.C,C4*%
X111479818Y-114097366D02*
X110979818Y-114097366D01*
X111229818Y-114347366D02*
X111229818Y-113847366D01*
X108675043Y-115202366D02*
X108675043Y-110042366D01*
X108635043Y-115202366D02*
X108635043Y-110042366D01*
X108595043Y-115201366D02*
X108595043Y-110043366D01*
X108555043Y-115200366D02*
X108555043Y-110044366D01*
X108515043Y-115198366D02*
X108515043Y-110046366D01*
X108475043Y-115195366D02*
X108475043Y-110049366D01*
X108435043Y-115191366D02*
X108435043Y-113662366D01*
X108435043Y-111582366D02*
X108435043Y-110053366D01*
X108395043Y-115187366D02*
X108395043Y-113662366D01*
X108395043Y-111582366D02*
X108395043Y-110057366D01*
X108355043Y-115183366D02*
X108355043Y-113662366D01*
X108355043Y-111582366D02*
X108355043Y-110061366D01*
X108315043Y-115178366D02*
X108315043Y-113662366D01*
X108315043Y-111582366D02*
X108315043Y-110066366D01*
X108275043Y-115172366D02*
X108275043Y-113662366D01*
X108275043Y-111582366D02*
X108275043Y-110072366D01*
X108235043Y-115165366D02*
X108235043Y-113662366D01*
X108235043Y-111582366D02*
X108235043Y-110079366D01*
X108195043Y-115158366D02*
X108195043Y-113662366D01*
X108195043Y-111582366D02*
X108195043Y-110086366D01*
X108155043Y-115150366D02*
X108155043Y-113662366D01*
X108155043Y-111582366D02*
X108155043Y-110094366D01*
X108115043Y-115142366D02*
X108115043Y-113662366D01*
X108115043Y-111582366D02*
X108115043Y-110102366D01*
X108075043Y-115133366D02*
X108075043Y-113662366D01*
X108075043Y-111582366D02*
X108075043Y-110111366D01*
X108035043Y-115123366D02*
X108035043Y-113662366D01*
X108035043Y-111582366D02*
X108035043Y-110121366D01*
X107995043Y-115113366D02*
X107995043Y-113662366D01*
X107995043Y-111582366D02*
X107995043Y-110131366D01*
X107954043Y-115102366D02*
X107954043Y-113662366D01*
X107954043Y-111582366D02*
X107954043Y-110142366D01*
X107914043Y-115090366D02*
X107914043Y-113662366D01*
X107914043Y-111582366D02*
X107914043Y-110154366D01*
X107874043Y-115077366D02*
X107874043Y-113662366D01*
X107874043Y-111582366D02*
X107874043Y-110167366D01*
X107834043Y-115064366D02*
X107834043Y-113662366D01*
X107834043Y-111582366D02*
X107834043Y-110180366D01*
X107794043Y-115050366D02*
X107794043Y-113662366D01*
X107794043Y-111582366D02*
X107794043Y-110194366D01*
X107754043Y-115036366D02*
X107754043Y-113662366D01*
X107754043Y-111582366D02*
X107754043Y-110208366D01*
X107714043Y-115020366D02*
X107714043Y-113662366D01*
X107714043Y-111582366D02*
X107714043Y-110224366D01*
X107674043Y-115004366D02*
X107674043Y-113662366D01*
X107674043Y-111582366D02*
X107674043Y-110240366D01*
X107634043Y-114987366D02*
X107634043Y-113662366D01*
X107634043Y-111582366D02*
X107634043Y-110257366D01*
X107594043Y-114970366D02*
X107594043Y-113662366D01*
X107594043Y-111582366D02*
X107594043Y-110274366D01*
X107554043Y-114951366D02*
X107554043Y-113662366D01*
X107554043Y-111582366D02*
X107554043Y-110293366D01*
X107514043Y-114932366D02*
X107514043Y-113662366D01*
X107514043Y-111582366D02*
X107514043Y-110312366D01*
X107474043Y-114912366D02*
X107474043Y-113662366D01*
X107474043Y-111582366D02*
X107474043Y-110332366D01*
X107434043Y-114890366D02*
X107434043Y-113662366D01*
X107434043Y-111582366D02*
X107434043Y-110354366D01*
X107394043Y-114869366D02*
X107394043Y-113662366D01*
X107394043Y-111582366D02*
X107394043Y-110375366D01*
X107354043Y-114846366D02*
X107354043Y-113662366D01*
X107354043Y-111582366D02*
X107354043Y-110398366D01*
X107314043Y-114822366D02*
X107314043Y-113662366D01*
X107314043Y-111582366D02*
X107314043Y-110422366D01*
X107274043Y-114797366D02*
X107274043Y-113662366D01*
X107274043Y-111582366D02*
X107274043Y-110447366D01*
X107234043Y-114771366D02*
X107234043Y-113662366D01*
X107234043Y-111582366D02*
X107234043Y-110473366D01*
X107194043Y-114744366D02*
X107194043Y-113662366D01*
X107194043Y-111582366D02*
X107194043Y-110500366D01*
X107154043Y-114717366D02*
X107154043Y-113662366D01*
X107154043Y-111582366D02*
X107154043Y-110527366D01*
X107114043Y-114687366D02*
X107114043Y-113662366D01*
X107114043Y-111582366D02*
X107114043Y-110557366D01*
X107074043Y-114657366D02*
X107074043Y-113662366D01*
X107074043Y-111582366D02*
X107074043Y-110587366D01*
X107034043Y-114626366D02*
X107034043Y-113662366D01*
X107034043Y-111582366D02*
X107034043Y-110618366D01*
X106994043Y-114593366D02*
X106994043Y-113662366D01*
X106994043Y-111582366D02*
X106994043Y-110651366D01*
X106954043Y-114559366D02*
X106954043Y-113662366D01*
X106954043Y-111582366D02*
X106954043Y-110685366D01*
X106914043Y-114523366D02*
X106914043Y-113662366D01*
X106914043Y-111582366D02*
X106914043Y-110721366D01*
X106874043Y-114486366D02*
X106874043Y-113662366D01*
X106874043Y-111582366D02*
X106874043Y-110758366D01*
X106834043Y-114448366D02*
X106834043Y-113662366D01*
X106834043Y-111582366D02*
X106834043Y-110796366D01*
X106794043Y-114407366D02*
X106794043Y-113662366D01*
X106794043Y-111582366D02*
X106794043Y-110837366D01*
X106754043Y-114365366D02*
X106754043Y-113662366D01*
X106754043Y-111582366D02*
X106754043Y-110879366D01*
X106714043Y-114321366D02*
X106714043Y-113662366D01*
X106714043Y-111582366D02*
X106714043Y-110923366D01*
X106674043Y-114275366D02*
X106674043Y-113662366D01*
X106674043Y-111582366D02*
X106674043Y-110969366D01*
X106634043Y-114227366D02*
X106634043Y-113662366D01*
X106634043Y-111582366D02*
X106634043Y-111017366D01*
X106594043Y-114176366D02*
X106594043Y-113662366D01*
X106594043Y-111582366D02*
X106594043Y-111068366D01*
X106554043Y-114122366D02*
X106554043Y-113662366D01*
X106554043Y-111582366D02*
X106554043Y-111122366D01*
X106514043Y-114065366D02*
X106514043Y-113662366D01*
X106514043Y-111582366D02*
X106514043Y-111179366D01*
X106474043Y-114005366D02*
X106474043Y-113662366D01*
X106474043Y-111582366D02*
X106474043Y-111239366D01*
X106434043Y-113941366D02*
X106434043Y-113662366D01*
X106434043Y-111582366D02*
X106434043Y-111303366D01*
X106394043Y-113873366D02*
X106394043Y-113662366D01*
X106394043Y-111582366D02*
X106394043Y-111371366D01*
X106354043Y-113800366D02*
X106354043Y-111444366D01*
X106314043Y-113720366D02*
X106314043Y-111524366D01*
X106274043Y-113633366D02*
X106274043Y-111611366D01*
X106234043Y-113537366D02*
X106234043Y-111707366D01*
X106194043Y-113427366D02*
X106194043Y-111817366D01*
X106154043Y-113299366D02*
X106154043Y-111945366D01*
X106114043Y-113140366D02*
X106114043Y-112104366D01*
X106074043Y-112906366D02*
X106074043Y-112338366D01*
X111295043Y-112622366D02*
G75*
G03*
X111295043Y-112622366I-2620000J0D01*
G01*
%TO.C,C3*%
X125363719Y-69662560D02*
X125363719Y-69217560D01*
X125363719Y-69662560D02*
X119123719Y-69662560D01*
X125363719Y-67367560D02*
X125363719Y-66922560D01*
X125363719Y-66922560D02*
X119123719Y-66922560D01*
X119123719Y-69662560D02*
X119123719Y-69217560D01*
X119123719Y-67367560D02*
X119123719Y-66922560D01*
%TO.C,C6*%
X135760160Y-103639820D02*
X136205160Y-103639820D01*
X135760160Y-103639820D02*
X135760160Y-97399820D01*
X138055160Y-103639820D02*
X138500160Y-103639820D01*
X138500160Y-103639820D02*
X138500160Y-97399820D01*
X135760160Y-97399820D02*
X136205160Y-97399820D01*
X138055160Y-97399820D02*
X138500160Y-97399820D01*
%TO.C,C5*%
X112828156Y-69662560D02*
X112828156Y-69217560D01*
X112828156Y-69662560D02*
X106588156Y-69662560D01*
X112828156Y-67367560D02*
X112828156Y-66922560D01*
X112828156Y-66922560D02*
X106588156Y-66922560D01*
X106588156Y-69662560D02*
X106588156Y-69217560D01*
X106588156Y-67367560D02*
X106588156Y-66922560D01*
%TO.C,U1*%
X145343062Y-87433612D02*
X186223062Y-87433612D01*
X186223062Y-87433612D02*
X186223062Y-69533612D01*
X145403062Y-84943612D02*
X186163062Y-84943612D01*
X186163062Y-84943612D02*
X186163062Y-72023612D01*
X145403062Y-79483612D02*
X145403062Y-84943612D01*
X145403062Y-72023612D02*
X145403062Y-77483612D01*
X186163062Y-72023612D02*
X145403062Y-72023612D01*
X145343062Y-69533612D02*
X145343062Y-87433612D01*
X186223062Y-69533612D02*
X145343062Y-69533612D01*
X145403062Y-79483612D02*
G75*
G03*
X145403062Y-77483612I0J1000000D01*
G01*
%TO.C,U5*%
X128180160Y-70492449D02*
X128180160Y-91052449D01*
X128180160Y-91052449D02*
X138460160Y-91052449D01*
X130670160Y-70552449D02*
X130670160Y-90992449D01*
X130670160Y-90992449D02*
X135970160Y-90992449D01*
X132320160Y-70552449D02*
X130670160Y-70552449D01*
X135970160Y-70552449D02*
X134320160Y-70552449D01*
X135970160Y-90992449D02*
X135970160Y-70552449D01*
X138460160Y-70492449D02*
X128180160Y-70492449D01*
X138460160Y-91052449D02*
X138460160Y-70492449D01*
X132320160Y-70552449D02*
G75*
G03*
X134320160Y-70552449I1000000J0D01*
G01*
%TO.C,C1*%
X144097494Y-70292560D02*
X143652494Y-70292560D01*
X144097494Y-70292560D02*
X144097494Y-76532560D01*
X141802494Y-70292560D02*
X141357494Y-70292560D01*
X141357494Y-70292560D02*
X141357494Y-76532560D01*
X144097494Y-76532560D02*
X143652494Y-76532560D01*
X141802494Y-76532560D02*
X141357494Y-76532560D01*
%TO.C,C7*%
X137670160Y-69662560D02*
X137670160Y-69217560D01*
X137670160Y-69662560D02*
X131430160Y-69662560D01*
X137670160Y-67367560D02*
X137670160Y-66922560D01*
X137670160Y-66922560D02*
X131430160Y-66922560D01*
X131430160Y-69662560D02*
X131430160Y-69217560D01*
X131430160Y-67367560D02*
X131430160Y-66922560D01*
%TO.C,U3*%
X133833719Y-93642560D02*
X115813719Y-93642560D01*
X115813719Y-93642560D02*
X115813719Y-103922560D01*
X133773719Y-96132560D02*
X115873719Y-96132560D01*
X115873719Y-96132560D02*
X115873719Y-101432560D01*
X133773719Y-97782560D02*
X133773719Y-96132560D01*
X133773719Y-101432560D02*
X133773719Y-99782560D01*
X115873719Y-101432560D02*
X133773719Y-101432560D01*
X133833719Y-103922560D02*
X133833719Y-93642560D01*
X115813719Y-103922560D02*
X133833719Y-103922560D01*
X133773719Y-97782560D02*
G75*
G03*
X133773719Y-99782560I0J-1000000D01*
G01*
%TO.C,C2*%
X144013575Y-90532560D02*
X143568575Y-90532560D01*
X144013575Y-90532560D02*
X144013575Y-96772560D01*
X141718575Y-90532560D02*
X141273575Y-90532560D01*
X141273575Y-90532560D02*
X141273575Y-96772560D01*
X144013575Y-96772560D02*
X143568575Y-96772560D01*
X141718575Y-96772560D02*
X141273575Y-96772560D01*
%TO.C,R2*%
X99962996Y-80285981D02*
X99962996Y-79515981D01*
X98592996Y-79515981D02*
X101332996Y-79515981D01*
X101332996Y-79515981D02*
X101332996Y-72975981D01*
X98592996Y-72975981D02*
X98592996Y-79515981D01*
X101332996Y-72975981D02*
X98592996Y-72975981D01*
X99962996Y-72205981D02*
X99962996Y-72975981D01*
%TO.C,R6*%
X105037301Y-96670862D02*
X104267301Y-96670862D01*
X104267301Y-98040862D02*
X104267301Y-95300862D01*
X104267301Y-95300862D02*
X97727301Y-95300862D01*
X97727301Y-98040862D02*
X104267301Y-98040862D01*
X97727301Y-95300862D02*
X97727301Y-98040862D01*
X96957301Y-96670862D02*
X97727301Y-96670862D01*
%TO.C,R5*%
X105037301Y-100720862D02*
X104267301Y-100720862D01*
X104267301Y-102090862D02*
X104267301Y-99350862D01*
X104267301Y-99350862D02*
X97727301Y-99350862D01*
X97727301Y-102090862D02*
X104267301Y-102090862D01*
X97727301Y-99350862D02*
X97727301Y-102090862D01*
X96957301Y-100720862D02*
X97727301Y-100720862D01*
%TO.C,R1*%
X95912996Y-80285981D02*
X95912996Y-79515981D01*
X94542996Y-79515981D02*
X97282996Y-79515981D01*
X97282996Y-79515981D02*
X97282996Y-72975981D01*
X94542996Y-72975981D02*
X94542996Y-79515981D01*
X97282996Y-72975981D02*
X94542996Y-72975981D01*
X95912996Y-72205981D02*
X95912996Y-72975981D01*
%TO.C,R3*%
X95895376Y-92733762D02*
X95895376Y-91963762D01*
X94525376Y-91963762D02*
X97265376Y-91963762D01*
X97265376Y-91963762D02*
X97265376Y-85423762D01*
X94525376Y-85423762D02*
X94525376Y-91963762D01*
X97265376Y-85423762D02*
X94525376Y-85423762D01*
X95895376Y-84653762D02*
X95895376Y-85423762D01*
%TD*%
M02*
