%TF.GenerationSoftware,KiCad,Pcbnew,(7.0.0)*%
%TF.CreationDate,2023-03-31T15:06:47+09:00*%
%TF.ProjectId,project3,70726f6a-6563-4743-932e-6b696361645f,rev?*%
%TF.SameCoordinates,Original*%
%TF.FileFunction,Soldermask,Top*%
%TF.FilePolarity,Negative*%
%FSLAX46Y46*%
G04 Gerber Fmt 4.6, Leading zero omitted, Abs format (unit mm)*
G04 Created by KiCad (PCBNEW (7.0.0)) date 2023-03-31 15:06:47*
%MOMM*%
%LPD*%
G01*
G04 APERTURE LIST*
%ADD10C,1.600000*%
%ADD11O,1.600000X1.600000*%
%ADD12R,1.600000X1.600000*%
%ADD13R,1.700000X8.000000*%
%ADD14R,1.700000X7.500000*%
G04 APERTURE END LIST*
D10*
%TO.C,R4*%
X99945376Y-93773762D03*
D11*
X99945375Y-83613761D03*
%TD*%
D12*
%TO.C,U2*%
X146714439Y-106558492D03*
D11*
X149254439Y-106558492D03*
X151794439Y-106558492D03*
X154334439Y-106558492D03*
X156874439Y-106558492D03*
X159414439Y-106558492D03*
X161954439Y-106558492D03*
X164494439Y-106558492D03*
X167034439Y-106558492D03*
X169574439Y-106558492D03*
X172114439Y-106558492D03*
X174654439Y-106558492D03*
X177194439Y-106558492D03*
X179734439Y-106558492D03*
X182274439Y-106558492D03*
X184814439Y-106558492D03*
X184814439Y-91318492D03*
X182274439Y-91318492D03*
X179734439Y-91318492D03*
X177194439Y-91318492D03*
X174654439Y-91318492D03*
X172114439Y-91318492D03*
X169574439Y-91318492D03*
X167034439Y-91318492D03*
X164494439Y-91318492D03*
X161954439Y-91318492D03*
X159414439Y-91318492D03*
X156874439Y-91318492D03*
X154334439Y-91318492D03*
X151794439Y-91318492D03*
X149254439Y-91318492D03*
X146714439Y-91318492D03*
%TD*%
D12*
%TO.C,U6*%
X104503718Y-72092559D03*
D11*
X104503718Y-74632559D03*
X104503718Y-77172559D03*
X104503718Y-79712559D03*
X104503718Y-82252559D03*
X104503718Y-84792559D03*
X104503718Y-87332559D03*
X104503718Y-89872559D03*
X112123718Y-89872559D03*
X112123718Y-87332559D03*
X112123718Y-84792559D03*
X112123718Y-82252559D03*
X112123718Y-79712559D03*
X112123718Y-77172559D03*
X112123718Y-74632559D03*
X112123718Y-72092559D03*
%TD*%
D12*
%TO.C,U4*%
X117048701Y-71899572D03*
D11*
X117048701Y-74439572D03*
X117048701Y-76979572D03*
X117048701Y-79519572D03*
X117048701Y-82059572D03*
X117048701Y-84599572D03*
X117048701Y-87139572D03*
X117048701Y-89679572D03*
X124668701Y-89679572D03*
X124668701Y-87139572D03*
X124668701Y-84599572D03*
X124668701Y-82059572D03*
X124668701Y-79519572D03*
X124668701Y-76979572D03*
X124668701Y-74439572D03*
X124668701Y-71899572D03*
%TD*%
D12*
%TO.C,C4*%
X109925042Y-112622365D03*
D10*
X107425043Y-112622366D03*
%TD*%
%TO.C,C3*%
X124743719Y-68292560D03*
X119743719Y-68292560D03*
%TD*%
%TO.C,C6*%
X137130160Y-103019820D03*
X137130160Y-98019820D03*
%TD*%
%TO.C,C5*%
X112208156Y-68292560D03*
X107208156Y-68292560D03*
%TD*%
D12*
%TO.C,U1*%
X146733061Y-86103611D03*
D11*
X149273061Y-86103611D03*
X151813061Y-86103611D03*
X154353061Y-86103611D03*
X156893061Y-86103611D03*
X159433061Y-86103611D03*
X161973061Y-86103611D03*
X164513061Y-86103611D03*
X167053061Y-86103611D03*
X169593061Y-86103611D03*
X172133061Y-86103611D03*
X174673061Y-86103611D03*
X177213061Y-86103611D03*
X179753061Y-86103611D03*
X182293061Y-86103611D03*
X184833061Y-86103611D03*
X184833061Y-70863611D03*
X182293061Y-70863611D03*
X179753061Y-70863611D03*
X177213061Y-70863611D03*
X174673061Y-70863611D03*
X172133061Y-70863611D03*
X169593061Y-70863611D03*
X167053061Y-70863611D03*
X164513061Y-70863611D03*
X161973061Y-70863611D03*
X159433061Y-70863611D03*
X156893061Y-70863611D03*
X154353061Y-70863611D03*
X151813061Y-70863611D03*
X149273061Y-70863611D03*
X146733061Y-70863611D03*
%TD*%
D12*
%TO.C,U5*%
X129510159Y-71882448D03*
D11*
X129510159Y-74422448D03*
X129510159Y-76962448D03*
X129510159Y-79502448D03*
X129510159Y-82042448D03*
X129510159Y-84582448D03*
X129510159Y-87122448D03*
X129510159Y-89662448D03*
X137130159Y-89662448D03*
X137130159Y-87122448D03*
X137130159Y-84582448D03*
X137130159Y-82042448D03*
X137130159Y-79502448D03*
X137130159Y-76962448D03*
X137130159Y-74422448D03*
X137130159Y-71882448D03*
%TD*%
D13*
%TO.C,CE1*%
X175259999Y-124459999D03*
X172719999Y-124459999D03*
X170179999Y-124459999D03*
X167639999Y-124459999D03*
X165099999Y-124459999D03*
X162559999Y-124459999D03*
X160019999Y-124459999D03*
X157479999Y-124459999D03*
X154939999Y-124459999D03*
X152399999Y-124459999D03*
X149859999Y-124459999D03*
X147319999Y-124459999D03*
X144779999Y-124459999D03*
X142239999Y-124459999D03*
X139699999Y-124459999D03*
X137159999Y-124459999D03*
X134619999Y-124459999D03*
X132079999Y-124459999D03*
X129539999Y-124459999D03*
X126999999Y-124459999D03*
X124459999Y-124459999D03*
D14*
X121920159Y-124210559D03*
D13*
X119379999Y-124459999D03*
X116839999Y-124459999D03*
X114299999Y-124459999D03*
%TD*%
D10*
%TO.C,C1*%
X142727494Y-70912560D03*
X142727494Y-75912560D03*
%TD*%
%TO.C,C7*%
X137050160Y-68292560D03*
X132050160Y-68292560D03*
%TD*%
D12*
%TO.C,U3*%
X132443718Y-94972559D03*
D11*
X129903718Y-94972559D03*
X127363718Y-94972559D03*
X124823718Y-94972559D03*
X122283718Y-94972559D03*
X119743718Y-94972559D03*
X117203718Y-94972559D03*
X117203718Y-102592559D03*
X119743718Y-102592559D03*
X122283718Y-102592559D03*
X124823718Y-102592559D03*
X127363718Y-102592559D03*
X129903718Y-102592559D03*
X132443718Y-102592559D03*
%TD*%
D10*
%TO.C,C2*%
X142643575Y-91152560D03*
X142643575Y-96152560D03*
%TD*%
%TO.C,R2*%
X99962996Y-81325981D03*
D11*
X99962995Y-71165980D03*
%TD*%
D10*
%TO.C,R6*%
X106077301Y-96670862D03*
D11*
X95917300Y-96670861D03*
%TD*%
D10*
%TO.C,R5*%
X106077301Y-100720862D03*
D11*
X95917300Y-100720861D03*
%TD*%
D10*
%TO.C,R1*%
X95912996Y-81325981D03*
D11*
X95912995Y-71165980D03*
%TD*%
D10*
%TO.C,R3*%
X95895376Y-93773762D03*
D11*
X95895375Y-83613761D03*
%TD*%
M02*
