%TF.GenerationSoftware,KiCad,Pcbnew,(7.0.0)*%
%TF.CreationDate,2023-03-31T15:07:01+09:00*%
%TF.ProjectId,project3,70726f6a-6563-4743-932e-6b696361645f,rev?*%
%TF.SameCoordinates,Original*%
%TF.FileFunction,Drillmap*%
%TF.FilePolarity,Positive*%
%FSLAX45Y45*%
G04 Gerber Fmt 4.5, Leading zero omitted, Abs format (unit mm)*
G04 Created by KiCad (PCBNEW (7.0.0)) date 2023-03-31 15:07:01*
%MOMM*%
%LPD*%
G01*
G04 APERTURE LIST*
%ADD10C,0.100000*%
%ADD11C,0.200000*%
G04 APERTURE END LIST*
D10*
X9993847Y-11753266D02*
X11204471Y-11752841D01*
X11204471Y-11752841D02*
X11205321Y-12847243D01*
X11205322Y-12847243D02*
G75*
G03*
X11285366Y-12927099I80468J613D01*
G01*
X11883476Y-10836233D02*
G75*
G03*
X11883476Y-10836233I-217619J0D01*
G01*
X17480707Y-11352404D02*
G75*
G03*
X17480707Y-11352404I-215965J0D01*
G01*
X11285366Y-12927099D02*
X17671660Y-12925943D01*
X8941780Y-6524402D02*
X8942576Y-10753414D01*
X8942576Y-10753414D02*
X9992997Y-10752776D01*
X17749295Y-12846606D02*
X17748448Y-11754753D01*
X19016546Y-6532609D02*
X8941780Y-6524402D01*
X17671660Y-12925947D02*
G75*
G03*
X17749295Y-12846606I-1720J79337D01*
G01*
X19017704Y-11754275D02*
X19016546Y-6532609D01*
X9992997Y-10752776D02*
X9993847Y-11753266D01*
X17748448Y-11754753D02*
X19017704Y-11754275D01*
D11*
X9184399Y-13225575D02*
X9184399Y-13025575D01*
X9184399Y-13025575D02*
X9232018Y-13025575D01*
X9232018Y-13025575D02*
X9260589Y-13035099D01*
X9260589Y-13035099D02*
X9279637Y-13054147D01*
X9279637Y-13054147D02*
X9289160Y-13073194D01*
X9289160Y-13073194D02*
X9298684Y-13111289D01*
X9298684Y-13111289D02*
X9298684Y-13139861D01*
X9298684Y-13139861D02*
X9289160Y-13177956D01*
X9289160Y-13177956D02*
X9279637Y-13197004D01*
X9279637Y-13197004D02*
X9260589Y-13216051D01*
X9260589Y-13216051D02*
X9232018Y-13225575D01*
X9232018Y-13225575D02*
X9184399Y-13225575D01*
X9384399Y-13225575D02*
X9384399Y-13092242D01*
X9384399Y-13130337D02*
X9393922Y-13111289D01*
X9393922Y-13111289D02*
X9403446Y-13101766D01*
X9403446Y-13101766D02*
X9422494Y-13092242D01*
X9422494Y-13092242D02*
X9441541Y-13092242D01*
X9508208Y-13225575D02*
X9508208Y-13092242D01*
X9508208Y-13025575D02*
X9498684Y-13035099D01*
X9498684Y-13035099D02*
X9508208Y-13044623D01*
X9508208Y-13044623D02*
X9517732Y-13035099D01*
X9517732Y-13035099D02*
X9508208Y-13025575D01*
X9508208Y-13025575D02*
X9508208Y-13044623D01*
X9632018Y-13225575D02*
X9612970Y-13216051D01*
X9612970Y-13216051D02*
X9603446Y-13197004D01*
X9603446Y-13197004D02*
X9603446Y-13025575D01*
X9736779Y-13225575D02*
X9717732Y-13216051D01*
X9717732Y-13216051D02*
X9708208Y-13197004D01*
X9708208Y-13197004D02*
X9708208Y-13025575D01*
X9932970Y-13225575D02*
X9932970Y-13025575D01*
X9932970Y-13025575D02*
X9999637Y-13168432D01*
X9999637Y-13168432D02*
X10066303Y-13025575D01*
X10066303Y-13025575D02*
X10066303Y-13225575D01*
X10247256Y-13225575D02*
X10247256Y-13120813D01*
X10247256Y-13120813D02*
X10237732Y-13101766D01*
X10237732Y-13101766D02*
X10218684Y-13092242D01*
X10218684Y-13092242D02*
X10180589Y-13092242D01*
X10180589Y-13092242D02*
X10161541Y-13101766D01*
X10247256Y-13216051D02*
X10228208Y-13225575D01*
X10228208Y-13225575D02*
X10180589Y-13225575D01*
X10180589Y-13225575D02*
X10161541Y-13216051D01*
X10161541Y-13216051D02*
X10152018Y-13197004D01*
X10152018Y-13197004D02*
X10152018Y-13177956D01*
X10152018Y-13177956D02*
X10161541Y-13158909D01*
X10161541Y-13158909D02*
X10180589Y-13149385D01*
X10180589Y-13149385D02*
X10228208Y-13149385D01*
X10228208Y-13149385D02*
X10247256Y-13139861D01*
X10342494Y-13092242D02*
X10342494Y-13292242D01*
X10342494Y-13101766D02*
X10361541Y-13092242D01*
X10361541Y-13092242D02*
X10399637Y-13092242D01*
X10399637Y-13092242D02*
X10418684Y-13101766D01*
X10418684Y-13101766D02*
X10428208Y-13111289D01*
X10428208Y-13111289D02*
X10437732Y-13130337D01*
X10437732Y-13130337D02*
X10437732Y-13187480D01*
X10437732Y-13187480D02*
X10428208Y-13206528D01*
X10428208Y-13206528D02*
X10418684Y-13216051D01*
X10418684Y-13216051D02*
X10399637Y-13225575D01*
X10399637Y-13225575D02*
X10361541Y-13225575D01*
X10361541Y-13225575D02*
X10342494Y-13216051D01*
X10523446Y-13206528D02*
X10532970Y-13216051D01*
X10532970Y-13216051D02*
X10523446Y-13225575D01*
X10523446Y-13225575D02*
X10513922Y-13216051D01*
X10513922Y-13216051D02*
X10523446Y-13206528D01*
X10523446Y-13206528D02*
X10523446Y-13225575D01*
X10523446Y-13101766D02*
X10532970Y-13111289D01*
X10532970Y-13111289D02*
X10523446Y-13120813D01*
X10523446Y-13120813D02*
X10513922Y-13111289D01*
X10513922Y-13111289D02*
X10523446Y-13101766D01*
X10523446Y-13101766D02*
X10523446Y-13120813D01*
M02*
