M48
; DRILL file {KiCad (7.0.0)} date Fri Mar 31 15:06:59 2023
; FORMAT={-:-/ absolute / metric / decimal}
; #@! TF.CreationDate,2023-03-31T15:06:59+09:00
; #@! TF.GenerationSoftware,Kicad,Pcbnew,(7.0.0)
; #@! TF.FileFunction,Plated,1,2,PTH
FMAT,2
METRIC
; #@! TA.AperFunction,Plated,PTH,ViaDrill
T1C0.300
; #@! TA.AperFunction,Plated,PTH,ViaDrill
T2C0.400
; #@! TA.AperFunction,Plated,PTH,ComponentDrill
T3C0.800
%
G90
G05
T1
X106.642Y-85.211
X106.68Y-106.68
X109.167Y-84.621
X111.76Y-101.6
X111.76Y-106.68
X116.84Y-111.76
X121.92Y-111.76
X126.521Y-77.022
X129.918Y-99.459
X131.583Y-79.54
X131.64Y-77.015
X134.692Y-77.109
X134.767Y-79.389
X147.32Y-96.52
X148.5Y-104.005
X148.557Y-77.267
X151.671Y-96.52
X151.694Y-77.323
X151.722Y-104.118
X154.221Y-96.513
X154.237Y-77.295
X154.341Y-104.005
X156.67Y-96.494
X156.733Y-104.137
X156.745Y-77.274
X159.416Y-77.444
X161.748Y-77.444
X164.503Y-77.486
X166.962Y-77.401
X170.607Y-77.486
X171.422Y-93.027
X172.042Y-103.797
X174.253Y-77.401
X177.263Y-77.317
X177.593Y-100.187
X177.8Y-111.76
X177.8Y-116.84
X179.552Y-75.409
X179.665Y-100.093
X182.171Y-100.112
X182.244Y-79.796
X182.88Y-111.76
X182.88Y-116.84
X185.197Y-75.543
X185.254Y-79.98
X187.96Y-101.6
X187.96Y-106.68
X187.96Y-111.76
X187.96Y-116.84
T2
X108.553Y-87.333
X111.041Y-116.533
X113.527Y-96.52
X127.0Y-91.44
X127.0Y-116.84
X128.074Y-113.424
X129.54Y-92.502
X129.54Y-107.143
X129.54Y-109.22
X129.54Y-116.84
X131.538Y-89.349
X132.08Y-74.392
X132.08Y-108.035
X132.126Y-116.84
X134.569Y-116.84
X135.245Y-95.133
X137.052Y-95.209
X137.16Y-116.84
X139.601Y-77.192
X139.684Y-116.84
X140.435Y-82.705
X140.457Y-86.294
X142.23Y-116.84
X142.24Y-86.36
X142.25Y-84.237
X143.009Y-113.424
X147.32Y-111.76
X147.32Y-113.409
X150.213Y-114.653
X151.685Y-114.694
X153.357Y-116.827
X155.416Y-114.687
X160.67Y-113.334
X160.705Y-116.735
X163.034Y-113.236
X166.075Y-113.325
T3
X95.895Y-83.614
X95.895Y-93.774
X95.913Y-71.166
X95.913Y-81.326
X95.917Y-96.671
X95.917Y-100.721
X99.945Y-83.614
X99.945Y-93.774
X99.963Y-71.166
X99.963Y-81.326
X104.504Y-72.093
X104.504Y-74.633
X104.504Y-77.173
X104.504Y-79.713
X104.504Y-82.253
X104.504Y-84.793
X104.504Y-87.333
X104.504Y-89.873
X106.077Y-96.671
X106.077Y-100.721
X107.208Y-68.293
X107.425Y-112.622
X109.925Y-112.622
X112.124Y-72.093
X112.124Y-74.633
X112.124Y-77.173
X112.124Y-79.713
X112.124Y-82.253
X112.124Y-84.793
X112.124Y-87.333
X112.124Y-89.873
X112.208Y-68.293
X117.049Y-71.9
X117.049Y-74.44
X117.049Y-76.98
X117.049Y-79.52
X117.049Y-82.06
X117.049Y-84.6
X117.049Y-87.14
X117.049Y-89.68
X117.204Y-94.973
X117.204Y-102.593
X119.744Y-68.293
X119.744Y-94.973
X119.744Y-102.593
X122.284Y-94.973
X122.284Y-102.593
X124.669Y-71.9
X124.669Y-74.44
X124.669Y-76.98
X124.669Y-79.52
X124.669Y-82.06
X124.669Y-84.6
X124.669Y-87.14
X124.669Y-89.68
X124.744Y-68.293
X124.824Y-94.973
X124.824Y-102.593
X127.364Y-94.973
X127.364Y-102.593
X129.51Y-71.882
X129.51Y-74.422
X129.51Y-76.962
X129.51Y-79.502
X129.51Y-82.042
X129.51Y-84.582
X129.51Y-87.122
X129.51Y-89.662
X129.904Y-94.973
X129.904Y-102.593
X132.05Y-68.293
X132.444Y-94.973
X132.444Y-102.593
X137.05Y-68.293
X137.13Y-71.882
X137.13Y-74.422
X137.13Y-76.962
X137.13Y-79.502
X137.13Y-82.042
X137.13Y-84.582
X137.13Y-87.122
X137.13Y-89.662
X137.13Y-98.02
X137.13Y-103.02
X142.644Y-91.153
X142.644Y-96.153
X142.727Y-70.913
X142.727Y-75.913
X146.714Y-91.318
X146.714Y-106.558
X146.733Y-70.864
X146.733Y-86.104
X149.254Y-91.318
X149.254Y-106.558
X149.273Y-70.864
X149.273Y-86.104
X151.794Y-91.318
X151.794Y-106.558
X151.813Y-70.864
X151.813Y-86.104
X154.334Y-91.318
X154.334Y-106.558
X154.353Y-70.864
X154.353Y-86.104
X156.874Y-91.318
X156.874Y-106.558
X156.893Y-70.864
X156.893Y-86.104
X159.414Y-91.318
X159.414Y-106.558
X159.433Y-70.864
X159.433Y-86.104
X161.954Y-91.318
X161.954Y-106.558
X161.973Y-70.864
X161.973Y-86.104
X164.494Y-91.318
X164.494Y-106.558
X164.513Y-70.864
X164.513Y-86.104
X167.034Y-91.318
X167.034Y-106.558
X167.053Y-70.864
X167.053Y-86.104
X169.574Y-91.318
X169.574Y-106.558
X169.593Y-70.864
X169.593Y-86.104
X172.114Y-91.318
X172.114Y-106.558
X172.133Y-70.864
X172.133Y-86.104
X174.654Y-91.318
X174.654Y-106.558
X174.673Y-70.864
X174.673Y-86.104
X177.194Y-91.318
X177.194Y-106.558
X177.213Y-70.864
X177.213Y-86.104
X179.734Y-91.318
X179.734Y-106.558
X179.753Y-70.864
X179.753Y-86.104
X182.274Y-91.318
X182.274Y-106.558
X182.293Y-70.864
X182.293Y-86.104
X184.814Y-91.318
X184.814Y-106.558
X184.833Y-70.864
X184.833Y-86.104
T0
M30
