%TF.GenerationSoftware,KiCad,Pcbnew,10.0.4*%
%TF.CreationDate,2026-07-26T00:07:33+09:00*%
%TF.ProjectId,project_memory_mapper,70726f6a-6563-4745-9f6d-656d6f72795f,rev?*%
%TF.SameCoordinates,Original*%
%TF.FileFunction,Drillmap*%
%TF.FilePolarity,Positive*%
%FSLAX45Y45*%
G04 Gerber Fmt 4.5, Leading zero omitted, Abs format (unit mm)*
G04 Created by KiCad (PCBNEW 10.0.4) date 2026-07-26 00:07:33*
%MOMM*%
%LPD*%
G01*
G04 APERTURE LIST*
%ADD10C,0.050000*%
%ADD11C,0.200000*%
%ADD12C,0.100000*%
G04 APERTURE END LIST*
D10*
X8763636Y-4063434D02*
X18835818Y-4064000D01*
X8763636Y-9606524D02*
X8763636Y-4063434D01*
X9817325Y-9606524D02*
X8763636Y-9606524D01*
X9817325Y-10605653D02*
X9817325Y-9606524D01*
X11027590Y-10605653D02*
X9817325Y-10605653D01*
X11027590Y-11699466D02*
X11027590Y-10605653D01*
X11108130Y-11780008D02*
X11151239Y-11780008D01*
X11108132Y-11780008D02*
G75*
G02*
X11027592Y-11699466I-2J80538D01*
G01*
X17492121Y-11780008D02*
X11151239Y-11780008D01*
X17572007Y-11700122D02*
G75*
G02*
X17492121Y-11780007I-79887J3D01*
G01*
X17572335Y-10607728D02*
X17572007Y-11700122D01*
X17572335Y-10607728D02*
X18835818Y-10607728D01*
X18835818Y-10607728D02*
X18835818Y-4064000D01*
D11*
D12*
X9560800Y-4963400D02*
X9590800Y-4993400D01*
X9590800Y-4963400D02*
X9560800Y-4993400D01*
X10678400Y-9247600D02*
X10708400Y-9277600D01*
X10708400Y-9247600D02*
X10678400Y-9277600D01*
X10754600Y-9484600D02*
X10784600Y-9514600D01*
X10784600Y-9484600D02*
X10754600Y-9514600D01*
X11059400Y-9865600D02*
X11089400Y-9895600D01*
X11089400Y-9865600D02*
X11059400Y-9895600D01*
X11313400Y-9560800D02*
X11343400Y-9590800D01*
X11343400Y-9560800D02*
X11313400Y-9590800D01*
X11567400Y-6436600D02*
X11597400Y-6466600D01*
X11597400Y-6436600D02*
X11567400Y-6466600D01*
X12137400Y-5649200D02*
X12167400Y-5679200D01*
X12167400Y-5649200D02*
X12137400Y-5679200D01*
X12329400Y-5039600D02*
X12359400Y-5069600D01*
X12359400Y-5039600D02*
X12329400Y-5069600D01*
X12446517Y-10566917D02*
X12476517Y-10596917D01*
X12476517Y-10566917D02*
X12446517Y-10596917D01*
X12710400Y-10424400D02*
X12740400Y-10454400D01*
X12740400Y-10424400D02*
X12710400Y-10454400D01*
X12939000Y-10348200D02*
X12969000Y-10378200D01*
X12969000Y-10348200D02*
X12939000Y-10378200D01*
X13142200Y-10221200D02*
X13172200Y-10251200D01*
X13172200Y-10221200D02*
X13142200Y-10251200D01*
X13356600Y-10221200D02*
X13386600Y-10251200D01*
X13386600Y-10221200D02*
X13356600Y-10251200D01*
X13701000Y-10373600D02*
X13731000Y-10403600D01*
X13731000Y-10373600D02*
X13701000Y-10403600D01*
X13777200Y-10221200D02*
X13807200Y-10251200D01*
X13807200Y-10221200D02*
X13777200Y-10251200D01*
X13904200Y-10475200D02*
X13934200Y-10505200D01*
X13934200Y-10475200D02*
X13904200Y-10505200D01*
X14126450Y-10456150D02*
X14156450Y-10486150D01*
X14156450Y-10456150D02*
X14126450Y-10486150D01*
X14183600Y-5801600D02*
X14213600Y-5831600D01*
X14213600Y-5801600D02*
X14183600Y-5831600D01*
X14894800Y-10322800D02*
X14924800Y-10352800D01*
X14924800Y-10322800D02*
X14894800Y-10352800D01*
X15250400Y-9467600D02*
X15280400Y-9497600D01*
X15280400Y-9467600D02*
X15250400Y-9497600D01*
X16952200Y-4772600D02*
X16982200Y-4802600D01*
X16982200Y-4772600D02*
X16952200Y-4802600D01*
X9595800Y-5283200D02*
G75*
G02*
X9555800Y-5283200I-20000J0D01*
G01*
X9555800Y-5283200D02*
G75*
G02*
X9595800Y-5283200I20000J0D01*
G01*
X9595800Y-5435600D02*
G75*
G02*
X9555800Y-5435600I-20000J0D01*
G01*
X9555800Y-5435600D02*
G75*
G02*
X9595800Y-5435600I20000J0D01*
G01*
X9773600Y-5283200D02*
G75*
G02*
X9733600Y-5283200I-20000J0D01*
G01*
X9733600Y-5283200D02*
G75*
G02*
X9773600Y-5283200I20000J0D01*
G01*
X9773600Y-5435600D02*
G75*
G02*
X9733600Y-5435600I-20000J0D01*
G01*
X9733600Y-5435600D02*
G75*
G02*
X9773600Y-5435600I20000J0D01*
G01*
X11399200Y-5918200D02*
G75*
G02*
X11359200Y-5918200I-20000J0D01*
G01*
X11359200Y-5918200D02*
G75*
G02*
X11399200Y-5918200I20000J0D01*
G01*
X11475400Y-5511800D02*
G75*
G02*
X11435400Y-5511800I-20000J0D01*
G01*
X11435400Y-5511800D02*
G75*
G02*
X11475400Y-5511800I20000J0D01*
G01*
X11577000Y-4800600D02*
G75*
G02*
X11537000Y-4800600I-20000J0D01*
G01*
X11537000Y-4800600D02*
G75*
G02*
X11577000Y-4800600I20000J0D01*
G01*
X11958000Y-4699000D02*
G75*
G02*
X11918000Y-4699000I-20000J0D01*
G01*
X11918000Y-4699000D02*
G75*
G02*
X11958000Y-4699000I20000J0D01*
G01*
X12085000Y-4699000D02*
G75*
G02*
X12045000Y-4699000I-20000J0D01*
G01*
X12045000Y-4699000D02*
G75*
G02*
X12085000Y-4699000I20000J0D01*
G01*
X12415200Y-5664200D02*
G75*
G02*
X12375200Y-5664200I-20000J0D01*
G01*
X12375200Y-5664200D02*
G75*
G02*
X12415200Y-5664200I20000J0D01*
G01*
X12542200Y-5664200D02*
G75*
G02*
X12502200Y-5664200I-20000J0D01*
G01*
X12502200Y-5664200D02*
G75*
G02*
X12542200Y-5664200I20000J0D01*
G01*
X12669200Y-5664200D02*
G75*
G02*
X12629200Y-5664200I-20000J0D01*
G01*
X12629200Y-5664200D02*
G75*
G02*
X12669200Y-5664200I20000J0D01*
G01*
X12796200Y-4546600D02*
G75*
G02*
X12756200Y-4546600I-20000J0D01*
G01*
X12756200Y-4546600D02*
G75*
G02*
X12796200Y-4546600I20000J0D01*
G01*
X12796200Y-4673600D02*
G75*
G02*
X12756200Y-4673600I-20000J0D01*
G01*
X12756200Y-4673600D02*
G75*
G02*
X12796200Y-4673600I20000J0D01*
G01*
X12796200Y-5207000D02*
G75*
G02*
X12756200Y-5207000I-20000J0D01*
G01*
X12756200Y-5207000D02*
G75*
G02*
X12796200Y-5207000I20000J0D01*
G01*
X12796200Y-5334000D02*
G75*
G02*
X12756200Y-5334000I-20000J0D01*
G01*
X12756200Y-5334000D02*
G75*
G02*
X12796200Y-5334000I20000J0D01*
G01*
X12923200Y-4546600D02*
G75*
G02*
X12883200Y-4546600I-20000J0D01*
G01*
X12883200Y-4546600D02*
G75*
G02*
X12923200Y-4546600I20000J0D01*
G01*
X12923200Y-4673600D02*
G75*
G02*
X12883200Y-4673600I-20000J0D01*
G01*
X12883200Y-4673600D02*
G75*
G02*
X12923200Y-4673600I20000J0D01*
G01*
X12923200Y-5207000D02*
G75*
G02*
X12883200Y-5207000I-20000J0D01*
G01*
X12883200Y-5207000D02*
G75*
G02*
X12923200Y-5207000I20000J0D01*
G01*
X12923200Y-5334000D02*
G75*
G02*
X12883200Y-5334000I-20000J0D01*
G01*
X12883200Y-5334000D02*
G75*
G02*
X12923200Y-5334000I20000J0D01*
G01*
X13050200Y-4546600D02*
G75*
G02*
X13010200Y-4546600I-20000J0D01*
G01*
X13010200Y-4546600D02*
G75*
G02*
X13050200Y-4546600I20000J0D01*
G01*
X13050200Y-4673600D02*
G75*
G02*
X13010200Y-4673600I-20000J0D01*
G01*
X13010200Y-4673600D02*
G75*
G02*
X13050200Y-4673600I20000J0D01*
G01*
X13050200Y-5207000D02*
G75*
G02*
X13010200Y-5207000I-20000J0D01*
G01*
X13010200Y-5207000D02*
G75*
G02*
X13050200Y-5207000I20000J0D01*
G01*
X13050200Y-5334000D02*
G75*
G02*
X13010200Y-5334000I-20000J0D01*
G01*
X13010200Y-5334000D02*
G75*
G02*
X13050200Y-5334000I20000J0D01*
G01*
X13482000Y-5181600D02*
G75*
G02*
X13442000Y-5181600I-20000J0D01*
G01*
X13442000Y-5181600D02*
G75*
G02*
X13482000Y-5181600I20000J0D01*
G01*
X14167800Y-5638800D02*
G75*
G02*
X14127800Y-5638800I-20000J0D01*
G01*
X14127800Y-5638800D02*
G75*
G02*
X14167800Y-5638800I20000J0D01*
G01*
X15082200Y-4724400D02*
G75*
G02*
X15042200Y-4724400I-20000J0D01*
G01*
X15042200Y-4724400D02*
G75*
G02*
X15082200Y-4724400I20000J0D01*
G01*
X15133000Y-10261600D02*
G75*
G02*
X15093000Y-10261600I-20000J0D01*
G01*
X15093000Y-10261600D02*
G75*
G02*
X15133000Y-10261600I20000J0D01*
G01*
X15209200Y-10515600D02*
G75*
G02*
X15169200Y-10515600I-20000J0D01*
G01*
X15169200Y-10515600D02*
G75*
G02*
X15209200Y-10515600I20000J0D01*
G01*
X15310800Y-9931400D02*
G75*
G02*
X15270800Y-9931400I-20000J0D01*
G01*
X15270800Y-9931400D02*
G75*
G02*
X15310800Y-9931400I20000J0D01*
G01*
X15717200Y-4495800D02*
G75*
G02*
X15677200Y-4495800I-20000J0D01*
G01*
X15677200Y-4495800D02*
G75*
G02*
X15717200Y-4495800I20000J0D01*
G01*
X15717200Y-4648200D02*
G75*
G02*
X15677200Y-4648200I-20000J0D01*
G01*
X15677200Y-4648200D02*
G75*
G02*
X15717200Y-4648200I20000J0D01*
G01*
X15742600Y-5232400D02*
G75*
G02*
X15702600Y-5232400I-20000J0D01*
G01*
X15702600Y-5232400D02*
G75*
G02*
X15742600Y-5232400I20000J0D01*
G01*
X15742600Y-5384800D02*
G75*
G02*
X15702600Y-5384800I-20000J0D01*
G01*
X15702600Y-5384800D02*
G75*
G02*
X15742600Y-5384800I20000J0D01*
G01*
X15869600Y-4495800D02*
G75*
G02*
X15829600Y-4495800I-20000J0D01*
G01*
X15829600Y-4495800D02*
G75*
G02*
X15869600Y-4495800I20000J0D01*
G01*
X15869600Y-4648200D02*
G75*
G02*
X15829600Y-4648200I-20000J0D01*
G01*
X15829600Y-4648200D02*
G75*
G02*
X15869600Y-4648200I20000J0D01*
G01*
X15869600Y-5232400D02*
G75*
G02*
X15829600Y-5232400I-20000J0D01*
G01*
X15829600Y-5232400D02*
G75*
G02*
X15869600Y-5232400I20000J0D01*
G01*
X15869600Y-5384800D02*
G75*
G02*
X15829600Y-5384800I-20000J0D01*
G01*
X15829600Y-5384800D02*
G75*
G02*
X15869600Y-5384800I20000J0D01*
G01*
X15979062Y-10523462D02*
G75*
G02*
X15939062Y-10523462I-20000J0D01*
G01*
X15939062Y-10523462D02*
G75*
G02*
X15979062Y-10523462I20000J0D01*
G01*
X16022000Y-5384800D02*
G75*
G02*
X15982000Y-5384800I-20000J0D01*
G01*
X15982000Y-5384800D02*
G75*
G02*
X16022000Y-5384800I20000J0D01*
G01*
X16149000Y-5384800D02*
G75*
G02*
X16109000Y-5384800I-20000J0D01*
G01*
X16109000Y-5384800D02*
G75*
G02*
X16149000Y-5384800I20000J0D01*
G01*
X16352200Y-10414000D02*
G75*
G02*
X16312200Y-10414000I-20000J0D01*
G01*
X16312200Y-10414000D02*
G75*
G02*
X16352200Y-10414000I20000J0D01*
G01*
X16377600Y-4673600D02*
G75*
G02*
X16337600Y-4673600I-20000J0D01*
G01*
X16337600Y-4673600D02*
G75*
G02*
X16377600Y-4673600I20000J0D01*
G01*
X16784000Y-4699000D02*
G75*
G02*
X16744000Y-4699000I-20000J0D01*
G01*
X16744000Y-4699000D02*
G75*
G02*
X16784000Y-4699000I20000J0D01*
G01*
X16987200Y-9906000D02*
G75*
G02*
X16947200Y-9906000I-20000J0D01*
G01*
X16947200Y-9906000D02*
G75*
G02*
X16987200Y-9906000I20000J0D01*
G01*
X17165000Y-4724400D02*
G75*
G02*
X17125000Y-4724400I-20000J0D01*
G01*
X17125000Y-4724400D02*
G75*
G02*
X17165000Y-4724400I20000J0D01*
G01*
X17241200Y-9906000D02*
G75*
G02*
X17201200Y-9906000I-20000J0D01*
G01*
X17201200Y-9906000D02*
G75*
G02*
X17241200Y-9906000I20000J0D01*
G01*
X17292000Y-4724400D02*
G75*
G02*
X17252000Y-4724400I-20000J0D01*
G01*
X17252000Y-4724400D02*
G75*
G02*
X17292000Y-4724400I20000J0D01*
G01*
X17520600Y-9906000D02*
G75*
G02*
X17480600Y-9906000I-20000J0D01*
G01*
X17480600Y-9906000D02*
G75*
G02*
X17520600Y-9906000I20000J0D01*
G01*
X17571400Y-5486400D02*
G75*
G02*
X17531400Y-5486400I-20000J0D01*
G01*
X17531400Y-5486400D02*
G75*
G02*
X17571400Y-5486400I20000J0D01*
G01*
X17673000Y-5486400D02*
G75*
G02*
X17633000Y-5486400I-20000J0D01*
G01*
X17633000Y-5486400D02*
G75*
G02*
X17673000Y-5486400I20000J0D01*
G01*
X17774600Y-5486400D02*
G75*
G02*
X17734600Y-5486400I-20000J0D01*
G01*
X17734600Y-5486400D02*
G75*
G02*
X17774600Y-5486400I20000J0D01*
G01*
X17774600Y-9906000D02*
G75*
G02*
X17734600Y-9906000I-20000J0D01*
G01*
X17734600Y-9906000D02*
G75*
G02*
X17774600Y-9906000I20000J0D01*
G01*
X17952400Y-4927600D02*
G75*
G02*
X17912400Y-4927600I-20000J0D01*
G01*
X17912400Y-4927600D02*
G75*
G02*
X17952400Y-4927600I20000J0D01*
G01*
X17952400Y-5080000D02*
G75*
G02*
X17912400Y-5080000I-20000J0D01*
G01*
X17912400Y-5080000D02*
G75*
G02*
X17952400Y-5080000I20000J0D01*
G01*
X18028600Y-9906000D02*
G75*
G02*
X17988600Y-9906000I-20000J0D01*
G01*
X17988600Y-9906000D02*
G75*
G02*
X18028600Y-9906000I20000J0D01*
G01*
X18130200Y-4927600D02*
G75*
G02*
X18090200Y-4927600I-20000J0D01*
G01*
X18090200Y-4927600D02*
G75*
G02*
X18130200Y-4927600I20000J0D01*
G01*
X18130200Y-5080000D02*
G75*
G02*
X18090200Y-5080000I-20000J0D01*
G01*
X18090200Y-5080000D02*
G75*
G02*
X18130200Y-5080000I20000J0D01*
G01*
X18308000Y-4927600D02*
G75*
G02*
X18268000Y-4927600I-20000J0D01*
G01*
X18268000Y-4927600D02*
G75*
G02*
X18308000Y-4927600I20000J0D01*
G01*
X18308000Y-5080000D02*
G75*
G02*
X18268000Y-5080000I-20000J0D01*
G01*
X18268000Y-5080000D02*
G75*
G02*
X18308000Y-5080000I20000J0D01*
G01*
X9169400Y-6437000D02*
X9169400Y-6517000D01*
X9129400Y-6477000D02*
X9209400Y-6477000D01*
X9169400Y-6691000D02*
X9169400Y-6771000D01*
X9129400Y-6731000D02*
X9209400Y-6731000D01*
X9169400Y-6945000D02*
X9169400Y-7025000D01*
X9129400Y-6985000D02*
X9209400Y-6985000D01*
X9169400Y-7199000D02*
X9169400Y-7279000D01*
X9129400Y-7239000D02*
X9209400Y-7239000D01*
X9169400Y-7453000D02*
X9169400Y-7533000D01*
X9129400Y-7493000D02*
X9209400Y-7493000D01*
X9169400Y-7707000D02*
X9169400Y-7787000D01*
X9129400Y-7747000D02*
X9209400Y-7747000D01*
X9169400Y-7961000D02*
X9169400Y-8041000D01*
X9129400Y-8001000D02*
X9209400Y-8001000D01*
X9304400Y-8316600D02*
X9304400Y-8396600D01*
X9264400Y-8356600D02*
X9344400Y-8356600D01*
X9499600Y-9078600D02*
X9499600Y-9158600D01*
X9459600Y-9118600D02*
X9539600Y-9118600D01*
X9749600Y-9078600D02*
X9749600Y-9158600D01*
X9709600Y-9118600D02*
X9789600Y-9118600D01*
X9804400Y-8316600D02*
X9804400Y-8396600D01*
X9764400Y-8356600D02*
X9844400Y-8356600D01*
X9931400Y-6437000D02*
X9931400Y-6517000D01*
X9891400Y-6477000D02*
X9971400Y-6477000D01*
X9931400Y-6691000D02*
X9931400Y-6771000D01*
X9891400Y-6731000D02*
X9971400Y-6731000D01*
X9931400Y-6945000D02*
X9931400Y-7025000D01*
X9891400Y-6985000D02*
X9971400Y-6985000D01*
X9931400Y-7199000D02*
X9931400Y-7279000D01*
X9891400Y-7239000D02*
X9971400Y-7239000D01*
X9931400Y-7453000D02*
X9931400Y-7533000D01*
X9891400Y-7493000D02*
X9971400Y-7493000D01*
X9931400Y-7707000D02*
X9931400Y-7787000D01*
X9891400Y-7747000D02*
X9971400Y-7747000D01*
X9931400Y-7961000D02*
X9931400Y-8041000D01*
X9891400Y-8001000D02*
X9971400Y-8001000D01*
X10287000Y-4514600D02*
X10287000Y-4594600D01*
X10247000Y-4554600D02*
X10327000Y-4554600D01*
X10287000Y-5014600D02*
X10287000Y-5094600D01*
X10247000Y-5054600D02*
X10327000Y-5054600D01*
X10414000Y-6030600D02*
X10414000Y-6110600D01*
X10374000Y-6070600D02*
X10454000Y-6070600D01*
X10414000Y-6284600D02*
X10414000Y-6364600D01*
X10374000Y-6324600D02*
X10454000Y-6324600D01*
X10414000Y-6538600D02*
X10414000Y-6618600D01*
X10374000Y-6578600D02*
X10454000Y-6578600D01*
X10414000Y-6792600D02*
X10414000Y-6872600D01*
X10374000Y-6832600D02*
X10454000Y-6832600D01*
X10414000Y-7046600D02*
X10414000Y-7126600D01*
X10374000Y-7086600D02*
X10454000Y-7086600D01*
X10414000Y-7300600D02*
X10414000Y-7380600D01*
X10374000Y-7340600D02*
X10454000Y-7340600D01*
X10414000Y-7554600D02*
X10414000Y-7634600D01*
X10374000Y-7594600D02*
X10454000Y-7594600D01*
X10414000Y-7808600D02*
X10414000Y-7888600D01*
X10374000Y-7848600D02*
X10454000Y-7848600D01*
X10414000Y-8062600D02*
X10414000Y-8142600D01*
X10374000Y-8102600D02*
X10454000Y-8102600D01*
X10414000Y-8316600D02*
X10414000Y-8396600D01*
X10374000Y-8356600D02*
X10454000Y-8356600D01*
X10414000Y-8570600D02*
X10414000Y-8650600D01*
X10374000Y-8610600D02*
X10454000Y-8610600D01*
X10414000Y-8824600D02*
X10414000Y-8904600D01*
X10374000Y-8864600D02*
X10454000Y-8864600D01*
X10414000Y-9078600D02*
X10414000Y-9158600D01*
X10374000Y-9118600D02*
X10454000Y-9118600D01*
X10414000Y-9332600D02*
X10414000Y-9412600D01*
X10374000Y-9372600D02*
X10454000Y-9372600D01*
X10414000Y-9586600D02*
X10414000Y-9666600D01*
X10374000Y-9626600D02*
X10454000Y-9626600D01*
X10414000Y-9840600D02*
X10414000Y-9920600D01*
X10374000Y-9880600D02*
X10454000Y-9880600D01*
X10693400Y-4481200D02*
X10693400Y-4561200D01*
X10653400Y-4521200D02*
X10733400Y-4521200D01*
X10693400Y-5243200D02*
X10693400Y-5323200D01*
X10653400Y-5283200D02*
X10733400Y-5283200D01*
X10947400Y-4481200D02*
X10947400Y-4561200D01*
X10907400Y-4521200D02*
X10987400Y-4521200D01*
X10947400Y-5243200D02*
X10947400Y-5323200D01*
X10907400Y-5283200D02*
X10987400Y-5283200D01*
X11201400Y-4481200D02*
X11201400Y-4561200D01*
X11161400Y-4521200D02*
X11241400Y-4521200D01*
X11201400Y-5243200D02*
X11201400Y-5323200D01*
X11161400Y-5283200D02*
X11241400Y-5283200D01*
X11438000Y-5700400D02*
X11438000Y-5780400D01*
X11398000Y-5740400D02*
X11478000Y-5740400D01*
X11455400Y-4481200D02*
X11455400Y-4561200D01*
X11415400Y-4521200D02*
X11495400Y-4521200D01*
X11455400Y-5243200D02*
X11455400Y-5323200D01*
X11415400Y-5283200D02*
X11495400Y-5283200D01*
X11709400Y-4481200D02*
X11709400Y-4561200D01*
X11669400Y-4521200D02*
X11749400Y-4521200D01*
X11709400Y-5243200D02*
X11709400Y-5323200D01*
X11669400Y-5283200D02*
X11749400Y-5283200D01*
X11938000Y-5700400D02*
X11938000Y-5780400D01*
X11898000Y-5740400D02*
X11978000Y-5740400D01*
X11938000Y-6030600D02*
X11938000Y-6110600D01*
X11898000Y-6070600D02*
X11978000Y-6070600D01*
X11938000Y-6284600D02*
X11938000Y-6364600D01*
X11898000Y-6324600D02*
X11978000Y-6324600D01*
X11938000Y-6538600D02*
X11938000Y-6618600D01*
X11898000Y-6578600D02*
X11978000Y-6578600D01*
X11938000Y-6792600D02*
X11938000Y-6872600D01*
X11898000Y-6832600D02*
X11978000Y-6832600D01*
X11938000Y-7046600D02*
X11938000Y-7126600D01*
X11898000Y-7086600D02*
X11978000Y-7086600D01*
X11938000Y-7300600D02*
X11938000Y-7380600D01*
X11898000Y-7340600D02*
X11978000Y-7340600D01*
X11938000Y-7554600D02*
X11938000Y-7634600D01*
X11898000Y-7594600D02*
X11978000Y-7594600D01*
X11938000Y-7808600D02*
X11938000Y-7888600D01*
X11898000Y-7848600D02*
X11978000Y-7848600D01*
X11938000Y-8062600D02*
X11938000Y-8142600D01*
X11898000Y-8102600D02*
X11978000Y-8102600D01*
X11938000Y-8316600D02*
X11938000Y-8396600D01*
X11898000Y-8356600D02*
X11978000Y-8356600D01*
X11938000Y-8570600D02*
X11938000Y-8650600D01*
X11898000Y-8610600D02*
X11978000Y-8610600D01*
X11938000Y-8824600D02*
X11938000Y-8904600D01*
X11898000Y-8864600D02*
X11978000Y-8864600D01*
X11938000Y-9078600D02*
X11938000Y-9158600D01*
X11898000Y-9118600D02*
X11978000Y-9118600D01*
X11938000Y-9332600D02*
X11938000Y-9412600D01*
X11898000Y-9372600D02*
X11978000Y-9372600D01*
X11938000Y-9586600D02*
X11938000Y-9666600D01*
X11898000Y-9626600D02*
X11978000Y-9626600D01*
X11938000Y-9840600D02*
X11938000Y-9920600D01*
X11898000Y-9880600D02*
X11978000Y-9880600D01*
X11963400Y-4481200D02*
X11963400Y-4561200D01*
X11923400Y-4521200D02*
X12003400Y-4521200D01*
X11963400Y-5243200D02*
X11963400Y-5323200D01*
X11923400Y-5283200D02*
X12003400Y-5283200D01*
X12217400Y-4481200D02*
X12217400Y-4561200D01*
X12177400Y-4521200D02*
X12257400Y-4521200D01*
X12217400Y-5243200D02*
X12217400Y-5323200D01*
X12177400Y-5283200D02*
X12257400Y-5283200D01*
X12446000Y-6030600D02*
X12446000Y-6110600D01*
X12406000Y-6070600D02*
X12486000Y-6070600D01*
X12446000Y-6284600D02*
X12446000Y-6364600D01*
X12406000Y-6324600D02*
X12486000Y-6324600D01*
X12446000Y-6538600D02*
X12446000Y-6618600D01*
X12406000Y-6578600D02*
X12486000Y-6578600D01*
X12446000Y-6792600D02*
X12446000Y-6872600D01*
X12406000Y-6832600D02*
X12486000Y-6832600D01*
X12446000Y-7046600D02*
X12446000Y-7126600D01*
X12406000Y-7086600D02*
X12486000Y-7086600D01*
X12446000Y-7300600D02*
X12446000Y-7380600D01*
X12406000Y-7340600D02*
X12486000Y-7340600D01*
X12446000Y-7554600D02*
X12446000Y-7634600D01*
X12406000Y-7594600D02*
X12486000Y-7594600D01*
X12446000Y-7808600D02*
X12446000Y-7888600D01*
X12406000Y-7848600D02*
X12486000Y-7848600D01*
X12446000Y-8062600D02*
X12446000Y-8142600D01*
X12406000Y-8102600D02*
X12486000Y-8102600D01*
X12446000Y-8316600D02*
X12446000Y-8396600D01*
X12406000Y-8356600D02*
X12486000Y-8356600D01*
X12446000Y-8570600D02*
X12446000Y-8650600D01*
X12406000Y-8610600D02*
X12486000Y-8610600D01*
X12446000Y-8824600D02*
X12446000Y-8904600D01*
X12406000Y-8864600D02*
X12486000Y-8864600D01*
X12446000Y-9078600D02*
X12446000Y-9158600D01*
X12406000Y-9118600D02*
X12486000Y-9118600D01*
X12446000Y-9332600D02*
X12446000Y-9412600D01*
X12406000Y-9372600D02*
X12486000Y-9372600D01*
X12446000Y-9586600D02*
X12446000Y-9666600D01*
X12406000Y-9626600D02*
X12486000Y-9626600D01*
X12446000Y-9840600D02*
X12446000Y-9920600D01*
X12406000Y-9880600D02*
X12486000Y-9880600D01*
X12471400Y-4481200D02*
X12471400Y-4561200D01*
X12431400Y-4521200D02*
X12511400Y-4521200D01*
X12471400Y-5243200D02*
X12471400Y-5323200D01*
X12431400Y-5283200D02*
X12511400Y-5283200D01*
X13258800Y-4667000D02*
X13258800Y-4747000D01*
X13218800Y-4707000D02*
X13298800Y-4707000D01*
X13258800Y-5167000D02*
X13258800Y-5247000D01*
X13218800Y-5207000D02*
X13298800Y-5207000D01*
X13466000Y-5700400D02*
X13466000Y-5780400D01*
X13426000Y-5740400D02*
X13506000Y-5740400D01*
X13639800Y-4506600D02*
X13639800Y-4586600D01*
X13599800Y-4546600D02*
X13679800Y-4546600D01*
X13639800Y-5268600D02*
X13639800Y-5348600D01*
X13599800Y-5308600D02*
X13679800Y-5308600D01*
X13893800Y-4506600D02*
X13893800Y-4586600D01*
X13853800Y-4546600D02*
X13933800Y-4546600D01*
X13893800Y-5268600D02*
X13893800Y-5348600D01*
X13853800Y-5308600D02*
X13933800Y-5308600D01*
X13966000Y-5700400D02*
X13966000Y-5780400D01*
X13926000Y-5740400D02*
X14006000Y-5740400D01*
X13970000Y-6030600D02*
X13970000Y-6110600D01*
X13930000Y-6070600D02*
X14010000Y-6070600D01*
X13970000Y-6284600D02*
X13970000Y-6364600D01*
X13930000Y-6324600D02*
X14010000Y-6324600D01*
X13970000Y-6538600D02*
X13970000Y-6618600D01*
X13930000Y-6578600D02*
X14010000Y-6578600D01*
X13970000Y-6792600D02*
X13970000Y-6872600D01*
X13930000Y-6832600D02*
X14010000Y-6832600D01*
X13970000Y-7046600D02*
X13970000Y-7126600D01*
X13930000Y-7086600D02*
X14010000Y-7086600D01*
X13970000Y-7300600D02*
X13970000Y-7380600D01*
X13930000Y-7340600D02*
X14010000Y-7340600D01*
X13970000Y-7554600D02*
X13970000Y-7634600D01*
X13930000Y-7594600D02*
X14010000Y-7594600D01*
X13970000Y-7808600D02*
X13970000Y-7888600D01*
X13930000Y-7848600D02*
X14010000Y-7848600D01*
X13970000Y-8062600D02*
X13970000Y-8142600D01*
X13930000Y-8102600D02*
X14010000Y-8102600D01*
X13970000Y-8316600D02*
X13970000Y-8396600D01*
X13930000Y-8356600D02*
X14010000Y-8356600D01*
X13970000Y-8570600D02*
X13970000Y-8650600D01*
X13930000Y-8610600D02*
X14010000Y-8610600D01*
X13970000Y-8824600D02*
X13970000Y-8904600D01*
X13930000Y-8864600D02*
X14010000Y-8864600D01*
X13970000Y-9078600D02*
X13970000Y-9158600D01*
X13930000Y-9118600D02*
X14010000Y-9118600D01*
X13970000Y-9332600D02*
X13970000Y-9412600D01*
X13930000Y-9372600D02*
X14010000Y-9372600D01*
X13970000Y-9586600D02*
X13970000Y-9666600D01*
X13930000Y-9626600D02*
X14010000Y-9626600D01*
X13970000Y-9840600D02*
X13970000Y-9920600D01*
X13930000Y-9880600D02*
X14010000Y-9880600D01*
X14147800Y-4506600D02*
X14147800Y-4586600D01*
X14107800Y-4546600D02*
X14187800Y-4546600D01*
X14147800Y-5268600D02*
X14147800Y-5348600D01*
X14107800Y-5308600D02*
X14187800Y-5308600D01*
X14401800Y-4506600D02*
X14401800Y-4586600D01*
X14361800Y-4546600D02*
X14441800Y-4546600D01*
X14401800Y-5268600D02*
X14401800Y-5348600D01*
X14361800Y-5308600D02*
X14441800Y-5308600D01*
X14630400Y-6030600D02*
X14630400Y-6110600D01*
X14590400Y-6070600D02*
X14670400Y-6070600D01*
X14630400Y-6284600D02*
X14630400Y-6364600D01*
X14590400Y-6324600D02*
X14670400Y-6324600D01*
X14630400Y-6538600D02*
X14630400Y-6618600D01*
X14590400Y-6578600D02*
X14670400Y-6578600D01*
X14630400Y-6792600D02*
X14630400Y-6872600D01*
X14590400Y-6832600D02*
X14670400Y-6832600D01*
X14630400Y-7046600D02*
X14630400Y-7126600D01*
X14590400Y-7086600D02*
X14670400Y-7086600D01*
X14630400Y-7300600D02*
X14630400Y-7380600D01*
X14590400Y-7340600D02*
X14670400Y-7340600D01*
X14630400Y-7554600D02*
X14630400Y-7634600D01*
X14590400Y-7594600D02*
X14670400Y-7594600D01*
X14630400Y-7808600D02*
X14630400Y-7888600D01*
X14590400Y-7848600D02*
X14670400Y-7848600D01*
X14630400Y-8062600D02*
X14630400Y-8142600D01*
X14590400Y-8102600D02*
X14670400Y-8102600D01*
X14630400Y-8316600D02*
X14630400Y-8396600D01*
X14590400Y-8356600D02*
X14670400Y-8356600D01*
X14630400Y-8570600D02*
X14630400Y-8650600D01*
X14590400Y-8610600D02*
X14670400Y-8610600D01*
X14630400Y-8824600D02*
X14630400Y-8904600D01*
X14590400Y-8864600D02*
X14670400Y-8864600D01*
X14630400Y-9078600D02*
X14630400Y-9158600D01*
X14590400Y-9118600D02*
X14670400Y-9118600D01*
X14630400Y-9332600D02*
X14630400Y-9412600D01*
X14590400Y-9372600D02*
X14670400Y-9372600D01*
X14630400Y-9586600D02*
X14630400Y-9666600D01*
X14590400Y-9626600D02*
X14670400Y-9626600D01*
X14630400Y-9840600D02*
X14630400Y-9920600D01*
X14590400Y-9880600D02*
X14670400Y-9880600D01*
X14655800Y-4506600D02*
X14655800Y-4586600D01*
X14615800Y-4546600D02*
X14695800Y-4546600D01*
X14655800Y-5268600D02*
X14655800Y-5348600D01*
X14615800Y-5308600D02*
X14695800Y-5308600D01*
X14909800Y-4506600D02*
X14909800Y-4586600D01*
X14869800Y-4546600D02*
X14949800Y-4546600D01*
X14909800Y-5268600D02*
X14909800Y-5348600D01*
X14869800Y-5308600D02*
X14949800Y-5308600D01*
X15163800Y-4506600D02*
X15163800Y-4586600D01*
X15123800Y-4546600D02*
X15203800Y-4546600D01*
X15163800Y-5268600D02*
X15163800Y-5348600D01*
X15123800Y-5308600D02*
X15203800Y-5308600D01*
X15417800Y-4506600D02*
X15417800Y-4586600D01*
X15377800Y-4546600D02*
X15457800Y-4546600D01*
X15417800Y-5268600D02*
X15417800Y-5348600D01*
X15377800Y-5308600D02*
X15457800Y-5308600D01*
X15654400Y-5700400D02*
X15654400Y-5780400D01*
X15614400Y-5740400D02*
X15694400Y-5740400D01*
X16129000Y-4641600D02*
X16129000Y-4721600D01*
X16089000Y-4681600D02*
X16169000Y-4681600D01*
X16129000Y-5141600D02*
X16129000Y-5221600D01*
X16089000Y-5181600D02*
X16169000Y-5181600D01*
X16154400Y-5700400D02*
X16154400Y-5780400D01*
X16114400Y-5740400D02*
X16194400Y-5740400D01*
X16154400Y-6030600D02*
X16154400Y-6110600D01*
X16114400Y-6070600D02*
X16194400Y-6070600D01*
X16154400Y-6284600D02*
X16154400Y-6364600D01*
X16114400Y-6324600D02*
X16194400Y-6324600D01*
X16154400Y-6538600D02*
X16154400Y-6618600D01*
X16114400Y-6578600D02*
X16194400Y-6578600D01*
X16154400Y-6792600D02*
X16154400Y-6872600D01*
X16114400Y-6832600D02*
X16194400Y-6832600D01*
X16154400Y-7046600D02*
X16154400Y-7126600D01*
X16114400Y-7086600D02*
X16194400Y-7086600D01*
X16154400Y-7300600D02*
X16154400Y-7380600D01*
X16114400Y-7340600D02*
X16194400Y-7340600D01*
X16154400Y-7554600D02*
X16154400Y-7634600D01*
X16114400Y-7594600D02*
X16194400Y-7594600D01*
X16154400Y-7808600D02*
X16154400Y-7888600D01*
X16114400Y-7848600D02*
X16194400Y-7848600D01*
X16154400Y-8062600D02*
X16154400Y-8142600D01*
X16114400Y-8102600D02*
X16194400Y-8102600D01*
X16154400Y-8316600D02*
X16154400Y-8396600D01*
X16114400Y-8356600D02*
X16194400Y-8356600D01*
X16154400Y-8570600D02*
X16154400Y-8650600D01*
X16114400Y-8610600D02*
X16194400Y-8610600D01*
X16154400Y-8824600D02*
X16154400Y-8904600D01*
X16114400Y-8864600D02*
X16194400Y-8864600D01*
X16154400Y-9078600D02*
X16154400Y-9158600D01*
X16114400Y-9118600D02*
X16194400Y-9118600D01*
X16154400Y-9332600D02*
X16154400Y-9412600D01*
X16114400Y-9372600D02*
X16194400Y-9372600D01*
X16154400Y-9586600D02*
X16154400Y-9666600D01*
X16114400Y-9626600D02*
X16194400Y-9626600D01*
X16154400Y-9840600D02*
X16154400Y-9920600D01*
X16114400Y-9880600D02*
X16194400Y-9880600D01*
X16484600Y-4481200D02*
X16484600Y-4561200D01*
X16444600Y-4521200D02*
X16524600Y-4521200D01*
X16484600Y-5243200D02*
X16484600Y-5323200D01*
X16444600Y-5283200D02*
X16524600Y-5283200D01*
X16713200Y-6030600D02*
X16713200Y-6110600D01*
X16673200Y-6070600D02*
X16753200Y-6070600D01*
X16713200Y-6284600D02*
X16713200Y-6364600D01*
X16673200Y-6324600D02*
X16753200Y-6324600D01*
X16713200Y-6538600D02*
X16713200Y-6618600D01*
X16673200Y-6578600D02*
X16753200Y-6578600D01*
X16713200Y-6792600D02*
X16713200Y-6872600D01*
X16673200Y-6832600D02*
X16753200Y-6832600D01*
X16713200Y-7046600D02*
X16713200Y-7126600D01*
X16673200Y-7086600D02*
X16753200Y-7086600D01*
X16713200Y-7300600D02*
X16713200Y-7380600D01*
X16673200Y-7340600D02*
X16753200Y-7340600D01*
X16713200Y-7554600D02*
X16713200Y-7634600D01*
X16673200Y-7594600D02*
X16753200Y-7594600D01*
X16713200Y-7808600D02*
X16713200Y-7888600D01*
X16673200Y-7848600D02*
X16753200Y-7848600D01*
X16713200Y-8062600D02*
X16713200Y-8142600D01*
X16673200Y-8102600D02*
X16753200Y-8102600D01*
X16713200Y-8316600D02*
X16713200Y-8396600D01*
X16673200Y-8356600D02*
X16753200Y-8356600D01*
X16713200Y-8570600D02*
X16713200Y-8650600D01*
X16673200Y-8610600D02*
X16753200Y-8610600D01*
X16713200Y-8824600D02*
X16713200Y-8904600D01*
X16673200Y-8864600D02*
X16753200Y-8864600D01*
X16713200Y-9078600D02*
X16713200Y-9158600D01*
X16673200Y-9118600D02*
X16753200Y-9118600D01*
X16713200Y-9332600D02*
X16713200Y-9412600D01*
X16673200Y-9372600D02*
X16753200Y-9372600D01*
X16713200Y-9586600D02*
X16713200Y-9666600D01*
X16673200Y-9626600D02*
X16753200Y-9626600D01*
X16713200Y-9840600D02*
X16713200Y-9920600D01*
X16673200Y-9880600D02*
X16753200Y-9880600D01*
X16738600Y-4481200D02*
X16738600Y-4561200D01*
X16698600Y-4521200D02*
X16778600Y-4521200D01*
X16738600Y-5243200D02*
X16738600Y-5323200D01*
X16698600Y-5283200D02*
X16778600Y-5283200D01*
X16992600Y-4481200D02*
X16992600Y-4561200D01*
X16952600Y-4521200D02*
X17032600Y-4521200D01*
X16992600Y-5243200D02*
X16992600Y-5323200D01*
X16952600Y-5283200D02*
X17032600Y-5283200D01*
X17246600Y-4481200D02*
X17246600Y-4561200D01*
X17206600Y-4521200D02*
X17286600Y-4521200D01*
X17246600Y-5243200D02*
X17246600Y-5323200D01*
X17206600Y-5283200D02*
X17286600Y-5283200D01*
X17500600Y-4481200D02*
X17500600Y-4561200D01*
X17460600Y-4521200D02*
X17540600Y-4521200D01*
X17500600Y-5243200D02*
X17500600Y-5323200D01*
X17460600Y-5283200D02*
X17540600Y-5283200D01*
X17733200Y-5675000D02*
X17733200Y-5755000D01*
X17693200Y-5715000D02*
X17773200Y-5715000D01*
X17754600Y-4481200D02*
X17754600Y-4561200D01*
X17714600Y-4521200D02*
X17794600Y-4521200D01*
X17754600Y-5243200D02*
X17754600Y-5323200D01*
X17714600Y-5283200D02*
X17794600Y-5283200D01*
X18008600Y-4481200D02*
X18008600Y-4561200D01*
X17968600Y-4521200D02*
X18048600Y-4521200D01*
X18008600Y-5243200D02*
X18008600Y-5323200D01*
X17968600Y-5283200D02*
X18048600Y-5283200D01*
X18233200Y-5675000D02*
X18233200Y-5755000D01*
X18193200Y-5715000D02*
X18273200Y-5715000D01*
X18237200Y-6030600D02*
X18237200Y-6110600D01*
X18197200Y-6070600D02*
X18277200Y-6070600D01*
X18237200Y-6284600D02*
X18237200Y-6364600D01*
X18197200Y-6324600D02*
X18277200Y-6324600D01*
X18237200Y-6538600D02*
X18237200Y-6618600D01*
X18197200Y-6578600D02*
X18277200Y-6578600D01*
X18237200Y-6792600D02*
X18237200Y-6872600D01*
X18197200Y-6832600D02*
X18277200Y-6832600D01*
X18237200Y-7046600D02*
X18237200Y-7126600D01*
X18197200Y-7086600D02*
X18277200Y-7086600D01*
X18237200Y-7300600D02*
X18237200Y-7380600D01*
X18197200Y-7340600D02*
X18277200Y-7340600D01*
X18237200Y-7554600D02*
X18237200Y-7634600D01*
X18197200Y-7594600D02*
X18277200Y-7594600D01*
X18237200Y-7808600D02*
X18237200Y-7888600D01*
X18197200Y-7848600D02*
X18277200Y-7848600D01*
X18237200Y-8062600D02*
X18237200Y-8142600D01*
X18197200Y-8102600D02*
X18277200Y-8102600D01*
X18237200Y-8316600D02*
X18237200Y-8396600D01*
X18197200Y-8356600D02*
X18277200Y-8356600D01*
X18237200Y-8570600D02*
X18237200Y-8650600D01*
X18197200Y-8610600D02*
X18277200Y-8610600D01*
X18237200Y-8824600D02*
X18237200Y-8904600D01*
X18197200Y-8864600D02*
X18277200Y-8864600D01*
X18237200Y-9078600D02*
X18237200Y-9158600D01*
X18197200Y-9118600D02*
X18277200Y-9118600D01*
X18237200Y-9332600D02*
X18237200Y-9412600D01*
X18197200Y-9372600D02*
X18277200Y-9372600D01*
X18237200Y-9586600D02*
X18237200Y-9666600D01*
X18197200Y-9626600D02*
X18277200Y-9626600D01*
X18237200Y-9840600D02*
X18237200Y-9920600D01*
X18197200Y-9880600D02*
X18277200Y-9880600D01*
X18262600Y-4481200D02*
X18262600Y-4561200D01*
X18222600Y-4521200D02*
X18302600Y-4521200D01*
X18262600Y-5243200D02*
X18262600Y-5323200D01*
X18222600Y-5283200D02*
X18302600Y-5283200D01*
D11*
X9021912Y-12093992D02*
X9021912Y-11893992D01*
X9021912Y-11893992D02*
X9069531Y-11893992D01*
X9069531Y-11893992D02*
X9098103Y-11903515D01*
X9098103Y-11903515D02*
X9117150Y-11922563D01*
X9117150Y-11922563D02*
X9126674Y-11941611D01*
X9126674Y-11941611D02*
X9136198Y-11979706D01*
X9136198Y-11979706D02*
X9136198Y-12008277D01*
X9136198Y-12008277D02*
X9126674Y-12046373D01*
X9126674Y-12046373D02*
X9117150Y-12065420D01*
X9117150Y-12065420D02*
X9098103Y-12084468D01*
X9098103Y-12084468D02*
X9069531Y-12093992D01*
X9069531Y-12093992D02*
X9021912Y-12093992D01*
X9221912Y-12093992D02*
X9221912Y-11960658D01*
X9221912Y-11998754D02*
X9231436Y-11979706D01*
X9231436Y-11979706D02*
X9240960Y-11970182D01*
X9240960Y-11970182D02*
X9260008Y-11960658D01*
X9260008Y-11960658D02*
X9279055Y-11960658D01*
X9345722Y-12093992D02*
X9345722Y-11960658D01*
X9345722Y-11893992D02*
X9336198Y-11903515D01*
X9336198Y-11903515D02*
X9345722Y-11913039D01*
X9345722Y-11913039D02*
X9355246Y-11903515D01*
X9355246Y-11903515D02*
X9345722Y-11893992D01*
X9345722Y-11893992D02*
X9345722Y-11913039D01*
X9469531Y-12093992D02*
X9450484Y-12084468D01*
X9450484Y-12084468D02*
X9440960Y-12065420D01*
X9440960Y-12065420D02*
X9440960Y-11893992D01*
X9574293Y-12093992D02*
X9555246Y-12084468D01*
X9555246Y-12084468D02*
X9545722Y-12065420D01*
X9545722Y-12065420D02*
X9545722Y-11893992D01*
X9802865Y-12093992D02*
X9802865Y-11893992D01*
X9802865Y-11893992D02*
X9869531Y-12036849D01*
X9869531Y-12036849D02*
X9936198Y-11893992D01*
X9936198Y-11893992D02*
X9936198Y-12093992D01*
X10117150Y-12093992D02*
X10117150Y-11989230D01*
X10117150Y-11989230D02*
X10107627Y-11970182D01*
X10107627Y-11970182D02*
X10088579Y-11960658D01*
X10088579Y-11960658D02*
X10050484Y-11960658D01*
X10050484Y-11960658D02*
X10031436Y-11970182D01*
X10117150Y-12084468D02*
X10098103Y-12093992D01*
X10098103Y-12093992D02*
X10050484Y-12093992D01*
X10050484Y-12093992D02*
X10031436Y-12084468D01*
X10031436Y-12084468D02*
X10021912Y-12065420D01*
X10021912Y-12065420D02*
X10021912Y-12046373D01*
X10021912Y-12046373D02*
X10031436Y-12027325D01*
X10031436Y-12027325D02*
X10050484Y-12017801D01*
X10050484Y-12017801D02*
X10098103Y-12017801D01*
X10098103Y-12017801D02*
X10117150Y-12008277D01*
X10212389Y-11960658D02*
X10212389Y-12160658D01*
X10212389Y-11970182D02*
X10231436Y-11960658D01*
X10231436Y-11960658D02*
X10269531Y-11960658D01*
X10269531Y-11960658D02*
X10288579Y-11970182D01*
X10288579Y-11970182D02*
X10298103Y-11979706D01*
X10298103Y-11979706D02*
X10307627Y-11998754D01*
X10307627Y-11998754D02*
X10307627Y-12055896D01*
X10307627Y-12055896D02*
X10298103Y-12074944D01*
X10298103Y-12074944D02*
X10288579Y-12084468D01*
X10288579Y-12084468D02*
X10269531Y-12093992D01*
X10269531Y-12093992D02*
X10231436Y-12093992D01*
X10231436Y-12093992D02*
X10212389Y-12084468D01*
X10393341Y-12074944D02*
X10402865Y-12084468D01*
X10402865Y-12084468D02*
X10393341Y-12093992D01*
X10393341Y-12093992D02*
X10383817Y-12084468D01*
X10383817Y-12084468D02*
X10393341Y-12074944D01*
X10393341Y-12074944D02*
X10393341Y-12093992D01*
X10393341Y-11970182D02*
X10402865Y-11979706D01*
X10402865Y-11979706D02*
X10393341Y-11989230D01*
X10393341Y-11989230D02*
X10383817Y-11979706D01*
X10383817Y-11979706D02*
X10393341Y-11970182D01*
X10393341Y-11970182D02*
X10393341Y-11989230D01*
D12*
X8731136Y-12407508D02*
X8761136Y-12437508D01*
X8761136Y-12407508D02*
X8731136Y-12437508D01*
D11*
X9060008Y-12313992D02*
X9079055Y-12313992D01*
X9079055Y-12313992D02*
X9098103Y-12323515D01*
X9098103Y-12323515D02*
X9107627Y-12333039D01*
X9107627Y-12333039D02*
X9117150Y-12352087D01*
X9117150Y-12352087D02*
X9126674Y-12390182D01*
X9126674Y-12390182D02*
X9126674Y-12437801D01*
X9126674Y-12437801D02*
X9117150Y-12475896D01*
X9117150Y-12475896D02*
X9107627Y-12494944D01*
X9107627Y-12494944D02*
X9098103Y-12504468D01*
X9098103Y-12504468D02*
X9079055Y-12513992D01*
X9079055Y-12513992D02*
X9060008Y-12513992D01*
X9060008Y-12513992D02*
X9040960Y-12504468D01*
X9040960Y-12504468D02*
X9031436Y-12494944D01*
X9031436Y-12494944D02*
X9021912Y-12475896D01*
X9021912Y-12475896D02*
X9012389Y-12437801D01*
X9012389Y-12437801D02*
X9012389Y-12390182D01*
X9012389Y-12390182D02*
X9021912Y-12352087D01*
X9021912Y-12352087D02*
X9031436Y-12333039D01*
X9031436Y-12333039D02*
X9040960Y-12323515D01*
X9040960Y-12323515D02*
X9060008Y-12313992D01*
X9212389Y-12494944D02*
X9221912Y-12504468D01*
X9221912Y-12504468D02*
X9212389Y-12513992D01*
X9212389Y-12513992D02*
X9202865Y-12504468D01*
X9202865Y-12504468D02*
X9212389Y-12494944D01*
X9212389Y-12494944D02*
X9212389Y-12513992D01*
X9288579Y-12313992D02*
X9412389Y-12313992D01*
X9412389Y-12313992D02*
X9345722Y-12390182D01*
X9345722Y-12390182D02*
X9374293Y-12390182D01*
X9374293Y-12390182D02*
X9393341Y-12399706D01*
X9393341Y-12399706D02*
X9402865Y-12409230D01*
X9402865Y-12409230D02*
X9412389Y-12428277D01*
X9412389Y-12428277D02*
X9412389Y-12475896D01*
X9412389Y-12475896D02*
X9402865Y-12494944D01*
X9402865Y-12494944D02*
X9393341Y-12504468D01*
X9393341Y-12504468D02*
X9374293Y-12513992D01*
X9374293Y-12513992D02*
X9317150Y-12513992D01*
X9317150Y-12513992D02*
X9298103Y-12504468D01*
X9298103Y-12504468D02*
X9288579Y-12494944D01*
X9536198Y-12313992D02*
X9555246Y-12313992D01*
X9555246Y-12313992D02*
X9574293Y-12323515D01*
X9574293Y-12323515D02*
X9583817Y-12333039D01*
X9583817Y-12333039D02*
X9593341Y-12352087D01*
X9593341Y-12352087D02*
X9602865Y-12390182D01*
X9602865Y-12390182D02*
X9602865Y-12437801D01*
X9602865Y-12437801D02*
X9593341Y-12475896D01*
X9593341Y-12475896D02*
X9583817Y-12494944D01*
X9583817Y-12494944D02*
X9574293Y-12504468D01*
X9574293Y-12504468D02*
X9555246Y-12513992D01*
X9555246Y-12513992D02*
X9536198Y-12513992D01*
X9536198Y-12513992D02*
X9517150Y-12504468D01*
X9517150Y-12504468D02*
X9507627Y-12494944D01*
X9507627Y-12494944D02*
X9498103Y-12475896D01*
X9498103Y-12475896D02*
X9488579Y-12437801D01*
X9488579Y-12437801D02*
X9488579Y-12390182D01*
X9488579Y-12390182D02*
X9498103Y-12352087D01*
X9498103Y-12352087D02*
X9507627Y-12333039D01*
X9507627Y-12333039D02*
X9517150Y-12323515D01*
X9517150Y-12323515D02*
X9536198Y-12313992D01*
X9726674Y-12313992D02*
X9745722Y-12313992D01*
X9745722Y-12313992D02*
X9764770Y-12323515D01*
X9764770Y-12323515D02*
X9774293Y-12333039D01*
X9774293Y-12333039D02*
X9783817Y-12352087D01*
X9783817Y-12352087D02*
X9793341Y-12390182D01*
X9793341Y-12390182D02*
X9793341Y-12437801D01*
X9793341Y-12437801D02*
X9783817Y-12475896D01*
X9783817Y-12475896D02*
X9774293Y-12494944D01*
X9774293Y-12494944D02*
X9764770Y-12504468D01*
X9764770Y-12504468D02*
X9745722Y-12513992D01*
X9745722Y-12513992D02*
X9726674Y-12513992D01*
X9726674Y-12513992D02*
X9707627Y-12504468D01*
X9707627Y-12504468D02*
X9698103Y-12494944D01*
X9698103Y-12494944D02*
X9688579Y-12475896D01*
X9688579Y-12475896D02*
X9679055Y-12437801D01*
X9679055Y-12437801D02*
X9679055Y-12390182D01*
X9679055Y-12390182D02*
X9688579Y-12352087D01*
X9688579Y-12352087D02*
X9698103Y-12333039D01*
X9698103Y-12333039D02*
X9707627Y-12323515D01*
X9707627Y-12323515D02*
X9726674Y-12313992D01*
X9879055Y-12513992D02*
X9879055Y-12380658D01*
X9879055Y-12399706D02*
X9888579Y-12390182D01*
X9888579Y-12390182D02*
X9907627Y-12380658D01*
X9907627Y-12380658D02*
X9936198Y-12380658D01*
X9936198Y-12380658D02*
X9955246Y-12390182D01*
X9955246Y-12390182D02*
X9964770Y-12409230D01*
X9964770Y-12409230D02*
X9964770Y-12513992D01*
X9964770Y-12409230D02*
X9974293Y-12390182D01*
X9974293Y-12390182D02*
X9993341Y-12380658D01*
X9993341Y-12380658D02*
X10021912Y-12380658D01*
X10021912Y-12380658D02*
X10040960Y-12390182D01*
X10040960Y-12390182D02*
X10050484Y-12409230D01*
X10050484Y-12409230D02*
X10050484Y-12513992D01*
X10145722Y-12513992D02*
X10145722Y-12380658D01*
X10145722Y-12399706D02*
X10155246Y-12390182D01*
X10155246Y-12390182D02*
X10174293Y-12380658D01*
X10174293Y-12380658D02*
X10202865Y-12380658D01*
X10202865Y-12380658D02*
X10221912Y-12390182D01*
X10221912Y-12390182D02*
X10231436Y-12409230D01*
X10231436Y-12409230D02*
X10231436Y-12513992D01*
X10231436Y-12409230D02*
X10240960Y-12390182D01*
X10240960Y-12390182D02*
X10260008Y-12380658D01*
X10260008Y-12380658D02*
X10288579Y-12380658D01*
X10288579Y-12380658D02*
X10307627Y-12390182D01*
X10307627Y-12390182D02*
X10317151Y-12409230D01*
X10317151Y-12409230D02*
X10317151Y-12513992D01*
X10707627Y-12304468D02*
X10536198Y-12561611D01*
X10964770Y-12313992D02*
X10983817Y-12313992D01*
X10983817Y-12313992D02*
X11002865Y-12323515D01*
X11002865Y-12323515D02*
X11012389Y-12333039D01*
X11012389Y-12333039D02*
X11021913Y-12352087D01*
X11021913Y-12352087D02*
X11031436Y-12390182D01*
X11031436Y-12390182D02*
X11031436Y-12437801D01*
X11031436Y-12437801D02*
X11021913Y-12475896D01*
X11021913Y-12475896D02*
X11012389Y-12494944D01*
X11012389Y-12494944D02*
X11002865Y-12504468D01*
X11002865Y-12504468D02*
X10983817Y-12513992D01*
X10983817Y-12513992D02*
X10964770Y-12513992D01*
X10964770Y-12513992D02*
X10945722Y-12504468D01*
X10945722Y-12504468D02*
X10936198Y-12494944D01*
X10936198Y-12494944D02*
X10926674Y-12475896D01*
X10926674Y-12475896D02*
X10917151Y-12437801D01*
X10917151Y-12437801D02*
X10917151Y-12390182D01*
X10917151Y-12390182D02*
X10926674Y-12352087D01*
X10926674Y-12352087D02*
X10936198Y-12333039D01*
X10936198Y-12333039D02*
X10945722Y-12323515D01*
X10945722Y-12323515D02*
X10964770Y-12313992D01*
X11117151Y-12494944D02*
X11126674Y-12504468D01*
X11126674Y-12504468D02*
X11117151Y-12513992D01*
X11117151Y-12513992D02*
X11107627Y-12504468D01*
X11107627Y-12504468D02*
X11117151Y-12494944D01*
X11117151Y-12494944D02*
X11117151Y-12513992D01*
X11250484Y-12313992D02*
X11269532Y-12313992D01*
X11269532Y-12313992D02*
X11288579Y-12323515D01*
X11288579Y-12323515D02*
X11298103Y-12333039D01*
X11298103Y-12333039D02*
X11307627Y-12352087D01*
X11307627Y-12352087D02*
X11317151Y-12390182D01*
X11317151Y-12390182D02*
X11317151Y-12437801D01*
X11317151Y-12437801D02*
X11307627Y-12475896D01*
X11307627Y-12475896D02*
X11298103Y-12494944D01*
X11298103Y-12494944D02*
X11288579Y-12504468D01*
X11288579Y-12504468D02*
X11269532Y-12513992D01*
X11269532Y-12513992D02*
X11250484Y-12513992D01*
X11250484Y-12513992D02*
X11231436Y-12504468D01*
X11231436Y-12504468D02*
X11221912Y-12494944D01*
X11221912Y-12494944D02*
X11212389Y-12475896D01*
X11212389Y-12475896D02*
X11202865Y-12437801D01*
X11202865Y-12437801D02*
X11202865Y-12390182D01*
X11202865Y-12390182D02*
X11212389Y-12352087D01*
X11212389Y-12352087D02*
X11221912Y-12333039D01*
X11221912Y-12333039D02*
X11231436Y-12323515D01*
X11231436Y-12323515D02*
X11250484Y-12313992D01*
X11507627Y-12513992D02*
X11393341Y-12513992D01*
X11450484Y-12513992D02*
X11450484Y-12313992D01*
X11450484Y-12313992D02*
X11431436Y-12342563D01*
X11431436Y-12342563D02*
X11412389Y-12361611D01*
X11412389Y-12361611D02*
X11393341Y-12371134D01*
X11698103Y-12513992D02*
X11583817Y-12513992D01*
X11640960Y-12513992D02*
X11640960Y-12313992D01*
X11640960Y-12313992D02*
X11621912Y-12342563D01*
X11621912Y-12342563D02*
X11602865Y-12361611D01*
X11602865Y-12361611D02*
X11583817Y-12371134D01*
X11812389Y-12399706D02*
X11793341Y-12390182D01*
X11793341Y-12390182D02*
X11783817Y-12380658D01*
X11783817Y-12380658D02*
X11774293Y-12361611D01*
X11774293Y-12361611D02*
X11774293Y-12352087D01*
X11774293Y-12352087D02*
X11783817Y-12333039D01*
X11783817Y-12333039D02*
X11793341Y-12323515D01*
X11793341Y-12323515D02*
X11812389Y-12313992D01*
X11812389Y-12313992D02*
X11850484Y-12313992D01*
X11850484Y-12313992D02*
X11869532Y-12323515D01*
X11869532Y-12323515D02*
X11879055Y-12333039D01*
X11879055Y-12333039D02*
X11888579Y-12352087D01*
X11888579Y-12352087D02*
X11888579Y-12361611D01*
X11888579Y-12361611D02*
X11879055Y-12380658D01*
X11879055Y-12380658D02*
X11869532Y-12390182D01*
X11869532Y-12390182D02*
X11850484Y-12399706D01*
X11850484Y-12399706D02*
X11812389Y-12399706D01*
X11812389Y-12399706D02*
X11793341Y-12409230D01*
X11793341Y-12409230D02*
X11783817Y-12418754D01*
X11783817Y-12418754D02*
X11774293Y-12437801D01*
X11774293Y-12437801D02*
X11774293Y-12475896D01*
X11774293Y-12475896D02*
X11783817Y-12494944D01*
X11783817Y-12494944D02*
X11793341Y-12504468D01*
X11793341Y-12504468D02*
X11812389Y-12513992D01*
X11812389Y-12513992D02*
X11850484Y-12513992D01*
X11850484Y-12513992D02*
X11869532Y-12504468D01*
X11869532Y-12504468D02*
X11879055Y-12494944D01*
X11879055Y-12494944D02*
X11888579Y-12475896D01*
X11888579Y-12475896D02*
X11888579Y-12437801D01*
X11888579Y-12437801D02*
X11879055Y-12418754D01*
X11879055Y-12418754D02*
X11869532Y-12409230D01*
X11869532Y-12409230D02*
X11850484Y-12399706D01*
X11964770Y-12313992D02*
X11964770Y-12352087D01*
X12040960Y-12313992D02*
X12040960Y-12352087D01*
X12336198Y-12590182D02*
X12326674Y-12580658D01*
X12326674Y-12580658D02*
X12307627Y-12552087D01*
X12307627Y-12552087D02*
X12298103Y-12533039D01*
X12298103Y-12533039D02*
X12288579Y-12504468D01*
X12288579Y-12504468D02*
X12279055Y-12456849D01*
X12279055Y-12456849D02*
X12279055Y-12418754D01*
X12279055Y-12418754D02*
X12288579Y-12371134D01*
X12288579Y-12371134D02*
X12298103Y-12342563D01*
X12298103Y-12342563D02*
X12307627Y-12323515D01*
X12307627Y-12323515D02*
X12326674Y-12294944D01*
X12326674Y-12294944D02*
X12336198Y-12285420D01*
X12402865Y-12333039D02*
X12412389Y-12323515D01*
X12412389Y-12323515D02*
X12431436Y-12313992D01*
X12431436Y-12313992D02*
X12479055Y-12313992D01*
X12479055Y-12313992D02*
X12498103Y-12323515D01*
X12498103Y-12323515D02*
X12507627Y-12333039D01*
X12507627Y-12333039D02*
X12517151Y-12352087D01*
X12517151Y-12352087D02*
X12517151Y-12371134D01*
X12517151Y-12371134D02*
X12507627Y-12399706D01*
X12507627Y-12399706D02*
X12393341Y-12513992D01*
X12393341Y-12513992D02*
X12517151Y-12513992D01*
X12707627Y-12513992D02*
X12593341Y-12513992D01*
X12650484Y-12513992D02*
X12650484Y-12313992D01*
X12650484Y-12313992D02*
X12631436Y-12342563D01*
X12631436Y-12342563D02*
X12612389Y-12361611D01*
X12612389Y-12361611D02*
X12593341Y-12371134D01*
X12945722Y-12513992D02*
X12945722Y-12313992D01*
X13031436Y-12513992D02*
X13031436Y-12409230D01*
X13031436Y-12409230D02*
X13021913Y-12390182D01*
X13021913Y-12390182D02*
X13002865Y-12380658D01*
X13002865Y-12380658D02*
X12974294Y-12380658D01*
X12974294Y-12380658D02*
X12955246Y-12390182D01*
X12955246Y-12390182D02*
X12945722Y-12399706D01*
X13155246Y-12513992D02*
X13136198Y-12504468D01*
X13136198Y-12504468D02*
X13126675Y-12494944D01*
X13126675Y-12494944D02*
X13117151Y-12475896D01*
X13117151Y-12475896D02*
X13117151Y-12418754D01*
X13117151Y-12418754D02*
X13126675Y-12399706D01*
X13126675Y-12399706D02*
X13136198Y-12390182D01*
X13136198Y-12390182D02*
X13155246Y-12380658D01*
X13155246Y-12380658D02*
X13183817Y-12380658D01*
X13183817Y-12380658D02*
X13202865Y-12390182D01*
X13202865Y-12390182D02*
X13212389Y-12399706D01*
X13212389Y-12399706D02*
X13221913Y-12418754D01*
X13221913Y-12418754D02*
X13221913Y-12475896D01*
X13221913Y-12475896D02*
X13212389Y-12494944D01*
X13212389Y-12494944D02*
X13202865Y-12504468D01*
X13202865Y-12504468D02*
X13183817Y-12513992D01*
X13183817Y-12513992D02*
X13155246Y-12513992D01*
X13336198Y-12513992D02*
X13317151Y-12504468D01*
X13317151Y-12504468D02*
X13307627Y-12485420D01*
X13307627Y-12485420D02*
X13307627Y-12313992D01*
X13488579Y-12504468D02*
X13469532Y-12513992D01*
X13469532Y-12513992D02*
X13431436Y-12513992D01*
X13431436Y-12513992D02*
X13412389Y-12504468D01*
X13412389Y-12504468D02*
X13402865Y-12485420D01*
X13402865Y-12485420D02*
X13402865Y-12409230D01*
X13402865Y-12409230D02*
X13412389Y-12390182D01*
X13412389Y-12390182D02*
X13431436Y-12380658D01*
X13431436Y-12380658D02*
X13469532Y-12380658D01*
X13469532Y-12380658D02*
X13488579Y-12390182D01*
X13488579Y-12390182D02*
X13498103Y-12409230D01*
X13498103Y-12409230D02*
X13498103Y-12428277D01*
X13498103Y-12428277D02*
X13402865Y-12447325D01*
X13574294Y-12504468D02*
X13593341Y-12513992D01*
X13593341Y-12513992D02*
X13631436Y-12513992D01*
X13631436Y-12513992D02*
X13650484Y-12504468D01*
X13650484Y-12504468D02*
X13660008Y-12485420D01*
X13660008Y-12485420D02*
X13660008Y-12475896D01*
X13660008Y-12475896D02*
X13650484Y-12456849D01*
X13650484Y-12456849D02*
X13631436Y-12447325D01*
X13631436Y-12447325D02*
X13602865Y-12447325D01*
X13602865Y-12447325D02*
X13583817Y-12437801D01*
X13583817Y-12437801D02*
X13574294Y-12418754D01*
X13574294Y-12418754D02*
X13574294Y-12409230D01*
X13574294Y-12409230D02*
X13583817Y-12390182D01*
X13583817Y-12390182D02*
X13602865Y-12380658D01*
X13602865Y-12380658D02*
X13631436Y-12380658D01*
X13631436Y-12380658D02*
X13650484Y-12390182D01*
X13726675Y-12590182D02*
X13736198Y-12580658D01*
X13736198Y-12580658D02*
X13755246Y-12552087D01*
X13755246Y-12552087D02*
X13764770Y-12533039D01*
X13764770Y-12533039D02*
X13774294Y-12504468D01*
X13774294Y-12504468D02*
X13783817Y-12456849D01*
X13783817Y-12456849D02*
X13783817Y-12418754D01*
X13783817Y-12418754D02*
X13774294Y-12371134D01*
X13774294Y-12371134D02*
X13764770Y-12342563D01*
X13764770Y-12342563D02*
X13755246Y-12323515D01*
X13755246Y-12323515D02*
X13736198Y-12294944D01*
X13736198Y-12294944D02*
X13726675Y-12285420D01*
D12*
X8761136Y-12686508D02*
G75*
G02*
X8721136Y-12686508I-20000J0D01*
G01*
X8721136Y-12686508D02*
G75*
G02*
X8761136Y-12686508I20000J0D01*
G01*
D11*
X9060008Y-12577992D02*
X9079055Y-12577992D01*
X9079055Y-12577992D02*
X9098103Y-12587515D01*
X9098103Y-12587515D02*
X9107627Y-12597039D01*
X9107627Y-12597039D02*
X9117150Y-12616087D01*
X9117150Y-12616087D02*
X9126674Y-12654182D01*
X9126674Y-12654182D02*
X9126674Y-12701801D01*
X9126674Y-12701801D02*
X9117150Y-12739896D01*
X9117150Y-12739896D02*
X9107627Y-12758944D01*
X9107627Y-12758944D02*
X9098103Y-12768468D01*
X9098103Y-12768468D02*
X9079055Y-12777992D01*
X9079055Y-12777992D02*
X9060008Y-12777992D01*
X9060008Y-12777992D02*
X9040960Y-12768468D01*
X9040960Y-12768468D02*
X9031436Y-12758944D01*
X9031436Y-12758944D02*
X9021912Y-12739896D01*
X9021912Y-12739896D02*
X9012389Y-12701801D01*
X9012389Y-12701801D02*
X9012389Y-12654182D01*
X9012389Y-12654182D02*
X9021912Y-12616087D01*
X9021912Y-12616087D02*
X9031436Y-12597039D01*
X9031436Y-12597039D02*
X9040960Y-12587515D01*
X9040960Y-12587515D02*
X9060008Y-12577992D01*
X9212389Y-12758944D02*
X9221912Y-12768468D01*
X9221912Y-12768468D02*
X9212389Y-12777992D01*
X9212389Y-12777992D02*
X9202865Y-12768468D01*
X9202865Y-12768468D02*
X9212389Y-12758944D01*
X9212389Y-12758944D02*
X9212389Y-12777992D01*
X9393341Y-12644658D02*
X9393341Y-12777992D01*
X9345722Y-12568468D02*
X9298103Y-12711325D01*
X9298103Y-12711325D02*
X9421912Y-12711325D01*
X9536198Y-12577992D02*
X9555246Y-12577992D01*
X9555246Y-12577992D02*
X9574293Y-12587515D01*
X9574293Y-12587515D02*
X9583817Y-12597039D01*
X9583817Y-12597039D02*
X9593341Y-12616087D01*
X9593341Y-12616087D02*
X9602865Y-12654182D01*
X9602865Y-12654182D02*
X9602865Y-12701801D01*
X9602865Y-12701801D02*
X9593341Y-12739896D01*
X9593341Y-12739896D02*
X9583817Y-12758944D01*
X9583817Y-12758944D02*
X9574293Y-12768468D01*
X9574293Y-12768468D02*
X9555246Y-12777992D01*
X9555246Y-12777992D02*
X9536198Y-12777992D01*
X9536198Y-12777992D02*
X9517150Y-12768468D01*
X9517150Y-12768468D02*
X9507627Y-12758944D01*
X9507627Y-12758944D02*
X9498103Y-12739896D01*
X9498103Y-12739896D02*
X9488579Y-12701801D01*
X9488579Y-12701801D02*
X9488579Y-12654182D01*
X9488579Y-12654182D02*
X9498103Y-12616087D01*
X9498103Y-12616087D02*
X9507627Y-12597039D01*
X9507627Y-12597039D02*
X9517150Y-12587515D01*
X9517150Y-12587515D02*
X9536198Y-12577992D01*
X9726674Y-12577992D02*
X9745722Y-12577992D01*
X9745722Y-12577992D02*
X9764770Y-12587515D01*
X9764770Y-12587515D02*
X9774293Y-12597039D01*
X9774293Y-12597039D02*
X9783817Y-12616087D01*
X9783817Y-12616087D02*
X9793341Y-12654182D01*
X9793341Y-12654182D02*
X9793341Y-12701801D01*
X9793341Y-12701801D02*
X9783817Y-12739896D01*
X9783817Y-12739896D02*
X9774293Y-12758944D01*
X9774293Y-12758944D02*
X9764770Y-12768468D01*
X9764770Y-12768468D02*
X9745722Y-12777992D01*
X9745722Y-12777992D02*
X9726674Y-12777992D01*
X9726674Y-12777992D02*
X9707627Y-12768468D01*
X9707627Y-12768468D02*
X9698103Y-12758944D01*
X9698103Y-12758944D02*
X9688579Y-12739896D01*
X9688579Y-12739896D02*
X9679055Y-12701801D01*
X9679055Y-12701801D02*
X9679055Y-12654182D01*
X9679055Y-12654182D02*
X9688579Y-12616087D01*
X9688579Y-12616087D02*
X9698103Y-12597039D01*
X9698103Y-12597039D02*
X9707627Y-12587515D01*
X9707627Y-12587515D02*
X9726674Y-12577992D01*
X9879055Y-12777992D02*
X9879055Y-12644658D01*
X9879055Y-12663706D02*
X9888579Y-12654182D01*
X9888579Y-12654182D02*
X9907627Y-12644658D01*
X9907627Y-12644658D02*
X9936198Y-12644658D01*
X9936198Y-12644658D02*
X9955246Y-12654182D01*
X9955246Y-12654182D02*
X9964770Y-12673230D01*
X9964770Y-12673230D02*
X9964770Y-12777992D01*
X9964770Y-12673230D02*
X9974293Y-12654182D01*
X9974293Y-12654182D02*
X9993341Y-12644658D01*
X9993341Y-12644658D02*
X10021912Y-12644658D01*
X10021912Y-12644658D02*
X10040960Y-12654182D01*
X10040960Y-12654182D02*
X10050484Y-12673230D01*
X10050484Y-12673230D02*
X10050484Y-12777992D01*
X10145722Y-12777992D02*
X10145722Y-12644658D01*
X10145722Y-12663706D02*
X10155246Y-12654182D01*
X10155246Y-12654182D02*
X10174293Y-12644658D01*
X10174293Y-12644658D02*
X10202865Y-12644658D01*
X10202865Y-12644658D02*
X10221912Y-12654182D01*
X10221912Y-12654182D02*
X10231436Y-12673230D01*
X10231436Y-12673230D02*
X10231436Y-12777992D01*
X10231436Y-12673230D02*
X10240960Y-12654182D01*
X10240960Y-12654182D02*
X10260008Y-12644658D01*
X10260008Y-12644658D02*
X10288579Y-12644658D01*
X10288579Y-12644658D02*
X10307627Y-12654182D01*
X10307627Y-12654182D02*
X10317151Y-12673230D01*
X10317151Y-12673230D02*
X10317151Y-12777992D01*
X10707627Y-12568468D02*
X10536198Y-12825611D01*
X10964770Y-12577992D02*
X10983817Y-12577992D01*
X10983817Y-12577992D02*
X11002865Y-12587515D01*
X11002865Y-12587515D02*
X11012389Y-12597039D01*
X11012389Y-12597039D02*
X11021913Y-12616087D01*
X11021913Y-12616087D02*
X11031436Y-12654182D01*
X11031436Y-12654182D02*
X11031436Y-12701801D01*
X11031436Y-12701801D02*
X11021913Y-12739896D01*
X11021913Y-12739896D02*
X11012389Y-12758944D01*
X11012389Y-12758944D02*
X11002865Y-12768468D01*
X11002865Y-12768468D02*
X10983817Y-12777992D01*
X10983817Y-12777992D02*
X10964770Y-12777992D01*
X10964770Y-12777992D02*
X10945722Y-12768468D01*
X10945722Y-12768468D02*
X10936198Y-12758944D01*
X10936198Y-12758944D02*
X10926674Y-12739896D01*
X10926674Y-12739896D02*
X10917151Y-12701801D01*
X10917151Y-12701801D02*
X10917151Y-12654182D01*
X10917151Y-12654182D02*
X10926674Y-12616087D01*
X10926674Y-12616087D02*
X10936198Y-12597039D01*
X10936198Y-12597039D02*
X10945722Y-12587515D01*
X10945722Y-12587515D02*
X10964770Y-12577992D01*
X11117151Y-12758944D02*
X11126674Y-12768468D01*
X11126674Y-12768468D02*
X11117151Y-12777992D01*
X11117151Y-12777992D02*
X11107627Y-12768468D01*
X11107627Y-12768468D02*
X11117151Y-12758944D01*
X11117151Y-12758944D02*
X11117151Y-12777992D01*
X11250484Y-12577992D02*
X11269532Y-12577992D01*
X11269532Y-12577992D02*
X11288579Y-12587515D01*
X11288579Y-12587515D02*
X11298103Y-12597039D01*
X11298103Y-12597039D02*
X11307627Y-12616087D01*
X11307627Y-12616087D02*
X11317151Y-12654182D01*
X11317151Y-12654182D02*
X11317151Y-12701801D01*
X11317151Y-12701801D02*
X11307627Y-12739896D01*
X11307627Y-12739896D02*
X11298103Y-12758944D01*
X11298103Y-12758944D02*
X11288579Y-12768468D01*
X11288579Y-12768468D02*
X11269532Y-12777992D01*
X11269532Y-12777992D02*
X11250484Y-12777992D01*
X11250484Y-12777992D02*
X11231436Y-12768468D01*
X11231436Y-12768468D02*
X11221912Y-12758944D01*
X11221912Y-12758944D02*
X11212389Y-12739896D01*
X11212389Y-12739896D02*
X11202865Y-12701801D01*
X11202865Y-12701801D02*
X11202865Y-12654182D01*
X11202865Y-12654182D02*
X11212389Y-12616087D01*
X11212389Y-12616087D02*
X11221912Y-12597039D01*
X11221912Y-12597039D02*
X11231436Y-12587515D01*
X11231436Y-12587515D02*
X11250484Y-12577992D01*
X11507627Y-12777992D02*
X11393341Y-12777992D01*
X11450484Y-12777992D02*
X11450484Y-12577992D01*
X11450484Y-12577992D02*
X11431436Y-12606563D01*
X11431436Y-12606563D02*
X11412389Y-12625611D01*
X11412389Y-12625611D02*
X11393341Y-12635134D01*
X11688579Y-12577992D02*
X11593341Y-12577992D01*
X11593341Y-12577992D02*
X11583817Y-12673230D01*
X11583817Y-12673230D02*
X11593341Y-12663706D01*
X11593341Y-12663706D02*
X11612389Y-12654182D01*
X11612389Y-12654182D02*
X11660008Y-12654182D01*
X11660008Y-12654182D02*
X11679055Y-12663706D01*
X11679055Y-12663706D02*
X11688579Y-12673230D01*
X11688579Y-12673230D02*
X11698103Y-12692277D01*
X11698103Y-12692277D02*
X11698103Y-12739896D01*
X11698103Y-12739896D02*
X11688579Y-12758944D01*
X11688579Y-12758944D02*
X11679055Y-12768468D01*
X11679055Y-12768468D02*
X11660008Y-12777992D01*
X11660008Y-12777992D02*
X11612389Y-12777992D01*
X11612389Y-12777992D02*
X11593341Y-12768468D01*
X11593341Y-12768468D02*
X11583817Y-12758944D01*
X11764770Y-12577992D02*
X11898103Y-12577992D01*
X11898103Y-12577992D02*
X11812389Y-12777992D01*
X11964770Y-12577992D02*
X11964770Y-12616087D01*
X12040960Y-12577992D02*
X12040960Y-12616087D01*
X12336198Y-12854182D02*
X12326674Y-12844658D01*
X12326674Y-12844658D02*
X12307627Y-12816087D01*
X12307627Y-12816087D02*
X12298103Y-12797039D01*
X12298103Y-12797039D02*
X12288579Y-12768468D01*
X12288579Y-12768468D02*
X12279055Y-12720849D01*
X12279055Y-12720849D02*
X12279055Y-12682754D01*
X12279055Y-12682754D02*
X12288579Y-12635134D01*
X12288579Y-12635134D02*
X12298103Y-12606563D01*
X12298103Y-12606563D02*
X12307627Y-12587515D01*
X12307627Y-12587515D02*
X12326674Y-12558944D01*
X12326674Y-12558944D02*
X12336198Y-12549420D01*
X12498103Y-12577992D02*
X12460008Y-12577992D01*
X12460008Y-12577992D02*
X12440960Y-12587515D01*
X12440960Y-12587515D02*
X12431436Y-12597039D01*
X12431436Y-12597039D02*
X12412389Y-12625611D01*
X12412389Y-12625611D02*
X12402865Y-12663706D01*
X12402865Y-12663706D02*
X12402865Y-12739896D01*
X12402865Y-12739896D02*
X12412389Y-12758944D01*
X12412389Y-12758944D02*
X12421913Y-12768468D01*
X12421913Y-12768468D02*
X12440960Y-12777992D01*
X12440960Y-12777992D02*
X12479055Y-12777992D01*
X12479055Y-12777992D02*
X12498103Y-12768468D01*
X12498103Y-12768468D02*
X12507627Y-12758944D01*
X12507627Y-12758944D02*
X12517151Y-12739896D01*
X12517151Y-12739896D02*
X12517151Y-12692277D01*
X12517151Y-12692277D02*
X12507627Y-12673230D01*
X12507627Y-12673230D02*
X12498103Y-12663706D01*
X12498103Y-12663706D02*
X12479055Y-12654182D01*
X12479055Y-12654182D02*
X12440960Y-12654182D01*
X12440960Y-12654182D02*
X12421913Y-12663706D01*
X12421913Y-12663706D02*
X12412389Y-12673230D01*
X12412389Y-12673230D02*
X12402865Y-12692277D01*
X12640960Y-12577992D02*
X12660008Y-12577992D01*
X12660008Y-12577992D02*
X12679055Y-12587515D01*
X12679055Y-12587515D02*
X12688579Y-12597039D01*
X12688579Y-12597039D02*
X12698103Y-12616087D01*
X12698103Y-12616087D02*
X12707627Y-12654182D01*
X12707627Y-12654182D02*
X12707627Y-12701801D01*
X12707627Y-12701801D02*
X12698103Y-12739896D01*
X12698103Y-12739896D02*
X12688579Y-12758944D01*
X12688579Y-12758944D02*
X12679055Y-12768468D01*
X12679055Y-12768468D02*
X12660008Y-12777992D01*
X12660008Y-12777992D02*
X12640960Y-12777992D01*
X12640960Y-12777992D02*
X12621913Y-12768468D01*
X12621913Y-12768468D02*
X12612389Y-12758944D01*
X12612389Y-12758944D02*
X12602865Y-12739896D01*
X12602865Y-12739896D02*
X12593341Y-12701801D01*
X12593341Y-12701801D02*
X12593341Y-12654182D01*
X12593341Y-12654182D02*
X12602865Y-12616087D01*
X12602865Y-12616087D02*
X12612389Y-12597039D01*
X12612389Y-12597039D02*
X12621913Y-12587515D01*
X12621913Y-12587515D02*
X12640960Y-12577992D01*
X12945722Y-12777992D02*
X12945722Y-12577992D01*
X13031436Y-12777992D02*
X13031436Y-12673230D01*
X13031436Y-12673230D02*
X13021913Y-12654182D01*
X13021913Y-12654182D02*
X13002865Y-12644658D01*
X13002865Y-12644658D02*
X12974294Y-12644658D01*
X12974294Y-12644658D02*
X12955246Y-12654182D01*
X12955246Y-12654182D02*
X12945722Y-12663706D01*
X13155246Y-12777992D02*
X13136198Y-12768468D01*
X13136198Y-12768468D02*
X13126675Y-12758944D01*
X13126675Y-12758944D02*
X13117151Y-12739896D01*
X13117151Y-12739896D02*
X13117151Y-12682754D01*
X13117151Y-12682754D02*
X13126675Y-12663706D01*
X13126675Y-12663706D02*
X13136198Y-12654182D01*
X13136198Y-12654182D02*
X13155246Y-12644658D01*
X13155246Y-12644658D02*
X13183817Y-12644658D01*
X13183817Y-12644658D02*
X13202865Y-12654182D01*
X13202865Y-12654182D02*
X13212389Y-12663706D01*
X13212389Y-12663706D02*
X13221913Y-12682754D01*
X13221913Y-12682754D02*
X13221913Y-12739896D01*
X13221913Y-12739896D02*
X13212389Y-12758944D01*
X13212389Y-12758944D02*
X13202865Y-12768468D01*
X13202865Y-12768468D02*
X13183817Y-12777992D01*
X13183817Y-12777992D02*
X13155246Y-12777992D01*
X13336198Y-12777992D02*
X13317151Y-12768468D01*
X13317151Y-12768468D02*
X13307627Y-12749420D01*
X13307627Y-12749420D02*
X13307627Y-12577992D01*
X13488579Y-12768468D02*
X13469532Y-12777992D01*
X13469532Y-12777992D02*
X13431436Y-12777992D01*
X13431436Y-12777992D02*
X13412389Y-12768468D01*
X13412389Y-12768468D02*
X13402865Y-12749420D01*
X13402865Y-12749420D02*
X13402865Y-12673230D01*
X13402865Y-12673230D02*
X13412389Y-12654182D01*
X13412389Y-12654182D02*
X13431436Y-12644658D01*
X13431436Y-12644658D02*
X13469532Y-12644658D01*
X13469532Y-12644658D02*
X13488579Y-12654182D01*
X13488579Y-12654182D02*
X13498103Y-12673230D01*
X13498103Y-12673230D02*
X13498103Y-12692277D01*
X13498103Y-12692277D02*
X13402865Y-12711325D01*
X13574294Y-12768468D02*
X13593341Y-12777992D01*
X13593341Y-12777992D02*
X13631436Y-12777992D01*
X13631436Y-12777992D02*
X13650484Y-12768468D01*
X13650484Y-12768468D02*
X13660008Y-12749420D01*
X13660008Y-12749420D02*
X13660008Y-12739896D01*
X13660008Y-12739896D02*
X13650484Y-12720849D01*
X13650484Y-12720849D02*
X13631436Y-12711325D01*
X13631436Y-12711325D02*
X13602865Y-12711325D01*
X13602865Y-12711325D02*
X13583817Y-12701801D01*
X13583817Y-12701801D02*
X13574294Y-12682754D01*
X13574294Y-12682754D02*
X13574294Y-12673230D01*
X13574294Y-12673230D02*
X13583817Y-12654182D01*
X13583817Y-12654182D02*
X13602865Y-12644658D01*
X13602865Y-12644658D02*
X13631436Y-12644658D01*
X13631436Y-12644658D02*
X13650484Y-12654182D01*
X13726675Y-12854182D02*
X13736198Y-12844658D01*
X13736198Y-12844658D02*
X13755246Y-12816087D01*
X13755246Y-12816087D02*
X13764770Y-12797039D01*
X13764770Y-12797039D02*
X13774294Y-12768468D01*
X13774294Y-12768468D02*
X13783817Y-12720849D01*
X13783817Y-12720849D02*
X13783817Y-12682754D01*
X13783817Y-12682754D02*
X13774294Y-12635134D01*
X13774294Y-12635134D02*
X13764770Y-12606563D01*
X13764770Y-12606563D02*
X13755246Y-12587515D01*
X13755246Y-12587515D02*
X13736198Y-12558944D01*
X13736198Y-12558944D02*
X13726675Y-12549420D01*
D12*
X8721136Y-12910508D02*
X8721136Y-12990508D01*
X8681136Y-12950508D02*
X8761136Y-12950508D01*
D11*
X9060008Y-12841992D02*
X9079055Y-12841992D01*
X9079055Y-12841992D02*
X9098103Y-12851515D01*
X9098103Y-12851515D02*
X9107627Y-12861039D01*
X9107627Y-12861039D02*
X9117150Y-12880087D01*
X9117150Y-12880087D02*
X9126674Y-12918182D01*
X9126674Y-12918182D02*
X9126674Y-12965801D01*
X9126674Y-12965801D02*
X9117150Y-13003896D01*
X9117150Y-13003896D02*
X9107627Y-13022944D01*
X9107627Y-13022944D02*
X9098103Y-13032468D01*
X9098103Y-13032468D02*
X9079055Y-13041992D01*
X9079055Y-13041992D02*
X9060008Y-13041992D01*
X9060008Y-13041992D02*
X9040960Y-13032468D01*
X9040960Y-13032468D02*
X9031436Y-13022944D01*
X9031436Y-13022944D02*
X9021912Y-13003896D01*
X9021912Y-13003896D02*
X9012389Y-12965801D01*
X9012389Y-12965801D02*
X9012389Y-12918182D01*
X9012389Y-12918182D02*
X9021912Y-12880087D01*
X9021912Y-12880087D02*
X9031436Y-12861039D01*
X9031436Y-12861039D02*
X9040960Y-12851515D01*
X9040960Y-12851515D02*
X9060008Y-12841992D01*
X9212389Y-13022944D02*
X9221912Y-13032468D01*
X9221912Y-13032468D02*
X9212389Y-13041992D01*
X9212389Y-13041992D02*
X9202865Y-13032468D01*
X9202865Y-13032468D02*
X9212389Y-13022944D01*
X9212389Y-13022944D02*
X9212389Y-13041992D01*
X9336198Y-12927706D02*
X9317150Y-12918182D01*
X9317150Y-12918182D02*
X9307627Y-12908658D01*
X9307627Y-12908658D02*
X9298103Y-12889611D01*
X9298103Y-12889611D02*
X9298103Y-12880087D01*
X9298103Y-12880087D02*
X9307627Y-12861039D01*
X9307627Y-12861039D02*
X9317150Y-12851515D01*
X9317150Y-12851515D02*
X9336198Y-12841992D01*
X9336198Y-12841992D02*
X9374293Y-12841992D01*
X9374293Y-12841992D02*
X9393341Y-12851515D01*
X9393341Y-12851515D02*
X9402865Y-12861039D01*
X9402865Y-12861039D02*
X9412389Y-12880087D01*
X9412389Y-12880087D02*
X9412389Y-12889611D01*
X9412389Y-12889611D02*
X9402865Y-12908658D01*
X9402865Y-12908658D02*
X9393341Y-12918182D01*
X9393341Y-12918182D02*
X9374293Y-12927706D01*
X9374293Y-12927706D02*
X9336198Y-12927706D01*
X9336198Y-12927706D02*
X9317150Y-12937230D01*
X9317150Y-12937230D02*
X9307627Y-12946754D01*
X9307627Y-12946754D02*
X9298103Y-12965801D01*
X9298103Y-12965801D02*
X9298103Y-13003896D01*
X9298103Y-13003896D02*
X9307627Y-13022944D01*
X9307627Y-13022944D02*
X9317150Y-13032468D01*
X9317150Y-13032468D02*
X9336198Y-13041992D01*
X9336198Y-13041992D02*
X9374293Y-13041992D01*
X9374293Y-13041992D02*
X9393341Y-13032468D01*
X9393341Y-13032468D02*
X9402865Y-13022944D01*
X9402865Y-13022944D02*
X9412389Y-13003896D01*
X9412389Y-13003896D02*
X9412389Y-12965801D01*
X9412389Y-12965801D02*
X9402865Y-12946754D01*
X9402865Y-12946754D02*
X9393341Y-12937230D01*
X9393341Y-12937230D02*
X9374293Y-12927706D01*
X9536198Y-12841992D02*
X9555246Y-12841992D01*
X9555246Y-12841992D02*
X9574293Y-12851515D01*
X9574293Y-12851515D02*
X9583817Y-12861039D01*
X9583817Y-12861039D02*
X9593341Y-12880087D01*
X9593341Y-12880087D02*
X9602865Y-12918182D01*
X9602865Y-12918182D02*
X9602865Y-12965801D01*
X9602865Y-12965801D02*
X9593341Y-13003896D01*
X9593341Y-13003896D02*
X9583817Y-13022944D01*
X9583817Y-13022944D02*
X9574293Y-13032468D01*
X9574293Y-13032468D02*
X9555246Y-13041992D01*
X9555246Y-13041992D02*
X9536198Y-13041992D01*
X9536198Y-13041992D02*
X9517150Y-13032468D01*
X9517150Y-13032468D02*
X9507627Y-13022944D01*
X9507627Y-13022944D02*
X9498103Y-13003896D01*
X9498103Y-13003896D02*
X9488579Y-12965801D01*
X9488579Y-12965801D02*
X9488579Y-12918182D01*
X9488579Y-12918182D02*
X9498103Y-12880087D01*
X9498103Y-12880087D02*
X9507627Y-12861039D01*
X9507627Y-12861039D02*
X9517150Y-12851515D01*
X9517150Y-12851515D02*
X9536198Y-12841992D01*
X9726674Y-12841992D02*
X9745722Y-12841992D01*
X9745722Y-12841992D02*
X9764770Y-12851515D01*
X9764770Y-12851515D02*
X9774293Y-12861039D01*
X9774293Y-12861039D02*
X9783817Y-12880087D01*
X9783817Y-12880087D02*
X9793341Y-12918182D01*
X9793341Y-12918182D02*
X9793341Y-12965801D01*
X9793341Y-12965801D02*
X9783817Y-13003896D01*
X9783817Y-13003896D02*
X9774293Y-13022944D01*
X9774293Y-13022944D02*
X9764770Y-13032468D01*
X9764770Y-13032468D02*
X9745722Y-13041992D01*
X9745722Y-13041992D02*
X9726674Y-13041992D01*
X9726674Y-13041992D02*
X9707627Y-13032468D01*
X9707627Y-13032468D02*
X9698103Y-13022944D01*
X9698103Y-13022944D02*
X9688579Y-13003896D01*
X9688579Y-13003896D02*
X9679055Y-12965801D01*
X9679055Y-12965801D02*
X9679055Y-12918182D01*
X9679055Y-12918182D02*
X9688579Y-12880087D01*
X9688579Y-12880087D02*
X9698103Y-12861039D01*
X9698103Y-12861039D02*
X9707627Y-12851515D01*
X9707627Y-12851515D02*
X9726674Y-12841992D01*
X9879055Y-13041992D02*
X9879055Y-12908658D01*
X9879055Y-12927706D02*
X9888579Y-12918182D01*
X9888579Y-12918182D02*
X9907627Y-12908658D01*
X9907627Y-12908658D02*
X9936198Y-12908658D01*
X9936198Y-12908658D02*
X9955246Y-12918182D01*
X9955246Y-12918182D02*
X9964770Y-12937230D01*
X9964770Y-12937230D02*
X9964770Y-13041992D01*
X9964770Y-12937230D02*
X9974293Y-12918182D01*
X9974293Y-12918182D02*
X9993341Y-12908658D01*
X9993341Y-12908658D02*
X10021912Y-12908658D01*
X10021912Y-12908658D02*
X10040960Y-12918182D01*
X10040960Y-12918182D02*
X10050484Y-12937230D01*
X10050484Y-12937230D02*
X10050484Y-13041992D01*
X10145722Y-13041992D02*
X10145722Y-12908658D01*
X10145722Y-12927706D02*
X10155246Y-12918182D01*
X10155246Y-12918182D02*
X10174293Y-12908658D01*
X10174293Y-12908658D02*
X10202865Y-12908658D01*
X10202865Y-12908658D02*
X10221912Y-12918182D01*
X10221912Y-12918182D02*
X10231436Y-12937230D01*
X10231436Y-12937230D02*
X10231436Y-13041992D01*
X10231436Y-12937230D02*
X10240960Y-12918182D01*
X10240960Y-12918182D02*
X10260008Y-12908658D01*
X10260008Y-12908658D02*
X10288579Y-12908658D01*
X10288579Y-12908658D02*
X10307627Y-12918182D01*
X10307627Y-12918182D02*
X10317151Y-12937230D01*
X10317151Y-12937230D02*
X10317151Y-13041992D01*
X10707627Y-12832468D02*
X10536198Y-13089611D01*
X10964770Y-12841992D02*
X10983817Y-12841992D01*
X10983817Y-12841992D02*
X11002865Y-12851515D01*
X11002865Y-12851515D02*
X11012389Y-12861039D01*
X11012389Y-12861039D02*
X11021913Y-12880087D01*
X11021913Y-12880087D02*
X11031436Y-12918182D01*
X11031436Y-12918182D02*
X11031436Y-12965801D01*
X11031436Y-12965801D02*
X11021913Y-13003896D01*
X11021913Y-13003896D02*
X11012389Y-13022944D01*
X11012389Y-13022944D02*
X11002865Y-13032468D01*
X11002865Y-13032468D02*
X10983817Y-13041992D01*
X10983817Y-13041992D02*
X10964770Y-13041992D01*
X10964770Y-13041992D02*
X10945722Y-13032468D01*
X10945722Y-13032468D02*
X10936198Y-13022944D01*
X10936198Y-13022944D02*
X10926674Y-13003896D01*
X10926674Y-13003896D02*
X10917151Y-12965801D01*
X10917151Y-12965801D02*
X10917151Y-12918182D01*
X10917151Y-12918182D02*
X10926674Y-12880087D01*
X10926674Y-12880087D02*
X10936198Y-12861039D01*
X10936198Y-12861039D02*
X10945722Y-12851515D01*
X10945722Y-12851515D02*
X10964770Y-12841992D01*
X11117151Y-13022944D02*
X11126674Y-13032468D01*
X11126674Y-13032468D02*
X11117151Y-13041992D01*
X11117151Y-13041992D02*
X11107627Y-13032468D01*
X11107627Y-13032468D02*
X11117151Y-13022944D01*
X11117151Y-13022944D02*
X11117151Y-13041992D01*
X11250484Y-12841992D02*
X11269532Y-12841992D01*
X11269532Y-12841992D02*
X11288579Y-12851515D01*
X11288579Y-12851515D02*
X11298103Y-12861039D01*
X11298103Y-12861039D02*
X11307627Y-12880087D01*
X11307627Y-12880087D02*
X11317151Y-12918182D01*
X11317151Y-12918182D02*
X11317151Y-12965801D01*
X11317151Y-12965801D02*
X11307627Y-13003896D01*
X11307627Y-13003896D02*
X11298103Y-13022944D01*
X11298103Y-13022944D02*
X11288579Y-13032468D01*
X11288579Y-13032468D02*
X11269532Y-13041992D01*
X11269532Y-13041992D02*
X11250484Y-13041992D01*
X11250484Y-13041992D02*
X11231436Y-13032468D01*
X11231436Y-13032468D02*
X11221912Y-13022944D01*
X11221912Y-13022944D02*
X11212389Y-13003896D01*
X11212389Y-13003896D02*
X11202865Y-12965801D01*
X11202865Y-12965801D02*
X11202865Y-12918182D01*
X11202865Y-12918182D02*
X11212389Y-12880087D01*
X11212389Y-12880087D02*
X11221912Y-12861039D01*
X11221912Y-12861039D02*
X11231436Y-12851515D01*
X11231436Y-12851515D02*
X11250484Y-12841992D01*
X11383817Y-12841992D02*
X11507627Y-12841992D01*
X11507627Y-12841992D02*
X11440960Y-12918182D01*
X11440960Y-12918182D02*
X11469532Y-12918182D01*
X11469532Y-12918182D02*
X11488579Y-12927706D01*
X11488579Y-12927706D02*
X11498103Y-12937230D01*
X11498103Y-12937230D02*
X11507627Y-12956277D01*
X11507627Y-12956277D02*
X11507627Y-13003896D01*
X11507627Y-13003896D02*
X11498103Y-13022944D01*
X11498103Y-13022944D02*
X11488579Y-13032468D01*
X11488579Y-13032468D02*
X11469532Y-13041992D01*
X11469532Y-13041992D02*
X11412389Y-13041992D01*
X11412389Y-13041992D02*
X11393341Y-13032468D01*
X11393341Y-13032468D02*
X11383817Y-13022944D01*
X11698103Y-13041992D02*
X11583817Y-13041992D01*
X11640960Y-13041992D02*
X11640960Y-12841992D01*
X11640960Y-12841992D02*
X11621912Y-12870563D01*
X11621912Y-12870563D02*
X11602865Y-12889611D01*
X11602865Y-12889611D02*
X11583817Y-12899134D01*
X11879055Y-12841992D02*
X11783817Y-12841992D01*
X11783817Y-12841992D02*
X11774293Y-12937230D01*
X11774293Y-12937230D02*
X11783817Y-12927706D01*
X11783817Y-12927706D02*
X11802865Y-12918182D01*
X11802865Y-12918182D02*
X11850484Y-12918182D01*
X11850484Y-12918182D02*
X11869532Y-12927706D01*
X11869532Y-12927706D02*
X11879055Y-12937230D01*
X11879055Y-12937230D02*
X11888579Y-12956277D01*
X11888579Y-12956277D02*
X11888579Y-13003896D01*
X11888579Y-13003896D02*
X11879055Y-13022944D01*
X11879055Y-13022944D02*
X11869532Y-13032468D01*
X11869532Y-13032468D02*
X11850484Y-13041992D01*
X11850484Y-13041992D02*
X11802865Y-13041992D01*
X11802865Y-13041992D02*
X11783817Y-13032468D01*
X11783817Y-13032468D02*
X11774293Y-13022944D01*
X11964770Y-12841992D02*
X11964770Y-12880087D01*
X12040960Y-12841992D02*
X12040960Y-12880087D01*
X12336198Y-13118182D02*
X12326674Y-13108658D01*
X12326674Y-13108658D02*
X12307627Y-13080087D01*
X12307627Y-13080087D02*
X12298103Y-13061039D01*
X12298103Y-13061039D02*
X12288579Y-13032468D01*
X12288579Y-13032468D02*
X12279055Y-12984849D01*
X12279055Y-12984849D02*
X12279055Y-12946754D01*
X12279055Y-12946754D02*
X12288579Y-12899134D01*
X12288579Y-12899134D02*
X12298103Y-12870563D01*
X12298103Y-12870563D02*
X12307627Y-12851515D01*
X12307627Y-12851515D02*
X12326674Y-12822944D01*
X12326674Y-12822944D02*
X12336198Y-12813420D01*
X12402865Y-12861039D02*
X12412389Y-12851515D01*
X12412389Y-12851515D02*
X12431436Y-12841992D01*
X12431436Y-12841992D02*
X12479055Y-12841992D01*
X12479055Y-12841992D02*
X12498103Y-12851515D01*
X12498103Y-12851515D02*
X12507627Y-12861039D01*
X12507627Y-12861039D02*
X12517151Y-12880087D01*
X12517151Y-12880087D02*
X12517151Y-12899134D01*
X12517151Y-12899134D02*
X12507627Y-12927706D01*
X12507627Y-12927706D02*
X12393341Y-13041992D01*
X12393341Y-13041992D02*
X12517151Y-13041992D01*
X12640960Y-12841992D02*
X12660008Y-12841992D01*
X12660008Y-12841992D02*
X12679055Y-12851515D01*
X12679055Y-12851515D02*
X12688579Y-12861039D01*
X12688579Y-12861039D02*
X12698103Y-12880087D01*
X12698103Y-12880087D02*
X12707627Y-12918182D01*
X12707627Y-12918182D02*
X12707627Y-12965801D01*
X12707627Y-12965801D02*
X12698103Y-13003896D01*
X12698103Y-13003896D02*
X12688579Y-13022944D01*
X12688579Y-13022944D02*
X12679055Y-13032468D01*
X12679055Y-13032468D02*
X12660008Y-13041992D01*
X12660008Y-13041992D02*
X12640960Y-13041992D01*
X12640960Y-13041992D02*
X12621913Y-13032468D01*
X12621913Y-13032468D02*
X12612389Y-13022944D01*
X12612389Y-13022944D02*
X12602865Y-13003896D01*
X12602865Y-13003896D02*
X12593341Y-12965801D01*
X12593341Y-12965801D02*
X12593341Y-12918182D01*
X12593341Y-12918182D02*
X12602865Y-12880087D01*
X12602865Y-12880087D02*
X12612389Y-12861039D01*
X12612389Y-12861039D02*
X12621913Y-12851515D01*
X12621913Y-12851515D02*
X12640960Y-12841992D01*
X12821913Y-12927706D02*
X12802865Y-12918182D01*
X12802865Y-12918182D02*
X12793341Y-12908658D01*
X12793341Y-12908658D02*
X12783817Y-12889611D01*
X12783817Y-12889611D02*
X12783817Y-12880087D01*
X12783817Y-12880087D02*
X12793341Y-12861039D01*
X12793341Y-12861039D02*
X12802865Y-12851515D01*
X12802865Y-12851515D02*
X12821913Y-12841992D01*
X12821913Y-12841992D02*
X12860008Y-12841992D01*
X12860008Y-12841992D02*
X12879055Y-12851515D01*
X12879055Y-12851515D02*
X12888579Y-12861039D01*
X12888579Y-12861039D02*
X12898103Y-12880087D01*
X12898103Y-12880087D02*
X12898103Y-12889611D01*
X12898103Y-12889611D02*
X12888579Y-12908658D01*
X12888579Y-12908658D02*
X12879055Y-12918182D01*
X12879055Y-12918182D02*
X12860008Y-12927706D01*
X12860008Y-12927706D02*
X12821913Y-12927706D01*
X12821913Y-12927706D02*
X12802865Y-12937230D01*
X12802865Y-12937230D02*
X12793341Y-12946754D01*
X12793341Y-12946754D02*
X12783817Y-12965801D01*
X12783817Y-12965801D02*
X12783817Y-13003896D01*
X12783817Y-13003896D02*
X12793341Y-13022944D01*
X12793341Y-13022944D02*
X12802865Y-13032468D01*
X12802865Y-13032468D02*
X12821913Y-13041992D01*
X12821913Y-13041992D02*
X12860008Y-13041992D01*
X12860008Y-13041992D02*
X12879055Y-13032468D01*
X12879055Y-13032468D02*
X12888579Y-13022944D01*
X12888579Y-13022944D02*
X12898103Y-13003896D01*
X12898103Y-13003896D02*
X12898103Y-12965801D01*
X12898103Y-12965801D02*
X12888579Y-12946754D01*
X12888579Y-12946754D02*
X12879055Y-12937230D01*
X12879055Y-12937230D02*
X12860008Y-12927706D01*
X13136198Y-13041992D02*
X13136198Y-12841992D01*
X13221913Y-13041992D02*
X13221913Y-12937230D01*
X13221913Y-12937230D02*
X13212389Y-12918182D01*
X13212389Y-12918182D02*
X13193341Y-12908658D01*
X13193341Y-12908658D02*
X13164770Y-12908658D01*
X13164770Y-12908658D02*
X13145722Y-12918182D01*
X13145722Y-12918182D02*
X13136198Y-12927706D01*
X13345722Y-13041992D02*
X13326675Y-13032468D01*
X13326675Y-13032468D02*
X13317151Y-13022944D01*
X13317151Y-13022944D02*
X13307627Y-13003896D01*
X13307627Y-13003896D02*
X13307627Y-12946754D01*
X13307627Y-12946754D02*
X13317151Y-12927706D01*
X13317151Y-12927706D02*
X13326675Y-12918182D01*
X13326675Y-12918182D02*
X13345722Y-12908658D01*
X13345722Y-12908658D02*
X13374294Y-12908658D01*
X13374294Y-12908658D02*
X13393341Y-12918182D01*
X13393341Y-12918182D02*
X13402865Y-12927706D01*
X13402865Y-12927706D02*
X13412389Y-12946754D01*
X13412389Y-12946754D02*
X13412389Y-13003896D01*
X13412389Y-13003896D02*
X13402865Y-13022944D01*
X13402865Y-13022944D02*
X13393341Y-13032468D01*
X13393341Y-13032468D02*
X13374294Y-13041992D01*
X13374294Y-13041992D02*
X13345722Y-13041992D01*
X13526675Y-13041992D02*
X13507627Y-13032468D01*
X13507627Y-13032468D02*
X13498103Y-13013420D01*
X13498103Y-13013420D02*
X13498103Y-12841992D01*
X13679056Y-13032468D02*
X13660008Y-13041992D01*
X13660008Y-13041992D02*
X13621913Y-13041992D01*
X13621913Y-13041992D02*
X13602865Y-13032468D01*
X13602865Y-13032468D02*
X13593341Y-13013420D01*
X13593341Y-13013420D02*
X13593341Y-12937230D01*
X13593341Y-12937230D02*
X13602865Y-12918182D01*
X13602865Y-12918182D02*
X13621913Y-12908658D01*
X13621913Y-12908658D02*
X13660008Y-12908658D01*
X13660008Y-12908658D02*
X13679056Y-12918182D01*
X13679056Y-12918182D02*
X13688579Y-12937230D01*
X13688579Y-12937230D02*
X13688579Y-12956277D01*
X13688579Y-12956277D02*
X13593341Y-12975325D01*
X13764770Y-13032468D02*
X13783817Y-13041992D01*
X13783817Y-13041992D02*
X13821913Y-13041992D01*
X13821913Y-13041992D02*
X13840960Y-13032468D01*
X13840960Y-13032468D02*
X13850484Y-13013420D01*
X13850484Y-13013420D02*
X13850484Y-13003896D01*
X13850484Y-13003896D02*
X13840960Y-12984849D01*
X13840960Y-12984849D02*
X13821913Y-12975325D01*
X13821913Y-12975325D02*
X13793341Y-12975325D01*
X13793341Y-12975325D02*
X13774294Y-12965801D01*
X13774294Y-12965801D02*
X13764770Y-12946754D01*
X13764770Y-12946754D02*
X13764770Y-12937230D01*
X13764770Y-12937230D02*
X13774294Y-12918182D01*
X13774294Y-12918182D02*
X13793341Y-12908658D01*
X13793341Y-12908658D02*
X13821913Y-12908658D01*
X13821913Y-12908658D02*
X13840960Y-12918182D01*
X13917151Y-13118182D02*
X13926675Y-13108658D01*
X13926675Y-13108658D02*
X13945722Y-13080087D01*
X13945722Y-13080087D02*
X13955246Y-13061039D01*
X13955246Y-13061039D02*
X13964770Y-13032468D01*
X13964770Y-13032468D02*
X13974294Y-12984849D01*
X13974294Y-12984849D02*
X13974294Y-12946754D01*
X13974294Y-12946754D02*
X13964770Y-12899134D01*
X13964770Y-12899134D02*
X13955246Y-12870563D01*
X13955246Y-12870563D02*
X13945722Y-12851515D01*
X13945722Y-12851515D02*
X13926675Y-12822944D01*
X13926675Y-12822944D02*
X13917151Y-12813420D01*
M02*
