%TF.GenerationSoftware,KiCad,Pcbnew,10.0.4*%
%TF.CreationDate,2026-07-26T00:07:07+09:00*%
%TF.ProjectId,project_memory_mapper,70726f6a-6563-4745-9f6d-656d6f72795f,rev?*%
%TF.SameCoordinates,Original*%
%TF.FileFunction,Soldermask,Top*%
%TF.FilePolarity,Negative*%
%FSLAX46Y46*%
G04 Gerber Fmt 4.6, Leading zero omitted, Abs format (unit mm)*
G04 Created by KiCad (PCBNEW 10.0.4) date 2026-07-26 00:07:07*
%MOMM*%
%LPD*%
G01*
G04 APERTURE LIST*
G04 Aperture macros list*
%AMRoundRect*
0 Rectangle with rounded corners*
0 $1 Rounding radius*
0 $2 $3 $4 $5 $6 $7 $8 $9 X,Y pos of 4 corners*
0 Add a 4 corners polygon primitive as box body*
4,1,4,$2,$3,$4,$5,$6,$7,$8,$9,$2,$3,0*
0 Add four circle primitives for the rounded corners*
1,1,$1+$1,$2,$3*
1,1,$1+$1,$4,$5*
1,1,$1+$1,$6,$7*
1,1,$1+$1,$8,$9*
0 Add four rect primitives between the rounded corners*
20,1,$1+$1,$2,$3,$4,$5,0*
20,1,$1+$1,$4,$5,$6,$7,0*
20,1,$1+$1,$6,$7,$8,$9,0*
20,1,$1+$1,$8,$9,$2,$3,0*%
G04 Aperture macros list end*
%ADD10RoundRect,0.250000X-0.550000X-0.550000X0.550000X-0.550000X0.550000X0.550000X-0.550000X0.550000X0*%
%ADD11C,1.600000*%
%ADD12RoundRect,0.250000X0.550000X-0.550000X0.550000X0.550000X-0.550000X0.550000X-0.550000X-0.550000X0*%
%ADD13R,1.700000X8.000000*%
%ADD14R,1.700000X7.500000*%
%ADD15RoundRect,0.250000X0.550000X0.550000X-0.550000X0.550000X-0.550000X-0.550000X0.550000X-0.550000X0*%
G04 APERTURE END LIST*
D10*
%TO.C,U7*%
X146304000Y-60706000D03*
D11*
X146304000Y-63246000D03*
X146304000Y-65786000D03*
X146304000Y-68326000D03*
X146304000Y-70866000D03*
X146304000Y-73406000D03*
X146304000Y-75946000D03*
X146304000Y-78486000D03*
X146304000Y-81026000D03*
X146304000Y-83566000D03*
X146304000Y-86106000D03*
X146304000Y-88646000D03*
X146304000Y-91186000D03*
X146304000Y-93726000D03*
X146304000Y-96266000D03*
X146304000Y-98806000D03*
X161544000Y-98806000D03*
X161544000Y-96266000D03*
X161544000Y-93726000D03*
X161544000Y-91186000D03*
X161544000Y-88646000D03*
X161544000Y-86106000D03*
X161544000Y-83566000D03*
X161544000Y-81026000D03*
X161544000Y-78486000D03*
X161544000Y-75946000D03*
X161544000Y-73406000D03*
X161544000Y-70866000D03*
X161544000Y-68326000D03*
X161544000Y-65786000D03*
X161544000Y-63246000D03*
X161544000Y-60706000D03*
%TD*%
D12*
%TO.C,U2*%
X164846000Y-52832000D03*
D11*
X167386000Y-52832000D03*
X169926000Y-52832000D03*
X172466000Y-52832000D03*
X175006000Y-52832000D03*
X177546000Y-52832000D03*
X180086000Y-52832000D03*
X182626000Y-52832000D03*
X182626000Y-45212000D03*
X180086000Y-45212000D03*
X177546000Y-45212000D03*
X175006000Y-45212000D03*
X172466000Y-45212000D03*
X169926000Y-45212000D03*
X167386000Y-45212000D03*
X164846000Y-45212000D03*
%TD*%
D13*
%TO.C,CE1*%
X173474840Y-112990440D03*
X170934840Y-112990440D03*
X168394840Y-112990440D03*
X165854840Y-112990440D03*
X163314840Y-112990440D03*
X160774840Y-112990440D03*
X158234840Y-112990440D03*
X155694840Y-112990440D03*
X153154840Y-112990440D03*
X150614840Y-112990440D03*
X148074840Y-112990440D03*
X145534840Y-112990440D03*
X142994840Y-112990440D03*
X140454840Y-112990440D03*
X137914840Y-112990440D03*
X135374840Y-112990440D03*
X132834840Y-112990440D03*
X130294840Y-112990440D03*
X127754840Y-112990440D03*
X125214840Y-112990440D03*
X122674840Y-112990440D03*
D14*
X120135000Y-112741000D03*
D13*
X117594840Y-112990440D03*
X115054840Y-112990440D03*
X112514840Y-112990440D03*
%TD*%
D11*
%TO.C,C6*%
X139660000Y-57404000D03*
X134660000Y-57404000D03*
%TD*%
D12*
%TO.C,U3*%
X106934000Y-52832000D03*
D11*
X109474000Y-52832000D03*
X112014000Y-52832000D03*
X114554000Y-52832000D03*
X117094000Y-52832000D03*
X119634000Y-52832000D03*
X122174000Y-52832000D03*
X124714000Y-52832000D03*
X124714000Y-45212000D03*
X122174000Y-45212000D03*
X119634000Y-45212000D03*
X117094000Y-45212000D03*
X114554000Y-45212000D03*
X112014000Y-45212000D03*
X109474000Y-45212000D03*
X106934000Y-45212000D03*
%TD*%
%TO.C,C4*%
X132588000Y-47070000D03*
X132588000Y-52070000D03*
%TD*%
D10*
%TO.C,U5*%
X104140000Y-60706000D03*
D11*
X104140000Y-63246000D03*
X104140000Y-65786000D03*
X104140000Y-68326000D03*
X104140000Y-70866000D03*
X104140000Y-73406000D03*
X104140000Y-75946000D03*
X104140000Y-78486000D03*
X104140000Y-81026000D03*
X104140000Y-83566000D03*
X104140000Y-86106000D03*
X104140000Y-88646000D03*
X104140000Y-91186000D03*
X104140000Y-93726000D03*
X104140000Y-96266000D03*
X104140000Y-98806000D03*
X119380000Y-98806000D03*
X119380000Y-96266000D03*
X119380000Y-93726000D03*
X119380000Y-91186000D03*
X119380000Y-88646000D03*
X119380000Y-86106000D03*
X119380000Y-83566000D03*
X119380000Y-81026000D03*
X119380000Y-78486000D03*
X119380000Y-75946000D03*
X119380000Y-73406000D03*
X119380000Y-70866000D03*
X119380000Y-68326000D03*
X119380000Y-65786000D03*
X119380000Y-63246000D03*
X119380000Y-60706000D03*
%TD*%
%TO.C,C3*%
X102870000Y-45546000D03*
X102870000Y-50546000D03*
%TD*%
%TO.C,C2*%
X161290000Y-46816000D03*
X161290000Y-51816000D03*
%TD*%
D12*
%TO.C,U4*%
X136398000Y-53086000D03*
D11*
X138938000Y-53086000D03*
X141478000Y-53086000D03*
X144018000Y-53086000D03*
X146558000Y-53086000D03*
X149098000Y-53086000D03*
X151638000Y-53086000D03*
X154178000Y-53086000D03*
X154178000Y-45466000D03*
X151638000Y-45466000D03*
X149098000Y-45466000D03*
X146558000Y-45466000D03*
X144018000Y-45466000D03*
X141478000Y-45466000D03*
X138938000Y-45466000D03*
X136398000Y-45466000D03*
%TD*%
%TO.C,C5*%
X119380000Y-57404000D03*
X114380000Y-57404000D03*
%TD*%
%TO.C,C8*%
X182332000Y-57150000D03*
X177332000Y-57150000D03*
%TD*%
D10*
%TO.C,U6*%
X124460000Y-60706000D03*
D11*
X124460000Y-63246000D03*
X124460000Y-65786000D03*
X124460000Y-68326000D03*
X124460000Y-70866000D03*
X124460000Y-73406000D03*
X124460000Y-75946000D03*
X124460000Y-78486000D03*
X124460000Y-81026000D03*
X124460000Y-83566000D03*
X124460000Y-86106000D03*
X124460000Y-88646000D03*
X124460000Y-91186000D03*
X124460000Y-93726000D03*
X124460000Y-96266000D03*
X124460000Y-98806000D03*
X139700000Y-98806000D03*
X139700000Y-96266000D03*
X139700000Y-93726000D03*
X139700000Y-91186000D03*
X139700000Y-88646000D03*
X139700000Y-86106000D03*
X139700000Y-83566000D03*
X139700000Y-81026000D03*
X139700000Y-78486000D03*
X139700000Y-75946000D03*
X139700000Y-73406000D03*
X139700000Y-70866000D03*
X139700000Y-68326000D03*
X139700000Y-65786000D03*
X139700000Y-63246000D03*
X139700000Y-60706000D03*
%TD*%
D15*
%TO.C,U1*%
X99314000Y-80010000D03*
D11*
X99314000Y-77470000D03*
X99314000Y-74930000D03*
X99314000Y-72390000D03*
X99314000Y-69850000D03*
X99314000Y-67310000D03*
X99314000Y-64770000D03*
X91694000Y-64770000D03*
X91694000Y-67310000D03*
X91694000Y-69850000D03*
X91694000Y-72390000D03*
X91694000Y-74930000D03*
X91694000Y-77470000D03*
X91694000Y-80010000D03*
%TD*%
%TO.C,C1*%
X93044000Y-83566000D03*
X98044000Y-83566000D03*
%TD*%
%TO.C,C7*%
X161544000Y-57404000D03*
X156544000Y-57404000D03*
%TD*%
D10*
%TO.C,U8*%
X167132000Y-60706000D03*
D11*
X167132000Y-63246000D03*
X167132000Y-65786000D03*
X167132000Y-68326000D03*
X167132000Y-70866000D03*
X167132000Y-73406000D03*
X167132000Y-75946000D03*
X167132000Y-78486000D03*
X167132000Y-81026000D03*
X167132000Y-83566000D03*
X167132000Y-86106000D03*
X167132000Y-88646000D03*
X167132000Y-91186000D03*
X167132000Y-93726000D03*
X167132000Y-96266000D03*
X167132000Y-98806000D03*
X182372000Y-98806000D03*
X182372000Y-96266000D03*
X182372000Y-93726000D03*
X182372000Y-91186000D03*
X182372000Y-88646000D03*
X182372000Y-86106000D03*
X182372000Y-83566000D03*
X182372000Y-81026000D03*
X182372000Y-78486000D03*
X182372000Y-75946000D03*
X182372000Y-73406000D03*
X182372000Y-70866000D03*
X182372000Y-68326000D03*
X182372000Y-65786000D03*
X182372000Y-63246000D03*
X182372000Y-60706000D03*
%TD*%
D10*
%TO.C,C9*%
X94996000Y-91186000D03*
D11*
X97496000Y-91186000D03*
%TD*%
M02*
