M48
; DRILL file KiCad 10.0.4 date 2026-07-26T00:07:33
; FORMAT={-:-/ absolute / metric / decimal}
; #@! TF.CreationDate,2026-07-26T00:07:33+09:00
; #@! TF.GenerationSoftware,Kicad,Pcbnew,10.0.4
; #@! TF.FileFunction,Plated,1,2,PTH
FMAT,2
METRIC
; #@! TA.AperFunction,Plated,PTH,ViaDrill
T1C0.300
; #@! TA.AperFunction,Plated,PTH,ViaDrill
T2C0.400
; #@! TA.AperFunction,Plated,PTH,ComponentDrill
T3C0.800
%
G90
G05
T1
X95.758Y-49.784
X106.934Y-92.626
X107.696Y-94.996
X110.744Y-98.806
X113.284Y-95.758
X115.824Y-64.516
X121.524Y-56.642
X123.444Y-50.546
X124.615Y-105.819
X127.254Y-104.394
X129.54Y-103.632
X131.572Y-102.362
X133.716Y-102.362
X137.16Y-103.886
X137.922Y-102.362
X139.192Y-104.902
X141.415Y-104.712
X141.986Y-58.166
X149.098Y-103.378
X152.654Y-94.826
X169.672Y-47.876
T2
X95.758Y-52.832
X95.758Y-54.356
X97.536Y-52.832
X97.536Y-54.356
X113.792Y-59.182
X114.554Y-55.118
X115.57Y-48.006
X119.38Y-46.99
X120.65Y-46.99
X123.952Y-56.642
X125.222Y-56.642
X126.492Y-56.642
X127.762Y-45.466
X127.762Y-46.736
X127.762Y-52.07
X127.762Y-53.34
X129.032Y-45.466
X129.032Y-46.736
X129.032Y-52.07
X129.032Y-53.34
X130.302Y-45.466
X130.302Y-46.736
X130.302Y-52.07
X130.302Y-53.34
X134.62Y-51.816
X141.478Y-56.388
X150.622Y-47.244
X151.13Y-102.616
X151.892Y-105.156
X152.908Y-99.314
X156.972Y-44.958
X156.972Y-46.482
X157.226Y-52.324
X157.226Y-53.848
X158.496Y-44.958
X158.496Y-46.482
X158.496Y-52.324
X158.496Y-53.848
X159.591Y-105.235
X160.02Y-53.848
X161.29Y-53.848
X163.322Y-104.14
X163.576Y-46.736
X167.64Y-46.99
X169.672Y-99.06
X171.45Y-47.244
X172.212Y-99.06
X172.72Y-47.244
X175.006Y-99.06
X175.514Y-54.864
X176.53Y-54.864
X177.546Y-54.864
X177.546Y-99.06
X179.324Y-49.276
X179.324Y-50.8
X180.086Y-99.06
X181.102Y-49.276
X181.102Y-50.8
X182.88Y-49.276
X182.88Y-50.8
T3
X91.694Y-64.77
X91.694Y-67.31
X91.694Y-69.85
X91.694Y-72.39
X91.694Y-74.93
X91.694Y-77.47
X91.694Y-80.01
X93.044Y-83.566
X94.996Y-91.186
X97.496Y-91.186
X98.044Y-83.566
X99.314Y-64.77
X99.314Y-67.31
X99.314Y-69.85
X99.314Y-72.39
X99.314Y-74.93
X99.314Y-77.47
X99.314Y-80.01
X102.87Y-45.546
X102.87Y-50.546
X104.14Y-60.706
X104.14Y-63.246
X104.14Y-65.786
X104.14Y-68.326
X104.14Y-70.866
X104.14Y-73.406
X104.14Y-75.946
X104.14Y-78.486
X104.14Y-81.026
X104.14Y-83.566
X104.14Y-86.106
X104.14Y-88.646
X104.14Y-91.186
X104.14Y-93.726
X104.14Y-96.266
X104.14Y-98.806
X106.934Y-45.212
X106.934Y-52.832
X109.474Y-45.212
X109.474Y-52.832
X112.014Y-45.212
X112.014Y-52.832
X114.38Y-57.404
X114.554Y-45.212
X114.554Y-52.832
X117.094Y-45.212
X117.094Y-52.832
X119.38Y-57.404
X119.38Y-60.706
X119.38Y-63.246
X119.38Y-65.786
X119.38Y-68.326
X119.38Y-70.866
X119.38Y-73.406
X119.38Y-75.946
X119.38Y-78.486
X119.38Y-81.026
X119.38Y-83.566
X119.38Y-86.106
X119.38Y-88.646
X119.38Y-91.186
X119.38Y-93.726
X119.38Y-96.266
X119.38Y-98.806
X119.634Y-45.212
X119.634Y-52.832
X122.174Y-45.212
X122.174Y-52.832
X124.46Y-60.706
X124.46Y-63.246
X124.46Y-65.786
X124.46Y-68.326
X124.46Y-70.866
X124.46Y-73.406
X124.46Y-75.946
X124.46Y-78.486
X124.46Y-81.026
X124.46Y-83.566
X124.46Y-86.106
X124.46Y-88.646
X124.46Y-91.186
X124.46Y-93.726
X124.46Y-96.266
X124.46Y-98.806
X124.714Y-45.212
X124.714Y-52.832
X132.588Y-47.07
X132.588Y-52.07
X134.66Y-57.404
X136.398Y-45.466
X136.398Y-53.086
X138.938Y-45.466
X138.938Y-53.086
X139.66Y-57.404
X139.7Y-60.706
X139.7Y-63.246
X139.7Y-65.786
X139.7Y-68.326
X139.7Y-70.866
X139.7Y-73.406
X139.7Y-75.946
X139.7Y-78.486
X139.7Y-81.026
X139.7Y-83.566
X139.7Y-86.106
X139.7Y-88.646
X139.7Y-91.186
X139.7Y-93.726
X139.7Y-96.266
X139.7Y-98.806
X141.478Y-45.466
X141.478Y-53.086
X144.018Y-45.466
X144.018Y-53.086
X146.304Y-60.706
X146.304Y-63.246
X146.304Y-65.786
X146.304Y-68.326
X146.304Y-70.866
X146.304Y-73.406
X146.304Y-75.946
X146.304Y-78.486
X146.304Y-81.026
X146.304Y-83.566
X146.304Y-86.106
X146.304Y-88.646
X146.304Y-91.186
X146.304Y-93.726
X146.304Y-96.266
X146.304Y-98.806
X146.558Y-45.466
X146.558Y-53.086
X149.098Y-45.466
X149.098Y-53.086
X151.638Y-45.466
X151.638Y-53.086
X154.178Y-45.466
X154.178Y-53.086
X156.544Y-57.404
X161.29Y-46.816
X161.29Y-51.816
X161.544Y-57.404
X161.544Y-60.706
X161.544Y-63.246
X161.544Y-65.786
X161.544Y-68.326
X161.544Y-70.866
X161.544Y-73.406
X161.544Y-75.946
X161.544Y-78.486
X161.544Y-81.026
X161.544Y-83.566
X161.544Y-86.106
X161.544Y-88.646
X161.544Y-91.186
X161.544Y-93.726
X161.544Y-96.266
X161.544Y-98.806
X164.846Y-45.212
X164.846Y-52.832
X167.132Y-60.706
X167.132Y-63.246
X167.132Y-65.786
X167.132Y-68.326
X167.132Y-70.866
X167.132Y-73.406
X167.132Y-75.946
X167.132Y-78.486
X167.132Y-81.026
X167.132Y-83.566
X167.132Y-86.106
X167.132Y-88.646
X167.132Y-91.186
X167.132Y-93.726
X167.132Y-96.266
X167.132Y-98.806
X167.386Y-45.212
X167.386Y-52.832
X169.926Y-45.212
X169.926Y-52.832
X172.466Y-45.212
X172.466Y-52.832
X175.006Y-45.212
X175.006Y-52.832
X177.332Y-57.15
X177.546Y-45.212
X177.546Y-52.832
X180.086Y-45.212
X180.086Y-52.832
X182.332Y-57.15
X182.372Y-60.706
X182.372Y-63.246
X182.372Y-65.786
X182.372Y-68.326
X182.372Y-70.866
X182.372Y-73.406
X182.372Y-75.946
X182.372Y-78.486
X182.372Y-81.026
X182.372Y-83.566
X182.372Y-86.106
X182.372Y-88.646
X182.372Y-91.186
X182.372Y-93.726
X182.372Y-96.266
X182.372Y-98.806
X182.626Y-45.212
X182.626Y-52.832
M30
