%TF.GenerationSoftware,KiCad,Pcbnew,10.0.4*%
%TF.CreationDate,2026-07-26T00:03:41+09:00*%
%TF.ProjectId,project_mega_ram,70726f6a-6563-4745-9f6d-6567615f7261,1.0*%
%TF.SameCoordinates,Original*%
%TF.FileFunction,Legend,Bot*%
%TF.FilePolarity,Positive*%
%FSLAX46Y46*%
G04 Gerber Fmt 4.6, Leading zero omitted, Abs format (unit mm)*
G04 Created by KiCad (PCBNEW 10.0.4) date 2026-07-26 00:03:41*
%MOMM*%
%LPD*%
G01*
G04 APERTURE LIST*
%ADD10C,0.100000*%
G04 APERTURE END LIST*
D10*
X111942800Y-120735428D02*
X111961847Y-120792571D01*
X111961847Y-120792571D02*
X111961847Y-120887809D01*
X111961847Y-120887809D02*
X111942800Y-120925904D01*
X111942800Y-120925904D02*
X111923752Y-120944952D01*
X111923752Y-120944952D02*
X111885657Y-120963999D01*
X111885657Y-120963999D02*
X111847561Y-120963999D01*
X111847561Y-120963999D02*
X111809466Y-120944952D01*
X111809466Y-120944952D02*
X111790419Y-120925904D01*
X111790419Y-120925904D02*
X111771371Y-120887809D01*
X111771371Y-120887809D02*
X111752323Y-120811618D01*
X111752323Y-120811618D02*
X111733276Y-120773523D01*
X111733276Y-120773523D02*
X111714228Y-120754476D01*
X111714228Y-120754476D02*
X111676133Y-120735428D01*
X111676133Y-120735428D02*
X111638038Y-120735428D01*
X111638038Y-120735428D02*
X111599942Y-120754476D01*
X111599942Y-120754476D02*
X111580895Y-120773523D01*
X111580895Y-120773523D02*
X111561847Y-120811618D01*
X111561847Y-120811618D02*
X111561847Y-120906857D01*
X111561847Y-120906857D02*
X111580895Y-120963999D01*
X111961847Y-121135428D02*
X111561847Y-121135428D01*
X111561847Y-121135428D02*
X111961847Y-121363999D01*
X111961847Y-121363999D02*
X111561847Y-121363999D01*
X111961847Y-121554476D02*
X111561847Y-121554476D01*
X111561847Y-121554476D02*
X111561847Y-121649714D01*
X111561847Y-121649714D02*
X111580895Y-121706857D01*
X111580895Y-121706857D02*
X111618990Y-121744952D01*
X111618990Y-121744952D02*
X111657085Y-121763999D01*
X111657085Y-121763999D02*
X111733276Y-121783047D01*
X111733276Y-121783047D02*
X111790419Y-121783047D01*
X111790419Y-121783047D02*
X111866609Y-121763999D01*
X111866609Y-121763999D02*
X111904704Y-121744952D01*
X111904704Y-121744952D02*
X111942800Y-121706857D01*
X111942800Y-121706857D02*
X111961847Y-121649714D01*
X111961847Y-121649714D02*
X111961847Y-121554476D01*
X111961847Y-121954476D02*
X111561847Y-121954476D01*
X111961847Y-122144952D02*
X111561847Y-122144952D01*
X111561847Y-122144952D02*
X111961847Y-122373523D01*
X111961847Y-122373523D02*
X111561847Y-122373523D01*
X114429466Y-121378762D02*
X114429466Y-121683524D01*
X114581847Y-121531143D02*
X114277085Y-121531143D01*
X114181847Y-122064476D02*
X114181847Y-121874000D01*
X114181847Y-121874000D02*
X114372323Y-121854952D01*
X114372323Y-121854952D02*
X114353276Y-121874000D01*
X114353276Y-121874000D02*
X114334228Y-121912095D01*
X114334228Y-121912095D02*
X114334228Y-122007333D01*
X114334228Y-122007333D02*
X114353276Y-122045428D01*
X114353276Y-122045428D02*
X114372323Y-122064476D01*
X114372323Y-122064476D02*
X114410419Y-122083523D01*
X114410419Y-122083523D02*
X114505657Y-122083523D01*
X114505657Y-122083523D02*
X114543752Y-122064476D01*
X114543752Y-122064476D02*
X114562800Y-122045428D01*
X114562800Y-122045428D02*
X114581847Y-122007333D01*
X114581847Y-122007333D02*
X114581847Y-121912095D01*
X114581847Y-121912095D02*
X114562800Y-121874000D01*
X114562800Y-121874000D02*
X114543752Y-121854952D01*
X114315180Y-122216856D02*
X114581847Y-122312094D01*
X114581847Y-122312094D02*
X114315180Y-122407333D01*
X116919466Y-121378762D02*
X116919466Y-121683524D01*
X117071847Y-121531143D02*
X116767085Y-121531143D01*
X116671847Y-122064476D02*
X116671847Y-121874000D01*
X116671847Y-121874000D02*
X116862323Y-121854952D01*
X116862323Y-121854952D02*
X116843276Y-121874000D01*
X116843276Y-121874000D02*
X116824228Y-121912095D01*
X116824228Y-121912095D02*
X116824228Y-122007333D01*
X116824228Y-122007333D02*
X116843276Y-122045428D01*
X116843276Y-122045428D02*
X116862323Y-122064476D01*
X116862323Y-122064476D02*
X116900419Y-122083523D01*
X116900419Y-122083523D02*
X116995657Y-122083523D01*
X116995657Y-122083523D02*
X117033752Y-122064476D01*
X117033752Y-122064476D02*
X117052800Y-122045428D01*
X117052800Y-122045428D02*
X117071847Y-122007333D01*
X117071847Y-122007333D02*
X117071847Y-121912095D01*
X117071847Y-121912095D02*
X117052800Y-121874000D01*
X117052800Y-121874000D02*
X117033752Y-121854952D01*
X116805180Y-122216856D02*
X117071847Y-122312094D01*
X117071847Y-122312094D02*
X116805180Y-122407333D01*
X119210895Y-121549237D02*
X119191847Y-121511142D01*
X119191847Y-121511142D02*
X119191847Y-121453999D01*
X119191847Y-121453999D02*
X119210895Y-121396856D01*
X119210895Y-121396856D02*
X119248990Y-121358761D01*
X119248990Y-121358761D02*
X119287085Y-121339714D01*
X119287085Y-121339714D02*
X119363276Y-121320666D01*
X119363276Y-121320666D02*
X119420419Y-121320666D01*
X119420419Y-121320666D02*
X119496609Y-121339714D01*
X119496609Y-121339714D02*
X119534704Y-121358761D01*
X119534704Y-121358761D02*
X119572800Y-121396856D01*
X119572800Y-121396856D02*
X119591847Y-121453999D01*
X119591847Y-121453999D02*
X119591847Y-121492095D01*
X119591847Y-121492095D02*
X119572800Y-121549237D01*
X119572800Y-121549237D02*
X119553752Y-121568285D01*
X119553752Y-121568285D02*
X119420419Y-121568285D01*
X119420419Y-121568285D02*
X119420419Y-121492095D01*
X119591847Y-121739714D02*
X119191847Y-121739714D01*
X119191847Y-121739714D02*
X119591847Y-121968285D01*
X119591847Y-121968285D02*
X119191847Y-121968285D01*
X119591847Y-122158762D02*
X119191847Y-122158762D01*
X119191847Y-122158762D02*
X119191847Y-122254000D01*
X119191847Y-122254000D02*
X119210895Y-122311143D01*
X119210895Y-122311143D02*
X119248990Y-122349238D01*
X119248990Y-122349238D02*
X119287085Y-122368285D01*
X119287085Y-122368285D02*
X119363276Y-122387333D01*
X119363276Y-122387333D02*
X119420419Y-122387333D01*
X119420419Y-122387333D02*
X119496609Y-122368285D01*
X119496609Y-122368285D02*
X119534704Y-122349238D01*
X119534704Y-122349238D02*
X119572800Y-122311143D01*
X119572800Y-122311143D02*
X119591847Y-122254000D01*
X119591847Y-122254000D02*
X119591847Y-122158762D01*
X121710895Y-121549237D02*
X121691847Y-121511142D01*
X121691847Y-121511142D02*
X121691847Y-121453999D01*
X121691847Y-121453999D02*
X121710895Y-121396856D01*
X121710895Y-121396856D02*
X121748990Y-121358761D01*
X121748990Y-121358761D02*
X121787085Y-121339714D01*
X121787085Y-121339714D02*
X121863276Y-121320666D01*
X121863276Y-121320666D02*
X121920419Y-121320666D01*
X121920419Y-121320666D02*
X121996609Y-121339714D01*
X121996609Y-121339714D02*
X122034704Y-121358761D01*
X122034704Y-121358761D02*
X122072800Y-121396856D01*
X122072800Y-121396856D02*
X122091847Y-121453999D01*
X122091847Y-121453999D02*
X122091847Y-121492095D01*
X122091847Y-121492095D02*
X122072800Y-121549237D01*
X122072800Y-121549237D02*
X122053752Y-121568285D01*
X122053752Y-121568285D02*
X121920419Y-121568285D01*
X121920419Y-121568285D02*
X121920419Y-121492095D01*
X122091847Y-121739714D02*
X121691847Y-121739714D01*
X121691847Y-121739714D02*
X122091847Y-121968285D01*
X122091847Y-121968285D02*
X121691847Y-121968285D01*
X122091847Y-122158762D02*
X121691847Y-122158762D01*
X121691847Y-122158762D02*
X121691847Y-122254000D01*
X121691847Y-122254000D02*
X121710895Y-122311143D01*
X121710895Y-122311143D02*
X121748990Y-122349238D01*
X121748990Y-122349238D02*
X121787085Y-122368285D01*
X121787085Y-122368285D02*
X121863276Y-122387333D01*
X121863276Y-122387333D02*
X121920419Y-122387333D01*
X121920419Y-122387333D02*
X121996609Y-122368285D01*
X121996609Y-122368285D02*
X122034704Y-122349238D01*
X122034704Y-122349238D02*
X122072800Y-122311143D01*
X122072800Y-122311143D02*
X122091847Y-122254000D01*
X122091847Y-122254000D02*
X122091847Y-122158762D01*
X124651847Y-121758762D02*
X124251847Y-121758762D01*
X124251847Y-121758762D02*
X124251847Y-121854000D01*
X124251847Y-121854000D02*
X124270895Y-121911143D01*
X124270895Y-121911143D02*
X124308990Y-121949238D01*
X124308990Y-121949238D02*
X124347085Y-121968285D01*
X124347085Y-121968285D02*
X124423276Y-121987333D01*
X124423276Y-121987333D02*
X124480419Y-121987333D01*
X124480419Y-121987333D02*
X124556609Y-121968285D01*
X124556609Y-121968285D02*
X124594704Y-121949238D01*
X124594704Y-121949238D02*
X124632800Y-121911143D01*
X124632800Y-121911143D02*
X124651847Y-121854000D01*
X124651847Y-121854000D02*
X124651847Y-121758762D01*
X124251847Y-122120666D02*
X124251847Y-122387333D01*
X124251847Y-122387333D02*
X124651847Y-122215904D01*
X127191847Y-121758762D02*
X126791847Y-121758762D01*
X126791847Y-121758762D02*
X126791847Y-121854000D01*
X126791847Y-121854000D02*
X126810895Y-121911143D01*
X126810895Y-121911143D02*
X126848990Y-121949238D01*
X126848990Y-121949238D02*
X126887085Y-121968285D01*
X126887085Y-121968285D02*
X126963276Y-121987333D01*
X126963276Y-121987333D02*
X127020419Y-121987333D01*
X127020419Y-121987333D02*
X127096609Y-121968285D01*
X127096609Y-121968285D02*
X127134704Y-121949238D01*
X127134704Y-121949238D02*
X127172800Y-121911143D01*
X127172800Y-121911143D02*
X127191847Y-121854000D01*
X127191847Y-121854000D02*
X127191847Y-121758762D01*
X126791847Y-122349238D02*
X126791847Y-122158762D01*
X126791847Y-122158762D02*
X126982323Y-122139714D01*
X126982323Y-122139714D02*
X126963276Y-122158762D01*
X126963276Y-122158762D02*
X126944228Y-122196857D01*
X126944228Y-122196857D02*
X126944228Y-122292095D01*
X126944228Y-122292095D02*
X126963276Y-122330190D01*
X126963276Y-122330190D02*
X126982323Y-122349238D01*
X126982323Y-122349238D02*
X127020419Y-122368285D01*
X127020419Y-122368285D02*
X127115657Y-122368285D01*
X127115657Y-122368285D02*
X127153752Y-122349238D01*
X127153752Y-122349238D02*
X127172800Y-122330190D01*
X127172800Y-122330190D02*
X127191847Y-122292095D01*
X127191847Y-122292095D02*
X127191847Y-122196857D01*
X127191847Y-122196857D02*
X127172800Y-122158762D01*
X127172800Y-122158762D02*
X127153752Y-122139714D01*
X129731847Y-121758762D02*
X129331847Y-121758762D01*
X129331847Y-121758762D02*
X129331847Y-121854000D01*
X129331847Y-121854000D02*
X129350895Y-121911143D01*
X129350895Y-121911143D02*
X129388990Y-121949238D01*
X129388990Y-121949238D02*
X129427085Y-121968285D01*
X129427085Y-121968285D02*
X129503276Y-121987333D01*
X129503276Y-121987333D02*
X129560419Y-121987333D01*
X129560419Y-121987333D02*
X129636609Y-121968285D01*
X129636609Y-121968285D02*
X129674704Y-121949238D01*
X129674704Y-121949238D02*
X129712800Y-121911143D01*
X129712800Y-121911143D02*
X129731847Y-121854000D01*
X129731847Y-121854000D02*
X129731847Y-121758762D01*
X129331847Y-122120666D02*
X129331847Y-122368285D01*
X129331847Y-122368285D02*
X129484228Y-122234952D01*
X129484228Y-122234952D02*
X129484228Y-122292095D01*
X129484228Y-122292095D02*
X129503276Y-122330190D01*
X129503276Y-122330190D02*
X129522323Y-122349238D01*
X129522323Y-122349238D02*
X129560419Y-122368285D01*
X129560419Y-122368285D02*
X129655657Y-122368285D01*
X129655657Y-122368285D02*
X129693752Y-122349238D01*
X129693752Y-122349238D02*
X129712800Y-122330190D01*
X129712800Y-122330190D02*
X129731847Y-122292095D01*
X129731847Y-122292095D02*
X129731847Y-122177809D01*
X129731847Y-122177809D02*
X129712800Y-122139714D01*
X129712800Y-122139714D02*
X129693752Y-122120666D01*
X132281847Y-121728762D02*
X131881847Y-121728762D01*
X131881847Y-121728762D02*
X131881847Y-121824000D01*
X131881847Y-121824000D02*
X131900895Y-121881143D01*
X131900895Y-121881143D02*
X131938990Y-121919238D01*
X131938990Y-121919238D02*
X131977085Y-121938285D01*
X131977085Y-121938285D02*
X132053276Y-121957333D01*
X132053276Y-121957333D02*
X132110419Y-121957333D01*
X132110419Y-121957333D02*
X132186609Y-121938285D01*
X132186609Y-121938285D02*
X132224704Y-121919238D01*
X132224704Y-121919238D02*
X132262800Y-121881143D01*
X132262800Y-121881143D02*
X132281847Y-121824000D01*
X132281847Y-121824000D02*
X132281847Y-121728762D01*
X132281847Y-122338285D02*
X132281847Y-122109714D01*
X132281847Y-122224000D02*
X131881847Y-122224000D01*
X131881847Y-122224000D02*
X131938990Y-122185904D01*
X131938990Y-122185904D02*
X131977085Y-122147809D01*
X131977085Y-122147809D02*
X131996133Y-122109714D01*
X134687561Y-121738286D02*
X134687561Y-121928762D01*
X134801847Y-121700191D02*
X134401847Y-121833524D01*
X134401847Y-121833524D02*
X134801847Y-121966857D01*
X134401847Y-122290667D02*
X134401847Y-122100191D01*
X134401847Y-122100191D02*
X134592323Y-122081143D01*
X134592323Y-122081143D02*
X134573276Y-122100191D01*
X134573276Y-122100191D02*
X134554228Y-122138286D01*
X134554228Y-122138286D02*
X134554228Y-122233524D01*
X134554228Y-122233524D02*
X134573276Y-122271619D01*
X134573276Y-122271619D02*
X134592323Y-122290667D01*
X134592323Y-122290667D02*
X134630419Y-122309714D01*
X134630419Y-122309714D02*
X134725657Y-122309714D01*
X134725657Y-122309714D02*
X134763752Y-122290667D01*
X134763752Y-122290667D02*
X134782800Y-122271619D01*
X134782800Y-122271619D02*
X134801847Y-122233524D01*
X134801847Y-122233524D02*
X134801847Y-122138286D01*
X134801847Y-122138286D02*
X134782800Y-122100191D01*
X134782800Y-122100191D02*
X134763752Y-122081143D01*
X137247561Y-121748286D02*
X137247561Y-121938762D01*
X137361847Y-121710191D02*
X136961847Y-121843524D01*
X136961847Y-121843524D02*
X137361847Y-121976857D01*
X136961847Y-122072095D02*
X136961847Y-122319714D01*
X136961847Y-122319714D02*
X137114228Y-122186381D01*
X137114228Y-122186381D02*
X137114228Y-122243524D01*
X137114228Y-122243524D02*
X137133276Y-122281619D01*
X137133276Y-122281619D02*
X137152323Y-122300667D01*
X137152323Y-122300667D02*
X137190419Y-122319714D01*
X137190419Y-122319714D02*
X137285657Y-122319714D01*
X137285657Y-122319714D02*
X137323752Y-122300667D01*
X137323752Y-122300667D02*
X137342800Y-122281619D01*
X137342800Y-122281619D02*
X137361847Y-122243524D01*
X137361847Y-122243524D02*
X137361847Y-122129238D01*
X137361847Y-122129238D02*
X137342800Y-122091143D01*
X137342800Y-122091143D02*
X137323752Y-122072095D01*
X139767561Y-121768286D02*
X139767561Y-121958762D01*
X139881847Y-121730191D02*
X139481847Y-121863524D01*
X139481847Y-121863524D02*
X139881847Y-121996857D01*
X139881847Y-122339714D02*
X139881847Y-122111143D01*
X139881847Y-122225429D02*
X139481847Y-122225429D01*
X139481847Y-122225429D02*
X139538990Y-122187333D01*
X139538990Y-122187333D02*
X139577085Y-122149238D01*
X139577085Y-122149238D02*
X139596133Y-122111143D01*
X142327561Y-121377810D02*
X142327561Y-121568286D01*
X142441847Y-121339715D02*
X142041847Y-121473048D01*
X142041847Y-121473048D02*
X142441847Y-121606381D01*
X142441847Y-121949238D02*
X142441847Y-121720667D01*
X142441847Y-121834953D02*
X142041847Y-121834953D01*
X142041847Y-121834953D02*
X142098990Y-121796857D01*
X142098990Y-121796857D02*
X142137085Y-121758762D01*
X142137085Y-121758762D02*
X142156133Y-121720667D01*
X142175180Y-122292095D02*
X142441847Y-122292095D01*
X142022800Y-122196857D02*
X142308514Y-122101619D01*
X142308514Y-122101619D02*
X142308514Y-122349238D01*
X144867561Y-121367810D02*
X144867561Y-121558286D01*
X144981847Y-121329715D02*
X144581847Y-121463048D01*
X144581847Y-121463048D02*
X144981847Y-121596381D01*
X144981847Y-121939238D02*
X144981847Y-121710667D01*
X144981847Y-121824953D02*
X144581847Y-121824953D01*
X144581847Y-121824953D02*
X144638990Y-121786857D01*
X144638990Y-121786857D02*
X144677085Y-121748762D01*
X144677085Y-121748762D02*
X144696133Y-121710667D01*
X144619942Y-122091619D02*
X144600895Y-122110667D01*
X144600895Y-122110667D02*
X144581847Y-122148762D01*
X144581847Y-122148762D02*
X144581847Y-122244000D01*
X144581847Y-122244000D02*
X144600895Y-122282095D01*
X144600895Y-122282095D02*
X144619942Y-122301143D01*
X144619942Y-122301143D02*
X144658038Y-122320190D01*
X144658038Y-122320190D02*
X144696133Y-122320190D01*
X144696133Y-122320190D02*
X144753276Y-122301143D01*
X144753276Y-122301143D02*
X144981847Y-122072571D01*
X144981847Y-122072571D02*
X144981847Y-122320190D01*
X147407561Y-121748286D02*
X147407561Y-121938762D01*
X147521847Y-121710191D02*
X147121847Y-121843524D01*
X147121847Y-121843524D02*
X147521847Y-121976857D01*
X147121847Y-122072095D02*
X147121847Y-122338762D01*
X147121847Y-122338762D02*
X147521847Y-122167333D01*
X149927561Y-121367810D02*
X149927561Y-121558286D01*
X150041847Y-121329715D02*
X149641847Y-121463048D01*
X149641847Y-121463048D02*
X150041847Y-121596381D01*
X150041847Y-121939238D02*
X150041847Y-121710667D01*
X150041847Y-121824953D02*
X149641847Y-121824953D01*
X149641847Y-121824953D02*
X149698990Y-121786857D01*
X149698990Y-121786857D02*
X149737085Y-121748762D01*
X149737085Y-121748762D02*
X149756133Y-121710667D01*
X150041847Y-122320190D02*
X150041847Y-122091619D01*
X150041847Y-122205905D02*
X149641847Y-122205905D01*
X149641847Y-122205905D02*
X149698990Y-122167809D01*
X149698990Y-122167809D02*
X149737085Y-122129714D01*
X149737085Y-122129714D02*
X149756133Y-122091619D01*
X152477561Y-121748286D02*
X152477561Y-121938762D01*
X152591847Y-121710191D02*
X152191847Y-121843524D01*
X152191847Y-121843524D02*
X152591847Y-121976857D01*
X152591847Y-122129238D02*
X152591847Y-122205429D01*
X152591847Y-122205429D02*
X152572800Y-122243524D01*
X152572800Y-122243524D02*
X152553752Y-122262572D01*
X152553752Y-122262572D02*
X152496609Y-122300667D01*
X152496609Y-122300667D02*
X152420419Y-122319714D01*
X152420419Y-122319714D02*
X152268038Y-122319714D01*
X152268038Y-122319714D02*
X152229942Y-122300667D01*
X152229942Y-122300667D02*
X152210895Y-122281619D01*
X152210895Y-122281619D02*
X152191847Y-122243524D01*
X152191847Y-122243524D02*
X152191847Y-122167333D01*
X152191847Y-122167333D02*
X152210895Y-122129238D01*
X152210895Y-122129238D02*
X152229942Y-122110191D01*
X152229942Y-122110191D02*
X152268038Y-122091143D01*
X152268038Y-122091143D02*
X152363276Y-122091143D01*
X152363276Y-122091143D02*
X152401371Y-122110191D01*
X152401371Y-122110191D02*
X152420419Y-122129238D01*
X152420419Y-122129238D02*
X152439466Y-122167333D01*
X152439466Y-122167333D02*
X152439466Y-122243524D01*
X152439466Y-122243524D02*
X152420419Y-122281619D01*
X152420419Y-122281619D02*
X152401371Y-122300667D01*
X152401371Y-122300667D02*
X152363276Y-122319714D01*
X155131847Y-120983047D02*
X154941371Y-120849714D01*
X155131847Y-120754476D02*
X154731847Y-120754476D01*
X154731847Y-120754476D02*
X154731847Y-120906857D01*
X154731847Y-120906857D02*
X154750895Y-120944952D01*
X154750895Y-120944952D02*
X154769942Y-120963999D01*
X154769942Y-120963999D02*
X154808038Y-120983047D01*
X154808038Y-120983047D02*
X154865180Y-120983047D01*
X154865180Y-120983047D02*
X154903276Y-120963999D01*
X154903276Y-120963999D02*
X154922323Y-120944952D01*
X154922323Y-120944952D02*
X154941371Y-120906857D01*
X154941371Y-120906857D02*
X154941371Y-120754476D01*
X154922323Y-121154476D02*
X154922323Y-121287809D01*
X155131847Y-121344952D02*
X155131847Y-121154476D01*
X155131847Y-121154476D02*
X154731847Y-121154476D01*
X154731847Y-121154476D02*
X154731847Y-121344952D01*
X155112800Y-121497333D02*
X155131847Y-121554476D01*
X155131847Y-121554476D02*
X155131847Y-121649714D01*
X155131847Y-121649714D02*
X155112800Y-121687809D01*
X155112800Y-121687809D02*
X155093752Y-121706857D01*
X155093752Y-121706857D02*
X155055657Y-121725904D01*
X155055657Y-121725904D02*
X155017561Y-121725904D01*
X155017561Y-121725904D02*
X154979466Y-121706857D01*
X154979466Y-121706857D02*
X154960419Y-121687809D01*
X154960419Y-121687809D02*
X154941371Y-121649714D01*
X154941371Y-121649714D02*
X154922323Y-121573523D01*
X154922323Y-121573523D02*
X154903276Y-121535428D01*
X154903276Y-121535428D02*
X154884228Y-121516381D01*
X154884228Y-121516381D02*
X154846133Y-121497333D01*
X154846133Y-121497333D02*
X154808038Y-121497333D01*
X154808038Y-121497333D02*
X154769942Y-121516381D01*
X154769942Y-121516381D02*
X154750895Y-121535428D01*
X154750895Y-121535428D02*
X154731847Y-121573523D01*
X154731847Y-121573523D02*
X154731847Y-121668762D01*
X154731847Y-121668762D02*
X154750895Y-121725904D01*
X154922323Y-121897333D02*
X154922323Y-122030666D01*
X155131847Y-122087809D02*
X155131847Y-121897333D01*
X155131847Y-121897333D02*
X154731847Y-121897333D01*
X154731847Y-121897333D02*
X154731847Y-122087809D01*
X154731847Y-122202095D02*
X154731847Y-122430666D01*
X155131847Y-122316380D02*
X154731847Y-122316380D01*
X154620800Y-120699238D02*
X154620800Y-122428762D01*
X157271847Y-121652571D02*
X157671847Y-121747809D01*
X157671847Y-121747809D02*
X157386133Y-121824000D01*
X157386133Y-121824000D02*
X157671847Y-121900190D01*
X157671847Y-121900190D02*
X157271847Y-121995429D01*
X157671847Y-122376381D02*
X157481371Y-122243048D01*
X157671847Y-122147810D02*
X157271847Y-122147810D01*
X157271847Y-122147810D02*
X157271847Y-122300191D01*
X157271847Y-122300191D02*
X157290895Y-122338286D01*
X157290895Y-122338286D02*
X157309942Y-122357333D01*
X157309942Y-122357333D02*
X157348038Y-122376381D01*
X157348038Y-122376381D02*
X157405180Y-122376381D01*
X157405180Y-122376381D02*
X157443276Y-122357333D01*
X157443276Y-122357333D02*
X157462323Y-122338286D01*
X157462323Y-122338286D02*
X157481371Y-122300191D01*
X157481371Y-122300191D02*
X157481371Y-122147810D01*
X157160800Y-122092572D02*
X157160800Y-122412572D01*
X160231847Y-121124952D02*
X159831847Y-121124952D01*
X159831847Y-121391618D02*
X159831847Y-121467809D01*
X159831847Y-121467809D02*
X159850895Y-121505904D01*
X159850895Y-121505904D02*
X159888990Y-121543999D01*
X159888990Y-121543999D02*
X159965180Y-121563047D01*
X159965180Y-121563047D02*
X160098514Y-121563047D01*
X160098514Y-121563047D02*
X160174704Y-121543999D01*
X160174704Y-121543999D02*
X160212800Y-121505904D01*
X160212800Y-121505904D02*
X160231847Y-121467809D01*
X160231847Y-121467809D02*
X160231847Y-121391618D01*
X160231847Y-121391618D02*
X160212800Y-121353523D01*
X160212800Y-121353523D02*
X160174704Y-121315428D01*
X160174704Y-121315428D02*
X160098514Y-121296380D01*
X160098514Y-121296380D02*
X159965180Y-121296380D01*
X159965180Y-121296380D02*
X159888990Y-121315428D01*
X159888990Y-121315428D02*
X159850895Y-121353523D01*
X159850895Y-121353523D02*
X159831847Y-121391618D01*
X160231847Y-121963047D02*
X160041371Y-121829714D01*
X160231847Y-121734476D02*
X159831847Y-121734476D01*
X159831847Y-121734476D02*
X159831847Y-121886857D01*
X159831847Y-121886857D02*
X159850895Y-121924952D01*
X159850895Y-121924952D02*
X159869942Y-121943999D01*
X159869942Y-121943999D02*
X159908038Y-121963047D01*
X159908038Y-121963047D02*
X159965180Y-121963047D01*
X159965180Y-121963047D02*
X160003276Y-121943999D01*
X160003276Y-121943999D02*
X160022323Y-121924952D01*
X160022323Y-121924952D02*
X160041371Y-121886857D01*
X160041371Y-121886857D02*
X160041371Y-121734476D01*
X160269942Y-122401142D02*
X160250895Y-122363047D01*
X160250895Y-122363047D02*
X160212800Y-122324952D01*
X160212800Y-122324952D02*
X160155657Y-122267809D01*
X160155657Y-122267809D02*
X160136609Y-122229714D01*
X160136609Y-122229714D02*
X160136609Y-122191618D01*
X160231847Y-122210666D02*
X160212800Y-122172571D01*
X160212800Y-122172571D02*
X160174704Y-122134476D01*
X160174704Y-122134476D02*
X160098514Y-122115428D01*
X160098514Y-122115428D02*
X159965180Y-122115428D01*
X159965180Y-122115428D02*
X159888990Y-122134476D01*
X159888990Y-122134476D02*
X159850895Y-122172571D01*
X159850895Y-122172571D02*
X159831847Y-122210666D01*
X159831847Y-122210666D02*
X159831847Y-122286857D01*
X159831847Y-122286857D02*
X159850895Y-122324952D01*
X159850895Y-122324952D02*
X159888990Y-122363047D01*
X159888990Y-122363047D02*
X159965180Y-122382095D01*
X159965180Y-122382095D02*
X160098514Y-122382095D01*
X160098514Y-122382095D02*
X160174704Y-122363047D01*
X160174704Y-122363047D02*
X160212800Y-122324952D01*
X160212800Y-122324952D02*
X160231847Y-122286857D01*
X160231847Y-122286857D02*
X160231847Y-122210666D01*
X159720800Y-121069714D02*
X159720800Y-122418286D01*
X162731847Y-121676191D02*
X162331847Y-121676191D01*
X162331847Y-121676191D02*
X162617561Y-121809524D01*
X162617561Y-121809524D02*
X162331847Y-121942857D01*
X162331847Y-121942857D02*
X162731847Y-121942857D01*
X162731847Y-122342857D02*
X162731847Y-122114286D01*
X162731847Y-122228572D02*
X162331847Y-122228572D01*
X162331847Y-122228572D02*
X162388990Y-122190476D01*
X162388990Y-122190476D02*
X162427085Y-122152381D01*
X162427085Y-122152381D02*
X162446133Y-122114286D01*
X162220800Y-121620953D02*
X162220800Y-122379048D01*
X164891847Y-121213523D02*
X165291847Y-121308761D01*
X165291847Y-121308761D02*
X165006133Y-121384952D01*
X165006133Y-121384952D02*
X165291847Y-121461142D01*
X165291847Y-121461142D02*
X164891847Y-121556381D01*
X165177561Y-121689714D02*
X165177561Y-121880190D01*
X165291847Y-121651619D02*
X164891847Y-121784952D01*
X164891847Y-121784952D02*
X165291847Y-121918285D01*
X165291847Y-122051619D02*
X164891847Y-122051619D01*
X164891847Y-122184952D02*
X164891847Y-122413523D01*
X165291847Y-122299237D02*
X164891847Y-122299237D01*
X164780800Y-121196381D02*
X164780800Y-122411619D01*
X167841847Y-121369238D02*
X167441847Y-121369238D01*
X167441847Y-121369238D02*
X167841847Y-121597809D01*
X167841847Y-121597809D02*
X167441847Y-121597809D01*
X167803752Y-121788286D02*
X167822800Y-121807333D01*
X167822800Y-121807333D02*
X167841847Y-121788286D01*
X167841847Y-121788286D02*
X167822800Y-121769238D01*
X167822800Y-121769238D02*
X167803752Y-121788286D01*
X167803752Y-121788286D02*
X167841847Y-121788286D01*
X167803752Y-122207333D02*
X167822800Y-122188285D01*
X167822800Y-122188285D02*
X167841847Y-122131143D01*
X167841847Y-122131143D02*
X167841847Y-122093047D01*
X167841847Y-122093047D02*
X167822800Y-122035904D01*
X167822800Y-122035904D02*
X167784704Y-121997809D01*
X167784704Y-121997809D02*
X167746609Y-121978762D01*
X167746609Y-121978762D02*
X167670419Y-121959714D01*
X167670419Y-121959714D02*
X167613276Y-121959714D01*
X167613276Y-121959714D02*
X167537085Y-121978762D01*
X167537085Y-121978762D02*
X167498990Y-121997809D01*
X167498990Y-121997809D02*
X167460895Y-122035904D01*
X167460895Y-122035904D02*
X167441847Y-122093047D01*
X167441847Y-122093047D02*
X167441847Y-122131143D01*
X167441847Y-122131143D02*
X167460895Y-122188285D01*
X167460895Y-122188285D02*
X167479942Y-122207333D01*
X167803752Y-122378762D02*
X167822800Y-122397809D01*
X167822800Y-122397809D02*
X167841847Y-122378762D01*
X167841847Y-122378762D02*
X167822800Y-122359714D01*
X167822800Y-122359714D02*
X167803752Y-122378762D01*
X167803752Y-122378762D02*
X167841847Y-122378762D01*
X170313752Y-121226381D02*
X170332800Y-121207333D01*
X170332800Y-121207333D02*
X170351847Y-121150191D01*
X170351847Y-121150191D02*
X170351847Y-121112095D01*
X170351847Y-121112095D02*
X170332800Y-121054952D01*
X170332800Y-121054952D02*
X170294704Y-121016857D01*
X170294704Y-121016857D02*
X170256609Y-120997810D01*
X170256609Y-120997810D02*
X170180419Y-120978762D01*
X170180419Y-120978762D02*
X170123276Y-120978762D01*
X170123276Y-120978762D02*
X170047085Y-120997810D01*
X170047085Y-120997810D02*
X170008990Y-121016857D01*
X170008990Y-121016857D02*
X169970895Y-121054952D01*
X169970895Y-121054952D02*
X169951847Y-121112095D01*
X169951847Y-121112095D02*
X169951847Y-121150191D01*
X169951847Y-121150191D02*
X169970895Y-121207333D01*
X169970895Y-121207333D02*
X169989942Y-121226381D01*
X170332800Y-121378762D02*
X170351847Y-121435905D01*
X170351847Y-121435905D02*
X170351847Y-121531143D01*
X170351847Y-121531143D02*
X170332800Y-121569238D01*
X170332800Y-121569238D02*
X170313752Y-121588286D01*
X170313752Y-121588286D02*
X170275657Y-121607333D01*
X170275657Y-121607333D02*
X170237561Y-121607333D01*
X170237561Y-121607333D02*
X170199466Y-121588286D01*
X170199466Y-121588286D02*
X170180419Y-121569238D01*
X170180419Y-121569238D02*
X170161371Y-121531143D01*
X170161371Y-121531143D02*
X170142323Y-121454952D01*
X170142323Y-121454952D02*
X170123276Y-121416857D01*
X170123276Y-121416857D02*
X170104228Y-121397810D01*
X170104228Y-121397810D02*
X170066133Y-121378762D01*
X170066133Y-121378762D02*
X170028038Y-121378762D01*
X170028038Y-121378762D02*
X169989942Y-121397810D01*
X169989942Y-121397810D02*
X169970895Y-121416857D01*
X169970895Y-121416857D02*
X169951847Y-121454952D01*
X169951847Y-121454952D02*
X169951847Y-121550191D01*
X169951847Y-121550191D02*
X169970895Y-121607333D01*
X170351847Y-121988285D02*
X170351847Y-121759714D01*
X170351847Y-121874000D02*
X169951847Y-121874000D01*
X169951847Y-121874000D02*
X170008990Y-121835904D01*
X170008990Y-121835904D02*
X170047085Y-121797809D01*
X170047085Y-121797809D02*
X170066133Y-121759714D01*
X169989942Y-122140666D02*
X169970895Y-122159714D01*
X169970895Y-122159714D02*
X169951847Y-122197809D01*
X169951847Y-122197809D02*
X169951847Y-122293047D01*
X169951847Y-122293047D02*
X169970895Y-122331142D01*
X169970895Y-122331142D02*
X169989942Y-122350190D01*
X169989942Y-122350190D02*
X170028038Y-122369237D01*
X170028038Y-122369237D02*
X170066133Y-122369237D01*
X170066133Y-122369237D02*
X170123276Y-122350190D01*
X170123276Y-122350190D02*
X170351847Y-122121618D01*
X170351847Y-122121618D02*
X170351847Y-122369237D01*
X169840800Y-120942572D02*
X169840800Y-122405428D01*
X172863752Y-121616857D02*
X172882800Y-121597809D01*
X172882800Y-121597809D02*
X172901847Y-121540667D01*
X172901847Y-121540667D02*
X172901847Y-121502571D01*
X172901847Y-121502571D02*
X172882800Y-121445428D01*
X172882800Y-121445428D02*
X172844704Y-121407333D01*
X172844704Y-121407333D02*
X172806609Y-121388286D01*
X172806609Y-121388286D02*
X172730419Y-121369238D01*
X172730419Y-121369238D02*
X172673276Y-121369238D01*
X172673276Y-121369238D02*
X172597085Y-121388286D01*
X172597085Y-121388286D02*
X172558990Y-121407333D01*
X172558990Y-121407333D02*
X172520895Y-121445428D01*
X172520895Y-121445428D02*
X172501847Y-121502571D01*
X172501847Y-121502571D02*
X172501847Y-121540667D01*
X172501847Y-121540667D02*
X172520895Y-121597809D01*
X172520895Y-121597809D02*
X172539942Y-121616857D01*
X172882800Y-121769238D02*
X172901847Y-121826381D01*
X172901847Y-121826381D02*
X172901847Y-121921619D01*
X172901847Y-121921619D02*
X172882800Y-121959714D01*
X172882800Y-121959714D02*
X172863752Y-121978762D01*
X172863752Y-121978762D02*
X172825657Y-121997809D01*
X172825657Y-121997809D02*
X172787561Y-121997809D01*
X172787561Y-121997809D02*
X172749466Y-121978762D01*
X172749466Y-121978762D02*
X172730419Y-121959714D01*
X172730419Y-121959714D02*
X172711371Y-121921619D01*
X172711371Y-121921619D02*
X172692323Y-121845428D01*
X172692323Y-121845428D02*
X172673276Y-121807333D01*
X172673276Y-121807333D02*
X172654228Y-121788286D01*
X172654228Y-121788286D02*
X172616133Y-121769238D01*
X172616133Y-121769238D02*
X172578038Y-121769238D01*
X172578038Y-121769238D02*
X172539942Y-121788286D01*
X172539942Y-121788286D02*
X172520895Y-121807333D01*
X172520895Y-121807333D02*
X172501847Y-121845428D01*
X172501847Y-121845428D02*
X172501847Y-121940667D01*
X172501847Y-121940667D02*
X172520895Y-121997809D01*
X172901847Y-122378761D02*
X172901847Y-122150190D01*
X172901847Y-122264476D02*
X172501847Y-122264476D01*
X172501847Y-122264476D02*
X172558990Y-122226380D01*
X172558990Y-122226380D02*
X172597085Y-122188285D01*
X172597085Y-122188285D02*
X172616133Y-122150190D01*
X172390800Y-121333048D02*
X172390800Y-122414952D01*
M02*
