M48
; DRILL file KiCad 10.0.4 date 2026-07-26T00:04:54
; FORMAT={-:-/ absolute / metric / decimal}
; #@! TF.CreationDate,2026-07-26T00:04:54+09:00
; #@! TF.GenerationSoftware,Kicad,Pcbnew,10.0.4
; #@! TF.FileFunction,Plated,1,2,PTH
FMAT,2
METRIC
; #@! TA.AperFunction,Plated,PTH,ViaDrill
T1C0.300
; #@! TA.AperFunction,Plated,PTH,ViaDrill
T2C0.400
; #@! TA.AperFunction,Plated,PTH,ComponentDrill
T3C0.800
%
G90
G05
T1
X133.604Y-72.39
X133.79Y-73.421
X137.16Y-52.07
X139.7Y-53.594
X141.25Y-48.809
X141.25Y-52.578
X142.998Y-54.102
T2
X89.206Y-54.248
X89.206Y-56.28
X90.984Y-54.248
X90.984Y-56.28
X92.964Y-103.632
X93.016Y-54.248
X93.016Y-56.28
X94.742Y-103.632
X94.75Y-54.25
X94.75Y-56.25
X96.25Y-54.25
X96.52Y-103.632
X114.554Y-48.514
X116.019Y-48.455
X116.078Y-49.784
X119.888Y-52.07
X119.888Y-57.658
X121.158Y-52.07
X121.412Y-57.658
X122.936Y-57.658
X124.968Y-119.888
X126.25Y-112.485
X127.254Y-119.888
X128.778Y-69.342
X128.778Y-70.612
X129.0Y-91.5
X129.0Y-93.0
X129.0Y-94.5
X129.249Y-119.97
X130.0Y-91.5
X130.0Y-93.0
X130.0Y-94.5
X131.0Y-93.0
X131.0Y-94.5
X131.064Y-70.612
X131.064Y-73.914
X131.064Y-81.75
X131.064Y-91.5
X131.502Y-120.072
X132.08Y-55.118
X132.08Y-56.134
X132.334Y-115.316
X133.096Y-50.038
X133.096Y-119.888
X133.501Y-116.84
X133.858Y-114.084
X134.112Y-62.738
X135.124Y-114.05
X136.143Y-111.911
X136.144Y-78.486
X136.398Y-69.596
X136.398Y-70.866
X136.601Y-119.85
X136.868Y-111.223
X136.906Y-64.77
X139.094Y-119.85
X139.954Y-78.232
X139.954Y-80.01
X139.954Y-113.284
X140.97Y-119.888
X141.224Y-66.294
X141.5Y-117.385
X142.494Y-64.516
X142.5Y-119.851
X143.026Y-117.0
X143.764Y-119.888
X144.526Y-74.422
X144.526Y-116.332
X144.78Y-68.58
X145.034Y-80.264
X145.288Y-119.888
X146.812Y-74.422
X147.066Y-115.57
X147.828Y-117.602
X150.368Y-65.532
X150.876Y-52.324
X150.876Y-80.264
X151.0Y-117.5
X151.638Y-115.57
X152.654Y-80.264
X153.162Y-55.88
X153.5Y-117.5
X154.178Y-55.88
X154.432Y-80.264
X155.194Y-55.88
X155.448Y-93.472
X155.448Y-94.996
X155.75Y-65.0
X155.75Y-68.5
X155.956Y-115.57
X156.75Y-65.0
X156.75Y-68.5
X157.75Y-65.024
X157.75Y-68.5
X157.75Y-118.0
X158.25Y-55.75
X158.496Y-79.502
X158.75Y-65.0
X158.75Y-68.5
X161.798Y-57.912
X162.0Y-70.0
X162.306Y-79.502
X162.306Y-83.058
X163.0Y-70.0
X165.1Y-55.626
X165.1Y-108.204
X165.354Y-81.75
X166.116Y-65.278
X166.116Y-67.056
X166.37Y-108.204
X168.148Y-65.278
X168.148Y-81.75
X169.418Y-54.61
X169.5Y-60.5
X170.434Y-80.264
X170.5Y-52.5
X170.5Y-53.5
X170.5Y-54.5
X170.5Y-55.5
X170.5Y-60.5
X170.75Y-81.75
X171.5Y-60.5
X171.704Y-78.336
X172.5Y-60.5
X172.72Y-73.914
X173.228Y-105.918
X177.038Y-74.422
X177.546Y-52.324
X178.054Y-114.75
X178.816Y-78.74
X178.816Y-81.788
X179.059Y-49.129
X179.25Y-114.75
X180.594Y-78.74
X180.594Y-81.788
X180.594Y-91.694
X180.594Y-93.98
X180.75Y-114.75
X180.848Y-65.0
X180.848Y-67.564
X182.75Y-53.0
X182.75Y-54.0
X182.75Y-55.0
X182.75Y-56.0
X182.88Y-60.0
X183.388Y-67.564
X183.388Y-75.184
X183.388Y-76.708
X183.896Y-44.704
X184.785Y-79.629
X184.912Y-45.72
X185.42Y-81.788
X185.42Y-83.312
X185.661Y-72.657
X185.674Y-102.108
X185.928Y-46.99
T3
X89.154Y-63.072
X89.154Y-68.072
X89.154Y-85.638
X89.154Y-90.638
X92.9Y-85.5
X92.9Y-100.74
X92.97Y-63.01
X92.97Y-78.25
X95.44Y-85.5
X95.44Y-100.74
X95.51Y-63.01
X95.51Y-78.25
X97.98Y-85.5
X97.98Y-100.74
X98.05Y-63.01
X98.05Y-78.25
X100.52Y-85.5
X100.52Y-100.74
X100.59Y-63.01
X100.59Y-78.25
X103.0Y-113.205
X103.0Y-115.705
X103.06Y-85.5
X103.06Y-100.74
X103.13Y-63.01
X103.13Y-78.25
X105.6Y-85.5
X105.6Y-100.74
X105.67Y-63.01
X105.67Y-78.25
X108.14Y-85.5
X108.14Y-100.74
X108.21Y-63.01
X108.21Y-78.25
X110.68Y-85.5
X110.68Y-100.74
X110.75Y-63.01
X110.75Y-78.25
X113.22Y-85.5
X113.22Y-100.74
X113.29Y-63.01
X113.29Y-78.25
X115.76Y-85.5
X115.76Y-100.74
X115.83Y-63.01
X115.83Y-78.25
X118.3Y-85.5
X118.3Y-100.74
X118.37Y-63.01
X118.37Y-78.25
X119.888Y-49.53
X119.888Y-54.864
X120.84Y-85.5
X120.84Y-100.74
X120.91Y-63.01
X120.91Y-78.25
X122.428Y-49.53
X122.428Y-54.864
X123.38Y-85.5
X123.38Y-100.74
X123.45Y-63.01
X123.45Y-78.25
X124.968Y-49.53
X124.968Y-54.864
X125.92Y-85.5
X125.92Y-100.74
X125.99Y-63.01
X125.99Y-78.25
X127.508Y-49.53
X127.508Y-54.864
X128.46Y-85.5
X128.46Y-100.74
X128.53Y-63.01
X128.53Y-78.25
X130.048Y-49.53
X130.048Y-54.864
X131.0Y-85.5
X131.0Y-100.74
X131.07Y-63.01
X131.07Y-78.25
X136.134Y-50.292
X136.134Y-55.292
X136.134Y-89.398
X136.134Y-94.398
X136.144Y-62.484
X136.144Y-67.484
X136.144Y-75.732
X136.144Y-80.732
X136.393Y-103.114
X136.393Y-108.114
X139.934Y-50.292
X139.934Y-57.912
X139.954Y-62.738
X139.954Y-70.358
X139.954Y-75.936
X139.954Y-83.556
X140.203Y-89.652
X140.203Y-97.272
X140.203Y-102.86
X140.203Y-110.48
X142.474Y-50.292
X142.474Y-57.912
X142.494Y-62.738
X142.494Y-70.358
X142.494Y-75.936
X142.494Y-83.556
X142.743Y-89.652
X142.743Y-97.272
X142.743Y-102.86
X142.743Y-110.48
X145.014Y-50.292
X145.014Y-57.912
X145.034Y-62.738
X145.034Y-70.358
X145.034Y-75.936
X145.034Y-83.556
X145.283Y-89.652
X145.283Y-97.272
X145.283Y-102.86
X145.283Y-110.48
X147.554Y-50.292
X147.554Y-57.912
X147.574Y-62.738
X147.574Y-70.358
X147.574Y-75.936
X147.574Y-83.556
X147.823Y-89.652
X147.823Y-97.272
X147.823Y-102.86
X147.823Y-110.48
X150.094Y-50.292
X150.094Y-57.912
X150.114Y-62.738
X150.114Y-70.358
X150.114Y-75.936
X150.114Y-83.556
X150.363Y-89.652
X150.363Y-97.272
X150.363Y-102.86
X150.363Y-110.48
X152.634Y-50.292
X152.634Y-57.912
X152.654Y-62.738
X152.654Y-70.358
X152.654Y-75.936
X152.654Y-83.556
X152.903Y-89.652
X152.903Y-97.272
X152.903Y-102.86
X152.903Y-110.48
X155.174Y-50.292
X155.174Y-57.912
X155.194Y-62.738
X155.194Y-70.358
X155.194Y-75.936
X155.194Y-83.556
X155.443Y-89.652
X155.443Y-97.272
X155.443Y-102.86
X155.443Y-110.48
X157.714Y-50.292
X157.714Y-57.912
X157.734Y-62.738
X157.734Y-70.358
X157.734Y-75.936
X157.734Y-83.556
X161.554Y-102.676
X161.554Y-107.676
X161.798Y-50.292
X161.798Y-55.292
X161.798Y-63.032
X161.798Y-68.032
X161.798Y-89.448
X161.798Y-94.448
X162.306Y-76.25
X162.306Y-81.25
X165.09Y-50.282
X165.09Y-57.902
X165.354Y-102.87
X165.354Y-110.49
X165.364Y-89.428
X165.364Y-97.048
X165.608Y-62.992
X165.608Y-70.612
X165.608Y-76.2
X165.608Y-83.82
X167.63Y-50.282
X167.63Y-57.902
X167.894Y-102.87
X167.894Y-110.49
X167.904Y-89.428
X167.904Y-97.048
X168.148Y-62.992
X168.148Y-70.612
X168.148Y-76.2
X168.148Y-83.82
X170.17Y-50.282
X170.17Y-57.902
X170.434Y-102.87
X170.434Y-110.49
X170.444Y-89.428
X170.444Y-97.048
X170.688Y-62.992
X170.688Y-70.612
X170.688Y-76.2
X170.688Y-83.82
X172.71Y-50.282
X172.71Y-57.902
X172.974Y-102.87
X172.974Y-110.49
X172.984Y-89.428
X172.984Y-97.048
X173.228Y-62.992
X173.228Y-70.612
X173.228Y-76.2
X173.228Y-83.82
X175.25Y-50.282
X175.25Y-57.902
X175.514Y-102.87
X175.514Y-110.49
X175.524Y-89.428
X175.524Y-97.048
X175.768Y-62.992
X175.768Y-70.612
X175.768Y-76.2
X175.768Y-83.82
X177.79Y-50.282
X177.79Y-57.902
X178.054Y-102.87
X178.054Y-110.49
X178.064Y-89.428
X178.064Y-97.048
X178.308Y-62.992
X178.308Y-70.612
X178.308Y-76.2
X178.308Y-83.82
X180.33Y-50.282
X180.33Y-57.902
X180.594Y-102.87
X180.594Y-110.49
X180.604Y-89.428
X180.604Y-97.048
X180.848Y-62.992
X180.848Y-70.612
X180.848Y-76.2
X180.848Y-83.82
X182.87Y-50.282
X182.87Y-57.902
X183.388Y-62.992
X183.388Y-70.612
M30
