%TF.GenerationSoftware,KiCad,Pcbnew,10.0.4*%
%TF.CreationDate,2026-07-26T00:03:41+09:00*%
%TF.ProjectId,project_mega_ram,70726f6a-6563-4745-9f6d-6567615f7261,1.0*%
%TF.SameCoordinates,Original*%
%TF.FileFunction,Soldermask,Top*%
%TF.FilePolarity,Negative*%
%FSLAX46Y46*%
G04 Gerber Fmt 4.6, Leading zero omitted, Abs format (unit mm)*
G04 Created by KiCad (PCBNEW 10.0.4) date 2026-07-26 00:03:41*
%MOMM*%
%LPD*%
G01*
G04 APERTURE LIST*
G04 Aperture macros list*
%AMRoundRect*
0 Rectangle with rounded corners*
0 $1 Rounding radius*
0 $2 $3 $4 $5 $6 $7 $8 $9 X,Y pos of 4 corners*
0 Add a 4 corners polygon primitive as box body*
4,1,4,$2,$3,$4,$5,$6,$7,$8,$9,$2,$3,0*
0 Add four circle primitives for the rounded corners*
1,1,$1+$1,$2,$3*
1,1,$1+$1,$4,$5*
1,1,$1+$1,$6,$7*
1,1,$1+$1,$8,$9*
0 Add four rect primitives between the rounded corners*
20,1,$1+$1,$2,$3,$4,$5,0*
20,1,$1+$1,$4,$5,$6,$7,0*
20,1,$1+$1,$6,$7,$8,$9,0*
20,1,$1+$1,$8,$9,$2,$3,0*%
G04 Aperture macros list end*
%ADD10RoundRect,0.250000X0.550000X-0.550000X0.550000X0.550000X-0.550000X0.550000X-0.550000X-0.550000X0*%
%ADD11C,1.600000*%
%ADD12R,1.600000X1.600000*%
%ADD13R,1.700000X8.000000*%
%ADD14R,1.700000X7.500000*%
G04 APERTURE END LIST*
D10*
%TO.C,U12*%
X92970000Y-78250000D03*
D11*
X95510000Y-78250000D03*
X98050000Y-78250000D03*
X100590000Y-78250000D03*
X103130000Y-78250000D03*
X105670000Y-78250000D03*
X108210000Y-78250000D03*
X110750000Y-78250000D03*
X113290000Y-78250000D03*
X115830000Y-78250000D03*
X118370000Y-78250000D03*
X120910000Y-78250000D03*
X123450000Y-78250000D03*
X125990000Y-78250000D03*
X128530000Y-78250000D03*
X131070000Y-78250000D03*
X131070000Y-63010000D03*
X128530000Y-63010000D03*
X125990000Y-63010000D03*
X123450000Y-63010000D03*
X120910000Y-63010000D03*
X118370000Y-63010000D03*
X115830000Y-63010000D03*
X113290000Y-63010000D03*
X110750000Y-63010000D03*
X108210000Y-63010000D03*
X105670000Y-63010000D03*
X103130000Y-63010000D03*
X100590000Y-63010000D03*
X98050000Y-63010000D03*
X95510000Y-63010000D03*
X92970000Y-63010000D03*
%TD*%
D10*
%TO.C,U7*%
X165364000Y-97048000D03*
D11*
X167904000Y-97048000D03*
X170444000Y-97048000D03*
X172984000Y-97048000D03*
X175524000Y-97048000D03*
X178064000Y-97048000D03*
X180604000Y-97048000D03*
X180604000Y-89428000D03*
X178064000Y-89428000D03*
X175524000Y-89428000D03*
X172984000Y-89428000D03*
X170444000Y-89428000D03*
X167904000Y-89428000D03*
X165364000Y-89428000D03*
%TD*%
D10*
%TO.C,C4*%
X103000000Y-115705113D03*
D11*
X103000000Y-113205113D03*
%TD*%
%TO.C,C11*%
X161798000Y-89448000D03*
X161798000Y-94448000D03*
%TD*%
D10*
%TO.C,U8*%
X165608000Y-83820000D03*
D11*
X168148000Y-83820000D03*
X170688000Y-83820000D03*
X173228000Y-83820000D03*
X175768000Y-83820000D03*
X178308000Y-83820000D03*
X180848000Y-83820000D03*
X180848000Y-76200000D03*
X178308000Y-76200000D03*
X175768000Y-76200000D03*
X173228000Y-76200000D03*
X170688000Y-76200000D03*
X168148000Y-76200000D03*
X165608000Y-76200000D03*
%TD*%
%TO.C,C8*%
X136144000Y-75732000D03*
X136144000Y-80732000D03*
%TD*%
%TO.C,C6*%
X161798000Y-63032000D03*
X161798000Y-68032000D03*
%TD*%
%TO.C,C13*%
X136393000Y-103114000D03*
X136393000Y-108114000D03*
%TD*%
D12*
%TO.C,RN1*%
X119888000Y-49530000D03*
D11*
X122428000Y-49530000D03*
X124968000Y-49530000D03*
X127508000Y-49530000D03*
X130048000Y-49530000D03*
%TD*%
%TO.C,C1*%
X161798000Y-50292000D03*
X161798000Y-55292000D03*
%TD*%
%TO.C,C9*%
X136134000Y-89398000D03*
X136134000Y-94398000D03*
%TD*%
D10*
%TO.C,U4*%
X139954000Y-70358000D03*
D11*
X142494000Y-70358000D03*
X145034000Y-70358000D03*
X147574000Y-70358000D03*
X150114000Y-70358000D03*
X152654000Y-70358000D03*
X155194000Y-70358000D03*
X157734000Y-70358000D03*
X157734000Y-62738000D03*
X155194000Y-62738000D03*
X152654000Y-62738000D03*
X150114000Y-62738000D03*
X147574000Y-62738000D03*
X145034000Y-62738000D03*
X142494000Y-62738000D03*
X139954000Y-62738000D03*
%TD*%
%TO.C,C2*%
X89154000Y-63072000D03*
X89154000Y-68072000D03*
%TD*%
%TO.C,C12*%
X162306000Y-76250000D03*
X162306000Y-81250000D03*
%TD*%
D10*
%TO.C,U2*%
X92900000Y-100740000D03*
D11*
X95440000Y-100740000D03*
X97980000Y-100740000D03*
X100520000Y-100740000D03*
X103060000Y-100740000D03*
X105600000Y-100740000D03*
X108140000Y-100740000D03*
X110680000Y-100740000D03*
X113220000Y-100740000D03*
X115760000Y-100740000D03*
X118300000Y-100740000D03*
X120840000Y-100740000D03*
X123380000Y-100740000D03*
X125920000Y-100740000D03*
X128460000Y-100740000D03*
X131000000Y-100740000D03*
X131000000Y-85500000D03*
X128460000Y-85500000D03*
X125920000Y-85500000D03*
X123380000Y-85500000D03*
X120840000Y-85500000D03*
X118300000Y-85500000D03*
X115760000Y-85500000D03*
X113220000Y-85500000D03*
X110680000Y-85500000D03*
X108140000Y-85500000D03*
X105600000Y-85500000D03*
X103060000Y-85500000D03*
X100520000Y-85500000D03*
X97980000Y-85500000D03*
X95440000Y-85500000D03*
X92900000Y-85500000D03*
%TD*%
D10*
%TO.C,U3*%
X139934000Y-57912000D03*
D11*
X142474000Y-57912000D03*
X145014000Y-57912000D03*
X147554000Y-57912000D03*
X150094000Y-57912000D03*
X152634000Y-57912000D03*
X155174000Y-57912000D03*
X157714000Y-57912000D03*
X157714000Y-50292000D03*
X155174000Y-50292000D03*
X152634000Y-50292000D03*
X150094000Y-50292000D03*
X147554000Y-50292000D03*
X145014000Y-50292000D03*
X142474000Y-50292000D03*
X139934000Y-50292000D03*
%TD*%
D13*
%TO.C,CE1*%
X172141840Y-126481440D03*
X169601840Y-126481440D03*
X167061840Y-126481440D03*
X164521840Y-126481440D03*
X161981840Y-126481440D03*
X159441840Y-126481440D03*
X156901840Y-126481440D03*
X154361840Y-126481440D03*
X151821840Y-126481440D03*
X149281840Y-126481440D03*
X146741840Y-126481440D03*
X144201840Y-126481440D03*
X141661840Y-126481440D03*
X139121840Y-126481440D03*
X136581840Y-126481440D03*
X134041840Y-126481440D03*
X131501840Y-126481440D03*
X128961840Y-126481440D03*
X126421840Y-126481440D03*
X123881840Y-126481440D03*
X121341840Y-126481440D03*
D14*
X118802000Y-126232000D03*
D13*
X116261840Y-126481440D03*
X113721840Y-126481440D03*
X111181840Y-126481440D03*
%TD*%
D10*
%TO.C,U5*%
X165608000Y-70612000D03*
D11*
X168148000Y-70612000D03*
X170688000Y-70612000D03*
X173228000Y-70612000D03*
X175768000Y-70612000D03*
X178308000Y-70612000D03*
X180848000Y-70612000D03*
X183388000Y-70612000D03*
X183388000Y-62992000D03*
X180848000Y-62992000D03*
X178308000Y-62992000D03*
X175768000Y-62992000D03*
X173228000Y-62992000D03*
X170688000Y-62992000D03*
X168148000Y-62992000D03*
X165608000Y-62992000D03*
%TD*%
D10*
%TO.C,U11*%
X139954000Y-83556000D03*
D11*
X142494000Y-83556000D03*
X145034000Y-83556000D03*
X147574000Y-83556000D03*
X150114000Y-83556000D03*
X152654000Y-83556000D03*
X155194000Y-83556000D03*
X157734000Y-83556000D03*
X157734000Y-75936000D03*
X155194000Y-75936000D03*
X152654000Y-75936000D03*
X150114000Y-75936000D03*
X147574000Y-75936000D03*
X145034000Y-75936000D03*
X142494000Y-75936000D03*
X139954000Y-75936000D03*
%TD*%
D10*
%TO.C,U10*%
X140203000Y-97272000D03*
D11*
X142743000Y-97272000D03*
X145283000Y-97272000D03*
X147823000Y-97272000D03*
X150363000Y-97272000D03*
X152903000Y-97272000D03*
X155443000Y-97272000D03*
X155443000Y-89652000D03*
X152903000Y-89652000D03*
X150363000Y-89652000D03*
X147823000Y-89652000D03*
X145283000Y-89652000D03*
X142743000Y-89652000D03*
X140203000Y-89652000D03*
%TD*%
%TO.C,C3*%
X136134000Y-50292000D03*
X136134000Y-55292000D03*
%TD*%
D12*
%TO.C,RN2*%
X119888000Y-54864000D03*
D11*
X122428000Y-54864000D03*
X124968000Y-54864000D03*
X127508000Y-54864000D03*
X130048000Y-54864000D03*
%TD*%
%TO.C,C7*%
X89154000Y-85638000D03*
X89154000Y-90638000D03*
%TD*%
D10*
%TO.C,U6*%
X140203000Y-110480000D03*
D11*
X142743000Y-110480000D03*
X145283000Y-110480000D03*
X147823000Y-110480000D03*
X150363000Y-110480000D03*
X152903000Y-110480000D03*
X155443000Y-110480000D03*
X155443000Y-102860000D03*
X152903000Y-102860000D03*
X150363000Y-102860000D03*
X147823000Y-102860000D03*
X145283000Y-102860000D03*
X142743000Y-102860000D03*
X140203000Y-102860000D03*
%TD*%
D10*
%TO.C,U9*%
X165354000Y-110490000D03*
D11*
X167894000Y-110490000D03*
X170434000Y-110490000D03*
X172974000Y-110490000D03*
X175514000Y-110490000D03*
X178054000Y-110490000D03*
X180594000Y-110490000D03*
X180594000Y-102870000D03*
X178054000Y-102870000D03*
X175514000Y-102870000D03*
X172974000Y-102870000D03*
X170434000Y-102870000D03*
X167894000Y-102870000D03*
X165354000Y-102870000D03*
%TD*%
%TO.C,C5*%
X136144000Y-62484000D03*
X136144000Y-67484000D03*
%TD*%
%TO.C,C10*%
X161554000Y-102676000D03*
X161554000Y-107676000D03*
%TD*%
D10*
%TO.C,U1*%
X165090000Y-57902000D03*
D11*
X167630000Y-57902000D03*
X170170000Y-57902000D03*
X172710000Y-57902000D03*
X175250000Y-57902000D03*
X177790000Y-57902000D03*
X180330000Y-57902000D03*
X182870000Y-57902000D03*
X182870000Y-50282000D03*
X180330000Y-50282000D03*
X177790000Y-50282000D03*
X175250000Y-50282000D03*
X172710000Y-50282000D03*
X170170000Y-50282000D03*
X167630000Y-50282000D03*
X165090000Y-50282000D03*
%TD*%
M02*
