%TF.GenerationSoftware,KiCad,Pcbnew,10.0.4*%
%TF.CreationDate,2026-07-26T00:03:41+09:00*%
%TF.ProjectId,project_mega_ram,70726f6a-6563-4745-9f6d-6567615f7261,1.0*%
%TF.SameCoordinates,Original*%
%TF.FileFunction,AssemblyDrawing,Top*%
%FSLAX46Y46*%
G04 Gerber Fmt 4.6, Leading zero omitted, Abs format (unit mm)*
G04 Created by KiCad (PCBNEW 10.0.4) date 2026-07-26 00:03:41*
%MOMM*%
%LPD*%
G01*
G04 APERTURE LIST*
%ADD10C,0.150000*%
%ADD11C,0.100000*%
%ADD12C,0.010000*%
G04 APERTURE END LIST*
D10*
X111474819Y-71868094D02*
X112284342Y-71868094D01*
X112284342Y-71868094D02*
X112379580Y-71820475D01*
X112379580Y-71820475D02*
X112427200Y-71772856D01*
X112427200Y-71772856D02*
X112474819Y-71677618D01*
X112474819Y-71677618D02*
X112474819Y-71487142D01*
X112474819Y-71487142D02*
X112427200Y-71391904D01*
X112427200Y-71391904D02*
X112379580Y-71344285D01*
X112379580Y-71344285D02*
X112284342Y-71296666D01*
X112284342Y-71296666D02*
X111474819Y-71296666D01*
X112474819Y-70296666D02*
X112474819Y-70868094D01*
X112474819Y-70582380D02*
X111474819Y-70582380D01*
X111474819Y-70582380D02*
X111617676Y-70677618D01*
X111617676Y-70677618D02*
X111712914Y-70772856D01*
X111712914Y-70772856D02*
X111760533Y-70868094D01*
X111570057Y-69915713D02*
X111522438Y-69868094D01*
X111522438Y-69868094D02*
X111474819Y-69772856D01*
X111474819Y-69772856D02*
X111474819Y-69534761D01*
X111474819Y-69534761D02*
X111522438Y-69439523D01*
X111522438Y-69439523D02*
X111570057Y-69391904D01*
X111570057Y-69391904D02*
X111665295Y-69344285D01*
X111665295Y-69344285D02*
X111760533Y-69344285D01*
X111760533Y-69344285D02*
X111903390Y-69391904D01*
X111903390Y-69391904D02*
X112474819Y-69963332D01*
X112474819Y-69963332D02*
X112474819Y-69344285D01*
X172438819Y-93999904D02*
X173248342Y-93999904D01*
X173248342Y-93999904D02*
X173343580Y-93952285D01*
X173343580Y-93952285D02*
X173391200Y-93904666D01*
X173391200Y-93904666D02*
X173438819Y-93809428D01*
X173438819Y-93809428D02*
X173438819Y-93618952D01*
X173438819Y-93618952D02*
X173391200Y-93523714D01*
X173391200Y-93523714D02*
X173343580Y-93476095D01*
X173343580Y-93476095D02*
X173248342Y-93428476D01*
X173248342Y-93428476D02*
X172438819Y-93428476D01*
X172438819Y-93047523D02*
X172438819Y-92380857D01*
X172438819Y-92380857D02*
X173438819Y-92809428D01*
X103359580Y-114621779D02*
X103407200Y-114669398D01*
X103407200Y-114669398D02*
X103454819Y-114812255D01*
X103454819Y-114812255D02*
X103454819Y-114907493D01*
X103454819Y-114907493D02*
X103407200Y-115050350D01*
X103407200Y-115050350D02*
X103311961Y-115145588D01*
X103311961Y-115145588D02*
X103216723Y-115193207D01*
X103216723Y-115193207D02*
X103026247Y-115240826D01*
X103026247Y-115240826D02*
X102883390Y-115240826D01*
X102883390Y-115240826D02*
X102692914Y-115193207D01*
X102692914Y-115193207D02*
X102597676Y-115145588D01*
X102597676Y-115145588D02*
X102502438Y-115050350D01*
X102502438Y-115050350D02*
X102454819Y-114907493D01*
X102454819Y-114907493D02*
X102454819Y-114812255D01*
X102454819Y-114812255D02*
X102502438Y-114669398D01*
X102502438Y-114669398D02*
X102550057Y-114621779D01*
X102788152Y-113764636D02*
X103454819Y-113764636D01*
X102407200Y-114002731D02*
X103121485Y-114240826D01*
X103121485Y-114240826D02*
X103121485Y-113621779D01*
X162157580Y-92590857D02*
X162205200Y-92638476D01*
X162205200Y-92638476D02*
X162252819Y-92781333D01*
X162252819Y-92781333D02*
X162252819Y-92876571D01*
X162252819Y-92876571D02*
X162205200Y-93019428D01*
X162205200Y-93019428D02*
X162109961Y-93114666D01*
X162109961Y-93114666D02*
X162014723Y-93162285D01*
X162014723Y-93162285D02*
X161824247Y-93209904D01*
X161824247Y-93209904D02*
X161681390Y-93209904D01*
X161681390Y-93209904D02*
X161490914Y-93162285D01*
X161490914Y-93162285D02*
X161395676Y-93114666D01*
X161395676Y-93114666D02*
X161300438Y-93019428D01*
X161300438Y-93019428D02*
X161252819Y-92876571D01*
X161252819Y-92876571D02*
X161252819Y-92781333D01*
X161252819Y-92781333D02*
X161300438Y-92638476D01*
X161300438Y-92638476D02*
X161348057Y-92590857D01*
X162252819Y-91638476D02*
X162252819Y-92209904D01*
X162252819Y-91924190D02*
X161252819Y-91924190D01*
X161252819Y-91924190D02*
X161395676Y-92019428D01*
X161395676Y-92019428D02*
X161490914Y-92114666D01*
X161490914Y-92114666D02*
X161538533Y-92209904D01*
X162252819Y-90686095D02*
X162252819Y-91257523D01*
X162252819Y-90971809D02*
X161252819Y-90971809D01*
X161252819Y-90971809D02*
X161395676Y-91067047D01*
X161395676Y-91067047D02*
X161490914Y-91162285D01*
X161490914Y-91162285D02*
X161538533Y-91257523D01*
X171722819Y-81389904D02*
X172532342Y-81389904D01*
X172532342Y-81389904D02*
X172627580Y-81342285D01*
X172627580Y-81342285D02*
X172675200Y-81294666D01*
X172675200Y-81294666D02*
X172722819Y-81199428D01*
X172722819Y-81199428D02*
X172722819Y-81008952D01*
X172722819Y-81008952D02*
X172675200Y-80913714D01*
X172675200Y-80913714D02*
X172627580Y-80866095D01*
X172627580Y-80866095D02*
X172532342Y-80818476D01*
X172532342Y-80818476D02*
X171722819Y-80818476D01*
X172151390Y-80199428D02*
X172103771Y-80294666D01*
X172103771Y-80294666D02*
X172056152Y-80342285D01*
X172056152Y-80342285D02*
X171960914Y-80389904D01*
X171960914Y-80389904D02*
X171913295Y-80389904D01*
X171913295Y-80389904D02*
X171818057Y-80342285D01*
X171818057Y-80342285D02*
X171770438Y-80294666D01*
X171770438Y-80294666D02*
X171722819Y-80199428D01*
X171722819Y-80199428D02*
X171722819Y-80008952D01*
X171722819Y-80008952D02*
X171770438Y-79913714D01*
X171770438Y-79913714D02*
X171818057Y-79866095D01*
X171818057Y-79866095D02*
X171913295Y-79818476D01*
X171913295Y-79818476D02*
X171960914Y-79818476D01*
X171960914Y-79818476D02*
X172056152Y-79866095D01*
X172056152Y-79866095D02*
X172103771Y-79913714D01*
X172103771Y-79913714D02*
X172151390Y-80008952D01*
X172151390Y-80008952D02*
X172151390Y-80199428D01*
X172151390Y-80199428D02*
X172199009Y-80294666D01*
X172199009Y-80294666D02*
X172246628Y-80342285D01*
X172246628Y-80342285D02*
X172341866Y-80389904D01*
X172341866Y-80389904D02*
X172532342Y-80389904D01*
X172532342Y-80389904D02*
X172627580Y-80342285D01*
X172627580Y-80342285D02*
X172675200Y-80294666D01*
X172675200Y-80294666D02*
X172722819Y-80199428D01*
X172722819Y-80199428D02*
X172722819Y-80008952D01*
X172722819Y-80008952D02*
X172675200Y-79913714D01*
X172675200Y-79913714D02*
X172627580Y-79866095D01*
X172627580Y-79866095D02*
X172532342Y-79818476D01*
X172532342Y-79818476D02*
X172341866Y-79818476D01*
X172341866Y-79818476D02*
X172246628Y-79866095D01*
X172246628Y-79866095D02*
X172199009Y-79913714D01*
X172199009Y-79913714D02*
X172151390Y-80008952D01*
X136503580Y-78388666D02*
X136551200Y-78436285D01*
X136551200Y-78436285D02*
X136598819Y-78579142D01*
X136598819Y-78579142D02*
X136598819Y-78674380D01*
X136598819Y-78674380D02*
X136551200Y-78817237D01*
X136551200Y-78817237D02*
X136455961Y-78912475D01*
X136455961Y-78912475D02*
X136360723Y-78960094D01*
X136360723Y-78960094D02*
X136170247Y-79007713D01*
X136170247Y-79007713D02*
X136027390Y-79007713D01*
X136027390Y-79007713D02*
X135836914Y-78960094D01*
X135836914Y-78960094D02*
X135741676Y-78912475D01*
X135741676Y-78912475D02*
X135646438Y-78817237D01*
X135646438Y-78817237D02*
X135598819Y-78674380D01*
X135598819Y-78674380D02*
X135598819Y-78579142D01*
X135598819Y-78579142D02*
X135646438Y-78436285D01*
X135646438Y-78436285D02*
X135694057Y-78388666D01*
X136027390Y-77817237D02*
X135979771Y-77912475D01*
X135979771Y-77912475D02*
X135932152Y-77960094D01*
X135932152Y-77960094D02*
X135836914Y-78007713D01*
X135836914Y-78007713D02*
X135789295Y-78007713D01*
X135789295Y-78007713D02*
X135694057Y-77960094D01*
X135694057Y-77960094D02*
X135646438Y-77912475D01*
X135646438Y-77912475D02*
X135598819Y-77817237D01*
X135598819Y-77817237D02*
X135598819Y-77626761D01*
X135598819Y-77626761D02*
X135646438Y-77531523D01*
X135646438Y-77531523D02*
X135694057Y-77483904D01*
X135694057Y-77483904D02*
X135789295Y-77436285D01*
X135789295Y-77436285D02*
X135836914Y-77436285D01*
X135836914Y-77436285D02*
X135932152Y-77483904D01*
X135932152Y-77483904D02*
X135979771Y-77531523D01*
X135979771Y-77531523D02*
X136027390Y-77626761D01*
X136027390Y-77626761D02*
X136027390Y-77817237D01*
X136027390Y-77817237D02*
X136075009Y-77912475D01*
X136075009Y-77912475D02*
X136122628Y-77960094D01*
X136122628Y-77960094D02*
X136217866Y-78007713D01*
X136217866Y-78007713D02*
X136408342Y-78007713D01*
X136408342Y-78007713D02*
X136503580Y-77960094D01*
X136503580Y-77960094D02*
X136551200Y-77912475D01*
X136551200Y-77912475D02*
X136598819Y-77817237D01*
X136598819Y-77817237D02*
X136598819Y-77626761D01*
X136598819Y-77626761D02*
X136551200Y-77531523D01*
X136551200Y-77531523D02*
X136503580Y-77483904D01*
X136503580Y-77483904D02*
X136408342Y-77436285D01*
X136408342Y-77436285D02*
X136217866Y-77436285D01*
X136217866Y-77436285D02*
X136122628Y-77483904D01*
X136122628Y-77483904D02*
X136075009Y-77531523D01*
X136075009Y-77531523D02*
X136027390Y-77626761D01*
X162157580Y-65698666D02*
X162205200Y-65746285D01*
X162205200Y-65746285D02*
X162252819Y-65889142D01*
X162252819Y-65889142D02*
X162252819Y-65984380D01*
X162252819Y-65984380D02*
X162205200Y-66127237D01*
X162205200Y-66127237D02*
X162109961Y-66222475D01*
X162109961Y-66222475D02*
X162014723Y-66270094D01*
X162014723Y-66270094D02*
X161824247Y-66317713D01*
X161824247Y-66317713D02*
X161681390Y-66317713D01*
X161681390Y-66317713D02*
X161490914Y-66270094D01*
X161490914Y-66270094D02*
X161395676Y-66222475D01*
X161395676Y-66222475D02*
X161300438Y-66127237D01*
X161300438Y-66127237D02*
X161252819Y-65984380D01*
X161252819Y-65984380D02*
X161252819Y-65889142D01*
X161252819Y-65889142D02*
X161300438Y-65746285D01*
X161300438Y-65746285D02*
X161348057Y-65698666D01*
X161252819Y-64841523D02*
X161252819Y-65031999D01*
X161252819Y-65031999D02*
X161300438Y-65127237D01*
X161300438Y-65127237D02*
X161348057Y-65174856D01*
X161348057Y-65174856D02*
X161490914Y-65270094D01*
X161490914Y-65270094D02*
X161681390Y-65317713D01*
X161681390Y-65317713D02*
X162062342Y-65317713D01*
X162062342Y-65317713D02*
X162157580Y-65270094D01*
X162157580Y-65270094D02*
X162205200Y-65222475D01*
X162205200Y-65222475D02*
X162252819Y-65127237D01*
X162252819Y-65127237D02*
X162252819Y-64936761D01*
X162252819Y-64936761D02*
X162205200Y-64841523D01*
X162205200Y-64841523D02*
X162157580Y-64793904D01*
X162157580Y-64793904D02*
X162062342Y-64746285D01*
X162062342Y-64746285D02*
X161824247Y-64746285D01*
X161824247Y-64746285D02*
X161729009Y-64793904D01*
X161729009Y-64793904D02*
X161681390Y-64841523D01*
X161681390Y-64841523D02*
X161633771Y-64936761D01*
X161633771Y-64936761D02*
X161633771Y-65127237D01*
X161633771Y-65127237D02*
X161681390Y-65222475D01*
X161681390Y-65222475D02*
X161729009Y-65270094D01*
X161729009Y-65270094D02*
X161824247Y-65317713D01*
X136752580Y-106256857D02*
X136800200Y-106304476D01*
X136800200Y-106304476D02*
X136847819Y-106447333D01*
X136847819Y-106447333D02*
X136847819Y-106542571D01*
X136847819Y-106542571D02*
X136800200Y-106685428D01*
X136800200Y-106685428D02*
X136704961Y-106780666D01*
X136704961Y-106780666D02*
X136609723Y-106828285D01*
X136609723Y-106828285D02*
X136419247Y-106875904D01*
X136419247Y-106875904D02*
X136276390Y-106875904D01*
X136276390Y-106875904D02*
X136085914Y-106828285D01*
X136085914Y-106828285D02*
X135990676Y-106780666D01*
X135990676Y-106780666D02*
X135895438Y-106685428D01*
X135895438Y-106685428D02*
X135847819Y-106542571D01*
X135847819Y-106542571D02*
X135847819Y-106447333D01*
X135847819Y-106447333D02*
X135895438Y-106304476D01*
X135895438Y-106304476D02*
X135943057Y-106256857D01*
X136847819Y-105304476D02*
X136847819Y-105875904D01*
X136847819Y-105590190D02*
X135847819Y-105590190D01*
X135847819Y-105590190D02*
X135990676Y-105685428D01*
X135990676Y-105685428D02*
X136085914Y-105780666D01*
X136085914Y-105780666D02*
X136133533Y-105875904D01*
X135847819Y-104971142D02*
X135847819Y-104352095D01*
X135847819Y-104352095D02*
X136228771Y-104685428D01*
X136228771Y-104685428D02*
X136228771Y-104542571D01*
X136228771Y-104542571D02*
X136276390Y-104447333D01*
X136276390Y-104447333D02*
X136324009Y-104399714D01*
X136324009Y-104399714D02*
X136419247Y-104352095D01*
X136419247Y-104352095D02*
X136657342Y-104352095D01*
X136657342Y-104352095D02*
X136752580Y-104399714D01*
X136752580Y-104399714D02*
X136800200Y-104447333D01*
X136800200Y-104447333D02*
X136847819Y-104542571D01*
X136847819Y-104542571D02*
X136847819Y-104828285D01*
X136847819Y-104828285D02*
X136800200Y-104923523D01*
X136800200Y-104923523D02*
X136752580Y-104971142D01*
X124277523Y-49984819D02*
X123944190Y-49508628D01*
X123706095Y-49984819D02*
X123706095Y-48984819D01*
X123706095Y-48984819D02*
X124087047Y-48984819D01*
X124087047Y-48984819D02*
X124182285Y-49032438D01*
X124182285Y-49032438D02*
X124229904Y-49080057D01*
X124229904Y-49080057D02*
X124277523Y-49175295D01*
X124277523Y-49175295D02*
X124277523Y-49318152D01*
X124277523Y-49318152D02*
X124229904Y-49413390D01*
X124229904Y-49413390D02*
X124182285Y-49461009D01*
X124182285Y-49461009D02*
X124087047Y-49508628D01*
X124087047Y-49508628D02*
X123706095Y-49508628D01*
X124706095Y-49984819D02*
X124706095Y-48984819D01*
X124706095Y-48984819D02*
X125277523Y-49984819D01*
X125277523Y-49984819D02*
X125277523Y-48984819D01*
X126277523Y-49984819D02*
X125706095Y-49984819D01*
X125991809Y-49984819D02*
X125991809Y-48984819D01*
X125991809Y-48984819D02*
X125896571Y-49127676D01*
X125896571Y-49127676D02*
X125801333Y-49222914D01*
X125801333Y-49222914D02*
X125706095Y-49270533D01*
X162157580Y-52958666D02*
X162205200Y-53006285D01*
X162205200Y-53006285D02*
X162252819Y-53149142D01*
X162252819Y-53149142D02*
X162252819Y-53244380D01*
X162252819Y-53244380D02*
X162205200Y-53387237D01*
X162205200Y-53387237D02*
X162109961Y-53482475D01*
X162109961Y-53482475D02*
X162014723Y-53530094D01*
X162014723Y-53530094D02*
X161824247Y-53577713D01*
X161824247Y-53577713D02*
X161681390Y-53577713D01*
X161681390Y-53577713D02*
X161490914Y-53530094D01*
X161490914Y-53530094D02*
X161395676Y-53482475D01*
X161395676Y-53482475D02*
X161300438Y-53387237D01*
X161300438Y-53387237D02*
X161252819Y-53244380D01*
X161252819Y-53244380D02*
X161252819Y-53149142D01*
X161252819Y-53149142D02*
X161300438Y-53006285D01*
X161300438Y-53006285D02*
X161348057Y-52958666D01*
X162252819Y-52006285D02*
X162252819Y-52577713D01*
X162252819Y-52291999D02*
X161252819Y-52291999D01*
X161252819Y-52291999D02*
X161395676Y-52387237D01*
X161395676Y-52387237D02*
X161490914Y-52482475D01*
X161490914Y-52482475D02*
X161538533Y-52577713D01*
X136493580Y-92064666D02*
X136541200Y-92112285D01*
X136541200Y-92112285D02*
X136588819Y-92255142D01*
X136588819Y-92255142D02*
X136588819Y-92350380D01*
X136588819Y-92350380D02*
X136541200Y-92493237D01*
X136541200Y-92493237D02*
X136445961Y-92588475D01*
X136445961Y-92588475D02*
X136350723Y-92636094D01*
X136350723Y-92636094D02*
X136160247Y-92683713D01*
X136160247Y-92683713D02*
X136017390Y-92683713D01*
X136017390Y-92683713D02*
X135826914Y-92636094D01*
X135826914Y-92636094D02*
X135731676Y-92588475D01*
X135731676Y-92588475D02*
X135636438Y-92493237D01*
X135636438Y-92493237D02*
X135588819Y-92350380D01*
X135588819Y-92350380D02*
X135588819Y-92255142D01*
X135588819Y-92255142D02*
X135636438Y-92112285D01*
X135636438Y-92112285D02*
X135684057Y-92064666D01*
X136588819Y-91588475D02*
X136588819Y-91397999D01*
X136588819Y-91397999D02*
X136541200Y-91302761D01*
X136541200Y-91302761D02*
X136493580Y-91255142D01*
X136493580Y-91255142D02*
X136350723Y-91159904D01*
X136350723Y-91159904D02*
X136160247Y-91112285D01*
X136160247Y-91112285D02*
X135779295Y-91112285D01*
X135779295Y-91112285D02*
X135684057Y-91159904D01*
X135684057Y-91159904D02*
X135636438Y-91207523D01*
X135636438Y-91207523D02*
X135588819Y-91302761D01*
X135588819Y-91302761D02*
X135588819Y-91493237D01*
X135588819Y-91493237D02*
X135636438Y-91588475D01*
X135636438Y-91588475D02*
X135684057Y-91636094D01*
X135684057Y-91636094D02*
X135779295Y-91683713D01*
X135779295Y-91683713D02*
X136017390Y-91683713D01*
X136017390Y-91683713D02*
X136112628Y-91636094D01*
X136112628Y-91636094D02*
X136160247Y-91588475D01*
X136160247Y-91588475D02*
X136207866Y-91493237D01*
X136207866Y-91493237D02*
X136207866Y-91302761D01*
X136207866Y-91302761D02*
X136160247Y-91207523D01*
X136160247Y-91207523D02*
X136112628Y-91159904D01*
X136112628Y-91159904D02*
X136017390Y-91112285D01*
X148298819Y-67309904D02*
X149108342Y-67309904D01*
X149108342Y-67309904D02*
X149203580Y-67262285D01*
X149203580Y-67262285D02*
X149251200Y-67214666D01*
X149251200Y-67214666D02*
X149298819Y-67119428D01*
X149298819Y-67119428D02*
X149298819Y-66928952D01*
X149298819Y-66928952D02*
X149251200Y-66833714D01*
X149251200Y-66833714D02*
X149203580Y-66786095D01*
X149203580Y-66786095D02*
X149108342Y-66738476D01*
X149108342Y-66738476D02*
X148298819Y-66738476D01*
X148632152Y-65833714D02*
X149298819Y-65833714D01*
X148251200Y-66071809D02*
X148965485Y-66309904D01*
X148965485Y-66309904D02*
X148965485Y-65690857D01*
X88987333Y-61573580D02*
X88939714Y-61621200D01*
X88939714Y-61621200D02*
X88796857Y-61668819D01*
X88796857Y-61668819D02*
X88701619Y-61668819D01*
X88701619Y-61668819D02*
X88558762Y-61621200D01*
X88558762Y-61621200D02*
X88463524Y-61525961D01*
X88463524Y-61525961D02*
X88415905Y-61430723D01*
X88415905Y-61430723D02*
X88368286Y-61240247D01*
X88368286Y-61240247D02*
X88368286Y-61097390D01*
X88368286Y-61097390D02*
X88415905Y-60906914D01*
X88415905Y-60906914D02*
X88463524Y-60811676D01*
X88463524Y-60811676D02*
X88558762Y-60716438D01*
X88558762Y-60716438D02*
X88701619Y-60668819D01*
X88701619Y-60668819D02*
X88796857Y-60668819D01*
X88796857Y-60668819D02*
X88939714Y-60716438D01*
X88939714Y-60716438D02*
X88987333Y-60764057D01*
X89368286Y-60764057D02*
X89415905Y-60716438D01*
X89415905Y-60716438D02*
X89511143Y-60668819D01*
X89511143Y-60668819D02*
X89749238Y-60668819D01*
X89749238Y-60668819D02*
X89844476Y-60716438D01*
X89844476Y-60716438D02*
X89892095Y-60764057D01*
X89892095Y-60764057D02*
X89939714Y-60859295D01*
X89939714Y-60859295D02*
X89939714Y-60954533D01*
X89939714Y-60954533D02*
X89892095Y-61097390D01*
X89892095Y-61097390D02*
X89320667Y-61668819D01*
X89320667Y-61668819D02*
X89939714Y-61668819D01*
X162665580Y-79392857D02*
X162713200Y-79440476D01*
X162713200Y-79440476D02*
X162760819Y-79583333D01*
X162760819Y-79583333D02*
X162760819Y-79678571D01*
X162760819Y-79678571D02*
X162713200Y-79821428D01*
X162713200Y-79821428D02*
X162617961Y-79916666D01*
X162617961Y-79916666D02*
X162522723Y-79964285D01*
X162522723Y-79964285D02*
X162332247Y-80011904D01*
X162332247Y-80011904D02*
X162189390Y-80011904D01*
X162189390Y-80011904D02*
X161998914Y-79964285D01*
X161998914Y-79964285D02*
X161903676Y-79916666D01*
X161903676Y-79916666D02*
X161808438Y-79821428D01*
X161808438Y-79821428D02*
X161760819Y-79678571D01*
X161760819Y-79678571D02*
X161760819Y-79583333D01*
X161760819Y-79583333D02*
X161808438Y-79440476D01*
X161808438Y-79440476D02*
X161856057Y-79392857D01*
X162760819Y-78440476D02*
X162760819Y-79011904D01*
X162760819Y-78726190D02*
X161760819Y-78726190D01*
X161760819Y-78726190D02*
X161903676Y-78821428D01*
X161903676Y-78821428D02*
X161998914Y-78916666D01*
X161998914Y-78916666D02*
X162046533Y-79011904D01*
X161856057Y-78059523D02*
X161808438Y-78011904D01*
X161808438Y-78011904D02*
X161760819Y-77916666D01*
X161760819Y-77916666D02*
X161760819Y-77678571D01*
X161760819Y-77678571D02*
X161808438Y-77583333D01*
X161808438Y-77583333D02*
X161856057Y-77535714D01*
X161856057Y-77535714D02*
X161951295Y-77488095D01*
X161951295Y-77488095D02*
X162046533Y-77488095D01*
X162046533Y-77488095D02*
X162189390Y-77535714D01*
X162189390Y-77535714D02*
X162760819Y-78107142D01*
X162760819Y-78107142D02*
X162760819Y-77488095D01*
X111404819Y-93881904D02*
X112214342Y-93881904D01*
X112214342Y-93881904D02*
X112309580Y-93834285D01*
X112309580Y-93834285D02*
X112357200Y-93786666D01*
X112357200Y-93786666D02*
X112404819Y-93691428D01*
X112404819Y-93691428D02*
X112404819Y-93500952D01*
X112404819Y-93500952D02*
X112357200Y-93405714D01*
X112357200Y-93405714D02*
X112309580Y-93358095D01*
X112309580Y-93358095D02*
X112214342Y-93310476D01*
X112214342Y-93310476D02*
X111404819Y-93310476D01*
X111500057Y-92881904D02*
X111452438Y-92834285D01*
X111452438Y-92834285D02*
X111404819Y-92739047D01*
X111404819Y-92739047D02*
X111404819Y-92500952D01*
X111404819Y-92500952D02*
X111452438Y-92405714D01*
X111452438Y-92405714D02*
X111500057Y-92358095D01*
X111500057Y-92358095D02*
X111595295Y-92310476D01*
X111595295Y-92310476D02*
X111690533Y-92310476D01*
X111690533Y-92310476D02*
X111833390Y-92358095D01*
X111833390Y-92358095D02*
X112404819Y-92929523D01*
X112404819Y-92929523D02*
X112404819Y-92310476D01*
X148278819Y-54863904D02*
X149088342Y-54863904D01*
X149088342Y-54863904D02*
X149183580Y-54816285D01*
X149183580Y-54816285D02*
X149231200Y-54768666D01*
X149231200Y-54768666D02*
X149278819Y-54673428D01*
X149278819Y-54673428D02*
X149278819Y-54482952D01*
X149278819Y-54482952D02*
X149231200Y-54387714D01*
X149231200Y-54387714D02*
X149183580Y-54340095D01*
X149183580Y-54340095D02*
X149088342Y-54292476D01*
X149088342Y-54292476D02*
X148278819Y-54292476D01*
X148278819Y-53911523D02*
X148278819Y-53292476D01*
X148278819Y-53292476D02*
X148659771Y-53625809D01*
X148659771Y-53625809D02*
X148659771Y-53482952D01*
X148659771Y-53482952D02*
X148707390Y-53387714D01*
X148707390Y-53387714D02*
X148755009Y-53340095D01*
X148755009Y-53340095D02*
X148850247Y-53292476D01*
X148850247Y-53292476D02*
X149088342Y-53292476D01*
X149088342Y-53292476D02*
X149183580Y-53340095D01*
X149183580Y-53340095D02*
X149231200Y-53387714D01*
X149231200Y-53387714D02*
X149278819Y-53482952D01*
X149278819Y-53482952D02*
X149278819Y-53768666D01*
X149278819Y-53768666D02*
X149231200Y-53863904D01*
X149231200Y-53863904D02*
X149183580Y-53911523D01*
X132134379Y-133101200D02*
X132039141Y-133148819D01*
X132039141Y-133148819D02*
X131848665Y-133148819D01*
X131848665Y-133148819D02*
X131753427Y-133101200D01*
X131753427Y-133101200D02*
X131705808Y-133053580D01*
X131705808Y-133053580D02*
X131658189Y-132958342D01*
X131658189Y-132958342D02*
X131658189Y-132672628D01*
X131658189Y-132672628D02*
X131705808Y-132577390D01*
X131705808Y-132577390D02*
X131753427Y-132529771D01*
X131753427Y-132529771D02*
X131848665Y-132482152D01*
X131848665Y-132482152D02*
X132039141Y-132482152D01*
X132039141Y-132482152D02*
X132134379Y-132529771D01*
X132991522Y-133148819D02*
X132991522Y-132625009D01*
X132991522Y-132625009D02*
X132943903Y-132529771D01*
X132943903Y-132529771D02*
X132848665Y-132482152D01*
X132848665Y-132482152D02*
X132658189Y-132482152D01*
X132658189Y-132482152D02*
X132562951Y-132529771D01*
X132991522Y-133101200D02*
X132896284Y-133148819D01*
X132896284Y-133148819D02*
X132658189Y-133148819D01*
X132658189Y-133148819D02*
X132562951Y-133101200D01*
X132562951Y-133101200D02*
X132515332Y-133005961D01*
X132515332Y-133005961D02*
X132515332Y-132910723D01*
X132515332Y-132910723D02*
X132562951Y-132815485D01*
X132562951Y-132815485D02*
X132658189Y-132767866D01*
X132658189Y-132767866D02*
X132896284Y-132767866D01*
X132896284Y-132767866D02*
X132991522Y-132720247D01*
X133467713Y-133148819D02*
X133467713Y-132482152D01*
X133467713Y-132672628D02*
X133515332Y-132577390D01*
X133515332Y-132577390D02*
X133562951Y-132529771D01*
X133562951Y-132529771D02*
X133658189Y-132482152D01*
X133658189Y-132482152D02*
X133753427Y-132482152D01*
X134515332Y-133148819D02*
X134515332Y-132148819D01*
X134515332Y-133101200D02*
X134420094Y-133148819D01*
X134420094Y-133148819D02*
X134229618Y-133148819D01*
X134229618Y-133148819D02*
X134134380Y-133101200D01*
X134134380Y-133101200D02*
X134086761Y-133053580D01*
X134086761Y-133053580D02*
X134039142Y-132958342D01*
X134039142Y-132958342D02*
X134039142Y-132672628D01*
X134039142Y-132672628D02*
X134086761Y-132577390D01*
X134086761Y-132577390D02*
X134134380Y-132529771D01*
X134134380Y-132529771D02*
X134229618Y-132482152D01*
X134229618Y-132482152D02*
X134420094Y-132482152D01*
X134420094Y-132482152D02*
X134515332Y-132529771D01*
X134753428Y-133244057D02*
X135515332Y-133244057D01*
X136134380Y-133101200D02*
X136039142Y-133148819D01*
X136039142Y-133148819D02*
X135848666Y-133148819D01*
X135848666Y-133148819D02*
X135753428Y-133101200D01*
X135753428Y-133101200D02*
X135705809Y-133005961D01*
X135705809Y-133005961D02*
X135705809Y-132625009D01*
X135705809Y-132625009D02*
X135753428Y-132529771D01*
X135753428Y-132529771D02*
X135848666Y-132482152D01*
X135848666Y-132482152D02*
X136039142Y-132482152D01*
X136039142Y-132482152D02*
X136134380Y-132529771D01*
X136134380Y-132529771D02*
X136181999Y-132625009D01*
X136181999Y-132625009D02*
X136181999Y-132720247D01*
X136181999Y-132720247D02*
X135705809Y-132815485D01*
X137039142Y-133148819D02*
X137039142Y-132148819D01*
X137039142Y-133101200D02*
X136943904Y-133148819D01*
X136943904Y-133148819D02*
X136753428Y-133148819D01*
X136753428Y-133148819D02*
X136658190Y-133101200D01*
X136658190Y-133101200D02*
X136610571Y-133053580D01*
X136610571Y-133053580D02*
X136562952Y-132958342D01*
X136562952Y-132958342D02*
X136562952Y-132672628D01*
X136562952Y-132672628D02*
X136610571Y-132577390D01*
X136610571Y-132577390D02*
X136658190Y-132529771D01*
X136658190Y-132529771D02*
X136753428Y-132482152D01*
X136753428Y-132482152D02*
X136943904Y-132482152D01*
X136943904Y-132482152D02*
X137039142Y-132529771D01*
X137943904Y-132482152D02*
X137943904Y-133291676D01*
X137943904Y-133291676D02*
X137896285Y-133386914D01*
X137896285Y-133386914D02*
X137848666Y-133434533D01*
X137848666Y-133434533D02*
X137753428Y-133482152D01*
X137753428Y-133482152D02*
X137610571Y-133482152D01*
X137610571Y-133482152D02*
X137515333Y-133434533D01*
X137943904Y-133101200D02*
X137848666Y-133148819D01*
X137848666Y-133148819D02*
X137658190Y-133148819D01*
X137658190Y-133148819D02*
X137562952Y-133101200D01*
X137562952Y-133101200D02*
X137515333Y-133053580D01*
X137515333Y-133053580D02*
X137467714Y-132958342D01*
X137467714Y-132958342D02*
X137467714Y-132672628D01*
X137467714Y-132672628D02*
X137515333Y-132577390D01*
X137515333Y-132577390D02*
X137562952Y-132529771D01*
X137562952Y-132529771D02*
X137658190Y-132482152D01*
X137658190Y-132482152D02*
X137848666Y-132482152D01*
X137848666Y-132482152D02*
X137943904Y-132529771D01*
X138801047Y-133101200D02*
X138705809Y-133148819D01*
X138705809Y-133148819D02*
X138515333Y-133148819D01*
X138515333Y-133148819D02*
X138420095Y-133101200D01*
X138420095Y-133101200D02*
X138372476Y-133005961D01*
X138372476Y-133005961D02*
X138372476Y-132625009D01*
X138372476Y-132625009D02*
X138420095Y-132529771D01*
X138420095Y-132529771D02*
X138515333Y-132482152D01*
X138515333Y-132482152D02*
X138705809Y-132482152D01*
X138705809Y-132482152D02*
X138801047Y-132529771D01*
X138801047Y-132529771D02*
X138848666Y-132625009D01*
X138848666Y-132625009D02*
X138848666Y-132720247D01*
X138848666Y-132720247D02*
X138372476Y-132815485D01*
X139039143Y-133244057D02*
X139801047Y-133244057D01*
X140467714Y-133101200D02*
X140372476Y-133148819D01*
X140372476Y-133148819D02*
X140182000Y-133148819D01*
X140182000Y-133148819D02*
X140086762Y-133101200D01*
X140086762Y-133101200D02*
X140039143Y-133053580D01*
X140039143Y-133053580D02*
X139991524Y-132958342D01*
X139991524Y-132958342D02*
X139991524Y-132672628D01*
X139991524Y-132672628D02*
X140039143Y-132577390D01*
X140039143Y-132577390D02*
X140086762Y-132529771D01*
X140086762Y-132529771D02*
X140182000Y-132482152D01*
X140182000Y-132482152D02*
X140372476Y-132482152D01*
X140372476Y-132482152D02*
X140467714Y-132529771D01*
X141039143Y-133148819D02*
X140943905Y-133101200D01*
X140943905Y-133101200D02*
X140896286Y-133053580D01*
X140896286Y-133053580D02*
X140848667Y-132958342D01*
X140848667Y-132958342D02*
X140848667Y-132672628D01*
X140848667Y-132672628D02*
X140896286Y-132577390D01*
X140896286Y-132577390D02*
X140943905Y-132529771D01*
X140943905Y-132529771D02*
X141039143Y-132482152D01*
X141039143Y-132482152D02*
X141182000Y-132482152D01*
X141182000Y-132482152D02*
X141277238Y-132529771D01*
X141277238Y-132529771D02*
X141324857Y-132577390D01*
X141324857Y-132577390D02*
X141372476Y-132672628D01*
X141372476Y-132672628D02*
X141372476Y-132958342D01*
X141372476Y-132958342D02*
X141324857Y-133053580D01*
X141324857Y-133053580D02*
X141277238Y-133101200D01*
X141277238Y-133101200D02*
X141182000Y-133148819D01*
X141182000Y-133148819D02*
X141039143Y-133148819D01*
X141801048Y-132482152D02*
X141801048Y-133148819D01*
X141801048Y-132577390D02*
X141848667Y-132529771D01*
X141848667Y-132529771D02*
X141943905Y-132482152D01*
X141943905Y-132482152D02*
X142086762Y-132482152D01*
X142086762Y-132482152D02*
X142182000Y-132529771D01*
X142182000Y-132529771D02*
X142229619Y-132625009D01*
X142229619Y-132625009D02*
X142229619Y-133148819D01*
X142705810Y-132482152D02*
X142705810Y-133148819D01*
X142705810Y-132577390D02*
X142753429Y-132529771D01*
X142753429Y-132529771D02*
X142848667Y-132482152D01*
X142848667Y-132482152D02*
X142991524Y-132482152D01*
X142991524Y-132482152D02*
X143086762Y-132529771D01*
X143086762Y-132529771D02*
X143134381Y-132625009D01*
X143134381Y-132625009D02*
X143134381Y-133148819D01*
X143991524Y-133101200D02*
X143896286Y-133148819D01*
X143896286Y-133148819D02*
X143705810Y-133148819D01*
X143705810Y-133148819D02*
X143610572Y-133101200D01*
X143610572Y-133101200D02*
X143562953Y-133005961D01*
X143562953Y-133005961D02*
X143562953Y-132625009D01*
X143562953Y-132625009D02*
X143610572Y-132529771D01*
X143610572Y-132529771D02*
X143705810Y-132482152D01*
X143705810Y-132482152D02*
X143896286Y-132482152D01*
X143896286Y-132482152D02*
X143991524Y-132529771D01*
X143991524Y-132529771D02*
X144039143Y-132625009D01*
X144039143Y-132625009D02*
X144039143Y-132720247D01*
X144039143Y-132720247D02*
X143562953Y-132815485D01*
X144896286Y-133101200D02*
X144801048Y-133148819D01*
X144801048Y-133148819D02*
X144610572Y-133148819D01*
X144610572Y-133148819D02*
X144515334Y-133101200D01*
X144515334Y-133101200D02*
X144467715Y-133053580D01*
X144467715Y-133053580D02*
X144420096Y-132958342D01*
X144420096Y-132958342D02*
X144420096Y-132672628D01*
X144420096Y-132672628D02*
X144467715Y-132577390D01*
X144467715Y-132577390D02*
X144515334Y-132529771D01*
X144515334Y-132529771D02*
X144610572Y-132482152D01*
X144610572Y-132482152D02*
X144801048Y-132482152D01*
X144801048Y-132482152D02*
X144896286Y-132529771D01*
X145182001Y-132482152D02*
X145562953Y-132482152D01*
X145324858Y-132148819D02*
X145324858Y-133005961D01*
X145324858Y-133005961D02*
X145372477Y-133101200D01*
X145372477Y-133101200D02*
X145467715Y-133148819D01*
X145467715Y-133148819D02*
X145562953Y-133148819D01*
X146039144Y-133148819D02*
X145943906Y-133101200D01*
X145943906Y-133101200D02*
X145896287Y-133053580D01*
X145896287Y-133053580D02*
X145848668Y-132958342D01*
X145848668Y-132958342D02*
X145848668Y-132672628D01*
X145848668Y-132672628D02*
X145896287Y-132577390D01*
X145896287Y-132577390D02*
X145943906Y-132529771D01*
X145943906Y-132529771D02*
X146039144Y-132482152D01*
X146039144Y-132482152D02*
X146182001Y-132482152D01*
X146182001Y-132482152D02*
X146277239Y-132529771D01*
X146277239Y-132529771D02*
X146324858Y-132577390D01*
X146324858Y-132577390D02*
X146372477Y-132672628D01*
X146372477Y-132672628D02*
X146372477Y-132958342D01*
X146372477Y-132958342D02*
X146324858Y-133053580D01*
X146324858Y-133053580D02*
X146277239Y-133101200D01*
X146277239Y-133101200D02*
X146182001Y-133148819D01*
X146182001Y-133148819D02*
X146039144Y-133148819D01*
X146801049Y-133148819D02*
X146801049Y-132482152D01*
X146801049Y-132672628D02*
X146848668Y-132577390D01*
X146848668Y-132577390D02*
X146896287Y-132529771D01*
X146896287Y-132529771D02*
X146991525Y-132482152D01*
X146991525Y-132482152D02*
X147086763Y-132482152D01*
X147182002Y-133244057D02*
X147943906Y-133244057D01*
X148182002Y-133148819D02*
X148182002Y-132482152D01*
X148182002Y-132577390D02*
X148229621Y-132529771D01*
X148229621Y-132529771D02*
X148324859Y-132482152D01*
X148324859Y-132482152D02*
X148467716Y-132482152D01*
X148467716Y-132482152D02*
X148562954Y-132529771D01*
X148562954Y-132529771D02*
X148610573Y-132625009D01*
X148610573Y-132625009D02*
X148610573Y-133148819D01*
X148610573Y-132625009D02*
X148658192Y-132529771D01*
X148658192Y-132529771D02*
X148753430Y-132482152D01*
X148753430Y-132482152D02*
X148896287Y-132482152D01*
X148896287Y-132482152D02*
X148991526Y-132529771D01*
X148991526Y-132529771D02*
X149039145Y-132625009D01*
X149039145Y-132625009D02*
X149039145Y-133148819D01*
X149467716Y-133101200D02*
X149562954Y-133148819D01*
X149562954Y-133148819D02*
X149753430Y-133148819D01*
X149753430Y-133148819D02*
X149848668Y-133101200D01*
X149848668Y-133101200D02*
X149896287Y-133005961D01*
X149896287Y-133005961D02*
X149896287Y-132958342D01*
X149896287Y-132958342D02*
X149848668Y-132863104D01*
X149848668Y-132863104D02*
X149753430Y-132815485D01*
X149753430Y-132815485D02*
X149610573Y-132815485D01*
X149610573Y-132815485D02*
X149515335Y-132767866D01*
X149515335Y-132767866D02*
X149467716Y-132672628D01*
X149467716Y-132672628D02*
X149467716Y-132625009D01*
X149467716Y-132625009D02*
X149515335Y-132529771D01*
X149515335Y-132529771D02*
X149610573Y-132482152D01*
X149610573Y-132482152D02*
X149753430Y-132482152D01*
X149753430Y-132482152D02*
X149848668Y-132529771D01*
X150229621Y-133148819D02*
X150753430Y-132482152D01*
X150229621Y-132482152D02*
X150753430Y-133148819D01*
D11*
X108185333Y-132110109D02*
X108185333Y-131776776D01*
X108185333Y-131872014D02*
X108209143Y-131824395D01*
X108209143Y-131824395D02*
X108232952Y-131800585D01*
X108232952Y-131800585D02*
X108280571Y-131776776D01*
X108280571Y-131776776D02*
X108328190Y-131776776D01*
X108494857Y-132062490D02*
X108518667Y-132086300D01*
X108518667Y-132086300D02*
X108494857Y-132110109D01*
X108494857Y-132110109D02*
X108471048Y-132086300D01*
X108471048Y-132086300D02*
X108494857Y-132062490D01*
X108494857Y-132062490D02*
X108494857Y-132110109D01*
X108494857Y-131800585D02*
X108518667Y-131824395D01*
X108518667Y-131824395D02*
X108494857Y-131848204D01*
X108494857Y-131848204D02*
X108471048Y-131824395D01*
X108471048Y-131824395D02*
X108494857Y-131800585D01*
X108494857Y-131800585D02*
X108494857Y-131848204D01*
X108828190Y-131610109D02*
X108875809Y-131610109D01*
X108875809Y-131610109D02*
X108923428Y-131633919D01*
X108923428Y-131633919D02*
X108947238Y-131657728D01*
X108947238Y-131657728D02*
X108971047Y-131705347D01*
X108971047Y-131705347D02*
X108994857Y-131800585D01*
X108994857Y-131800585D02*
X108994857Y-131919633D01*
X108994857Y-131919633D02*
X108971047Y-132014871D01*
X108971047Y-132014871D02*
X108947238Y-132062490D01*
X108947238Y-132062490D02*
X108923428Y-132086300D01*
X108923428Y-132086300D02*
X108875809Y-132110109D01*
X108875809Y-132110109D02*
X108828190Y-132110109D01*
X108828190Y-132110109D02*
X108780571Y-132086300D01*
X108780571Y-132086300D02*
X108756762Y-132062490D01*
X108756762Y-132062490D02*
X108732952Y-132014871D01*
X108732952Y-132014871D02*
X108709143Y-131919633D01*
X108709143Y-131919633D02*
X108709143Y-131800585D01*
X108709143Y-131800585D02*
X108732952Y-131705347D01*
X108732952Y-131705347D02*
X108756762Y-131657728D01*
X108756762Y-131657728D02*
X108780571Y-131633919D01*
X108780571Y-131633919D02*
X108828190Y-131610109D01*
X109209142Y-132062490D02*
X109232952Y-132086300D01*
X109232952Y-132086300D02*
X109209142Y-132110109D01*
X109209142Y-132110109D02*
X109185333Y-132086300D01*
X109185333Y-132086300D02*
X109209142Y-132062490D01*
X109209142Y-132062490D02*
X109209142Y-132110109D01*
X109518666Y-131824395D02*
X109471047Y-131800585D01*
X109471047Y-131800585D02*
X109447237Y-131776776D01*
X109447237Y-131776776D02*
X109423428Y-131729157D01*
X109423428Y-131729157D02*
X109423428Y-131705347D01*
X109423428Y-131705347D02*
X109447237Y-131657728D01*
X109447237Y-131657728D02*
X109471047Y-131633919D01*
X109471047Y-131633919D02*
X109518666Y-131610109D01*
X109518666Y-131610109D02*
X109613904Y-131610109D01*
X109613904Y-131610109D02*
X109661523Y-131633919D01*
X109661523Y-131633919D02*
X109685332Y-131657728D01*
X109685332Y-131657728D02*
X109709142Y-131705347D01*
X109709142Y-131705347D02*
X109709142Y-131729157D01*
X109709142Y-131729157D02*
X109685332Y-131776776D01*
X109685332Y-131776776D02*
X109661523Y-131800585D01*
X109661523Y-131800585D02*
X109613904Y-131824395D01*
X109613904Y-131824395D02*
X109518666Y-131824395D01*
X109518666Y-131824395D02*
X109471047Y-131848204D01*
X109471047Y-131848204D02*
X109447237Y-131872014D01*
X109447237Y-131872014D02*
X109423428Y-131919633D01*
X109423428Y-131919633D02*
X109423428Y-132014871D01*
X109423428Y-132014871D02*
X109447237Y-132062490D01*
X109447237Y-132062490D02*
X109471047Y-132086300D01*
X109471047Y-132086300D02*
X109518666Y-132110109D01*
X109518666Y-132110109D02*
X109613904Y-132110109D01*
X109613904Y-132110109D02*
X109661523Y-132086300D01*
X109661523Y-132086300D02*
X109685332Y-132062490D01*
X109685332Y-132062490D02*
X109709142Y-132014871D01*
X109709142Y-132014871D02*
X109709142Y-131919633D01*
X109709142Y-131919633D02*
X109685332Y-131872014D01*
X109685332Y-131872014D02*
X109661523Y-131848204D01*
X109661523Y-131848204D02*
X109613904Y-131824395D01*
X109923427Y-132110109D02*
X109923427Y-131776776D01*
X109923427Y-131824395D02*
X109947237Y-131800585D01*
X109947237Y-131800585D02*
X109994856Y-131776776D01*
X109994856Y-131776776D02*
X110066284Y-131776776D01*
X110066284Y-131776776D02*
X110113903Y-131800585D01*
X110113903Y-131800585D02*
X110137713Y-131848204D01*
X110137713Y-131848204D02*
X110137713Y-132110109D01*
X110137713Y-131848204D02*
X110161522Y-131800585D01*
X110161522Y-131800585D02*
X110209141Y-131776776D01*
X110209141Y-131776776D02*
X110280570Y-131776776D01*
X110280570Y-131776776D02*
X110328189Y-131800585D01*
X110328189Y-131800585D02*
X110351999Y-131848204D01*
X110351999Y-131848204D02*
X110351999Y-132110109D01*
X110590094Y-132110109D02*
X110590094Y-131776776D01*
X110590094Y-131824395D02*
X110613904Y-131800585D01*
X110613904Y-131800585D02*
X110661523Y-131776776D01*
X110661523Y-131776776D02*
X110732951Y-131776776D01*
X110732951Y-131776776D02*
X110780570Y-131800585D01*
X110780570Y-131800585D02*
X110804380Y-131848204D01*
X110804380Y-131848204D02*
X110804380Y-132110109D01*
X110804380Y-131848204D02*
X110828189Y-131800585D01*
X110828189Y-131800585D02*
X110875808Y-131776776D01*
X110875808Y-131776776D02*
X110947237Y-131776776D01*
X110947237Y-131776776D02*
X110994856Y-131800585D01*
X110994856Y-131800585D02*
X111018666Y-131848204D01*
X111018666Y-131848204D02*
X111018666Y-132110109D01*
X111554381Y-110606109D02*
X111554381Y-110272776D01*
X111554381Y-110368014D02*
X111578191Y-110320395D01*
X111578191Y-110320395D02*
X111602000Y-110296585D01*
X111602000Y-110296585D02*
X111649619Y-110272776D01*
X111649619Y-110272776D02*
X111697238Y-110272776D01*
X112244857Y-110558490D02*
X112268667Y-110582300D01*
X112268667Y-110582300D02*
X112244857Y-110606109D01*
X112244857Y-110606109D02*
X112221048Y-110582300D01*
X112221048Y-110582300D02*
X112244857Y-110558490D01*
X112244857Y-110558490D02*
X112244857Y-110606109D01*
X112244857Y-110296585D02*
X112268667Y-110320395D01*
X112268667Y-110320395D02*
X112244857Y-110344204D01*
X112244857Y-110344204D02*
X112221048Y-110320395D01*
X112221048Y-110320395D02*
X112244857Y-110296585D01*
X112244857Y-110296585D02*
X112244857Y-110344204D01*
X112840095Y-110153728D02*
X112863904Y-110129919D01*
X112863904Y-110129919D02*
X112911523Y-110106109D01*
X112911523Y-110106109D02*
X113030571Y-110106109D01*
X113030571Y-110106109D02*
X113078190Y-110129919D01*
X113078190Y-110129919D02*
X113101999Y-110153728D01*
X113101999Y-110153728D02*
X113125809Y-110201347D01*
X113125809Y-110201347D02*
X113125809Y-110248966D01*
X113125809Y-110248966D02*
X113101999Y-110320395D01*
X113101999Y-110320395D02*
X112816285Y-110606109D01*
X112816285Y-110606109D02*
X113125809Y-110606109D01*
X113340094Y-110558490D02*
X113363904Y-110582300D01*
X113363904Y-110582300D02*
X113340094Y-110606109D01*
X113340094Y-110606109D02*
X113316285Y-110582300D01*
X113316285Y-110582300D02*
X113340094Y-110558490D01*
X113340094Y-110558490D02*
X113340094Y-110606109D01*
X113840094Y-110606109D02*
X113554380Y-110606109D01*
X113697237Y-110606109D02*
X113697237Y-110106109D01*
X113697237Y-110106109D02*
X113649618Y-110177538D01*
X113649618Y-110177538D02*
X113601999Y-110225157D01*
X113601999Y-110225157D02*
X113554380Y-110248966D01*
X114054379Y-110606109D02*
X114054379Y-110272776D01*
X114054379Y-110320395D02*
X114078189Y-110296585D01*
X114078189Y-110296585D02*
X114125808Y-110272776D01*
X114125808Y-110272776D02*
X114197236Y-110272776D01*
X114197236Y-110272776D02*
X114244855Y-110296585D01*
X114244855Y-110296585D02*
X114268665Y-110344204D01*
X114268665Y-110344204D02*
X114268665Y-110606109D01*
X114268665Y-110344204D02*
X114292474Y-110296585D01*
X114292474Y-110296585D02*
X114340093Y-110272776D01*
X114340093Y-110272776D02*
X114411522Y-110272776D01*
X114411522Y-110272776D02*
X114459141Y-110296585D01*
X114459141Y-110296585D02*
X114482951Y-110344204D01*
X114482951Y-110344204D02*
X114482951Y-110606109D01*
X114721046Y-110606109D02*
X114721046Y-110272776D01*
X114721046Y-110320395D02*
X114744856Y-110296585D01*
X114744856Y-110296585D02*
X114792475Y-110272776D01*
X114792475Y-110272776D02*
X114863903Y-110272776D01*
X114863903Y-110272776D02*
X114911522Y-110296585D01*
X114911522Y-110296585D02*
X114935332Y-110344204D01*
X114935332Y-110344204D02*
X114935332Y-110606109D01*
X114935332Y-110344204D02*
X114959141Y-110296585D01*
X114959141Y-110296585D02*
X115006760Y-110272776D01*
X115006760Y-110272776D02*
X115078189Y-110272776D01*
X115078189Y-110272776D02*
X115125808Y-110296585D01*
X115125808Y-110296585D02*
X115149618Y-110344204D01*
X115149618Y-110344204D02*
X115149618Y-110606109D01*
X167714381Y-115750109D02*
X167714381Y-115416776D01*
X167714381Y-115512014D02*
X167738191Y-115464395D01*
X167738191Y-115464395D02*
X167762000Y-115440585D01*
X167762000Y-115440585D02*
X167809619Y-115416776D01*
X167809619Y-115416776D02*
X167857238Y-115416776D01*
X168404857Y-115702490D02*
X168428667Y-115726300D01*
X168428667Y-115726300D02*
X168404857Y-115750109D01*
X168404857Y-115750109D02*
X168381048Y-115726300D01*
X168381048Y-115726300D02*
X168404857Y-115702490D01*
X168404857Y-115702490D02*
X168404857Y-115750109D01*
X168404857Y-115440585D02*
X168428667Y-115464395D01*
X168428667Y-115464395D02*
X168404857Y-115488204D01*
X168404857Y-115488204D02*
X168381048Y-115464395D01*
X168381048Y-115464395D02*
X168404857Y-115440585D01*
X168404857Y-115440585D02*
X168404857Y-115488204D01*
X169000095Y-115297728D02*
X169023904Y-115273919D01*
X169023904Y-115273919D02*
X169071523Y-115250109D01*
X169071523Y-115250109D02*
X169190571Y-115250109D01*
X169190571Y-115250109D02*
X169238190Y-115273919D01*
X169238190Y-115273919D02*
X169261999Y-115297728D01*
X169261999Y-115297728D02*
X169285809Y-115345347D01*
X169285809Y-115345347D02*
X169285809Y-115392966D01*
X169285809Y-115392966D02*
X169261999Y-115464395D01*
X169261999Y-115464395D02*
X168976285Y-115750109D01*
X168976285Y-115750109D02*
X169285809Y-115750109D01*
X169500094Y-115702490D02*
X169523904Y-115726300D01*
X169523904Y-115726300D02*
X169500094Y-115750109D01*
X169500094Y-115750109D02*
X169476285Y-115726300D01*
X169476285Y-115726300D02*
X169500094Y-115702490D01*
X169500094Y-115702490D02*
X169500094Y-115750109D01*
X170000094Y-115750109D02*
X169714380Y-115750109D01*
X169857237Y-115750109D02*
X169857237Y-115250109D01*
X169857237Y-115250109D02*
X169809618Y-115321538D01*
X169809618Y-115321538D02*
X169761999Y-115369157D01*
X169761999Y-115369157D02*
X169714380Y-115392966D01*
X170214379Y-115750109D02*
X170214379Y-115416776D01*
X170214379Y-115464395D02*
X170238189Y-115440585D01*
X170238189Y-115440585D02*
X170285808Y-115416776D01*
X170285808Y-115416776D02*
X170357236Y-115416776D01*
X170357236Y-115416776D02*
X170404855Y-115440585D01*
X170404855Y-115440585D02*
X170428665Y-115488204D01*
X170428665Y-115488204D02*
X170428665Y-115750109D01*
X170428665Y-115488204D02*
X170452474Y-115440585D01*
X170452474Y-115440585D02*
X170500093Y-115416776D01*
X170500093Y-115416776D02*
X170571522Y-115416776D01*
X170571522Y-115416776D02*
X170619141Y-115440585D01*
X170619141Y-115440585D02*
X170642951Y-115488204D01*
X170642951Y-115488204D02*
X170642951Y-115750109D01*
X170881046Y-115750109D02*
X170881046Y-115416776D01*
X170881046Y-115464395D02*
X170904856Y-115440585D01*
X170904856Y-115440585D02*
X170952475Y-115416776D01*
X170952475Y-115416776D02*
X171023903Y-115416776D01*
X171023903Y-115416776D02*
X171071522Y-115440585D01*
X171071522Y-115440585D02*
X171095332Y-115488204D01*
X171095332Y-115488204D02*
X171095332Y-115750109D01*
X171095332Y-115488204D02*
X171119141Y-115440585D01*
X171119141Y-115440585D02*
X171166760Y-115416776D01*
X171166760Y-115416776D02*
X171238189Y-115416776D01*
X171238189Y-115416776D02*
X171285808Y-115440585D01*
X171285808Y-115440585D02*
X171309618Y-115488204D01*
X171309618Y-115488204D02*
X171309618Y-115750109D01*
X172285333Y-132160109D02*
X172285333Y-131826776D01*
X172285333Y-131922014D02*
X172309143Y-131874395D01*
X172309143Y-131874395D02*
X172332952Y-131850585D01*
X172332952Y-131850585D02*
X172380571Y-131826776D01*
X172380571Y-131826776D02*
X172428190Y-131826776D01*
X172594857Y-132112490D02*
X172618667Y-132136300D01*
X172618667Y-132136300D02*
X172594857Y-132160109D01*
X172594857Y-132160109D02*
X172571048Y-132136300D01*
X172571048Y-132136300D02*
X172594857Y-132112490D01*
X172594857Y-132112490D02*
X172594857Y-132160109D01*
X172594857Y-131850585D02*
X172618667Y-131874395D01*
X172618667Y-131874395D02*
X172594857Y-131898204D01*
X172594857Y-131898204D02*
X172571048Y-131874395D01*
X172571048Y-131874395D02*
X172594857Y-131850585D01*
X172594857Y-131850585D02*
X172594857Y-131898204D01*
X172928190Y-131660109D02*
X172975809Y-131660109D01*
X172975809Y-131660109D02*
X173023428Y-131683919D01*
X173023428Y-131683919D02*
X173047238Y-131707728D01*
X173047238Y-131707728D02*
X173071047Y-131755347D01*
X173071047Y-131755347D02*
X173094857Y-131850585D01*
X173094857Y-131850585D02*
X173094857Y-131969633D01*
X173094857Y-131969633D02*
X173071047Y-132064871D01*
X173071047Y-132064871D02*
X173047238Y-132112490D01*
X173047238Y-132112490D02*
X173023428Y-132136300D01*
X173023428Y-132136300D02*
X172975809Y-132160109D01*
X172975809Y-132160109D02*
X172928190Y-132160109D01*
X172928190Y-132160109D02*
X172880571Y-132136300D01*
X172880571Y-132136300D02*
X172856762Y-132112490D01*
X172856762Y-132112490D02*
X172832952Y-132064871D01*
X172832952Y-132064871D02*
X172809143Y-131969633D01*
X172809143Y-131969633D02*
X172809143Y-131850585D01*
X172809143Y-131850585D02*
X172832952Y-131755347D01*
X172832952Y-131755347D02*
X172856762Y-131707728D01*
X172856762Y-131707728D02*
X172880571Y-131683919D01*
X172880571Y-131683919D02*
X172928190Y-131660109D01*
X173309142Y-132112490D02*
X173332952Y-132136300D01*
X173332952Y-132136300D02*
X173309142Y-132160109D01*
X173309142Y-132160109D02*
X173285333Y-132136300D01*
X173285333Y-132136300D02*
X173309142Y-132112490D01*
X173309142Y-132112490D02*
X173309142Y-132160109D01*
X173618666Y-131874395D02*
X173571047Y-131850585D01*
X173571047Y-131850585D02*
X173547237Y-131826776D01*
X173547237Y-131826776D02*
X173523428Y-131779157D01*
X173523428Y-131779157D02*
X173523428Y-131755347D01*
X173523428Y-131755347D02*
X173547237Y-131707728D01*
X173547237Y-131707728D02*
X173571047Y-131683919D01*
X173571047Y-131683919D02*
X173618666Y-131660109D01*
X173618666Y-131660109D02*
X173713904Y-131660109D01*
X173713904Y-131660109D02*
X173761523Y-131683919D01*
X173761523Y-131683919D02*
X173785332Y-131707728D01*
X173785332Y-131707728D02*
X173809142Y-131755347D01*
X173809142Y-131755347D02*
X173809142Y-131779157D01*
X173809142Y-131779157D02*
X173785332Y-131826776D01*
X173785332Y-131826776D02*
X173761523Y-131850585D01*
X173761523Y-131850585D02*
X173713904Y-131874395D01*
X173713904Y-131874395D02*
X173618666Y-131874395D01*
X173618666Y-131874395D02*
X173571047Y-131898204D01*
X173571047Y-131898204D02*
X173547237Y-131922014D01*
X173547237Y-131922014D02*
X173523428Y-131969633D01*
X173523428Y-131969633D02*
X173523428Y-132064871D01*
X173523428Y-132064871D02*
X173547237Y-132112490D01*
X173547237Y-132112490D02*
X173571047Y-132136300D01*
X173571047Y-132136300D02*
X173618666Y-132160109D01*
X173618666Y-132160109D02*
X173713904Y-132160109D01*
X173713904Y-132160109D02*
X173761523Y-132136300D01*
X173761523Y-132136300D02*
X173785332Y-132112490D01*
X173785332Y-132112490D02*
X173809142Y-132064871D01*
X173809142Y-132064871D02*
X173809142Y-131969633D01*
X173809142Y-131969633D02*
X173785332Y-131922014D01*
X173785332Y-131922014D02*
X173761523Y-131898204D01*
X173761523Y-131898204D02*
X173713904Y-131874395D01*
X174023427Y-132160109D02*
X174023427Y-131826776D01*
X174023427Y-131874395D02*
X174047237Y-131850585D01*
X174047237Y-131850585D02*
X174094856Y-131826776D01*
X174094856Y-131826776D02*
X174166284Y-131826776D01*
X174166284Y-131826776D02*
X174213903Y-131850585D01*
X174213903Y-131850585D02*
X174237713Y-131898204D01*
X174237713Y-131898204D02*
X174237713Y-132160109D01*
X174237713Y-131898204D02*
X174261522Y-131850585D01*
X174261522Y-131850585D02*
X174309141Y-131826776D01*
X174309141Y-131826776D02*
X174380570Y-131826776D01*
X174380570Y-131826776D02*
X174428189Y-131850585D01*
X174428189Y-131850585D02*
X174451999Y-131898204D01*
X174451999Y-131898204D02*
X174451999Y-132160109D01*
X174690094Y-132160109D02*
X174690094Y-131826776D01*
X174690094Y-131874395D02*
X174713904Y-131850585D01*
X174713904Y-131850585D02*
X174761523Y-131826776D01*
X174761523Y-131826776D02*
X174832951Y-131826776D01*
X174832951Y-131826776D02*
X174880570Y-131850585D01*
X174880570Y-131850585D02*
X174904380Y-131898204D01*
X174904380Y-131898204D02*
X174904380Y-132160109D01*
X174904380Y-131898204D02*
X174928189Y-131850585D01*
X174928189Y-131850585D02*
X174975808Y-131826776D01*
X174975808Y-131826776D02*
X175047237Y-131826776D01*
X175047237Y-131826776D02*
X175094856Y-131850585D01*
X175094856Y-131850585D02*
X175118666Y-131898204D01*
X175118666Y-131898204D02*
X175118666Y-132160109D01*
D10*
X173952819Y-67563904D02*
X174762342Y-67563904D01*
X174762342Y-67563904D02*
X174857580Y-67516285D01*
X174857580Y-67516285D02*
X174905200Y-67468666D01*
X174905200Y-67468666D02*
X174952819Y-67373428D01*
X174952819Y-67373428D02*
X174952819Y-67182952D01*
X174952819Y-67182952D02*
X174905200Y-67087714D01*
X174905200Y-67087714D02*
X174857580Y-67040095D01*
X174857580Y-67040095D02*
X174762342Y-66992476D01*
X174762342Y-66992476D02*
X173952819Y-66992476D01*
X173952819Y-66040095D02*
X173952819Y-66516285D01*
X173952819Y-66516285D02*
X174429009Y-66563904D01*
X174429009Y-66563904D02*
X174381390Y-66516285D01*
X174381390Y-66516285D02*
X174333771Y-66421047D01*
X174333771Y-66421047D02*
X174333771Y-66182952D01*
X174333771Y-66182952D02*
X174381390Y-66087714D01*
X174381390Y-66087714D02*
X174429009Y-66040095D01*
X174429009Y-66040095D02*
X174524247Y-65992476D01*
X174524247Y-65992476D02*
X174762342Y-65992476D01*
X174762342Y-65992476D02*
X174857580Y-66040095D01*
X174857580Y-66040095D02*
X174905200Y-66087714D01*
X174905200Y-66087714D02*
X174952819Y-66182952D01*
X174952819Y-66182952D02*
X174952819Y-66421047D01*
X174952819Y-66421047D02*
X174905200Y-66516285D01*
X174905200Y-66516285D02*
X174857580Y-66563904D01*
X148298819Y-80984094D02*
X149108342Y-80984094D01*
X149108342Y-80984094D02*
X149203580Y-80936475D01*
X149203580Y-80936475D02*
X149251200Y-80888856D01*
X149251200Y-80888856D02*
X149298819Y-80793618D01*
X149298819Y-80793618D02*
X149298819Y-80603142D01*
X149298819Y-80603142D02*
X149251200Y-80507904D01*
X149251200Y-80507904D02*
X149203580Y-80460285D01*
X149203580Y-80460285D02*
X149108342Y-80412666D01*
X149108342Y-80412666D02*
X148298819Y-80412666D01*
X149298819Y-79412666D02*
X149298819Y-79984094D01*
X149298819Y-79698380D02*
X148298819Y-79698380D01*
X148298819Y-79698380D02*
X148441676Y-79793618D01*
X148441676Y-79793618D02*
X148536914Y-79888856D01*
X148536914Y-79888856D02*
X148584533Y-79984094D01*
X149298819Y-78460285D02*
X149298819Y-79031713D01*
X149298819Y-78745999D02*
X148298819Y-78745999D01*
X148298819Y-78745999D02*
X148441676Y-78841237D01*
X148441676Y-78841237D02*
X148536914Y-78936475D01*
X148536914Y-78936475D02*
X148584533Y-79031713D01*
X147028819Y-94964094D02*
X147838342Y-94964094D01*
X147838342Y-94964094D02*
X147933580Y-94916475D01*
X147933580Y-94916475D02*
X147981200Y-94868856D01*
X147981200Y-94868856D02*
X148028819Y-94773618D01*
X148028819Y-94773618D02*
X148028819Y-94583142D01*
X148028819Y-94583142D02*
X147981200Y-94487904D01*
X147981200Y-94487904D02*
X147933580Y-94440285D01*
X147933580Y-94440285D02*
X147838342Y-94392666D01*
X147838342Y-94392666D02*
X147028819Y-94392666D01*
X148028819Y-93392666D02*
X148028819Y-93964094D01*
X148028819Y-93678380D02*
X147028819Y-93678380D01*
X147028819Y-93678380D02*
X147171676Y-93773618D01*
X147171676Y-93773618D02*
X147266914Y-93868856D01*
X147266914Y-93868856D02*
X147314533Y-93964094D01*
X147028819Y-92773618D02*
X147028819Y-92678380D01*
X147028819Y-92678380D02*
X147076438Y-92583142D01*
X147076438Y-92583142D02*
X147124057Y-92535523D01*
X147124057Y-92535523D02*
X147219295Y-92487904D01*
X147219295Y-92487904D02*
X147409771Y-92440285D01*
X147409771Y-92440285D02*
X147647866Y-92440285D01*
X147647866Y-92440285D02*
X147838342Y-92487904D01*
X147838342Y-92487904D02*
X147933580Y-92535523D01*
X147933580Y-92535523D02*
X147981200Y-92583142D01*
X147981200Y-92583142D02*
X148028819Y-92678380D01*
X148028819Y-92678380D02*
X148028819Y-92773618D01*
X148028819Y-92773618D02*
X147981200Y-92868856D01*
X147981200Y-92868856D02*
X147933580Y-92916475D01*
X147933580Y-92916475D02*
X147838342Y-92964094D01*
X147838342Y-92964094D02*
X147647866Y-93011713D01*
X147647866Y-93011713D02*
X147409771Y-93011713D01*
X147409771Y-93011713D02*
X147219295Y-92964094D01*
X147219295Y-92964094D02*
X147124057Y-92916475D01*
X147124057Y-92916475D02*
X147076438Y-92868856D01*
X147076438Y-92868856D02*
X147028819Y-92773618D01*
X136493580Y-52958666D02*
X136541200Y-53006285D01*
X136541200Y-53006285D02*
X136588819Y-53149142D01*
X136588819Y-53149142D02*
X136588819Y-53244380D01*
X136588819Y-53244380D02*
X136541200Y-53387237D01*
X136541200Y-53387237D02*
X136445961Y-53482475D01*
X136445961Y-53482475D02*
X136350723Y-53530094D01*
X136350723Y-53530094D02*
X136160247Y-53577713D01*
X136160247Y-53577713D02*
X136017390Y-53577713D01*
X136017390Y-53577713D02*
X135826914Y-53530094D01*
X135826914Y-53530094D02*
X135731676Y-53482475D01*
X135731676Y-53482475D02*
X135636438Y-53387237D01*
X135636438Y-53387237D02*
X135588819Y-53244380D01*
X135588819Y-53244380D02*
X135588819Y-53149142D01*
X135588819Y-53149142D02*
X135636438Y-53006285D01*
X135636438Y-53006285D02*
X135684057Y-52958666D01*
X135588819Y-52625332D02*
X135588819Y-52006285D01*
X135588819Y-52006285D02*
X135969771Y-52339618D01*
X135969771Y-52339618D02*
X135969771Y-52196761D01*
X135969771Y-52196761D02*
X136017390Y-52101523D01*
X136017390Y-52101523D02*
X136065009Y-52053904D01*
X136065009Y-52053904D02*
X136160247Y-52006285D01*
X136160247Y-52006285D02*
X136398342Y-52006285D01*
X136398342Y-52006285D02*
X136493580Y-52053904D01*
X136493580Y-52053904D02*
X136541200Y-52101523D01*
X136541200Y-52101523D02*
X136588819Y-52196761D01*
X136588819Y-52196761D02*
X136588819Y-52482475D01*
X136588819Y-52482475D02*
X136541200Y-52577713D01*
X136541200Y-52577713D02*
X136493580Y-52625332D01*
X124277523Y-55318819D02*
X123944190Y-54842628D01*
X123706095Y-55318819D02*
X123706095Y-54318819D01*
X123706095Y-54318819D02*
X124087047Y-54318819D01*
X124087047Y-54318819D02*
X124182285Y-54366438D01*
X124182285Y-54366438D02*
X124229904Y-54414057D01*
X124229904Y-54414057D02*
X124277523Y-54509295D01*
X124277523Y-54509295D02*
X124277523Y-54652152D01*
X124277523Y-54652152D02*
X124229904Y-54747390D01*
X124229904Y-54747390D02*
X124182285Y-54795009D01*
X124182285Y-54795009D02*
X124087047Y-54842628D01*
X124087047Y-54842628D02*
X123706095Y-54842628D01*
X124706095Y-55318819D02*
X124706095Y-54318819D01*
X124706095Y-54318819D02*
X125277523Y-55318819D01*
X125277523Y-55318819D02*
X125277523Y-54318819D01*
X125706095Y-54414057D02*
X125753714Y-54366438D01*
X125753714Y-54366438D02*
X125848952Y-54318819D01*
X125848952Y-54318819D02*
X126087047Y-54318819D01*
X126087047Y-54318819D02*
X126182285Y-54366438D01*
X126182285Y-54366438D02*
X126229904Y-54414057D01*
X126229904Y-54414057D02*
X126277523Y-54509295D01*
X126277523Y-54509295D02*
X126277523Y-54604533D01*
X126277523Y-54604533D02*
X126229904Y-54747390D01*
X126229904Y-54747390D02*
X125658476Y-55318819D01*
X125658476Y-55318819D02*
X126277523Y-55318819D01*
X89513580Y-88304666D02*
X89561200Y-88352285D01*
X89561200Y-88352285D02*
X89608819Y-88495142D01*
X89608819Y-88495142D02*
X89608819Y-88590380D01*
X89608819Y-88590380D02*
X89561200Y-88733237D01*
X89561200Y-88733237D02*
X89465961Y-88828475D01*
X89465961Y-88828475D02*
X89370723Y-88876094D01*
X89370723Y-88876094D02*
X89180247Y-88923713D01*
X89180247Y-88923713D02*
X89037390Y-88923713D01*
X89037390Y-88923713D02*
X88846914Y-88876094D01*
X88846914Y-88876094D02*
X88751676Y-88828475D01*
X88751676Y-88828475D02*
X88656438Y-88733237D01*
X88656438Y-88733237D02*
X88608819Y-88590380D01*
X88608819Y-88590380D02*
X88608819Y-88495142D01*
X88608819Y-88495142D02*
X88656438Y-88352285D01*
X88656438Y-88352285D02*
X88704057Y-88304666D01*
X88608819Y-87971332D02*
X88608819Y-87304666D01*
X88608819Y-87304666D02*
X89608819Y-87733237D01*
X147277819Y-107177904D02*
X148087342Y-107177904D01*
X148087342Y-107177904D02*
X148182580Y-107130285D01*
X148182580Y-107130285D02*
X148230200Y-107082666D01*
X148230200Y-107082666D02*
X148277819Y-106987428D01*
X148277819Y-106987428D02*
X148277819Y-106796952D01*
X148277819Y-106796952D02*
X148230200Y-106701714D01*
X148230200Y-106701714D02*
X148182580Y-106654095D01*
X148182580Y-106654095D02*
X148087342Y-106606476D01*
X148087342Y-106606476D02*
X147277819Y-106606476D01*
X147277819Y-105701714D02*
X147277819Y-105892190D01*
X147277819Y-105892190D02*
X147325438Y-105987428D01*
X147325438Y-105987428D02*
X147373057Y-106035047D01*
X147373057Y-106035047D02*
X147515914Y-106130285D01*
X147515914Y-106130285D02*
X147706390Y-106177904D01*
X147706390Y-106177904D02*
X148087342Y-106177904D01*
X148087342Y-106177904D02*
X148182580Y-106130285D01*
X148182580Y-106130285D02*
X148230200Y-106082666D01*
X148230200Y-106082666D02*
X148277819Y-105987428D01*
X148277819Y-105987428D02*
X148277819Y-105796952D01*
X148277819Y-105796952D02*
X148230200Y-105701714D01*
X148230200Y-105701714D02*
X148182580Y-105654095D01*
X148182580Y-105654095D02*
X148087342Y-105606476D01*
X148087342Y-105606476D02*
X147849247Y-105606476D01*
X147849247Y-105606476D02*
X147754009Y-105654095D01*
X147754009Y-105654095D02*
X147706390Y-105701714D01*
X147706390Y-105701714D02*
X147658771Y-105796952D01*
X147658771Y-105796952D02*
X147658771Y-105987428D01*
X147658771Y-105987428D02*
X147706390Y-106082666D01*
X147706390Y-106082666D02*
X147754009Y-106130285D01*
X147754009Y-106130285D02*
X147849247Y-106177904D01*
X172433819Y-107451904D02*
X173243342Y-107451904D01*
X173243342Y-107451904D02*
X173338580Y-107404285D01*
X173338580Y-107404285D02*
X173386200Y-107356666D01*
X173386200Y-107356666D02*
X173433819Y-107261428D01*
X173433819Y-107261428D02*
X173433819Y-107070952D01*
X173433819Y-107070952D02*
X173386200Y-106975714D01*
X173386200Y-106975714D02*
X173338580Y-106928095D01*
X173338580Y-106928095D02*
X173243342Y-106880476D01*
X173243342Y-106880476D02*
X172433819Y-106880476D01*
X173433819Y-106356666D02*
X173433819Y-106166190D01*
X173433819Y-106166190D02*
X173386200Y-106070952D01*
X173386200Y-106070952D02*
X173338580Y-106023333D01*
X173338580Y-106023333D02*
X173195723Y-105928095D01*
X173195723Y-105928095D02*
X173005247Y-105880476D01*
X173005247Y-105880476D02*
X172624295Y-105880476D01*
X172624295Y-105880476D02*
X172529057Y-105928095D01*
X172529057Y-105928095D02*
X172481438Y-105975714D01*
X172481438Y-105975714D02*
X172433819Y-106070952D01*
X172433819Y-106070952D02*
X172433819Y-106261428D01*
X172433819Y-106261428D02*
X172481438Y-106356666D01*
X172481438Y-106356666D02*
X172529057Y-106404285D01*
X172529057Y-106404285D02*
X172624295Y-106451904D01*
X172624295Y-106451904D02*
X172862390Y-106451904D01*
X172862390Y-106451904D02*
X172957628Y-106404285D01*
X172957628Y-106404285D02*
X173005247Y-106356666D01*
X173005247Y-106356666D02*
X173052866Y-106261428D01*
X173052866Y-106261428D02*
X173052866Y-106070952D01*
X173052866Y-106070952D02*
X173005247Y-105975714D01*
X173005247Y-105975714D02*
X172957628Y-105928095D01*
X172957628Y-105928095D02*
X172862390Y-105880476D01*
X136503580Y-65150666D02*
X136551200Y-65198285D01*
X136551200Y-65198285D02*
X136598819Y-65341142D01*
X136598819Y-65341142D02*
X136598819Y-65436380D01*
X136598819Y-65436380D02*
X136551200Y-65579237D01*
X136551200Y-65579237D02*
X136455961Y-65674475D01*
X136455961Y-65674475D02*
X136360723Y-65722094D01*
X136360723Y-65722094D02*
X136170247Y-65769713D01*
X136170247Y-65769713D02*
X136027390Y-65769713D01*
X136027390Y-65769713D02*
X135836914Y-65722094D01*
X135836914Y-65722094D02*
X135741676Y-65674475D01*
X135741676Y-65674475D02*
X135646438Y-65579237D01*
X135646438Y-65579237D02*
X135598819Y-65436380D01*
X135598819Y-65436380D02*
X135598819Y-65341142D01*
X135598819Y-65341142D02*
X135646438Y-65198285D01*
X135646438Y-65198285D02*
X135694057Y-65150666D01*
X135598819Y-64245904D02*
X135598819Y-64722094D01*
X135598819Y-64722094D02*
X136075009Y-64769713D01*
X136075009Y-64769713D02*
X136027390Y-64722094D01*
X136027390Y-64722094D02*
X135979771Y-64626856D01*
X135979771Y-64626856D02*
X135979771Y-64388761D01*
X135979771Y-64388761D02*
X136027390Y-64293523D01*
X136027390Y-64293523D02*
X136075009Y-64245904D01*
X136075009Y-64245904D02*
X136170247Y-64198285D01*
X136170247Y-64198285D02*
X136408342Y-64198285D01*
X136408342Y-64198285D02*
X136503580Y-64245904D01*
X136503580Y-64245904D02*
X136551200Y-64293523D01*
X136551200Y-64293523D02*
X136598819Y-64388761D01*
X136598819Y-64388761D02*
X136598819Y-64626856D01*
X136598819Y-64626856D02*
X136551200Y-64722094D01*
X136551200Y-64722094D02*
X136503580Y-64769713D01*
X161913580Y-105818857D02*
X161961200Y-105866476D01*
X161961200Y-105866476D02*
X162008819Y-106009333D01*
X162008819Y-106009333D02*
X162008819Y-106104571D01*
X162008819Y-106104571D02*
X161961200Y-106247428D01*
X161961200Y-106247428D02*
X161865961Y-106342666D01*
X161865961Y-106342666D02*
X161770723Y-106390285D01*
X161770723Y-106390285D02*
X161580247Y-106437904D01*
X161580247Y-106437904D02*
X161437390Y-106437904D01*
X161437390Y-106437904D02*
X161246914Y-106390285D01*
X161246914Y-106390285D02*
X161151676Y-106342666D01*
X161151676Y-106342666D02*
X161056438Y-106247428D01*
X161056438Y-106247428D02*
X161008819Y-106104571D01*
X161008819Y-106104571D02*
X161008819Y-106009333D01*
X161008819Y-106009333D02*
X161056438Y-105866476D01*
X161056438Y-105866476D02*
X161104057Y-105818857D01*
X162008819Y-104866476D02*
X162008819Y-105437904D01*
X162008819Y-105152190D02*
X161008819Y-105152190D01*
X161008819Y-105152190D02*
X161151676Y-105247428D01*
X161151676Y-105247428D02*
X161246914Y-105342666D01*
X161246914Y-105342666D02*
X161294533Y-105437904D01*
X161008819Y-104247428D02*
X161008819Y-104152190D01*
X161008819Y-104152190D02*
X161056438Y-104056952D01*
X161056438Y-104056952D02*
X161104057Y-104009333D01*
X161104057Y-104009333D02*
X161199295Y-103961714D01*
X161199295Y-103961714D02*
X161389771Y-103914095D01*
X161389771Y-103914095D02*
X161627866Y-103914095D01*
X161627866Y-103914095D02*
X161818342Y-103961714D01*
X161818342Y-103961714D02*
X161913580Y-104009333D01*
X161913580Y-104009333D02*
X161961200Y-104056952D01*
X161961200Y-104056952D02*
X162008819Y-104152190D01*
X162008819Y-104152190D02*
X162008819Y-104247428D01*
X162008819Y-104247428D02*
X161961200Y-104342666D01*
X161961200Y-104342666D02*
X161913580Y-104390285D01*
X161913580Y-104390285D02*
X161818342Y-104437904D01*
X161818342Y-104437904D02*
X161627866Y-104485523D01*
X161627866Y-104485523D02*
X161389771Y-104485523D01*
X161389771Y-104485523D02*
X161199295Y-104437904D01*
X161199295Y-104437904D02*
X161104057Y-104390285D01*
X161104057Y-104390285D02*
X161056438Y-104342666D01*
X161056438Y-104342666D02*
X161008819Y-104247428D01*
X173434819Y-54853904D02*
X174244342Y-54853904D01*
X174244342Y-54853904D02*
X174339580Y-54806285D01*
X174339580Y-54806285D02*
X174387200Y-54758666D01*
X174387200Y-54758666D02*
X174434819Y-54663428D01*
X174434819Y-54663428D02*
X174434819Y-54472952D01*
X174434819Y-54472952D02*
X174387200Y-54377714D01*
X174387200Y-54377714D02*
X174339580Y-54330095D01*
X174339580Y-54330095D02*
X174244342Y-54282476D01*
X174244342Y-54282476D02*
X173434819Y-54282476D01*
X174434819Y-53282476D02*
X174434819Y-53853904D01*
X174434819Y-53568190D02*
X173434819Y-53568190D01*
X173434819Y-53568190D02*
X173577676Y-53663428D01*
X173577676Y-53663428D02*
X173672914Y-53758666D01*
X173672914Y-53758666D02*
X173720533Y-53853904D01*
%TO.C,U12*%
D11*
X91700000Y-63265000D02*
X132340000Y-63265000D01*
X91700000Y-76995000D02*
X91700000Y-63265000D01*
X92700000Y-77995000D02*
X91700000Y-76995000D01*
X132340000Y-63265000D02*
X132340000Y-77995000D01*
X132340000Y-77995000D02*
X92700000Y-77995000D01*
X91640000Y-61740000D02*
X132400000Y-61740000D01*
X132400000Y-79520000D01*
X91640000Y-79520000D01*
X91640000Y-61740000D01*
%TO.C,U7*%
X164094000Y-90063000D02*
X181874000Y-90063000D01*
X164094000Y-95413000D02*
X164094000Y-90063000D01*
X165094000Y-96413000D02*
X164094000Y-95413000D01*
X181874000Y-90063000D02*
X181874000Y-96413000D01*
X181874000Y-96413000D02*
X165094000Y-96413000D01*
X164034000Y-88158000D02*
X181934000Y-88158000D01*
X181934000Y-98318000D01*
X164034000Y-98318000D01*
X164034000Y-88158000D01*
%TO.C,C4*%
X101662500Y-116338718D02*
X102162500Y-116338718D01*
X101912500Y-116588718D02*
X101912500Y-116088718D01*
X105500000Y-114455113D02*
G75*
G02*
X100500000Y-114455113I-2500000J0D01*
G01*
X100500000Y-114455113D02*
G75*
G02*
X105500000Y-114455113I2500000J0D01*
G01*
%TO.C,C11*%
X160548000Y-88948000D02*
X163048000Y-88948000D01*
X163048000Y-94948000D01*
X160548000Y-94948000D01*
X160548000Y-88948000D01*
%TO.C,U8*%
X164338000Y-76835000D02*
X182118000Y-76835000D01*
X164338000Y-82185000D02*
X164338000Y-76835000D01*
X165338000Y-83185000D02*
X164338000Y-82185000D01*
X182118000Y-76835000D02*
X182118000Y-83185000D01*
X182118000Y-83185000D02*
X165338000Y-83185000D01*
X164278000Y-74930000D02*
X182178000Y-74930000D01*
X182178000Y-85090000D01*
X164278000Y-85090000D01*
X164278000Y-74930000D01*
%TO.C,C8*%
X134894000Y-75232000D02*
X137394000Y-75232000D01*
X137394000Y-81232000D01*
X134894000Y-81232000D01*
X134894000Y-75232000D01*
%TO.C,C6*%
X160548000Y-62532000D02*
X163048000Y-62532000D01*
X163048000Y-68532000D01*
X160548000Y-68532000D01*
X160548000Y-62532000D01*
%TO.C,C13*%
X135143000Y-102614000D02*
X137643000Y-102614000D01*
X137643000Y-108614000D01*
X135143000Y-108614000D01*
X135143000Y-102614000D01*
%TO.C,RN1*%
X121158000Y-48280000D02*
X121158000Y-50780000D01*
X118598000Y-48280000D02*
X131338000Y-48280000D01*
X131338000Y-50780000D01*
X118598000Y-50780000D01*
X118598000Y-48280000D01*
%TO.C,C1*%
X160548000Y-49792000D02*
X163048000Y-49792000D01*
X163048000Y-55792000D01*
X160548000Y-55792000D01*
X160548000Y-49792000D01*
%TO.C,C9*%
X134884000Y-88898000D02*
X137384000Y-88898000D01*
X137384000Y-94898000D01*
X134884000Y-94898000D01*
X134884000Y-88898000D01*
%TO.C,U4*%
X138684000Y-63373000D02*
X159004000Y-63373000D01*
X138684000Y-68723000D02*
X138684000Y-63373000D01*
X139684000Y-69723000D02*
X138684000Y-68723000D01*
X159004000Y-63373000D02*
X159004000Y-69723000D01*
X159004000Y-69723000D02*
X139684000Y-69723000D01*
X138624000Y-61468000D02*
X159064000Y-61468000D01*
X159064000Y-71628000D01*
X138624000Y-71628000D01*
X138624000Y-61468000D01*
%TO.C,C2*%
X87904000Y-62572000D02*
X90404000Y-62572000D01*
X90404000Y-68572000D01*
X87904000Y-68572000D01*
X87904000Y-62572000D01*
%TO.C,C12*%
X161056000Y-75750000D02*
X163556000Y-75750000D01*
X163556000Y-81750000D01*
X161056000Y-81750000D01*
X161056000Y-75750000D01*
%TO.C,U2*%
X91630000Y-85755000D02*
X132270000Y-85755000D01*
X91630000Y-99485000D02*
X91630000Y-85755000D01*
X92630000Y-100485000D02*
X91630000Y-99485000D01*
X132270000Y-85755000D02*
X132270000Y-100485000D01*
X132270000Y-100485000D02*
X92630000Y-100485000D01*
X91570000Y-84230000D02*
X132330000Y-84230000D01*
X132330000Y-102010000D01*
X91570000Y-102010000D01*
X91570000Y-84230000D01*
%TO.C,U3*%
X138664000Y-50927000D02*
X158984000Y-50927000D01*
X138664000Y-56277000D02*
X138664000Y-50927000D01*
X139664000Y-57277000D02*
X138664000Y-56277000D01*
X158984000Y-50927000D02*
X158984000Y-57277000D01*
X158984000Y-57277000D02*
X139664000Y-57277000D01*
X138604000Y-49022000D02*
X159044000Y-49022000D01*
X159044000Y-59182000D01*
X138604000Y-59182000D01*
X138604000Y-49022000D01*
%TO.C,CE1*%
D12*
X86302000Y-67344000D02*
X86302000Y-109554000D01*
X86302000Y-109554000D02*
X96832000Y-109554000D01*
X96832000Y-109554000D02*
X96832000Y-119544000D01*
X96832000Y-119544000D02*
X108942000Y-119544000D01*
X108942000Y-119544000D02*
X108942000Y-130484000D01*
X109742000Y-130284000D02*
X109742000Y-130684000D01*
X109742000Y-131284000D02*
X173582000Y-131284000D01*
X109952000Y-130484000D02*
X109552000Y-130484000D01*
X113352000Y-110380000D02*
X113752000Y-110380000D01*
X113537000Y-110584000D02*
X113537000Y-110184000D01*
X169528545Y-115734000D02*
X169528545Y-115334000D01*
X169702000Y-115548612D02*
X169302000Y-115548612D01*
X173582000Y-130234000D02*
X173582000Y-130634000D01*
X173802000Y-130484000D02*
X173402000Y-130484000D01*
X174382000Y-119544000D02*
X187002000Y-119544000D01*
X174382000Y-130484000D02*
X174382000Y-119544000D01*
X187002000Y-67344000D02*
X86302000Y-67344000D01*
X187002000Y-119544000D02*
X187002000Y-67344000D01*
X109742000Y-131284000D02*
G75*
G02*
X108942000Y-130484000I1J800001D01*
G01*
X174382000Y-130484000D02*
G75*
G02*
X173582000Y-131284000I-800000J0D01*
G01*
D11*
X115637000Y-110380000D02*
G75*
G02*
X111437000Y-110380000I-2100000J0D01*
G01*
X111437000Y-110380000D02*
G75*
G02*
X115637000Y-110380000I2100000J0D01*
G01*
D12*
X171628545Y-115548612D02*
G75*
G02*
X167428545Y-115548612I-2100000J0D01*
G01*
X167428545Y-115548612D02*
G75*
G02*
X171628545Y-115548612I2100000J0D01*
G01*
%TO.C,U5*%
D11*
X164338000Y-63627000D02*
X184658000Y-63627000D01*
X164338000Y-68977000D02*
X164338000Y-63627000D01*
X165338000Y-69977000D02*
X164338000Y-68977000D01*
X184658000Y-63627000D02*
X184658000Y-69977000D01*
X184658000Y-69977000D02*
X165338000Y-69977000D01*
X164278000Y-61722000D02*
X184718000Y-61722000D01*
X184718000Y-71882000D01*
X164278000Y-71882000D01*
X164278000Y-61722000D01*
%TO.C,U11*%
X138684000Y-76571000D02*
X159004000Y-76571000D01*
X138684000Y-81921000D02*
X138684000Y-76571000D01*
X139684000Y-82921000D02*
X138684000Y-81921000D01*
X159004000Y-76571000D02*
X159004000Y-82921000D01*
X159004000Y-82921000D02*
X139684000Y-82921000D01*
X138624000Y-74666000D02*
X159064000Y-74666000D01*
X159064000Y-84826000D01*
X138624000Y-84826000D01*
X138624000Y-74666000D01*
%TO.C,U10*%
X138933000Y-90287000D02*
X156713000Y-90287000D01*
X138933000Y-95637000D02*
X138933000Y-90287000D01*
X139933000Y-96637000D02*
X138933000Y-95637000D01*
X156713000Y-90287000D02*
X156713000Y-96637000D01*
X156713000Y-96637000D02*
X139933000Y-96637000D01*
X138873000Y-88382000D02*
X156773000Y-88382000D01*
X156773000Y-98542000D01*
X138873000Y-98542000D01*
X138873000Y-88382000D01*
%TO.C,C3*%
X134884000Y-49792000D02*
X137384000Y-49792000D01*
X137384000Y-55792000D01*
X134884000Y-55792000D01*
X134884000Y-49792000D01*
%TO.C,RN2*%
X121158000Y-53614000D02*
X121158000Y-56114000D01*
X118598000Y-53614000D02*
X131338000Y-53614000D01*
X131338000Y-56114000D01*
X118598000Y-56114000D01*
X118598000Y-53614000D01*
%TO.C,C7*%
X87904000Y-85138000D02*
X90404000Y-85138000D01*
X90404000Y-91138000D01*
X87904000Y-91138000D01*
X87904000Y-85138000D01*
%TO.C,U6*%
X138933000Y-103495000D02*
X156713000Y-103495000D01*
X138933000Y-108845000D02*
X138933000Y-103495000D01*
X139933000Y-109845000D02*
X138933000Y-108845000D01*
X156713000Y-103495000D02*
X156713000Y-109845000D01*
X156713000Y-109845000D02*
X139933000Y-109845000D01*
X138873000Y-101590000D02*
X156773000Y-101590000D01*
X156773000Y-111750000D01*
X138873000Y-111750000D01*
X138873000Y-101590000D01*
%TO.C,U9*%
X164084000Y-103505000D02*
X181864000Y-103505000D01*
X164084000Y-108855000D02*
X164084000Y-103505000D01*
X165084000Y-109855000D02*
X164084000Y-108855000D01*
X181864000Y-103505000D02*
X181864000Y-109855000D01*
X181864000Y-109855000D02*
X165084000Y-109855000D01*
X164024000Y-101600000D02*
X181924000Y-101600000D01*
X181924000Y-111760000D01*
X164024000Y-111760000D01*
X164024000Y-101600000D01*
%TO.C,C5*%
X134894000Y-61984000D02*
X137394000Y-61984000D01*
X137394000Y-67984000D01*
X134894000Y-67984000D01*
X134894000Y-61984000D01*
%TO.C,C10*%
X160304000Y-102176000D02*
X162804000Y-102176000D01*
X162804000Y-108176000D01*
X160304000Y-108176000D01*
X160304000Y-102176000D01*
%TO.C,U1*%
X163820000Y-50917000D02*
X184140000Y-50917000D01*
X163820000Y-56267000D02*
X163820000Y-50917000D01*
X164820000Y-57267000D02*
X163820000Y-56267000D01*
X184140000Y-50917000D02*
X184140000Y-57267000D01*
X184140000Y-57267000D02*
X164820000Y-57267000D01*
X163760000Y-49012000D02*
X184200000Y-49012000D01*
X184200000Y-59172000D01*
X163760000Y-59172000D01*
X163760000Y-49012000D01*
%TD*%
M02*
