%TF.GenerationSoftware,KiCad,Pcbnew,10.0.4*%
%TF.CreationDate,2026-07-26T00:03:41+09:00*%
%TF.ProjectId,project_mega_ram,70726f6a-6563-4745-9f6d-6567615f7261,1.0*%
%TF.SameCoordinates,Original*%
%TF.FileFunction,Profile,NP*%
%FSLAX46Y46*%
G04 Gerber Fmt 4.6, Leading zero omitted, Abs format (unit mm)*
G04 Created by KiCad (PCBNEW 10.0.4) date 2026-07-26 00:03:41*
%MOMM*%
%LPD*%
G01*
G04 APERTURE LIST*
%TA.AperFunction,Profile*%
%ADD10C,0.100000*%
%TD*%
G04 APERTURE END LIST*
D10*
X86291067Y-45212000D02*
X86291067Y-43942000D01*
X86291067Y-46556844D02*
X86291067Y-45212000D01*
X86294698Y-109575621D02*
X86291067Y-46556844D01*
X86294698Y-109575621D02*
X96832135Y-109575621D01*
X96831957Y-119545345D02*
X96832135Y-109575621D01*
X96831957Y-119545345D02*
X108946979Y-119545560D01*
X108946979Y-119545560D02*
X108939971Y-130486589D01*
X109740225Y-131283200D02*
G75*
G02*
X108939909Y-130486589I-25J800300D01*
G01*
X109740225Y-131283200D02*
X173587993Y-131272970D01*
X115646387Y-110377306D02*
G75*
G02*
X111431367Y-110377306I-2107510J0D01*
G01*
X111431367Y-110377306D02*
G75*
G02*
X115646387Y-110377306I2107510J0D01*
G01*
X171678309Y-115545128D02*
G75*
G02*
X167377817Y-115545128I-2150246J0D01*
G01*
X167377817Y-115545128D02*
G75*
G02*
X171678309Y-115545128I2150246J0D01*
G01*
X174373518Y-119540187D02*
X187001367Y-119535655D01*
X174380441Y-130479441D02*
G75*
G02*
X173587993Y-131272940I-793541J41D01*
G01*
X174380441Y-130479441D02*
X174373518Y-119540187D01*
X186958592Y-43940392D02*
X86291067Y-43942000D01*
X186958592Y-45210392D02*
X186958592Y-43940392D01*
X186958592Y-46555236D02*
X186958592Y-45210392D01*
X187001367Y-119535655D02*
X186958592Y-46555236D01*
M02*
