%TF.GenerationSoftware,KiCad,Pcbnew,10.0.4*%
%TF.CreationDate,2026-07-26T00:04:54+09:00*%
%TF.ProjectId,project_mega_ram,70726f6a-6563-4745-9f6d-6567615f7261,1.0*%
%TF.SameCoordinates,Original*%
%TF.FileFunction,Drillmap*%
%TF.FilePolarity,Positive*%
%FSLAX45Y45*%
G04 Gerber Fmt 4.5, Leading zero omitted, Abs format (unit mm)*
G04 Created by KiCad (PCBNEW 10.0.4) date 2026-07-26 00:04:54*
%MOMM*%
%LPD*%
G01*
G04 APERTURE LIST*
%ADD10C,0.100000*%
%ADD11C,0.200000*%
G04 APERTURE END LIST*
D10*
X8629107Y-4521200D02*
X8629107Y-4394200D01*
X8629107Y-4655684D02*
X8629107Y-4521200D01*
X8629470Y-10957562D02*
X8629107Y-4655684D01*
X8629470Y-10957562D02*
X9683214Y-10957562D01*
X9683196Y-11954534D02*
X9683214Y-10957562D01*
X9683196Y-11954534D02*
X10894698Y-11954556D01*
X10894698Y-11954556D02*
X10893997Y-13048659D01*
X10974023Y-13128320D02*
G75*
G02*
X10893991Y-13048659I-3J80030D01*
G01*
X10974023Y-13128320D02*
X17358799Y-13127297D01*
X11564639Y-11037731D02*
G75*
G02*
X11143137Y-11037731I-210751J0D01*
G01*
X11143137Y-11037731D02*
G75*
G02*
X11564639Y-11037731I210751J0D01*
G01*
X17167831Y-11554513D02*
G75*
G02*
X16737782Y-11554513I-215025J0D01*
G01*
X16737782Y-11554513D02*
G75*
G02*
X17167831Y-11554513I215025J0D01*
G01*
X17437352Y-11954019D02*
X18700137Y-11953565D01*
X17438044Y-13047944D02*
G75*
G02*
X17358799Y-13127294I-79354J4D01*
G01*
X17438044Y-13047944D02*
X17437352Y-11954019D01*
X18695859Y-4394039D02*
X8629107Y-4394200D01*
X18695859Y-4521039D02*
X18695859Y-4394039D01*
X18695859Y-4655524D02*
X18695859Y-4521039D01*
X18700137Y-11953565D02*
X18695859Y-4655524D01*
D11*
D10*
X13345400Y-7224000D02*
X13375400Y-7254000D01*
X13375400Y-7224000D02*
X13345400Y-7254000D01*
X13364000Y-7327062D02*
X13394000Y-7357062D01*
X13394000Y-7327062D02*
X13364000Y-7357062D01*
X13701000Y-5192000D02*
X13731000Y-5222000D01*
X13731000Y-5192000D02*
X13701000Y-5222000D01*
X13955000Y-5344400D02*
X13985000Y-5374400D01*
X13985000Y-5344400D02*
X13955000Y-5374400D01*
X14110000Y-4865900D02*
X14140000Y-4895900D01*
X14140000Y-4865900D02*
X14110000Y-4895900D01*
X14110000Y-5242800D02*
X14140000Y-5272800D01*
X14140000Y-5242800D02*
X14110000Y-5272800D01*
X14284800Y-5395200D02*
X14314800Y-5425200D01*
X14314800Y-5395200D02*
X14284800Y-5425200D01*
X8940600Y-5424800D02*
G75*
G02*
X8900600Y-5424800I-20000J0D01*
G01*
X8900600Y-5424800D02*
G75*
G02*
X8940600Y-5424800I20000J0D01*
G01*
X8940600Y-5628000D02*
G75*
G02*
X8900600Y-5628000I-20000J0D01*
G01*
X8900600Y-5628000D02*
G75*
G02*
X8940600Y-5628000I20000J0D01*
G01*
X9118400Y-5424800D02*
G75*
G02*
X9078400Y-5424800I-20000J0D01*
G01*
X9078400Y-5424800D02*
G75*
G02*
X9118400Y-5424800I20000J0D01*
G01*
X9118400Y-5628000D02*
G75*
G02*
X9078400Y-5628000I-20000J0D01*
G01*
X9078400Y-5628000D02*
G75*
G02*
X9118400Y-5628000I20000J0D01*
G01*
X9316400Y-10363200D02*
G75*
G02*
X9276400Y-10363200I-20000J0D01*
G01*
X9276400Y-10363200D02*
G75*
G02*
X9316400Y-10363200I20000J0D01*
G01*
X9321600Y-5424800D02*
G75*
G02*
X9281600Y-5424800I-20000J0D01*
G01*
X9281600Y-5424800D02*
G75*
G02*
X9321600Y-5424800I20000J0D01*
G01*
X9321600Y-5628000D02*
G75*
G02*
X9281600Y-5628000I-20000J0D01*
G01*
X9281600Y-5628000D02*
G75*
G02*
X9321600Y-5628000I20000J0D01*
G01*
X9494200Y-10363200D02*
G75*
G02*
X9454200Y-10363200I-20000J0D01*
G01*
X9454200Y-10363200D02*
G75*
G02*
X9494200Y-10363200I20000J0D01*
G01*
X9495000Y-5425000D02*
G75*
G02*
X9455000Y-5425000I-20000J0D01*
G01*
X9455000Y-5425000D02*
G75*
G02*
X9495000Y-5425000I20000J0D01*
G01*
X9495000Y-5625000D02*
G75*
G02*
X9455000Y-5625000I-20000J0D01*
G01*
X9455000Y-5625000D02*
G75*
G02*
X9495000Y-5625000I20000J0D01*
G01*
X9645000Y-5425000D02*
G75*
G02*
X9605000Y-5425000I-20000J0D01*
G01*
X9605000Y-5425000D02*
G75*
G02*
X9645000Y-5425000I20000J0D01*
G01*
X9672000Y-10363200D02*
G75*
G02*
X9632000Y-10363200I-20000J0D01*
G01*
X9632000Y-10363200D02*
G75*
G02*
X9672000Y-10363200I20000J0D01*
G01*
X11475400Y-4851400D02*
G75*
G02*
X11435400Y-4851400I-20000J0D01*
G01*
X11435400Y-4851400D02*
G75*
G02*
X11475400Y-4851400I20000J0D01*
G01*
X11621871Y-4845471D02*
G75*
G02*
X11581871Y-4845471I-20000J0D01*
G01*
X11581871Y-4845471D02*
G75*
G02*
X11621871Y-4845471I20000J0D01*
G01*
X11627800Y-4978400D02*
G75*
G02*
X11587800Y-4978400I-20000J0D01*
G01*
X11587800Y-4978400D02*
G75*
G02*
X11627800Y-4978400I20000J0D01*
G01*
X12008800Y-5207000D02*
G75*
G02*
X11968800Y-5207000I-20000J0D01*
G01*
X11968800Y-5207000D02*
G75*
G02*
X12008800Y-5207000I20000J0D01*
G01*
X12008800Y-5765800D02*
G75*
G02*
X11968800Y-5765800I-20000J0D01*
G01*
X11968800Y-5765800D02*
G75*
G02*
X12008800Y-5765800I20000J0D01*
G01*
X12135800Y-5207000D02*
G75*
G02*
X12095800Y-5207000I-20000J0D01*
G01*
X12095800Y-5207000D02*
G75*
G02*
X12135800Y-5207000I20000J0D01*
G01*
X12161200Y-5765800D02*
G75*
G02*
X12121200Y-5765800I-20000J0D01*
G01*
X12121200Y-5765800D02*
G75*
G02*
X12161200Y-5765800I20000J0D01*
G01*
X12313600Y-5765800D02*
G75*
G02*
X12273600Y-5765800I-20000J0D01*
G01*
X12273600Y-5765800D02*
G75*
G02*
X12313600Y-5765800I20000J0D01*
G01*
X12516800Y-11988800D02*
G75*
G02*
X12476800Y-11988800I-20000J0D01*
G01*
X12476800Y-11988800D02*
G75*
G02*
X12516800Y-11988800I20000J0D01*
G01*
X12645000Y-11248500D02*
G75*
G02*
X12605000Y-11248500I-20000J0D01*
G01*
X12605000Y-11248500D02*
G75*
G02*
X12645000Y-11248500I20000J0D01*
G01*
X12745400Y-11988800D02*
G75*
G02*
X12705400Y-11988800I-20000J0D01*
G01*
X12705400Y-11988800D02*
G75*
G02*
X12745400Y-11988800I20000J0D01*
G01*
X12897800Y-6934200D02*
G75*
G02*
X12857800Y-6934200I-20000J0D01*
G01*
X12857800Y-6934200D02*
G75*
G02*
X12897800Y-6934200I20000J0D01*
G01*
X12897800Y-7061200D02*
G75*
G02*
X12857800Y-7061200I-20000J0D01*
G01*
X12857800Y-7061200D02*
G75*
G02*
X12897800Y-7061200I20000J0D01*
G01*
X12920000Y-9150000D02*
G75*
G02*
X12880000Y-9150000I-20000J0D01*
G01*
X12880000Y-9150000D02*
G75*
G02*
X12920000Y-9150000I20000J0D01*
G01*
X12920000Y-9300000D02*
G75*
G02*
X12880000Y-9300000I-20000J0D01*
G01*
X12880000Y-9300000D02*
G75*
G02*
X12920000Y-9300000I20000J0D01*
G01*
X12920000Y-9450000D02*
G75*
G02*
X12880000Y-9450000I-20000J0D01*
G01*
X12880000Y-9450000D02*
G75*
G02*
X12920000Y-9450000I20000J0D01*
G01*
X12944900Y-11996992D02*
G75*
G02*
X12904900Y-11996992I-20000J0D01*
G01*
X12904900Y-11996992D02*
G75*
G02*
X12944900Y-11996992I20000J0D01*
G01*
X13020000Y-9150000D02*
G75*
G02*
X12980000Y-9150000I-20000J0D01*
G01*
X12980000Y-9150000D02*
G75*
G02*
X13020000Y-9150000I20000J0D01*
G01*
X13020000Y-9300000D02*
G75*
G02*
X12980000Y-9300000I-20000J0D01*
G01*
X12980000Y-9300000D02*
G75*
G02*
X13020000Y-9300000I20000J0D01*
G01*
X13020000Y-9450000D02*
G75*
G02*
X12980000Y-9450000I-20000J0D01*
G01*
X12980000Y-9450000D02*
G75*
G02*
X13020000Y-9450000I20000J0D01*
G01*
X13120000Y-9300000D02*
G75*
G02*
X13080000Y-9300000I-20000J0D01*
G01*
X13080000Y-9300000D02*
G75*
G02*
X13120000Y-9300000I20000J0D01*
G01*
X13120000Y-9450000D02*
G75*
G02*
X13080000Y-9450000I-20000J0D01*
G01*
X13080000Y-9450000D02*
G75*
G02*
X13120000Y-9450000I20000J0D01*
G01*
X13126400Y-7061200D02*
G75*
G02*
X13086400Y-7061200I-20000J0D01*
G01*
X13086400Y-7061200D02*
G75*
G02*
X13126400Y-7061200I20000J0D01*
G01*
X13126400Y-7391400D02*
G75*
G02*
X13086400Y-7391400I-20000J0D01*
G01*
X13086400Y-7391400D02*
G75*
G02*
X13126400Y-7391400I20000J0D01*
G01*
X13126400Y-8175000D02*
G75*
G02*
X13086400Y-8175000I-20000J0D01*
G01*
X13086400Y-8175000D02*
G75*
G02*
X13126400Y-8175000I20000J0D01*
G01*
X13126400Y-9150000D02*
G75*
G02*
X13086400Y-9150000I-20000J0D01*
G01*
X13086400Y-9150000D02*
G75*
G02*
X13126400Y-9150000I20000J0D01*
G01*
X13170184Y-12007184D02*
G75*
G02*
X13130184Y-12007184I-20000J0D01*
G01*
X13130184Y-12007184D02*
G75*
G02*
X13170184Y-12007184I20000J0D01*
G01*
X13228000Y-5511800D02*
G75*
G02*
X13188000Y-5511800I-20000J0D01*
G01*
X13188000Y-5511800D02*
G75*
G02*
X13228000Y-5511800I20000J0D01*
G01*
X13228000Y-5613400D02*
G75*
G02*
X13188000Y-5613400I-20000J0D01*
G01*
X13188000Y-5613400D02*
G75*
G02*
X13228000Y-5613400I20000J0D01*
G01*
X13253400Y-11531600D02*
G75*
G02*
X13213400Y-11531600I-20000J0D01*
G01*
X13213400Y-11531600D02*
G75*
G02*
X13253400Y-11531600I20000J0D01*
G01*
X13329600Y-5003800D02*
G75*
G02*
X13289600Y-5003800I-20000J0D01*
G01*
X13289600Y-5003800D02*
G75*
G02*
X13329600Y-5003800I20000J0D01*
G01*
X13329600Y-11988800D02*
G75*
G02*
X13289600Y-11988800I-20000J0D01*
G01*
X13289600Y-11988800D02*
G75*
G02*
X13329600Y-11988800I20000J0D01*
G01*
X13370137Y-11684000D02*
G75*
G02*
X13330137Y-11684000I-20000J0D01*
G01*
X13330137Y-11684000D02*
G75*
G02*
X13370137Y-11684000I20000J0D01*
G01*
X13405800Y-11408350D02*
G75*
G02*
X13365800Y-11408350I-20000J0D01*
G01*
X13365800Y-11408350D02*
G75*
G02*
X13405800Y-11408350I20000J0D01*
G01*
X13431200Y-6273800D02*
G75*
G02*
X13391200Y-6273800I-20000J0D01*
G01*
X13391200Y-6273800D02*
G75*
G02*
X13431200Y-6273800I20000J0D01*
G01*
X13532370Y-11405030D02*
G75*
G02*
X13492370Y-11405030I-20000J0D01*
G01*
X13492370Y-11405030D02*
G75*
G02*
X13532370Y-11405030I20000J0D01*
G01*
X13634317Y-11191078D02*
G75*
G02*
X13594317Y-11191078I-20000J0D01*
G01*
X13594317Y-11191078D02*
G75*
G02*
X13634317Y-11191078I20000J0D01*
G01*
X13634400Y-7848600D02*
G75*
G02*
X13594400Y-7848600I-20000J0D01*
G01*
X13594400Y-7848600D02*
G75*
G02*
X13634400Y-7848600I20000J0D01*
G01*
X13659800Y-6959600D02*
G75*
G02*
X13619800Y-6959600I-20000J0D01*
G01*
X13619800Y-6959600D02*
G75*
G02*
X13659800Y-6959600I20000J0D01*
G01*
X13659800Y-7086600D02*
G75*
G02*
X13619800Y-7086600I-20000J0D01*
G01*
X13619800Y-7086600D02*
G75*
G02*
X13659800Y-7086600I20000J0D01*
G01*
X13680100Y-11985050D02*
G75*
G02*
X13640100Y-11985050I-20000J0D01*
G01*
X13640100Y-11985050D02*
G75*
G02*
X13680100Y-11985050I20000J0D01*
G01*
X13706845Y-11122305D02*
G75*
G02*
X13666845Y-11122305I-20000J0D01*
G01*
X13666845Y-11122305D02*
G75*
G02*
X13706845Y-11122305I20000J0D01*
G01*
X13710600Y-6477000D02*
G75*
G02*
X13670600Y-6477000I-20000J0D01*
G01*
X13670600Y-6477000D02*
G75*
G02*
X13710600Y-6477000I20000J0D01*
G01*
X13929381Y-11985050D02*
G75*
G02*
X13889381Y-11985050I-20000J0D01*
G01*
X13889381Y-11985050D02*
G75*
G02*
X13929381Y-11985050I20000J0D01*
G01*
X14015400Y-7823200D02*
G75*
G02*
X13975400Y-7823200I-20000J0D01*
G01*
X13975400Y-7823200D02*
G75*
G02*
X14015400Y-7823200I20000J0D01*
G01*
X14015400Y-8001000D02*
G75*
G02*
X13975400Y-8001000I-20000J0D01*
G01*
X13975400Y-8001000D02*
G75*
G02*
X14015400Y-8001000I20000J0D01*
G01*
X14015400Y-11328400D02*
G75*
G02*
X13975400Y-11328400I-20000J0D01*
G01*
X13975400Y-11328400D02*
G75*
G02*
X14015400Y-11328400I20000J0D01*
G01*
X14117000Y-11988800D02*
G75*
G02*
X14077000Y-11988800I-20000J0D01*
G01*
X14077000Y-11988800D02*
G75*
G02*
X14117000Y-11988800I20000J0D01*
G01*
X14142400Y-6629400D02*
G75*
G02*
X14102400Y-6629400I-20000J0D01*
G01*
X14102400Y-6629400D02*
G75*
G02*
X14142400Y-6629400I20000J0D01*
G01*
X14170000Y-11738500D02*
G75*
G02*
X14130000Y-11738500I-20000J0D01*
G01*
X14130000Y-11738500D02*
G75*
G02*
X14170000Y-11738500I20000J0D01*
G01*
X14269400Y-6451600D02*
G75*
G02*
X14229400Y-6451600I-20000J0D01*
G01*
X14229400Y-6451600D02*
G75*
G02*
X14269400Y-6451600I20000J0D01*
G01*
X14270000Y-11985100D02*
G75*
G02*
X14230000Y-11985100I-20000J0D01*
G01*
X14230000Y-11985100D02*
G75*
G02*
X14270000Y-11985100I20000J0D01*
G01*
X14322639Y-11700009D02*
G75*
G02*
X14282639Y-11700009I-20000J0D01*
G01*
X14282639Y-11700009D02*
G75*
G02*
X14322639Y-11700009I20000J0D01*
G01*
X14396400Y-11988800D02*
G75*
G02*
X14356400Y-11988800I-20000J0D01*
G01*
X14356400Y-11988800D02*
G75*
G02*
X14396400Y-11988800I20000J0D01*
G01*
X14472600Y-7442200D02*
G75*
G02*
X14432600Y-7442200I-20000J0D01*
G01*
X14432600Y-7442200D02*
G75*
G02*
X14472600Y-7442200I20000J0D01*
G01*
X14472600Y-11633200D02*
G75*
G02*
X14432600Y-11633200I-20000J0D01*
G01*
X14432600Y-11633200D02*
G75*
G02*
X14472600Y-11633200I20000J0D01*
G01*
X14498000Y-6858000D02*
G75*
G02*
X14458000Y-6858000I-20000J0D01*
G01*
X14458000Y-6858000D02*
G75*
G02*
X14498000Y-6858000I20000J0D01*
G01*
X14523400Y-8026400D02*
G75*
G02*
X14483400Y-8026400I-20000J0D01*
G01*
X14483400Y-8026400D02*
G75*
G02*
X14523400Y-8026400I20000J0D01*
G01*
X14548800Y-11988800D02*
G75*
G02*
X14508800Y-11988800I-20000J0D01*
G01*
X14508800Y-11988800D02*
G75*
G02*
X14548800Y-11988800I20000J0D01*
G01*
X14701200Y-7442200D02*
G75*
G02*
X14661200Y-7442200I-20000J0D01*
G01*
X14661200Y-7442200D02*
G75*
G02*
X14701200Y-7442200I20000J0D01*
G01*
X14726600Y-11557000D02*
G75*
G02*
X14686600Y-11557000I-20000J0D01*
G01*
X14686600Y-11557000D02*
G75*
G02*
X14726600Y-11557000I20000J0D01*
G01*
X14802800Y-11760200D02*
G75*
G02*
X14762800Y-11760200I-20000J0D01*
G01*
X14762800Y-11760200D02*
G75*
G02*
X14802800Y-11760200I20000J0D01*
G01*
X15056800Y-6553200D02*
G75*
G02*
X15016800Y-6553200I-20000J0D01*
G01*
X15016800Y-6553200D02*
G75*
G02*
X15056800Y-6553200I20000J0D01*
G01*
X15107600Y-5232400D02*
G75*
G02*
X15067600Y-5232400I-20000J0D01*
G01*
X15067600Y-5232400D02*
G75*
G02*
X15107600Y-5232400I20000J0D01*
G01*
X15107600Y-8026400D02*
G75*
G02*
X15067600Y-8026400I-20000J0D01*
G01*
X15067600Y-8026400D02*
G75*
G02*
X15107600Y-8026400I20000J0D01*
G01*
X15120000Y-11750000D02*
G75*
G02*
X15080000Y-11750000I-20000J0D01*
G01*
X15080000Y-11750000D02*
G75*
G02*
X15120000Y-11750000I20000J0D01*
G01*
X15183800Y-11557000D02*
G75*
G02*
X15143800Y-11557000I-20000J0D01*
G01*
X15143800Y-11557000D02*
G75*
G02*
X15183800Y-11557000I20000J0D01*
G01*
X15285400Y-8026400D02*
G75*
G02*
X15245400Y-8026400I-20000J0D01*
G01*
X15245400Y-8026400D02*
G75*
G02*
X15285400Y-8026400I20000J0D01*
G01*
X15336200Y-5588000D02*
G75*
G02*
X15296200Y-5588000I-20000J0D01*
G01*
X15296200Y-5588000D02*
G75*
G02*
X15336200Y-5588000I20000J0D01*
G01*
X15370000Y-11750000D02*
G75*
G02*
X15330000Y-11750000I-20000J0D01*
G01*
X15330000Y-11750000D02*
G75*
G02*
X15370000Y-11750000I20000J0D01*
G01*
X15437800Y-5588000D02*
G75*
G02*
X15397800Y-5588000I-20000J0D01*
G01*
X15397800Y-5588000D02*
G75*
G02*
X15437800Y-5588000I20000J0D01*
G01*
X15463200Y-8026400D02*
G75*
G02*
X15423200Y-8026400I-20000J0D01*
G01*
X15423200Y-8026400D02*
G75*
G02*
X15463200Y-8026400I20000J0D01*
G01*
X15539400Y-5588000D02*
G75*
G02*
X15499400Y-5588000I-20000J0D01*
G01*
X15499400Y-5588000D02*
G75*
G02*
X15539400Y-5588000I20000J0D01*
G01*
X15564800Y-9347200D02*
G75*
G02*
X15524800Y-9347200I-20000J0D01*
G01*
X15524800Y-9347200D02*
G75*
G02*
X15564800Y-9347200I20000J0D01*
G01*
X15564800Y-9499600D02*
G75*
G02*
X15524800Y-9499600I-20000J0D01*
G01*
X15524800Y-9499600D02*
G75*
G02*
X15564800Y-9499600I20000J0D01*
G01*
X15595000Y-6500000D02*
G75*
G02*
X15555000Y-6500000I-20000J0D01*
G01*
X15555000Y-6500000D02*
G75*
G02*
X15595000Y-6500000I20000J0D01*
G01*
X15595000Y-6850000D02*
G75*
G02*
X15555000Y-6850000I-20000J0D01*
G01*
X15555000Y-6850000D02*
G75*
G02*
X15595000Y-6850000I20000J0D01*
G01*
X15615600Y-11557000D02*
G75*
G02*
X15575600Y-11557000I-20000J0D01*
G01*
X15575600Y-11557000D02*
G75*
G02*
X15615600Y-11557000I20000J0D01*
G01*
X15695000Y-6500000D02*
G75*
G02*
X15655000Y-6500000I-20000J0D01*
G01*
X15655000Y-6500000D02*
G75*
G02*
X15695000Y-6500000I20000J0D01*
G01*
X15695000Y-6850000D02*
G75*
G02*
X15655000Y-6850000I-20000J0D01*
G01*
X15655000Y-6850000D02*
G75*
G02*
X15695000Y-6850000I20000J0D01*
G01*
X15795000Y-6502400D02*
G75*
G02*
X15755000Y-6502400I-20000J0D01*
G01*
X15755000Y-6502400D02*
G75*
G02*
X15795000Y-6502400I20000J0D01*
G01*
X15795000Y-6850000D02*
G75*
G02*
X15755000Y-6850000I-20000J0D01*
G01*
X15755000Y-6850000D02*
G75*
G02*
X15795000Y-6850000I20000J0D01*
G01*
X15795000Y-11800000D02*
G75*
G02*
X15755000Y-11800000I-20000J0D01*
G01*
X15755000Y-11800000D02*
G75*
G02*
X15795000Y-11800000I20000J0D01*
G01*
X15845000Y-5575000D02*
G75*
G02*
X15805000Y-5575000I-20000J0D01*
G01*
X15805000Y-5575000D02*
G75*
G02*
X15845000Y-5575000I20000J0D01*
G01*
X15869600Y-7950200D02*
G75*
G02*
X15829600Y-7950200I-20000J0D01*
G01*
X15829600Y-7950200D02*
G75*
G02*
X15869600Y-7950200I20000J0D01*
G01*
X15895000Y-6500000D02*
G75*
G02*
X15855000Y-6500000I-20000J0D01*
G01*
X15855000Y-6500000D02*
G75*
G02*
X15895000Y-6500000I20000J0D01*
G01*
X15895000Y-6850000D02*
G75*
G02*
X15855000Y-6850000I-20000J0D01*
G01*
X15855000Y-6850000D02*
G75*
G02*
X15895000Y-6850000I20000J0D01*
G01*
X16199800Y-5791200D02*
G75*
G02*
X16159800Y-5791200I-20000J0D01*
G01*
X16159800Y-5791200D02*
G75*
G02*
X16199800Y-5791200I20000J0D01*
G01*
X16220000Y-7000000D02*
G75*
G02*
X16180000Y-7000000I-20000J0D01*
G01*
X16180000Y-7000000D02*
G75*
G02*
X16220000Y-7000000I20000J0D01*
G01*
X16250600Y-7950200D02*
G75*
G02*
X16210600Y-7950200I-20000J0D01*
G01*
X16210600Y-7950200D02*
G75*
G02*
X16250600Y-7950200I20000J0D01*
G01*
X16250600Y-8305800D02*
G75*
G02*
X16210600Y-8305800I-20000J0D01*
G01*
X16210600Y-8305800D02*
G75*
G02*
X16250600Y-8305800I20000J0D01*
G01*
X16320000Y-7000000D02*
G75*
G02*
X16280000Y-7000000I-20000J0D01*
G01*
X16280000Y-7000000D02*
G75*
G02*
X16320000Y-7000000I20000J0D01*
G01*
X16530000Y-5562600D02*
G75*
G02*
X16490000Y-5562600I-20000J0D01*
G01*
X16490000Y-5562600D02*
G75*
G02*
X16530000Y-5562600I20000J0D01*
G01*
X16530000Y-10820400D02*
G75*
G02*
X16490000Y-10820400I-20000J0D01*
G01*
X16490000Y-10820400D02*
G75*
G02*
X16530000Y-10820400I20000J0D01*
G01*
X16555400Y-8175000D02*
G75*
G02*
X16515400Y-8175000I-20000J0D01*
G01*
X16515400Y-8175000D02*
G75*
G02*
X16555400Y-8175000I20000J0D01*
G01*
X16631600Y-6527800D02*
G75*
G02*
X16591600Y-6527800I-20000J0D01*
G01*
X16591600Y-6527800D02*
G75*
G02*
X16631600Y-6527800I20000J0D01*
G01*
X16631600Y-6705600D02*
G75*
G02*
X16591600Y-6705600I-20000J0D01*
G01*
X16591600Y-6705600D02*
G75*
G02*
X16631600Y-6705600I20000J0D01*
G01*
X16657000Y-10820400D02*
G75*
G02*
X16617000Y-10820400I-20000J0D01*
G01*
X16617000Y-10820400D02*
G75*
G02*
X16657000Y-10820400I20000J0D01*
G01*
X16834800Y-6527800D02*
G75*
G02*
X16794800Y-6527800I-20000J0D01*
G01*
X16794800Y-6527800D02*
G75*
G02*
X16834800Y-6527800I20000J0D01*
G01*
X16834800Y-8175000D02*
G75*
G02*
X16794800Y-8175000I-20000J0D01*
G01*
X16794800Y-8175000D02*
G75*
G02*
X16834800Y-8175000I20000J0D01*
G01*
X16961800Y-5461000D02*
G75*
G02*
X16921800Y-5461000I-20000J0D01*
G01*
X16921800Y-5461000D02*
G75*
G02*
X16961800Y-5461000I20000J0D01*
G01*
X16970000Y-6050000D02*
G75*
G02*
X16930000Y-6050000I-20000J0D01*
G01*
X16930000Y-6050000D02*
G75*
G02*
X16970000Y-6050000I20000J0D01*
G01*
X17063400Y-8026400D02*
G75*
G02*
X17023400Y-8026400I-20000J0D01*
G01*
X17023400Y-8026400D02*
G75*
G02*
X17063400Y-8026400I20000J0D01*
G01*
X17070000Y-5250000D02*
G75*
G02*
X17030000Y-5250000I-20000J0D01*
G01*
X17030000Y-5250000D02*
G75*
G02*
X17070000Y-5250000I20000J0D01*
G01*
X17070000Y-5350000D02*
G75*
G02*
X17030000Y-5350000I-20000J0D01*
G01*
X17030000Y-5350000D02*
G75*
G02*
X17070000Y-5350000I20000J0D01*
G01*
X17070000Y-5450000D02*
G75*
G02*
X17030000Y-5450000I-20000J0D01*
G01*
X17030000Y-5450000D02*
G75*
G02*
X17070000Y-5450000I20000J0D01*
G01*
X17070000Y-5550000D02*
G75*
G02*
X17030000Y-5550000I-20000J0D01*
G01*
X17030000Y-5550000D02*
G75*
G02*
X17070000Y-5550000I20000J0D01*
G01*
X17070000Y-6050000D02*
G75*
G02*
X17030000Y-6050000I-20000J0D01*
G01*
X17030000Y-6050000D02*
G75*
G02*
X17070000Y-6050000I20000J0D01*
G01*
X17095000Y-8175000D02*
G75*
G02*
X17055000Y-8175000I-20000J0D01*
G01*
X17055000Y-8175000D02*
G75*
G02*
X17095000Y-8175000I20000J0D01*
G01*
X17170000Y-6050000D02*
G75*
G02*
X17130000Y-6050000I-20000J0D01*
G01*
X17130000Y-6050000D02*
G75*
G02*
X17170000Y-6050000I20000J0D01*
G01*
X17190400Y-7833595D02*
G75*
G02*
X17150400Y-7833595I-20000J0D01*
G01*
X17150400Y-7833595D02*
G75*
G02*
X17190400Y-7833595I20000J0D01*
G01*
X17270000Y-6050000D02*
G75*
G02*
X17230000Y-6050000I-20000J0D01*
G01*
X17230000Y-6050000D02*
G75*
G02*
X17270000Y-6050000I20000J0D01*
G01*
X17292000Y-7391400D02*
G75*
G02*
X17252000Y-7391400I-20000J0D01*
G01*
X17252000Y-7391400D02*
G75*
G02*
X17292000Y-7391400I20000J0D01*
G01*
X17342800Y-10591800D02*
G75*
G02*
X17302800Y-10591800I-20000J0D01*
G01*
X17302800Y-10591800D02*
G75*
G02*
X17342800Y-10591800I20000J0D01*
G01*
X17723800Y-7442200D02*
G75*
G02*
X17683800Y-7442200I-20000J0D01*
G01*
X17683800Y-7442200D02*
G75*
G02*
X17723800Y-7442200I20000J0D01*
G01*
X17774600Y-5232400D02*
G75*
G02*
X17734600Y-5232400I-20000J0D01*
G01*
X17734600Y-5232400D02*
G75*
G02*
X17774600Y-5232400I20000J0D01*
G01*
X17825400Y-11475000D02*
G75*
G02*
X17785400Y-11475000I-20000J0D01*
G01*
X17785400Y-11475000D02*
G75*
G02*
X17825400Y-11475000I20000J0D01*
G01*
X17901600Y-7874000D02*
G75*
G02*
X17861600Y-7874000I-20000J0D01*
G01*
X17861600Y-7874000D02*
G75*
G02*
X17901600Y-7874000I20000J0D01*
G01*
X17901600Y-8178800D02*
G75*
G02*
X17861600Y-8178800I-20000J0D01*
G01*
X17861600Y-8178800D02*
G75*
G02*
X17901600Y-8178800I20000J0D01*
G01*
X17925867Y-4912859D02*
G75*
G02*
X17885867Y-4912859I-20000J0D01*
G01*
X17885867Y-4912859D02*
G75*
G02*
X17925867Y-4912859I20000J0D01*
G01*
X17945000Y-11475000D02*
G75*
G02*
X17905000Y-11475000I-20000J0D01*
G01*
X17905000Y-11475000D02*
G75*
G02*
X17945000Y-11475000I20000J0D01*
G01*
X18079400Y-7874000D02*
G75*
G02*
X18039400Y-7874000I-20000J0D01*
G01*
X18039400Y-7874000D02*
G75*
G02*
X18079400Y-7874000I20000J0D01*
G01*
X18079400Y-8178800D02*
G75*
G02*
X18039400Y-8178800I-20000J0D01*
G01*
X18039400Y-8178800D02*
G75*
G02*
X18079400Y-8178800I20000J0D01*
G01*
X18079400Y-9169400D02*
G75*
G02*
X18039400Y-9169400I-20000J0D01*
G01*
X18039400Y-9169400D02*
G75*
G02*
X18079400Y-9169400I20000J0D01*
G01*
X18079400Y-9398000D02*
G75*
G02*
X18039400Y-9398000I-20000J0D01*
G01*
X18039400Y-9398000D02*
G75*
G02*
X18079400Y-9398000I20000J0D01*
G01*
X18095000Y-11475000D02*
G75*
G02*
X18055000Y-11475000I-20000J0D01*
G01*
X18055000Y-11475000D02*
G75*
G02*
X18095000Y-11475000I20000J0D01*
G01*
X18104800Y-6500000D02*
G75*
G02*
X18064800Y-6500000I-20000J0D01*
G01*
X18064800Y-6500000D02*
G75*
G02*
X18104800Y-6500000I20000J0D01*
G01*
X18104800Y-6756400D02*
G75*
G02*
X18064800Y-6756400I-20000J0D01*
G01*
X18064800Y-6756400D02*
G75*
G02*
X18104800Y-6756400I20000J0D01*
G01*
X18295000Y-5300000D02*
G75*
G02*
X18255000Y-5300000I-20000J0D01*
G01*
X18255000Y-5300000D02*
G75*
G02*
X18295000Y-5300000I20000J0D01*
G01*
X18295000Y-5400000D02*
G75*
G02*
X18255000Y-5400000I-20000J0D01*
G01*
X18255000Y-5400000D02*
G75*
G02*
X18295000Y-5400000I20000J0D01*
G01*
X18295000Y-5500000D02*
G75*
G02*
X18255000Y-5500000I-20000J0D01*
G01*
X18255000Y-5500000D02*
G75*
G02*
X18295000Y-5500000I20000J0D01*
G01*
X18295000Y-5600000D02*
G75*
G02*
X18255000Y-5600000I-20000J0D01*
G01*
X18255000Y-5600000D02*
G75*
G02*
X18295000Y-5600000I20000J0D01*
G01*
X18308000Y-6000000D02*
G75*
G02*
X18268000Y-6000000I-20000J0D01*
G01*
X18268000Y-6000000D02*
G75*
G02*
X18308000Y-6000000I20000J0D01*
G01*
X18358800Y-6756400D02*
G75*
G02*
X18318800Y-6756400I-20000J0D01*
G01*
X18318800Y-6756400D02*
G75*
G02*
X18358800Y-6756400I20000J0D01*
G01*
X18358800Y-7518400D02*
G75*
G02*
X18318800Y-7518400I-20000J0D01*
G01*
X18318800Y-7518400D02*
G75*
G02*
X18358800Y-7518400I20000J0D01*
G01*
X18358800Y-7670800D02*
G75*
G02*
X18318800Y-7670800I-20000J0D01*
G01*
X18318800Y-7670800D02*
G75*
G02*
X18358800Y-7670800I20000J0D01*
G01*
X18409600Y-4470400D02*
G75*
G02*
X18369600Y-4470400I-20000J0D01*
G01*
X18369600Y-4470400D02*
G75*
G02*
X18409600Y-4470400I20000J0D01*
G01*
X18498500Y-7962900D02*
G75*
G02*
X18458500Y-7962900I-20000J0D01*
G01*
X18458500Y-7962900D02*
G75*
G02*
X18498500Y-7962900I20000J0D01*
G01*
X18511200Y-4572000D02*
G75*
G02*
X18471200Y-4572000I-20000J0D01*
G01*
X18471200Y-4572000D02*
G75*
G02*
X18511200Y-4572000I20000J0D01*
G01*
X18562000Y-8178800D02*
G75*
G02*
X18522000Y-8178800I-20000J0D01*
G01*
X18522000Y-8178800D02*
G75*
G02*
X18562000Y-8178800I20000J0D01*
G01*
X18562000Y-8331200D02*
G75*
G02*
X18522000Y-8331200I-20000J0D01*
G01*
X18522000Y-8331200D02*
G75*
G02*
X18562000Y-8331200I20000J0D01*
G01*
X18586100Y-7265700D02*
G75*
G02*
X18546100Y-7265700I-20000J0D01*
G01*
X18546100Y-7265700D02*
G75*
G02*
X18586100Y-7265700I20000J0D01*
G01*
X18587400Y-10210800D02*
G75*
G02*
X18547400Y-10210800I-20000J0D01*
G01*
X18547400Y-10210800D02*
G75*
G02*
X18587400Y-10210800I20000J0D01*
G01*
X18612800Y-4699000D02*
G75*
G02*
X18572800Y-4699000I-20000J0D01*
G01*
X18572800Y-4699000D02*
G75*
G02*
X18612800Y-4699000I20000J0D01*
G01*
X8915400Y-6267200D02*
X8915400Y-6347200D01*
X8875400Y-6307200D02*
X8955400Y-6307200D01*
X8915400Y-6767200D02*
X8915400Y-6847200D01*
X8875400Y-6807200D02*
X8955400Y-6807200D01*
X8915400Y-8523800D02*
X8915400Y-8603800D01*
X8875400Y-8563800D02*
X8955400Y-8563800D01*
X8915400Y-9023800D02*
X8915400Y-9103800D01*
X8875400Y-9063800D02*
X8955400Y-9063800D01*
X9290000Y-8510000D02*
X9290000Y-8590000D01*
X9250000Y-8550000D02*
X9330000Y-8550000D01*
X9290000Y-10034000D02*
X9290000Y-10114000D01*
X9250000Y-10074000D02*
X9330000Y-10074000D01*
X9297000Y-6261000D02*
X9297000Y-6341000D01*
X9257000Y-6301000D02*
X9337000Y-6301000D01*
X9297000Y-7785000D02*
X9297000Y-7865000D01*
X9257000Y-7825000D02*
X9337000Y-7825000D01*
X9544000Y-8510000D02*
X9544000Y-8590000D01*
X9504000Y-8550000D02*
X9584000Y-8550000D01*
X9544000Y-10034000D02*
X9544000Y-10114000D01*
X9504000Y-10074000D02*
X9584000Y-10074000D01*
X9551000Y-6261000D02*
X9551000Y-6341000D01*
X9511000Y-6301000D02*
X9591000Y-6301000D01*
X9551000Y-7785000D02*
X9551000Y-7865000D01*
X9511000Y-7825000D02*
X9591000Y-7825000D01*
X9798000Y-8510000D02*
X9798000Y-8590000D01*
X9758000Y-8550000D02*
X9838000Y-8550000D01*
X9798000Y-10034000D02*
X9798000Y-10114000D01*
X9758000Y-10074000D02*
X9838000Y-10074000D01*
X9805000Y-6261000D02*
X9805000Y-6341000D01*
X9765000Y-6301000D02*
X9845000Y-6301000D01*
X9805000Y-7785000D02*
X9805000Y-7865000D01*
X9765000Y-7825000D02*
X9845000Y-7825000D01*
X10052000Y-8510000D02*
X10052000Y-8590000D01*
X10012000Y-8550000D02*
X10092000Y-8550000D01*
X10052000Y-10034000D02*
X10052000Y-10114000D01*
X10012000Y-10074000D02*
X10092000Y-10074000D01*
X10059000Y-6261000D02*
X10059000Y-6341000D01*
X10019000Y-6301000D02*
X10099000Y-6301000D01*
X10059000Y-7785000D02*
X10059000Y-7865000D01*
X10019000Y-7825000D02*
X10099000Y-7825000D01*
X10300000Y-11280511D02*
X10300000Y-11360511D01*
X10260000Y-11320511D02*
X10340000Y-11320511D01*
X10300000Y-11530511D02*
X10300000Y-11610511D01*
X10260000Y-11570511D02*
X10340000Y-11570511D01*
X10306000Y-8510000D02*
X10306000Y-8590000D01*
X10266000Y-8550000D02*
X10346000Y-8550000D01*
X10306000Y-10034000D02*
X10306000Y-10114000D01*
X10266000Y-10074000D02*
X10346000Y-10074000D01*
X10313000Y-6261000D02*
X10313000Y-6341000D01*
X10273000Y-6301000D02*
X10353000Y-6301000D01*
X10313000Y-7785000D02*
X10313000Y-7865000D01*
X10273000Y-7825000D02*
X10353000Y-7825000D01*
X10560000Y-8510000D02*
X10560000Y-8590000D01*
X10520000Y-8550000D02*
X10600000Y-8550000D01*
X10560000Y-10034000D02*
X10560000Y-10114000D01*
X10520000Y-10074000D02*
X10600000Y-10074000D01*
X10567000Y-6261000D02*
X10567000Y-6341000D01*
X10527000Y-6301000D02*
X10607000Y-6301000D01*
X10567000Y-7785000D02*
X10567000Y-7865000D01*
X10527000Y-7825000D02*
X10607000Y-7825000D01*
X10814000Y-8510000D02*
X10814000Y-8590000D01*
X10774000Y-8550000D02*
X10854000Y-8550000D01*
X10814000Y-10034000D02*
X10814000Y-10114000D01*
X10774000Y-10074000D02*
X10854000Y-10074000D01*
X10821000Y-6261000D02*
X10821000Y-6341000D01*
X10781000Y-6301000D02*
X10861000Y-6301000D01*
X10821000Y-7785000D02*
X10821000Y-7865000D01*
X10781000Y-7825000D02*
X10861000Y-7825000D01*
X11068000Y-8510000D02*
X11068000Y-8590000D01*
X11028000Y-8550000D02*
X11108000Y-8550000D01*
X11068000Y-10034000D02*
X11068000Y-10114000D01*
X11028000Y-10074000D02*
X11108000Y-10074000D01*
X11075000Y-6261000D02*
X11075000Y-6341000D01*
X11035000Y-6301000D02*
X11115000Y-6301000D01*
X11075000Y-7785000D02*
X11075000Y-7865000D01*
X11035000Y-7825000D02*
X11115000Y-7825000D01*
X11322000Y-8510000D02*
X11322000Y-8590000D01*
X11282000Y-8550000D02*
X11362000Y-8550000D01*
X11322000Y-10034000D02*
X11322000Y-10114000D01*
X11282000Y-10074000D02*
X11362000Y-10074000D01*
X11329000Y-6261000D02*
X11329000Y-6341000D01*
X11289000Y-6301000D02*
X11369000Y-6301000D01*
X11329000Y-7785000D02*
X11329000Y-7865000D01*
X11289000Y-7825000D02*
X11369000Y-7825000D01*
X11576000Y-8510000D02*
X11576000Y-8590000D01*
X11536000Y-8550000D02*
X11616000Y-8550000D01*
X11576000Y-10034000D02*
X11576000Y-10114000D01*
X11536000Y-10074000D02*
X11616000Y-10074000D01*
X11583000Y-6261000D02*
X11583000Y-6341000D01*
X11543000Y-6301000D02*
X11623000Y-6301000D01*
X11583000Y-7785000D02*
X11583000Y-7865000D01*
X11543000Y-7825000D02*
X11623000Y-7825000D01*
X11830000Y-8510000D02*
X11830000Y-8590000D01*
X11790000Y-8550000D02*
X11870000Y-8550000D01*
X11830000Y-10034000D02*
X11830000Y-10114000D01*
X11790000Y-10074000D02*
X11870000Y-10074000D01*
X11837000Y-6261000D02*
X11837000Y-6341000D01*
X11797000Y-6301000D02*
X11877000Y-6301000D01*
X11837000Y-7785000D02*
X11837000Y-7865000D01*
X11797000Y-7825000D02*
X11877000Y-7825000D01*
X11988800Y-4913000D02*
X11988800Y-4993000D01*
X11948800Y-4953000D02*
X12028800Y-4953000D01*
X11988800Y-5446400D02*
X11988800Y-5526400D01*
X11948800Y-5486400D02*
X12028800Y-5486400D01*
X12084000Y-8510000D02*
X12084000Y-8590000D01*
X12044000Y-8550000D02*
X12124000Y-8550000D01*
X12084000Y-10034000D02*
X12084000Y-10114000D01*
X12044000Y-10074000D02*
X12124000Y-10074000D01*
X12091000Y-6261000D02*
X12091000Y-6341000D01*
X12051000Y-6301000D02*
X12131000Y-6301000D01*
X12091000Y-7785000D02*
X12091000Y-7865000D01*
X12051000Y-7825000D02*
X12131000Y-7825000D01*
X12242800Y-4913000D02*
X12242800Y-4993000D01*
X12202800Y-4953000D02*
X12282800Y-4953000D01*
X12242800Y-5446400D02*
X12242800Y-5526400D01*
X12202800Y-5486400D02*
X12282800Y-5486400D01*
X12338000Y-8510000D02*
X12338000Y-8590000D01*
X12298000Y-8550000D02*
X12378000Y-8550000D01*
X12338000Y-10034000D02*
X12338000Y-10114000D01*
X12298000Y-10074000D02*
X12378000Y-10074000D01*
X12345000Y-6261000D02*
X12345000Y-6341000D01*
X12305000Y-6301000D02*
X12385000Y-6301000D01*
X12345000Y-7785000D02*
X12345000Y-7865000D01*
X12305000Y-7825000D02*
X12385000Y-7825000D01*
X12496800Y-4913000D02*
X12496800Y-4993000D01*
X12456800Y-4953000D02*
X12536800Y-4953000D01*
X12496800Y-5446400D02*
X12496800Y-5526400D01*
X12456800Y-5486400D02*
X12536800Y-5486400D01*
X12592000Y-8510000D02*
X12592000Y-8590000D01*
X12552000Y-8550000D02*
X12632000Y-8550000D01*
X12592000Y-10034000D02*
X12592000Y-10114000D01*
X12552000Y-10074000D02*
X12632000Y-10074000D01*
X12599000Y-6261000D02*
X12599000Y-6341000D01*
X12559000Y-6301000D02*
X12639000Y-6301000D01*
X12599000Y-7785000D02*
X12599000Y-7865000D01*
X12559000Y-7825000D02*
X12639000Y-7825000D01*
X12750800Y-4913000D02*
X12750800Y-4993000D01*
X12710800Y-4953000D02*
X12790800Y-4953000D01*
X12750800Y-5446400D02*
X12750800Y-5526400D01*
X12710800Y-5486400D02*
X12790800Y-5486400D01*
X12846000Y-8510000D02*
X12846000Y-8590000D01*
X12806000Y-8550000D02*
X12886000Y-8550000D01*
X12846000Y-10034000D02*
X12846000Y-10114000D01*
X12806000Y-10074000D02*
X12886000Y-10074000D01*
X12853000Y-6261000D02*
X12853000Y-6341000D01*
X12813000Y-6301000D02*
X12893000Y-6301000D01*
X12853000Y-7785000D02*
X12853000Y-7865000D01*
X12813000Y-7825000D02*
X12893000Y-7825000D01*
X13004800Y-4913000D02*
X13004800Y-4993000D01*
X12964800Y-4953000D02*
X13044800Y-4953000D01*
X13004800Y-5446400D02*
X13004800Y-5526400D01*
X12964800Y-5486400D02*
X13044800Y-5486400D01*
X13100000Y-8510000D02*
X13100000Y-8590000D01*
X13060000Y-8550000D02*
X13140000Y-8550000D01*
X13100000Y-10034000D02*
X13100000Y-10114000D01*
X13060000Y-10074000D02*
X13140000Y-10074000D01*
X13107000Y-6261000D02*
X13107000Y-6341000D01*
X13067000Y-6301000D02*
X13147000Y-6301000D01*
X13107000Y-7785000D02*
X13107000Y-7865000D01*
X13067000Y-7825000D02*
X13147000Y-7825000D01*
X13613400Y-4989200D02*
X13613400Y-5069200D01*
X13573400Y-5029200D02*
X13653400Y-5029200D01*
X13613400Y-5489200D02*
X13613400Y-5569200D01*
X13573400Y-5529200D02*
X13653400Y-5529200D01*
X13613400Y-8899800D02*
X13613400Y-8979800D01*
X13573400Y-8939800D02*
X13653400Y-8939800D01*
X13613400Y-9399800D02*
X13613400Y-9479800D01*
X13573400Y-9439800D02*
X13653400Y-9439800D01*
X13614400Y-6208400D02*
X13614400Y-6288400D01*
X13574400Y-6248400D02*
X13654400Y-6248400D01*
X13614400Y-6708400D02*
X13614400Y-6788400D01*
X13574400Y-6748400D02*
X13654400Y-6748400D01*
X13614400Y-7533200D02*
X13614400Y-7613200D01*
X13574400Y-7573200D02*
X13654400Y-7573200D01*
X13614400Y-8033200D02*
X13614400Y-8113200D01*
X13574400Y-8073200D02*
X13654400Y-8073200D01*
X13639300Y-10271400D02*
X13639300Y-10351400D01*
X13599300Y-10311400D02*
X13679300Y-10311400D01*
X13639300Y-10771400D02*
X13639300Y-10851400D01*
X13599300Y-10811400D02*
X13679300Y-10811400D01*
X13993400Y-4989200D02*
X13993400Y-5069200D01*
X13953400Y-5029200D02*
X14033400Y-5029200D01*
X13993400Y-5751200D02*
X13993400Y-5831200D01*
X13953400Y-5791200D02*
X14033400Y-5791200D01*
X13995400Y-6233800D02*
X13995400Y-6313800D01*
X13955400Y-6273800D02*
X14035400Y-6273800D01*
X13995400Y-6995800D02*
X13995400Y-7075800D01*
X13955400Y-7035800D02*
X14035400Y-7035800D01*
X13995400Y-7553600D02*
X13995400Y-7633600D01*
X13955400Y-7593600D02*
X14035400Y-7593600D01*
X13995400Y-8315600D02*
X13995400Y-8395600D01*
X13955400Y-8355600D02*
X14035400Y-8355600D01*
X14020300Y-8925200D02*
X14020300Y-9005200D01*
X13980300Y-8965200D02*
X14060300Y-8965200D01*
X14020300Y-9687200D02*
X14020300Y-9767200D01*
X13980300Y-9727200D02*
X14060300Y-9727200D01*
X14020300Y-10246000D02*
X14020300Y-10326000D01*
X13980300Y-10286000D02*
X14060300Y-10286000D01*
X14020300Y-11008000D02*
X14020300Y-11088000D01*
X13980300Y-11048000D02*
X14060300Y-11048000D01*
X14247400Y-4989200D02*
X14247400Y-5069200D01*
X14207400Y-5029200D02*
X14287400Y-5029200D01*
X14247400Y-5751200D02*
X14247400Y-5831200D01*
X14207400Y-5791200D02*
X14287400Y-5791200D01*
X14249400Y-6233800D02*
X14249400Y-6313800D01*
X14209400Y-6273800D02*
X14289400Y-6273800D01*
X14249400Y-6995800D02*
X14249400Y-7075800D01*
X14209400Y-7035800D02*
X14289400Y-7035800D01*
X14249400Y-7553600D02*
X14249400Y-7633600D01*
X14209400Y-7593600D02*
X14289400Y-7593600D01*
X14249400Y-8315600D02*
X14249400Y-8395600D01*
X14209400Y-8355600D02*
X14289400Y-8355600D01*
X14274300Y-8925200D02*
X14274300Y-9005200D01*
X14234300Y-8965200D02*
X14314300Y-8965200D01*
X14274300Y-9687200D02*
X14274300Y-9767200D01*
X14234300Y-9727200D02*
X14314300Y-9727200D01*
X14274300Y-10246000D02*
X14274300Y-10326000D01*
X14234300Y-10286000D02*
X14314300Y-10286000D01*
X14274300Y-11008000D02*
X14274300Y-11088000D01*
X14234300Y-11048000D02*
X14314300Y-11048000D01*
X14501400Y-4989200D02*
X14501400Y-5069200D01*
X14461400Y-5029200D02*
X14541400Y-5029200D01*
X14501400Y-5751200D02*
X14501400Y-5831200D01*
X14461400Y-5791200D02*
X14541400Y-5791200D01*
X14503400Y-6233800D02*
X14503400Y-6313800D01*
X14463400Y-6273800D02*
X14543400Y-6273800D01*
X14503400Y-6995800D02*
X14503400Y-7075800D01*
X14463400Y-7035800D02*
X14543400Y-7035800D01*
X14503400Y-7553600D02*
X14503400Y-7633600D01*
X14463400Y-7593600D02*
X14543400Y-7593600D01*
X14503400Y-8315600D02*
X14503400Y-8395600D01*
X14463400Y-8355600D02*
X14543400Y-8355600D01*
X14528300Y-8925200D02*
X14528300Y-9005200D01*
X14488300Y-8965200D02*
X14568300Y-8965200D01*
X14528300Y-9687200D02*
X14528300Y-9767200D01*
X14488300Y-9727200D02*
X14568300Y-9727200D01*
X14528300Y-10246000D02*
X14528300Y-10326000D01*
X14488300Y-10286000D02*
X14568300Y-10286000D01*
X14528300Y-11008000D02*
X14528300Y-11088000D01*
X14488300Y-11048000D02*
X14568300Y-11048000D01*
X14755400Y-4989200D02*
X14755400Y-5069200D01*
X14715400Y-5029200D02*
X14795400Y-5029200D01*
X14755400Y-5751200D02*
X14755400Y-5831200D01*
X14715400Y-5791200D02*
X14795400Y-5791200D01*
X14757400Y-6233800D02*
X14757400Y-6313800D01*
X14717400Y-6273800D02*
X14797400Y-6273800D01*
X14757400Y-6995800D02*
X14757400Y-7075800D01*
X14717400Y-7035800D02*
X14797400Y-7035800D01*
X14757400Y-7553600D02*
X14757400Y-7633600D01*
X14717400Y-7593600D02*
X14797400Y-7593600D01*
X14757400Y-8315600D02*
X14757400Y-8395600D01*
X14717400Y-8355600D02*
X14797400Y-8355600D01*
X14782300Y-8925200D02*
X14782300Y-9005200D01*
X14742300Y-8965200D02*
X14822300Y-8965200D01*
X14782300Y-9687200D02*
X14782300Y-9767200D01*
X14742300Y-9727200D02*
X14822300Y-9727200D01*
X14782300Y-10246000D02*
X14782300Y-10326000D01*
X14742300Y-10286000D02*
X14822300Y-10286000D01*
X14782300Y-11008000D02*
X14782300Y-11088000D01*
X14742300Y-11048000D02*
X14822300Y-11048000D01*
X15009400Y-4989200D02*
X15009400Y-5069200D01*
X14969400Y-5029200D02*
X15049400Y-5029200D01*
X15009400Y-5751200D02*
X15009400Y-5831200D01*
X14969400Y-5791200D02*
X15049400Y-5791200D01*
X15011400Y-6233800D02*
X15011400Y-6313800D01*
X14971400Y-6273800D02*
X15051400Y-6273800D01*
X15011400Y-6995800D02*
X15011400Y-7075800D01*
X14971400Y-7035800D02*
X15051400Y-7035800D01*
X15011400Y-7553600D02*
X15011400Y-7633600D01*
X14971400Y-7593600D02*
X15051400Y-7593600D01*
X15011400Y-8315600D02*
X15011400Y-8395600D01*
X14971400Y-8355600D02*
X15051400Y-8355600D01*
X15036300Y-8925200D02*
X15036300Y-9005200D01*
X14996300Y-8965200D02*
X15076300Y-8965200D01*
X15036300Y-9687200D02*
X15036300Y-9767200D01*
X14996300Y-9727200D02*
X15076300Y-9727200D01*
X15036300Y-10246000D02*
X15036300Y-10326000D01*
X14996300Y-10286000D02*
X15076300Y-10286000D01*
X15036300Y-11008000D02*
X15036300Y-11088000D01*
X14996300Y-11048000D02*
X15076300Y-11048000D01*
X15263400Y-4989200D02*
X15263400Y-5069200D01*
X15223400Y-5029200D02*
X15303400Y-5029200D01*
X15263400Y-5751200D02*
X15263400Y-5831200D01*
X15223400Y-5791200D02*
X15303400Y-5791200D01*
X15265400Y-6233800D02*
X15265400Y-6313800D01*
X15225400Y-6273800D02*
X15305400Y-6273800D01*
X15265400Y-6995800D02*
X15265400Y-7075800D01*
X15225400Y-7035800D02*
X15305400Y-7035800D01*
X15265400Y-7553600D02*
X15265400Y-7633600D01*
X15225400Y-7593600D02*
X15305400Y-7593600D01*
X15265400Y-8315600D02*
X15265400Y-8395600D01*
X15225400Y-8355600D02*
X15305400Y-8355600D01*
X15290300Y-8925200D02*
X15290300Y-9005200D01*
X15250300Y-8965200D02*
X15330300Y-8965200D01*
X15290300Y-9687200D02*
X15290300Y-9767200D01*
X15250300Y-9727200D02*
X15330300Y-9727200D01*
X15290300Y-10246000D02*
X15290300Y-10326000D01*
X15250300Y-10286000D02*
X15330300Y-10286000D01*
X15290300Y-11008000D02*
X15290300Y-11088000D01*
X15250300Y-11048000D02*
X15330300Y-11048000D01*
X15517400Y-4989200D02*
X15517400Y-5069200D01*
X15477400Y-5029200D02*
X15557400Y-5029200D01*
X15517400Y-5751200D02*
X15517400Y-5831200D01*
X15477400Y-5791200D02*
X15557400Y-5791200D01*
X15519400Y-6233800D02*
X15519400Y-6313800D01*
X15479400Y-6273800D02*
X15559400Y-6273800D01*
X15519400Y-6995800D02*
X15519400Y-7075800D01*
X15479400Y-7035800D02*
X15559400Y-7035800D01*
X15519400Y-7553600D02*
X15519400Y-7633600D01*
X15479400Y-7593600D02*
X15559400Y-7593600D01*
X15519400Y-8315600D02*
X15519400Y-8395600D01*
X15479400Y-8355600D02*
X15559400Y-8355600D01*
X15544300Y-8925200D02*
X15544300Y-9005200D01*
X15504300Y-8965200D02*
X15584300Y-8965200D01*
X15544300Y-9687200D02*
X15544300Y-9767200D01*
X15504300Y-9727200D02*
X15584300Y-9727200D01*
X15544300Y-10246000D02*
X15544300Y-10326000D01*
X15504300Y-10286000D02*
X15584300Y-10286000D01*
X15544300Y-11008000D02*
X15544300Y-11088000D01*
X15504300Y-11048000D02*
X15584300Y-11048000D01*
X15771400Y-4989200D02*
X15771400Y-5069200D01*
X15731400Y-5029200D02*
X15811400Y-5029200D01*
X15771400Y-5751200D02*
X15771400Y-5831200D01*
X15731400Y-5791200D02*
X15811400Y-5791200D01*
X15773400Y-6233800D02*
X15773400Y-6313800D01*
X15733400Y-6273800D02*
X15813400Y-6273800D01*
X15773400Y-6995800D02*
X15773400Y-7075800D01*
X15733400Y-7035800D02*
X15813400Y-7035800D01*
X15773400Y-7553600D02*
X15773400Y-7633600D01*
X15733400Y-7593600D02*
X15813400Y-7593600D01*
X15773400Y-8315600D02*
X15773400Y-8395600D01*
X15733400Y-8355600D02*
X15813400Y-8355600D01*
X16155400Y-10227600D02*
X16155400Y-10307600D01*
X16115400Y-10267600D02*
X16195400Y-10267600D01*
X16155400Y-10727600D02*
X16155400Y-10807600D01*
X16115400Y-10767600D02*
X16195400Y-10767600D01*
X16179800Y-4989200D02*
X16179800Y-5069200D01*
X16139800Y-5029200D02*
X16219800Y-5029200D01*
X16179800Y-5489200D02*
X16179800Y-5569200D01*
X16139800Y-5529200D02*
X16219800Y-5529200D01*
X16179800Y-6263200D02*
X16179800Y-6343200D01*
X16139800Y-6303200D02*
X16219800Y-6303200D01*
X16179800Y-6763200D02*
X16179800Y-6843200D01*
X16139800Y-6803200D02*
X16219800Y-6803200D01*
X16179800Y-8904800D02*
X16179800Y-8984800D01*
X16139800Y-8944800D02*
X16219800Y-8944800D01*
X16179800Y-9404800D02*
X16179800Y-9484800D01*
X16139800Y-9444800D02*
X16219800Y-9444800D01*
X16230600Y-7585000D02*
X16230600Y-7665000D01*
X16190600Y-7625000D02*
X16270600Y-7625000D01*
X16230600Y-8085000D02*
X16230600Y-8165000D01*
X16190600Y-8125000D02*
X16270600Y-8125000D01*
X16509000Y-4988200D02*
X16509000Y-5068200D01*
X16469000Y-5028200D02*
X16549000Y-5028200D01*
X16509000Y-5750200D02*
X16509000Y-5830200D01*
X16469000Y-5790200D02*
X16549000Y-5790200D01*
X16535400Y-10247000D02*
X16535400Y-10327000D01*
X16495400Y-10287000D02*
X16575400Y-10287000D01*
X16535400Y-11009000D02*
X16535400Y-11089000D01*
X16495400Y-11049000D02*
X16575400Y-11049000D01*
X16536400Y-8902800D02*
X16536400Y-8982800D01*
X16496400Y-8942800D02*
X16576400Y-8942800D01*
X16536400Y-9664800D02*
X16536400Y-9744800D01*
X16496400Y-9704800D02*
X16576400Y-9704800D01*
X16560800Y-6259200D02*
X16560800Y-6339200D01*
X16520800Y-6299200D02*
X16600800Y-6299200D01*
X16560800Y-7021200D02*
X16560800Y-7101200D01*
X16520800Y-7061200D02*
X16600800Y-7061200D01*
X16560800Y-7580000D02*
X16560800Y-7660000D01*
X16520800Y-7620000D02*
X16600800Y-7620000D01*
X16560800Y-8342000D02*
X16560800Y-8422000D01*
X16520800Y-8382000D02*
X16600800Y-8382000D01*
X16763000Y-4988200D02*
X16763000Y-5068200D01*
X16723000Y-5028200D02*
X16803000Y-5028200D01*
X16763000Y-5750200D02*
X16763000Y-5830200D01*
X16723000Y-5790200D02*
X16803000Y-5790200D01*
X16789400Y-10247000D02*
X16789400Y-10327000D01*
X16749400Y-10287000D02*
X16829400Y-10287000D01*
X16789400Y-11009000D02*
X16789400Y-11089000D01*
X16749400Y-11049000D02*
X16829400Y-11049000D01*
X16790400Y-8902800D02*
X16790400Y-8982800D01*
X16750400Y-8942800D02*
X16830400Y-8942800D01*
X16790400Y-9664800D02*
X16790400Y-9744800D01*
X16750400Y-9704800D02*
X16830400Y-9704800D01*
X16814800Y-6259200D02*
X16814800Y-6339200D01*
X16774800Y-6299200D02*
X16854800Y-6299200D01*
X16814800Y-7021200D02*
X16814800Y-7101200D01*
X16774800Y-7061200D02*
X16854800Y-7061200D01*
X16814800Y-7580000D02*
X16814800Y-7660000D01*
X16774800Y-7620000D02*
X16854800Y-7620000D01*
X16814800Y-8342000D02*
X16814800Y-8422000D01*
X16774800Y-8382000D02*
X16854800Y-8382000D01*
X17017000Y-4988200D02*
X17017000Y-5068200D01*
X16977000Y-5028200D02*
X17057000Y-5028200D01*
X17017000Y-5750200D02*
X17017000Y-5830200D01*
X16977000Y-5790200D02*
X17057000Y-5790200D01*
X17043400Y-10247000D02*
X17043400Y-10327000D01*
X17003400Y-10287000D02*
X17083400Y-10287000D01*
X17043400Y-11009000D02*
X17043400Y-11089000D01*
X17003400Y-11049000D02*
X17083400Y-11049000D01*
X17044400Y-8902800D02*
X17044400Y-8982800D01*
X17004400Y-8942800D02*
X17084400Y-8942800D01*
X17044400Y-9664800D02*
X17044400Y-9744800D01*
X17004400Y-9704800D02*
X17084400Y-9704800D01*
X17068800Y-6259200D02*
X17068800Y-6339200D01*
X17028800Y-6299200D02*
X17108800Y-6299200D01*
X17068800Y-7021200D02*
X17068800Y-7101200D01*
X17028800Y-7061200D02*
X17108800Y-7061200D01*
X17068800Y-7580000D02*
X17068800Y-7660000D01*
X17028800Y-7620000D02*
X17108800Y-7620000D01*
X17068800Y-8342000D02*
X17068800Y-8422000D01*
X17028800Y-8382000D02*
X17108800Y-8382000D01*
X17271000Y-4988200D02*
X17271000Y-5068200D01*
X17231000Y-5028200D02*
X17311000Y-5028200D01*
X17271000Y-5750200D02*
X17271000Y-5830200D01*
X17231000Y-5790200D02*
X17311000Y-5790200D01*
X17297400Y-10247000D02*
X17297400Y-10327000D01*
X17257400Y-10287000D02*
X17337400Y-10287000D01*
X17297400Y-11009000D02*
X17297400Y-11089000D01*
X17257400Y-11049000D02*
X17337400Y-11049000D01*
X17298400Y-8902800D02*
X17298400Y-8982800D01*
X17258400Y-8942800D02*
X17338400Y-8942800D01*
X17298400Y-9664800D02*
X17298400Y-9744800D01*
X17258400Y-9704800D02*
X17338400Y-9704800D01*
X17322800Y-6259200D02*
X17322800Y-6339200D01*
X17282800Y-6299200D02*
X17362800Y-6299200D01*
X17322800Y-7021200D02*
X17322800Y-7101200D01*
X17282800Y-7061200D02*
X17362800Y-7061200D01*
X17322800Y-7580000D02*
X17322800Y-7660000D01*
X17282800Y-7620000D02*
X17362800Y-7620000D01*
X17322800Y-8342000D02*
X17322800Y-8422000D01*
X17282800Y-8382000D02*
X17362800Y-8382000D01*
X17525000Y-4988200D02*
X17525000Y-5068200D01*
X17485000Y-5028200D02*
X17565000Y-5028200D01*
X17525000Y-5750200D02*
X17525000Y-5830200D01*
X17485000Y-5790200D02*
X17565000Y-5790200D01*
X17551400Y-10247000D02*
X17551400Y-10327000D01*
X17511400Y-10287000D02*
X17591400Y-10287000D01*
X17551400Y-11009000D02*
X17551400Y-11089000D01*
X17511400Y-11049000D02*
X17591400Y-11049000D01*
X17552400Y-8902800D02*
X17552400Y-8982800D01*
X17512400Y-8942800D02*
X17592400Y-8942800D01*
X17552400Y-9664800D02*
X17552400Y-9744800D01*
X17512400Y-9704800D02*
X17592400Y-9704800D01*
X17576800Y-6259200D02*
X17576800Y-6339200D01*
X17536800Y-6299200D02*
X17616800Y-6299200D01*
X17576800Y-7021200D02*
X17576800Y-7101200D01*
X17536800Y-7061200D02*
X17616800Y-7061200D01*
X17576800Y-7580000D02*
X17576800Y-7660000D01*
X17536800Y-7620000D02*
X17616800Y-7620000D01*
X17576800Y-8342000D02*
X17576800Y-8422000D01*
X17536800Y-8382000D02*
X17616800Y-8382000D01*
X17779000Y-4988200D02*
X17779000Y-5068200D01*
X17739000Y-5028200D02*
X17819000Y-5028200D01*
X17779000Y-5750200D02*
X17779000Y-5830200D01*
X17739000Y-5790200D02*
X17819000Y-5790200D01*
X17805400Y-10247000D02*
X17805400Y-10327000D01*
X17765400Y-10287000D02*
X17845400Y-10287000D01*
X17805400Y-11009000D02*
X17805400Y-11089000D01*
X17765400Y-11049000D02*
X17845400Y-11049000D01*
X17806400Y-8902800D02*
X17806400Y-8982800D01*
X17766400Y-8942800D02*
X17846400Y-8942800D01*
X17806400Y-9664800D02*
X17806400Y-9744800D01*
X17766400Y-9704800D02*
X17846400Y-9704800D01*
X17830800Y-6259200D02*
X17830800Y-6339200D01*
X17790800Y-6299200D02*
X17870800Y-6299200D01*
X17830800Y-7021200D02*
X17830800Y-7101200D01*
X17790800Y-7061200D02*
X17870800Y-7061200D01*
X17830800Y-7580000D02*
X17830800Y-7660000D01*
X17790800Y-7620000D02*
X17870800Y-7620000D01*
X17830800Y-8342000D02*
X17830800Y-8422000D01*
X17790800Y-8382000D02*
X17870800Y-8382000D01*
X18033000Y-4988200D02*
X18033000Y-5068200D01*
X17993000Y-5028200D02*
X18073000Y-5028200D01*
X18033000Y-5750200D02*
X18033000Y-5830200D01*
X17993000Y-5790200D02*
X18073000Y-5790200D01*
X18059400Y-10247000D02*
X18059400Y-10327000D01*
X18019400Y-10287000D02*
X18099400Y-10287000D01*
X18059400Y-11009000D02*
X18059400Y-11089000D01*
X18019400Y-11049000D02*
X18099400Y-11049000D01*
X18060400Y-8902800D02*
X18060400Y-8982800D01*
X18020400Y-8942800D02*
X18100400Y-8942800D01*
X18060400Y-9664800D02*
X18060400Y-9744800D01*
X18020400Y-9704800D02*
X18100400Y-9704800D01*
X18084800Y-6259200D02*
X18084800Y-6339200D01*
X18044800Y-6299200D02*
X18124800Y-6299200D01*
X18084800Y-7021200D02*
X18084800Y-7101200D01*
X18044800Y-7061200D02*
X18124800Y-7061200D01*
X18084800Y-7580000D02*
X18084800Y-7660000D01*
X18044800Y-7620000D02*
X18124800Y-7620000D01*
X18084800Y-8342000D02*
X18084800Y-8422000D01*
X18044800Y-8382000D02*
X18124800Y-8382000D01*
X18287000Y-4988200D02*
X18287000Y-5068200D01*
X18247000Y-5028200D02*
X18327000Y-5028200D01*
X18287000Y-5750200D02*
X18287000Y-5830200D01*
X18247000Y-5790200D02*
X18327000Y-5790200D01*
X18338800Y-6259200D02*
X18338800Y-6339200D01*
X18298800Y-6299200D02*
X18378800Y-6299200D01*
X18338800Y-7021200D02*
X18338800Y-7101200D01*
X18298800Y-7061200D02*
X18378800Y-7061200D01*
D11*
X8884884Y-13444804D02*
X8884884Y-13244804D01*
X8884884Y-13244804D02*
X8932503Y-13244804D01*
X8932503Y-13244804D02*
X8961074Y-13254328D01*
X8961074Y-13254328D02*
X8980122Y-13273375D01*
X8980122Y-13273375D02*
X8989645Y-13292423D01*
X8989645Y-13292423D02*
X8999169Y-13330518D01*
X8999169Y-13330518D02*
X8999169Y-13359089D01*
X8999169Y-13359089D02*
X8989645Y-13397185D01*
X8989645Y-13397185D02*
X8980122Y-13416232D01*
X8980122Y-13416232D02*
X8961074Y-13435280D01*
X8961074Y-13435280D02*
X8932503Y-13444804D01*
X8932503Y-13444804D02*
X8884884Y-13444804D01*
X9084884Y-13444804D02*
X9084884Y-13311470D01*
X9084884Y-13349566D02*
X9094407Y-13330518D01*
X9094407Y-13330518D02*
X9103931Y-13320994D01*
X9103931Y-13320994D02*
X9122979Y-13311470D01*
X9122979Y-13311470D02*
X9142026Y-13311470D01*
X9208693Y-13444804D02*
X9208693Y-13311470D01*
X9208693Y-13244804D02*
X9199169Y-13254328D01*
X9199169Y-13254328D02*
X9208693Y-13263851D01*
X9208693Y-13263851D02*
X9218217Y-13254328D01*
X9218217Y-13254328D02*
X9208693Y-13244804D01*
X9208693Y-13244804D02*
X9208693Y-13263851D01*
X9332503Y-13444804D02*
X9313455Y-13435280D01*
X9313455Y-13435280D02*
X9303931Y-13416232D01*
X9303931Y-13416232D02*
X9303931Y-13244804D01*
X9437264Y-13444804D02*
X9418217Y-13435280D01*
X9418217Y-13435280D02*
X9408693Y-13416232D01*
X9408693Y-13416232D02*
X9408693Y-13244804D01*
X9665836Y-13444804D02*
X9665836Y-13244804D01*
X9665836Y-13244804D02*
X9732503Y-13387661D01*
X9732503Y-13387661D02*
X9799169Y-13244804D01*
X9799169Y-13244804D02*
X9799169Y-13444804D01*
X9980122Y-13444804D02*
X9980122Y-13340042D01*
X9980122Y-13340042D02*
X9970598Y-13320994D01*
X9970598Y-13320994D02*
X9951550Y-13311470D01*
X9951550Y-13311470D02*
X9913455Y-13311470D01*
X9913455Y-13311470D02*
X9894407Y-13320994D01*
X9980122Y-13435280D02*
X9961074Y-13444804D01*
X9961074Y-13444804D02*
X9913455Y-13444804D01*
X9913455Y-13444804D02*
X9894407Y-13435280D01*
X9894407Y-13435280D02*
X9884884Y-13416232D01*
X9884884Y-13416232D02*
X9884884Y-13397185D01*
X9884884Y-13397185D02*
X9894407Y-13378137D01*
X9894407Y-13378137D02*
X9913455Y-13368613D01*
X9913455Y-13368613D02*
X9961074Y-13368613D01*
X9961074Y-13368613D02*
X9980122Y-13359089D01*
X10075360Y-13311470D02*
X10075360Y-13511470D01*
X10075360Y-13320994D02*
X10094407Y-13311470D01*
X10094407Y-13311470D02*
X10132503Y-13311470D01*
X10132503Y-13311470D02*
X10151550Y-13320994D01*
X10151550Y-13320994D02*
X10161074Y-13330518D01*
X10161074Y-13330518D02*
X10170598Y-13349566D01*
X10170598Y-13349566D02*
X10170598Y-13406708D01*
X10170598Y-13406708D02*
X10161074Y-13425756D01*
X10161074Y-13425756D02*
X10151550Y-13435280D01*
X10151550Y-13435280D02*
X10132503Y-13444804D01*
X10132503Y-13444804D02*
X10094407Y-13444804D01*
X10094407Y-13444804D02*
X10075360Y-13435280D01*
X10256312Y-13425756D02*
X10265836Y-13435280D01*
X10265836Y-13435280D02*
X10256312Y-13444804D01*
X10256312Y-13444804D02*
X10246788Y-13435280D01*
X10246788Y-13435280D02*
X10256312Y-13425756D01*
X10256312Y-13425756D02*
X10256312Y-13444804D01*
X10256312Y-13320994D02*
X10265836Y-13330518D01*
X10265836Y-13330518D02*
X10256312Y-13340042D01*
X10256312Y-13340042D02*
X10246788Y-13330518D01*
X10246788Y-13330518D02*
X10256312Y-13320994D01*
X10256312Y-13320994D02*
X10256312Y-13340042D01*
D10*
X8594107Y-13758320D02*
X8624107Y-13788320D01*
X8624107Y-13758320D02*
X8594107Y-13788320D01*
D11*
X8922979Y-13664804D02*
X8942026Y-13664804D01*
X8942026Y-13664804D02*
X8961074Y-13674328D01*
X8961074Y-13674328D02*
X8970598Y-13683851D01*
X8970598Y-13683851D02*
X8980122Y-13702899D01*
X8980122Y-13702899D02*
X8989645Y-13740994D01*
X8989645Y-13740994D02*
X8989645Y-13788613D01*
X8989645Y-13788613D02*
X8980122Y-13826708D01*
X8980122Y-13826708D02*
X8970598Y-13845756D01*
X8970598Y-13845756D02*
X8961074Y-13855280D01*
X8961074Y-13855280D02*
X8942026Y-13864804D01*
X8942026Y-13864804D02*
X8922979Y-13864804D01*
X8922979Y-13864804D02*
X8903931Y-13855280D01*
X8903931Y-13855280D02*
X8894407Y-13845756D01*
X8894407Y-13845756D02*
X8884884Y-13826708D01*
X8884884Y-13826708D02*
X8875360Y-13788613D01*
X8875360Y-13788613D02*
X8875360Y-13740994D01*
X8875360Y-13740994D02*
X8884884Y-13702899D01*
X8884884Y-13702899D02*
X8894407Y-13683851D01*
X8894407Y-13683851D02*
X8903931Y-13674328D01*
X8903931Y-13674328D02*
X8922979Y-13664804D01*
X9075360Y-13845756D02*
X9084884Y-13855280D01*
X9084884Y-13855280D02*
X9075360Y-13864804D01*
X9075360Y-13864804D02*
X9065836Y-13855280D01*
X9065836Y-13855280D02*
X9075360Y-13845756D01*
X9075360Y-13845756D02*
X9075360Y-13864804D01*
X9151550Y-13664804D02*
X9275360Y-13664804D01*
X9275360Y-13664804D02*
X9208693Y-13740994D01*
X9208693Y-13740994D02*
X9237265Y-13740994D01*
X9237265Y-13740994D02*
X9256312Y-13750518D01*
X9256312Y-13750518D02*
X9265836Y-13760042D01*
X9265836Y-13760042D02*
X9275360Y-13779089D01*
X9275360Y-13779089D02*
X9275360Y-13826708D01*
X9275360Y-13826708D02*
X9265836Y-13845756D01*
X9265836Y-13845756D02*
X9256312Y-13855280D01*
X9256312Y-13855280D02*
X9237265Y-13864804D01*
X9237265Y-13864804D02*
X9180122Y-13864804D01*
X9180122Y-13864804D02*
X9161074Y-13855280D01*
X9161074Y-13855280D02*
X9151550Y-13845756D01*
X9399169Y-13664804D02*
X9418217Y-13664804D01*
X9418217Y-13664804D02*
X9437265Y-13674328D01*
X9437265Y-13674328D02*
X9446788Y-13683851D01*
X9446788Y-13683851D02*
X9456312Y-13702899D01*
X9456312Y-13702899D02*
X9465836Y-13740994D01*
X9465836Y-13740994D02*
X9465836Y-13788613D01*
X9465836Y-13788613D02*
X9456312Y-13826708D01*
X9456312Y-13826708D02*
X9446788Y-13845756D01*
X9446788Y-13845756D02*
X9437265Y-13855280D01*
X9437265Y-13855280D02*
X9418217Y-13864804D01*
X9418217Y-13864804D02*
X9399169Y-13864804D01*
X9399169Y-13864804D02*
X9380122Y-13855280D01*
X9380122Y-13855280D02*
X9370598Y-13845756D01*
X9370598Y-13845756D02*
X9361074Y-13826708D01*
X9361074Y-13826708D02*
X9351550Y-13788613D01*
X9351550Y-13788613D02*
X9351550Y-13740994D01*
X9351550Y-13740994D02*
X9361074Y-13702899D01*
X9361074Y-13702899D02*
X9370598Y-13683851D01*
X9370598Y-13683851D02*
X9380122Y-13674328D01*
X9380122Y-13674328D02*
X9399169Y-13664804D01*
X9589645Y-13664804D02*
X9608693Y-13664804D01*
X9608693Y-13664804D02*
X9627741Y-13674328D01*
X9627741Y-13674328D02*
X9637265Y-13683851D01*
X9637265Y-13683851D02*
X9646788Y-13702899D01*
X9646788Y-13702899D02*
X9656312Y-13740994D01*
X9656312Y-13740994D02*
X9656312Y-13788613D01*
X9656312Y-13788613D02*
X9646788Y-13826708D01*
X9646788Y-13826708D02*
X9637265Y-13845756D01*
X9637265Y-13845756D02*
X9627741Y-13855280D01*
X9627741Y-13855280D02*
X9608693Y-13864804D01*
X9608693Y-13864804D02*
X9589645Y-13864804D01*
X9589645Y-13864804D02*
X9570598Y-13855280D01*
X9570598Y-13855280D02*
X9561074Y-13845756D01*
X9561074Y-13845756D02*
X9551550Y-13826708D01*
X9551550Y-13826708D02*
X9542026Y-13788613D01*
X9542026Y-13788613D02*
X9542026Y-13740994D01*
X9542026Y-13740994D02*
X9551550Y-13702899D01*
X9551550Y-13702899D02*
X9561074Y-13683851D01*
X9561074Y-13683851D02*
X9570598Y-13674328D01*
X9570598Y-13674328D02*
X9589645Y-13664804D01*
X9742026Y-13864804D02*
X9742026Y-13731470D01*
X9742026Y-13750518D02*
X9751550Y-13740994D01*
X9751550Y-13740994D02*
X9770598Y-13731470D01*
X9770598Y-13731470D02*
X9799169Y-13731470D01*
X9799169Y-13731470D02*
X9818217Y-13740994D01*
X9818217Y-13740994D02*
X9827741Y-13760042D01*
X9827741Y-13760042D02*
X9827741Y-13864804D01*
X9827741Y-13760042D02*
X9837265Y-13740994D01*
X9837265Y-13740994D02*
X9856312Y-13731470D01*
X9856312Y-13731470D02*
X9884884Y-13731470D01*
X9884884Y-13731470D02*
X9903931Y-13740994D01*
X9903931Y-13740994D02*
X9913455Y-13760042D01*
X9913455Y-13760042D02*
X9913455Y-13864804D01*
X10008693Y-13864804D02*
X10008693Y-13731470D01*
X10008693Y-13750518D02*
X10018217Y-13740994D01*
X10018217Y-13740994D02*
X10037265Y-13731470D01*
X10037265Y-13731470D02*
X10065836Y-13731470D01*
X10065836Y-13731470D02*
X10084884Y-13740994D01*
X10084884Y-13740994D02*
X10094407Y-13760042D01*
X10094407Y-13760042D02*
X10094407Y-13864804D01*
X10094407Y-13760042D02*
X10103931Y-13740994D01*
X10103931Y-13740994D02*
X10122979Y-13731470D01*
X10122979Y-13731470D02*
X10151550Y-13731470D01*
X10151550Y-13731470D02*
X10170598Y-13740994D01*
X10170598Y-13740994D02*
X10180122Y-13760042D01*
X10180122Y-13760042D02*
X10180122Y-13864804D01*
X10570598Y-13655280D02*
X10399169Y-13912423D01*
X10827741Y-13664804D02*
X10846789Y-13664804D01*
X10846789Y-13664804D02*
X10865836Y-13674328D01*
X10865836Y-13674328D02*
X10875360Y-13683851D01*
X10875360Y-13683851D02*
X10884884Y-13702899D01*
X10884884Y-13702899D02*
X10894408Y-13740994D01*
X10894408Y-13740994D02*
X10894408Y-13788613D01*
X10894408Y-13788613D02*
X10884884Y-13826708D01*
X10884884Y-13826708D02*
X10875360Y-13845756D01*
X10875360Y-13845756D02*
X10865836Y-13855280D01*
X10865836Y-13855280D02*
X10846789Y-13864804D01*
X10846789Y-13864804D02*
X10827741Y-13864804D01*
X10827741Y-13864804D02*
X10808693Y-13855280D01*
X10808693Y-13855280D02*
X10799169Y-13845756D01*
X10799169Y-13845756D02*
X10789646Y-13826708D01*
X10789646Y-13826708D02*
X10780122Y-13788613D01*
X10780122Y-13788613D02*
X10780122Y-13740994D01*
X10780122Y-13740994D02*
X10789646Y-13702899D01*
X10789646Y-13702899D02*
X10799169Y-13683851D01*
X10799169Y-13683851D02*
X10808693Y-13674328D01*
X10808693Y-13674328D02*
X10827741Y-13664804D01*
X10980122Y-13845756D02*
X10989646Y-13855280D01*
X10989646Y-13855280D02*
X10980122Y-13864804D01*
X10980122Y-13864804D02*
X10970598Y-13855280D01*
X10970598Y-13855280D02*
X10980122Y-13845756D01*
X10980122Y-13845756D02*
X10980122Y-13864804D01*
X11113455Y-13664804D02*
X11132503Y-13664804D01*
X11132503Y-13664804D02*
X11151550Y-13674328D01*
X11151550Y-13674328D02*
X11161074Y-13683851D01*
X11161074Y-13683851D02*
X11170598Y-13702899D01*
X11170598Y-13702899D02*
X11180122Y-13740994D01*
X11180122Y-13740994D02*
X11180122Y-13788613D01*
X11180122Y-13788613D02*
X11170598Y-13826708D01*
X11170598Y-13826708D02*
X11161074Y-13845756D01*
X11161074Y-13845756D02*
X11151550Y-13855280D01*
X11151550Y-13855280D02*
X11132503Y-13864804D01*
X11132503Y-13864804D02*
X11113455Y-13864804D01*
X11113455Y-13864804D02*
X11094408Y-13855280D01*
X11094408Y-13855280D02*
X11084884Y-13845756D01*
X11084884Y-13845756D02*
X11075360Y-13826708D01*
X11075360Y-13826708D02*
X11065836Y-13788613D01*
X11065836Y-13788613D02*
X11065836Y-13740994D01*
X11065836Y-13740994D02*
X11075360Y-13702899D01*
X11075360Y-13702899D02*
X11084884Y-13683851D01*
X11084884Y-13683851D02*
X11094408Y-13674328D01*
X11094408Y-13674328D02*
X11113455Y-13664804D01*
X11370598Y-13864804D02*
X11256312Y-13864804D01*
X11313455Y-13864804D02*
X11313455Y-13664804D01*
X11313455Y-13664804D02*
X11294407Y-13693375D01*
X11294407Y-13693375D02*
X11275360Y-13712423D01*
X11275360Y-13712423D02*
X11256312Y-13721947D01*
X11561074Y-13864804D02*
X11446788Y-13864804D01*
X11503931Y-13864804D02*
X11503931Y-13664804D01*
X11503931Y-13664804D02*
X11484884Y-13693375D01*
X11484884Y-13693375D02*
X11465836Y-13712423D01*
X11465836Y-13712423D02*
X11446788Y-13721947D01*
X11675360Y-13750518D02*
X11656312Y-13740994D01*
X11656312Y-13740994D02*
X11646788Y-13731470D01*
X11646788Y-13731470D02*
X11637265Y-13712423D01*
X11637265Y-13712423D02*
X11637265Y-13702899D01*
X11637265Y-13702899D02*
X11646788Y-13683851D01*
X11646788Y-13683851D02*
X11656312Y-13674328D01*
X11656312Y-13674328D02*
X11675360Y-13664804D01*
X11675360Y-13664804D02*
X11713455Y-13664804D01*
X11713455Y-13664804D02*
X11732503Y-13674328D01*
X11732503Y-13674328D02*
X11742027Y-13683851D01*
X11742027Y-13683851D02*
X11751550Y-13702899D01*
X11751550Y-13702899D02*
X11751550Y-13712423D01*
X11751550Y-13712423D02*
X11742027Y-13731470D01*
X11742027Y-13731470D02*
X11732503Y-13740994D01*
X11732503Y-13740994D02*
X11713455Y-13750518D01*
X11713455Y-13750518D02*
X11675360Y-13750518D01*
X11675360Y-13750518D02*
X11656312Y-13760042D01*
X11656312Y-13760042D02*
X11646788Y-13769566D01*
X11646788Y-13769566D02*
X11637265Y-13788613D01*
X11637265Y-13788613D02*
X11637265Y-13826708D01*
X11637265Y-13826708D02*
X11646788Y-13845756D01*
X11646788Y-13845756D02*
X11656312Y-13855280D01*
X11656312Y-13855280D02*
X11675360Y-13864804D01*
X11675360Y-13864804D02*
X11713455Y-13864804D01*
X11713455Y-13864804D02*
X11732503Y-13855280D01*
X11732503Y-13855280D02*
X11742027Y-13845756D01*
X11742027Y-13845756D02*
X11751550Y-13826708D01*
X11751550Y-13826708D02*
X11751550Y-13788613D01*
X11751550Y-13788613D02*
X11742027Y-13769566D01*
X11742027Y-13769566D02*
X11732503Y-13760042D01*
X11732503Y-13760042D02*
X11713455Y-13750518D01*
X11827741Y-13664804D02*
X11827741Y-13702899D01*
X11903931Y-13664804D02*
X11903931Y-13702899D01*
X12199170Y-13940994D02*
X12189646Y-13931470D01*
X12189646Y-13931470D02*
X12170598Y-13902899D01*
X12170598Y-13902899D02*
X12161074Y-13883851D01*
X12161074Y-13883851D02*
X12151550Y-13855280D01*
X12151550Y-13855280D02*
X12142027Y-13807661D01*
X12142027Y-13807661D02*
X12142027Y-13769566D01*
X12142027Y-13769566D02*
X12151550Y-13721947D01*
X12151550Y-13721947D02*
X12161074Y-13693375D01*
X12161074Y-13693375D02*
X12170598Y-13674328D01*
X12170598Y-13674328D02*
X12189646Y-13645756D01*
X12189646Y-13645756D02*
X12199170Y-13636232D01*
X12256312Y-13664804D02*
X12389646Y-13664804D01*
X12389646Y-13664804D02*
X12303931Y-13864804D01*
X12618217Y-13864804D02*
X12618217Y-13664804D01*
X12703931Y-13864804D02*
X12703931Y-13760042D01*
X12703931Y-13760042D02*
X12694408Y-13740994D01*
X12694408Y-13740994D02*
X12675360Y-13731470D01*
X12675360Y-13731470D02*
X12646789Y-13731470D01*
X12646789Y-13731470D02*
X12627741Y-13740994D01*
X12627741Y-13740994D02*
X12618217Y-13750518D01*
X12827741Y-13864804D02*
X12808693Y-13855280D01*
X12808693Y-13855280D02*
X12799170Y-13845756D01*
X12799170Y-13845756D02*
X12789646Y-13826708D01*
X12789646Y-13826708D02*
X12789646Y-13769566D01*
X12789646Y-13769566D02*
X12799170Y-13750518D01*
X12799170Y-13750518D02*
X12808693Y-13740994D01*
X12808693Y-13740994D02*
X12827741Y-13731470D01*
X12827741Y-13731470D02*
X12856312Y-13731470D01*
X12856312Y-13731470D02*
X12875360Y-13740994D01*
X12875360Y-13740994D02*
X12884884Y-13750518D01*
X12884884Y-13750518D02*
X12894408Y-13769566D01*
X12894408Y-13769566D02*
X12894408Y-13826708D01*
X12894408Y-13826708D02*
X12884884Y-13845756D01*
X12884884Y-13845756D02*
X12875360Y-13855280D01*
X12875360Y-13855280D02*
X12856312Y-13864804D01*
X12856312Y-13864804D02*
X12827741Y-13864804D01*
X13008693Y-13864804D02*
X12989646Y-13855280D01*
X12989646Y-13855280D02*
X12980122Y-13836232D01*
X12980122Y-13836232D02*
X12980122Y-13664804D01*
X13161074Y-13855280D02*
X13142027Y-13864804D01*
X13142027Y-13864804D02*
X13103931Y-13864804D01*
X13103931Y-13864804D02*
X13084884Y-13855280D01*
X13084884Y-13855280D02*
X13075360Y-13836232D01*
X13075360Y-13836232D02*
X13075360Y-13760042D01*
X13075360Y-13760042D02*
X13084884Y-13740994D01*
X13084884Y-13740994D02*
X13103931Y-13731470D01*
X13103931Y-13731470D02*
X13142027Y-13731470D01*
X13142027Y-13731470D02*
X13161074Y-13740994D01*
X13161074Y-13740994D02*
X13170598Y-13760042D01*
X13170598Y-13760042D02*
X13170598Y-13779089D01*
X13170598Y-13779089D02*
X13075360Y-13798137D01*
X13246789Y-13855280D02*
X13265836Y-13864804D01*
X13265836Y-13864804D02*
X13303931Y-13864804D01*
X13303931Y-13864804D02*
X13322979Y-13855280D01*
X13322979Y-13855280D02*
X13332503Y-13836232D01*
X13332503Y-13836232D02*
X13332503Y-13826708D01*
X13332503Y-13826708D02*
X13322979Y-13807661D01*
X13322979Y-13807661D02*
X13303931Y-13798137D01*
X13303931Y-13798137D02*
X13275360Y-13798137D01*
X13275360Y-13798137D02*
X13256312Y-13788613D01*
X13256312Y-13788613D02*
X13246789Y-13769566D01*
X13246789Y-13769566D02*
X13246789Y-13760042D01*
X13246789Y-13760042D02*
X13256312Y-13740994D01*
X13256312Y-13740994D02*
X13275360Y-13731470D01*
X13275360Y-13731470D02*
X13303931Y-13731470D01*
X13303931Y-13731470D02*
X13322979Y-13740994D01*
X13399170Y-13940994D02*
X13408693Y-13931470D01*
X13408693Y-13931470D02*
X13427741Y-13902899D01*
X13427741Y-13902899D02*
X13437265Y-13883851D01*
X13437265Y-13883851D02*
X13446789Y-13855280D01*
X13446789Y-13855280D02*
X13456312Y-13807661D01*
X13456312Y-13807661D02*
X13456312Y-13769566D01*
X13456312Y-13769566D02*
X13446789Y-13721947D01*
X13446789Y-13721947D02*
X13437265Y-13693375D01*
X13437265Y-13693375D02*
X13427741Y-13674328D01*
X13427741Y-13674328D02*
X13408693Y-13645756D01*
X13408693Y-13645756D02*
X13399170Y-13636232D01*
D10*
X8624107Y-14037320D02*
G75*
G02*
X8584107Y-14037320I-20000J0D01*
G01*
X8584107Y-14037320D02*
G75*
G02*
X8624107Y-14037320I20000J0D01*
G01*
D11*
X8922979Y-13928804D02*
X8942026Y-13928804D01*
X8942026Y-13928804D02*
X8961074Y-13938328D01*
X8961074Y-13938328D02*
X8970598Y-13947851D01*
X8970598Y-13947851D02*
X8980122Y-13966899D01*
X8980122Y-13966899D02*
X8989645Y-14004994D01*
X8989645Y-14004994D02*
X8989645Y-14052613D01*
X8989645Y-14052613D02*
X8980122Y-14090708D01*
X8980122Y-14090708D02*
X8970598Y-14109756D01*
X8970598Y-14109756D02*
X8961074Y-14119280D01*
X8961074Y-14119280D02*
X8942026Y-14128804D01*
X8942026Y-14128804D02*
X8922979Y-14128804D01*
X8922979Y-14128804D02*
X8903931Y-14119280D01*
X8903931Y-14119280D02*
X8894407Y-14109756D01*
X8894407Y-14109756D02*
X8884884Y-14090708D01*
X8884884Y-14090708D02*
X8875360Y-14052613D01*
X8875360Y-14052613D02*
X8875360Y-14004994D01*
X8875360Y-14004994D02*
X8884884Y-13966899D01*
X8884884Y-13966899D02*
X8894407Y-13947851D01*
X8894407Y-13947851D02*
X8903931Y-13938328D01*
X8903931Y-13938328D02*
X8922979Y-13928804D01*
X9075360Y-14109756D02*
X9084884Y-14119280D01*
X9084884Y-14119280D02*
X9075360Y-14128804D01*
X9075360Y-14128804D02*
X9065836Y-14119280D01*
X9065836Y-14119280D02*
X9075360Y-14109756D01*
X9075360Y-14109756D02*
X9075360Y-14128804D01*
X9256312Y-13995470D02*
X9256312Y-14128804D01*
X9208693Y-13919280D02*
X9161074Y-14062137D01*
X9161074Y-14062137D02*
X9284884Y-14062137D01*
X9399169Y-13928804D02*
X9418217Y-13928804D01*
X9418217Y-13928804D02*
X9437265Y-13938328D01*
X9437265Y-13938328D02*
X9446788Y-13947851D01*
X9446788Y-13947851D02*
X9456312Y-13966899D01*
X9456312Y-13966899D02*
X9465836Y-14004994D01*
X9465836Y-14004994D02*
X9465836Y-14052613D01*
X9465836Y-14052613D02*
X9456312Y-14090708D01*
X9456312Y-14090708D02*
X9446788Y-14109756D01*
X9446788Y-14109756D02*
X9437265Y-14119280D01*
X9437265Y-14119280D02*
X9418217Y-14128804D01*
X9418217Y-14128804D02*
X9399169Y-14128804D01*
X9399169Y-14128804D02*
X9380122Y-14119280D01*
X9380122Y-14119280D02*
X9370598Y-14109756D01*
X9370598Y-14109756D02*
X9361074Y-14090708D01*
X9361074Y-14090708D02*
X9351550Y-14052613D01*
X9351550Y-14052613D02*
X9351550Y-14004994D01*
X9351550Y-14004994D02*
X9361074Y-13966899D01*
X9361074Y-13966899D02*
X9370598Y-13947851D01*
X9370598Y-13947851D02*
X9380122Y-13938328D01*
X9380122Y-13938328D02*
X9399169Y-13928804D01*
X9589645Y-13928804D02*
X9608693Y-13928804D01*
X9608693Y-13928804D02*
X9627741Y-13938328D01*
X9627741Y-13938328D02*
X9637265Y-13947851D01*
X9637265Y-13947851D02*
X9646788Y-13966899D01*
X9646788Y-13966899D02*
X9656312Y-14004994D01*
X9656312Y-14004994D02*
X9656312Y-14052613D01*
X9656312Y-14052613D02*
X9646788Y-14090708D01*
X9646788Y-14090708D02*
X9637265Y-14109756D01*
X9637265Y-14109756D02*
X9627741Y-14119280D01*
X9627741Y-14119280D02*
X9608693Y-14128804D01*
X9608693Y-14128804D02*
X9589645Y-14128804D01*
X9589645Y-14128804D02*
X9570598Y-14119280D01*
X9570598Y-14119280D02*
X9561074Y-14109756D01*
X9561074Y-14109756D02*
X9551550Y-14090708D01*
X9551550Y-14090708D02*
X9542026Y-14052613D01*
X9542026Y-14052613D02*
X9542026Y-14004994D01*
X9542026Y-14004994D02*
X9551550Y-13966899D01*
X9551550Y-13966899D02*
X9561074Y-13947851D01*
X9561074Y-13947851D02*
X9570598Y-13938328D01*
X9570598Y-13938328D02*
X9589645Y-13928804D01*
X9742026Y-14128804D02*
X9742026Y-13995470D01*
X9742026Y-14014518D02*
X9751550Y-14004994D01*
X9751550Y-14004994D02*
X9770598Y-13995470D01*
X9770598Y-13995470D02*
X9799169Y-13995470D01*
X9799169Y-13995470D02*
X9818217Y-14004994D01*
X9818217Y-14004994D02*
X9827741Y-14024042D01*
X9827741Y-14024042D02*
X9827741Y-14128804D01*
X9827741Y-14024042D02*
X9837265Y-14004994D01*
X9837265Y-14004994D02*
X9856312Y-13995470D01*
X9856312Y-13995470D02*
X9884884Y-13995470D01*
X9884884Y-13995470D02*
X9903931Y-14004994D01*
X9903931Y-14004994D02*
X9913455Y-14024042D01*
X9913455Y-14024042D02*
X9913455Y-14128804D01*
X10008693Y-14128804D02*
X10008693Y-13995470D01*
X10008693Y-14014518D02*
X10018217Y-14004994D01*
X10018217Y-14004994D02*
X10037265Y-13995470D01*
X10037265Y-13995470D02*
X10065836Y-13995470D01*
X10065836Y-13995470D02*
X10084884Y-14004994D01*
X10084884Y-14004994D02*
X10094407Y-14024042D01*
X10094407Y-14024042D02*
X10094407Y-14128804D01*
X10094407Y-14024042D02*
X10103931Y-14004994D01*
X10103931Y-14004994D02*
X10122979Y-13995470D01*
X10122979Y-13995470D02*
X10151550Y-13995470D01*
X10151550Y-13995470D02*
X10170598Y-14004994D01*
X10170598Y-14004994D02*
X10180122Y-14024042D01*
X10180122Y-14024042D02*
X10180122Y-14128804D01*
X10570598Y-13919280D02*
X10399169Y-14176423D01*
X10827741Y-13928804D02*
X10846789Y-13928804D01*
X10846789Y-13928804D02*
X10865836Y-13938328D01*
X10865836Y-13938328D02*
X10875360Y-13947851D01*
X10875360Y-13947851D02*
X10884884Y-13966899D01*
X10884884Y-13966899D02*
X10894408Y-14004994D01*
X10894408Y-14004994D02*
X10894408Y-14052613D01*
X10894408Y-14052613D02*
X10884884Y-14090708D01*
X10884884Y-14090708D02*
X10875360Y-14109756D01*
X10875360Y-14109756D02*
X10865836Y-14119280D01*
X10865836Y-14119280D02*
X10846789Y-14128804D01*
X10846789Y-14128804D02*
X10827741Y-14128804D01*
X10827741Y-14128804D02*
X10808693Y-14119280D01*
X10808693Y-14119280D02*
X10799169Y-14109756D01*
X10799169Y-14109756D02*
X10789646Y-14090708D01*
X10789646Y-14090708D02*
X10780122Y-14052613D01*
X10780122Y-14052613D02*
X10780122Y-14004994D01*
X10780122Y-14004994D02*
X10789646Y-13966899D01*
X10789646Y-13966899D02*
X10799169Y-13947851D01*
X10799169Y-13947851D02*
X10808693Y-13938328D01*
X10808693Y-13938328D02*
X10827741Y-13928804D01*
X10980122Y-14109756D02*
X10989646Y-14119280D01*
X10989646Y-14119280D02*
X10980122Y-14128804D01*
X10980122Y-14128804D02*
X10970598Y-14119280D01*
X10970598Y-14119280D02*
X10980122Y-14109756D01*
X10980122Y-14109756D02*
X10980122Y-14128804D01*
X11113455Y-13928804D02*
X11132503Y-13928804D01*
X11132503Y-13928804D02*
X11151550Y-13938328D01*
X11151550Y-13938328D02*
X11161074Y-13947851D01*
X11161074Y-13947851D02*
X11170598Y-13966899D01*
X11170598Y-13966899D02*
X11180122Y-14004994D01*
X11180122Y-14004994D02*
X11180122Y-14052613D01*
X11180122Y-14052613D02*
X11170598Y-14090708D01*
X11170598Y-14090708D02*
X11161074Y-14109756D01*
X11161074Y-14109756D02*
X11151550Y-14119280D01*
X11151550Y-14119280D02*
X11132503Y-14128804D01*
X11132503Y-14128804D02*
X11113455Y-14128804D01*
X11113455Y-14128804D02*
X11094408Y-14119280D01*
X11094408Y-14119280D02*
X11084884Y-14109756D01*
X11084884Y-14109756D02*
X11075360Y-14090708D01*
X11075360Y-14090708D02*
X11065836Y-14052613D01*
X11065836Y-14052613D02*
X11065836Y-14004994D01*
X11065836Y-14004994D02*
X11075360Y-13966899D01*
X11075360Y-13966899D02*
X11084884Y-13947851D01*
X11084884Y-13947851D02*
X11094408Y-13938328D01*
X11094408Y-13938328D02*
X11113455Y-13928804D01*
X11370598Y-14128804D02*
X11256312Y-14128804D01*
X11313455Y-14128804D02*
X11313455Y-13928804D01*
X11313455Y-13928804D02*
X11294407Y-13957375D01*
X11294407Y-13957375D02*
X11275360Y-13976423D01*
X11275360Y-13976423D02*
X11256312Y-13985947D01*
X11551550Y-13928804D02*
X11456312Y-13928804D01*
X11456312Y-13928804D02*
X11446788Y-14024042D01*
X11446788Y-14024042D02*
X11456312Y-14014518D01*
X11456312Y-14014518D02*
X11475360Y-14004994D01*
X11475360Y-14004994D02*
X11522979Y-14004994D01*
X11522979Y-14004994D02*
X11542027Y-14014518D01*
X11542027Y-14014518D02*
X11551550Y-14024042D01*
X11551550Y-14024042D02*
X11561074Y-14043089D01*
X11561074Y-14043089D02*
X11561074Y-14090708D01*
X11561074Y-14090708D02*
X11551550Y-14109756D01*
X11551550Y-14109756D02*
X11542027Y-14119280D01*
X11542027Y-14119280D02*
X11522979Y-14128804D01*
X11522979Y-14128804D02*
X11475360Y-14128804D01*
X11475360Y-14128804D02*
X11456312Y-14119280D01*
X11456312Y-14119280D02*
X11446788Y-14109756D01*
X11627741Y-13928804D02*
X11761074Y-13928804D01*
X11761074Y-13928804D02*
X11675360Y-14128804D01*
X11827741Y-13928804D02*
X11827741Y-13966899D01*
X11903931Y-13928804D02*
X11903931Y-13966899D01*
X12199170Y-14204994D02*
X12189646Y-14195470D01*
X12189646Y-14195470D02*
X12170598Y-14166899D01*
X12170598Y-14166899D02*
X12161074Y-14147851D01*
X12161074Y-14147851D02*
X12151550Y-14119280D01*
X12151550Y-14119280D02*
X12142027Y-14071661D01*
X12142027Y-14071661D02*
X12142027Y-14033566D01*
X12142027Y-14033566D02*
X12151550Y-13985947D01*
X12151550Y-13985947D02*
X12161074Y-13957375D01*
X12161074Y-13957375D02*
X12170598Y-13938328D01*
X12170598Y-13938328D02*
X12189646Y-13909756D01*
X12189646Y-13909756D02*
X12199170Y-13900232D01*
X12380122Y-14128804D02*
X12265836Y-14128804D01*
X12322979Y-14128804D02*
X12322979Y-13928804D01*
X12322979Y-13928804D02*
X12303931Y-13957375D01*
X12303931Y-13957375D02*
X12284884Y-13976423D01*
X12284884Y-13976423D02*
X12265836Y-13985947D01*
X12561074Y-13928804D02*
X12465836Y-13928804D01*
X12465836Y-13928804D02*
X12456312Y-14024042D01*
X12456312Y-14024042D02*
X12465836Y-14014518D01*
X12465836Y-14014518D02*
X12484884Y-14004994D01*
X12484884Y-14004994D02*
X12532503Y-14004994D01*
X12532503Y-14004994D02*
X12551550Y-14014518D01*
X12551550Y-14014518D02*
X12561074Y-14024042D01*
X12561074Y-14024042D02*
X12570598Y-14043089D01*
X12570598Y-14043089D02*
X12570598Y-14090708D01*
X12570598Y-14090708D02*
X12561074Y-14109756D01*
X12561074Y-14109756D02*
X12551550Y-14119280D01*
X12551550Y-14119280D02*
X12532503Y-14128804D01*
X12532503Y-14128804D02*
X12484884Y-14128804D01*
X12484884Y-14128804D02*
X12465836Y-14119280D01*
X12465836Y-14119280D02*
X12456312Y-14109756D01*
X12742027Y-13928804D02*
X12703931Y-13928804D01*
X12703931Y-13928804D02*
X12684884Y-13938328D01*
X12684884Y-13938328D02*
X12675360Y-13947851D01*
X12675360Y-13947851D02*
X12656312Y-13976423D01*
X12656312Y-13976423D02*
X12646789Y-14014518D01*
X12646789Y-14014518D02*
X12646789Y-14090708D01*
X12646789Y-14090708D02*
X12656312Y-14109756D01*
X12656312Y-14109756D02*
X12665836Y-14119280D01*
X12665836Y-14119280D02*
X12684884Y-14128804D01*
X12684884Y-14128804D02*
X12722979Y-14128804D01*
X12722979Y-14128804D02*
X12742027Y-14119280D01*
X12742027Y-14119280D02*
X12751550Y-14109756D01*
X12751550Y-14109756D02*
X12761074Y-14090708D01*
X12761074Y-14090708D02*
X12761074Y-14043089D01*
X12761074Y-14043089D02*
X12751550Y-14024042D01*
X12751550Y-14024042D02*
X12742027Y-14014518D01*
X12742027Y-14014518D02*
X12722979Y-14004994D01*
X12722979Y-14004994D02*
X12684884Y-14004994D01*
X12684884Y-14004994D02*
X12665836Y-14014518D01*
X12665836Y-14014518D02*
X12656312Y-14024042D01*
X12656312Y-14024042D02*
X12646789Y-14043089D01*
X12999170Y-14128804D02*
X12999170Y-13928804D01*
X13084884Y-14128804D02*
X13084884Y-14024042D01*
X13084884Y-14024042D02*
X13075360Y-14004994D01*
X13075360Y-14004994D02*
X13056312Y-13995470D01*
X13056312Y-13995470D02*
X13027741Y-13995470D01*
X13027741Y-13995470D02*
X13008693Y-14004994D01*
X13008693Y-14004994D02*
X12999170Y-14014518D01*
X13208693Y-14128804D02*
X13189646Y-14119280D01*
X13189646Y-14119280D02*
X13180122Y-14109756D01*
X13180122Y-14109756D02*
X13170598Y-14090708D01*
X13170598Y-14090708D02*
X13170598Y-14033566D01*
X13170598Y-14033566D02*
X13180122Y-14014518D01*
X13180122Y-14014518D02*
X13189646Y-14004994D01*
X13189646Y-14004994D02*
X13208693Y-13995470D01*
X13208693Y-13995470D02*
X13237265Y-13995470D01*
X13237265Y-13995470D02*
X13256312Y-14004994D01*
X13256312Y-14004994D02*
X13265836Y-14014518D01*
X13265836Y-14014518D02*
X13275360Y-14033566D01*
X13275360Y-14033566D02*
X13275360Y-14090708D01*
X13275360Y-14090708D02*
X13265836Y-14109756D01*
X13265836Y-14109756D02*
X13256312Y-14119280D01*
X13256312Y-14119280D02*
X13237265Y-14128804D01*
X13237265Y-14128804D02*
X13208693Y-14128804D01*
X13389646Y-14128804D02*
X13370598Y-14119280D01*
X13370598Y-14119280D02*
X13361074Y-14100232D01*
X13361074Y-14100232D02*
X13361074Y-13928804D01*
X13542027Y-14119280D02*
X13522979Y-14128804D01*
X13522979Y-14128804D02*
X13484884Y-14128804D01*
X13484884Y-14128804D02*
X13465836Y-14119280D01*
X13465836Y-14119280D02*
X13456312Y-14100232D01*
X13456312Y-14100232D02*
X13456312Y-14024042D01*
X13456312Y-14024042D02*
X13465836Y-14004994D01*
X13465836Y-14004994D02*
X13484884Y-13995470D01*
X13484884Y-13995470D02*
X13522979Y-13995470D01*
X13522979Y-13995470D02*
X13542027Y-14004994D01*
X13542027Y-14004994D02*
X13551551Y-14024042D01*
X13551551Y-14024042D02*
X13551551Y-14043089D01*
X13551551Y-14043089D02*
X13456312Y-14062137D01*
X13627741Y-14119280D02*
X13646789Y-14128804D01*
X13646789Y-14128804D02*
X13684884Y-14128804D01*
X13684884Y-14128804D02*
X13703932Y-14119280D01*
X13703932Y-14119280D02*
X13713455Y-14100232D01*
X13713455Y-14100232D02*
X13713455Y-14090708D01*
X13713455Y-14090708D02*
X13703932Y-14071661D01*
X13703932Y-14071661D02*
X13684884Y-14062137D01*
X13684884Y-14062137D02*
X13656312Y-14062137D01*
X13656312Y-14062137D02*
X13637265Y-14052613D01*
X13637265Y-14052613D02*
X13627741Y-14033566D01*
X13627741Y-14033566D02*
X13627741Y-14024042D01*
X13627741Y-14024042D02*
X13637265Y-14004994D01*
X13637265Y-14004994D02*
X13656312Y-13995470D01*
X13656312Y-13995470D02*
X13684884Y-13995470D01*
X13684884Y-13995470D02*
X13703932Y-14004994D01*
X13780122Y-14204994D02*
X13789646Y-14195470D01*
X13789646Y-14195470D02*
X13808693Y-14166899D01*
X13808693Y-14166899D02*
X13818217Y-14147851D01*
X13818217Y-14147851D02*
X13827741Y-14119280D01*
X13827741Y-14119280D02*
X13837265Y-14071661D01*
X13837265Y-14071661D02*
X13837265Y-14033566D01*
X13837265Y-14033566D02*
X13827741Y-13985947D01*
X13827741Y-13985947D02*
X13818217Y-13957375D01*
X13818217Y-13957375D02*
X13808693Y-13938328D01*
X13808693Y-13938328D02*
X13789646Y-13909756D01*
X13789646Y-13909756D02*
X13780122Y-13900232D01*
D10*
X8584107Y-14261320D02*
X8584107Y-14341320D01*
X8544107Y-14301320D02*
X8624107Y-14301320D01*
D11*
X8922979Y-14192804D02*
X8942026Y-14192804D01*
X8942026Y-14192804D02*
X8961074Y-14202328D01*
X8961074Y-14202328D02*
X8970598Y-14211851D01*
X8970598Y-14211851D02*
X8980122Y-14230899D01*
X8980122Y-14230899D02*
X8989645Y-14268994D01*
X8989645Y-14268994D02*
X8989645Y-14316613D01*
X8989645Y-14316613D02*
X8980122Y-14354708D01*
X8980122Y-14354708D02*
X8970598Y-14373756D01*
X8970598Y-14373756D02*
X8961074Y-14383280D01*
X8961074Y-14383280D02*
X8942026Y-14392804D01*
X8942026Y-14392804D02*
X8922979Y-14392804D01*
X8922979Y-14392804D02*
X8903931Y-14383280D01*
X8903931Y-14383280D02*
X8894407Y-14373756D01*
X8894407Y-14373756D02*
X8884884Y-14354708D01*
X8884884Y-14354708D02*
X8875360Y-14316613D01*
X8875360Y-14316613D02*
X8875360Y-14268994D01*
X8875360Y-14268994D02*
X8884884Y-14230899D01*
X8884884Y-14230899D02*
X8894407Y-14211851D01*
X8894407Y-14211851D02*
X8903931Y-14202328D01*
X8903931Y-14202328D02*
X8922979Y-14192804D01*
X9075360Y-14373756D02*
X9084884Y-14383280D01*
X9084884Y-14383280D02*
X9075360Y-14392804D01*
X9075360Y-14392804D02*
X9065836Y-14383280D01*
X9065836Y-14383280D02*
X9075360Y-14373756D01*
X9075360Y-14373756D02*
X9075360Y-14392804D01*
X9199169Y-14278518D02*
X9180122Y-14268994D01*
X9180122Y-14268994D02*
X9170598Y-14259470D01*
X9170598Y-14259470D02*
X9161074Y-14240423D01*
X9161074Y-14240423D02*
X9161074Y-14230899D01*
X9161074Y-14230899D02*
X9170598Y-14211851D01*
X9170598Y-14211851D02*
X9180122Y-14202328D01*
X9180122Y-14202328D02*
X9199169Y-14192804D01*
X9199169Y-14192804D02*
X9237265Y-14192804D01*
X9237265Y-14192804D02*
X9256312Y-14202328D01*
X9256312Y-14202328D02*
X9265836Y-14211851D01*
X9265836Y-14211851D02*
X9275360Y-14230899D01*
X9275360Y-14230899D02*
X9275360Y-14240423D01*
X9275360Y-14240423D02*
X9265836Y-14259470D01*
X9265836Y-14259470D02*
X9256312Y-14268994D01*
X9256312Y-14268994D02*
X9237265Y-14278518D01*
X9237265Y-14278518D02*
X9199169Y-14278518D01*
X9199169Y-14278518D02*
X9180122Y-14288042D01*
X9180122Y-14288042D02*
X9170598Y-14297566D01*
X9170598Y-14297566D02*
X9161074Y-14316613D01*
X9161074Y-14316613D02*
X9161074Y-14354708D01*
X9161074Y-14354708D02*
X9170598Y-14373756D01*
X9170598Y-14373756D02*
X9180122Y-14383280D01*
X9180122Y-14383280D02*
X9199169Y-14392804D01*
X9199169Y-14392804D02*
X9237265Y-14392804D01*
X9237265Y-14392804D02*
X9256312Y-14383280D01*
X9256312Y-14383280D02*
X9265836Y-14373756D01*
X9265836Y-14373756D02*
X9275360Y-14354708D01*
X9275360Y-14354708D02*
X9275360Y-14316613D01*
X9275360Y-14316613D02*
X9265836Y-14297566D01*
X9265836Y-14297566D02*
X9256312Y-14288042D01*
X9256312Y-14288042D02*
X9237265Y-14278518D01*
X9399169Y-14192804D02*
X9418217Y-14192804D01*
X9418217Y-14192804D02*
X9437265Y-14202328D01*
X9437265Y-14202328D02*
X9446788Y-14211851D01*
X9446788Y-14211851D02*
X9456312Y-14230899D01*
X9456312Y-14230899D02*
X9465836Y-14268994D01*
X9465836Y-14268994D02*
X9465836Y-14316613D01*
X9465836Y-14316613D02*
X9456312Y-14354708D01*
X9456312Y-14354708D02*
X9446788Y-14373756D01*
X9446788Y-14373756D02*
X9437265Y-14383280D01*
X9437265Y-14383280D02*
X9418217Y-14392804D01*
X9418217Y-14392804D02*
X9399169Y-14392804D01*
X9399169Y-14392804D02*
X9380122Y-14383280D01*
X9380122Y-14383280D02*
X9370598Y-14373756D01*
X9370598Y-14373756D02*
X9361074Y-14354708D01*
X9361074Y-14354708D02*
X9351550Y-14316613D01*
X9351550Y-14316613D02*
X9351550Y-14268994D01*
X9351550Y-14268994D02*
X9361074Y-14230899D01*
X9361074Y-14230899D02*
X9370598Y-14211851D01*
X9370598Y-14211851D02*
X9380122Y-14202328D01*
X9380122Y-14202328D02*
X9399169Y-14192804D01*
X9589645Y-14192804D02*
X9608693Y-14192804D01*
X9608693Y-14192804D02*
X9627741Y-14202328D01*
X9627741Y-14202328D02*
X9637265Y-14211851D01*
X9637265Y-14211851D02*
X9646788Y-14230899D01*
X9646788Y-14230899D02*
X9656312Y-14268994D01*
X9656312Y-14268994D02*
X9656312Y-14316613D01*
X9656312Y-14316613D02*
X9646788Y-14354708D01*
X9646788Y-14354708D02*
X9637265Y-14373756D01*
X9637265Y-14373756D02*
X9627741Y-14383280D01*
X9627741Y-14383280D02*
X9608693Y-14392804D01*
X9608693Y-14392804D02*
X9589645Y-14392804D01*
X9589645Y-14392804D02*
X9570598Y-14383280D01*
X9570598Y-14383280D02*
X9561074Y-14373756D01*
X9561074Y-14373756D02*
X9551550Y-14354708D01*
X9551550Y-14354708D02*
X9542026Y-14316613D01*
X9542026Y-14316613D02*
X9542026Y-14268994D01*
X9542026Y-14268994D02*
X9551550Y-14230899D01*
X9551550Y-14230899D02*
X9561074Y-14211851D01*
X9561074Y-14211851D02*
X9570598Y-14202328D01*
X9570598Y-14202328D02*
X9589645Y-14192804D01*
X9742026Y-14392804D02*
X9742026Y-14259470D01*
X9742026Y-14278518D02*
X9751550Y-14268994D01*
X9751550Y-14268994D02*
X9770598Y-14259470D01*
X9770598Y-14259470D02*
X9799169Y-14259470D01*
X9799169Y-14259470D02*
X9818217Y-14268994D01*
X9818217Y-14268994D02*
X9827741Y-14288042D01*
X9827741Y-14288042D02*
X9827741Y-14392804D01*
X9827741Y-14288042D02*
X9837265Y-14268994D01*
X9837265Y-14268994D02*
X9856312Y-14259470D01*
X9856312Y-14259470D02*
X9884884Y-14259470D01*
X9884884Y-14259470D02*
X9903931Y-14268994D01*
X9903931Y-14268994D02*
X9913455Y-14288042D01*
X9913455Y-14288042D02*
X9913455Y-14392804D01*
X10008693Y-14392804D02*
X10008693Y-14259470D01*
X10008693Y-14278518D02*
X10018217Y-14268994D01*
X10018217Y-14268994D02*
X10037265Y-14259470D01*
X10037265Y-14259470D02*
X10065836Y-14259470D01*
X10065836Y-14259470D02*
X10084884Y-14268994D01*
X10084884Y-14268994D02*
X10094407Y-14288042D01*
X10094407Y-14288042D02*
X10094407Y-14392804D01*
X10094407Y-14288042D02*
X10103931Y-14268994D01*
X10103931Y-14268994D02*
X10122979Y-14259470D01*
X10122979Y-14259470D02*
X10151550Y-14259470D01*
X10151550Y-14259470D02*
X10170598Y-14268994D01*
X10170598Y-14268994D02*
X10180122Y-14288042D01*
X10180122Y-14288042D02*
X10180122Y-14392804D01*
X10570598Y-14183280D02*
X10399169Y-14440423D01*
X10827741Y-14192804D02*
X10846789Y-14192804D01*
X10846789Y-14192804D02*
X10865836Y-14202328D01*
X10865836Y-14202328D02*
X10875360Y-14211851D01*
X10875360Y-14211851D02*
X10884884Y-14230899D01*
X10884884Y-14230899D02*
X10894408Y-14268994D01*
X10894408Y-14268994D02*
X10894408Y-14316613D01*
X10894408Y-14316613D02*
X10884884Y-14354708D01*
X10884884Y-14354708D02*
X10875360Y-14373756D01*
X10875360Y-14373756D02*
X10865836Y-14383280D01*
X10865836Y-14383280D02*
X10846789Y-14392804D01*
X10846789Y-14392804D02*
X10827741Y-14392804D01*
X10827741Y-14392804D02*
X10808693Y-14383280D01*
X10808693Y-14383280D02*
X10799169Y-14373756D01*
X10799169Y-14373756D02*
X10789646Y-14354708D01*
X10789646Y-14354708D02*
X10780122Y-14316613D01*
X10780122Y-14316613D02*
X10780122Y-14268994D01*
X10780122Y-14268994D02*
X10789646Y-14230899D01*
X10789646Y-14230899D02*
X10799169Y-14211851D01*
X10799169Y-14211851D02*
X10808693Y-14202328D01*
X10808693Y-14202328D02*
X10827741Y-14192804D01*
X10980122Y-14373756D02*
X10989646Y-14383280D01*
X10989646Y-14383280D02*
X10980122Y-14392804D01*
X10980122Y-14392804D02*
X10970598Y-14383280D01*
X10970598Y-14383280D02*
X10980122Y-14373756D01*
X10980122Y-14373756D02*
X10980122Y-14392804D01*
X11113455Y-14192804D02*
X11132503Y-14192804D01*
X11132503Y-14192804D02*
X11151550Y-14202328D01*
X11151550Y-14202328D02*
X11161074Y-14211851D01*
X11161074Y-14211851D02*
X11170598Y-14230899D01*
X11170598Y-14230899D02*
X11180122Y-14268994D01*
X11180122Y-14268994D02*
X11180122Y-14316613D01*
X11180122Y-14316613D02*
X11170598Y-14354708D01*
X11170598Y-14354708D02*
X11161074Y-14373756D01*
X11161074Y-14373756D02*
X11151550Y-14383280D01*
X11151550Y-14383280D02*
X11132503Y-14392804D01*
X11132503Y-14392804D02*
X11113455Y-14392804D01*
X11113455Y-14392804D02*
X11094408Y-14383280D01*
X11094408Y-14383280D02*
X11084884Y-14373756D01*
X11084884Y-14373756D02*
X11075360Y-14354708D01*
X11075360Y-14354708D02*
X11065836Y-14316613D01*
X11065836Y-14316613D02*
X11065836Y-14268994D01*
X11065836Y-14268994D02*
X11075360Y-14230899D01*
X11075360Y-14230899D02*
X11084884Y-14211851D01*
X11084884Y-14211851D02*
X11094408Y-14202328D01*
X11094408Y-14202328D02*
X11113455Y-14192804D01*
X11246788Y-14192804D02*
X11370598Y-14192804D01*
X11370598Y-14192804D02*
X11303931Y-14268994D01*
X11303931Y-14268994D02*
X11332503Y-14268994D01*
X11332503Y-14268994D02*
X11351550Y-14278518D01*
X11351550Y-14278518D02*
X11361074Y-14288042D01*
X11361074Y-14288042D02*
X11370598Y-14307089D01*
X11370598Y-14307089D02*
X11370598Y-14354708D01*
X11370598Y-14354708D02*
X11361074Y-14373756D01*
X11361074Y-14373756D02*
X11351550Y-14383280D01*
X11351550Y-14383280D02*
X11332503Y-14392804D01*
X11332503Y-14392804D02*
X11275360Y-14392804D01*
X11275360Y-14392804D02*
X11256312Y-14383280D01*
X11256312Y-14383280D02*
X11246788Y-14373756D01*
X11561074Y-14392804D02*
X11446788Y-14392804D01*
X11503931Y-14392804D02*
X11503931Y-14192804D01*
X11503931Y-14192804D02*
X11484884Y-14221375D01*
X11484884Y-14221375D02*
X11465836Y-14240423D01*
X11465836Y-14240423D02*
X11446788Y-14249947D01*
X11742027Y-14192804D02*
X11646788Y-14192804D01*
X11646788Y-14192804D02*
X11637265Y-14288042D01*
X11637265Y-14288042D02*
X11646788Y-14278518D01*
X11646788Y-14278518D02*
X11665836Y-14268994D01*
X11665836Y-14268994D02*
X11713455Y-14268994D01*
X11713455Y-14268994D02*
X11732503Y-14278518D01*
X11732503Y-14278518D02*
X11742027Y-14288042D01*
X11742027Y-14288042D02*
X11751550Y-14307089D01*
X11751550Y-14307089D02*
X11751550Y-14354708D01*
X11751550Y-14354708D02*
X11742027Y-14373756D01*
X11742027Y-14373756D02*
X11732503Y-14383280D01*
X11732503Y-14383280D02*
X11713455Y-14392804D01*
X11713455Y-14392804D02*
X11665836Y-14392804D01*
X11665836Y-14392804D02*
X11646788Y-14383280D01*
X11646788Y-14383280D02*
X11637265Y-14373756D01*
X11827741Y-14192804D02*
X11827741Y-14230899D01*
X11903931Y-14192804D02*
X11903931Y-14230899D01*
X12199170Y-14468994D02*
X12189646Y-14459470D01*
X12189646Y-14459470D02*
X12170598Y-14430899D01*
X12170598Y-14430899D02*
X12161074Y-14411851D01*
X12161074Y-14411851D02*
X12151550Y-14383280D01*
X12151550Y-14383280D02*
X12142027Y-14335661D01*
X12142027Y-14335661D02*
X12142027Y-14297566D01*
X12142027Y-14297566D02*
X12151550Y-14249947D01*
X12151550Y-14249947D02*
X12161074Y-14221375D01*
X12161074Y-14221375D02*
X12170598Y-14202328D01*
X12170598Y-14202328D02*
X12189646Y-14173756D01*
X12189646Y-14173756D02*
X12199170Y-14164232D01*
X12265836Y-14211851D02*
X12275360Y-14202328D01*
X12275360Y-14202328D02*
X12294408Y-14192804D01*
X12294408Y-14192804D02*
X12342027Y-14192804D01*
X12342027Y-14192804D02*
X12361074Y-14202328D01*
X12361074Y-14202328D02*
X12370598Y-14211851D01*
X12370598Y-14211851D02*
X12380122Y-14230899D01*
X12380122Y-14230899D02*
X12380122Y-14249947D01*
X12380122Y-14249947D02*
X12370598Y-14278518D01*
X12370598Y-14278518D02*
X12256312Y-14392804D01*
X12256312Y-14392804D02*
X12380122Y-14392804D01*
X12561074Y-14192804D02*
X12465836Y-14192804D01*
X12465836Y-14192804D02*
X12456312Y-14288042D01*
X12456312Y-14288042D02*
X12465836Y-14278518D01*
X12465836Y-14278518D02*
X12484884Y-14268994D01*
X12484884Y-14268994D02*
X12532503Y-14268994D01*
X12532503Y-14268994D02*
X12551550Y-14278518D01*
X12551550Y-14278518D02*
X12561074Y-14288042D01*
X12561074Y-14288042D02*
X12570598Y-14307089D01*
X12570598Y-14307089D02*
X12570598Y-14354708D01*
X12570598Y-14354708D02*
X12561074Y-14373756D01*
X12561074Y-14373756D02*
X12551550Y-14383280D01*
X12551550Y-14383280D02*
X12532503Y-14392804D01*
X12532503Y-14392804D02*
X12484884Y-14392804D01*
X12484884Y-14392804D02*
X12465836Y-14383280D01*
X12465836Y-14383280D02*
X12456312Y-14373756D01*
X12694408Y-14192804D02*
X12713455Y-14192804D01*
X12713455Y-14192804D02*
X12732503Y-14202328D01*
X12732503Y-14202328D02*
X12742027Y-14211851D01*
X12742027Y-14211851D02*
X12751550Y-14230899D01*
X12751550Y-14230899D02*
X12761074Y-14268994D01*
X12761074Y-14268994D02*
X12761074Y-14316613D01*
X12761074Y-14316613D02*
X12751550Y-14354708D01*
X12751550Y-14354708D02*
X12742027Y-14373756D01*
X12742027Y-14373756D02*
X12732503Y-14383280D01*
X12732503Y-14383280D02*
X12713455Y-14392804D01*
X12713455Y-14392804D02*
X12694408Y-14392804D01*
X12694408Y-14392804D02*
X12675360Y-14383280D01*
X12675360Y-14383280D02*
X12665836Y-14373756D01*
X12665836Y-14373756D02*
X12656312Y-14354708D01*
X12656312Y-14354708D02*
X12646789Y-14316613D01*
X12646789Y-14316613D02*
X12646789Y-14268994D01*
X12646789Y-14268994D02*
X12656312Y-14230899D01*
X12656312Y-14230899D02*
X12665836Y-14211851D01*
X12665836Y-14211851D02*
X12675360Y-14202328D01*
X12675360Y-14202328D02*
X12694408Y-14192804D01*
X12999170Y-14392804D02*
X12999170Y-14192804D01*
X13084884Y-14392804D02*
X13084884Y-14288042D01*
X13084884Y-14288042D02*
X13075360Y-14268994D01*
X13075360Y-14268994D02*
X13056312Y-14259470D01*
X13056312Y-14259470D02*
X13027741Y-14259470D01*
X13027741Y-14259470D02*
X13008693Y-14268994D01*
X13008693Y-14268994D02*
X12999170Y-14278518D01*
X13208693Y-14392804D02*
X13189646Y-14383280D01*
X13189646Y-14383280D02*
X13180122Y-14373756D01*
X13180122Y-14373756D02*
X13170598Y-14354708D01*
X13170598Y-14354708D02*
X13170598Y-14297566D01*
X13170598Y-14297566D02*
X13180122Y-14278518D01*
X13180122Y-14278518D02*
X13189646Y-14268994D01*
X13189646Y-14268994D02*
X13208693Y-14259470D01*
X13208693Y-14259470D02*
X13237265Y-14259470D01*
X13237265Y-14259470D02*
X13256312Y-14268994D01*
X13256312Y-14268994D02*
X13265836Y-14278518D01*
X13265836Y-14278518D02*
X13275360Y-14297566D01*
X13275360Y-14297566D02*
X13275360Y-14354708D01*
X13275360Y-14354708D02*
X13265836Y-14373756D01*
X13265836Y-14373756D02*
X13256312Y-14383280D01*
X13256312Y-14383280D02*
X13237265Y-14392804D01*
X13237265Y-14392804D02*
X13208693Y-14392804D01*
X13389646Y-14392804D02*
X13370598Y-14383280D01*
X13370598Y-14383280D02*
X13361074Y-14364232D01*
X13361074Y-14364232D02*
X13361074Y-14192804D01*
X13542027Y-14383280D02*
X13522979Y-14392804D01*
X13522979Y-14392804D02*
X13484884Y-14392804D01*
X13484884Y-14392804D02*
X13465836Y-14383280D01*
X13465836Y-14383280D02*
X13456312Y-14364232D01*
X13456312Y-14364232D02*
X13456312Y-14288042D01*
X13456312Y-14288042D02*
X13465836Y-14268994D01*
X13465836Y-14268994D02*
X13484884Y-14259470D01*
X13484884Y-14259470D02*
X13522979Y-14259470D01*
X13522979Y-14259470D02*
X13542027Y-14268994D01*
X13542027Y-14268994D02*
X13551551Y-14288042D01*
X13551551Y-14288042D02*
X13551551Y-14307089D01*
X13551551Y-14307089D02*
X13456312Y-14326137D01*
X13627741Y-14383280D02*
X13646789Y-14392804D01*
X13646789Y-14392804D02*
X13684884Y-14392804D01*
X13684884Y-14392804D02*
X13703932Y-14383280D01*
X13703932Y-14383280D02*
X13713455Y-14364232D01*
X13713455Y-14364232D02*
X13713455Y-14354708D01*
X13713455Y-14354708D02*
X13703932Y-14335661D01*
X13703932Y-14335661D02*
X13684884Y-14326137D01*
X13684884Y-14326137D02*
X13656312Y-14326137D01*
X13656312Y-14326137D02*
X13637265Y-14316613D01*
X13637265Y-14316613D02*
X13627741Y-14297566D01*
X13627741Y-14297566D02*
X13627741Y-14288042D01*
X13627741Y-14288042D02*
X13637265Y-14268994D01*
X13637265Y-14268994D02*
X13656312Y-14259470D01*
X13656312Y-14259470D02*
X13684884Y-14259470D01*
X13684884Y-14259470D02*
X13703932Y-14268994D01*
X13780122Y-14468994D02*
X13789646Y-14459470D01*
X13789646Y-14459470D02*
X13808693Y-14430899D01*
X13808693Y-14430899D02*
X13818217Y-14411851D01*
X13818217Y-14411851D02*
X13827741Y-14383280D01*
X13827741Y-14383280D02*
X13837265Y-14335661D01*
X13837265Y-14335661D02*
X13837265Y-14297566D01*
X13837265Y-14297566D02*
X13827741Y-14249947D01*
X13827741Y-14249947D02*
X13818217Y-14221375D01*
X13818217Y-14221375D02*
X13808693Y-14202328D01*
X13808693Y-14202328D02*
X13789646Y-14173756D01*
X13789646Y-14173756D02*
X13780122Y-14164232D01*
M02*
