%TF.GenerationSoftware,KiCad,Pcbnew,10.0.4*%
%TF.CreationDate,2026-07-26T00:04:54+09:00*%
%TF.ProjectId,project_mega_ram,70726f6a-6563-4745-9f6d-6567615f7261,1.0*%
%TF.SameCoordinates,Original*%
%TF.FileFunction,Drillmap*%
%TF.FilePolarity,Positive*%
%FSLAX45Y45*%
G04 Gerber Fmt 4.5, Leading zero omitted, Abs format (unit mm)*
G04 Created by KiCad (PCBNEW 10.0.4) date 2026-07-26 00:04:54*
%MOMM*%
%LPD*%
G01*
G04 APERTURE LIST*
%ADD10C,0.100000*%
%ADD11C,0.200000*%
G04 APERTURE END LIST*
D10*
X8629107Y-4521200D02*
X8629107Y-4394200D01*
X8629107Y-4655684D02*
X8629107Y-4521200D01*
X8629470Y-10957562D02*
X8629107Y-4655684D01*
X8629470Y-10957562D02*
X9683214Y-10957562D01*
X9683196Y-11954534D02*
X9683214Y-10957562D01*
X9683196Y-11954534D02*
X10894698Y-11954556D01*
X10894698Y-11954556D02*
X10893997Y-13048659D01*
X10974023Y-13128320D02*
G75*
G02*
X10893991Y-13048659I-3J80030D01*
G01*
X10974023Y-13128320D02*
X17358799Y-13127297D01*
X11564639Y-11037731D02*
G75*
G02*
X11143137Y-11037731I-210751J0D01*
G01*
X11143137Y-11037731D02*
G75*
G02*
X11564639Y-11037731I210751J0D01*
G01*
X17167831Y-11554513D02*
G75*
G02*
X16737782Y-11554513I-215025J0D01*
G01*
X16737782Y-11554513D02*
G75*
G02*
X17167831Y-11554513I215025J0D01*
G01*
X17437352Y-11954019D02*
X18700137Y-11953565D01*
X17438044Y-13047944D02*
G75*
G02*
X17358799Y-13127294I-79354J4D01*
G01*
X17438044Y-13047944D02*
X17437352Y-11954019D01*
X18695859Y-4394039D02*
X8629107Y-4394200D01*
X18695859Y-4521039D02*
X18695859Y-4394039D01*
X18695859Y-4655524D02*
X18695859Y-4521039D01*
X18700137Y-11953565D02*
X18695859Y-4655524D01*
D11*
X8884884Y-13444804D02*
X8884884Y-13244804D01*
X8884884Y-13244804D02*
X8932503Y-13244804D01*
X8932503Y-13244804D02*
X8961074Y-13254328D01*
X8961074Y-13254328D02*
X8980122Y-13273375D01*
X8980122Y-13273375D02*
X8989645Y-13292423D01*
X8989645Y-13292423D02*
X8999169Y-13330518D01*
X8999169Y-13330518D02*
X8999169Y-13359089D01*
X8999169Y-13359089D02*
X8989645Y-13397185D01*
X8989645Y-13397185D02*
X8980122Y-13416232D01*
X8980122Y-13416232D02*
X8961074Y-13435280D01*
X8961074Y-13435280D02*
X8932503Y-13444804D01*
X8932503Y-13444804D02*
X8884884Y-13444804D01*
X9084884Y-13444804D02*
X9084884Y-13311470D01*
X9084884Y-13349566D02*
X9094407Y-13330518D01*
X9094407Y-13330518D02*
X9103931Y-13320994D01*
X9103931Y-13320994D02*
X9122979Y-13311470D01*
X9122979Y-13311470D02*
X9142026Y-13311470D01*
X9208693Y-13444804D02*
X9208693Y-13311470D01*
X9208693Y-13244804D02*
X9199169Y-13254328D01*
X9199169Y-13254328D02*
X9208693Y-13263851D01*
X9208693Y-13263851D02*
X9218217Y-13254328D01*
X9218217Y-13254328D02*
X9208693Y-13244804D01*
X9208693Y-13244804D02*
X9208693Y-13263851D01*
X9332503Y-13444804D02*
X9313455Y-13435280D01*
X9313455Y-13435280D02*
X9303931Y-13416232D01*
X9303931Y-13416232D02*
X9303931Y-13244804D01*
X9437264Y-13444804D02*
X9418217Y-13435280D01*
X9418217Y-13435280D02*
X9408693Y-13416232D01*
X9408693Y-13416232D02*
X9408693Y-13244804D01*
X9665836Y-13444804D02*
X9665836Y-13244804D01*
X9665836Y-13244804D02*
X9732503Y-13387661D01*
X9732503Y-13387661D02*
X9799169Y-13244804D01*
X9799169Y-13244804D02*
X9799169Y-13444804D01*
X9980122Y-13444804D02*
X9980122Y-13340042D01*
X9980122Y-13340042D02*
X9970598Y-13320994D01*
X9970598Y-13320994D02*
X9951550Y-13311470D01*
X9951550Y-13311470D02*
X9913455Y-13311470D01*
X9913455Y-13311470D02*
X9894407Y-13320994D01*
X9980122Y-13435280D02*
X9961074Y-13444804D01*
X9961074Y-13444804D02*
X9913455Y-13444804D01*
X9913455Y-13444804D02*
X9894407Y-13435280D01*
X9894407Y-13435280D02*
X9884884Y-13416232D01*
X9884884Y-13416232D02*
X9884884Y-13397185D01*
X9884884Y-13397185D02*
X9894407Y-13378137D01*
X9894407Y-13378137D02*
X9913455Y-13368613D01*
X9913455Y-13368613D02*
X9961074Y-13368613D01*
X9961074Y-13368613D02*
X9980122Y-13359089D01*
X10075360Y-13311470D02*
X10075360Y-13511470D01*
X10075360Y-13320994D02*
X10094407Y-13311470D01*
X10094407Y-13311470D02*
X10132503Y-13311470D01*
X10132503Y-13311470D02*
X10151550Y-13320994D01*
X10151550Y-13320994D02*
X10161074Y-13330518D01*
X10161074Y-13330518D02*
X10170598Y-13349566D01*
X10170598Y-13349566D02*
X10170598Y-13406708D01*
X10170598Y-13406708D02*
X10161074Y-13425756D01*
X10161074Y-13425756D02*
X10151550Y-13435280D01*
X10151550Y-13435280D02*
X10132503Y-13444804D01*
X10132503Y-13444804D02*
X10094407Y-13444804D01*
X10094407Y-13444804D02*
X10075360Y-13435280D01*
X10256312Y-13425756D02*
X10265836Y-13435280D01*
X10265836Y-13435280D02*
X10256312Y-13444804D01*
X10256312Y-13444804D02*
X10246788Y-13435280D01*
X10246788Y-13435280D02*
X10256312Y-13425756D01*
X10256312Y-13425756D02*
X10256312Y-13444804D01*
X10256312Y-13320994D02*
X10265836Y-13330518D01*
X10265836Y-13330518D02*
X10256312Y-13340042D01*
X10256312Y-13340042D02*
X10246788Y-13330518D01*
X10246788Y-13330518D02*
X10256312Y-13320994D01*
X10256312Y-13320994D02*
X10256312Y-13340042D01*
M02*
