%TF.GenerationSoftware,KiCad,Pcbnew,7.0.1*%
%TF.CreationDate,2023-06-02T18:32:51+09:00*%
%TF.ProjectId,project2_2,70726f6a-6563-4743-925f-322e6b696361,rev?*%
%TF.SameCoordinates,Original*%
%TF.FileFunction,Legend,Top*%
%TF.FilePolarity,Positive*%
%FSLAX46Y46*%
G04 Gerber Fmt 4.6, Leading zero omitted, Abs format (unit mm)*
G04 Created by KiCad (PCBNEW 7.0.1) date 2023-06-02 18:32:51*
%MOMM*%
%LPD*%
G01*
G04 APERTURE LIST*
%ADD10C,0.150000*%
%ADD11C,0.200000*%
%ADD12C,0.125000*%
%ADD13C,0.100000*%
%ADD14C,0.120000*%
G04 APERTURE END LIST*
D10*
X112696571Y-119781619D02*
X112791809Y-119781619D01*
X112791809Y-119781619D02*
X112887047Y-119829238D01*
X112887047Y-119829238D02*
X112934666Y-119876857D01*
X112934666Y-119876857D02*
X112982285Y-119972095D01*
X112982285Y-119972095D02*
X113029904Y-120162571D01*
X113029904Y-120162571D02*
X113029904Y-120400666D01*
X113029904Y-120400666D02*
X112982285Y-120591142D01*
X112982285Y-120591142D02*
X112934666Y-120686380D01*
X112934666Y-120686380D02*
X112887047Y-120734000D01*
X112887047Y-120734000D02*
X112791809Y-120781619D01*
X112791809Y-120781619D02*
X112696571Y-120781619D01*
X112696571Y-120781619D02*
X112601333Y-120734000D01*
X112601333Y-120734000D02*
X112553714Y-120686380D01*
X112553714Y-120686380D02*
X112506095Y-120591142D01*
X112506095Y-120591142D02*
X112458476Y-120400666D01*
X112458476Y-120400666D02*
X112458476Y-120162571D01*
X112458476Y-120162571D02*
X112506095Y-119972095D01*
X112506095Y-119972095D02*
X112553714Y-119876857D01*
X112553714Y-119876857D02*
X112601333Y-119829238D01*
X112601333Y-119829238D02*
X112696571Y-119781619D01*
X112204476Y-105255904D02*
X112680666Y-105255904D01*
X112109238Y-105541619D02*
X112442571Y-104541619D01*
X112442571Y-104541619D02*
X112775904Y-105541619D01*
X113633047Y-105541619D02*
X113061619Y-105541619D01*
X113347333Y-105541619D02*
X113347333Y-104541619D01*
X113347333Y-104541619D02*
X113252095Y-104684476D01*
X113252095Y-104684476D02*
X113156857Y-104779714D01*
X113156857Y-104779714D02*
X113061619Y-104827333D01*
X114014000Y-104636857D02*
X114061619Y-104589238D01*
X114061619Y-104589238D02*
X114156857Y-104541619D01*
X114156857Y-104541619D02*
X114394952Y-104541619D01*
X114394952Y-104541619D02*
X114490190Y-104589238D01*
X114490190Y-104589238D02*
X114537809Y-104636857D01*
X114537809Y-104636857D02*
X114585428Y-104732095D01*
X114585428Y-104732095D02*
X114585428Y-104827333D01*
X114585428Y-104827333D02*
X114537809Y-104970190D01*
X114537809Y-104970190D02*
X113966381Y-105541619D01*
X113966381Y-105541619D02*
X114585428Y-105541619D01*
X197532571Y-138339428D02*
X197532571Y-138815619D01*
X197199238Y-137815619D02*
X197532571Y-138339428D01*
X197532571Y-138339428D02*
X197865904Y-137815619D01*
X198342095Y-138815619D02*
X198246857Y-138768000D01*
X198246857Y-138768000D02*
X198199238Y-138720380D01*
X198199238Y-138720380D02*
X198151619Y-138625142D01*
X198151619Y-138625142D02*
X198151619Y-138339428D01*
X198151619Y-138339428D02*
X198199238Y-138244190D01*
X198199238Y-138244190D02*
X198246857Y-138196571D01*
X198246857Y-138196571D02*
X198342095Y-138148952D01*
X198342095Y-138148952D02*
X198484952Y-138148952D01*
X198484952Y-138148952D02*
X198580190Y-138196571D01*
X198580190Y-138196571D02*
X198627809Y-138244190D01*
X198627809Y-138244190D02*
X198675428Y-138339428D01*
X198675428Y-138339428D02*
X198675428Y-138625142D01*
X198675428Y-138625142D02*
X198627809Y-138720380D01*
X198627809Y-138720380D02*
X198580190Y-138768000D01*
X198580190Y-138768000D02*
X198484952Y-138815619D01*
X198484952Y-138815619D02*
X198342095Y-138815619D01*
X199532571Y-138148952D02*
X199532571Y-138815619D01*
X199104000Y-138148952D02*
X199104000Y-138672761D01*
X199104000Y-138672761D02*
X199151619Y-138768000D01*
X199151619Y-138768000D02*
X199246857Y-138815619D01*
X199246857Y-138815619D02*
X199389714Y-138815619D01*
X199389714Y-138815619D02*
X199484952Y-138768000D01*
X199484952Y-138768000D02*
X199532571Y-138720380D01*
X200008762Y-138148952D02*
X200008762Y-138815619D01*
X200008762Y-138244190D02*
X200056381Y-138196571D01*
X200056381Y-138196571D02*
X200151619Y-138148952D01*
X200151619Y-138148952D02*
X200294476Y-138148952D01*
X200294476Y-138148952D02*
X200389714Y-138196571D01*
X200389714Y-138196571D02*
X200437333Y-138291809D01*
X200437333Y-138291809D02*
X200437333Y-138815619D01*
X201342095Y-138148952D02*
X201342095Y-138958476D01*
X201342095Y-138958476D02*
X201294476Y-139053714D01*
X201294476Y-139053714D02*
X201246857Y-139101333D01*
X201246857Y-139101333D02*
X201151619Y-139148952D01*
X201151619Y-139148952D02*
X201008762Y-139148952D01*
X201008762Y-139148952D02*
X200913524Y-139101333D01*
X201342095Y-138768000D02*
X201246857Y-138815619D01*
X201246857Y-138815619D02*
X201056381Y-138815619D01*
X201056381Y-138815619D02*
X200961143Y-138768000D01*
X200961143Y-138768000D02*
X200913524Y-138720380D01*
X200913524Y-138720380D02*
X200865905Y-138625142D01*
X200865905Y-138625142D02*
X200865905Y-138339428D01*
X200865905Y-138339428D02*
X200913524Y-138244190D01*
X200913524Y-138244190D02*
X200961143Y-138196571D01*
X200961143Y-138196571D02*
X201056381Y-138148952D01*
X201056381Y-138148952D02*
X201246857Y-138148952D01*
X201246857Y-138148952D02*
X201342095Y-138196571D01*
X201818286Y-138815619D02*
X201818286Y-137815619D01*
X201913524Y-138434666D02*
X202199238Y-138815619D01*
X202199238Y-138148952D02*
X201818286Y-138529904D01*
X202627810Y-138815619D02*
X202627810Y-138148952D01*
X202627810Y-137815619D02*
X202580191Y-137863238D01*
X202580191Y-137863238D02*
X202627810Y-137910857D01*
X202627810Y-137910857D02*
X202675429Y-137863238D01*
X202675429Y-137863238D02*
X202627810Y-137815619D01*
X202627810Y-137815619D02*
X202627810Y-137910857D01*
X203865905Y-138815619D02*
X203865905Y-137815619D01*
X203865905Y-137815619D02*
X204246857Y-137815619D01*
X204246857Y-137815619D02*
X204342095Y-137863238D01*
X204342095Y-137863238D02*
X204389714Y-137910857D01*
X204389714Y-137910857D02*
X204437333Y-138006095D01*
X204437333Y-138006095D02*
X204437333Y-138148952D01*
X204437333Y-138148952D02*
X204389714Y-138244190D01*
X204389714Y-138244190D02*
X204342095Y-138291809D01*
X204342095Y-138291809D02*
X204246857Y-138339428D01*
X204246857Y-138339428D02*
X203865905Y-138339428D01*
X205294476Y-138815619D02*
X205294476Y-138291809D01*
X205294476Y-138291809D02*
X205246857Y-138196571D01*
X205246857Y-138196571D02*
X205151619Y-138148952D01*
X205151619Y-138148952D02*
X204961143Y-138148952D01*
X204961143Y-138148952D02*
X204865905Y-138196571D01*
X205294476Y-138768000D02*
X205199238Y-138815619D01*
X205199238Y-138815619D02*
X204961143Y-138815619D01*
X204961143Y-138815619D02*
X204865905Y-138768000D01*
X204865905Y-138768000D02*
X204818286Y-138672761D01*
X204818286Y-138672761D02*
X204818286Y-138577523D01*
X204818286Y-138577523D02*
X204865905Y-138482285D01*
X204865905Y-138482285D02*
X204961143Y-138434666D01*
X204961143Y-138434666D02*
X205199238Y-138434666D01*
X205199238Y-138434666D02*
X205294476Y-138387047D01*
X205770667Y-138815619D02*
X205770667Y-138148952D01*
X205770667Y-138339428D02*
X205818286Y-138244190D01*
X205818286Y-138244190D02*
X205865905Y-138196571D01*
X205865905Y-138196571D02*
X205961143Y-138148952D01*
X205961143Y-138148952D02*
X206056381Y-138148952D01*
X206389715Y-138815619D02*
X206389715Y-137815619D01*
X206484953Y-138434666D02*
X206770667Y-138815619D01*
X206770667Y-138148952D02*
X206389715Y-138529904D01*
X112204476Y-102715904D02*
X112680666Y-102715904D01*
X112109238Y-103001619D02*
X112442571Y-102001619D01*
X112442571Y-102001619D02*
X112775904Y-103001619D01*
X113633047Y-103001619D02*
X113061619Y-103001619D01*
X113347333Y-103001619D02*
X113347333Y-102001619D01*
X113347333Y-102001619D02*
X113252095Y-102144476D01*
X113252095Y-102144476D02*
X113156857Y-102239714D01*
X113156857Y-102239714D02*
X113061619Y-102287333D01*
X114585428Y-103001619D02*
X114014000Y-103001619D01*
X114299714Y-103001619D02*
X114299714Y-102001619D01*
X114299714Y-102001619D02*
X114204476Y-102144476D01*
X114204476Y-102144476D02*
X114109238Y-102239714D01*
X114109238Y-102239714D02*
X114014000Y-102287333D01*
X112458476Y-112875904D02*
X112934666Y-112875904D01*
X112363238Y-113161619D02*
X112696571Y-112161619D01*
X112696571Y-112161619D02*
X113029904Y-113161619D01*
X113887047Y-113161619D02*
X113315619Y-113161619D01*
X113601333Y-113161619D02*
X113601333Y-112161619D01*
X113601333Y-112161619D02*
X113506095Y-112304476D01*
X113506095Y-112304476D02*
X113410857Y-112399714D01*
X113410857Y-112399714D02*
X113315619Y-112447333D01*
X114791809Y-112161619D02*
X114315619Y-112161619D01*
X114315619Y-112161619D02*
X114268000Y-112637809D01*
X114268000Y-112637809D02*
X114315619Y-112590190D01*
X114315619Y-112590190D02*
X114410857Y-112542571D01*
X114410857Y-112542571D02*
X114648952Y-112542571D01*
X114648952Y-112542571D02*
X114744190Y-112590190D01*
X114744190Y-112590190D02*
X114791809Y-112637809D01*
X114791809Y-112637809D02*
X114839428Y-112733047D01*
X114839428Y-112733047D02*
X114839428Y-112971142D01*
X114839428Y-112971142D02*
X114791809Y-113066380D01*
X114791809Y-113066380D02*
X114744190Y-113114000D01*
X114744190Y-113114000D02*
X114648952Y-113161619D01*
X114648952Y-113161619D02*
X114410857Y-113161619D01*
X114410857Y-113161619D02*
X114315619Y-113114000D01*
X114315619Y-113114000D02*
X114268000Y-113066380D01*
X112204476Y-95857904D02*
X112680666Y-95857904D01*
X112109238Y-96143619D02*
X112442571Y-95143619D01*
X112442571Y-95143619D02*
X112775904Y-96143619D01*
X113633047Y-96143619D02*
X113061619Y-96143619D01*
X113347333Y-96143619D02*
X113347333Y-95143619D01*
X113347333Y-95143619D02*
X113252095Y-95286476D01*
X113252095Y-95286476D02*
X113156857Y-95381714D01*
X113156857Y-95381714D02*
X113061619Y-95429333D01*
X114014000Y-95238857D02*
X114061619Y-95191238D01*
X114061619Y-95191238D02*
X114156857Y-95143619D01*
X114156857Y-95143619D02*
X114394952Y-95143619D01*
X114394952Y-95143619D02*
X114490190Y-95191238D01*
X114490190Y-95191238D02*
X114537809Y-95238857D01*
X114537809Y-95238857D02*
X114585428Y-95334095D01*
X114585428Y-95334095D02*
X114585428Y-95429333D01*
X114585428Y-95429333D02*
X114537809Y-95572190D01*
X114537809Y-95572190D02*
X113966381Y-96143619D01*
X113966381Y-96143619D02*
X114585428Y-96143619D01*
X112696571Y-114701619D02*
X112791809Y-114701619D01*
X112791809Y-114701619D02*
X112887047Y-114749238D01*
X112887047Y-114749238D02*
X112934666Y-114796857D01*
X112934666Y-114796857D02*
X112982285Y-114892095D01*
X112982285Y-114892095D02*
X113029904Y-115082571D01*
X113029904Y-115082571D02*
X113029904Y-115320666D01*
X113029904Y-115320666D02*
X112982285Y-115511142D01*
X112982285Y-115511142D02*
X112934666Y-115606380D01*
X112934666Y-115606380D02*
X112887047Y-115654000D01*
X112887047Y-115654000D02*
X112791809Y-115701619D01*
X112791809Y-115701619D02*
X112696571Y-115701619D01*
X112696571Y-115701619D02*
X112601333Y-115654000D01*
X112601333Y-115654000D02*
X112553714Y-115606380D01*
X112553714Y-115606380D02*
X112506095Y-115511142D01*
X112506095Y-115511142D02*
X112458476Y-115320666D01*
X112458476Y-115320666D02*
X112458476Y-115082571D01*
X112458476Y-115082571D02*
X112506095Y-114892095D01*
X112506095Y-114892095D02*
X112553714Y-114796857D01*
X112553714Y-114796857D02*
X112601333Y-114749238D01*
X112601333Y-114749238D02*
X112696571Y-114701619D01*
X112442571Y-97683619D02*
X112537809Y-97683619D01*
X112537809Y-97683619D02*
X112633047Y-97731238D01*
X112633047Y-97731238D02*
X112680666Y-97778857D01*
X112680666Y-97778857D02*
X112728285Y-97874095D01*
X112728285Y-97874095D02*
X112775904Y-98064571D01*
X112775904Y-98064571D02*
X112775904Y-98302666D01*
X112775904Y-98302666D02*
X112728285Y-98493142D01*
X112728285Y-98493142D02*
X112680666Y-98588380D01*
X112680666Y-98588380D02*
X112633047Y-98636000D01*
X112633047Y-98636000D02*
X112537809Y-98683619D01*
X112537809Y-98683619D02*
X112442571Y-98683619D01*
X112442571Y-98683619D02*
X112347333Y-98636000D01*
X112347333Y-98636000D02*
X112299714Y-98588380D01*
X112299714Y-98588380D02*
X112252095Y-98493142D01*
X112252095Y-98493142D02*
X112204476Y-98302666D01*
X112204476Y-98302666D02*
X112204476Y-98064571D01*
X112204476Y-98064571D02*
X112252095Y-97874095D01*
X112252095Y-97874095D02*
X112299714Y-97778857D01*
X112299714Y-97778857D02*
X112347333Y-97731238D01*
X112347333Y-97731238D02*
X112442571Y-97683619D01*
X112442571Y-106827619D02*
X112537809Y-106827619D01*
X112537809Y-106827619D02*
X112633047Y-106875238D01*
X112633047Y-106875238D02*
X112680666Y-106922857D01*
X112680666Y-106922857D02*
X112728285Y-107018095D01*
X112728285Y-107018095D02*
X112775904Y-107208571D01*
X112775904Y-107208571D02*
X112775904Y-107446666D01*
X112775904Y-107446666D02*
X112728285Y-107637142D01*
X112728285Y-107637142D02*
X112680666Y-107732380D01*
X112680666Y-107732380D02*
X112633047Y-107780000D01*
X112633047Y-107780000D02*
X112537809Y-107827619D01*
X112537809Y-107827619D02*
X112442571Y-107827619D01*
X112442571Y-107827619D02*
X112347333Y-107780000D01*
X112347333Y-107780000D02*
X112299714Y-107732380D01*
X112299714Y-107732380D02*
X112252095Y-107637142D01*
X112252095Y-107637142D02*
X112204476Y-107446666D01*
X112204476Y-107446666D02*
X112204476Y-107208571D01*
X112204476Y-107208571D02*
X112252095Y-107018095D01*
X112252095Y-107018095D02*
X112299714Y-106922857D01*
X112299714Y-106922857D02*
X112347333Y-106875238D01*
X112347333Y-106875238D02*
X112442571Y-106827619D01*
D11*
X108616666Y-89538952D02*
X108616666Y-90205619D01*
X108378571Y-89158000D02*
X108140476Y-89872285D01*
X108140476Y-89872285D02*
X108759523Y-89872285D01*
X109902381Y-90205619D02*
X109902381Y-89205619D01*
X109902381Y-89205619D02*
X110235714Y-89919904D01*
X110235714Y-89919904D02*
X110569047Y-89205619D01*
X110569047Y-89205619D02*
X110569047Y-90205619D01*
X111426190Y-90158000D02*
X111330952Y-90205619D01*
X111330952Y-90205619D02*
X111140476Y-90205619D01*
X111140476Y-90205619D02*
X111045238Y-90158000D01*
X111045238Y-90158000D02*
X110997619Y-90062761D01*
X110997619Y-90062761D02*
X110997619Y-89681809D01*
X110997619Y-89681809D02*
X111045238Y-89586571D01*
X111045238Y-89586571D02*
X111140476Y-89538952D01*
X111140476Y-89538952D02*
X111330952Y-89538952D01*
X111330952Y-89538952D02*
X111426190Y-89586571D01*
X111426190Y-89586571D02*
X111473809Y-89681809D01*
X111473809Y-89681809D02*
X111473809Y-89777047D01*
X111473809Y-89777047D02*
X110997619Y-89872285D01*
X112330952Y-89538952D02*
X112330952Y-90348476D01*
X112330952Y-90348476D02*
X112283333Y-90443714D01*
X112283333Y-90443714D02*
X112235714Y-90491333D01*
X112235714Y-90491333D02*
X112140476Y-90538952D01*
X112140476Y-90538952D02*
X111997619Y-90538952D01*
X111997619Y-90538952D02*
X111902381Y-90491333D01*
X112330952Y-90158000D02*
X112235714Y-90205619D01*
X112235714Y-90205619D02*
X112045238Y-90205619D01*
X112045238Y-90205619D02*
X111950000Y-90158000D01*
X111950000Y-90158000D02*
X111902381Y-90110380D01*
X111902381Y-90110380D02*
X111854762Y-90015142D01*
X111854762Y-90015142D02*
X111854762Y-89729428D01*
X111854762Y-89729428D02*
X111902381Y-89634190D01*
X111902381Y-89634190D02*
X111950000Y-89586571D01*
X111950000Y-89586571D02*
X112045238Y-89538952D01*
X112045238Y-89538952D02*
X112235714Y-89538952D01*
X112235714Y-89538952D02*
X112330952Y-89586571D01*
X113235714Y-90205619D02*
X113235714Y-89681809D01*
X113235714Y-89681809D02*
X113188095Y-89586571D01*
X113188095Y-89586571D02*
X113092857Y-89538952D01*
X113092857Y-89538952D02*
X112902381Y-89538952D01*
X112902381Y-89538952D02*
X112807143Y-89586571D01*
X113235714Y-90158000D02*
X113140476Y-90205619D01*
X113140476Y-90205619D02*
X112902381Y-90205619D01*
X112902381Y-90205619D02*
X112807143Y-90158000D01*
X112807143Y-90158000D02*
X112759524Y-90062761D01*
X112759524Y-90062761D02*
X112759524Y-89967523D01*
X112759524Y-89967523D02*
X112807143Y-89872285D01*
X112807143Y-89872285D02*
X112902381Y-89824666D01*
X112902381Y-89824666D02*
X113140476Y-89824666D01*
X113140476Y-89824666D02*
X113235714Y-89777047D01*
X115045238Y-90205619D02*
X114711905Y-89729428D01*
X114473810Y-90205619D02*
X114473810Y-89205619D01*
X114473810Y-89205619D02*
X114854762Y-89205619D01*
X114854762Y-89205619D02*
X114950000Y-89253238D01*
X114950000Y-89253238D02*
X114997619Y-89300857D01*
X114997619Y-89300857D02*
X115045238Y-89396095D01*
X115045238Y-89396095D02*
X115045238Y-89538952D01*
X115045238Y-89538952D02*
X114997619Y-89634190D01*
X114997619Y-89634190D02*
X114950000Y-89681809D01*
X114950000Y-89681809D02*
X114854762Y-89729428D01*
X114854762Y-89729428D02*
X114473810Y-89729428D01*
X115616667Y-90205619D02*
X115521429Y-90158000D01*
X115521429Y-90158000D02*
X115473810Y-90110380D01*
X115473810Y-90110380D02*
X115426191Y-90015142D01*
X115426191Y-90015142D02*
X115426191Y-89729428D01*
X115426191Y-89729428D02*
X115473810Y-89634190D01*
X115473810Y-89634190D02*
X115521429Y-89586571D01*
X115521429Y-89586571D02*
X115616667Y-89538952D01*
X115616667Y-89538952D02*
X115759524Y-89538952D01*
X115759524Y-89538952D02*
X115854762Y-89586571D01*
X115854762Y-89586571D02*
X115902381Y-89634190D01*
X115902381Y-89634190D02*
X115950000Y-89729428D01*
X115950000Y-89729428D02*
X115950000Y-90015142D01*
X115950000Y-90015142D02*
X115902381Y-90110380D01*
X115902381Y-90110380D02*
X115854762Y-90158000D01*
X115854762Y-90158000D02*
X115759524Y-90205619D01*
X115759524Y-90205619D02*
X115616667Y-90205619D01*
X116378572Y-90205619D02*
X116378572Y-89538952D01*
X116378572Y-89634190D02*
X116426191Y-89586571D01*
X116426191Y-89586571D02*
X116521429Y-89538952D01*
X116521429Y-89538952D02*
X116664286Y-89538952D01*
X116664286Y-89538952D02*
X116759524Y-89586571D01*
X116759524Y-89586571D02*
X116807143Y-89681809D01*
X116807143Y-89681809D02*
X116807143Y-90205619D01*
X116807143Y-89681809D02*
X116854762Y-89586571D01*
X116854762Y-89586571D02*
X116950000Y-89538952D01*
X116950000Y-89538952D02*
X117092857Y-89538952D01*
X117092857Y-89538952D02*
X117188096Y-89586571D01*
X117188096Y-89586571D02*
X117235715Y-89681809D01*
X117235715Y-89681809D02*
X117235715Y-90205619D01*
X118473810Y-90205619D02*
X118473810Y-89205619D01*
X118473810Y-89205619D02*
X118854762Y-89205619D01*
X118854762Y-89205619D02*
X118950000Y-89253238D01*
X118950000Y-89253238D02*
X118997619Y-89300857D01*
X118997619Y-89300857D02*
X119045238Y-89396095D01*
X119045238Y-89396095D02*
X119045238Y-89538952D01*
X119045238Y-89538952D02*
X118997619Y-89634190D01*
X118997619Y-89634190D02*
X118950000Y-89681809D01*
X118950000Y-89681809D02*
X118854762Y-89729428D01*
X118854762Y-89729428D02*
X118473810Y-89729428D01*
X119902381Y-90205619D02*
X119902381Y-89681809D01*
X119902381Y-89681809D02*
X119854762Y-89586571D01*
X119854762Y-89586571D02*
X119759524Y-89538952D01*
X119759524Y-89538952D02*
X119569048Y-89538952D01*
X119569048Y-89538952D02*
X119473810Y-89586571D01*
X119902381Y-90158000D02*
X119807143Y-90205619D01*
X119807143Y-90205619D02*
X119569048Y-90205619D01*
X119569048Y-90205619D02*
X119473810Y-90158000D01*
X119473810Y-90158000D02*
X119426191Y-90062761D01*
X119426191Y-90062761D02*
X119426191Y-89967523D01*
X119426191Y-89967523D02*
X119473810Y-89872285D01*
X119473810Y-89872285D02*
X119569048Y-89824666D01*
X119569048Y-89824666D02*
X119807143Y-89824666D01*
X119807143Y-89824666D02*
X119902381Y-89777047D01*
X120807143Y-90158000D02*
X120711905Y-90205619D01*
X120711905Y-90205619D02*
X120521429Y-90205619D01*
X120521429Y-90205619D02*
X120426191Y-90158000D01*
X120426191Y-90158000D02*
X120378572Y-90110380D01*
X120378572Y-90110380D02*
X120330953Y-90015142D01*
X120330953Y-90015142D02*
X120330953Y-89729428D01*
X120330953Y-89729428D02*
X120378572Y-89634190D01*
X120378572Y-89634190D02*
X120426191Y-89586571D01*
X120426191Y-89586571D02*
X120521429Y-89538952D01*
X120521429Y-89538952D02*
X120711905Y-89538952D01*
X120711905Y-89538952D02*
X120807143Y-89586571D01*
X121235715Y-90205619D02*
X121235715Y-89205619D01*
X121330953Y-89824666D02*
X121616667Y-90205619D01*
X121616667Y-89538952D02*
X121235715Y-89919904D01*
X122330953Y-90586571D02*
X122283334Y-90538952D01*
X122283334Y-90538952D02*
X122188096Y-90396095D01*
X122188096Y-90396095D02*
X122140477Y-90300857D01*
X122140477Y-90300857D02*
X122092858Y-90158000D01*
X122092858Y-90158000D02*
X122045239Y-89919904D01*
X122045239Y-89919904D02*
X122045239Y-89729428D01*
X122045239Y-89729428D02*
X122092858Y-89491333D01*
X122092858Y-89491333D02*
X122140477Y-89348476D01*
X122140477Y-89348476D02*
X122188096Y-89253238D01*
X122188096Y-89253238D02*
X122283334Y-89110380D01*
X122283334Y-89110380D02*
X122330953Y-89062761D01*
X123235715Y-90205619D02*
X122664287Y-90205619D01*
X122950001Y-90205619D02*
X122950001Y-89205619D01*
X122950001Y-89205619D02*
X122854763Y-89348476D01*
X122854763Y-89348476D02*
X122759525Y-89443714D01*
X122759525Y-89443714D02*
X122664287Y-89491333D01*
X124092858Y-89205619D02*
X123902382Y-89205619D01*
X123902382Y-89205619D02*
X123807144Y-89253238D01*
X123807144Y-89253238D02*
X123759525Y-89300857D01*
X123759525Y-89300857D02*
X123664287Y-89443714D01*
X123664287Y-89443714D02*
X123616668Y-89634190D01*
X123616668Y-89634190D02*
X123616668Y-90015142D01*
X123616668Y-90015142D02*
X123664287Y-90110380D01*
X123664287Y-90110380D02*
X123711906Y-90158000D01*
X123711906Y-90158000D02*
X123807144Y-90205619D01*
X123807144Y-90205619D02*
X123997620Y-90205619D01*
X123997620Y-90205619D02*
X124092858Y-90158000D01*
X124092858Y-90158000D02*
X124140477Y-90110380D01*
X124140477Y-90110380D02*
X124188096Y-90015142D01*
X124188096Y-90015142D02*
X124188096Y-89777047D01*
X124188096Y-89777047D02*
X124140477Y-89681809D01*
X124140477Y-89681809D02*
X124092858Y-89634190D01*
X124092858Y-89634190D02*
X123997620Y-89586571D01*
X123997620Y-89586571D02*
X123807144Y-89586571D01*
X123807144Y-89586571D02*
X123711906Y-89634190D01*
X123711906Y-89634190D02*
X123664287Y-89681809D01*
X123664287Y-89681809D02*
X123616668Y-89777047D01*
X124616668Y-90205619D02*
X124616668Y-89205619D01*
X125188096Y-90205619D02*
X124759525Y-89634190D01*
X125188096Y-89205619D02*
X124616668Y-89777047D01*
X125521430Y-90586571D02*
X125569049Y-90538952D01*
X125569049Y-90538952D02*
X125664287Y-90396095D01*
X125664287Y-90396095D02*
X125711906Y-90300857D01*
X125711906Y-90300857D02*
X125759525Y-90158000D01*
X125759525Y-90158000D02*
X125807144Y-89919904D01*
X125807144Y-89919904D02*
X125807144Y-89729428D01*
X125807144Y-89729428D02*
X125759525Y-89491333D01*
X125759525Y-89491333D02*
X125711906Y-89348476D01*
X125711906Y-89348476D02*
X125664287Y-89253238D01*
X125664287Y-89253238D02*
X125569049Y-89110380D01*
X125569049Y-89110380D02*
X125521430Y-89062761D01*
X126902383Y-89205619D02*
X127235716Y-90205619D01*
X127235716Y-90205619D02*
X127569049Y-89205619D01*
X128426192Y-90205619D02*
X127854764Y-90205619D01*
X128140478Y-90205619D02*
X128140478Y-89205619D01*
X128140478Y-89205619D02*
X128045240Y-89348476D01*
X128045240Y-89348476D02*
X127950002Y-89443714D01*
X127950002Y-89443714D02*
X127854764Y-89491333D01*
X128854764Y-90110380D02*
X128902383Y-90158000D01*
X128902383Y-90158000D02*
X128854764Y-90205619D01*
X128854764Y-90205619D02*
X128807145Y-90158000D01*
X128807145Y-90158000D02*
X128854764Y-90110380D01*
X128854764Y-90110380D02*
X128854764Y-90205619D01*
X129283335Y-89300857D02*
X129330954Y-89253238D01*
X129330954Y-89253238D02*
X129426192Y-89205619D01*
X129426192Y-89205619D02*
X129664287Y-89205619D01*
X129664287Y-89205619D02*
X129759525Y-89253238D01*
X129759525Y-89253238D02*
X129807144Y-89300857D01*
X129807144Y-89300857D02*
X129854763Y-89396095D01*
X129854763Y-89396095D02*
X129854763Y-89491333D01*
X129854763Y-89491333D02*
X129807144Y-89634190D01*
X129807144Y-89634190D02*
X129235716Y-90205619D01*
X129235716Y-90205619D02*
X129854763Y-90205619D01*
X108188095Y-91825619D02*
X108188095Y-90825619D01*
X108188095Y-90825619D02*
X108426190Y-90825619D01*
X108426190Y-90825619D02*
X108569047Y-90873238D01*
X108569047Y-90873238D02*
X108664285Y-90968476D01*
X108664285Y-90968476D02*
X108711904Y-91063714D01*
X108711904Y-91063714D02*
X108759523Y-91254190D01*
X108759523Y-91254190D02*
X108759523Y-91397047D01*
X108759523Y-91397047D02*
X108711904Y-91587523D01*
X108711904Y-91587523D02*
X108664285Y-91682761D01*
X108664285Y-91682761D02*
X108569047Y-91778000D01*
X108569047Y-91778000D02*
X108426190Y-91825619D01*
X108426190Y-91825619D02*
X108188095Y-91825619D01*
X109569047Y-91778000D02*
X109473809Y-91825619D01*
X109473809Y-91825619D02*
X109283333Y-91825619D01*
X109283333Y-91825619D02*
X109188095Y-91778000D01*
X109188095Y-91778000D02*
X109140476Y-91682761D01*
X109140476Y-91682761D02*
X109140476Y-91301809D01*
X109140476Y-91301809D02*
X109188095Y-91206571D01*
X109188095Y-91206571D02*
X109283333Y-91158952D01*
X109283333Y-91158952D02*
X109473809Y-91158952D01*
X109473809Y-91158952D02*
X109569047Y-91206571D01*
X109569047Y-91206571D02*
X109616666Y-91301809D01*
X109616666Y-91301809D02*
X109616666Y-91397047D01*
X109616666Y-91397047D02*
X109140476Y-91492285D01*
X109997619Y-91778000D02*
X110092857Y-91825619D01*
X110092857Y-91825619D02*
X110283333Y-91825619D01*
X110283333Y-91825619D02*
X110378571Y-91778000D01*
X110378571Y-91778000D02*
X110426190Y-91682761D01*
X110426190Y-91682761D02*
X110426190Y-91635142D01*
X110426190Y-91635142D02*
X110378571Y-91539904D01*
X110378571Y-91539904D02*
X110283333Y-91492285D01*
X110283333Y-91492285D02*
X110140476Y-91492285D01*
X110140476Y-91492285D02*
X110045238Y-91444666D01*
X110045238Y-91444666D02*
X109997619Y-91349428D01*
X109997619Y-91349428D02*
X109997619Y-91301809D01*
X109997619Y-91301809D02*
X110045238Y-91206571D01*
X110045238Y-91206571D02*
X110140476Y-91158952D01*
X110140476Y-91158952D02*
X110283333Y-91158952D01*
X110283333Y-91158952D02*
X110378571Y-91206571D01*
X110854762Y-91825619D02*
X110854762Y-91158952D01*
X110854762Y-90825619D02*
X110807143Y-90873238D01*
X110807143Y-90873238D02*
X110854762Y-90920857D01*
X110854762Y-90920857D02*
X110902381Y-90873238D01*
X110902381Y-90873238D02*
X110854762Y-90825619D01*
X110854762Y-90825619D02*
X110854762Y-90920857D01*
X111759523Y-91158952D02*
X111759523Y-91968476D01*
X111759523Y-91968476D02*
X111711904Y-92063714D01*
X111711904Y-92063714D02*
X111664285Y-92111333D01*
X111664285Y-92111333D02*
X111569047Y-92158952D01*
X111569047Y-92158952D02*
X111426190Y-92158952D01*
X111426190Y-92158952D02*
X111330952Y-92111333D01*
X111759523Y-91778000D02*
X111664285Y-91825619D01*
X111664285Y-91825619D02*
X111473809Y-91825619D01*
X111473809Y-91825619D02*
X111378571Y-91778000D01*
X111378571Y-91778000D02*
X111330952Y-91730380D01*
X111330952Y-91730380D02*
X111283333Y-91635142D01*
X111283333Y-91635142D02*
X111283333Y-91349428D01*
X111283333Y-91349428D02*
X111330952Y-91254190D01*
X111330952Y-91254190D02*
X111378571Y-91206571D01*
X111378571Y-91206571D02*
X111473809Y-91158952D01*
X111473809Y-91158952D02*
X111664285Y-91158952D01*
X111664285Y-91158952D02*
X111759523Y-91206571D01*
X112235714Y-91158952D02*
X112235714Y-91825619D01*
X112235714Y-91254190D02*
X112283333Y-91206571D01*
X112283333Y-91206571D02*
X112378571Y-91158952D01*
X112378571Y-91158952D02*
X112521428Y-91158952D01*
X112521428Y-91158952D02*
X112616666Y-91206571D01*
X112616666Y-91206571D02*
X112664285Y-91301809D01*
X112664285Y-91301809D02*
X112664285Y-91825619D01*
X113521428Y-91778000D02*
X113426190Y-91825619D01*
X113426190Y-91825619D02*
X113235714Y-91825619D01*
X113235714Y-91825619D02*
X113140476Y-91778000D01*
X113140476Y-91778000D02*
X113092857Y-91682761D01*
X113092857Y-91682761D02*
X113092857Y-91301809D01*
X113092857Y-91301809D02*
X113140476Y-91206571D01*
X113140476Y-91206571D02*
X113235714Y-91158952D01*
X113235714Y-91158952D02*
X113426190Y-91158952D01*
X113426190Y-91158952D02*
X113521428Y-91206571D01*
X113521428Y-91206571D02*
X113569047Y-91301809D01*
X113569047Y-91301809D02*
X113569047Y-91397047D01*
X113569047Y-91397047D02*
X113092857Y-91492285D01*
X114426190Y-91825619D02*
X114426190Y-90825619D01*
X114426190Y-91778000D02*
X114330952Y-91825619D01*
X114330952Y-91825619D02*
X114140476Y-91825619D01*
X114140476Y-91825619D02*
X114045238Y-91778000D01*
X114045238Y-91778000D02*
X113997619Y-91730380D01*
X113997619Y-91730380D02*
X113950000Y-91635142D01*
X113950000Y-91635142D02*
X113950000Y-91349428D01*
X113950000Y-91349428D02*
X113997619Y-91254190D01*
X113997619Y-91254190D02*
X114045238Y-91206571D01*
X114045238Y-91206571D02*
X114140476Y-91158952D01*
X114140476Y-91158952D02*
X114330952Y-91158952D01*
X114330952Y-91158952D02*
X114426190Y-91206571D01*
X115664286Y-91825619D02*
X115664286Y-90825619D01*
X115664286Y-91206571D02*
X115759524Y-91158952D01*
X115759524Y-91158952D02*
X115950000Y-91158952D01*
X115950000Y-91158952D02*
X116045238Y-91206571D01*
X116045238Y-91206571D02*
X116092857Y-91254190D01*
X116092857Y-91254190D02*
X116140476Y-91349428D01*
X116140476Y-91349428D02*
X116140476Y-91635142D01*
X116140476Y-91635142D02*
X116092857Y-91730380D01*
X116092857Y-91730380D02*
X116045238Y-91778000D01*
X116045238Y-91778000D02*
X115950000Y-91825619D01*
X115950000Y-91825619D02*
X115759524Y-91825619D01*
X115759524Y-91825619D02*
X115664286Y-91778000D01*
X116473810Y-91158952D02*
X116711905Y-91825619D01*
X116950000Y-91158952D02*
X116711905Y-91825619D01*
X116711905Y-91825619D02*
X116616667Y-92063714D01*
X116616667Y-92063714D02*
X116569048Y-92111333D01*
X116569048Y-92111333D02*
X116473810Y-92158952D01*
X118045239Y-91778000D02*
X118140477Y-91825619D01*
X118140477Y-91825619D02*
X118330953Y-91825619D01*
X118330953Y-91825619D02*
X118426191Y-91778000D01*
X118426191Y-91778000D02*
X118473810Y-91682761D01*
X118473810Y-91682761D02*
X118473810Y-91635142D01*
X118473810Y-91635142D02*
X118426191Y-91539904D01*
X118426191Y-91539904D02*
X118330953Y-91492285D01*
X118330953Y-91492285D02*
X118188096Y-91492285D01*
X118188096Y-91492285D02*
X118092858Y-91444666D01*
X118092858Y-91444666D02*
X118045239Y-91349428D01*
X118045239Y-91349428D02*
X118045239Y-91301809D01*
X118045239Y-91301809D02*
X118092858Y-91206571D01*
X118092858Y-91206571D02*
X118188096Y-91158952D01*
X118188096Y-91158952D02*
X118330953Y-91158952D01*
X118330953Y-91158952D02*
X118426191Y-91206571D01*
X119330953Y-91158952D02*
X119330953Y-91825619D01*
X118902382Y-91158952D02*
X118902382Y-91682761D01*
X118902382Y-91682761D02*
X118950001Y-91778000D01*
X118950001Y-91778000D02*
X119045239Y-91825619D01*
X119045239Y-91825619D02*
X119188096Y-91825619D01*
X119188096Y-91825619D02*
X119283334Y-91778000D01*
X119283334Y-91778000D02*
X119330953Y-91730380D01*
X119807144Y-91158952D02*
X119807144Y-92158952D01*
X119807144Y-91206571D02*
X119902382Y-91158952D01*
X119902382Y-91158952D02*
X120092858Y-91158952D01*
X120092858Y-91158952D02*
X120188096Y-91206571D01*
X120188096Y-91206571D02*
X120235715Y-91254190D01*
X120235715Y-91254190D02*
X120283334Y-91349428D01*
X120283334Y-91349428D02*
X120283334Y-91635142D01*
X120283334Y-91635142D02*
X120235715Y-91730380D01*
X120235715Y-91730380D02*
X120188096Y-91778000D01*
X120188096Y-91778000D02*
X120092858Y-91825619D01*
X120092858Y-91825619D02*
X119902382Y-91825619D01*
X119902382Y-91825619D02*
X119807144Y-91778000D01*
X121092858Y-91778000D02*
X120997620Y-91825619D01*
X120997620Y-91825619D02*
X120807144Y-91825619D01*
X120807144Y-91825619D02*
X120711906Y-91778000D01*
X120711906Y-91778000D02*
X120664287Y-91682761D01*
X120664287Y-91682761D02*
X120664287Y-91301809D01*
X120664287Y-91301809D02*
X120711906Y-91206571D01*
X120711906Y-91206571D02*
X120807144Y-91158952D01*
X120807144Y-91158952D02*
X120997620Y-91158952D01*
X120997620Y-91158952D02*
X121092858Y-91206571D01*
X121092858Y-91206571D02*
X121140477Y-91301809D01*
X121140477Y-91301809D02*
X121140477Y-91397047D01*
X121140477Y-91397047D02*
X120664287Y-91492285D01*
X121569049Y-91825619D02*
X121569049Y-91158952D01*
X121569049Y-91349428D02*
X121616668Y-91254190D01*
X121616668Y-91254190D02*
X121664287Y-91206571D01*
X121664287Y-91206571D02*
X121759525Y-91158952D01*
X121759525Y-91158952D02*
X121854763Y-91158952D01*
X122140478Y-91778000D02*
X122235716Y-91825619D01*
X122235716Y-91825619D02*
X122426192Y-91825619D01*
X122426192Y-91825619D02*
X122521430Y-91778000D01*
X122521430Y-91778000D02*
X122569049Y-91682761D01*
X122569049Y-91682761D02*
X122569049Y-91635142D01*
X122569049Y-91635142D02*
X122521430Y-91539904D01*
X122521430Y-91539904D02*
X122426192Y-91492285D01*
X122426192Y-91492285D02*
X122283335Y-91492285D01*
X122283335Y-91492285D02*
X122188097Y-91444666D01*
X122188097Y-91444666D02*
X122140478Y-91349428D01*
X122140478Y-91349428D02*
X122140478Y-91301809D01*
X122140478Y-91301809D02*
X122188097Y-91206571D01*
X122188097Y-91206571D02*
X122283335Y-91158952D01*
X122283335Y-91158952D02*
X122426192Y-91158952D01*
X122426192Y-91158952D02*
X122521430Y-91206571D01*
X123188097Y-90825619D02*
X123283335Y-90825619D01*
X123283335Y-90825619D02*
X123378573Y-90873238D01*
X123378573Y-90873238D02*
X123426192Y-90920857D01*
X123426192Y-90920857D02*
X123473811Y-91016095D01*
X123473811Y-91016095D02*
X123521430Y-91206571D01*
X123521430Y-91206571D02*
X123521430Y-91444666D01*
X123521430Y-91444666D02*
X123473811Y-91635142D01*
X123473811Y-91635142D02*
X123426192Y-91730380D01*
X123426192Y-91730380D02*
X123378573Y-91778000D01*
X123378573Y-91778000D02*
X123283335Y-91825619D01*
X123283335Y-91825619D02*
X123188097Y-91825619D01*
X123188097Y-91825619D02*
X123092859Y-91778000D01*
X123092859Y-91778000D02*
X123045240Y-91730380D01*
X123045240Y-91730380D02*
X122997621Y-91635142D01*
X122997621Y-91635142D02*
X122950002Y-91444666D01*
X122950002Y-91444666D02*
X122950002Y-91206571D01*
X122950002Y-91206571D02*
X122997621Y-91016095D01*
X122997621Y-91016095D02*
X123045240Y-90920857D01*
X123045240Y-90920857D02*
X123092859Y-90873238D01*
X123092859Y-90873238D02*
X123188097Y-90825619D01*
X123902383Y-90920857D02*
X123950002Y-90873238D01*
X123950002Y-90873238D02*
X124045240Y-90825619D01*
X124045240Y-90825619D02*
X124283335Y-90825619D01*
X124283335Y-90825619D02*
X124378573Y-90873238D01*
X124378573Y-90873238D02*
X124426192Y-90920857D01*
X124426192Y-90920857D02*
X124473811Y-91016095D01*
X124473811Y-91016095D02*
X124473811Y-91111333D01*
X124473811Y-91111333D02*
X124426192Y-91254190D01*
X124426192Y-91254190D02*
X123854764Y-91825619D01*
X123854764Y-91825619D02*
X124473811Y-91825619D01*
D10*
X112458476Y-123035904D02*
X112934666Y-123035904D01*
X112363238Y-123321619D02*
X112696571Y-122321619D01*
X112696571Y-122321619D02*
X113029904Y-123321619D01*
X113887047Y-123321619D02*
X113315619Y-123321619D01*
X113601333Y-123321619D02*
X113601333Y-122321619D01*
X113601333Y-122321619D02*
X113506095Y-122464476D01*
X113506095Y-122464476D02*
X113410857Y-122559714D01*
X113410857Y-122559714D02*
X113315619Y-122607333D01*
X114791809Y-122321619D02*
X114315619Y-122321619D01*
X114315619Y-122321619D02*
X114268000Y-122797809D01*
X114268000Y-122797809D02*
X114315619Y-122750190D01*
X114315619Y-122750190D02*
X114410857Y-122702571D01*
X114410857Y-122702571D02*
X114648952Y-122702571D01*
X114648952Y-122702571D02*
X114744190Y-122750190D01*
X114744190Y-122750190D02*
X114791809Y-122797809D01*
X114791809Y-122797809D02*
X114839428Y-122893047D01*
X114839428Y-122893047D02*
X114839428Y-123131142D01*
X114839428Y-123131142D02*
X114791809Y-123226380D01*
X114791809Y-123226380D02*
X114744190Y-123274000D01*
X114744190Y-123274000D02*
X114648952Y-123321619D01*
X114648952Y-123321619D02*
X114410857Y-123321619D01*
X114410857Y-123321619D02*
X114315619Y-123274000D01*
X114315619Y-123274000D02*
X114268000Y-123226380D01*
D12*
X121788253Y-104211516D02*
X121931110Y-105111516D01*
X121931110Y-105111516D02*
X122045396Y-104468659D01*
X122045396Y-104468659D02*
X122159681Y-105111516D01*
X122159681Y-105111516D02*
X122302539Y-104211516D01*
X122531110Y-105111516D02*
X122531110Y-104211516D01*
X122531110Y-104554373D02*
X122588253Y-104511516D01*
X122588253Y-104511516D02*
X122702538Y-104511516D01*
X122702538Y-104511516D02*
X122759681Y-104554373D01*
X122759681Y-104554373D02*
X122788253Y-104597230D01*
X122788253Y-104597230D02*
X122816824Y-104682944D01*
X122816824Y-104682944D02*
X122816824Y-104940087D01*
X122816824Y-104940087D02*
X122788253Y-105025801D01*
X122788253Y-105025801D02*
X122759681Y-105068659D01*
X122759681Y-105068659D02*
X122702538Y-105111516D01*
X122702538Y-105111516D02*
X122588253Y-105111516D01*
X122588253Y-105111516D02*
X122531110Y-105068659D01*
D10*
X120952539Y-103418659D02*
X123698000Y-103418659D01*
X123698000Y-105664000D01*
X120952539Y-105664000D01*
X120952539Y-103418659D01*
D12*
X122188253Y-114255516D02*
X121988253Y-113826944D01*
X121845396Y-114255516D02*
X121845396Y-113355516D01*
X121845396Y-113355516D02*
X122073967Y-113355516D01*
X122073967Y-113355516D02*
X122131110Y-113398373D01*
X122131110Y-113398373D02*
X122159681Y-113441230D01*
X122159681Y-113441230D02*
X122188253Y-113526944D01*
X122188253Y-113526944D02*
X122188253Y-113655516D01*
X122188253Y-113655516D02*
X122159681Y-113741230D01*
X122159681Y-113741230D02*
X122131110Y-113784087D01*
X122131110Y-113784087D02*
X122073967Y-113826944D01*
X122073967Y-113826944D02*
X121845396Y-113826944D01*
X122702539Y-114255516D02*
X122702539Y-113784087D01*
X122702539Y-113784087D02*
X122673967Y-113698373D01*
X122673967Y-113698373D02*
X122616824Y-113655516D01*
X122616824Y-113655516D02*
X122502539Y-113655516D01*
X122502539Y-113655516D02*
X122445396Y-113698373D01*
X122702539Y-114212659D02*
X122645396Y-114255516D01*
X122645396Y-114255516D02*
X122502539Y-114255516D01*
X122502539Y-114255516D02*
X122445396Y-114212659D01*
X122445396Y-114212659D02*
X122416824Y-114126944D01*
X122416824Y-114126944D02*
X122416824Y-114041230D01*
X122416824Y-114041230D02*
X122445396Y-113955516D01*
X122445396Y-113955516D02*
X122502539Y-113912659D01*
X122502539Y-113912659D02*
X122645396Y-113912659D01*
X122645396Y-113912659D02*
X122702539Y-113869801D01*
D10*
X120952539Y-112562659D02*
X123698000Y-112562659D01*
X123698000Y-114808000D01*
X120952539Y-114808000D01*
X120952539Y-112562659D01*
D12*
X121788253Y-96444186D02*
X121931110Y-97344186D01*
X121931110Y-97344186D02*
X122045396Y-96701329D01*
X122045396Y-96701329D02*
X122159681Y-97344186D01*
X122159681Y-97344186D02*
X122302539Y-96444186D01*
X122788253Y-97344186D02*
X122788253Y-96872757D01*
X122788253Y-96872757D02*
X122759681Y-96787043D01*
X122759681Y-96787043D02*
X122702538Y-96744186D01*
X122702538Y-96744186D02*
X122588253Y-96744186D01*
X122588253Y-96744186D02*
X122531110Y-96787043D01*
X122788253Y-97301329D02*
X122731110Y-97344186D01*
X122731110Y-97344186D02*
X122588253Y-97344186D01*
X122588253Y-97344186D02*
X122531110Y-97301329D01*
X122531110Y-97301329D02*
X122502538Y-97215614D01*
X122502538Y-97215614D02*
X122502538Y-97129900D01*
X122502538Y-97129900D02*
X122531110Y-97044186D01*
X122531110Y-97044186D02*
X122588253Y-97001329D01*
X122588253Y-97001329D02*
X122731110Y-97001329D01*
X122731110Y-97001329D02*
X122788253Y-96958471D01*
D10*
X120952539Y-95651329D02*
X123698000Y-95651329D01*
X123698000Y-97896670D01*
X120952539Y-97896670D01*
X120952539Y-95651329D01*
D12*
X122188253Y-121621516D02*
X121988253Y-121192944D01*
X121845396Y-121621516D02*
X121845396Y-120721516D01*
X121845396Y-120721516D02*
X122073967Y-120721516D01*
X122073967Y-120721516D02*
X122131110Y-120764373D01*
X122131110Y-120764373D02*
X122159681Y-120807230D01*
X122159681Y-120807230D02*
X122188253Y-120892944D01*
X122188253Y-120892944D02*
X122188253Y-121021516D01*
X122188253Y-121021516D02*
X122159681Y-121107230D01*
X122159681Y-121107230D02*
X122131110Y-121150087D01*
X122131110Y-121150087D02*
X122073967Y-121192944D01*
X122073967Y-121192944D02*
X121845396Y-121192944D01*
X122445396Y-121621516D02*
X122445396Y-120721516D01*
X122445396Y-121064373D02*
X122502539Y-121021516D01*
X122502539Y-121021516D02*
X122616824Y-121021516D01*
X122616824Y-121021516D02*
X122673967Y-121064373D01*
X122673967Y-121064373D02*
X122702539Y-121107230D01*
X122702539Y-121107230D02*
X122731110Y-121192944D01*
X122731110Y-121192944D02*
X122731110Y-121450087D01*
X122731110Y-121450087D02*
X122702539Y-121535801D01*
X122702539Y-121535801D02*
X122673967Y-121578659D01*
X122673967Y-121578659D02*
X122616824Y-121621516D01*
X122616824Y-121621516D02*
X122502539Y-121621516D01*
X122502539Y-121621516D02*
X122445396Y-121578659D01*
D10*
X120952539Y-119928659D02*
X123698000Y-119928659D01*
X123698000Y-122174000D01*
X120952539Y-122174000D01*
X120952539Y-119928659D01*
%TO.C,C1*%
X166457333Y-105309380D02*
X166409714Y-105357000D01*
X166409714Y-105357000D02*
X166266857Y-105404619D01*
X166266857Y-105404619D02*
X166171619Y-105404619D01*
X166171619Y-105404619D02*
X166028762Y-105357000D01*
X166028762Y-105357000D02*
X165933524Y-105261761D01*
X165933524Y-105261761D02*
X165885905Y-105166523D01*
X165885905Y-105166523D02*
X165838286Y-104976047D01*
X165838286Y-104976047D02*
X165838286Y-104833190D01*
X165838286Y-104833190D02*
X165885905Y-104642714D01*
X165885905Y-104642714D02*
X165933524Y-104547476D01*
X165933524Y-104547476D02*
X166028762Y-104452238D01*
X166028762Y-104452238D02*
X166171619Y-104404619D01*
X166171619Y-104404619D02*
X166266857Y-104404619D01*
X166266857Y-104404619D02*
X166409714Y-104452238D01*
X166409714Y-104452238D02*
X166457333Y-104499857D01*
X167409714Y-105404619D02*
X166838286Y-105404619D01*
X167124000Y-105404619D02*
X167124000Y-104404619D01*
X167124000Y-104404619D02*
X167028762Y-104547476D01*
X167028762Y-104547476D02*
X166933524Y-104642714D01*
X166933524Y-104642714D02*
X166838286Y-104690333D01*
X170569143Y-108174619D02*
X170664381Y-108174619D01*
X170664381Y-108174619D02*
X170759619Y-108222238D01*
X170759619Y-108222238D02*
X170807238Y-108269857D01*
X170807238Y-108269857D02*
X170854857Y-108365095D01*
X170854857Y-108365095D02*
X170902476Y-108555571D01*
X170902476Y-108555571D02*
X170902476Y-108793666D01*
X170902476Y-108793666D02*
X170854857Y-108984142D01*
X170854857Y-108984142D02*
X170807238Y-109079380D01*
X170807238Y-109079380D02*
X170759619Y-109127000D01*
X170759619Y-109127000D02*
X170664381Y-109174619D01*
X170664381Y-109174619D02*
X170569143Y-109174619D01*
X170569143Y-109174619D02*
X170473905Y-109127000D01*
X170473905Y-109127000D02*
X170426286Y-109079380D01*
X170426286Y-109079380D02*
X170378667Y-108984142D01*
X170378667Y-108984142D02*
X170331048Y-108793666D01*
X170331048Y-108793666D02*
X170331048Y-108555571D01*
X170331048Y-108555571D02*
X170378667Y-108365095D01*
X170378667Y-108365095D02*
X170426286Y-108269857D01*
X170426286Y-108269857D02*
X170473905Y-108222238D01*
X170473905Y-108222238D02*
X170569143Y-108174619D01*
X171331048Y-109079380D02*
X171378667Y-109127000D01*
X171378667Y-109127000D02*
X171331048Y-109174619D01*
X171331048Y-109174619D02*
X171283429Y-109127000D01*
X171283429Y-109127000D02*
X171331048Y-109079380D01*
X171331048Y-109079380D02*
X171331048Y-109174619D01*
X172331047Y-109174619D02*
X171759619Y-109174619D01*
X172045333Y-109174619D02*
X172045333Y-108174619D01*
X172045333Y-108174619D02*
X171950095Y-108317476D01*
X171950095Y-108317476D02*
X171854857Y-108412714D01*
X171854857Y-108412714D02*
X171759619Y-108460333D01*
X173188190Y-108507952D02*
X173188190Y-109174619D01*
X172759619Y-108507952D02*
X172759619Y-109031761D01*
X172759619Y-109031761D02*
X172807238Y-109127000D01*
X172807238Y-109127000D02*
X172902476Y-109174619D01*
X172902476Y-109174619D02*
X173045333Y-109174619D01*
X173045333Y-109174619D02*
X173140571Y-109127000D01*
X173140571Y-109127000D02*
X173188190Y-109079380D01*
X173997714Y-108650809D02*
X173664381Y-108650809D01*
X173664381Y-109174619D02*
X173664381Y-108174619D01*
X173664381Y-108174619D02*
X174140571Y-108174619D01*
%TO.C,CE1*%
X149651112Y-153939940D02*
X149603493Y-153987560D01*
X149603493Y-153987560D02*
X149460636Y-154035179D01*
X149460636Y-154035179D02*
X149365398Y-154035179D01*
X149365398Y-154035179D02*
X149222541Y-153987560D01*
X149222541Y-153987560D02*
X149127303Y-153892321D01*
X149127303Y-153892321D02*
X149079684Y-153797083D01*
X149079684Y-153797083D02*
X149032065Y-153606607D01*
X149032065Y-153606607D02*
X149032065Y-153463750D01*
X149032065Y-153463750D02*
X149079684Y-153273274D01*
X149079684Y-153273274D02*
X149127303Y-153178036D01*
X149127303Y-153178036D02*
X149222541Y-153082798D01*
X149222541Y-153082798D02*
X149365398Y-153035179D01*
X149365398Y-153035179D02*
X149460636Y-153035179D01*
X149460636Y-153035179D02*
X149603493Y-153082798D01*
X149603493Y-153082798D02*
X149651112Y-153130417D01*
X150079684Y-153511369D02*
X150413017Y-153511369D01*
X150555874Y-154035179D02*
X150079684Y-154035179D01*
X150079684Y-154035179D02*
X150079684Y-153035179D01*
X150079684Y-153035179D02*
X150555874Y-153035179D01*
X151508255Y-154035179D02*
X150936827Y-154035179D01*
X151222541Y-154035179D02*
X151222541Y-153035179D01*
X151222541Y-153035179D02*
X151127303Y-153178036D01*
X151127303Y-153178036D02*
X151032065Y-153273274D01*
X151032065Y-153273274D02*
X150936827Y-153320893D01*
D13*
X154420921Y-143178273D02*
X154420921Y-142987797D01*
X154535207Y-143216368D02*
X154135207Y-143083035D01*
X154135207Y-143083035D02*
X154535207Y-142949702D01*
X154268540Y-142644940D02*
X154535207Y-142644940D01*
X154116160Y-142740178D02*
X154401874Y-142835416D01*
X154401874Y-142835416D02*
X154401874Y-142587797D01*
X144355207Y-143157797D02*
X143955207Y-143157797D01*
X143955207Y-143157797D02*
X143955207Y-143062559D01*
X143955207Y-143062559D02*
X143974255Y-143005416D01*
X143974255Y-143005416D02*
X144012350Y-142967321D01*
X144012350Y-142967321D02*
X144050445Y-142948274D01*
X144050445Y-142948274D02*
X144126636Y-142929226D01*
X144126636Y-142929226D02*
X144183779Y-142929226D01*
X144183779Y-142929226D02*
X144259969Y-142948274D01*
X144259969Y-142948274D02*
X144298064Y-142967321D01*
X144298064Y-142967321D02*
X144336160Y-143005416D01*
X144336160Y-143005416D02*
X144355207Y-143062559D01*
X144355207Y-143062559D02*
X144355207Y-143157797D01*
X143955207Y-142586369D02*
X143955207Y-142662559D01*
X143955207Y-142662559D02*
X143974255Y-142700655D01*
X143974255Y-142700655D02*
X143993302Y-142719702D01*
X143993302Y-142719702D02*
X144050445Y-142757797D01*
X144050445Y-142757797D02*
X144126636Y-142776845D01*
X144126636Y-142776845D02*
X144279017Y-142776845D01*
X144279017Y-142776845D02*
X144317112Y-142757797D01*
X144317112Y-142757797D02*
X144336160Y-142738750D01*
X144336160Y-142738750D02*
X144355207Y-142700655D01*
X144355207Y-142700655D02*
X144355207Y-142624464D01*
X144355207Y-142624464D02*
X144336160Y-142586369D01*
X144336160Y-142586369D02*
X144317112Y-142567321D01*
X144317112Y-142567321D02*
X144279017Y-142548274D01*
X144279017Y-142548274D02*
X144183779Y-142548274D01*
X144183779Y-142548274D02*
X144145683Y-142567321D01*
X144145683Y-142567321D02*
X144126636Y-142586369D01*
X144126636Y-142586369D02*
X144107588Y-142624464D01*
X144107588Y-142624464D02*
X144107588Y-142700655D01*
X144107588Y-142700655D02*
X144126636Y-142738750D01*
X144126636Y-142738750D02*
X144145683Y-142757797D01*
X144145683Y-142757797D02*
X144183779Y-142776845D01*
X179905207Y-143176369D02*
X179505207Y-143176369D01*
X179505207Y-143176369D02*
X179790921Y-143043036D01*
X179790921Y-143043036D02*
X179505207Y-142909703D01*
X179505207Y-142909703D02*
X179905207Y-142909703D01*
X179695683Y-142719226D02*
X179695683Y-142585893D01*
X179905207Y-142528750D02*
X179905207Y-142719226D01*
X179905207Y-142719226D02*
X179505207Y-142719226D01*
X179505207Y-142719226D02*
X179505207Y-142528750D01*
X179905207Y-142128750D02*
X179714731Y-142262083D01*
X179905207Y-142357321D02*
X179505207Y-142357321D01*
X179505207Y-142357321D02*
X179505207Y-142204940D01*
X179505207Y-142204940D02*
X179524255Y-142166845D01*
X179524255Y-142166845D02*
X179543302Y-142147798D01*
X179543302Y-142147798D02*
X179581398Y-142128750D01*
X179581398Y-142128750D02*
X179638540Y-142128750D01*
X179638540Y-142128750D02*
X179676636Y-142147798D01*
X179676636Y-142147798D02*
X179695683Y-142166845D01*
X179695683Y-142166845D02*
X179714731Y-142204940D01*
X179714731Y-142204940D02*
X179714731Y-142357321D01*
X179943302Y-141690655D02*
X179924255Y-141728750D01*
X179924255Y-141728750D02*
X179886160Y-141766845D01*
X179886160Y-141766845D02*
X179829017Y-141823988D01*
X179829017Y-141823988D02*
X179809969Y-141862083D01*
X179809969Y-141862083D02*
X179809969Y-141900179D01*
X179905207Y-141881131D02*
X179886160Y-141919226D01*
X179886160Y-141919226D02*
X179848064Y-141957321D01*
X179848064Y-141957321D02*
X179771874Y-141976369D01*
X179771874Y-141976369D02*
X179638540Y-141976369D01*
X179638540Y-141976369D02*
X179562350Y-141957321D01*
X179562350Y-141957321D02*
X179524255Y-141919226D01*
X179524255Y-141919226D02*
X179505207Y-141881131D01*
X179505207Y-141881131D02*
X179505207Y-141804940D01*
X179505207Y-141804940D02*
X179524255Y-141766845D01*
X179524255Y-141766845D02*
X179562350Y-141728750D01*
X179562350Y-141728750D02*
X179638540Y-141709702D01*
X179638540Y-141709702D02*
X179771874Y-141709702D01*
X179771874Y-141709702D02*
X179848064Y-141728750D01*
X179848064Y-141728750D02*
X179886160Y-141766845D01*
X179886160Y-141766845D02*
X179905207Y-141804940D01*
X179905207Y-141804940D02*
X179905207Y-141881131D01*
X179326160Y-143231608D02*
X179326160Y-141673512D01*
X182255683Y-143083988D02*
X182274731Y-143026845D01*
X182274731Y-143026845D02*
X182293779Y-143007798D01*
X182293779Y-143007798D02*
X182331874Y-142988750D01*
X182331874Y-142988750D02*
X182389017Y-142988750D01*
X182389017Y-142988750D02*
X182427112Y-143007798D01*
X182427112Y-143007798D02*
X182446160Y-143026845D01*
X182446160Y-143026845D02*
X182465207Y-143064940D01*
X182465207Y-143064940D02*
X182465207Y-143217321D01*
X182465207Y-143217321D02*
X182065207Y-143217321D01*
X182065207Y-143217321D02*
X182065207Y-143083988D01*
X182065207Y-143083988D02*
X182084255Y-143045893D01*
X182084255Y-143045893D02*
X182103302Y-143026845D01*
X182103302Y-143026845D02*
X182141398Y-143007798D01*
X182141398Y-143007798D02*
X182179493Y-143007798D01*
X182179493Y-143007798D02*
X182217588Y-143026845D01*
X182217588Y-143026845D02*
X182236636Y-143045893D01*
X182236636Y-143045893D02*
X182255683Y-143083988D01*
X182255683Y-143083988D02*
X182255683Y-143217321D01*
X182065207Y-142817321D02*
X182389017Y-142817321D01*
X182389017Y-142817321D02*
X182427112Y-142798274D01*
X182427112Y-142798274D02*
X182446160Y-142779226D01*
X182446160Y-142779226D02*
X182465207Y-142741131D01*
X182465207Y-142741131D02*
X182465207Y-142664940D01*
X182465207Y-142664940D02*
X182446160Y-142626845D01*
X182446160Y-142626845D02*
X182427112Y-142607798D01*
X182427112Y-142607798D02*
X182389017Y-142588750D01*
X182389017Y-142588750D02*
X182065207Y-142588750D01*
X182446160Y-142417321D02*
X182465207Y-142360178D01*
X182465207Y-142360178D02*
X182465207Y-142264940D01*
X182465207Y-142264940D02*
X182446160Y-142226845D01*
X182446160Y-142226845D02*
X182427112Y-142207797D01*
X182427112Y-142207797D02*
X182389017Y-142188750D01*
X182389017Y-142188750D02*
X182350921Y-142188750D01*
X182350921Y-142188750D02*
X182312826Y-142207797D01*
X182312826Y-142207797D02*
X182293779Y-142226845D01*
X182293779Y-142226845D02*
X182274731Y-142264940D01*
X182274731Y-142264940D02*
X182255683Y-142341131D01*
X182255683Y-142341131D02*
X182236636Y-142379226D01*
X182236636Y-142379226D02*
X182217588Y-142398273D01*
X182217588Y-142398273D02*
X182179493Y-142417321D01*
X182179493Y-142417321D02*
X182141398Y-142417321D01*
X182141398Y-142417321D02*
X182103302Y-142398273D01*
X182103302Y-142398273D02*
X182084255Y-142379226D01*
X182084255Y-142379226D02*
X182065207Y-142341131D01*
X182065207Y-142341131D02*
X182065207Y-142245892D01*
X182065207Y-142245892D02*
X182084255Y-142188750D01*
X182465207Y-142017321D02*
X182065207Y-142017321D01*
X182065207Y-142017321D02*
X182065207Y-141922083D01*
X182065207Y-141922083D02*
X182084255Y-141864940D01*
X182084255Y-141864940D02*
X182122350Y-141826845D01*
X182122350Y-141826845D02*
X182160445Y-141807798D01*
X182160445Y-141807798D02*
X182236636Y-141788750D01*
X182236636Y-141788750D02*
X182293779Y-141788750D01*
X182293779Y-141788750D02*
X182369969Y-141807798D01*
X182369969Y-141807798D02*
X182408064Y-141826845D01*
X182408064Y-141826845D02*
X182446160Y-141864940D01*
X182446160Y-141864940D02*
X182465207Y-141922083D01*
X182465207Y-141922083D02*
X182465207Y-142017321D01*
X181886160Y-143272560D02*
X181886160Y-141752560D01*
X177385207Y-142968750D02*
X177194731Y-143102083D01*
X177385207Y-143197321D02*
X176985207Y-143197321D01*
X176985207Y-143197321D02*
X176985207Y-143044940D01*
X176985207Y-143044940D02*
X177004255Y-143006845D01*
X177004255Y-143006845D02*
X177023302Y-142987798D01*
X177023302Y-142987798D02*
X177061398Y-142968750D01*
X177061398Y-142968750D02*
X177118540Y-142968750D01*
X177118540Y-142968750D02*
X177156636Y-142987798D01*
X177156636Y-142987798D02*
X177175683Y-143006845D01*
X177175683Y-143006845D02*
X177194731Y-143044940D01*
X177194731Y-143044940D02*
X177194731Y-143197321D01*
X177385207Y-142797321D02*
X176985207Y-142797321D01*
X176985207Y-142797321D02*
X176985207Y-142702083D01*
X176985207Y-142702083D02*
X177004255Y-142644940D01*
X177004255Y-142644940D02*
X177042350Y-142606845D01*
X177042350Y-142606845D02*
X177080445Y-142587798D01*
X177080445Y-142587798D02*
X177156636Y-142568750D01*
X177156636Y-142568750D02*
X177213779Y-142568750D01*
X177213779Y-142568750D02*
X177289969Y-142587798D01*
X177289969Y-142587798D02*
X177328064Y-142606845D01*
X177328064Y-142606845D02*
X177366160Y-142644940D01*
X177366160Y-142644940D02*
X177385207Y-142702083D01*
X177385207Y-142702083D02*
X177385207Y-142797321D01*
X176806160Y-143252560D02*
X176806160Y-142532560D01*
X192577112Y-142989702D02*
X192596160Y-143008750D01*
X192596160Y-143008750D02*
X192615207Y-143065892D01*
X192615207Y-143065892D02*
X192615207Y-143103988D01*
X192615207Y-143103988D02*
X192596160Y-143161131D01*
X192596160Y-143161131D02*
X192558064Y-143199226D01*
X192558064Y-143199226D02*
X192519969Y-143218273D01*
X192519969Y-143218273D02*
X192443779Y-143237321D01*
X192443779Y-143237321D02*
X192386636Y-143237321D01*
X192386636Y-143237321D02*
X192310445Y-143218273D01*
X192310445Y-143218273D02*
X192272350Y-143199226D01*
X192272350Y-143199226D02*
X192234255Y-143161131D01*
X192234255Y-143161131D02*
X192215207Y-143103988D01*
X192215207Y-143103988D02*
X192215207Y-143065892D01*
X192215207Y-143065892D02*
X192234255Y-143008750D01*
X192234255Y-143008750D02*
X192253302Y-142989702D01*
X192596160Y-142837321D02*
X192615207Y-142780178D01*
X192615207Y-142780178D02*
X192615207Y-142684940D01*
X192615207Y-142684940D02*
X192596160Y-142646845D01*
X192596160Y-142646845D02*
X192577112Y-142627797D01*
X192577112Y-142627797D02*
X192539017Y-142608750D01*
X192539017Y-142608750D02*
X192500921Y-142608750D01*
X192500921Y-142608750D02*
X192462826Y-142627797D01*
X192462826Y-142627797D02*
X192443779Y-142646845D01*
X192443779Y-142646845D02*
X192424731Y-142684940D01*
X192424731Y-142684940D02*
X192405683Y-142761131D01*
X192405683Y-142761131D02*
X192386636Y-142799226D01*
X192386636Y-142799226D02*
X192367588Y-142818273D01*
X192367588Y-142818273D02*
X192329493Y-142837321D01*
X192329493Y-142837321D02*
X192291398Y-142837321D01*
X192291398Y-142837321D02*
X192253302Y-142818273D01*
X192253302Y-142818273D02*
X192234255Y-142799226D01*
X192234255Y-142799226D02*
X192215207Y-142761131D01*
X192215207Y-142761131D02*
X192215207Y-142665892D01*
X192215207Y-142665892D02*
X192234255Y-142608750D01*
X192253302Y-142456369D02*
X192234255Y-142437321D01*
X192234255Y-142437321D02*
X192215207Y-142399226D01*
X192215207Y-142399226D02*
X192215207Y-142303988D01*
X192215207Y-142303988D02*
X192234255Y-142265893D01*
X192234255Y-142265893D02*
X192253302Y-142246845D01*
X192253302Y-142246845D02*
X192291398Y-142227798D01*
X192291398Y-142227798D02*
X192329493Y-142227798D01*
X192329493Y-142227798D02*
X192386636Y-142246845D01*
X192386636Y-142246845D02*
X192615207Y-142475417D01*
X192615207Y-142475417D02*
X192615207Y-142227798D01*
X192036160Y-143273512D02*
X192036160Y-142191608D01*
X167090921Y-143148273D02*
X167090921Y-142957797D01*
X167205207Y-143186368D02*
X166805207Y-143053035D01*
X166805207Y-143053035D02*
X167205207Y-142919702D01*
X166805207Y-142614940D02*
X166805207Y-142691130D01*
X166805207Y-142691130D02*
X166824255Y-142729226D01*
X166824255Y-142729226D02*
X166843302Y-142748273D01*
X166843302Y-142748273D02*
X166900445Y-142786368D01*
X166900445Y-142786368D02*
X166976636Y-142805416D01*
X166976636Y-142805416D02*
X167129017Y-142805416D01*
X167129017Y-142805416D02*
X167167112Y-142786368D01*
X167167112Y-142786368D02*
X167186160Y-142767321D01*
X167186160Y-142767321D02*
X167205207Y-142729226D01*
X167205207Y-142729226D02*
X167205207Y-142653035D01*
X167205207Y-142653035D02*
X167186160Y-142614940D01*
X167186160Y-142614940D02*
X167167112Y-142595892D01*
X167167112Y-142595892D02*
X167129017Y-142576845D01*
X167129017Y-142576845D02*
X167033779Y-142576845D01*
X167033779Y-142576845D02*
X166995683Y-142595892D01*
X166995683Y-142595892D02*
X166976636Y-142614940D01*
X166976636Y-142614940D02*
X166957588Y-142653035D01*
X166957588Y-142653035D02*
X166957588Y-142729226D01*
X166957588Y-142729226D02*
X166976636Y-142767321D01*
X166976636Y-142767321D02*
X166995683Y-142786368D01*
X166995683Y-142786368D02*
X167033779Y-142805416D01*
X190066160Y-143243512D02*
X190085207Y-143186369D01*
X190085207Y-143186369D02*
X190085207Y-143091131D01*
X190085207Y-143091131D02*
X190066160Y-143053036D01*
X190066160Y-143053036D02*
X190047112Y-143033988D01*
X190047112Y-143033988D02*
X190009017Y-143014941D01*
X190009017Y-143014941D02*
X189970921Y-143014941D01*
X189970921Y-143014941D02*
X189932826Y-143033988D01*
X189932826Y-143033988D02*
X189913779Y-143053036D01*
X189913779Y-143053036D02*
X189894731Y-143091131D01*
X189894731Y-143091131D02*
X189875683Y-143167322D01*
X189875683Y-143167322D02*
X189856636Y-143205417D01*
X189856636Y-143205417D02*
X189837588Y-143224464D01*
X189837588Y-143224464D02*
X189799493Y-143243512D01*
X189799493Y-143243512D02*
X189761398Y-143243512D01*
X189761398Y-143243512D02*
X189723302Y-143224464D01*
X189723302Y-143224464D02*
X189704255Y-143205417D01*
X189704255Y-143205417D02*
X189685207Y-143167322D01*
X189685207Y-143167322D02*
X189685207Y-143072083D01*
X189685207Y-143072083D02*
X189704255Y-143014941D01*
X190085207Y-142653036D02*
X190085207Y-142843512D01*
X190085207Y-142843512D02*
X189685207Y-142843512D01*
X189685207Y-142576845D02*
X189685207Y-142348274D01*
X190085207Y-142462560D02*
X189685207Y-142462560D01*
X190066160Y-142233988D02*
X190085207Y-142176845D01*
X190085207Y-142176845D02*
X190085207Y-142081607D01*
X190085207Y-142081607D02*
X190066160Y-142043512D01*
X190066160Y-142043512D02*
X190047112Y-142024464D01*
X190047112Y-142024464D02*
X190009017Y-142005417D01*
X190009017Y-142005417D02*
X189970921Y-142005417D01*
X189970921Y-142005417D02*
X189932826Y-142024464D01*
X189932826Y-142024464D02*
X189913779Y-142043512D01*
X189913779Y-142043512D02*
X189894731Y-142081607D01*
X189894731Y-142081607D02*
X189875683Y-142157798D01*
X189875683Y-142157798D02*
X189856636Y-142195893D01*
X189856636Y-142195893D02*
X189837588Y-142214940D01*
X189837588Y-142214940D02*
X189799493Y-142233988D01*
X189799493Y-142233988D02*
X189761398Y-142233988D01*
X189761398Y-142233988D02*
X189723302Y-142214940D01*
X189723302Y-142214940D02*
X189704255Y-142195893D01*
X189704255Y-142195893D02*
X189685207Y-142157798D01*
X189685207Y-142157798D02*
X189685207Y-142062559D01*
X189685207Y-142062559D02*
X189704255Y-142005417D01*
X190085207Y-141643512D02*
X190085207Y-141833988D01*
X190085207Y-141833988D02*
X189685207Y-141833988D01*
X189506160Y-143279703D02*
X189506160Y-141645417D01*
X172130921Y-143158749D02*
X172130921Y-142968273D01*
X172245207Y-143196844D02*
X171845207Y-143063511D01*
X171845207Y-143063511D02*
X172245207Y-142930178D01*
X172245207Y-142587321D02*
X172245207Y-142815892D01*
X172245207Y-142701606D02*
X171845207Y-142701606D01*
X171845207Y-142701606D02*
X171902350Y-142739702D01*
X171902350Y-142739702D02*
X171940445Y-142777797D01*
X171940445Y-142777797D02*
X171959493Y-142815892D01*
X171845207Y-142225416D02*
X171845207Y-142415892D01*
X171845207Y-142415892D02*
X172035683Y-142434940D01*
X172035683Y-142434940D02*
X172016636Y-142415892D01*
X172016636Y-142415892D02*
X171997588Y-142377797D01*
X171997588Y-142377797D02*
X171997588Y-142282559D01*
X171997588Y-142282559D02*
X172016636Y-142244464D01*
X172016636Y-142244464D02*
X172035683Y-142225416D01*
X172035683Y-142225416D02*
X172073779Y-142206369D01*
X172073779Y-142206369D02*
X172169017Y-142206369D01*
X172169017Y-142206369D02*
X172207112Y-142225416D01*
X172207112Y-142225416D02*
X172226160Y-142244464D01*
X172226160Y-142244464D02*
X172245207Y-142282559D01*
X172245207Y-142282559D02*
X172245207Y-142377797D01*
X172245207Y-142377797D02*
X172226160Y-142415892D01*
X172226160Y-142415892D02*
X172207112Y-142434940D01*
X164570921Y-143178273D02*
X164570921Y-142987797D01*
X164685207Y-143216368D02*
X164285207Y-143083035D01*
X164285207Y-143083035D02*
X164685207Y-142949702D01*
X164456636Y-142759226D02*
X164437588Y-142797321D01*
X164437588Y-142797321D02*
X164418540Y-142816368D01*
X164418540Y-142816368D02*
X164380445Y-142835416D01*
X164380445Y-142835416D02*
X164361398Y-142835416D01*
X164361398Y-142835416D02*
X164323302Y-142816368D01*
X164323302Y-142816368D02*
X164304255Y-142797321D01*
X164304255Y-142797321D02*
X164285207Y-142759226D01*
X164285207Y-142759226D02*
X164285207Y-142683035D01*
X164285207Y-142683035D02*
X164304255Y-142644940D01*
X164304255Y-142644940D02*
X164323302Y-142625892D01*
X164323302Y-142625892D02*
X164361398Y-142606845D01*
X164361398Y-142606845D02*
X164380445Y-142606845D01*
X164380445Y-142606845D02*
X164418540Y-142625892D01*
X164418540Y-142625892D02*
X164437588Y-142644940D01*
X164437588Y-142644940D02*
X164456636Y-142683035D01*
X164456636Y-142683035D02*
X164456636Y-142759226D01*
X164456636Y-142759226D02*
X164475683Y-142797321D01*
X164475683Y-142797321D02*
X164494731Y-142816368D01*
X164494731Y-142816368D02*
X164532826Y-142835416D01*
X164532826Y-142835416D02*
X164609017Y-142835416D01*
X164609017Y-142835416D02*
X164647112Y-142816368D01*
X164647112Y-142816368D02*
X164666160Y-142797321D01*
X164666160Y-142797321D02*
X164685207Y-142759226D01*
X164685207Y-142759226D02*
X164685207Y-142683035D01*
X164685207Y-142683035D02*
X164666160Y-142644940D01*
X164666160Y-142644940D02*
X164647112Y-142625892D01*
X164647112Y-142625892D02*
X164609017Y-142606845D01*
X164609017Y-142606845D02*
X164532826Y-142606845D01*
X164532826Y-142606845D02*
X164494731Y-142625892D01*
X164494731Y-142625892D02*
X164475683Y-142644940D01*
X164475683Y-142644940D02*
X164456636Y-142683035D01*
X174835207Y-143227321D02*
X174435207Y-143227321D01*
X174435207Y-143227321D02*
X174835207Y-142998750D01*
X174835207Y-142998750D02*
X174435207Y-142998750D01*
X174797112Y-142808273D02*
X174816160Y-142789226D01*
X174816160Y-142789226D02*
X174835207Y-142808273D01*
X174835207Y-142808273D02*
X174816160Y-142827321D01*
X174816160Y-142827321D02*
X174797112Y-142808273D01*
X174797112Y-142808273D02*
X174835207Y-142808273D01*
X174797112Y-142389226D02*
X174816160Y-142408274D01*
X174816160Y-142408274D02*
X174835207Y-142465416D01*
X174835207Y-142465416D02*
X174835207Y-142503512D01*
X174835207Y-142503512D02*
X174816160Y-142560655D01*
X174816160Y-142560655D02*
X174778064Y-142598750D01*
X174778064Y-142598750D02*
X174739969Y-142617797D01*
X174739969Y-142617797D02*
X174663779Y-142636845D01*
X174663779Y-142636845D02*
X174606636Y-142636845D01*
X174606636Y-142636845D02*
X174530445Y-142617797D01*
X174530445Y-142617797D02*
X174492350Y-142598750D01*
X174492350Y-142598750D02*
X174454255Y-142560655D01*
X174454255Y-142560655D02*
X174435207Y-142503512D01*
X174435207Y-142503512D02*
X174435207Y-142465416D01*
X174435207Y-142465416D02*
X174454255Y-142408274D01*
X174454255Y-142408274D02*
X174473302Y-142389226D01*
X174797112Y-142217797D02*
X174816160Y-142198750D01*
X174816160Y-142198750D02*
X174835207Y-142217797D01*
X174835207Y-142217797D02*
X174816160Y-142236845D01*
X174816160Y-142236845D02*
X174797112Y-142217797D01*
X174797112Y-142217797D02*
X174835207Y-142217797D01*
X162020921Y-143128749D02*
X162020921Y-142938273D01*
X162135207Y-143166844D02*
X161735207Y-143033511D01*
X161735207Y-143033511D02*
X162135207Y-142900178D01*
X162135207Y-142557321D02*
X162135207Y-142785892D01*
X162135207Y-142671606D02*
X161735207Y-142671606D01*
X161735207Y-142671606D02*
X161792350Y-142709702D01*
X161792350Y-142709702D02*
X161830445Y-142747797D01*
X161830445Y-142747797D02*
X161849493Y-142785892D01*
X161735207Y-142423988D02*
X161735207Y-142176369D01*
X161735207Y-142176369D02*
X161887588Y-142309702D01*
X161887588Y-142309702D02*
X161887588Y-142252559D01*
X161887588Y-142252559D02*
X161906636Y-142214464D01*
X161906636Y-142214464D02*
X161925683Y-142195416D01*
X161925683Y-142195416D02*
X161963779Y-142176369D01*
X161963779Y-142176369D02*
X162059017Y-142176369D01*
X162059017Y-142176369D02*
X162097112Y-142195416D01*
X162097112Y-142195416D02*
X162116160Y-142214464D01*
X162116160Y-142214464D02*
X162135207Y-142252559D01*
X162135207Y-142252559D02*
X162135207Y-142366845D01*
X162135207Y-142366845D02*
X162116160Y-142404940D01*
X162116160Y-142404940D02*
X162097112Y-142423988D01*
X131502826Y-143187320D02*
X131502826Y-142882559D01*
X131655207Y-142482559D02*
X131655207Y-142711130D01*
X131655207Y-142596844D02*
X131255207Y-142596844D01*
X131255207Y-142596844D02*
X131312350Y-142634940D01*
X131312350Y-142634940D02*
X131350445Y-142673035D01*
X131350445Y-142673035D02*
X131369493Y-142711130D01*
X131293302Y-142330178D02*
X131274255Y-142311130D01*
X131274255Y-142311130D02*
X131255207Y-142273035D01*
X131255207Y-142273035D02*
X131255207Y-142177797D01*
X131255207Y-142177797D02*
X131274255Y-142139702D01*
X131274255Y-142139702D02*
X131293302Y-142120654D01*
X131293302Y-142120654D02*
X131331398Y-142101607D01*
X131331398Y-142101607D02*
X131369493Y-142101607D01*
X131369493Y-142101607D02*
X131426636Y-142120654D01*
X131426636Y-142120654D02*
X131655207Y-142349226D01*
X131655207Y-142349226D02*
X131655207Y-142101607D01*
X131255207Y-141987321D02*
X131655207Y-141853988D01*
X131655207Y-141853988D02*
X131255207Y-141720655D01*
X141767112Y-142930179D02*
X141786160Y-142949227D01*
X141786160Y-142949227D02*
X141805207Y-143006369D01*
X141805207Y-143006369D02*
X141805207Y-143044465D01*
X141805207Y-143044465D02*
X141786160Y-143101608D01*
X141786160Y-143101608D02*
X141748064Y-143139703D01*
X141748064Y-143139703D02*
X141709969Y-143158750D01*
X141709969Y-143158750D02*
X141633779Y-143177798D01*
X141633779Y-143177798D02*
X141576636Y-143177798D01*
X141576636Y-143177798D02*
X141500445Y-143158750D01*
X141500445Y-143158750D02*
X141462350Y-143139703D01*
X141462350Y-143139703D02*
X141424255Y-143101608D01*
X141424255Y-143101608D02*
X141405207Y-143044465D01*
X141405207Y-143044465D02*
X141405207Y-143006369D01*
X141405207Y-143006369D02*
X141424255Y-142949227D01*
X141424255Y-142949227D02*
X141443302Y-142930179D01*
X141805207Y-142568274D02*
X141805207Y-142758750D01*
X141805207Y-142758750D02*
X141405207Y-142758750D01*
X141405207Y-142358750D02*
X141405207Y-142282559D01*
X141405207Y-142282559D02*
X141424255Y-142244464D01*
X141424255Y-142244464D02*
X141462350Y-142206369D01*
X141462350Y-142206369D02*
X141538540Y-142187321D01*
X141538540Y-142187321D02*
X141671874Y-142187321D01*
X141671874Y-142187321D02*
X141748064Y-142206369D01*
X141748064Y-142206369D02*
X141786160Y-142244464D01*
X141786160Y-142244464D02*
X141805207Y-142282559D01*
X141805207Y-142282559D02*
X141805207Y-142358750D01*
X141805207Y-142358750D02*
X141786160Y-142396845D01*
X141786160Y-142396845D02*
X141748064Y-142434940D01*
X141748064Y-142434940D02*
X141671874Y-142453988D01*
X141671874Y-142453988D02*
X141538540Y-142453988D01*
X141538540Y-142453988D02*
X141462350Y-142434940D01*
X141462350Y-142434940D02*
X141424255Y-142396845D01*
X141424255Y-142396845D02*
X141405207Y-142358750D01*
X141767112Y-141787321D02*
X141786160Y-141806369D01*
X141786160Y-141806369D02*
X141805207Y-141863511D01*
X141805207Y-141863511D02*
X141805207Y-141901607D01*
X141805207Y-141901607D02*
X141786160Y-141958750D01*
X141786160Y-141958750D02*
X141748064Y-141996845D01*
X141748064Y-141996845D02*
X141709969Y-142015892D01*
X141709969Y-142015892D02*
X141633779Y-142034940D01*
X141633779Y-142034940D02*
X141576636Y-142034940D01*
X141576636Y-142034940D02*
X141500445Y-142015892D01*
X141500445Y-142015892D02*
X141462350Y-141996845D01*
X141462350Y-141996845D02*
X141424255Y-141958750D01*
X141424255Y-141958750D02*
X141405207Y-141901607D01*
X141405207Y-141901607D02*
X141405207Y-141863511D01*
X141405207Y-141863511D02*
X141424255Y-141806369D01*
X141424255Y-141806369D02*
X141443302Y-141787321D01*
X141805207Y-141615892D02*
X141405207Y-141615892D01*
X141805207Y-141387321D02*
X141576636Y-141558750D01*
X141405207Y-141387321D02*
X141633779Y-141615892D01*
X134052826Y-143187320D02*
X134052826Y-142882559D01*
X134205207Y-143034939D02*
X133900445Y-143034939D01*
X134205207Y-142482559D02*
X134205207Y-142711130D01*
X134205207Y-142596844D02*
X133805207Y-142596844D01*
X133805207Y-142596844D02*
X133862350Y-142634940D01*
X133862350Y-142634940D02*
X133900445Y-142673035D01*
X133900445Y-142673035D02*
X133919493Y-142711130D01*
X133843302Y-142330178D02*
X133824255Y-142311130D01*
X133824255Y-142311130D02*
X133805207Y-142273035D01*
X133805207Y-142273035D02*
X133805207Y-142177797D01*
X133805207Y-142177797D02*
X133824255Y-142139702D01*
X133824255Y-142139702D02*
X133843302Y-142120654D01*
X133843302Y-142120654D02*
X133881398Y-142101607D01*
X133881398Y-142101607D02*
X133919493Y-142101607D01*
X133919493Y-142101607D02*
X133976636Y-142120654D01*
X133976636Y-142120654D02*
X134205207Y-142349226D01*
X134205207Y-142349226D02*
X134205207Y-142101607D01*
X133805207Y-141987321D02*
X134205207Y-141853988D01*
X134205207Y-141853988D02*
X133805207Y-141720655D01*
X149425207Y-143187797D02*
X149025207Y-143187797D01*
X149025207Y-143187797D02*
X149025207Y-143092559D01*
X149025207Y-143092559D02*
X149044255Y-143035416D01*
X149044255Y-143035416D02*
X149082350Y-142997321D01*
X149082350Y-142997321D02*
X149120445Y-142978274D01*
X149120445Y-142978274D02*
X149196636Y-142959226D01*
X149196636Y-142959226D02*
X149253779Y-142959226D01*
X149253779Y-142959226D02*
X149329969Y-142978274D01*
X149329969Y-142978274D02*
X149368064Y-142997321D01*
X149368064Y-142997321D02*
X149406160Y-143035416D01*
X149406160Y-143035416D02*
X149425207Y-143092559D01*
X149425207Y-143092559D02*
X149425207Y-143187797D01*
X149063302Y-142806845D02*
X149044255Y-142787797D01*
X149044255Y-142787797D02*
X149025207Y-142749702D01*
X149025207Y-142749702D02*
X149025207Y-142654464D01*
X149025207Y-142654464D02*
X149044255Y-142616369D01*
X149044255Y-142616369D02*
X149063302Y-142597321D01*
X149063302Y-142597321D02*
X149101398Y-142578274D01*
X149101398Y-142578274D02*
X149139493Y-142578274D01*
X149139493Y-142578274D02*
X149196636Y-142597321D01*
X149196636Y-142597321D02*
X149425207Y-142825893D01*
X149425207Y-142825893D02*
X149425207Y-142578274D01*
X156940921Y-143178273D02*
X156940921Y-142987797D01*
X157055207Y-143216368D02*
X156655207Y-143083035D01*
X156655207Y-143083035D02*
X157055207Y-142949702D01*
X156693302Y-142835416D02*
X156674255Y-142816368D01*
X156674255Y-142816368D02*
X156655207Y-142778273D01*
X156655207Y-142778273D02*
X156655207Y-142683035D01*
X156655207Y-142683035D02*
X156674255Y-142644940D01*
X156674255Y-142644940D02*
X156693302Y-142625892D01*
X156693302Y-142625892D02*
X156731398Y-142606845D01*
X156731398Y-142606845D02*
X156769493Y-142606845D01*
X156769493Y-142606845D02*
X156826636Y-142625892D01*
X156826636Y-142625892D02*
X157055207Y-142854464D01*
X157055207Y-142854464D02*
X157055207Y-142606845D01*
X146875207Y-143187797D02*
X146475207Y-143187797D01*
X146475207Y-143187797D02*
X146475207Y-143092559D01*
X146475207Y-143092559D02*
X146494255Y-143035416D01*
X146494255Y-143035416D02*
X146532350Y-142997321D01*
X146532350Y-142997321D02*
X146570445Y-142978274D01*
X146570445Y-142978274D02*
X146646636Y-142959226D01*
X146646636Y-142959226D02*
X146703779Y-142959226D01*
X146703779Y-142959226D02*
X146779969Y-142978274D01*
X146779969Y-142978274D02*
X146818064Y-142997321D01*
X146818064Y-142997321D02*
X146856160Y-143035416D01*
X146856160Y-143035416D02*
X146875207Y-143092559D01*
X146875207Y-143092559D02*
X146875207Y-143187797D01*
X146608540Y-142616369D02*
X146875207Y-142616369D01*
X146456160Y-142711607D02*
X146741874Y-142806845D01*
X146741874Y-142806845D02*
X146741874Y-142559226D01*
X169640921Y-143158749D02*
X169640921Y-142968273D01*
X169755207Y-143196844D02*
X169355207Y-143063511D01*
X169355207Y-143063511D02*
X169755207Y-142930178D01*
X169755207Y-142587321D02*
X169755207Y-142815892D01*
X169755207Y-142701606D02*
X169355207Y-142701606D01*
X169355207Y-142701606D02*
X169412350Y-142739702D01*
X169412350Y-142739702D02*
X169450445Y-142777797D01*
X169450445Y-142777797D02*
X169469493Y-142815892D01*
X169355207Y-142339702D02*
X169355207Y-142301607D01*
X169355207Y-142301607D02*
X169374255Y-142263511D01*
X169374255Y-142263511D02*
X169393302Y-142244464D01*
X169393302Y-142244464D02*
X169431398Y-142225416D01*
X169431398Y-142225416D02*
X169507588Y-142206369D01*
X169507588Y-142206369D02*
X169602826Y-142206369D01*
X169602826Y-142206369D02*
X169679017Y-142225416D01*
X169679017Y-142225416D02*
X169717112Y-142244464D01*
X169717112Y-142244464D02*
X169736160Y-142263511D01*
X169736160Y-142263511D02*
X169755207Y-142301607D01*
X169755207Y-142301607D02*
X169755207Y-142339702D01*
X169755207Y-142339702D02*
X169736160Y-142377797D01*
X169736160Y-142377797D02*
X169717112Y-142396845D01*
X169717112Y-142396845D02*
X169679017Y-142415892D01*
X169679017Y-142415892D02*
X169602826Y-142434940D01*
X169602826Y-142434940D02*
X169507588Y-142434940D01*
X169507588Y-142434940D02*
X169431398Y-142415892D01*
X169431398Y-142415892D02*
X169393302Y-142396845D01*
X169393302Y-142396845D02*
X169374255Y-142377797D01*
X169374255Y-142377797D02*
X169355207Y-142339702D01*
X187575207Y-143000178D02*
X187384731Y-143133511D01*
X187575207Y-143228749D02*
X187175207Y-143228749D01*
X187175207Y-143228749D02*
X187175207Y-143076368D01*
X187175207Y-143076368D02*
X187194255Y-143038273D01*
X187194255Y-143038273D02*
X187213302Y-143019226D01*
X187213302Y-143019226D02*
X187251398Y-143000178D01*
X187251398Y-143000178D02*
X187308540Y-143000178D01*
X187308540Y-143000178D02*
X187346636Y-143019226D01*
X187346636Y-143019226D02*
X187365683Y-143038273D01*
X187365683Y-143038273D02*
X187384731Y-143076368D01*
X187384731Y-143076368D02*
X187384731Y-143228749D01*
X187365683Y-142695416D02*
X187365683Y-142828749D01*
X187575207Y-142828749D02*
X187175207Y-142828749D01*
X187175207Y-142828749D02*
X187175207Y-142638273D01*
X187556160Y-142504940D02*
X187575207Y-142447797D01*
X187575207Y-142447797D02*
X187575207Y-142352559D01*
X187575207Y-142352559D02*
X187556160Y-142314464D01*
X187556160Y-142314464D02*
X187537112Y-142295416D01*
X187537112Y-142295416D02*
X187499017Y-142276369D01*
X187499017Y-142276369D02*
X187460921Y-142276369D01*
X187460921Y-142276369D02*
X187422826Y-142295416D01*
X187422826Y-142295416D02*
X187403779Y-142314464D01*
X187403779Y-142314464D02*
X187384731Y-142352559D01*
X187384731Y-142352559D02*
X187365683Y-142428750D01*
X187365683Y-142428750D02*
X187346636Y-142466845D01*
X187346636Y-142466845D02*
X187327588Y-142485892D01*
X187327588Y-142485892D02*
X187289493Y-142504940D01*
X187289493Y-142504940D02*
X187251398Y-142504940D01*
X187251398Y-142504940D02*
X187213302Y-142485892D01*
X187213302Y-142485892D02*
X187194255Y-142466845D01*
X187194255Y-142466845D02*
X187175207Y-142428750D01*
X187175207Y-142428750D02*
X187175207Y-142333511D01*
X187175207Y-142333511D02*
X187194255Y-142276369D01*
X187575207Y-142104940D02*
X187175207Y-142104940D01*
X187365683Y-142104940D02*
X187365683Y-141876369D01*
X187575207Y-141876369D02*
X187175207Y-141876369D01*
X186996160Y-143283988D02*
X186996160Y-141821131D01*
X185015207Y-143224464D02*
X184615207Y-143224464D01*
X185015207Y-143033988D02*
X184615207Y-143033988D01*
X184615207Y-143033988D02*
X185015207Y-142805417D01*
X185015207Y-142805417D02*
X184615207Y-142805417D01*
X184615207Y-142672083D02*
X184615207Y-142443512D01*
X185015207Y-142557798D02*
X184615207Y-142557798D01*
X184436160Y-143279703D02*
X184436160Y-142445417D01*
X159500921Y-143178273D02*
X159500921Y-142987797D01*
X159615207Y-143216368D02*
X159215207Y-143083035D01*
X159215207Y-143083035D02*
X159615207Y-142949702D01*
X159215207Y-142740178D02*
X159215207Y-142702083D01*
X159215207Y-142702083D02*
X159234255Y-142663987D01*
X159234255Y-142663987D02*
X159253302Y-142644940D01*
X159253302Y-142644940D02*
X159291398Y-142625892D01*
X159291398Y-142625892D02*
X159367588Y-142606845D01*
X159367588Y-142606845D02*
X159462826Y-142606845D01*
X159462826Y-142606845D02*
X159539017Y-142625892D01*
X159539017Y-142625892D02*
X159577112Y-142644940D01*
X159577112Y-142644940D02*
X159596160Y-142663987D01*
X159596160Y-142663987D02*
X159615207Y-142702083D01*
X159615207Y-142702083D02*
X159615207Y-142740178D01*
X159615207Y-142740178D02*
X159596160Y-142778273D01*
X159596160Y-142778273D02*
X159577112Y-142797321D01*
X159577112Y-142797321D02*
X159539017Y-142816368D01*
X159539017Y-142816368D02*
X159462826Y-142835416D01*
X159462826Y-142835416D02*
X159367588Y-142835416D01*
X159367588Y-142835416D02*
X159291398Y-142816368D01*
X159291398Y-142816368D02*
X159253302Y-142797321D01*
X159253302Y-142797321D02*
X159234255Y-142778273D01*
X159234255Y-142778273D02*
X159215207Y-142740178D01*
X151975207Y-143187797D02*
X151575207Y-143187797D01*
X151575207Y-143187797D02*
X151575207Y-143092559D01*
X151575207Y-143092559D02*
X151594255Y-143035416D01*
X151594255Y-143035416D02*
X151632350Y-142997321D01*
X151632350Y-142997321D02*
X151670445Y-142978274D01*
X151670445Y-142978274D02*
X151746636Y-142959226D01*
X151746636Y-142959226D02*
X151803779Y-142959226D01*
X151803779Y-142959226D02*
X151879969Y-142978274D01*
X151879969Y-142978274D02*
X151918064Y-142997321D01*
X151918064Y-142997321D02*
X151956160Y-143035416D01*
X151956160Y-143035416D02*
X151975207Y-143092559D01*
X151975207Y-143092559D02*
X151975207Y-143187797D01*
X151575207Y-142711607D02*
X151575207Y-142673512D01*
X151575207Y-142673512D02*
X151594255Y-142635416D01*
X151594255Y-142635416D02*
X151613302Y-142616369D01*
X151613302Y-142616369D02*
X151651398Y-142597321D01*
X151651398Y-142597321D02*
X151727588Y-142578274D01*
X151727588Y-142578274D02*
X151822826Y-142578274D01*
X151822826Y-142578274D02*
X151899017Y-142597321D01*
X151899017Y-142597321D02*
X151937112Y-142616369D01*
X151937112Y-142616369D02*
X151956160Y-142635416D01*
X151956160Y-142635416D02*
X151975207Y-142673512D01*
X151975207Y-142673512D02*
X151975207Y-142711607D01*
X151975207Y-142711607D02*
X151956160Y-142749702D01*
X151956160Y-142749702D02*
X151937112Y-142768750D01*
X151937112Y-142768750D02*
X151899017Y-142787797D01*
X151899017Y-142787797D02*
X151822826Y-142806845D01*
X151822826Y-142806845D02*
X151727588Y-142806845D01*
X151727588Y-142806845D02*
X151651398Y-142787797D01*
X151651398Y-142787797D02*
X151613302Y-142768750D01*
X151613302Y-142768750D02*
X151594255Y-142749702D01*
X151594255Y-142749702D02*
X151575207Y-142711607D01*
D10*
%TO.C,C8*%
X158356775Y-94649083D02*
X158404395Y-94696702D01*
X158404395Y-94696702D02*
X158452014Y-94839559D01*
X158452014Y-94839559D02*
X158452014Y-94934797D01*
X158452014Y-94934797D02*
X158404395Y-95077654D01*
X158404395Y-95077654D02*
X158309156Y-95172892D01*
X158309156Y-95172892D02*
X158213918Y-95220511D01*
X158213918Y-95220511D02*
X158023442Y-95268130D01*
X158023442Y-95268130D02*
X157880585Y-95268130D01*
X157880585Y-95268130D02*
X157690109Y-95220511D01*
X157690109Y-95220511D02*
X157594871Y-95172892D01*
X157594871Y-95172892D02*
X157499633Y-95077654D01*
X157499633Y-95077654D02*
X157452014Y-94934797D01*
X157452014Y-94934797D02*
X157452014Y-94839559D01*
X157452014Y-94839559D02*
X157499633Y-94696702D01*
X157499633Y-94696702D02*
X157547252Y-94649083D01*
X157880585Y-94077654D02*
X157832966Y-94172892D01*
X157832966Y-94172892D02*
X157785347Y-94220511D01*
X157785347Y-94220511D02*
X157690109Y-94268130D01*
X157690109Y-94268130D02*
X157642490Y-94268130D01*
X157642490Y-94268130D02*
X157547252Y-94220511D01*
X157547252Y-94220511D02*
X157499633Y-94172892D01*
X157499633Y-94172892D02*
X157452014Y-94077654D01*
X157452014Y-94077654D02*
X157452014Y-93887178D01*
X157452014Y-93887178D02*
X157499633Y-93791940D01*
X157499633Y-93791940D02*
X157547252Y-93744321D01*
X157547252Y-93744321D02*
X157642490Y-93696702D01*
X157642490Y-93696702D02*
X157690109Y-93696702D01*
X157690109Y-93696702D02*
X157785347Y-93744321D01*
X157785347Y-93744321D02*
X157832966Y-93791940D01*
X157832966Y-93791940D02*
X157880585Y-93887178D01*
X157880585Y-93887178D02*
X157880585Y-94077654D01*
X157880585Y-94077654D02*
X157928204Y-94172892D01*
X157928204Y-94172892D02*
X157975823Y-94220511D01*
X157975823Y-94220511D02*
X158071061Y-94268130D01*
X158071061Y-94268130D02*
X158261537Y-94268130D01*
X158261537Y-94268130D02*
X158356775Y-94220511D01*
X158356775Y-94220511D02*
X158404395Y-94172892D01*
X158404395Y-94172892D02*
X158452014Y-94077654D01*
X158452014Y-94077654D02*
X158452014Y-93887178D01*
X158452014Y-93887178D02*
X158404395Y-93791940D01*
X158404395Y-93791940D02*
X158356775Y-93744321D01*
X158356775Y-93744321D02*
X158261537Y-93696702D01*
X158261537Y-93696702D02*
X158071061Y-93696702D01*
X158071061Y-93696702D02*
X157975823Y-93744321D01*
X157975823Y-93744321D02*
X157928204Y-93791940D01*
X157928204Y-93791940D02*
X157880585Y-93887178D01*
X154950619Y-96130856D02*
X154950619Y-96035618D01*
X154950619Y-96035618D02*
X154998238Y-95940380D01*
X154998238Y-95940380D02*
X155045857Y-95892761D01*
X155045857Y-95892761D02*
X155141095Y-95845142D01*
X155141095Y-95845142D02*
X155331571Y-95797523D01*
X155331571Y-95797523D02*
X155569666Y-95797523D01*
X155569666Y-95797523D02*
X155760142Y-95845142D01*
X155760142Y-95845142D02*
X155855380Y-95892761D01*
X155855380Y-95892761D02*
X155903000Y-95940380D01*
X155903000Y-95940380D02*
X155950619Y-96035618D01*
X155950619Y-96035618D02*
X155950619Y-96130856D01*
X155950619Y-96130856D02*
X155903000Y-96226094D01*
X155903000Y-96226094D02*
X155855380Y-96273713D01*
X155855380Y-96273713D02*
X155760142Y-96321332D01*
X155760142Y-96321332D02*
X155569666Y-96368951D01*
X155569666Y-96368951D02*
X155331571Y-96368951D01*
X155331571Y-96368951D02*
X155141095Y-96321332D01*
X155141095Y-96321332D02*
X155045857Y-96273713D01*
X155045857Y-96273713D02*
X154998238Y-96226094D01*
X154998238Y-96226094D02*
X154950619Y-96130856D01*
X155855380Y-95368951D02*
X155903000Y-95321332D01*
X155903000Y-95321332D02*
X155950619Y-95368951D01*
X155950619Y-95368951D02*
X155903000Y-95416570D01*
X155903000Y-95416570D02*
X155855380Y-95368951D01*
X155855380Y-95368951D02*
X155950619Y-95368951D01*
X155950619Y-94368952D02*
X155950619Y-94940380D01*
X155950619Y-94654666D02*
X154950619Y-94654666D01*
X154950619Y-94654666D02*
X155093476Y-94749904D01*
X155093476Y-94749904D02*
X155188714Y-94845142D01*
X155188714Y-94845142D02*
X155236333Y-94940380D01*
X155283952Y-93511809D02*
X155950619Y-93511809D01*
X155283952Y-93940380D02*
X155807761Y-93940380D01*
X155807761Y-93940380D02*
X155903000Y-93892761D01*
X155903000Y-93892761D02*
X155950619Y-93797523D01*
X155950619Y-93797523D02*
X155950619Y-93654666D01*
X155950619Y-93654666D02*
X155903000Y-93559428D01*
X155903000Y-93559428D02*
X155855380Y-93511809D01*
X155426809Y-92702285D02*
X155426809Y-93035618D01*
X155950619Y-93035618D02*
X154950619Y-93035618D01*
X154950619Y-93035618D02*
X154950619Y-92559428D01*
%TO.C,C5*%
X119553380Y-136519779D02*
X119601000Y-136567398D01*
X119601000Y-136567398D02*
X119648619Y-136710255D01*
X119648619Y-136710255D02*
X119648619Y-136805493D01*
X119648619Y-136805493D02*
X119601000Y-136948350D01*
X119601000Y-136948350D02*
X119505761Y-137043588D01*
X119505761Y-137043588D02*
X119410523Y-137091207D01*
X119410523Y-137091207D02*
X119220047Y-137138826D01*
X119220047Y-137138826D02*
X119077190Y-137138826D01*
X119077190Y-137138826D02*
X118886714Y-137091207D01*
X118886714Y-137091207D02*
X118791476Y-137043588D01*
X118791476Y-137043588D02*
X118696238Y-136948350D01*
X118696238Y-136948350D02*
X118648619Y-136805493D01*
X118648619Y-136805493D02*
X118648619Y-136710255D01*
X118648619Y-136710255D02*
X118696238Y-136567398D01*
X118696238Y-136567398D02*
X118743857Y-136519779D01*
X118648619Y-135615017D02*
X118648619Y-136091207D01*
X118648619Y-136091207D02*
X119124809Y-136138826D01*
X119124809Y-136138826D02*
X119077190Y-136091207D01*
X119077190Y-136091207D02*
X119029571Y-135995969D01*
X119029571Y-135995969D02*
X119029571Y-135757874D01*
X119029571Y-135757874D02*
X119077190Y-135662636D01*
X119077190Y-135662636D02*
X119124809Y-135615017D01*
X119124809Y-135615017D02*
X119220047Y-135567398D01*
X119220047Y-135567398D02*
X119458142Y-135567398D01*
X119458142Y-135567398D02*
X119553380Y-135615017D01*
X119553380Y-135615017D02*
X119601000Y-135662636D01*
X119601000Y-135662636D02*
X119648619Y-135757874D01*
X119648619Y-135757874D02*
X119648619Y-135995969D01*
X119648619Y-135995969D02*
X119601000Y-136091207D01*
X119601000Y-136091207D02*
X119553380Y-136138826D01*
X127148619Y-137424541D02*
X127148619Y-137995969D01*
X127148619Y-137710255D02*
X126148619Y-137710255D01*
X126148619Y-137710255D02*
X126291476Y-137805493D01*
X126291476Y-137805493D02*
X126386714Y-137900731D01*
X126386714Y-137900731D02*
X126434333Y-137995969D01*
X126148619Y-136805493D02*
X126148619Y-136710255D01*
X126148619Y-136710255D02*
X126196238Y-136615017D01*
X126196238Y-136615017D02*
X126243857Y-136567398D01*
X126243857Y-136567398D02*
X126339095Y-136519779D01*
X126339095Y-136519779D02*
X126529571Y-136472160D01*
X126529571Y-136472160D02*
X126767666Y-136472160D01*
X126767666Y-136472160D02*
X126958142Y-136519779D01*
X126958142Y-136519779D02*
X127053380Y-136567398D01*
X127053380Y-136567398D02*
X127101000Y-136615017D01*
X127101000Y-136615017D02*
X127148619Y-136710255D01*
X127148619Y-136710255D02*
X127148619Y-136805493D01*
X127148619Y-136805493D02*
X127101000Y-136900731D01*
X127101000Y-136900731D02*
X127053380Y-136948350D01*
X127053380Y-136948350D02*
X126958142Y-136995969D01*
X126958142Y-136995969D02*
X126767666Y-137043588D01*
X126767666Y-137043588D02*
X126529571Y-137043588D01*
X126529571Y-137043588D02*
X126339095Y-136995969D01*
X126339095Y-136995969D02*
X126243857Y-136948350D01*
X126243857Y-136948350D02*
X126196238Y-136900731D01*
X126196238Y-136900731D02*
X126148619Y-136805493D01*
X126481952Y-135615017D02*
X127148619Y-135615017D01*
X126481952Y-136043588D02*
X127005761Y-136043588D01*
X127005761Y-136043588D02*
X127101000Y-135995969D01*
X127101000Y-135995969D02*
X127148619Y-135900731D01*
X127148619Y-135900731D02*
X127148619Y-135757874D01*
X127148619Y-135757874D02*
X127101000Y-135662636D01*
X127101000Y-135662636D02*
X127053380Y-135615017D01*
X126624809Y-134805493D02*
X126624809Y-135138826D01*
X127148619Y-135138826D02*
X126148619Y-135138826D01*
X126148619Y-135138826D02*
X126148619Y-134662636D01*
%TO.C,R2*%
X187787619Y-95924666D02*
X187311428Y-96257999D01*
X187787619Y-96496094D02*
X186787619Y-96496094D01*
X186787619Y-96496094D02*
X186787619Y-96115142D01*
X186787619Y-96115142D02*
X186835238Y-96019904D01*
X186835238Y-96019904D02*
X186882857Y-95972285D01*
X186882857Y-95972285D02*
X186978095Y-95924666D01*
X186978095Y-95924666D02*
X187120952Y-95924666D01*
X187120952Y-95924666D02*
X187216190Y-95972285D01*
X187216190Y-95972285D02*
X187263809Y-96019904D01*
X187263809Y-96019904D02*
X187311428Y-96115142D01*
X187311428Y-96115142D02*
X187311428Y-96496094D01*
X186882857Y-95543713D02*
X186835238Y-95496094D01*
X186835238Y-95496094D02*
X186787619Y-95400856D01*
X186787619Y-95400856D02*
X186787619Y-95162761D01*
X186787619Y-95162761D02*
X186835238Y-95067523D01*
X186835238Y-95067523D02*
X186882857Y-95019904D01*
X186882857Y-95019904D02*
X186978095Y-94972285D01*
X186978095Y-94972285D02*
X187073333Y-94972285D01*
X187073333Y-94972285D02*
X187216190Y-95019904D01*
X187216190Y-95019904D02*
X187787619Y-95591332D01*
X187787619Y-95591332D02*
X187787619Y-94972285D01*
%TO.C,C7*%
X133466171Y-94425786D02*
X133513791Y-94473405D01*
X133513791Y-94473405D02*
X133561410Y-94616262D01*
X133561410Y-94616262D02*
X133561410Y-94711500D01*
X133561410Y-94711500D02*
X133513791Y-94854357D01*
X133513791Y-94854357D02*
X133418552Y-94949595D01*
X133418552Y-94949595D02*
X133323314Y-94997214D01*
X133323314Y-94997214D02*
X133132838Y-95044833D01*
X133132838Y-95044833D02*
X132989981Y-95044833D01*
X132989981Y-95044833D02*
X132799505Y-94997214D01*
X132799505Y-94997214D02*
X132704267Y-94949595D01*
X132704267Y-94949595D02*
X132609029Y-94854357D01*
X132609029Y-94854357D02*
X132561410Y-94711500D01*
X132561410Y-94711500D02*
X132561410Y-94616262D01*
X132561410Y-94616262D02*
X132609029Y-94473405D01*
X132609029Y-94473405D02*
X132656648Y-94425786D01*
X132561410Y-94092452D02*
X132561410Y-93425786D01*
X132561410Y-93425786D02*
X133561410Y-93854357D01*
X130053619Y-95886856D02*
X130053619Y-95791618D01*
X130053619Y-95791618D02*
X130101238Y-95696380D01*
X130101238Y-95696380D02*
X130148857Y-95648761D01*
X130148857Y-95648761D02*
X130244095Y-95601142D01*
X130244095Y-95601142D02*
X130434571Y-95553523D01*
X130434571Y-95553523D02*
X130672666Y-95553523D01*
X130672666Y-95553523D02*
X130863142Y-95601142D01*
X130863142Y-95601142D02*
X130958380Y-95648761D01*
X130958380Y-95648761D02*
X131006000Y-95696380D01*
X131006000Y-95696380D02*
X131053619Y-95791618D01*
X131053619Y-95791618D02*
X131053619Y-95886856D01*
X131053619Y-95886856D02*
X131006000Y-95982094D01*
X131006000Y-95982094D02*
X130958380Y-96029713D01*
X130958380Y-96029713D02*
X130863142Y-96077332D01*
X130863142Y-96077332D02*
X130672666Y-96124951D01*
X130672666Y-96124951D02*
X130434571Y-96124951D01*
X130434571Y-96124951D02*
X130244095Y-96077332D01*
X130244095Y-96077332D02*
X130148857Y-96029713D01*
X130148857Y-96029713D02*
X130101238Y-95982094D01*
X130101238Y-95982094D02*
X130053619Y-95886856D01*
X130958380Y-95124951D02*
X131006000Y-95077332D01*
X131006000Y-95077332D02*
X131053619Y-95124951D01*
X131053619Y-95124951D02*
X131006000Y-95172570D01*
X131006000Y-95172570D02*
X130958380Y-95124951D01*
X130958380Y-95124951D02*
X131053619Y-95124951D01*
X131053619Y-94124952D02*
X131053619Y-94696380D01*
X131053619Y-94410666D02*
X130053619Y-94410666D01*
X130053619Y-94410666D02*
X130196476Y-94505904D01*
X130196476Y-94505904D02*
X130291714Y-94601142D01*
X130291714Y-94601142D02*
X130339333Y-94696380D01*
X130386952Y-93267809D02*
X131053619Y-93267809D01*
X130386952Y-93696380D02*
X130910761Y-93696380D01*
X130910761Y-93696380D02*
X131006000Y-93648761D01*
X131006000Y-93648761D02*
X131053619Y-93553523D01*
X131053619Y-93553523D02*
X131053619Y-93410666D01*
X131053619Y-93410666D02*
X131006000Y-93315428D01*
X131006000Y-93315428D02*
X130958380Y-93267809D01*
X130529809Y-92458285D02*
X130529809Y-92791618D01*
X131053619Y-92791618D02*
X130053619Y-92791618D01*
X130053619Y-92791618D02*
X130053619Y-92315428D01*
%TO.C,C2*%
X187080433Y-108063380D02*
X187032814Y-108111000D01*
X187032814Y-108111000D02*
X186889957Y-108158619D01*
X186889957Y-108158619D02*
X186794719Y-108158619D01*
X186794719Y-108158619D02*
X186651862Y-108111000D01*
X186651862Y-108111000D02*
X186556624Y-108015761D01*
X186556624Y-108015761D02*
X186509005Y-107920523D01*
X186509005Y-107920523D02*
X186461386Y-107730047D01*
X186461386Y-107730047D02*
X186461386Y-107587190D01*
X186461386Y-107587190D02*
X186509005Y-107396714D01*
X186509005Y-107396714D02*
X186556624Y-107301476D01*
X186556624Y-107301476D02*
X186651862Y-107206238D01*
X186651862Y-107206238D02*
X186794719Y-107158619D01*
X186794719Y-107158619D02*
X186889957Y-107158619D01*
X186889957Y-107158619D02*
X187032814Y-107206238D01*
X187032814Y-107206238D02*
X187080433Y-107253857D01*
X187461386Y-107253857D02*
X187509005Y-107206238D01*
X187509005Y-107206238D02*
X187604243Y-107158619D01*
X187604243Y-107158619D02*
X187842338Y-107158619D01*
X187842338Y-107158619D02*
X187937576Y-107206238D01*
X187937576Y-107206238D02*
X187985195Y-107253857D01*
X187985195Y-107253857D02*
X188032814Y-107349095D01*
X188032814Y-107349095D02*
X188032814Y-107444333D01*
X188032814Y-107444333D02*
X187985195Y-107587190D01*
X187985195Y-107587190D02*
X187413767Y-108158619D01*
X187413767Y-108158619D02*
X188032814Y-108158619D01*
X191651143Y-107158619D02*
X191746381Y-107158619D01*
X191746381Y-107158619D02*
X191841619Y-107206238D01*
X191841619Y-107206238D02*
X191889238Y-107253857D01*
X191889238Y-107253857D02*
X191936857Y-107349095D01*
X191936857Y-107349095D02*
X191984476Y-107539571D01*
X191984476Y-107539571D02*
X191984476Y-107777666D01*
X191984476Y-107777666D02*
X191936857Y-107968142D01*
X191936857Y-107968142D02*
X191889238Y-108063380D01*
X191889238Y-108063380D02*
X191841619Y-108111000D01*
X191841619Y-108111000D02*
X191746381Y-108158619D01*
X191746381Y-108158619D02*
X191651143Y-108158619D01*
X191651143Y-108158619D02*
X191555905Y-108111000D01*
X191555905Y-108111000D02*
X191508286Y-108063380D01*
X191508286Y-108063380D02*
X191460667Y-107968142D01*
X191460667Y-107968142D02*
X191413048Y-107777666D01*
X191413048Y-107777666D02*
X191413048Y-107539571D01*
X191413048Y-107539571D02*
X191460667Y-107349095D01*
X191460667Y-107349095D02*
X191508286Y-107253857D01*
X191508286Y-107253857D02*
X191555905Y-107206238D01*
X191555905Y-107206238D02*
X191651143Y-107158619D01*
X192413048Y-108063380D02*
X192460667Y-108111000D01*
X192460667Y-108111000D02*
X192413048Y-108158619D01*
X192413048Y-108158619D02*
X192365429Y-108111000D01*
X192365429Y-108111000D02*
X192413048Y-108063380D01*
X192413048Y-108063380D02*
X192413048Y-108158619D01*
X193413047Y-108158619D02*
X192841619Y-108158619D01*
X193127333Y-108158619D02*
X193127333Y-107158619D01*
X193127333Y-107158619D02*
X193032095Y-107301476D01*
X193032095Y-107301476D02*
X192936857Y-107396714D01*
X192936857Y-107396714D02*
X192841619Y-107444333D01*
X194270190Y-107491952D02*
X194270190Y-108158619D01*
X193841619Y-107491952D02*
X193841619Y-108015761D01*
X193841619Y-108015761D02*
X193889238Y-108111000D01*
X193889238Y-108111000D02*
X193984476Y-108158619D01*
X193984476Y-108158619D02*
X194127333Y-108158619D01*
X194127333Y-108158619D02*
X194222571Y-108111000D01*
X194222571Y-108111000D02*
X194270190Y-108063380D01*
X195079714Y-107634809D02*
X194746381Y-107634809D01*
X194746381Y-108158619D02*
X194746381Y-107158619D01*
X194746381Y-107158619D02*
X195222571Y-107158619D01*
%TO.C,C3*%
X144653333Y-104507380D02*
X144605714Y-104555000D01*
X144605714Y-104555000D02*
X144462857Y-104602619D01*
X144462857Y-104602619D02*
X144367619Y-104602619D01*
X144367619Y-104602619D02*
X144224762Y-104555000D01*
X144224762Y-104555000D02*
X144129524Y-104459761D01*
X144129524Y-104459761D02*
X144081905Y-104364523D01*
X144081905Y-104364523D02*
X144034286Y-104174047D01*
X144034286Y-104174047D02*
X144034286Y-104031190D01*
X144034286Y-104031190D02*
X144081905Y-103840714D01*
X144081905Y-103840714D02*
X144129524Y-103745476D01*
X144129524Y-103745476D02*
X144224762Y-103650238D01*
X144224762Y-103650238D02*
X144367619Y-103602619D01*
X144367619Y-103602619D02*
X144462857Y-103602619D01*
X144462857Y-103602619D02*
X144605714Y-103650238D01*
X144605714Y-103650238D02*
X144653333Y-103697857D01*
X144986667Y-103602619D02*
X145605714Y-103602619D01*
X145605714Y-103602619D02*
X145272381Y-103983571D01*
X145272381Y-103983571D02*
X145415238Y-103983571D01*
X145415238Y-103983571D02*
X145510476Y-104031190D01*
X145510476Y-104031190D02*
X145558095Y-104078809D01*
X145558095Y-104078809D02*
X145605714Y-104174047D01*
X145605714Y-104174047D02*
X145605714Y-104412142D01*
X145605714Y-104412142D02*
X145558095Y-104507380D01*
X145558095Y-104507380D02*
X145510476Y-104555000D01*
X145510476Y-104555000D02*
X145415238Y-104602619D01*
X145415238Y-104602619D02*
X145129524Y-104602619D01*
X145129524Y-104602619D02*
X145034286Y-104555000D01*
X145034286Y-104555000D02*
X144986667Y-104507380D01*
X143177143Y-101316619D02*
X143272381Y-101316619D01*
X143272381Y-101316619D02*
X143367619Y-101364238D01*
X143367619Y-101364238D02*
X143415238Y-101411857D01*
X143415238Y-101411857D02*
X143462857Y-101507095D01*
X143462857Y-101507095D02*
X143510476Y-101697571D01*
X143510476Y-101697571D02*
X143510476Y-101935666D01*
X143510476Y-101935666D02*
X143462857Y-102126142D01*
X143462857Y-102126142D02*
X143415238Y-102221380D01*
X143415238Y-102221380D02*
X143367619Y-102269000D01*
X143367619Y-102269000D02*
X143272381Y-102316619D01*
X143272381Y-102316619D02*
X143177143Y-102316619D01*
X143177143Y-102316619D02*
X143081905Y-102269000D01*
X143081905Y-102269000D02*
X143034286Y-102221380D01*
X143034286Y-102221380D02*
X142986667Y-102126142D01*
X142986667Y-102126142D02*
X142939048Y-101935666D01*
X142939048Y-101935666D02*
X142939048Y-101697571D01*
X142939048Y-101697571D02*
X142986667Y-101507095D01*
X142986667Y-101507095D02*
X143034286Y-101411857D01*
X143034286Y-101411857D02*
X143081905Y-101364238D01*
X143081905Y-101364238D02*
X143177143Y-101316619D01*
X143939048Y-102221380D02*
X143986667Y-102269000D01*
X143986667Y-102269000D02*
X143939048Y-102316619D01*
X143939048Y-102316619D02*
X143891429Y-102269000D01*
X143891429Y-102269000D02*
X143939048Y-102221380D01*
X143939048Y-102221380D02*
X143939048Y-102316619D01*
X144939047Y-102316619D02*
X144367619Y-102316619D01*
X144653333Y-102316619D02*
X144653333Y-101316619D01*
X144653333Y-101316619D02*
X144558095Y-101459476D01*
X144558095Y-101459476D02*
X144462857Y-101554714D01*
X144462857Y-101554714D02*
X144367619Y-101602333D01*
X145796190Y-101649952D02*
X145796190Y-102316619D01*
X145367619Y-101649952D02*
X145367619Y-102173761D01*
X145367619Y-102173761D02*
X145415238Y-102269000D01*
X145415238Y-102269000D02*
X145510476Y-102316619D01*
X145510476Y-102316619D02*
X145653333Y-102316619D01*
X145653333Y-102316619D02*
X145748571Y-102269000D01*
X145748571Y-102269000D02*
X145796190Y-102221380D01*
X146605714Y-101792809D02*
X146272381Y-101792809D01*
X146272381Y-102316619D02*
X146272381Y-101316619D01*
X146272381Y-101316619D02*
X146748571Y-101316619D01*
%TO.C,R1*%
X184612619Y-95924666D02*
X184136428Y-96257999D01*
X184612619Y-96496094D02*
X183612619Y-96496094D01*
X183612619Y-96496094D02*
X183612619Y-96115142D01*
X183612619Y-96115142D02*
X183660238Y-96019904D01*
X183660238Y-96019904D02*
X183707857Y-95972285D01*
X183707857Y-95972285D02*
X183803095Y-95924666D01*
X183803095Y-95924666D02*
X183945952Y-95924666D01*
X183945952Y-95924666D02*
X184041190Y-95972285D01*
X184041190Y-95972285D02*
X184088809Y-96019904D01*
X184088809Y-96019904D02*
X184136428Y-96115142D01*
X184136428Y-96115142D02*
X184136428Y-96496094D01*
X184612619Y-94972285D02*
X184612619Y-95543713D01*
X184612619Y-95257999D02*
X183612619Y-95257999D01*
X183612619Y-95257999D02*
X183755476Y-95353237D01*
X183755476Y-95353237D02*
X183850714Y-95448475D01*
X183850714Y-95448475D02*
X183898333Y-95543713D01*
X181575952Y-96519904D02*
X182242619Y-96519904D01*
X181195000Y-96757999D02*
X181909285Y-96996094D01*
X181909285Y-96996094D02*
X181909285Y-96377047D01*
X181242619Y-96091332D02*
X181242619Y-95424666D01*
X181242619Y-95424666D02*
X182242619Y-95853237D01*
X181242619Y-94853237D02*
X181242619Y-94757999D01*
X181242619Y-94757999D02*
X181290238Y-94662761D01*
X181290238Y-94662761D02*
X181337857Y-94615142D01*
X181337857Y-94615142D02*
X181433095Y-94567523D01*
X181433095Y-94567523D02*
X181623571Y-94519904D01*
X181623571Y-94519904D02*
X181861666Y-94519904D01*
X181861666Y-94519904D02*
X182052142Y-94567523D01*
X182052142Y-94567523D02*
X182147380Y-94615142D01*
X182147380Y-94615142D02*
X182195000Y-94662761D01*
X182195000Y-94662761D02*
X182242619Y-94757999D01*
X182242619Y-94757999D02*
X182242619Y-94853237D01*
X182242619Y-94853237D02*
X182195000Y-94948475D01*
X182195000Y-94948475D02*
X182147380Y-94996094D01*
X182147380Y-94996094D02*
X182052142Y-95043713D01*
X182052142Y-95043713D02*
X181861666Y-95091332D01*
X181861666Y-95091332D02*
X181623571Y-95091332D01*
X181623571Y-95091332D02*
X181433095Y-95043713D01*
X181433095Y-95043713D02*
X181337857Y-94996094D01*
X181337857Y-94996094D02*
X181290238Y-94948475D01*
X181290238Y-94948475D02*
X181242619Y-94853237D01*
%TO.C,U7*%
X196088095Y-108892619D02*
X196088095Y-109702142D01*
X196088095Y-109702142D02*
X196135714Y-109797380D01*
X196135714Y-109797380D02*
X196183333Y-109845000D01*
X196183333Y-109845000D02*
X196278571Y-109892619D01*
X196278571Y-109892619D02*
X196469047Y-109892619D01*
X196469047Y-109892619D02*
X196564285Y-109845000D01*
X196564285Y-109845000D02*
X196611904Y-109797380D01*
X196611904Y-109797380D02*
X196659523Y-109702142D01*
X196659523Y-109702142D02*
X196659523Y-108892619D01*
X197040476Y-108892619D02*
X197707142Y-108892619D01*
X197707142Y-108892619D02*
X197278571Y-109892619D01*
X197540952Y-131332619D02*
X198207618Y-131332619D01*
X198207618Y-131332619D02*
X197779047Y-132332619D01*
X199017142Y-131665952D02*
X199017142Y-132332619D01*
X198779047Y-131285000D02*
X198540952Y-131999285D01*
X198540952Y-131999285D02*
X199159999Y-131999285D01*
X200017142Y-132332619D02*
X199540952Y-132332619D01*
X199540952Y-132332619D02*
X199540952Y-131332619D01*
X200302857Y-132285000D02*
X200445714Y-132332619D01*
X200445714Y-132332619D02*
X200683809Y-132332619D01*
X200683809Y-132332619D02*
X200779047Y-132285000D01*
X200779047Y-132285000D02*
X200826666Y-132237380D01*
X200826666Y-132237380D02*
X200874285Y-132142142D01*
X200874285Y-132142142D02*
X200874285Y-132046904D01*
X200874285Y-132046904D02*
X200826666Y-131951666D01*
X200826666Y-131951666D02*
X200779047Y-131904047D01*
X200779047Y-131904047D02*
X200683809Y-131856428D01*
X200683809Y-131856428D02*
X200493333Y-131808809D01*
X200493333Y-131808809D02*
X200398095Y-131761190D01*
X200398095Y-131761190D02*
X200350476Y-131713571D01*
X200350476Y-131713571D02*
X200302857Y-131618333D01*
X200302857Y-131618333D02*
X200302857Y-131523095D01*
X200302857Y-131523095D02*
X200350476Y-131427857D01*
X200350476Y-131427857D02*
X200398095Y-131380238D01*
X200398095Y-131380238D02*
X200493333Y-131332619D01*
X200493333Y-131332619D02*
X200731428Y-131332619D01*
X200731428Y-131332619D02*
X200874285Y-131380238D01*
X201826666Y-132332619D02*
X201255238Y-132332619D01*
X201540952Y-132332619D02*
X201540952Y-131332619D01*
X201540952Y-131332619D02*
X201445714Y-131475476D01*
X201445714Y-131475476D02*
X201350476Y-131570714D01*
X201350476Y-131570714D02*
X201255238Y-131618333D01*
X202160000Y-131332619D02*
X202779047Y-131332619D01*
X202779047Y-131332619D02*
X202445714Y-131713571D01*
X202445714Y-131713571D02*
X202588571Y-131713571D01*
X202588571Y-131713571D02*
X202683809Y-131761190D01*
X202683809Y-131761190D02*
X202731428Y-131808809D01*
X202731428Y-131808809D02*
X202779047Y-131904047D01*
X202779047Y-131904047D02*
X202779047Y-132142142D01*
X202779047Y-132142142D02*
X202731428Y-132237380D01*
X202731428Y-132237380D02*
X202683809Y-132285000D01*
X202683809Y-132285000D02*
X202588571Y-132332619D01*
X202588571Y-132332619D02*
X202302857Y-132332619D01*
X202302857Y-132332619D02*
X202207619Y-132285000D01*
X202207619Y-132285000D02*
X202160000Y-132237380D01*
X203255238Y-132332619D02*
X203445714Y-132332619D01*
X203445714Y-132332619D02*
X203540952Y-132285000D01*
X203540952Y-132285000D02*
X203588571Y-132237380D01*
X203588571Y-132237380D02*
X203683809Y-132094523D01*
X203683809Y-132094523D02*
X203731428Y-131904047D01*
X203731428Y-131904047D02*
X203731428Y-131523095D01*
X203731428Y-131523095D02*
X203683809Y-131427857D01*
X203683809Y-131427857D02*
X203636190Y-131380238D01*
X203636190Y-131380238D02*
X203540952Y-131332619D01*
X203540952Y-131332619D02*
X203350476Y-131332619D01*
X203350476Y-131332619D02*
X203255238Y-131380238D01*
X203255238Y-131380238D02*
X203207619Y-131427857D01*
X203207619Y-131427857D02*
X203160000Y-131523095D01*
X203160000Y-131523095D02*
X203160000Y-131761190D01*
X203160000Y-131761190D02*
X203207619Y-131856428D01*
X203207619Y-131856428D02*
X203255238Y-131904047D01*
X203255238Y-131904047D02*
X203350476Y-131951666D01*
X203350476Y-131951666D02*
X203540952Y-131951666D01*
X203540952Y-131951666D02*
X203636190Y-131904047D01*
X203636190Y-131904047D02*
X203683809Y-131856428D01*
X203683809Y-131856428D02*
X203731428Y-131761190D01*
%TO.C,J4*%
X117268666Y-117274619D02*
X117268666Y-117988904D01*
X117268666Y-117988904D02*
X117221047Y-118131761D01*
X117221047Y-118131761D02*
X117125809Y-118227000D01*
X117125809Y-118227000D02*
X116982952Y-118274619D01*
X116982952Y-118274619D02*
X116887714Y-118274619D01*
X118173428Y-117607952D02*
X118173428Y-118274619D01*
X117935333Y-117227000D02*
X117697238Y-117941285D01*
X117697238Y-117941285D02*
X118316285Y-117941285D01*
%TO.C,U4*%
X126873095Y-104237619D02*
X126873095Y-105047142D01*
X126873095Y-105047142D02*
X126920714Y-105142380D01*
X126920714Y-105142380D02*
X126968333Y-105190000D01*
X126968333Y-105190000D02*
X127063571Y-105237619D01*
X127063571Y-105237619D02*
X127254047Y-105237619D01*
X127254047Y-105237619D02*
X127349285Y-105190000D01*
X127349285Y-105190000D02*
X127396904Y-105142380D01*
X127396904Y-105142380D02*
X127444523Y-105047142D01*
X127444523Y-105047142D02*
X127444523Y-104237619D01*
X128349285Y-104570952D02*
X128349285Y-105237619D01*
X128111190Y-104190000D02*
X127873095Y-104904285D01*
X127873095Y-104904285D02*
X128492142Y-104904285D01*
X127944952Y-127014619D02*
X128611618Y-127014619D01*
X128611618Y-127014619D02*
X128183047Y-128014619D01*
X129421142Y-127347952D02*
X129421142Y-128014619D01*
X129183047Y-126967000D02*
X128944952Y-127681285D01*
X128944952Y-127681285D02*
X129563999Y-127681285D01*
X130421142Y-128014619D02*
X129944952Y-128014619D01*
X129944952Y-128014619D02*
X129944952Y-127014619D01*
X130706857Y-127967000D02*
X130849714Y-128014619D01*
X130849714Y-128014619D02*
X131087809Y-128014619D01*
X131087809Y-128014619D02*
X131183047Y-127967000D01*
X131183047Y-127967000D02*
X131230666Y-127919380D01*
X131230666Y-127919380D02*
X131278285Y-127824142D01*
X131278285Y-127824142D02*
X131278285Y-127728904D01*
X131278285Y-127728904D02*
X131230666Y-127633666D01*
X131230666Y-127633666D02*
X131183047Y-127586047D01*
X131183047Y-127586047D02*
X131087809Y-127538428D01*
X131087809Y-127538428D02*
X130897333Y-127490809D01*
X130897333Y-127490809D02*
X130802095Y-127443190D01*
X130802095Y-127443190D02*
X130754476Y-127395571D01*
X130754476Y-127395571D02*
X130706857Y-127300333D01*
X130706857Y-127300333D02*
X130706857Y-127205095D01*
X130706857Y-127205095D02*
X130754476Y-127109857D01*
X130754476Y-127109857D02*
X130802095Y-127062238D01*
X130802095Y-127062238D02*
X130897333Y-127014619D01*
X130897333Y-127014619D02*
X131135428Y-127014619D01*
X131135428Y-127014619D02*
X131278285Y-127062238D01*
X132135428Y-127014619D02*
X131944952Y-127014619D01*
X131944952Y-127014619D02*
X131849714Y-127062238D01*
X131849714Y-127062238D02*
X131802095Y-127109857D01*
X131802095Y-127109857D02*
X131706857Y-127252714D01*
X131706857Y-127252714D02*
X131659238Y-127443190D01*
X131659238Y-127443190D02*
X131659238Y-127824142D01*
X131659238Y-127824142D02*
X131706857Y-127919380D01*
X131706857Y-127919380D02*
X131754476Y-127967000D01*
X131754476Y-127967000D02*
X131849714Y-128014619D01*
X131849714Y-128014619D02*
X132040190Y-128014619D01*
X132040190Y-128014619D02*
X132135428Y-127967000D01*
X132135428Y-127967000D02*
X132183047Y-127919380D01*
X132183047Y-127919380D02*
X132230666Y-127824142D01*
X132230666Y-127824142D02*
X132230666Y-127586047D01*
X132230666Y-127586047D02*
X132183047Y-127490809D01*
X132183047Y-127490809D02*
X132135428Y-127443190D01*
X132135428Y-127443190D02*
X132040190Y-127395571D01*
X132040190Y-127395571D02*
X131849714Y-127395571D01*
X131849714Y-127395571D02*
X131754476Y-127443190D01*
X131754476Y-127443190D02*
X131706857Y-127490809D01*
X131706857Y-127490809D02*
X131659238Y-127586047D01*
X132564000Y-127014619D02*
X133230666Y-127014619D01*
X133230666Y-127014619D02*
X132802095Y-128014619D01*
X133802095Y-127014619D02*
X133897333Y-127014619D01*
X133897333Y-127014619D02*
X133992571Y-127062238D01*
X133992571Y-127062238D02*
X134040190Y-127109857D01*
X134040190Y-127109857D02*
X134087809Y-127205095D01*
X134087809Y-127205095D02*
X134135428Y-127395571D01*
X134135428Y-127395571D02*
X134135428Y-127633666D01*
X134135428Y-127633666D02*
X134087809Y-127824142D01*
X134087809Y-127824142D02*
X134040190Y-127919380D01*
X134040190Y-127919380D02*
X133992571Y-127967000D01*
X133992571Y-127967000D02*
X133897333Y-128014619D01*
X133897333Y-128014619D02*
X133802095Y-128014619D01*
X133802095Y-128014619D02*
X133706857Y-127967000D01*
X133706857Y-127967000D02*
X133659238Y-127919380D01*
X133659238Y-127919380D02*
X133611619Y-127824142D01*
X133611619Y-127824142D02*
X133564000Y-127633666D01*
X133564000Y-127633666D02*
X133564000Y-127395571D01*
X133564000Y-127395571D02*
X133611619Y-127205095D01*
X133611619Y-127205095D02*
X133659238Y-127109857D01*
X133659238Y-127109857D02*
X133706857Y-127062238D01*
X133706857Y-127062238D02*
X133802095Y-127014619D01*
%TO.C,C4*%
X132167333Y-104507380D02*
X132119714Y-104555000D01*
X132119714Y-104555000D02*
X131976857Y-104602619D01*
X131976857Y-104602619D02*
X131881619Y-104602619D01*
X131881619Y-104602619D02*
X131738762Y-104555000D01*
X131738762Y-104555000D02*
X131643524Y-104459761D01*
X131643524Y-104459761D02*
X131595905Y-104364523D01*
X131595905Y-104364523D02*
X131548286Y-104174047D01*
X131548286Y-104174047D02*
X131548286Y-104031190D01*
X131548286Y-104031190D02*
X131595905Y-103840714D01*
X131595905Y-103840714D02*
X131643524Y-103745476D01*
X131643524Y-103745476D02*
X131738762Y-103650238D01*
X131738762Y-103650238D02*
X131881619Y-103602619D01*
X131881619Y-103602619D02*
X131976857Y-103602619D01*
X131976857Y-103602619D02*
X132119714Y-103650238D01*
X132119714Y-103650238D02*
X132167333Y-103697857D01*
X133024476Y-103935952D02*
X133024476Y-104602619D01*
X132786381Y-103555000D02*
X132548286Y-104269285D01*
X132548286Y-104269285D02*
X133167333Y-104269285D01*
X130945143Y-101316619D02*
X131040381Y-101316619D01*
X131040381Y-101316619D02*
X131135619Y-101364238D01*
X131135619Y-101364238D02*
X131183238Y-101411857D01*
X131183238Y-101411857D02*
X131230857Y-101507095D01*
X131230857Y-101507095D02*
X131278476Y-101697571D01*
X131278476Y-101697571D02*
X131278476Y-101935666D01*
X131278476Y-101935666D02*
X131230857Y-102126142D01*
X131230857Y-102126142D02*
X131183238Y-102221380D01*
X131183238Y-102221380D02*
X131135619Y-102269000D01*
X131135619Y-102269000D02*
X131040381Y-102316619D01*
X131040381Y-102316619D02*
X130945143Y-102316619D01*
X130945143Y-102316619D02*
X130849905Y-102269000D01*
X130849905Y-102269000D02*
X130802286Y-102221380D01*
X130802286Y-102221380D02*
X130754667Y-102126142D01*
X130754667Y-102126142D02*
X130707048Y-101935666D01*
X130707048Y-101935666D02*
X130707048Y-101697571D01*
X130707048Y-101697571D02*
X130754667Y-101507095D01*
X130754667Y-101507095D02*
X130802286Y-101411857D01*
X130802286Y-101411857D02*
X130849905Y-101364238D01*
X130849905Y-101364238D02*
X130945143Y-101316619D01*
X131707048Y-102221380D02*
X131754667Y-102269000D01*
X131754667Y-102269000D02*
X131707048Y-102316619D01*
X131707048Y-102316619D02*
X131659429Y-102269000D01*
X131659429Y-102269000D02*
X131707048Y-102221380D01*
X131707048Y-102221380D02*
X131707048Y-102316619D01*
X132707047Y-102316619D02*
X132135619Y-102316619D01*
X132421333Y-102316619D02*
X132421333Y-101316619D01*
X132421333Y-101316619D02*
X132326095Y-101459476D01*
X132326095Y-101459476D02*
X132230857Y-101554714D01*
X132230857Y-101554714D02*
X132135619Y-101602333D01*
X133564190Y-101649952D02*
X133564190Y-102316619D01*
X133135619Y-101649952D02*
X133135619Y-102173761D01*
X133135619Y-102173761D02*
X133183238Y-102269000D01*
X133183238Y-102269000D02*
X133278476Y-102316619D01*
X133278476Y-102316619D02*
X133421333Y-102316619D01*
X133421333Y-102316619D02*
X133516571Y-102269000D01*
X133516571Y-102269000D02*
X133564190Y-102221380D01*
X134373714Y-101792809D02*
X134040381Y-101792809D01*
X134040381Y-102316619D02*
X134040381Y-101316619D01*
X134040381Y-101316619D02*
X134516571Y-101316619D01*
%TO.C,R3*%
X190962619Y-95924666D02*
X190486428Y-96257999D01*
X190962619Y-96496094D02*
X189962619Y-96496094D01*
X189962619Y-96496094D02*
X189962619Y-96115142D01*
X189962619Y-96115142D02*
X190010238Y-96019904D01*
X190010238Y-96019904D02*
X190057857Y-95972285D01*
X190057857Y-95972285D02*
X190153095Y-95924666D01*
X190153095Y-95924666D02*
X190295952Y-95924666D01*
X190295952Y-95924666D02*
X190391190Y-95972285D01*
X190391190Y-95972285D02*
X190438809Y-96019904D01*
X190438809Y-96019904D02*
X190486428Y-96115142D01*
X190486428Y-96115142D02*
X190486428Y-96496094D01*
X189962619Y-95591332D02*
X189962619Y-94972285D01*
X189962619Y-94972285D02*
X190343571Y-95305618D01*
X190343571Y-95305618D02*
X190343571Y-95162761D01*
X190343571Y-95162761D02*
X190391190Y-95067523D01*
X190391190Y-95067523D02*
X190438809Y-95019904D01*
X190438809Y-95019904D02*
X190534047Y-94972285D01*
X190534047Y-94972285D02*
X190772142Y-94972285D01*
X190772142Y-94972285D02*
X190867380Y-95019904D01*
X190867380Y-95019904D02*
X190915000Y-95067523D01*
X190915000Y-95067523D02*
X190962619Y-95162761D01*
X190962619Y-95162761D02*
X190962619Y-95448475D01*
X190962619Y-95448475D02*
X190915000Y-95543713D01*
X190915000Y-95543713D02*
X190867380Y-95591332D01*
%TO.C,R5*%
X197312619Y-95924666D02*
X196836428Y-96257999D01*
X197312619Y-96496094D02*
X196312619Y-96496094D01*
X196312619Y-96496094D02*
X196312619Y-96115142D01*
X196312619Y-96115142D02*
X196360238Y-96019904D01*
X196360238Y-96019904D02*
X196407857Y-95972285D01*
X196407857Y-95972285D02*
X196503095Y-95924666D01*
X196503095Y-95924666D02*
X196645952Y-95924666D01*
X196645952Y-95924666D02*
X196741190Y-95972285D01*
X196741190Y-95972285D02*
X196788809Y-96019904D01*
X196788809Y-96019904D02*
X196836428Y-96115142D01*
X196836428Y-96115142D02*
X196836428Y-96496094D01*
X196312619Y-95019904D02*
X196312619Y-95496094D01*
X196312619Y-95496094D02*
X196788809Y-95543713D01*
X196788809Y-95543713D02*
X196741190Y-95496094D01*
X196741190Y-95496094D02*
X196693571Y-95400856D01*
X196693571Y-95400856D02*
X196693571Y-95162761D01*
X196693571Y-95162761D02*
X196741190Y-95067523D01*
X196741190Y-95067523D02*
X196788809Y-95019904D01*
X196788809Y-95019904D02*
X196884047Y-94972285D01*
X196884047Y-94972285D02*
X197122142Y-94972285D01*
X197122142Y-94972285D02*
X197217380Y-95019904D01*
X197217380Y-95019904D02*
X197265000Y-95067523D01*
X197265000Y-95067523D02*
X197312619Y-95162761D01*
X197312619Y-95162761D02*
X197312619Y-95400856D01*
X197312619Y-95400856D02*
X197265000Y-95496094D01*
X197265000Y-95496094D02*
X197217380Y-95543713D01*
%TO.C,J2*%
X117268666Y-99792619D02*
X117268666Y-100506904D01*
X117268666Y-100506904D02*
X117221047Y-100649761D01*
X117221047Y-100649761D02*
X117125809Y-100745000D01*
X117125809Y-100745000D02*
X116982952Y-100792619D01*
X116982952Y-100792619D02*
X116887714Y-100792619D01*
X117697238Y-99887857D02*
X117744857Y-99840238D01*
X117744857Y-99840238D02*
X117840095Y-99792619D01*
X117840095Y-99792619D02*
X118078190Y-99792619D01*
X118078190Y-99792619D02*
X118173428Y-99840238D01*
X118173428Y-99840238D02*
X118221047Y-99887857D01*
X118221047Y-99887857D02*
X118268666Y-99983095D01*
X118268666Y-99983095D02*
X118268666Y-100078333D01*
X118268666Y-100078333D02*
X118221047Y-100221190D01*
X118221047Y-100221190D02*
X117649619Y-100792619D01*
X117649619Y-100792619D02*
X118268666Y-100792619D01*
%TO.C,U3*%
X139573095Y-104564619D02*
X139573095Y-105374142D01*
X139573095Y-105374142D02*
X139620714Y-105469380D01*
X139620714Y-105469380D02*
X139668333Y-105517000D01*
X139668333Y-105517000D02*
X139763571Y-105564619D01*
X139763571Y-105564619D02*
X139954047Y-105564619D01*
X139954047Y-105564619D02*
X140049285Y-105517000D01*
X140049285Y-105517000D02*
X140096904Y-105469380D01*
X140096904Y-105469380D02*
X140144523Y-105374142D01*
X140144523Y-105374142D02*
X140144523Y-104564619D01*
X140525476Y-104564619D02*
X141144523Y-104564619D01*
X141144523Y-104564619D02*
X140811190Y-104945571D01*
X140811190Y-104945571D02*
X140954047Y-104945571D01*
X140954047Y-104945571D02*
X141049285Y-104993190D01*
X141049285Y-104993190D02*
X141096904Y-105040809D01*
X141096904Y-105040809D02*
X141144523Y-105136047D01*
X141144523Y-105136047D02*
X141144523Y-105374142D01*
X141144523Y-105374142D02*
X141096904Y-105469380D01*
X141096904Y-105469380D02*
X141049285Y-105517000D01*
X141049285Y-105517000D02*
X140954047Y-105564619D01*
X140954047Y-105564619D02*
X140668333Y-105564619D01*
X140668333Y-105564619D02*
X140573095Y-105517000D01*
X140573095Y-105517000D02*
X140525476Y-105469380D01*
X140400952Y-127004619D02*
X141067618Y-127004619D01*
X141067618Y-127004619D02*
X140639047Y-128004619D01*
X141877142Y-127337952D02*
X141877142Y-128004619D01*
X141639047Y-126957000D02*
X141400952Y-127671285D01*
X141400952Y-127671285D02*
X142019999Y-127671285D01*
X142877142Y-128004619D02*
X142400952Y-128004619D01*
X142400952Y-128004619D02*
X142400952Y-127004619D01*
X143162857Y-127957000D02*
X143305714Y-128004619D01*
X143305714Y-128004619D02*
X143543809Y-128004619D01*
X143543809Y-128004619D02*
X143639047Y-127957000D01*
X143639047Y-127957000D02*
X143686666Y-127909380D01*
X143686666Y-127909380D02*
X143734285Y-127814142D01*
X143734285Y-127814142D02*
X143734285Y-127718904D01*
X143734285Y-127718904D02*
X143686666Y-127623666D01*
X143686666Y-127623666D02*
X143639047Y-127576047D01*
X143639047Y-127576047D02*
X143543809Y-127528428D01*
X143543809Y-127528428D02*
X143353333Y-127480809D01*
X143353333Y-127480809D02*
X143258095Y-127433190D01*
X143258095Y-127433190D02*
X143210476Y-127385571D01*
X143210476Y-127385571D02*
X143162857Y-127290333D01*
X143162857Y-127290333D02*
X143162857Y-127195095D01*
X143162857Y-127195095D02*
X143210476Y-127099857D01*
X143210476Y-127099857D02*
X143258095Y-127052238D01*
X143258095Y-127052238D02*
X143353333Y-127004619D01*
X143353333Y-127004619D02*
X143591428Y-127004619D01*
X143591428Y-127004619D02*
X143734285Y-127052238D01*
X144591428Y-127004619D02*
X144400952Y-127004619D01*
X144400952Y-127004619D02*
X144305714Y-127052238D01*
X144305714Y-127052238D02*
X144258095Y-127099857D01*
X144258095Y-127099857D02*
X144162857Y-127242714D01*
X144162857Y-127242714D02*
X144115238Y-127433190D01*
X144115238Y-127433190D02*
X144115238Y-127814142D01*
X144115238Y-127814142D02*
X144162857Y-127909380D01*
X144162857Y-127909380D02*
X144210476Y-127957000D01*
X144210476Y-127957000D02*
X144305714Y-128004619D01*
X144305714Y-128004619D02*
X144496190Y-128004619D01*
X144496190Y-128004619D02*
X144591428Y-127957000D01*
X144591428Y-127957000D02*
X144639047Y-127909380D01*
X144639047Y-127909380D02*
X144686666Y-127814142D01*
X144686666Y-127814142D02*
X144686666Y-127576047D01*
X144686666Y-127576047D02*
X144639047Y-127480809D01*
X144639047Y-127480809D02*
X144591428Y-127433190D01*
X144591428Y-127433190D02*
X144496190Y-127385571D01*
X144496190Y-127385571D02*
X144305714Y-127385571D01*
X144305714Y-127385571D02*
X144210476Y-127433190D01*
X144210476Y-127433190D02*
X144162857Y-127480809D01*
X144162857Y-127480809D02*
X144115238Y-127576047D01*
X145020000Y-127004619D02*
X145686666Y-127004619D01*
X145686666Y-127004619D02*
X145258095Y-128004619D01*
X146258095Y-127004619D02*
X146353333Y-127004619D01*
X146353333Y-127004619D02*
X146448571Y-127052238D01*
X146448571Y-127052238D02*
X146496190Y-127099857D01*
X146496190Y-127099857D02*
X146543809Y-127195095D01*
X146543809Y-127195095D02*
X146591428Y-127385571D01*
X146591428Y-127385571D02*
X146591428Y-127623666D01*
X146591428Y-127623666D02*
X146543809Y-127814142D01*
X146543809Y-127814142D02*
X146496190Y-127909380D01*
X146496190Y-127909380D02*
X146448571Y-127957000D01*
X146448571Y-127957000D02*
X146353333Y-128004619D01*
X146353333Y-128004619D02*
X146258095Y-128004619D01*
X146258095Y-128004619D02*
X146162857Y-127957000D01*
X146162857Y-127957000D02*
X146115238Y-127909380D01*
X146115238Y-127909380D02*
X146067619Y-127814142D01*
X146067619Y-127814142D02*
X146020000Y-127623666D01*
X146020000Y-127623666D02*
X146020000Y-127385571D01*
X146020000Y-127385571D02*
X146067619Y-127195095D01*
X146067619Y-127195095D02*
X146115238Y-127099857D01*
X146115238Y-127099857D02*
X146162857Y-127052238D01*
X146162857Y-127052238D02*
X146258095Y-127004619D01*
%TO.C,J1*%
X117268666Y-92694619D02*
X117268666Y-93408904D01*
X117268666Y-93408904D02*
X117221047Y-93551761D01*
X117221047Y-93551761D02*
X117125809Y-93647000D01*
X117125809Y-93647000D02*
X116982952Y-93694619D01*
X116982952Y-93694619D02*
X116887714Y-93694619D01*
X118268666Y-93694619D02*
X117697238Y-93694619D01*
X117982952Y-93694619D02*
X117982952Y-92694619D01*
X117982952Y-92694619D02*
X117887714Y-92837476D01*
X117887714Y-92837476D02*
X117792476Y-92932714D01*
X117792476Y-92932714D02*
X117697238Y-92980333D01*
%TO.C,U2*%
X180213095Y-108558619D02*
X180213095Y-109368142D01*
X180213095Y-109368142D02*
X180260714Y-109463380D01*
X180260714Y-109463380D02*
X180308333Y-109511000D01*
X180308333Y-109511000D02*
X180403571Y-109558619D01*
X180403571Y-109558619D02*
X180594047Y-109558619D01*
X180594047Y-109558619D02*
X180689285Y-109511000D01*
X180689285Y-109511000D02*
X180736904Y-109463380D01*
X180736904Y-109463380D02*
X180784523Y-109368142D01*
X180784523Y-109368142D02*
X180784523Y-108558619D01*
X181213095Y-108653857D02*
X181260714Y-108606238D01*
X181260714Y-108606238D02*
X181355952Y-108558619D01*
X181355952Y-108558619D02*
X181594047Y-108558619D01*
X181594047Y-108558619D02*
X181689285Y-108606238D01*
X181689285Y-108606238D02*
X181736904Y-108653857D01*
X181736904Y-108653857D02*
X181784523Y-108749095D01*
X181784523Y-108749095D02*
X181784523Y-108844333D01*
X181784523Y-108844333D02*
X181736904Y-108987190D01*
X181736904Y-108987190D02*
X181165476Y-109558619D01*
X181165476Y-109558619D02*
X181784523Y-109558619D01*
X179888000Y-131872904D02*
X180364190Y-131872904D01*
X179792762Y-132158619D02*
X180126095Y-131158619D01*
X180126095Y-131158619D02*
X180459428Y-132158619D01*
X180649905Y-131158619D02*
X181221333Y-131158619D01*
X180935619Y-132158619D02*
X180935619Y-131158619D01*
X181507048Y-131253857D02*
X181554667Y-131206238D01*
X181554667Y-131206238D02*
X181649905Y-131158619D01*
X181649905Y-131158619D02*
X181888000Y-131158619D01*
X181888000Y-131158619D02*
X181983238Y-131206238D01*
X181983238Y-131206238D02*
X182030857Y-131253857D01*
X182030857Y-131253857D02*
X182078476Y-131349095D01*
X182078476Y-131349095D02*
X182078476Y-131444333D01*
X182078476Y-131444333D02*
X182030857Y-131587190D01*
X182030857Y-131587190D02*
X181459429Y-132158619D01*
X181459429Y-132158619D02*
X182078476Y-132158619D01*
X182411810Y-131158619D02*
X183078476Y-131158619D01*
X183078476Y-131158619D02*
X182649905Y-132158619D01*
X184030857Y-132063380D02*
X183983238Y-132111000D01*
X183983238Y-132111000D02*
X183840381Y-132158619D01*
X183840381Y-132158619D02*
X183745143Y-132158619D01*
X183745143Y-132158619D02*
X183602286Y-132111000D01*
X183602286Y-132111000D02*
X183507048Y-132015761D01*
X183507048Y-132015761D02*
X183459429Y-131920523D01*
X183459429Y-131920523D02*
X183411810Y-131730047D01*
X183411810Y-131730047D02*
X183411810Y-131587190D01*
X183411810Y-131587190D02*
X183459429Y-131396714D01*
X183459429Y-131396714D02*
X183507048Y-131301476D01*
X183507048Y-131301476D02*
X183602286Y-131206238D01*
X183602286Y-131206238D02*
X183745143Y-131158619D01*
X183745143Y-131158619D02*
X183840381Y-131158619D01*
X183840381Y-131158619D02*
X183983238Y-131206238D01*
X183983238Y-131206238D02*
X184030857Y-131253857D01*
X184649905Y-131158619D02*
X184745143Y-131158619D01*
X184745143Y-131158619D02*
X184840381Y-131206238D01*
X184840381Y-131206238D02*
X184888000Y-131253857D01*
X184888000Y-131253857D02*
X184935619Y-131349095D01*
X184935619Y-131349095D02*
X184983238Y-131539571D01*
X184983238Y-131539571D02*
X184983238Y-131777666D01*
X184983238Y-131777666D02*
X184935619Y-131968142D01*
X184935619Y-131968142D02*
X184888000Y-132063380D01*
X184888000Y-132063380D02*
X184840381Y-132111000D01*
X184840381Y-132111000D02*
X184745143Y-132158619D01*
X184745143Y-132158619D02*
X184649905Y-132158619D01*
X184649905Y-132158619D02*
X184554667Y-132111000D01*
X184554667Y-132111000D02*
X184507048Y-132063380D01*
X184507048Y-132063380D02*
X184459429Y-131968142D01*
X184459429Y-131968142D02*
X184411810Y-131777666D01*
X184411810Y-131777666D02*
X184411810Y-131539571D01*
X184411810Y-131539571D02*
X184459429Y-131349095D01*
X184459429Y-131349095D02*
X184507048Y-131253857D01*
X184507048Y-131253857D02*
X184554667Y-131206238D01*
X184554667Y-131206238D02*
X184649905Y-131158619D01*
X185364191Y-131253857D02*
X185411810Y-131206238D01*
X185411810Y-131206238D02*
X185507048Y-131158619D01*
X185507048Y-131158619D02*
X185745143Y-131158619D01*
X185745143Y-131158619D02*
X185840381Y-131206238D01*
X185840381Y-131206238D02*
X185888000Y-131253857D01*
X185888000Y-131253857D02*
X185935619Y-131349095D01*
X185935619Y-131349095D02*
X185935619Y-131444333D01*
X185935619Y-131444333D02*
X185888000Y-131587190D01*
X185888000Y-131587190D02*
X185316572Y-132158619D01*
X185316572Y-132158619D02*
X185935619Y-132158619D01*
X186554667Y-131158619D02*
X186649905Y-131158619D01*
X186649905Y-131158619D02*
X186745143Y-131206238D01*
X186745143Y-131206238D02*
X186792762Y-131253857D01*
X186792762Y-131253857D02*
X186840381Y-131349095D01*
X186840381Y-131349095D02*
X186888000Y-131539571D01*
X186888000Y-131539571D02*
X186888000Y-131777666D01*
X186888000Y-131777666D02*
X186840381Y-131968142D01*
X186840381Y-131968142D02*
X186792762Y-132063380D01*
X186792762Y-132063380D02*
X186745143Y-132111000D01*
X186745143Y-132111000D02*
X186649905Y-132158619D01*
X186649905Y-132158619D02*
X186554667Y-132158619D01*
X186554667Y-132158619D02*
X186459429Y-132111000D01*
X186459429Y-132111000D02*
X186411810Y-132063380D01*
X186411810Y-132063380D02*
X186364191Y-131968142D01*
X186364191Y-131968142D02*
X186316572Y-131777666D01*
X186316572Y-131777666D02*
X186316572Y-131539571D01*
X186316572Y-131539571D02*
X186364191Y-131349095D01*
X186364191Y-131349095D02*
X186411810Y-131253857D01*
X186411810Y-131253857D02*
X186459429Y-131206238D01*
X186459429Y-131206238D02*
X186554667Y-131158619D01*
%TO.C,R6*%
X200487619Y-95924666D02*
X200011428Y-96257999D01*
X200487619Y-96496094D02*
X199487619Y-96496094D01*
X199487619Y-96496094D02*
X199487619Y-96115142D01*
X199487619Y-96115142D02*
X199535238Y-96019904D01*
X199535238Y-96019904D02*
X199582857Y-95972285D01*
X199582857Y-95972285D02*
X199678095Y-95924666D01*
X199678095Y-95924666D02*
X199820952Y-95924666D01*
X199820952Y-95924666D02*
X199916190Y-95972285D01*
X199916190Y-95972285D02*
X199963809Y-96019904D01*
X199963809Y-96019904D02*
X200011428Y-96115142D01*
X200011428Y-96115142D02*
X200011428Y-96496094D01*
X199487619Y-95067523D02*
X199487619Y-95257999D01*
X199487619Y-95257999D02*
X199535238Y-95353237D01*
X199535238Y-95353237D02*
X199582857Y-95400856D01*
X199582857Y-95400856D02*
X199725714Y-95496094D01*
X199725714Y-95496094D02*
X199916190Y-95543713D01*
X199916190Y-95543713D02*
X200297142Y-95543713D01*
X200297142Y-95543713D02*
X200392380Y-95496094D01*
X200392380Y-95496094D02*
X200440000Y-95448475D01*
X200440000Y-95448475D02*
X200487619Y-95353237D01*
X200487619Y-95353237D02*
X200487619Y-95162761D01*
X200487619Y-95162761D02*
X200440000Y-95067523D01*
X200440000Y-95067523D02*
X200392380Y-95019904D01*
X200392380Y-95019904D02*
X200297142Y-94972285D01*
X200297142Y-94972285D02*
X200059047Y-94972285D01*
X200059047Y-94972285D02*
X199963809Y-95019904D01*
X199963809Y-95019904D02*
X199916190Y-95067523D01*
X199916190Y-95067523D02*
X199868571Y-95162761D01*
X199868571Y-95162761D02*
X199868571Y-95353237D01*
X199868571Y-95353237D02*
X199916190Y-95448475D01*
X199916190Y-95448475D02*
X199963809Y-95496094D01*
X199963809Y-95496094D02*
X200059047Y-95543713D01*
%TO.C,C6*%
X201781745Y-108601124D02*
X201734126Y-108648744D01*
X201734126Y-108648744D02*
X201591269Y-108696363D01*
X201591269Y-108696363D02*
X201496031Y-108696363D01*
X201496031Y-108696363D02*
X201353174Y-108648744D01*
X201353174Y-108648744D02*
X201257936Y-108553505D01*
X201257936Y-108553505D02*
X201210317Y-108458267D01*
X201210317Y-108458267D02*
X201162698Y-108267791D01*
X201162698Y-108267791D02*
X201162698Y-108124934D01*
X201162698Y-108124934D02*
X201210317Y-107934458D01*
X201210317Y-107934458D02*
X201257936Y-107839220D01*
X201257936Y-107839220D02*
X201353174Y-107743982D01*
X201353174Y-107743982D02*
X201496031Y-107696363D01*
X201496031Y-107696363D02*
X201591269Y-107696363D01*
X201591269Y-107696363D02*
X201734126Y-107743982D01*
X201734126Y-107743982D02*
X201781745Y-107791601D01*
X202638888Y-107696363D02*
X202448412Y-107696363D01*
X202448412Y-107696363D02*
X202353174Y-107743982D01*
X202353174Y-107743982D02*
X202305555Y-107791601D01*
X202305555Y-107791601D02*
X202210317Y-107934458D01*
X202210317Y-107934458D02*
X202162698Y-108124934D01*
X202162698Y-108124934D02*
X202162698Y-108505886D01*
X202162698Y-108505886D02*
X202210317Y-108601124D01*
X202210317Y-108601124D02*
X202257936Y-108648744D01*
X202257936Y-108648744D02*
X202353174Y-108696363D01*
X202353174Y-108696363D02*
X202543650Y-108696363D01*
X202543650Y-108696363D02*
X202638888Y-108648744D01*
X202638888Y-108648744D02*
X202686507Y-108601124D01*
X202686507Y-108601124D02*
X202734126Y-108505886D01*
X202734126Y-108505886D02*
X202734126Y-108267791D01*
X202734126Y-108267791D02*
X202686507Y-108172553D01*
X202686507Y-108172553D02*
X202638888Y-108124934D01*
X202638888Y-108124934D02*
X202543650Y-108077315D01*
X202543650Y-108077315D02*
X202353174Y-108077315D01*
X202353174Y-108077315D02*
X202257936Y-108124934D01*
X202257936Y-108124934D02*
X202210317Y-108172553D01*
X202210317Y-108172553D02*
X202162698Y-108267791D01*
X200327143Y-105166619D02*
X200422381Y-105166619D01*
X200422381Y-105166619D02*
X200517619Y-105214238D01*
X200517619Y-105214238D02*
X200565238Y-105261857D01*
X200565238Y-105261857D02*
X200612857Y-105357095D01*
X200612857Y-105357095D02*
X200660476Y-105547571D01*
X200660476Y-105547571D02*
X200660476Y-105785666D01*
X200660476Y-105785666D02*
X200612857Y-105976142D01*
X200612857Y-105976142D02*
X200565238Y-106071380D01*
X200565238Y-106071380D02*
X200517619Y-106119000D01*
X200517619Y-106119000D02*
X200422381Y-106166619D01*
X200422381Y-106166619D02*
X200327143Y-106166619D01*
X200327143Y-106166619D02*
X200231905Y-106119000D01*
X200231905Y-106119000D02*
X200184286Y-106071380D01*
X200184286Y-106071380D02*
X200136667Y-105976142D01*
X200136667Y-105976142D02*
X200089048Y-105785666D01*
X200089048Y-105785666D02*
X200089048Y-105547571D01*
X200089048Y-105547571D02*
X200136667Y-105357095D01*
X200136667Y-105357095D02*
X200184286Y-105261857D01*
X200184286Y-105261857D02*
X200231905Y-105214238D01*
X200231905Y-105214238D02*
X200327143Y-105166619D01*
X201089048Y-106071380D02*
X201136667Y-106119000D01*
X201136667Y-106119000D02*
X201089048Y-106166619D01*
X201089048Y-106166619D02*
X201041429Y-106119000D01*
X201041429Y-106119000D02*
X201089048Y-106071380D01*
X201089048Y-106071380D02*
X201089048Y-106166619D01*
X202089047Y-106166619D02*
X201517619Y-106166619D01*
X201803333Y-106166619D02*
X201803333Y-105166619D01*
X201803333Y-105166619D02*
X201708095Y-105309476D01*
X201708095Y-105309476D02*
X201612857Y-105404714D01*
X201612857Y-105404714D02*
X201517619Y-105452333D01*
X202946190Y-105499952D02*
X202946190Y-106166619D01*
X202517619Y-105499952D02*
X202517619Y-106023761D01*
X202517619Y-106023761D02*
X202565238Y-106119000D01*
X202565238Y-106119000D02*
X202660476Y-106166619D01*
X202660476Y-106166619D02*
X202803333Y-106166619D01*
X202803333Y-106166619D02*
X202898571Y-106119000D01*
X202898571Y-106119000D02*
X202946190Y-106071380D01*
X203755714Y-105642809D02*
X203422381Y-105642809D01*
X203422381Y-106166619D02*
X203422381Y-105166619D01*
X203422381Y-105166619D02*
X203898571Y-105166619D01*
%TO.C,U5*%
X133447619Y-99821904D02*
X134257142Y-99821904D01*
X134257142Y-99821904D02*
X134352380Y-99774285D01*
X134352380Y-99774285D02*
X134400000Y-99726666D01*
X134400000Y-99726666D02*
X134447619Y-99631428D01*
X134447619Y-99631428D02*
X134447619Y-99440952D01*
X134447619Y-99440952D02*
X134400000Y-99345714D01*
X134400000Y-99345714D02*
X134352380Y-99298095D01*
X134352380Y-99298095D02*
X134257142Y-99250476D01*
X134257142Y-99250476D02*
X133447619Y-99250476D01*
X133447619Y-98298095D02*
X133447619Y-98774285D01*
X133447619Y-98774285D02*
X133923809Y-98821904D01*
X133923809Y-98821904D02*
X133876190Y-98774285D01*
X133876190Y-98774285D02*
X133828571Y-98679047D01*
X133828571Y-98679047D02*
X133828571Y-98440952D01*
X133828571Y-98440952D02*
X133876190Y-98345714D01*
X133876190Y-98345714D02*
X133923809Y-98298095D01*
X133923809Y-98298095D02*
X134019047Y-98250476D01*
X134019047Y-98250476D02*
X134257142Y-98250476D01*
X134257142Y-98250476D02*
X134352380Y-98298095D01*
X134352380Y-98298095D02*
X134400000Y-98345714D01*
X134400000Y-98345714D02*
X134447619Y-98440952D01*
X134447619Y-98440952D02*
X134447619Y-98679047D01*
X134447619Y-98679047D02*
X134400000Y-98774285D01*
X134400000Y-98774285D02*
X134352380Y-98821904D01*
X153425619Y-98146856D02*
X153425619Y-97480190D01*
X153425619Y-97480190D02*
X154425619Y-97908761D01*
X153758952Y-96670666D02*
X154425619Y-96670666D01*
X153378000Y-96908761D02*
X154092285Y-97146856D01*
X154092285Y-97146856D02*
X154092285Y-96527809D01*
X154425619Y-95670666D02*
X154425619Y-96146856D01*
X154425619Y-96146856D02*
X153425619Y-96146856D01*
X154378000Y-95384951D02*
X154425619Y-95242094D01*
X154425619Y-95242094D02*
X154425619Y-95003999D01*
X154425619Y-95003999D02*
X154378000Y-94908761D01*
X154378000Y-94908761D02*
X154330380Y-94861142D01*
X154330380Y-94861142D02*
X154235142Y-94813523D01*
X154235142Y-94813523D02*
X154139904Y-94813523D01*
X154139904Y-94813523D02*
X154044666Y-94861142D01*
X154044666Y-94861142D02*
X153997047Y-94908761D01*
X153997047Y-94908761D02*
X153949428Y-95003999D01*
X153949428Y-95003999D02*
X153901809Y-95194475D01*
X153901809Y-95194475D02*
X153854190Y-95289713D01*
X153854190Y-95289713D02*
X153806571Y-95337332D01*
X153806571Y-95337332D02*
X153711333Y-95384951D01*
X153711333Y-95384951D02*
X153616095Y-95384951D01*
X153616095Y-95384951D02*
X153520857Y-95337332D01*
X153520857Y-95337332D02*
X153473238Y-95289713D01*
X153473238Y-95289713D02*
X153425619Y-95194475D01*
X153425619Y-95194475D02*
X153425619Y-94956380D01*
X153425619Y-94956380D02*
X153473238Y-94813523D01*
X153425619Y-94480189D02*
X153425619Y-93861142D01*
X153425619Y-93861142D02*
X153806571Y-94194475D01*
X153806571Y-94194475D02*
X153806571Y-94051618D01*
X153806571Y-94051618D02*
X153854190Y-93956380D01*
X153854190Y-93956380D02*
X153901809Y-93908761D01*
X153901809Y-93908761D02*
X153997047Y-93861142D01*
X153997047Y-93861142D02*
X154235142Y-93861142D01*
X154235142Y-93861142D02*
X154330380Y-93908761D01*
X154330380Y-93908761D02*
X154378000Y-93956380D01*
X154378000Y-93956380D02*
X154425619Y-94051618D01*
X154425619Y-94051618D02*
X154425619Y-94337332D01*
X154425619Y-94337332D02*
X154378000Y-94432570D01*
X154378000Y-94432570D02*
X154330380Y-94480189D01*
X153520857Y-93480189D02*
X153473238Y-93432570D01*
X153473238Y-93432570D02*
X153425619Y-93337332D01*
X153425619Y-93337332D02*
X153425619Y-93099237D01*
X153425619Y-93099237D02*
X153473238Y-93003999D01*
X153473238Y-93003999D02*
X153520857Y-92956380D01*
X153520857Y-92956380D02*
X153616095Y-92908761D01*
X153616095Y-92908761D02*
X153711333Y-92908761D01*
X153711333Y-92908761D02*
X153854190Y-92956380D01*
X153854190Y-92956380D02*
X154425619Y-93527808D01*
X154425619Y-93527808D02*
X154425619Y-92908761D01*
%TO.C,R4*%
X194137619Y-95924666D02*
X193661428Y-96257999D01*
X194137619Y-96496094D02*
X193137619Y-96496094D01*
X193137619Y-96496094D02*
X193137619Y-96115142D01*
X193137619Y-96115142D02*
X193185238Y-96019904D01*
X193185238Y-96019904D02*
X193232857Y-95972285D01*
X193232857Y-95972285D02*
X193328095Y-95924666D01*
X193328095Y-95924666D02*
X193470952Y-95924666D01*
X193470952Y-95924666D02*
X193566190Y-95972285D01*
X193566190Y-95972285D02*
X193613809Y-96019904D01*
X193613809Y-96019904D02*
X193661428Y-96115142D01*
X193661428Y-96115142D02*
X193661428Y-96496094D01*
X193470952Y-95067523D02*
X194137619Y-95067523D01*
X193090000Y-95305618D02*
X193804285Y-95543713D01*
X193804285Y-95543713D02*
X193804285Y-94924666D01*
%TO.C,J3*%
X117268666Y-109654619D02*
X117268666Y-110368904D01*
X117268666Y-110368904D02*
X117221047Y-110511761D01*
X117221047Y-110511761D02*
X117125809Y-110607000D01*
X117125809Y-110607000D02*
X116982952Y-110654619D01*
X116982952Y-110654619D02*
X116887714Y-110654619D01*
X117649619Y-109654619D02*
X118268666Y-109654619D01*
X118268666Y-109654619D02*
X117935333Y-110035571D01*
X117935333Y-110035571D02*
X118078190Y-110035571D01*
X118078190Y-110035571D02*
X118173428Y-110083190D01*
X118173428Y-110083190D02*
X118221047Y-110130809D01*
X118221047Y-110130809D02*
X118268666Y-110226047D01*
X118268666Y-110226047D02*
X118268666Y-110464142D01*
X118268666Y-110464142D02*
X118221047Y-110559380D01*
X118221047Y-110559380D02*
X118173428Y-110607000D01*
X118173428Y-110607000D02*
X118078190Y-110654619D01*
X118078190Y-110654619D02*
X117792476Y-110654619D01*
X117792476Y-110654619D02*
X117697238Y-110607000D01*
X117697238Y-110607000D02*
X117649619Y-110559380D01*
%TO.C,U1*%
X161036095Y-107920619D02*
X161036095Y-108730142D01*
X161036095Y-108730142D02*
X161083714Y-108825380D01*
X161083714Y-108825380D02*
X161131333Y-108873000D01*
X161131333Y-108873000D02*
X161226571Y-108920619D01*
X161226571Y-108920619D02*
X161417047Y-108920619D01*
X161417047Y-108920619D02*
X161512285Y-108873000D01*
X161512285Y-108873000D02*
X161559904Y-108825380D01*
X161559904Y-108825380D02*
X161607523Y-108730142D01*
X161607523Y-108730142D02*
X161607523Y-107920619D01*
X162607523Y-108920619D02*
X162036095Y-108920619D01*
X162321809Y-108920619D02*
X162321809Y-107920619D01*
X162321809Y-107920619D02*
X162226571Y-108063476D01*
X162226571Y-108063476D02*
X162131333Y-108158714D01*
X162131333Y-108158714D02*
X162036095Y-108206333D01*
X159314000Y-131872904D02*
X159790190Y-131872904D01*
X159218762Y-132158619D02*
X159552095Y-131158619D01*
X159552095Y-131158619D02*
X159885428Y-132158619D01*
X160075905Y-131158619D02*
X160647333Y-131158619D01*
X160361619Y-132158619D02*
X160361619Y-131158619D01*
X160933048Y-131253857D02*
X160980667Y-131206238D01*
X160980667Y-131206238D02*
X161075905Y-131158619D01*
X161075905Y-131158619D02*
X161314000Y-131158619D01*
X161314000Y-131158619D02*
X161409238Y-131206238D01*
X161409238Y-131206238D02*
X161456857Y-131253857D01*
X161456857Y-131253857D02*
X161504476Y-131349095D01*
X161504476Y-131349095D02*
X161504476Y-131444333D01*
X161504476Y-131444333D02*
X161456857Y-131587190D01*
X161456857Y-131587190D02*
X160885429Y-132158619D01*
X160885429Y-132158619D02*
X161504476Y-132158619D01*
X161837810Y-131158619D02*
X162504476Y-131158619D01*
X162504476Y-131158619D02*
X162075905Y-132158619D01*
X163456857Y-132063380D02*
X163409238Y-132111000D01*
X163409238Y-132111000D02*
X163266381Y-132158619D01*
X163266381Y-132158619D02*
X163171143Y-132158619D01*
X163171143Y-132158619D02*
X163028286Y-132111000D01*
X163028286Y-132111000D02*
X162933048Y-132015761D01*
X162933048Y-132015761D02*
X162885429Y-131920523D01*
X162885429Y-131920523D02*
X162837810Y-131730047D01*
X162837810Y-131730047D02*
X162837810Y-131587190D01*
X162837810Y-131587190D02*
X162885429Y-131396714D01*
X162885429Y-131396714D02*
X162933048Y-131301476D01*
X162933048Y-131301476D02*
X163028286Y-131206238D01*
X163028286Y-131206238D02*
X163171143Y-131158619D01*
X163171143Y-131158619D02*
X163266381Y-131158619D01*
X163266381Y-131158619D02*
X163409238Y-131206238D01*
X163409238Y-131206238D02*
X163456857Y-131253857D01*
X164075905Y-131158619D02*
X164171143Y-131158619D01*
X164171143Y-131158619D02*
X164266381Y-131206238D01*
X164266381Y-131206238D02*
X164314000Y-131253857D01*
X164314000Y-131253857D02*
X164361619Y-131349095D01*
X164361619Y-131349095D02*
X164409238Y-131539571D01*
X164409238Y-131539571D02*
X164409238Y-131777666D01*
X164409238Y-131777666D02*
X164361619Y-131968142D01*
X164361619Y-131968142D02*
X164314000Y-132063380D01*
X164314000Y-132063380D02*
X164266381Y-132111000D01*
X164266381Y-132111000D02*
X164171143Y-132158619D01*
X164171143Y-132158619D02*
X164075905Y-132158619D01*
X164075905Y-132158619D02*
X163980667Y-132111000D01*
X163980667Y-132111000D02*
X163933048Y-132063380D01*
X163933048Y-132063380D02*
X163885429Y-131968142D01*
X163885429Y-131968142D02*
X163837810Y-131777666D01*
X163837810Y-131777666D02*
X163837810Y-131539571D01*
X163837810Y-131539571D02*
X163885429Y-131349095D01*
X163885429Y-131349095D02*
X163933048Y-131253857D01*
X163933048Y-131253857D02*
X163980667Y-131206238D01*
X163980667Y-131206238D02*
X164075905Y-131158619D01*
X164790191Y-131253857D02*
X164837810Y-131206238D01*
X164837810Y-131206238D02*
X164933048Y-131158619D01*
X164933048Y-131158619D02*
X165171143Y-131158619D01*
X165171143Y-131158619D02*
X165266381Y-131206238D01*
X165266381Y-131206238D02*
X165314000Y-131253857D01*
X165314000Y-131253857D02*
X165361619Y-131349095D01*
X165361619Y-131349095D02*
X165361619Y-131444333D01*
X165361619Y-131444333D02*
X165314000Y-131587190D01*
X165314000Y-131587190D02*
X164742572Y-132158619D01*
X164742572Y-132158619D02*
X165361619Y-132158619D01*
X165980667Y-131158619D02*
X166075905Y-131158619D01*
X166075905Y-131158619D02*
X166171143Y-131206238D01*
X166171143Y-131206238D02*
X166218762Y-131253857D01*
X166218762Y-131253857D02*
X166266381Y-131349095D01*
X166266381Y-131349095D02*
X166314000Y-131539571D01*
X166314000Y-131539571D02*
X166314000Y-131777666D01*
X166314000Y-131777666D02*
X166266381Y-131968142D01*
X166266381Y-131968142D02*
X166218762Y-132063380D01*
X166218762Y-132063380D02*
X166171143Y-132111000D01*
X166171143Y-132111000D02*
X166075905Y-132158619D01*
X166075905Y-132158619D02*
X165980667Y-132158619D01*
X165980667Y-132158619D02*
X165885429Y-132111000D01*
X165885429Y-132111000D02*
X165837810Y-132063380D01*
X165837810Y-132063380D02*
X165790191Y-131968142D01*
X165790191Y-131968142D02*
X165742572Y-131777666D01*
X165742572Y-131777666D02*
X165742572Y-131539571D01*
X165742572Y-131539571D02*
X165790191Y-131349095D01*
X165790191Y-131349095D02*
X165837810Y-131253857D01*
X165837810Y-131253857D02*
X165885429Y-131206238D01*
X165885429Y-131206238D02*
X165980667Y-131158619D01*
%TO.C,U6*%
X158212619Y-99821904D02*
X159022142Y-99821904D01*
X159022142Y-99821904D02*
X159117380Y-99774285D01*
X159117380Y-99774285D02*
X159165000Y-99726666D01*
X159165000Y-99726666D02*
X159212619Y-99631428D01*
X159212619Y-99631428D02*
X159212619Y-99440952D01*
X159212619Y-99440952D02*
X159165000Y-99345714D01*
X159165000Y-99345714D02*
X159117380Y-99298095D01*
X159117380Y-99298095D02*
X159022142Y-99250476D01*
X159022142Y-99250476D02*
X158212619Y-99250476D01*
X158212619Y-98345714D02*
X158212619Y-98536190D01*
X158212619Y-98536190D02*
X158260238Y-98631428D01*
X158260238Y-98631428D02*
X158307857Y-98679047D01*
X158307857Y-98679047D02*
X158450714Y-98774285D01*
X158450714Y-98774285D02*
X158641190Y-98821904D01*
X158641190Y-98821904D02*
X159022142Y-98821904D01*
X159022142Y-98821904D02*
X159117380Y-98774285D01*
X159117380Y-98774285D02*
X159165000Y-98726666D01*
X159165000Y-98726666D02*
X159212619Y-98631428D01*
X159212619Y-98631428D02*
X159212619Y-98440952D01*
X159212619Y-98440952D02*
X159165000Y-98345714D01*
X159165000Y-98345714D02*
X159117380Y-98298095D01*
X159117380Y-98298095D02*
X159022142Y-98250476D01*
X159022142Y-98250476D02*
X158784047Y-98250476D01*
X158784047Y-98250476D02*
X158688809Y-98298095D01*
X158688809Y-98298095D02*
X158641190Y-98345714D01*
X158641190Y-98345714D02*
X158593571Y-98440952D01*
X158593571Y-98440952D02*
X158593571Y-98631428D01*
X158593571Y-98631428D02*
X158641190Y-98726666D01*
X158641190Y-98726666D02*
X158688809Y-98774285D01*
X158688809Y-98774285D02*
X158784047Y-98821904D01*
X178534619Y-98400856D02*
X178534619Y-97734190D01*
X178534619Y-97734190D02*
X179534619Y-98162761D01*
X178867952Y-96924666D02*
X179534619Y-96924666D01*
X178487000Y-97162761D02*
X179201285Y-97400856D01*
X179201285Y-97400856D02*
X179201285Y-96781809D01*
X179534619Y-95924666D02*
X179534619Y-96400856D01*
X179534619Y-96400856D02*
X178534619Y-96400856D01*
X179487000Y-95638951D02*
X179534619Y-95496094D01*
X179534619Y-95496094D02*
X179534619Y-95257999D01*
X179534619Y-95257999D02*
X179487000Y-95162761D01*
X179487000Y-95162761D02*
X179439380Y-95115142D01*
X179439380Y-95115142D02*
X179344142Y-95067523D01*
X179344142Y-95067523D02*
X179248904Y-95067523D01*
X179248904Y-95067523D02*
X179153666Y-95115142D01*
X179153666Y-95115142D02*
X179106047Y-95162761D01*
X179106047Y-95162761D02*
X179058428Y-95257999D01*
X179058428Y-95257999D02*
X179010809Y-95448475D01*
X179010809Y-95448475D02*
X178963190Y-95543713D01*
X178963190Y-95543713D02*
X178915571Y-95591332D01*
X178915571Y-95591332D02*
X178820333Y-95638951D01*
X178820333Y-95638951D02*
X178725095Y-95638951D01*
X178725095Y-95638951D02*
X178629857Y-95591332D01*
X178629857Y-95591332D02*
X178582238Y-95543713D01*
X178582238Y-95543713D02*
X178534619Y-95448475D01*
X178534619Y-95448475D02*
X178534619Y-95210380D01*
X178534619Y-95210380D02*
X178582238Y-95067523D01*
X178534619Y-94448475D02*
X178534619Y-94353237D01*
X178534619Y-94353237D02*
X178582238Y-94257999D01*
X178582238Y-94257999D02*
X178629857Y-94210380D01*
X178629857Y-94210380D02*
X178725095Y-94162761D01*
X178725095Y-94162761D02*
X178915571Y-94115142D01*
X178915571Y-94115142D02*
X179153666Y-94115142D01*
X179153666Y-94115142D02*
X179344142Y-94162761D01*
X179344142Y-94162761D02*
X179439380Y-94210380D01*
X179439380Y-94210380D02*
X179487000Y-94257999D01*
X179487000Y-94257999D02*
X179534619Y-94353237D01*
X179534619Y-94353237D02*
X179534619Y-94448475D01*
X179534619Y-94448475D02*
X179487000Y-94543713D01*
X179487000Y-94543713D02*
X179439380Y-94591332D01*
X179439380Y-94591332D02*
X179344142Y-94638951D01*
X179344142Y-94638951D02*
X179153666Y-94686570D01*
X179153666Y-94686570D02*
X178915571Y-94686570D01*
X178915571Y-94686570D02*
X178725095Y-94638951D01*
X178725095Y-94638951D02*
X178629857Y-94591332D01*
X178629857Y-94591332D02*
X178582238Y-94543713D01*
X178582238Y-94543713D02*
X178534619Y-94448475D01*
X178534619Y-93496094D02*
X178534619Y-93400856D01*
X178534619Y-93400856D02*
X178582238Y-93305618D01*
X178582238Y-93305618D02*
X178629857Y-93257999D01*
X178629857Y-93257999D02*
X178725095Y-93210380D01*
X178725095Y-93210380D02*
X178915571Y-93162761D01*
X178915571Y-93162761D02*
X179153666Y-93162761D01*
X179153666Y-93162761D02*
X179344142Y-93210380D01*
X179344142Y-93210380D02*
X179439380Y-93257999D01*
X179439380Y-93257999D02*
X179487000Y-93305618D01*
X179487000Y-93305618D02*
X179534619Y-93400856D01*
X179534619Y-93400856D02*
X179534619Y-93496094D01*
X179534619Y-93496094D02*
X179487000Y-93591332D01*
X179487000Y-93591332D02*
X179439380Y-93638951D01*
X179439380Y-93638951D02*
X179344142Y-93686570D01*
X179344142Y-93686570D02*
X179153666Y-93734189D01*
X179153666Y-93734189D02*
X178915571Y-93734189D01*
X178915571Y-93734189D02*
X178725095Y-93686570D01*
X178725095Y-93686570D02*
X178629857Y-93638951D01*
X178629857Y-93638951D02*
X178582238Y-93591332D01*
X178582238Y-93591332D02*
X178534619Y-93496094D01*
D14*
%TO.C,C1*%
X163504000Y-106072000D02*
X163504000Y-106517000D01*
X163504000Y-106072000D02*
X169744000Y-106072000D01*
X163504000Y-108367000D02*
X163504000Y-108812000D01*
X163504000Y-108812000D02*
X169744000Y-108812000D01*
X169744000Y-106072000D02*
X169744000Y-106517000D01*
X169744000Y-108367000D02*
X169744000Y-108812000D01*
%TO.C,C8*%
X159358000Y-91368000D02*
X158913000Y-91368000D01*
X159358000Y-91368000D02*
X159358000Y-97608000D01*
X157063000Y-91368000D02*
X156618000Y-91368000D01*
X156618000Y-91368000D02*
X156618000Y-97608000D01*
X159358000Y-97608000D02*
X158913000Y-97608000D01*
X157063000Y-97608000D02*
X156618000Y-97608000D01*
%TO.C,C5*%
X125556000Y-136353113D02*
G75*
G03*
X125556000Y-136353113I-2620000J0D01*
G01*
X122652000Y-133752113D02*
X123220000Y-133752113D01*
X122418000Y-133792113D02*
X123454000Y-133792113D01*
X122259000Y-133832113D02*
X123613000Y-133832113D01*
X122131000Y-133872113D02*
X123741000Y-133872113D01*
X122021000Y-133912113D02*
X123851000Y-133912113D01*
X121925000Y-133952113D02*
X123947000Y-133952113D01*
X121838000Y-133992113D02*
X124034000Y-133992113D01*
X121758000Y-134032113D02*
X124114000Y-134032113D01*
X123976000Y-134072113D02*
X124187000Y-134072113D01*
X121685000Y-134072113D02*
X121896000Y-134072113D01*
X123976000Y-134112113D02*
X124255000Y-134112113D01*
X121617000Y-134112113D02*
X121896000Y-134112113D01*
X123976000Y-134152113D02*
X124319000Y-134152113D01*
X121553000Y-134152113D02*
X121896000Y-134152113D01*
X123976000Y-134192113D02*
X124379000Y-134192113D01*
X121493000Y-134192113D02*
X121896000Y-134192113D01*
X123976000Y-134232113D02*
X124436000Y-134232113D01*
X121436000Y-134232113D02*
X121896000Y-134232113D01*
X123976000Y-134272113D02*
X124490000Y-134272113D01*
X121382000Y-134272113D02*
X121896000Y-134272113D01*
X123976000Y-134312113D02*
X124541000Y-134312113D01*
X121331000Y-134312113D02*
X121896000Y-134312113D01*
X123976000Y-134352113D02*
X124589000Y-134352113D01*
X121283000Y-134352113D02*
X121896000Y-134352113D01*
X123976000Y-134392113D02*
X124635000Y-134392113D01*
X121237000Y-134392113D02*
X121896000Y-134392113D01*
X123976000Y-134432113D02*
X124679000Y-134432113D01*
X121193000Y-134432113D02*
X121896000Y-134432113D01*
X123976000Y-134472113D02*
X124721000Y-134472113D01*
X121151000Y-134472113D02*
X121896000Y-134472113D01*
X123976000Y-134512113D02*
X124762000Y-134512113D01*
X121110000Y-134512113D02*
X121896000Y-134512113D01*
X123976000Y-134552113D02*
X124800000Y-134552113D01*
X121072000Y-134552113D02*
X121896000Y-134552113D01*
X123976000Y-134592113D02*
X124837000Y-134592113D01*
X121035000Y-134592113D02*
X121896000Y-134592113D01*
X123976000Y-134632113D02*
X124873000Y-134632113D01*
X120999000Y-134632113D02*
X121896000Y-134632113D01*
X123976000Y-134672113D02*
X124907000Y-134672113D01*
X120965000Y-134672113D02*
X121896000Y-134672113D01*
X123976000Y-134712113D02*
X124940000Y-134712113D01*
X120932000Y-134712113D02*
X121896000Y-134712113D01*
X123976000Y-134752113D02*
X124971000Y-134752113D01*
X120901000Y-134752113D02*
X121896000Y-134752113D01*
X123976000Y-134792113D02*
X125001000Y-134792113D01*
X120871000Y-134792113D02*
X121896000Y-134792113D01*
X123976000Y-134832113D02*
X125031000Y-134832113D01*
X120841000Y-134832113D02*
X121896000Y-134832113D01*
X123976000Y-134872113D02*
X125058000Y-134872113D01*
X120814000Y-134872113D02*
X121896000Y-134872113D01*
X123976000Y-134912113D02*
X125085000Y-134912113D01*
X120787000Y-134912113D02*
X121896000Y-134912113D01*
X123976000Y-134952113D02*
X125111000Y-134952113D01*
X120761000Y-134952113D02*
X121896000Y-134952113D01*
X123976000Y-134992113D02*
X125136000Y-134992113D01*
X120736000Y-134992113D02*
X121896000Y-134992113D01*
X123976000Y-135032113D02*
X125160000Y-135032113D01*
X120712000Y-135032113D02*
X121896000Y-135032113D01*
X123976000Y-135072113D02*
X125183000Y-135072113D01*
X120689000Y-135072113D02*
X121896000Y-135072113D01*
X123976000Y-135112113D02*
X125204000Y-135112113D01*
X120668000Y-135112113D02*
X121896000Y-135112113D01*
X123976000Y-135152113D02*
X125226000Y-135152113D01*
X120646000Y-135152113D02*
X121896000Y-135152113D01*
X123976000Y-135192113D02*
X125246000Y-135192113D01*
X120626000Y-135192113D02*
X121896000Y-135192113D01*
X123976000Y-135232113D02*
X125265000Y-135232113D01*
X120607000Y-135232113D02*
X121896000Y-135232113D01*
X123976000Y-135272113D02*
X125284000Y-135272113D01*
X120588000Y-135272113D02*
X121896000Y-135272113D01*
X123976000Y-135312113D02*
X125301000Y-135312113D01*
X120571000Y-135312113D02*
X121896000Y-135312113D01*
X123976000Y-135352113D02*
X125318000Y-135352113D01*
X120554000Y-135352113D02*
X121896000Y-135352113D01*
X123976000Y-135392113D02*
X125334000Y-135392113D01*
X120538000Y-135392113D02*
X121896000Y-135392113D01*
X123976000Y-135432113D02*
X125350000Y-135432113D01*
X120522000Y-135432113D02*
X121896000Y-135432113D01*
X123976000Y-135472113D02*
X125364000Y-135472113D01*
X120508000Y-135472113D02*
X121896000Y-135472113D01*
X123976000Y-135512113D02*
X125378000Y-135512113D01*
X120494000Y-135512113D02*
X121896000Y-135512113D01*
X123976000Y-135552113D02*
X125391000Y-135552113D01*
X120481000Y-135552113D02*
X121896000Y-135552113D01*
X123976000Y-135592113D02*
X125404000Y-135592113D01*
X120468000Y-135592113D02*
X121896000Y-135592113D01*
X123976000Y-135632113D02*
X125416000Y-135632113D01*
X120456000Y-135632113D02*
X121896000Y-135632113D01*
X123976000Y-135673113D02*
X125427000Y-135673113D01*
X120445000Y-135673113D02*
X121896000Y-135673113D01*
X123976000Y-135713113D02*
X125437000Y-135713113D01*
X120435000Y-135713113D02*
X121896000Y-135713113D01*
X123976000Y-135753113D02*
X125447000Y-135753113D01*
X120425000Y-135753113D02*
X121896000Y-135753113D01*
X123976000Y-135793113D02*
X125456000Y-135793113D01*
X120416000Y-135793113D02*
X121896000Y-135793113D01*
X123976000Y-135833113D02*
X125464000Y-135833113D01*
X120408000Y-135833113D02*
X121896000Y-135833113D01*
X123976000Y-135873113D02*
X125472000Y-135873113D01*
X120400000Y-135873113D02*
X121896000Y-135873113D01*
X123976000Y-135913113D02*
X125479000Y-135913113D01*
X120393000Y-135913113D02*
X121896000Y-135913113D01*
X123976000Y-135953113D02*
X125486000Y-135953113D01*
X120386000Y-135953113D02*
X121896000Y-135953113D01*
X123976000Y-135993113D02*
X125492000Y-135993113D01*
X120380000Y-135993113D02*
X121896000Y-135993113D01*
X123976000Y-136033113D02*
X125497000Y-136033113D01*
X120375000Y-136033113D02*
X121896000Y-136033113D01*
X123976000Y-136073113D02*
X125501000Y-136073113D01*
X120371000Y-136073113D02*
X121896000Y-136073113D01*
X123976000Y-136113113D02*
X125505000Y-136113113D01*
X120367000Y-136113113D02*
X121896000Y-136113113D01*
X120363000Y-136153113D02*
X125509000Y-136153113D01*
X120360000Y-136193113D02*
X125512000Y-136193113D01*
X120358000Y-136233113D02*
X125514000Y-136233113D01*
X120357000Y-136273113D02*
X125515000Y-136273113D01*
X120356000Y-136313113D02*
X125516000Y-136313113D01*
X120356000Y-136353113D02*
X125516000Y-136353113D01*
X121211000Y-138907888D02*
X121711000Y-138907888D01*
X121461000Y-139157888D02*
X121461000Y-138657888D01*
%TO.C,R2*%
X187325000Y-91718000D02*
X187325000Y-92488000D01*
X188695000Y-92488000D02*
X185955000Y-92488000D01*
X185955000Y-92488000D02*
X185955000Y-99028000D01*
X188695000Y-99028000D02*
X188695000Y-92488000D01*
X185955000Y-99028000D02*
X188695000Y-99028000D01*
X187325000Y-99798000D02*
X187325000Y-99028000D01*
%TO.C,C7*%
X134461000Y-91124000D02*
X134016000Y-91124000D01*
X134461000Y-91124000D02*
X134461000Y-97364000D01*
X132166000Y-91124000D02*
X131721000Y-91124000D01*
X131721000Y-91124000D02*
X131721000Y-97364000D01*
X134461000Y-97364000D02*
X134016000Y-97364000D01*
X132166000Y-97364000D02*
X131721000Y-97364000D01*
%TO.C,C2*%
X184118000Y-106326000D02*
X184118000Y-106771000D01*
X184118000Y-106326000D02*
X190358000Y-106326000D01*
X184118000Y-108621000D02*
X184118000Y-109066000D01*
X184118000Y-109066000D02*
X190358000Y-109066000D01*
X190358000Y-106326000D02*
X190358000Y-106771000D01*
X190358000Y-108621000D02*
X190358000Y-109066000D01*
%TO.C,C3*%
X147940000Y-105510000D02*
X147940000Y-105065000D01*
X147940000Y-105510000D02*
X141700000Y-105510000D01*
X147940000Y-103215000D02*
X147940000Y-102770000D01*
X147940000Y-102770000D02*
X141700000Y-102770000D01*
X141700000Y-105510000D02*
X141700000Y-105065000D01*
X141700000Y-103215000D02*
X141700000Y-102770000D01*
%TO.C,R1*%
X184150000Y-91718000D02*
X184150000Y-92488000D01*
X185520000Y-92488000D02*
X182780000Y-92488000D01*
X182780000Y-92488000D02*
X182780000Y-99028000D01*
X185520000Y-99028000D02*
X185520000Y-92488000D01*
X182780000Y-99028000D02*
X185520000Y-99028000D01*
X184150000Y-99798000D02*
X184150000Y-99028000D01*
%TO.C,U7*%
X195520000Y-110370000D02*
X195520000Y-130930000D01*
X195520000Y-130930000D02*
X205800000Y-130930000D01*
X198010000Y-110430000D02*
X198010000Y-130870000D01*
X198010000Y-130870000D02*
X203310000Y-130870000D01*
X199660000Y-110430000D02*
X198010000Y-110430000D01*
X203310000Y-110430000D02*
X201660000Y-110430000D01*
X203310000Y-130870000D02*
X203310000Y-110430000D01*
X205800000Y-110370000D02*
X195520000Y-110370000D01*
X205800000Y-130930000D02*
X205800000Y-110370000D01*
X199660000Y-110430000D02*
G75*
G03*
X201660000Y-110430000I1000000J0D01*
G01*
%TO.C,J4*%
X115002000Y-118812000D02*
X116332000Y-118812000D01*
X115002000Y-120142000D02*
X115002000Y-118812000D01*
X115002000Y-121412000D02*
X115002000Y-124012000D01*
X115002000Y-121412000D02*
X117602000Y-121412000D01*
X115002000Y-124012000D02*
X120202000Y-124012000D01*
X117602000Y-118812000D02*
X120202000Y-118812000D01*
X117602000Y-121412000D02*
X117602000Y-118812000D01*
X120202000Y-118812000D02*
X120202000Y-124012000D01*
%TO.C,U4*%
X125924000Y-106052000D02*
X125924000Y-126612000D01*
X125924000Y-126612000D02*
X136204000Y-126612000D01*
X128414000Y-106112000D02*
X128414000Y-126552000D01*
X128414000Y-126552000D02*
X133714000Y-126552000D01*
X130064000Y-106112000D02*
X128414000Y-106112000D01*
X133714000Y-106112000D02*
X132064000Y-106112000D01*
X133714000Y-126552000D02*
X133714000Y-106112000D01*
X136204000Y-106052000D02*
X125924000Y-106052000D01*
X136204000Y-126612000D02*
X136204000Y-106052000D01*
X130064000Y-106112000D02*
G75*
G03*
X132064000Y-106112000I1000000J0D01*
G01*
%TO.C,C4*%
X129214000Y-102770000D02*
X129214000Y-103215000D01*
X129214000Y-102770000D02*
X135454000Y-102770000D01*
X129214000Y-105065000D02*
X129214000Y-105510000D01*
X129214000Y-105510000D02*
X135454000Y-105510000D01*
X135454000Y-102770000D02*
X135454000Y-103215000D01*
X135454000Y-105065000D02*
X135454000Y-105510000D01*
%TO.C,R3*%
X190500000Y-91718000D02*
X190500000Y-92488000D01*
X191870000Y-92488000D02*
X189130000Y-92488000D01*
X189130000Y-92488000D02*
X189130000Y-99028000D01*
X191870000Y-99028000D02*
X191870000Y-92488000D01*
X189130000Y-99028000D02*
X191870000Y-99028000D01*
X190500000Y-99798000D02*
X190500000Y-99028000D01*
%TO.C,R5*%
X196850000Y-91718000D02*
X196850000Y-92488000D01*
X198220000Y-92488000D02*
X195480000Y-92488000D01*
X195480000Y-92488000D02*
X195480000Y-99028000D01*
X198220000Y-99028000D02*
X198220000Y-92488000D01*
X195480000Y-99028000D02*
X198220000Y-99028000D01*
X196850000Y-99798000D02*
X196850000Y-99028000D01*
%TO.C,J2*%
X115002000Y-101032000D02*
X116332000Y-101032000D01*
X115002000Y-102362000D02*
X115002000Y-101032000D01*
X115002000Y-103632000D02*
X115002000Y-108772000D01*
X115002000Y-103632000D02*
X117602000Y-103632000D01*
X115002000Y-108772000D02*
X120202000Y-108772000D01*
X117602000Y-101032000D02*
X120202000Y-101032000D01*
X117602000Y-103632000D02*
X117602000Y-101032000D01*
X120202000Y-101032000D02*
X120202000Y-108772000D01*
%TO.C,U3*%
X138380000Y-106042000D02*
X138380000Y-126602000D01*
X138380000Y-126602000D02*
X148660000Y-126602000D01*
X140870000Y-106102000D02*
X140870000Y-126542000D01*
X140870000Y-126542000D02*
X146170000Y-126542000D01*
X142520000Y-106102000D02*
X140870000Y-106102000D01*
X146170000Y-106102000D02*
X144520000Y-106102000D01*
X146170000Y-126542000D02*
X146170000Y-106102000D01*
X148660000Y-106042000D02*
X138380000Y-106042000D01*
X148660000Y-126602000D02*
X148660000Y-106042000D01*
X142520000Y-106102000D02*
G75*
G03*
X144520000Y-106102000I1000000J0D01*
G01*
%TO.C,J1*%
X115002000Y-94232000D02*
X116332000Y-94232000D01*
X115002000Y-95562000D02*
X115002000Y-94232000D01*
X115002000Y-96832000D02*
X115002000Y-99432000D01*
X115002000Y-96832000D02*
X117602000Y-96832000D01*
X115002000Y-99432000D02*
X120202000Y-99432000D01*
X117602000Y-94232000D02*
X120202000Y-94232000D01*
X117602000Y-96832000D02*
X117602000Y-94232000D01*
X120202000Y-94232000D02*
X120202000Y-99432000D01*
%TO.C,U2*%
X174263000Y-110996000D02*
X174263000Y-130796000D01*
X174263000Y-130796000D02*
X192513000Y-130796000D01*
X175263000Y-109996000D02*
X174263000Y-110996000D01*
X182388000Y-109996000D02*
X175263000Y-109996000D01*
X192513000Y-109996000D02*
X184388000Y-109996000D01*
X192513000Y-130796000D02*
X192513000Y-109996000D01*
%TO.C,R6*%
X200025000Y-91718000D02*
X200025000Y-92488000D01*
X201395000Y-92488000D02*
X198655000Y-92488000D01*
X198655000Y-92488000D02*
X198655000Y-99028000D01*
X201395000Y-99028000D02*
X201395000Y-92488000D01*
X198655000Y-99028000D02*
X201395000Y-99028000D01*
X200025000Y-99798000D02*
X200025000Y-99028000D01*
%TO.C,C6*%
X205090000Y-109574000D02*
X205090000Y-109129000D01*
X205090000Y-109574000D02*
X198850000Y-109574000D01*
X205090000Y-107279000D02*
X205090000Y-106834000D01*
X205090000Y-106834000D02*
X198850000Y-106834000D01*
X198850000Y-109574000D02*
X198850000Y-109129000D01*
X198850000Y-107279000D02*
X198850000Y-106834000D01*
%TO.C,U5*%
X135003000Y-100644000D02*
X153023000Y-100644000D01*
X153023000Y-100644000D02*
X153023000Y-90364000D01*
X135063000Y-98154000D02*
X152963000Y-98154000D01*
X152963000Y-98154000D02*
X152963000Y-92854000D01*
X135063000Y-96504000D02*
X135063000Y-98154000D01*
X135063000Y-92854000D02*
X135063000Y-94504000D01*
X152963000Y-92854000D02*
X135063000Y-92854000D01*
X135003000Y-90364000D02*
X135003000Y-100644000D01*
X153023000Y-90364000D02*
X135003000Y-90364000D01*
X135063000Y-96504000D02*
G75*
G03*
X135063000Y-94504000I0J1000000D01*
G01*
%TO.C,R4*%
X193675000Y-91718000D02*
X193675000Y-92488000D01*
X195045000Y-92488000D02*
X192305000Y-92488000D01*
X192305000Y-92488000D02*
X192305000Y-99028000D01*
X195045000Y-99028000D02*
X195045000Y-92488000D01*
X192305000Y-99028000D02*
X195045000Y-99028000D01*
X193675000Y-99798000D02*
X193675000Y-99028000D01*
%TO.C,J3*%
X115002000Y-111192000D02*
X116332000Y-111192000D01*
X115002000Y-112522000D02*
X115002000Y-111192000D01*
X115002000Y-113792000D02*
X115002000Y-116392000D01*
X115002000Y-113792000D02*
X117602000Y-113792000D01*
X115002000Y-116392000D02*
X120202000Y-116392000D01*
X117602000Y-111192000D02*
X120202000Y-111192000D01*
X117602000Y-113792000D02*
X117602000Y-111192000D01*
X120202000Y-111192000D02*
X120202000Y-116392000D01*
%TO.C,U1*%
X171939000Y-130796000D02*
X171939000Y-109996000D01*
X171939000Y-109996000D02*
X163814000Y-109996000D01*
X161814000Y-109996000D02*
X154689000Y-109996000D01*
X154689000Y-109996000D02*
X153689000Y-110996000D01*
X153689000Y-130796000D02*
X171939000Y-130796000D01*
X153689000Y-110996000D02*
X153689000Y-130796000D01*
%TO.C,U6*%
X160112000Y-100898000D02*
X178132000Y-100898000D01*
X178132000Y-100898000D02*
X178132000Y-90618000D01*
X160172000Y-98408000D02*
X178072000Y-98408000D01*
X178072000Y-98408000D02*
X178072000Y-93108000D01*
X160172000Y-96758000D02*
X160172000Y-98408000D01*
X160172000Y-93108000D02*
X160172000Y-94758000D01*
X178072000Y-93108000D02*
X160172000Y-93108000D01*
X160112000Y-90618000D02*
X160112000Y-100898000D01*
X178132000Y-90618000D02*
X160112000Y-90618000D01*
X160172000Y-96758000D02*
G75*
G03*
X160172000Y-94758000I0J1000000D01*
G01*
%TD*%
M02*
