%TF.GenerationSoftware,KiCad,Pcbnew,7.0.1*%
%TF.CreationDate,2023-06-02T18:33:03+09:00*%
%TF.ProjectId,project2_2,70726f6a-6563-4743-925f-322e6b696361,rev?*%
%TF.SameCoordinates,Original*%
%TF.FileFunction,Drillmap*%
%TF.FilePolarity,Positive*%
%FSLAX45Y45*%
G04 Gerber Fmt 4.5, Leading zero omitted, Abs format (unit mm)*
G04 Created by KiCad (PCBNEW 7.0.1) date 2023-06-02 18:33:03*
%MOMM*%
%LPD*%
G01*
G04 APERTURE LIST*
%ADD10C,0.100000*%
%ADD11C,0.200000*%
G04 APERTURE END LIST*
D10*
X10720252Y-8818009D02*
X20790263Y-8820767D01*
X20790263Y-8820767D02*
X20790889Y-14036807D01*
X19531029Y-15131051D02*
X19531021Y-14036512D01*
X19531021Y-14036512D02*
X20790889Y-14036807D01*
X10720771Y-13039679D02*
X10720252Y-8818009D01*
X11768958Y-14034963D02*
X11769067Y-13040169D01*
X12979911Y-15132594D02*
G75*
G03*
X13063780Y-15216249I83869J214D01*
G01*
X13063780Y-15216249D02*
X19449818Y-15213464D01*
X11769067Y-13040169D02*
X10720771Y-13039679D01*
X19258457Y-13638748D02*
G75*
G03*
X19258457Y-13638748I-214989J0D01*
G01*
X13658335Y-13121930D02*
G75*
G03*
X13658335Y-13121930I-214872J0D01*
G01*
X19449818Y-15213460D02*
G75*
G03*
X19531029Y-15131051I-1208J82411D01*
G01*
X11768958Y-14034963D02*
X12978982Y-14035406D01*
X12978982Y-14035406D02*
X12979908Y-15132594D01*
D11*
X10962871Y-15533773D02*
X10962871Y-15333773D01*
X10962871Y-15333773D02*
X11010490Y-15333773D01*
X11010490Y-15333773D02*
X11039061Y-15343297D01*
X11039061Y-15343297D02*
X11058109Y-15362344D01*
X11058109Y-15362344D02*
X11067632Y-15381392D01*
X11067632Y-15381392D02*
X11077156Y-15419487D01*
X11077156Y-15419487D02*
X11077156Y-15448058D01*
X11077156Y-15448058D02*
X11067632Y-15486154D01*
X11067632Y-15486154D02*
X11058109Y-15505201D01*
X11058109Y-15505201D02*
X11039061Y-15524249D01*
X11039061Y-15524249D02*
X11010490Y-15533773D01*
X11010490Y-15533773D02*
X10962871Y-15533773D01*
X11162871Y-15533773D02*
X11162871Y-15400439D01*
X11162871Y-15438535D02*
X11172394Y-15419487D01*
X11172394Y-15419487D02*
X11181918Y-15409963D01*
X11181918Y-15409963D02*
X11200966Y-15400439D01*
X11200966Y-15400439D02*
X11220013Y-15400439D01*
X11286680Y-15533773D02*
X11286680Y-15400439D01*
X11286680Y-15333773D02*
X11277156Y-15343297D01*
X11277156Y-15343297D02*
X11286680Y-15352820D01*
X11286680Y-15352820D02*
X11296204Y-15343297D01*
X11296204Y-15343297D02*
X11286680Y-15333773D01*
X11286680Y-15333773D02*
X11286680Y-15352820D01*
X11410489Y-15533773D02*
X11391442Y-15524249D01*
X11391442Y-15524249D02*
X11381918Y-15505201D01*
X11381918Y-15505201D02*
X11381918Y-15333773D01*
X11515251Y-15533773D02*
X11496204Y-15524249D01*
X11496204Y-15524249D02*
X11486680Y-15505201D01*
X11486680Y-15505201D02*
X11486680Y-15333773D01*
X11743823Y-15533773D02*
X11743823Y-15333773D01*
X11743823Y-15333773D02*
X11810490Y-15476630D01*
X11810490Y-15476630D02*
X11877156Y-15333773D01*
X11877156Y-15333773D02*
X11877156Y-15533773D01*
X12058109Y-15533773D02*
X12058109Y-15429011D01*
X12058109Y-15429011D02*
X12048585Y-15409963D01*
X12048585Y-15409963D02*
X12029537Y-15400439D01*
X12029537Y-15400439D02*
X11991442Y-15400439D01*
X11991442Y-15400439D02*
X11972394Y-15409963D01*
X12058109Y-15524249D02*
X12039061Y-15533773D01*
X12039061Y-15533773D02*
X11991442Y-15533773D01*
X11991442Y-15533773D02*
X11972394Y-15524249D01*
X11972394Y-15524249D02*
X11962870Y-15505201D01*
X11962870Y-15505201D02*
X11962870Y-15486154D01*
X11962870Y-15486154D02*
X11972394Y-15467106D01*
X11972394Y-15467106D02*
X11991442Y-15457582D01*
X11991442Y-15457582D02*
X12039061Y-15457582D01*
X12039061Y-15457582D02*
X12058109Y-15448058D01*
X12153347Y-15400439D02*
X12153347Y-15600439D01*
X12153347Y-15409963D02*
X12172394Y-15400439D01*
X12172394Y-15400439D02*
X12210490Y-15400439D01*
X12210490Y-15400439D02*
X12229537Y-15409963D01*
X12229537Y-15409963D02*
X12239061Y-15419487D01*
X12239061Y-15419487D02*
X12248585Y-15438535D01*
X12248585Y-15438535D02*
X12248585Y-15495677D01*
X12248585Y-15495677D02*
X12239061Y-15514725D01*
X12239061Y-15514725D02*
X12229537Y-15524249D01*
X12229537Y-15524249D02*
X12210490Y-15533773D01*
X12210490Y-15533773D02*
X12172394Y-15533773D01*
X12172394Y-15533773D02*
X12153347Y-15524249D01*
X12334299Y-15514725D02*
X12343823Y-15524249D01*
X12343823Y-15524249D02*
X12334299Y-15533773D01*
X12334299Y-15533773D02*
X12324775Y-15524249D01*
X12324775Y-15524249D02*
X12334299Y-15514725D01*
X12334299Y-15514725D02*
X12334299Y-15533773D01*
X12334299Y-15409963D02*
X12343823Y-15419487D01*
X12343823Y-15419487D02*
X12334299Y-15429011D01*
X12334299Y-15429011D02*
X12324775Y-15419487D01*
X12324775Y-15419487D02*
X12334299Y-15409963D01*
X12334299Y-15409963D02*
X12334299Y-15429011D01*
M02*
