M48
; DRILL file {KiCad 7.0.1} date Fri Jun  2 18:33:02 2023
; FORMAT={-:-/ absolute / metric / decimal}
; #@! TF.CreationDate,2023-06-02T18:33:02+09:00
; #@! TF.GenerationSoftware,Kicad,Pcbnew,7.0.1
; #@! TF.FileFunction,Plated,1,2,PTH
FMAT,2
METRIC
; #@! TA.AperFunction,Plated,PTH,ViaDrill
T1C0.400
; #@! TA.AperFunction,Plated,PTH,ComponentDrill
T2C0.800
; #@! TA.AperFunction,Plated,PTH,ComponentDrill
T3C1.000
%
G90
G05
T1
X121.666Y-115.57
X122.555Y-107.315
X125.666Y-97.218
X125.722Y-95.75
X125.737Y-94.321
X131.064Y-110.236
X131.064Y-112.522
X131.064Y-115.062
X131.064Y-117.602
X131.064Y-120.142
X131.064Y-122.682
X132.792Y-139.904
X134.112Y-139.904
X139.192Y-96.266
X139.954Y-129.794
X142.875Y-137.668
X144.018Y-133.35
X144.272Y-137.668
X144.518Y-108.847
X145.542Y-115.316
X145.542Y-117.856
X145.542Y-120.396
X147.32Y-129.794
X147.32Y-139.7
X148.59Y-139.7
X149.606Y-110.236
X149.606Y-112.268
X149.86Y-135.382
X149.86Y-139.7
X150.114Y-119.126
X151.638Y-139.7
X153.15Y-128.288
X153.2Y-129.54
X153.625Y-103.46
X153.924Y-124.206
X154.178Y-139.7
X154.94Y-113.792
X154.985Y-103.55
X156.464Y-139.7
X156.572Y-103.505
X157.48Y-108.966
X157.48Y-113.792
X158.115Y-103.505
X159.085Y-129.501
X159.766Y-132.842
X159.766Y-137.668
X161.544Y-129.794
X161.798Y-105.156
X162.814Y-132.842
X162.814Y-138.176
X165.354Y-138.176
X166.116Y-132.842
X166.624Y-129.794
X167.894Y-97.028
X169.164Y-137.414
X169.99Y-139.636
X170.116Y-129.604
X171.196Y-135.382
X172.466Y-139.7
X173.228Y-106.934
X173.228Y-112.522
X173.228Y-115.062
X173.228Y-128.524
X173.99Y-139.7
X175.768Y-128.524
X176.022Y-106.934
X176.53Y-109.855
X177.8Y-137.668
X177.8Y-139.916
X180.34Y-135.382
X180.975Y-96.52
X180.975Y-97.79
X181.102Y-107.315
X181.61Y-129.794
X182.245Y-107.315
X182.544Y-135.046
X183.388Y-129.54
X184.15Y-136.398
X185.674Y-136.398
X187.198Y-136.398
X188.595Y-132.804
X190.754Y-112.776
X191.516Y-131.064
X191.77Y-109.22
X193.04Y-109.22
X193.04Y-114.3
X193.802Y-134.62
X194.056Y-131.064
X194.31Y-109.22
X194.818Y-133.604
X194.822Y-137.418
X195.834Y-132.588
X196.596Y-137.414
X196.85Y-103.632
X197.866Y-136.144
X198.628Y-123.19
X199.136Y-114.046
X199.136Y-134.874
X200.152Y-103.632
X202.184Y-116.84
X202.184Y-120.65
X202.184Y-123.19
X202.184Y-125.984
X202.692Y-133.096
X202.692Y-134.874
X202.692Y-136.398
X204.978Y-105.156
T2
X122.936Y-135.103
X122.936Y-137.603
X127.254Y-107.442
X127.254Y-109.982
X127.254Y-112.522
X127.254Y-115.062
X127.254Y-117.602
X127.254Y-120.142
X127.254Y-122.682
X127.254Y-125.222
X129.834Y-104.14
X133.091Y-91.744
X133.091Y-96.744
X134.834Y-104.14
X134.874Y-107.442
X134.874Y-109.982
X134.874Y-112.522
X134.874Y-115.062
X134.874Y-117.602
X134.874Y-120.142
X134.874Y-122.682
X134.874Y-125.222
X136.393Y-91.694
X136.393Y-99.314
X138.933Y-91.694
X138.933Y-99.314
X139.71Y-107.432
X139.71Y-109.972
X139.71Y-112.512
X139.71Y-115.052
X139.71Y-117.592
X139.71Y-120.132
X139.71Y-122.672
X139.71Y-125.212
X141.473Y-91.694
X141.473Y-99.314
X142.32Y-104.14
X144.013Y-91.694
X144.013Y-99.314
X146.553Y-91.694
X146.553Y-99.314
X147.32Y-104.14
X147.33Y-107.432
X147.33Y-109.972
X147.33Y-112.512
X147.33Y-115.052
X147.33Y-117.592
X147.33Y-120.132
X147.33Y-122.672
X147.33Y-125.212
X149.093Y-91.694
X149.093Y-99.314
X151.633Y-91.694
X151.633Y-99.314
X156.464Y-115.316
X156.464Y-117.856
X156.464Y-120.396
X156.464Y-122.936
X156.464Y-125.476
X157.988Y-91.988
X157.988Y-96.988
X159.004Y-112.776
X159.004Y-115.316
X159.004Y-117.856
X159.004Y-120.396
X159.004Y-122.936
X159.004Y-125.476
X159.004Y-128.016
X161.502Y-91.948
X161.502Y-99.568
X161.544Y-112.776
X161.544Y-115.316
X161.544Y-125.476
X161.544Y-128.016
X164.042Y-91.948
X164.042Y-99.568
X164.084Y-112.776
X164.084Y-115.316
X164.084Y-125.476
X164.084Y-128.016
X164.124Y-107.442
X166.582Y-91.948
X166.582Y-99.568
X166.624Y-112.776
X166.624Y-115.316
X166.624Y-117.856
X166.624Y-120.396
X166.624Y-122.936
X166.624Y-125.476
X166.624Y-128.016
X169.122Y-91.948
X169.122Y-99.568
X169.124Y-107.442
X169.164Y-115.316
X169.164Y-117.856
X169.164Y-120.396
X169.164Y-122.936
X169.164Y-125.476
X171.662Y-91.948
X171.662Y-99.568
X174.202Y-91.948
X174.202Y-99.568
X176.742Y-91.948
X176.742Y-99.568
X177.038Y-115.316
X177.038Y-117.856
X177.038Y-120.396
X177.038Y-122.936
X177.038Y-125.476
X179.578Y-112.776
X179.578Y-115.316
X179.578Y-117.856
X179.578Y-120.396
X179.578Y-122.936
X179.578Y-125.476
X179.578Y-128.016
X182.118Y-112.776
X182.118Y-115.316
X182.118Y-125.476
X182.118Y-128.016
X184.15Y-90.678
X184.15Y-100.838
X184.658Y-112.776
X184.658Y-115.316
X184.658Y-125.476
X184.658Y-128.016
X184.738Y-107.696
X187.198Y-112.776
X187.198Y-115.316
X187.198Y-117.856
X187.198Y-120.396
X187.198Y-122.936
X187.198Y-125.476
X187.198Y-128.016
X187.325Y-90.678
X187.325Y-100.838
X189.738Y-107.696
X189.738Y-115.316
X189.738Y-117.856
X189.738Y-120.396
X189.738Y-122.936
X189.738Y-125.476
X190.5Y-90.678
X190.5Y-100.838
X193.675Y-90.678
X193.675Y-100.838
X196.85Y-90.678
X196.85Y-100.838
X196.85Y-111.76
X196.85Y-114.3
X196.85Y-116.84
X196.85Y-119.38
X196.85Y-121.92
X196.85Y-124.46
X196.85Y-127.0
X196.85Y-129.54
X199.47Y-108.204
X200.025Y-90.678
X200.025Y-100.838
X204.47Y-108.204
X204.47Y-111.76
X204.47Y-114.3
X204.47Y-116.84
X204.47Y-119.38
X204.47Y-121.92
X204.47Y-124.46
X204.47Y-127.0
X204.47Y-129.54
T3
X116.332Y-95.562
X116.332Y-98.102
X116.332Y-102.362
X116.332Y-104.902
X116.332Y-107.442
X116.332Y-112.522
X116.332Y-115.062
X116.332Y-120.142
X116.332Y-122.682
X118.872Y-95.562
X118.872Y-98.102
X118.872Y-102.362
X118.872Y-104.902
X118.872Y-107.442
X118.872Y-112.522
X118.872Y-115.062
X118.872Y-120.142
X118.872Y-122.682
T0
M30
