M48
; DRILL file {KiCad (7.0.0)} date Mon Feb 27 14:20:23 2023
; FORMAT={-:-/ absolute / inch / decimal}
; #@! TF.CreationDate,2023-02-27T14:20:23+09:00
; #@! TF.GenerationSoftware,Kicad,Pcbnew,(7.0.0)
; #@! TF.FileFunction,Plated,1,2,PTH
FMAT,2
INCH
; #@! TA.AperFunction,Plated,PTH,ViaDrill
T1C0.0157
; #@! TA.AperFunction,Plated,PTH,ComponentDrill
T2C0.0315
%
G90
G05
T1
X4.188Y-3.5
X4.788Y-5.1
X4.974Y-4.5975
X5.088Y-4.7
X5.188Y-4.8
X5.188Y-5.2
X5.2344Y-5.0652
X5.288Y-5.0
X5.2923Y-5.1261
X5.324Y-5.2153
X5.3414Y-5.0498
X5.388Y-5.1
X5.4821Y-4.9698
X5.5149Y-5.2029
X5.5183Y-4.9996
X5.5358Y-4.9483
X5.5647Y-5.0019
X5.6103Y-5.0029
X5.6536Y-5.0
X5.688Y-4.1
X5.688Y-5.0659
X5.688Y-5.1573
X5.7451Y-4.9996
X5.788Y-4.2
X5.788Y-5.0
X5.834Y-3.1606
X5.8507Y-5.0762
X5.888Y-4.4
X5.8883Y-4.9507
X5.9436Y-4.9905
X5.9441Y-5.1031
X6.0874Y-4.9905
X6.089Y-5.2
X6.1162Y-5.0746
X6.1671Y-5.2
X6.1714Y-5.0799
X6.2163Y-4.9994
X6.2318Y-5.0808
X6.2878Y-5.0784
X6.288Y-5.2
X6.388Y-3.4
X6.388Y-5.2
X6.488Y-3.4
X6.488Y-3.5
X6.488Y-5.2
X6.588Y-3.4
X6.588Y-3.5
X6.588Y-4.1
X6.588Y-5.2
X6.688Y-3.9
X6.688Y-4.0
X6.688Y-4.2
X6.688Y-4.3
X6.688Y-4.5
X6.688Y-4.6
X6.688Y-4.7
X6.688Y-4.8
X6.7779Y-3.8101
X6.788Y-4.8
X7.0144Y-4.7728
X7.0238Y-5.1263
X7.0353Y-4.1516
X7.0408Y-3.3996
X7.0439Y-4.9172
X7.088Y-3.4
X7.1173Y-3.8803
X7.1878Y-4.279
X7.188Y-4.2
X7.3442Y-3.8577
X7.3474Y-3.7486
X7.488Y-4.2
X7.488Y-4.3
T2
X3.8878Y-3.2494
X3.8878Y-3.3494
X3.8878Y-3.4494
X3.8878Y-3.5494
X3.8878Y-3.6494
X3.8878Y-3.7494
X3.8878Y-3.8494
X3.8878Y-3.9494
X3.8878Y-4.0494
X3.8878Y-4.1494
X3.8878Y-4.2494
X3.8878Y-4.3494
X3.8878Y-4.4494
X3.8878Y-4.5494
X4.288Y-3.1
X4.388Y-5.0
X4.388Y-5.0984
X4.4849Y-3.1
X4.4878Y-3.2494
X4.4878Y-3.3494
X4.4878Y-3.4494
X4.4878Y-3.5494
X4.4878Y-3.6494
X4.4878Y-3.7494
X4.4878Y-3.8494
X4.4878Y-3.9494
X4.4878Y-4.0494
X4.4878Y-4.1494
X4.4878Y-4.2494
X4.4878Y-4.3494
X4.4878Y-4.4494
X4.4878Y-4.5494
X4.6878Y-3.6
X4.6878Y-3.7
X4.6878Y-3.8
X4.6878Y-3.9
X4.6878Y-4.0
X4.6878Y-4.1
X4.6878Y-4.2
X4.6878Y-4.3
X4.6878Y-4.4
X4.6878Y-4.5
X4.6878Y-4.6
X4.6878Y-4.7
X4.6878Y-4.8
X4.6878Y-4.9
X5.0357Y-2.796
X5.0376Y-2.9496
X5.0376Y-3.2496
X5.0959Y-3.4399
X5.1376Y-2.9496
X5.1376Y-3.2496
X5.2326Y-2.796
X5.2376Y-2.9496
X5.2376Y-3.2496
X5.2878Y-3.6
X5.2878Y-3.7
X5.2878Y-3.8
X5.2878Y-3.9
X5.2878Y-4.0
X5.2878Y-4.1
X5.2878Y-4.2
X5.2878Y-4.3
X5.2878Y-4.4
X5.2878Y-4.5
X5.2878Y-4.6
X5.2878Y-4.7
X5.2878Y-4.8
X5.2878Y-4.9
X5.2928Y-3.4399
X5.3376Y-2.9496
X5.3376Y-3.2496
X5.4376Y-2.9496
X5.4376Y-3.2496
X5.488Y-3.6
X5.488Y-3.7
X5.488Y-3.8
X5.488Y-3.9
X5.488Y-4.0
X5.488Y-4.1
X5.488Y-4.2
X5.488Y-4.3
X5.488Y-4.4
X5.488Y-4.5
X5.488Y-4.6
X5.488Y-4.7
X5.488Y-4.8
X5.488Y-4.9
X5.5376Y-2.9496
X5.5376Y-3.2496
X5.6376Y-2.9496
X5.6376Y-3.2496
X5.7376Y-2.9496
X5.7376Y-3.2496
X5.8879Y-3.4312
X6.0839Y-2.7852
X6.0847Y-3.4312
X6.0878Y-2.9496
X6.0878Y-3.2496
X6.088Y-3.6
X6.088Y-3.7
X6.088Y-3.8
X6.088Y-3.9
X6.088Y-4.0
X6.088Y-4.1
X6.088Y-4.2
X6.088Y-4.3
X6.088Y-4.4
X6.088Y-4.5
X6.088Y-4.6
X6.088Y-4.7
X6.088Y-4.8
X6.088Y-4.9
X6.1878Y-2.9496
X6.1878Y-3.2496
X6.2807Y-2.7852
X6.2878Y-2.9496
X6.2878Y-3.2496
X6.288Y-3.6
X6.288Y-3.7
X6.288Y-3.8
X6.288Y-3.9
X6.288Y-4.0
X6.288Y-4.1
X6.288Y-4.2
X6.288Y-4.3
X6.288Y-4.4
X6.288Y-4.5
X6.288Y-4.6
X6.288Y-4.7
X6.288Y-4.8
X6.288Y-4.9
X6.3878Y-2.9496
X6.3878Y-3.2496
X6.4878Y-2.9496
X6.4878Y-3.2496
X6.5878Y-2.9496
X6.5878Y-3.2496
X6.6878Y-2.9496
X6.6878Y-3.2496
X6.6974Y-3.4281
X6.888Y-3.6
X6.888Y-3.7
X6.888Y-3.8
X6.888Y-3.9
X6.888Y-4.0
X6.888Y-4.1
X6.888Y-4.2
X6.888Y-4.3
X6.888Y-4.4
X6.888Y-4.5
X6.888Y-4.6
X6.888Y-4.7
X6.888Y-4.8
X6.888Y-4.9
X6.8942Y-3.4281
X6.988Y-2.8
X6.988Y-3.2
X7.1286Y-2.8
X7.1286Y-3.2
X7.188Y-3.4
X7.188Y-3.5
X7.188Y-3.6
X7.188Y-3.7
X7.188Y-3.8
X7.188Y-3.9
X7.188Y-4.0
X7.188Y-4.1
X7.188Y-4.4
X7.188Y-4.5
X7.188Y-4.6
X7.188Y-4.7
X7.188Y-4.8
X7.188Y-4.9
X7.188Y-5.0
X7.2659Y-2.8006
X7.2659Y-3.2006
X7.388Y-2.8
X7.388Y-3.2
X7.488Y-3.4
X7.488Y-3.5
X7.488Y-3.6
X7.488Y-3.7
X7.488Y-3.8
X7.488Y-3.9
X7.488Y-4.0
X7.488Y-4.1
X7.488Y-4.4
X7.488Y-4.5
X7.488Y-4.6
X7.488Y-4.7
X7.488Y-4.8
X7.488Y-4.9
X7.488Y-5.0
X7.6389Y-4.3966
X7.6389Y-4.5934
X7.644Y-3.3992
X7.644Y-3.596
T0
M30
