%TF.GenerationSoftware,KiCad,Pcbnew,(7.0.0)*%
%TF.CreationDate,2023-02-27T14:18:29+09:00*%
%TF.ProjectId,ykp74,796b7037-342e-46b6-9963-61645f706362,rev?*%
%TF.SameCoordinates,Original*%
%TF.FileFunction,Legend,Bot*%
%TF.FilePolarity,Positive*%
%FSLAX46Y46*%
G04 Gerber Fmt 4.6, Leading zero omitted, Abs format (unit mm)*
G04 Created by KiCad (PCBNEW (7.0.0)) date 2023-02-27 14:18:29*
%MOMM*%
%LPD*%
G01*
G04 APERTURE LIST*
%ADD10C,0.100000*%
G04 APERTURE END LIST*
D10*
%TO.C,CE1*%
X131021194Y-133335237D02*
X131002146Y-133297142D01*
X131002146Y-133297142D02*
X131002146Y-133239999D01*
X131002146Y-133239999D02*
X131021194Y-133182856D01*
X131021194Y-133182856D02*
X131059289Y-133144761D01*
X131059289Y-133144761D02*
X131097384Y-133125714D01*
X131097384Y-133125714D02*
X131173574Y-133106666D01*
X131173574Y-133106666D02*
X131230717Y-133106666D01*
X131230717Y-133106666D02*
X131306908Y-133125714D01*
X131306908Y-133125714D02*
X131345003Y-133144761D01*
X131345003Y-133144761D02*
X131383098Y-133182856D01*
X131383098Y-133182856D02*
X131402146Y-133239999D01*
X131402146Y-133239999D02*
X131402146Y-133278095D01*
X131402146Y-133278095D02*
X131383098Y-133335237D01*
X131383098Y-133335237D02*
X131364051Y-133354285D01*
X131364051Y-133354285D02*
X131230717Y-133354285D01*
X131230717Y-133354285D02*
X131230717Y-133278095D01*
X131402146Y-133525714D02*
X131002146Y-133525714D01*
X131002146Y-133525714D02*
X131402146Y-133754285D01*
X131402146Y-133754285D02*
X131002146Y-133754285D01*
X131402146Y-133944762D02*
X131002146Y-133944762D01*
X131002146Y-133944762D02*
X131002146Y-134040000D01*
X131002146Y-134040000D02*
X131021194Y-134097143D01*
X131021194Y-134097143D02*
X131059289Y-134135238D01*
X131059289Y-134135238D02*
X131097384Y-134154285D01*
X131097384Y-134154285D02*
X131173574Y-134173333D01*
X131173574Y-134173333D02*
X131230717Y-134173333D01*
X131230717Y-134173333D02*
X131306908Y-134154285D01*
X131306908Y-134154285D02*
X131345003Y-134135238D01*
X131345003Y-134135238D02*
X131383098Y-134097143D01*
X131383098Y-134097143D02*
X131402146Y-134040000D01*
X131402146Y-134040000D02*
X131402146Y-133944762D01*
X174202146Y-132999523D02*
X174602146Y-133094761D01*
X174602146Y-133094761D02*
X174316432Y-133170952D01*
X174316432Y-133170952D02*
X174602146Y-133247142D01*
X174602146Y-133247142D02*
X174202146Y-133342381D01*
X174487860Y-133475714D02*
X174487860Y-133666190D01*
X174602146Y-133437619D02*
X174202146Y-133570952D01*
X174202146Y-133570952D02*
X174602146Y-133704285D01*
X174602146Y-133837619D02*
X174202146Y-133837619D01*
X174202146Y-133970952D02*
X174202146Y-134199523D01*
X174602146Y-134085237D02*
X174202146Y-134085237D01*
X174061194Y-132982381D02*
X174061194Y-134197619D01*
X141592146Y-133514762D02*
X141192146Y-133514762D01*
X141192146Y-133514762D02*
X141192146Y-133610000D01*
X141192146Y-133610000D02*
X141211194Y-133667143D01*
X141211194Y-133667143D02*
X141249289Y-133705238D01*
X141249289Y-133705238D02*
X141287384Y-133724285D01*
X141287384Y-133724285D02*
X141363574Y-133743333D01*
X141363574Y-133743333D02*
X141420717Y-133743333D01*
X141420717Y-133743333D02*
X141496908Y-133724285D01*
X141496908Y-133724285D02*
X141535003Y-133705238D01*
X141535003Y-133705238D02*
X141573098Y-133667143D01*
X141573098Y-133667143D02*
X141592146Y-133610000D01*
X141592146Y-133610000D02*
X141592146Y-133514762D01*
X141592146Y-134124285D02*
X141592146Y-133895714D01*
X141592146Y-134010000D02*
X141192146Y-134010000D01*
X141192146Y-134010000D02*
X141249289Y-133971904D01*
X141249289Y-133971904D02*
X141287384Y-133933809D01*
X141287384Y-133933809D02*
X141306432Y-133895714D01*
X128521194Y-133335237D02*
X128502146Y-133297142D01*
X128502146Y-133297142D02*
X128502146Y-133239999D01*
X128502146Y-133239999D02*
X128521194Y-133182856D01*
X128521194Y-133182856D02*
X128559289Y-133144761D01*
X128559289Y-133144761D02*
X128597384Y-133125714D01*
X128597384Y-133125714D02*
X128673574Y-133106666D01*
X128673574Y-133106666D02*
X128730717Y-133106666D01*
X128730717Y-133106666D02*
X128806908Y-133125714D01*
X128806908Y-133125714D02*
X128845003Y-133144761D01*
X128845003Y-133144761D02*
X128883098Y-133182856D01*
X128883098Y-133182856D02*
X128902146Y-133239999D01*
X128902146Y-133239999D02*
X128902146Y-133278095D01*
X128902146Y-133278095D02*
X128883098Y-133335237D01*
X128883098Y-133335237D02*
X128864051Y-133354285D01*
X128864051Y-133354285D02*
X128730717Y-133354285D01*
X128730717Y-133354285D02*
X128730717Y-133278095D01*
X128902146Y-133525714D02*
X128502146Y-133525714D01*
X128502146Y-133525714D02*
X128902146Y-133754285D01*
X128902146Y-133754285D02*
X128502146Y-133754285D01*
X128902146Y-133944762D02*
X128502146Y-133944762D01*
X128502146Y-133944762D02*
X128502146Y-134040000D01*
X128502146Y-134040000D02*
X128521194Y-134097143D01*
X128521194Y-134097143D02*
X128559289Y-134135238D01*
X128559289Y-134135238D02*
X128597384Y-134154285D01*
X128597384Y-134154285D02*
X128673574Y-134173333D01*
X128673574Y-134173333D02*
X128730717Y-134173333D01*
X128730717Y-134173333D02*
X128806908Y-134154285D01*
X128806908Y-134154285D02*
X128845003Y-134135238D01*
X128845003Y-134135238D02*
X128883098Y-134097143D01*
X128883098Y-134097143D02*
X128902146Y-134040000D01*
X128902146Y-134040000D02*
X128902146Y-133944762D01*
X161787860Y-133534286D02*
X161787860Y-133724762D01*
X161902146Y-133496191D02*
X161502146Y-133629524D01*
X161502146Y-133629524D02*
X161902146Y-133762857D01*
X161902146Y-133915238D02*
X161902146Y-133991429D01*
X161902146Y-133991429D02*
X161883098Y-134029524D01*
X161883098Y-134029524D02*
X161864051Y-134048572D01*
X161864051Y-134048572D02*
X161806908Y-134086667D01*
X161806908Y-134086667D02*
X161730717Y-134105714D01*
X161730717Y-134105714D02*
X161578336Y-134105714D01*
X161578336Y-134105714D02*
X161540241Y-134086667D01*
X161540241Y-134086667D02*
X161521194Y-134067619D01*
X161521194Y-134067619D02*
X161502146Y-134029524D01*
X161502146Y-134029524D02*
X161502146Y-133953333D01*
X161502146Y-133953333D02*
X161521194Y-133915238D01*
X161521194Y-133915238D02*
X161540241Y-133896191D01*
X161540241Y-133896191D02*
X161578336Y-133877143D01*
X161578336Y-133877143D02*
X161673574Y-133877143D01*
X161673574Y-133877143D02*
X161711670Y-133896191D01*
X161711670Y-133896191D02*
X161730717Y-133915238D01*
X161730717Y-133915238D02*
X161749765Y-133953333D01*
X161749765Y-133953333D02*
X161749765Y-134029524D01*
X161749765Y-134029524D02*
X161730717Y-134067619D01*
X161730717Y-134067619D02*
X161711670Y-134086667D01*
X161711670Y-134086667D02*
X161673574Y-134105714D01*
X123739765Y-133164762D02*
X123739765Y-133469524D01*
X123892146Y-133317143D02*
X123587384Y-133317143D01*
X123492146Y-133850476D02*
X123492146Y-133660000D01*
X123492146Y-133660000D02*
X123682622Y-133640952D01*
X123682622Y-133640952D02*
X123663574Y-133660000D01*
X123663574Y-133660000D02*
X123644527Y-133698095D01*
X123644527Y-133698095D02*
X123644527Y-133793333D01*
X123644527Y-133793333D02*
X123663574Y-133831428D01*
X123663574Y-133831428D02*
X123682622Y-133850476D01*
X123682622Y-133850476D02*
X123720717Y-133869523D01*
X123720717Y-133869523D02*
X123815955Y-133869523D01*
X123815955Y-133869523D02*
X123854051Y-133850476D01*
X123854051Y-133850476D02*
X123873098Y-133831428D01*
X123873098Y-133831428D02*
X123892146Y-133793333D01*
X123892146Y-133793333D02*
X123892146Y-133698095D01*
X123892146Y-133698095D02*
X123873098Y-133660000D01*
X123873098Y-133660000D02*
X123854051Y-133640952D01*
X123625479Y-134002856D02*
X123892146Y-134098094D01*
X123892146Y-134098094D02*
X123625479Y-134193333D01*
X149077860Y-133554286D02*
X149077860Y-133744762D01*
X149192146Y-133516191D02*
X148792146Y-133649524D01*
X148792146Y-133649524D02*
X149192146Y-133782857D01*
X149192146Y-134125714D02*
X149192146Y-133897143D01*
X149192146Y-134011429D02*
X148792146Y-134011429D01*
X148792146Y-134011429D02*
X148849289Y-133973333D01*
X148849289Y-133973333D02*
X148887384Y-133935238D01*
X148887384Y-133935238D02*
X148906432Y-133897143D01*
X126229765Y-133164762D02*
X126229765Y-133469524D01*
X126382146Y-133317143D02*
X126077384Y-133317143D01*
X125982146Y-133850476D02*
X125982146Y-133660000D01*
X125982146Y-133660000D02*
X126172622Y-133640952D01*
X126172622Y-133640952D02*
X126153574Y-133660000D01*
X126153574Y-133660000D02*
X126134527Y-133698095D01*
X126134527Y-133698095D02*
X126134527Y-133793333D01*
X126134527Y-133793333D02*
X126153574Y-133831428D01*
X126153574Y-133831428D02*
X126172622Y-133850476D01*
X126172622Y-133850476D02*
X126210717Y-133869523D01*
X126210717Y-133869523D02*
X126305955Y-133869523D01*
X126305955Y-133869523D02*
X126344051Y-133850476D01*
X126344051Y-133850476D02*
X126363098Y-133831428D01*
X126363098Y-133831428D02*
X126382146Y-133793333D01*
X126382146Y-133793333D02*
X126382146Y-133698095D01*
X126382146Y-133698095D02*
X126363098Y-133660000D01*
X126363098Y-133660000D02*
X126344051Y-133640952D01*
X126115479Y-134002856D02*
X126382146Y-134098094D01*
X126382146Y-134098094D02*
X126115479Y-134193333D01*
X156717860Y-133534286D02*
X156717860Y-133724762D01*
X156832146Y-133496191D02*
X156432146Y-133629524D01*
X156432146Y-133629524D02*
X156832146Y-133762857D01*
X156432146Y-133858095D02*
X156432146Y-134124762D01*
X156432146Y-134124762D02*
X156832146Y-133953333D01*
X166582146Y-133438571D02*
X166982146Y-133533809D01*
X166982146Y-133533809D02*
X166696432Y-133610000D01*
X166696432Y-133610000D02*
X166982146Y-133686190D01*
X166982146Y-133686190D02*
X166582146Y-133781429D01*
X166982146Y-134162381D02*
X166791670Y-134029048D01*
X166982146Y-133933810D02*
X166582146Y-133933810D01*
X166582146Y-133933810D02*
X166582146Y-134086191D01*
X166582146Y-134086191D02*
X166601194Y-134124286D01*
X166601194Y-134124286D02*
X166620241Y-134143333D01*
X166620241Y-134143333D02*
X166658336Y-134162381D01*
X166658336Y-134162381D02*
X166715479Y-134162381D01*
X166715479Y-134162381D02*
X166753574Y-134143333D01*
X166753574Y-134143333D02*
X166772622Y-134124286D01*
X166772622Y-134124286D02*
X166791670Y-134086191D01*
X166791670Y-134086191D02*
X166791670Y-133933810D01*
X166441194Y-133878572D02*
X166441194Y-134198572D01*
X177152146Y-133155238D02*
X176752146Y-133155238D01*
X176752146Y-133155238D02*
X177152146Y-133383809D01*
X177152146Y-133383809D02*
X176752146Y-133383809D01*
X177114051Y-133574286D02*
X177133098Y-133593333D01*
X177133098Y-133593333D02*
X177152146Y-133574286D01*
X177152146Y-133574286D02*
X177133098Y-133555238D01*
X177133098Y-133555238D02*
X177114051Y-133574286D01*
X177114051Y-133574286D02*
X177152146Y-133574286D01*
X177114051Y-133993333D02*
X177133098Y-133974285D01*
X177133098Y-133974285D02*
X177152146Y-133917143D01*
X177152146Y-133917143D02*
X177152146Y-133879047D01*
X177152146Y-133879047D02*
X177133098Y-133821904D01*
X177133098Y-133821904D02*
X177095003Y-133783809D01*
X177095003Y-133783809D02*
X177056908Y-133764762D01*
X177056908Y-133764762D02*
X176980717Y-133745714D01*
X176980717Y-133745714D02*
X176923574Y-133745714D01*
X176923574Y-133745714D02*
X176847384Y-133764762D01*
X176847384Y-133764762D02*
X176809289Y-133783809D01*
X176809289Y-133783809D02*
X176771194Y-133821904D01*
X176771194Y-133821904D02*
X176752146Y-133879047D01*
X176752146Y-133879047D02*
X176752146Y-133917143D01*
X176752146Y-133917143D02*
X176771194Y-133974285D01*
X176771194Y-133974285D02*
X176790241Y-133993333D01*
X177114051Y-134164762D02*
X177133098Y-134183809D01*
X177133098Y-134183809D02*
X177152146Y-134164762D01*
X177152146Y-134164762D02*
X177133098Y-134145714D01*
X177133098Y-134145714D02*
X177114051Y-134164762D01*
X177114051Y-134164762D02*
X177152146Y-134164762D01*
X172042146Y-133516191D02*
X171642146Y-133516191D01*
X171642146Y-133516191D02*
X171927860Y-133649524D01*
X171927860Y-133649524D02*
X171642146Y-133782857D01*
X171642146Y-133782857D02*
X172042146Y-133782857D01*
X172042146Y-134182857D02*
X172042146Y-133954286D01*
X172042146Y-134068572D02*
X171642146Y-134068572D01*
X171642146Y-134068572D02*
X171699289Y-134030476D01*
X171699289Y-134030476D02*
X171737384Y-133992381D01*
X171737384Y-133992381D02*
X171756432Y-133954286D01*
X171501194Y-133460953D02*
X171501194Y-134219048D01*
X182174051Y-133402857D02*
X182193098Y-133383809D01*
X182193098Y-133383809D02*
X182212146Y-133326667D01*
X182212146Y-133326667D02*
X182212146Y-133288571D01*
X182212146Y-133288571D02*
X182193098Y-133231428D01*
X182193098Y-133231428D02*
X182155003Y-133193333D01*
X182155003Y-133193333D02*
X182116908Y-133174286D01*
X182116908Y-133174286D02*
X182040717Y-133155238D01*
X182040717Y-133155238D02*
X181983574Y-133155238D01*
X181983574Y-133155238D02*
X181907384Y-133174286D01*
X181907384Y-133174286D02*
X181869289Y-133193333D01*
X181869289Y-133193333D02*
X181831194Y-133231428D01*
X181831194Y-133231428D02*
X181812146Y-133288571D01*
X181812146Y-133288571D02*
X181812146Y-133326667D01*
X181812146Y-133326667D02*
X181831194Y-133383809D01*
X181831194Y-133383809D02*
X181850241Y-133402857D01*
X182193098Y-133555238D02*
X182212146Y-133612381D01*
X182212146Y-133612381D02*
X182212146Y-133707619D01*
X182212146Y-133707619D02*
X182193098Y-133745714D01*
X182193098Y-133745714D02*
X182174051Y-133764762D01*
X182174051Y-133764762D02*
X182135955Y-133783809D01*
X182135955Y-133783809D02*
X182097860Y-133783809D01*
X182097860Y-133783809D02*
X182059765Y-133764762D01*
X182059765Y-133764762D02*
X182040717Y-133745714D01*
X182040717Y-133745714D02*
X182021670Y-133707619D01*
X182021670Y-133707619D02*
X182002622Y-133631428D01*
X182002622Y-133631428D02*
X181983574Y-133593333D01*
X181983574Y-133593333D02*
X181964527Y-133574286D01*
X181964527Y-133574286D02*
X181926432Y-133555238D01*
X181926432Y-133555238D02*
X181888336Y-133555238D01*
X181888336Y-133555238D02*
X181850241Y-133574286D01*
X181850241Y-133574286D02*
X181831194Y-133593333D01*
X181831194Y-133593333D02*
X181812146Y-133631428D01*
X181812146Y-133631428D02*
X181812146Y-133726667D01*
X181812146Y-133726667D02*
X181831194Y-133783809D01*
X182212146Y-134164761D02*
X182212146Y-133936190D01*
X182212146Y-134050476D02*
X181812146Y-134050476D01*
X181812146Y-134050476D02*
X181869289Y-134012380D01*
X181869289Y-134012380D02*
X181907384Y-133974285D01*
X181907384Y-133974285D02*
X181926432Y-133936190D01*
X181671194Y-133119048D02*
X181671194Y-134200952D01*
X154177860Y-133153810D02*
X154177860Y-133344286D01*
X154292146Y-133115715D02*
X153892146Y-133249048D01*
X153892146Y-133249048D02*
X154292146Y-133382381D01*
X154292146Y-133725238D02*
X154292146Y-133496667D01*
X154292146Y-133610953D02*
X153892146Y-133610953D01*
X153892146Y-133610953D02*
X153949289Y-133572857D01*
X153949289Y-133572857D02*
X153987384Y-133534762D01*
X153987384Y-133534762D02*
X154006432Y-133496667D01*
X153930241Y-133877619D02*
X153911194Y-133896667D01*
X153911194Y-133896667D02*
X153892146Y-133934762D01*
X153892146Y-133934762D02*
X153892146Y-134030000D01*
X153892146Y-134030000D02*
X153911194Y-134068095D01*
X153911194Y-134068095D02*
X153930241Y-134087143D01*
X153930241Y-134087143D02*
X153968336Y-134106190D01*
X153968336Y-134106190D02*
X154006432Y-134106190D01*
X154006432Y-134106190D02*
X154063574Y-134087143D01*
X154063574Y-134087143D02*
X154292146Y-133858571D01*
X154292146Y-133858571D02*
X154292146Y-134106190D01*
X159237860Y-133153810D02*
X159237860Y-133344286D01*
X159352146Y-133115715D02*
X158952146Y-133249048D01*
X158952146Y-133249048D02*
X159352146Y-133382381D01*
X159352146Y-133725238D02*
X159352146Y-133496667D01*
X159352146Y-133610953D02*
X158952146Y-133610953D01*
X158952146Y-133610953D02*
X159009289Y-133572857D01*
X159009289Y-133572857D02*
X159047384Y-133534762D01*
X159047384Y-133534762D02*
X159066432Y-133496667D01*
X159352146Y-134106190D02*
X159352146Y-133877619D01*
X159352146Y-133991905D02*
X158952146Y-133991905D01*
X158952146Y-133991905D02*
X159009289Y-133953809D01*
X159009289Y-133953809D02*
X159047384Y-133915714D01*
X159047384Y-133915714D02*
X159066432Y-133877619D01*
X179624051Y-133012381D02*
X179643098Y-132993333D01*
X179643098Y-132993333D02*
X179662146Y-132936191D01*
X179662146Y-132936191D02*
X179662146Y-132898095D01*
X179662146Y-132898095D02*
X179643098Y-132840952D01*
X179643098Y-132840952D02*
X179605003Y-132802857D01*
X179605003Y-132802857D02*
X179566908Y-132783810D01*
X179566908Y-132783810D02*
X179490717Y-132764762D01*
X179490717Y-132764762D02*
X179433574Y-132764762D01*
X179433574Y-132764762D02*
X179357384Y-132783810D01*
X179357384Y-132783810D02*
X179319289Y-132802857D01*
X179319289Y-132802857D02*
X179281194Y-132840952D01*
X179281194Y-132840952D02*
X179262146Y-132898095D01*
X179262146Y-132898095D02*
X179262146Y-132936191D01*
X179262146Y-132936191D02*
X179281194Y-132993333D01*
X179281194Y-132993333D02*
X179300241Y-133012381D01*
X179643098Y-133164762D02*
X179662146Y-133221905D01*
X179662146Y-133221905D02*
X179662146Y-133317143D01*
X179662146Y-133317143D02*
X179643098Y-133355238D01*
X179643098Y-133355238D02*
X179624051Y-133374286D01*
X179624051Y-133374286D02*
X179585955Y-133393333D01*
X179585955Y-133393333D02*
X179547860Y-133393333D01*
X179547860Y-133393333D02*
X179509765Y-133374286D01*
X179509765Y-133374286D02*
X179490717Y-133355238D01*
X179490717Y-133355238D02*
X179471670Y-133317143D01*
X179471670Y-133317143D02*
X179452622Y-133240952D01*
X179452622Y-133240952D02*
X179433574Y-133202857D01*
X179433574Y-133202857D02*
X179414527Y-133183810D01*
X179414527Y-133183810D02*
X179376432Y-133164762D01*
X179376432Y-133164762D02*
X179338336Y-133164762D01*
X179338336Y-133164762D02*
X179300241Y-133183810D01*
X179300241Y-133183810D02*
X179281194Y-133202857D01*
X179281194Y-133202857D02*
X179262146Y-133240952D01*
X179262146Y-133240952D02*
X179262146Y-133336191D01*
X179262146Y-133336191D02*
X179281194Y-133393333D01*
X179662146Y-133774285D02*
X179662146Y-133545714D01*
X179662146Y-133660000D02*
X179262146Y-133660000D01*
X179262146Y-133660000D02*
X179319289Y-133621904D01*
X179319289Y-133621904D02*
X179357384Y-133583809D01*
X179357384Y-133583809D02*
X179376432Y-133545714D01*
X179300241Y-133926666D02*
X179281194Y-133945714D01*
X179281194Y-133945714D02*
X179262146Y-133983809D01*
X179262146Y-133983809D02*
X179262146Y-134079047D01*
X179262146Y-134079047D02*
X179281194Y-134117142D01*
X179281194Y-134117142D02*
X179300241Y-134136190D01*
X179300241Y-134136190D02*
X179338336Y-134155237D01*
X179338336Y-134155237D02*
X179376432Y-134155237D01*
X179376432Y-134155237D02*
X179433574Y-134136190D01*
X179433574Y-134136190D02*
X179662146Y-133907618D01*
X179662146Y-133907618D02*
X179662146Y-134155237D01*
X179121194Y-132728572D02*
X179121194Y-134191428D01*
X136502146Y-133544762D02*
X136102146Y-133544762D01*
X136102146Y-133544762D02*
X136102146Y-133640000D01*
X136102146Y-133640000D02*
X136121194Y-133697143D01*
X136121194Y-133697143D02*
X136159289Y-133735238D01*
X136159289Y-133735238D02*
X136197384Y-133754285D01*
X136197384Y-133754285D02*
X136273574Y-133773333D01*
X136273574Y-133773333D02*
X136330717Y-133773333D01*
X136330717Y-133773333D02*
X136406908Y-133754285D01*
X136406908Y-133754285D02*
X136445003Y-133735238D01*
X136445003Y-133735238D02*
X136483098Y-133697143D01*
X136483098Y-133697143D02*
X136502146Y-133640000D01*
X136502146Y-133640000D02*
X136502146Y-133544762D01*
X136102146Y-134135238D02*
X136102146Y-133944762D01*
X136102146Y-133944762D02*
X136292622Y-133925714D01*
X136292622Y-133925714D02*
X136273574Y-133944762D01*
X136273574Y-133944762D02*
X136254527Y-133982857D01*
X136254527Y-133982857D02*
X136254527Y-134078095D01*
X136254527Y-134078095D02*
X136273574Y-134116190D01*
X136273574Y-134116190D02*
X136292622Y-134135238D01*
X136292622Y-134135238D02*
X136330717Y-134154285D01*
X136330717Y-134154285D02*
X136425955Y-134154285D01*
X136425955Y-134154285D02*
X136464051Y-134135238D01*
X136464051Y-134135238D02*
X136483098Y-134116190D01*
X136483098Y-134116190D02*
X136502146Y-134078095D01*
X136502146Y-134078095D02*
X136502146Y-133982857D01*
X136502146Y-133982857D02*
X136483098Y-133944762D01*
X136483098Y-133944762D02*
X136464051Y-133925714D01*
X164442146Y-132769047D02*
X164251670Y-132635714D01*
X164442146Y-132540476D02*
X164042146Y-132540476D01*
X164042146Y-132540476D02*
X164042146Y-132692857D01*
X164042146Y-132692857D02*
X164061194Y-132730952D01*
X164061194Y-132730952D02*
X164080241Y-132749999D01*
X164080241Y-132749999D02*
X164118336Y-132769047D01*
X164118336Y-132769047D02*
X164175479Y-132769047D01*
X164175479Y-132769047D02*
X164213574Y-132749999D01*
X164213574Y-132749999D02*
X164232622Y-132730952D01*
X164232622Y-132730952D02*
X164251670Y-132692857D01*
X164251670Y-132692857D02*
X164251670Y-132540476D01*
X164232622Y-132940476D02*
X164232622Y-133073809D01*
X164442146Y-133130952D02*
X164442146Y-132940476D01*
X164442146Y-132940476D02*
X164042146Y-132940476D01*
X164042146Y-132940476D02*
X164042146Y-133130952D01*
X164423098Y-133283333D02*
X164442146Y-133340476D01*
X164442146Y-133340476D02*
X164442146Y-133435714D01*
X164442146Y-133435714D02*
X164423098Y-133473809D01*
X164423098Y-133473809D02*
X164404051Y-133492857D01*
X164404051Y-133492857D02*
X164365955Y-133511904D01*
X164365955Y-133511904D02*
X164327860Y-133511904D01*
X164327860Y-133511904D02*
X164289765Y-133492857D01*
X164289765Y-133492857D02*
X164270717Y-133473809D01*
X164270717Y-133473809D02*
X164251670Y-133435714D01*
X164251670Y-133435714D02*
X164232622Y-133359523D01*
X164232622Y-133359523D02*
X164213574Y-133321428D01*
X164213574Y-133321428D02*
X164194527Y-133302381D01*
X164194527Y-133302381D02*
X164156432Y-133283333D01*
X164156432Y-133283333D02*
X164118336Y-133283333D01*
X164118336Y-133283333D02*
X164080241Y-133302381D01*
X164080241Y-133302381D02*
X164061194Y-133321428D01*
X164061194Y-133321428D02*
X164042146Y-133359523D01*
X164042146Y-133359523D02*
X164042146Y-133454762D01*
X164042146Y-133454762D02*
X164061194Y-133511904D01*
X164232622Y-133683333D02*
X164232622Y-133816666D01*
X164442146Y-133873809D02*
X164442146Y-133683333D01*
X164442146Y-133683333D02*
X164042146Y-133683333D01*
X164042146Y-133683333D02*
X164042146Y-133873809D01*
X164042146Y-133988095D02*
X164042146Y-134216666D01*
X164442146Y-134102380D02*
X164042146Y-134102380D01*
X163901194Y-132485238D02*
X163901194Y-134214762D01*
X133962146Y-133544762D02*
X133562146Y-133544762D01*
X133562146Y-133544762D02*
X133562146Y-133640000D01*
X133562146Y-133640000D02*
X133581194Y-133697143D01*
X133581194Y-133697143D02*
X133619289Y-133735238D01*
X133619289Y-133735238D02*
X133657384Y-133754285D01*
X133657384Y-133754285D02*
X133733574Y-133773333D01*
X133733574Y-133773333D02*
X133790717Y-133773333D01*
X133790717Y-133773333D02*
X133866908Y-133754285D01*
X133866908Y-133754285D02*
X133905003Y-133735238D01*
X133905003Y-133735238D02*
X133943098Y-133697143D01*
X133943098Y-133697143D02*
X133962146Y-133640000D01*
X133962146Y-133640000D02*
X133962146Y-133544762D01*
X133562146Y-133906666D02*
X133562146Y-134173333D01*
X133562146Y-134173333D02*
X133962146Y-134001904D01*
X139042146Y-133544762D02*
X138642146Y-133544762D01*
X138642146Y-133544762D02*
X138642146Y-133640000D01*
X138642146Y-133640000D02*
X138661194Y-133697143D01*
X138661194Y-133697143D02*
X138699289Y-133735238D01*
X138699289Y-133735238D02*
X138737384Y-133754285D01*
X138737384Y-133754285D02*
X138813574Y-133773333D01*
X138813574Y-133773333D02*
X138870717Y-133773333D01*
X138870717Y-133773333D02*
X138946908Y-133754285D01*
X138946908Y-133754285D02*
X138985003Y-133735238D01*
X138985003Y-133735238D02*
X139023098Y-133697143D01*
X139023098Y-133697143D02*
X139042146Y-133640000D01*
X139042146Y-133640000D02*
X139042146Y-133544762D01*
X138642146Y-133906666D02*
X138642146Y-134154285D01*
X138642146Y-134154285D02*
X138794527Y-134020952D01*
X138794527Y-134020952D02*
X138794527Y-134078095D01*
X138794527Y-134078095D02*
X138813574Y-134116190D01*
X138813574Y-134116190D02*
X138832622Y-134135238D01*
X138832622Y-134135238D02*
X138870717Y-134154285D01*
X138870717Y-134154285D02*
X138965955Y-134154285D01*
X138965955Y-134154285D02*
X139004051Y-134135238D01*
X139004051Y-134135238D02*
X139023098Y-134116190D01*
X139023098Y-134116190D02*
X139042146Y-134078095D01*
X139042146Y-134078095D02*
X139042146Y-133963809D01*
X139042146Y-133963809D02*
X139023098Y-133925714D01*
X139023098Y-133925714D02*
X139004051Y-133906666D01*
X143997860Y-133524286D02*
X143997860Y-133714762D01*
X144112146Y-133486191D02*
X143712146Y-133619524D01*
X143712146Y-133619524D02*
X144112146Y-133752857D01*
X143712146Y-134076667D02*
X143712146Y-133886191D01*
X143712146Y-133886191D02*
X143902622Y-133867143D01*
X143902622Y-133867143D02*
X143883574Y-133886191D01*
X143883574Y-133886191D02*
X143864527Y-133924286D01*
X143864527Y-133924286D02*
X143864527Y-134019524D01*
X143864527Y-134019524D02*
X143883574Y-134057619D01*
X143883574Y-134057619D02*
X143902622Y-134076667D01*
X143902622Y-134076667D02*
X143940717Y-134095714D01*
X143940717Y-134095714D02*
X144035955Y-134095714D01*
X144035955Y-134095714D02*
X144074051Y-134076667D01*
X144074051Y-134076667D02*
X144093098Y-134057619D01*
X144093098Y-134057619D02*
X144112146Y-134019524D01*
X144112146Y-134019524D02*
X144112146Y-133924286D01*
X144112146Y-133924286D02*
X144093098Y-133886191D01*
X144093098Y-133886191D02*
X144074051Y-133867143D01*
X121253098Y-132521428D02*
X121272146Y-132578571D01*
X121272146Y-132578571D02*
X121272146Y-132673809D01*
X121272146Y-132673809D02*
X121253098Y-132711904D01*
X121253098Y-132711904D02*
X121234051Y-132730952D01*
X121234051Y-132730952D02*
X121195955Y-132749999D01*
X121195955Y-132749999D02*
X121157860Y-132749999D01*
X121157860Y-132749999D02*
X121119765Y-132730952D01*
X121119765Y-132730952D02*
X121100717Y-132711904D01*
X121100717Y-132711904D02*
X121081670Y-132673809D01*
X121081670Y-132673809D02*
X121062622Y-132597618D01*
X121062622Y-132597618D02*
X121043574Y-132559523D01*
X121043574Y-132559523D02*
X121024527Y-132540476D01*
X121024527Y-132540476D02*
X120986432Y-132521428D01*
X120986432Y-132521428D02*
X120948336Y-132521428D01*
X120948336Y-132521428D02*
X120910241Y-132540476D01*
X120910241Y-132540476D02*
X120891194Y-132559523D01*
X120891194Y-132559523D02*
X120872146Y-132597618D01*
X120872146Y-132597618D02*
X120872146Y-132692857D01*
X120872146Y-132692857D02*
X120891194Y-132749999D01*
X121272146Y-132921428D02*
X120872146Y-132921428D01*
X120872146Y-132921428D02*
X121272146Y-133149999D01*
X121272146Y-133149999D02*
X120872146Y-133149999D01*
X121272146Y-133340476D02*
X120872146Y-133340476D01*
X120872146Y-133340476D02*
X120872146Y-133435714D01*
X120872146Y-133435714D02*
X120891194Y-133492857D01*
X120891194Y-133492857D02*
X120929289Y-133530952D01*
X120929289Y-133530952D02*
X120967384Y-133549999D01*
X120967384Y-133549999D02*
X121043574Y-133569047D01*
X121043574Y-133569047D02*
X121100717Y-133569047D01*
X121100717Y-133569047D02*
X121176908Y-133549999D01*
X121176908Y-133549999D02*
X121215003Y-133530952D01*
X121215003Y-133530952D02*
X121253098Y-133492857D01*
X121253098Y-133492857D02*
X121272146Y-133435714D01*
X121272146Y-133435714D02*
X121272146Y-133340476D01*
X121272146Y-133740476D02*
X120872146Y-133740476D01*
X121272146Y-133930952D02*
X120872146Y-133930952D01*
X120872146Y-133930952D02*
X121272146Y-134159523D01*
X121272146Y-134159523D02*
X120872146Y-134159523D01*
X169542146Y-132910952D02*
X169142146Y-132910952D01*
X169142146Y-133177618D02*
X169142146Y-133253809D01*
X169142146Y-133253809D02*
X169161194Y-133291904D01*
X169161194Y-133291904D02*
X169199289Y-133329999D01*
X169199289Y-133329999D02*
X169275479Y-133349047D01*
X169275479Y-133349047D02*
X169408813Y-133349047D01*
X169408813Y-133349047D02*
X169485003Y-133329999D01*
X169485003Y-133329999D02*
X169523098Y-133291904D01*
X169523098Y-133291904D02*
X169542146Y-133253809D01*
X169542146Y-133253809D02*
X169542146Y-133177618D01*
X169542146Y-133177618D02*
X169523098Y-133139523D01*
X169523098Y-133139523D02*
X169485003Y-133101428D01*
X169485003Y-133101428D02*
X169408813Y-133082380D01*
X169408813Y-133082380D02*
X169275479Y-133082380D01*
X169275479Y-133082380D02*
X169199289Y-133101428D01*
X169199289Y-133101428D02*
X169161194Y-133139523D01*
X169161194Y-133139523D02*
X169142146Y-133177618D01*
X169542146Y-133749047D02*
X169351670Y-133615714D01*
X169542146Y-133520476D02*
X169142146Y-133520476D01*
X169142146Y-133520476D02*
X169142146Y-133672857D01*
X169142146Y-133672857D02*
X169161194Y-133710952D01*
X169161194Y-133710952D02*
X169180241Y-133729999D01*
X169180241Y-133729999D02*
X169218336Y-133749047D01*
X169218336Y-133749047D02*
X169275479Y-133749047D01*
X169275479Y-133749047D02*
X169313574Y-133729999D01*
X169313574Y-133729999D02*
X169332622Y-133710952D01*
X169332622Y-133710952D02*
X169351670Y-133672857D01*
X169351670Y-133672857D02*
X169351670Y-133520476D01*
X169580241Y-134187142D02*
X169561194Y-134149047D01*
X169561194Y-134149047D02*
X169523098Y-134110952D01*
X169523098Y-134110952D02*
X169465955Y-134053809D01*
X169465955Y-134053809D02*
X169446908Y-134015714D01*
X169446908Y-134015714D02*
X169446908Y-133977618D01*
X169542146Y-133996666D02*
X169523098Y-133958571D01*
X169523098Y-133958571D02*
X169485003Y-133920476D01*
X169485003Y-133920476D02*
X169408813Y-133901428D01*
X169408813Y-133901428D02*
X169275479Y-133901428D01*
X169275479Y-133901428D02*
X169199289Y-133920476D01*
X169199289Y-133920476D02*
X169161194Y-133958571D01*
X169161194Y-133958571D02*
X169142146Y-133996666D01*
X169142146Y-133996666D02*
X169142146Y-134072857D01*
X169142146Y-134072857D02*
X169161194Y-134110952D01*
X169161194Y-134110952D02*
X169199289Y-134149047D01*
X169199289Y-134149047D02*
X169275479Y-134168095D01*
X169275479Y-134168095D02*
X169408813Y-134168095D01*
X169408813Y-134168095D02*
X169485003Y-134149047D01*
X169485003Y-134149047D02*
X169523098Y-134110952D01*
X169523098Y-134110952D02*
X169542146Y-134072857D01*
X169542146Y-134072857D02*
X169542146Y-133996666D01*
X169001194Y-132855714D02*
X169001194Y-134204286D01*
X151637860Y-133163810D02*
X151637860Y-133354286D01*
X151752146Y-133125715D02*
X151352146Y-133259048D01*
X151352146Y-133259048D02*
X151752146Y-133392381D01*
X151752146Y-133735238D02*
X151752146Y-133506667D01*
X151752146Y-133620953D02*
X151352146Y-133620953D01*
X151352146Y-133620953D02*
X151409289Y-133582857D01*
X151409289Y-133582857D02*
X151447384Y-133544762D01*
X151447384Y-133544762D02*
X151466432Y-133506667D01*
X151485479Y-134078095D02*
X151752146Y-134078095D01*
X151333098Y-133982857D02*
X151618813Y-133887619D01*
X151618813Y-133887619D02*
X151618813Y-134135238D01*
%TD*%
M02*
