%TF.GenerationSoftware,KiCad,Pcbnew,(7.0.0)*%
%TF.CreationDate,2023-02-27T14:18:29+09:00*%
%TF.ProjectId,ykp74,796b7037-342e-46b6-9963-61645f706362,rev?*%
%TF.SameCoordinates,Original*%
%TF.FileFunction,Legend,Top*%
%TF.FilePolarity,Positive*%
%FSLAX46Y46*%
G04 Gerber Fmt 4.6, Leading zero omitted, Abs format (unit mm)*
G04 Created by KiCad (PCBNEW (7.0.0)) date 2023-02-27 14:18:29*
%MOMM*%
%LPD*%
G01*
G04 APERTURE LIST*
%ADD10C,0.200000*%
%ADD11C,0.150000*%
%ADD12C,0.100000*%
%ADD13C,0.120000*%
G04 APERTURE END LIST*
D10*
X99517098Y-71822380D02*
X98945670Y-71822380D01*
X99231384Y-71822380D02*
X99231384Y-70822380D01*
X99231384Y-70822380D02*
X99136146Y-70965238D01*
X99136146Y-70965238D02*
X99040908Y-71060476D01*
X99040908Y-71060476D02*
X98945670Y-71108095D01*
X100545670Y-71822380D02*
X100545670Y-70822380D01*
X100545670Y-70822380D02*
X100879003Y-71536666D01*
X100879003Y-71536666D02*
X101212336Y-70822380D01*
X101212336Y-70822380D02*
X101212336Y-71822380D01*
X102069479Y-71774761D02*
X101974241Y-71822380D01*
X101974241Y-71822380D02*
X101783765Y-71822380D01*
X101783765Y-71822380D02*
X101688527Y-71774761D01*
X101688527Y-71774761D02*
X101640908Y-71679523D01*
X101640908Y-71679523D02*
X101640908Y-71298571D01*
X101640908Y-71298571D02*
X101688527Y-71203333D01*
X101688527Y-71203333D02*
X101783765Y-71155714D01*
X101783765Y-71155714D02*
X101974241Y-71155714D01*
X101974241Y-71155714D02*
X102069479Y-71203333D01*
X102069479Y-71203333D02*
X102117098Y-71298571D01*
X102117098Y-71298571D02*
X102117098Y-71393809D01*
X102117098Y-71393809D02*
X101640908Y-71489047D01*
X102974241Y-71155714D02*
X102974241Y-71965238D01*
X102974241Y-71965238D02*
X102926622Y-72060476D01*
X102926622Y-72060476D02*
X102879003Y-72108095D01*
X102879003Y-72108095D02*
X102783765Y-72155714D01*
X102783765Y-72155714D02*
X102640908Y-72155714D01*
X102640908Y-72155714D02*
X102545670Y-72108095D01*
X102974241Y-71774761D02*
X102879003Y-71822380D01*
X102879003Y-71822380D02*
X102688527Y-71822380D01*
X102688527Y-71822380D02*
X102593289Y-71774761D01*
X102593289Y-71774761D02*
X102545670Y-71727142D01*
X102545670Y-71727142D02*
X102498051Y-71631904D01*
X102498051Y-71631904D02*
X102498051Y-71346190D01*
X102498051Y-71346190D02*
X102545670Y-71250952D01*
X102545670Y-71250952D02*
X102593289Y-71203333D01*
X102593289Y-71203333D02*
X102688527Y-71155714D01*
X102688527Y-71155714D02*
X102879003Y-71155714D01*
X102879003Y-71155714D02*
X102974241Y-71203333D01*
X103879003Y-71822380D02*
X103879003Y-71298571D01*
X103879003Y-71298571D02*
X103831384Y-71203333D01*
X103831384Y-71203333D02*
X103736146Y-71155714D01*
X103736146Y-71155714D02*
X103545670Y-71155714D01*
X103545670Y-71155714D02*
X103450432Y-71203333D01*
X103879003Y-71774761D02*
X103783765Y-71822380D01*
X103783765Y-71822380D02*
X103545670Y-71822380D01*
X103545670Y-71822380D02*
X103450432Y-71774761D01*
X103450432Y-71774761D02*
X103402813Y-71679523D01*
X103402813Y-71679523D02*
X103402813Y-71584285D01*
X103402813Y-71584285D02*
X103450432Y-71489047D01*
X103450432Y-71489047D02*
X103545670Y-71441428D01*
X103545670Y-71441428D02*
X103783765Y-71441428D01*
X103783765Y-71441428D02*
X103879003Y-71393809D01*
X105526622Y-71822380D02*
X105193289Y-71346190D01*
X104955194Y-71822380D02*
X104955194Y-70822380D01*
X104955194Y-70822380D02*
X105336146Y-70822380D01*
X105336146Y-70822380D02*
X105431384Y-70870000D01*
X105431384Y-70870000D02*
X105479003Y-70917619D01*
X105479003Y-70917619D02*
X105526622Y-71012857D01*
X105526622Y-71012857D02*
X105526622Y-71155714D01*
X105526622Y-71155714D02*
X105479003Y-71250952D01*
X105479003Y-71250952D02*
X105431384Y-71298571D01*
X105431384Y-71298571D02*
X105336146Y-71346190D01*
X105336146Y-71346190D02*
X104955194Y-71346190D01*
X106098051Y-71822380D02*
X106002813Y-71774761D01*
X106002813Y-71774761D02*
X105955194Y-71727142D01*
X105955194Y-71727142D02*
X105907575Y-71631904D01*
X105907575Y-71631904D02*
X105907575Y-71346190D01*
X105907575Y-71346190D02*
X105955194Y-71250952D01*
X105955194Y-71250952D02*
X106002813Y-71203333D01*
X106002813Y-71203333D02*
X106098051Y-71155714D01*
X106098051Y-71155714D02*
X106240908Y-71155714D01*
X106240908Y-71155714D02*
X106336146Y-71203333D01*
X106336146Y-71203333D02*
X106383765Y-71250952D01*
X106383765Y-71250952D02*
X106431384Y-71346190D01*
X106431384Y-71346190D02*
X106431384Y-71631904D01*
X106431384Y-71631904D02*
X106383765Y-71727142D01*
X106383765Y-71727142D02*
X106336146Y-71774761D01*
X106336146Y-71774761D02*
X106240908Y-71822380D01*
X106240908Y-71822380D02*
X106098051Y-71822380D01*
X106859956Y-71822380D02*
X106859956Y-71155714D01*
X106859956Y-71250952D02*
X106907575Y-71203333D01*
X106907575Y-71203333D02*
X107002813Y-71155714D01*
X107002813Y-71155714D02*
X107145670Y-71155714D01*
X107145670Y-71155714D02*
X107240908Y-71203333D01*
X107240908Y-71203333D02*
X107288527Y-71298571D01*
X107288527Y-71298571D02*
X107288527Y-71822380D01*
X107288527Y-71298571D02*
X107336146Y-71203333D01*
X107336146Y-71203333D02*
X107431384Y-71155714D01*
X107431384Y-71155714D02*
X107574241Y-71155714D01*
X107574241Y-71155714D02*
X107669480Y-71203333D01*
X107669480Y-71203333D02*
X107717099Y-71298571D01*
X107717099Y-71298571D02*
X107717099Y-71822380D01*
X108793289Y-71822380D02*
X108793289Y-70822380D01*
X108793289Y-70822380D02*
X109174241Y-70822380D01*
X109174241Y-70822380D02*
X109269479Y-70870000D01*
X109269479Y-70870000D02*
X109317098Y-70917619D01*
X109317098Y-70917619D02*
X109364717Y-71012857D01*
X109364717Y-71012857D02*
X109364717Y-71155714D01*
X109364717Y-71155714D02*
X109317098Y-71250952D01*
X109317098Y-71250952D02*
X109269479Y-71298571D01*
X109269479Y-71298571D02*
X109174241Y-71346190D01*
X109174241Y-71346190D02*
X108793289Y-71346190D01*
X110221860Y-71822380D02*
X110221860Y-71298571D01*
X110221860Y-71298571D02*
X110174241Y-71203333D01*
X110174241Y-71203333D02*
X110079003Y-71155714D01*
X110079003Y-71155714D02*
X109888527Y-71155714D01*
X109888527Y-71155714D02*
X109793289Y-71203333D01*
X110221860Y-71774761D02*
X110126622Y-71822380D01*
X110126622Y-71822380D02*
X109888527Y-71822380D01*
X109888527Y-71822380D02*
X109793289Y-71774761D01*
X109793289Y-71774761D02*
X109745670Y-71679523D01*
X109745670Y-71679523D02*
X109745670Y-71584285D01*
X109745670Y-71584285D02*
X109793289Y-71489047D01*
X109793289Y-71489047D02*
X109888527Y-71441428D01*
X109888527Y-71441428D02*
X110126622Y-71441428D01*
X110126622Y-71441428D02*
X110221860Y-71393809D01*
X111126622Y-71774761D02*
X111031384Y-71822380D01*
X111031384Y-71822380D02*
X110840908Y-71822380D01*
X110840908Y-71822380D02*
X110745670Y-71774761D01*
X110745670Y-71774761D02*
X110698051Y-71727142D01*
X110698051Y-71727142D02*
X110650432Y-71631904D01*
X110650432Y-71631904D02*
X110650432Y-71346190D01*
X110650432Y-71346190D02*
X110698051Y-71250952D01*
X110698051Y-71250952D02*
X110745670Y-71203333D01*
X110745670Y-71203333D02*
X110840908Y-71155714D01*
X110840908Y-71155714D02*
X111031384Y-71155714D01*
X111031384Y-71155714D02*
X111126622Y-71203333D01*
X111555194Y-71822380D02*
X111555194Y-70822380D01*
X111650432Y-71441428D02*
X111936146Y-71822380D01*
X111936146Y-71155714D02*
X111555194Y-71536666D01*
X112821861Y-70822380D02*
X113155194Y-71822380D01*
X113155194Y-71822380D02*
X113488527Y-70822380D01*
X114202813Y-71774761D02*
X114107575Y-71822380D01*
X114107575Y-71822380D02*
X113917099Y-71822380D01*
X113917099Y-71822380D02*
X113821861Y-71774761D01*
X113821861Y-71774761D02*
X113774242Y-71679523D01*
X113774242Y-71679523D02*
X113774242Y-71298571D01*
X113774242Y-71298571D02*
X113821861Y-71203333D01*
X113821861Y-71203333D02*
X113917099Y-71155714D01*
X113917099Y-71155714D02*
X114107575Y-71155714D01*
X114107575Y-71155714D02*
X114202813Y-71203333D01*
X114202813Y-71203333D02*
X114250432Y-71298571D01*
X114250432Y-71298571D02*
X114250432Y-71393809D01*
X114250432Y-71393809D02*
X113774242Y-71489047D01*
X114679004Y-71822380D02*
X114679004Y-71155714D01*
X114679004Y-71346190D02*
X114726623Y-71250952D01*
X114726623Y-71250952D02*
X114774242Y-71203333D01*
X114774242Y-71203333D02*
X114869480Y-71155714D01*
X114869480Y-71155714D02*
X114964718Y-71155714D01*
X116421861Y-71822380D02*
X115850433Y-71822380D01*
X116136147Y-71822380D02*
X116136147Y-70822380D01*
X116136147Y-70822380D02*
X116040909Y-70965238D01*
X116040909Y-70965238D02*
X115945671Y-71060476D01*
X115945671Y-71060476D02*
X115850433Y-71108095D01*
X116850433Y-71727142D02*
X116898052Y-71774761D01*
X116898052Y-71774761D02*
X116850433Y-71822380D01*
X116850433Y-71822380D02*
X116802814Y-71774761D01*
X116802814Y-71774761D02*
X116850433Y-71727142D01*
X116850433Y-71727142D02*
X116850433Y-71822380D01*
X117517099Y-70822380D02*
X117612337Y-70822380D01*
X117612337Y-70822380D02*
X117707575Y-70870000D01*
X117707575Y-70870000D02*
X117755194Y-70917619D01*
X117755194Y-70917619D02*
X117802813Y-71012857D01*
X117802813Y-71012857D02*
X117850432Y-71203333D01*
X117850432Y-71203333D02*
X117850432Y-71441428D01*
X117850432Y-71441428D02*
X117802813Y-71631904D01*
X117802813Y-71631904D02*
X117755194Y-71727142D01*
X117755194Y-71727142D02*
X117707575Y-71774761D01*
X117707575Y-71774761D02*
X117612337Y-71822380D01*
X117612337Y-71822380D02*
X117517099Y-71822380D01*
X117517099Y-71822380D02*
X117421861Y-71774761D01*
X117421861Y-71774761D02*
X117374242Y-71727142D01*
X117374242Y-71727142D02*
X117326623Y-71631904D01*
X117326623Y-71631904D02*
X117279004Y-71441428D01*
X117279004Y-71441428D02*
X117279004Y-71203333D01*
X117279004Y-71203333D02*
X117326623Y-71012857D01*
X117326623Y-71012857D02*
X117374242Y-70917619D01*
X117374242Y-70917619D02*
X117421861Y-70870000D01*
X117421861Y-70870000D02*
X117517099Y-70822380D01*
X98993289Y-73442380D02*
X98993289Y-72442380D01*
X98993289Y-72442380D02*
X99231384Y-72442380D01*
X99231384Y-72442380D02*
X99374241Y-72490000D01*
X99374241Y-72490000D02*
X99469479Y-72585238D01*
X99469479Y-72585238D02*
X99517098Y-72680476D01*
X99517098Y-72680476D02*
X99564717Y-72870952D01*
X99564717Y-72870952D02*
X99564717Y-73013809D01*
X99564717Y-73013809D02*
X99517098Y-73204285D01*
X99517098Y-73204285D02*
X99469479Y-73299523D01*
X99469479Y-73299523D02*
X99374241Y-73394761D01*
X99374241Y-73394761D02*
X99231384Y-73442380D01*
X99231384Y-73442380D02*
X98993289Y-73442380D01*
X100374241Y-73394761D02*
X100279003Y-73442380D01*
X100279003Y-73442380D02*
X100088527Y-73442380D01*
X100088527Y-73442380D02*
X99993289Y-73394761D01*
X99993289Y-73394761D02*
X99945670Y-73299523D01*
X99945670Y-73299523D02*
X99945670Y-72918571D01*
X99945670Y-72918571D02*
X99993289Y-72823333D01*
X99993289Y-72823333D02*
X100088527Y-72775714D01*
X100088527Y-72775714D02*
X100279003Y-72775714D01*
X100279003Y-72775714D02*
X100374241Y-72823333D01*
X100374241Y-72823333D02*
X100421860Y-72918571D01*
X100421860Y-72918571D02*
X100421860Y-73013809D01*
X100421860Y-73013809D02*
X99945670Y-73109047D01*
X100802813Y-73394761D02*
X100898051Y-73442380D01*
X100898051Y-73442380D02*
X101088527Y-73442380D01*
X101088527Y-73442380D02*
X101183765Y-73394761D01*
X101183765Y-73394761D02*
X101231384Y-73299523D01*
X101231384Y-73299523D02*
X101231384Y-73251904D01*
X101231384Y-73251904D02*
X101183765Y-73156666D01*
X101183765Y-73156666D02*
X101088527Y-73109047D01*
X101088527Y-73109047D02*
X100945670Y-73109047D01*
X100945670Y-73109047D02*
X100850432Y-73061428D01*
X100850432Y-73061428D02*
X100802813Y-72966190D01*
X100802813Y-72966190D02*
X100802813Y-72918571D01*
X100802813Y-72918571D02*
X100850432Y-72823333D01*
X100850432Y-72823333D02*
X100945670Y-72775714D01*
X100945670Y-72775714D02*
X101088527Y-72775714D01*
X101088527Y-72775714D02*
X101183765Y-72823333D01*
X101659956Y-73442380D02*
X101659956Y-72775714D01*
X101659956Y-72442380D02*
X101612337Y-72490000D01*
X101612337Y-72490000D02*
X101659956Y-72537619D01*
X101659956Y-72537619D02*
X101707575Y-72490000D01*
X101707575Y-72490000D02*
X101659956Y-72442380D01*
X101659956Y-72442380D02*
X101659956Y-72537619D01*
X102564717Y-72775714D02*
X102564717Y-73585238D01*
X102564717Y-73585238D02*
X102517098Y-73680476D01*
X102517098Y-73680476D02*
X102469479Y-73728095D01*
X102469479Y-73728095D02*
X102374241Y-73775714D01*
X102374241Y-73775714D02*
X102231384Y-73775714D01*
X102231384Y-73775714D02*
X102136146Y-73728095D01*
X102564717Y-73394761D02*
X102469479Y-73442380D01*
X102469479Y-73442380D02*
X102279003Y-73442380D01*
X102279003Y-73442380D02*
X102183765Y-73394761D01*
X102183765Y-73394761D02*
X102136146Y-73347142D01*
X102136146Y-73347142D02*
X102088527Y-73251904D01*
X102088527Y-73251904D02*
X102088527Y-72966190D01*
X102088527Y-72966190D02*
X102136146Y-72870952D01*
X102136146Y-72870952D02*
X102183765Y-72823333D01*
X102183765Y-72823333D02*
X102279003Y-72775714D01*
X102279003Y-72775714D02*
X102469479Y-72775714D01*
X102469479Y-72775714D02*
X102564717Y-72823333D01*
X103040908Y-72775714D02*
X103040908Y-73442380D01*
X103040908Y-72870952D02*
X103088527Y-72823333D01*
X103088527Y-72823333D02*
X103183765Y-72775714D01*
X103183765Y-72775714D02*
X103326622Y-72775714D01*
X103326622Y-72775714D02*
X103421860Y-72823333D01*
X103421860Y-72823333D02*
X103469479Y-72918571D01*
X103469479Y-72918571D02*
X103469479Y-73442380D01*
X104326622Y-73394761D02*
X104231384Y-73442380D01*
X104231384Y-73442380D02*
X104040908Y-73442380D01*
X104040908Y-73442380D02*
X103945670Y-73394761D01*
X103945670Y-73394761D02*
X103898051Y-73299523D01*
X103898051Y-73299523D02*
X103898051Y-72918571D01*
X103898051Y-72918571D02*
X103945670Y-72823333D01*
X103945670Y-72823333D02*
X104040908Y-72775714D01*
X104040908Y-72775714D02*
X104231384Y-72775714D01*
X104231384Y-72775714D02*
X104326622Y-72823333D01*
X104326622Y-72823333D02*
X104374241Y-72918571D01*
X104374241Y-72918571D02*
X104374241Y-73013809D01*
X104374241Y-73013809D02*
X103898051Y-73109047D01*
X105231384Y-73442380D02*
X105231384Y-72442380D01*
X105231384Y-73394761D02*
X105136146Y-73442380D01*
X105136146Y-73442380D02*
X104945670Y-73442380D01*
X104945670Y-73442380D02*
X104850432Y-73394761D01*
X104850432Y-73394761D02*
X104802813Y-73347142D01*
X104802813Y-73347142D02*
X104755194Y-73251904D01*
X104755194Y-73251904D02*
X104755194Y-72966190D01*
X104755194Y-72966190D02*
X104802813Y-72870952D01*
X104802813Y-72870952D02*
X104850432Y-72823333D01*
X104850432Y-72823333D02*
X104945670Y-72775714D01*
X104945670Y-72775714D02*
X105136146Y-72775714D01*
X105136146Y-72775714D02*
X105231384Y-72823333D01*
X106307575Y-73442380D02*
X106307575Y-72442380D01*
X106307575Y-72823333D02*
X106402813Y-72775714D01*
X106402813Y-72775714D02*
X106593289Y-72775714D01*
X106593289Y-72775714D02*
X106688527Y-72823333D01*
X106688527Y-72823333D02*
X106736146Y-72870952D01*
X106736146Y-72870952D02*
X106783765Y-72966190D01*
X106783765Y-72966190D02*
X106783765Y-73251904D01*
X106783765Y-73251904D02*
X106736146Y-73347142D01*
X106736146Y-73347142D02*
X106688527Y-73394761D01*
X106688527Y-73394761D02*
X106593289Y-73442380D01*
X106593289Y-73442380D02*
X106402813Y-73442380D01*
X106402813Y-73442380D02*
X106307575Y-73394761D01*
X107117099Y-72775714D02*
X107355194Y-73442380D01*
X107593289Y-72775714D02*
X107355194Y-73442380D01*
X107355194Y-73442380D02*
X107259956Y-73680476D01*
X107259956Y-73680476D02*
X107212337Y-73728095D01*
X107212337Y-73728095D02*
X107117099Y-73775714D01*
X108526623Y-73394761D02*
X108621861Y-73442380D01*
X108621861Y-73442380D02*
X108812337Y-73442380D01*
X108812337Y-73442380D02*
X108907575Y-73394761D01*
X108907575Y-73394761D02*
X108955194Y-73299523D01*
X108955194Y-73299523D02*
X108955194Y-73251904D01*
X108955194Y-73251904D02*
X108907575Y-73156666D01*
X108907575Y-73156666D02*
X108812337Y-73109047D01*
X108812337Y-73109047D02*
X108669480Y-73109047D01*
X108669480Y-73109047D02*
X108574242Y-73061428D01*
X108574242Y-73061428D02*
X108526623Y-72966190D01*
X108526623Y-72966190D02*
X108526623Y-72918571D01*
X108526623Y-72918571D02*
X108574242Y-72823333D01*
X108574242Y-72823333D02*
X108669480Y-72775714D01*
X108669480Y-72775714D02*
X108812337Y-72775714D01*
X108812337Y-72775714D02*
X108907575Y-72823333D01*
X109812337Y-72775714D02*
X109812337Y-73442380D01*
X109383766Y-72775714D02*
X109383766Y-73299523D01*
X109383766Y-73299523D02*
X109431385Y-73394761D01*
X109431385Y-73394761D02*
X109526623Y-73442380D01*
X109526623Y-73442380D02*
X109669480Y-73442380D01*
X109669480Y-73442380D02*
X109764718Y-73394761D01*
X109764718Y-73394761D02*
X109812337Y-73347142D01*
X110288528Y-72775714D02*
X110288528Y-73775714D01*
X110288528Y-72823333D02*
X110383766Y-72775714D01*
X110383766Y-72775714D02*
X110574242Y-72775714D01*
X110574242Y-72775714D02*
X110669480Y-72823333D01*
X110669480Y-72823333D02*
X110717099Y-72870952D01*
X110717099Y-72870952D02*
X110764718Y-72966190D01*
X110764718Y-72966190D02*
X110764718Y-73251904D01*
X110764718Y-73251904D02*
X110717099Y-73347142D01*
X110717099Y-73347142D02*
X110669480Y-73394761D01*
X110669480Y-73394761D02*
X110574242Y-73442380D01*
X110574242Y-73442380D02*
X110383766Y-73442380D01*
X110383766Y-73442380D02*
X110288528Y-73394761D01*
X111574242Y-73394761D02*
X111479004Y-73442380D01*
X111479004Y-73442380D02*
X111288528Y-73442380D01*
X111288528Y-73442380D02*
X111193290Y-73394761D01*
X111193290Y-73394761D02*
X111145671Y-73299523D01*
X111145671Y-73299523D02*
X111145671Y-72918571D01*
X111145671Y-72918571D02*
X111193290Y-72823333D01*
X111193290Y-72823333D02*
X111288528Y-72775714D01*
X111288528Y-72775714D02*
X111479004Y-72775714D01*
X111479004Y-72775714D02*
X111574242Y-72823333D01*
X111574242Y-72823333D02*
X111621861Y-72918571D01*
X111621861Y-72918571D02*
X111621861Y-73013809D01*
X111621861Y-73013809D02*
X111145671Y-73109047D01*
X112050433Y-73442380D02*
X112050433Y-72775714D01*
X112050433Y-72966190D02*
X112098052Y-72870952D01*
X112098052Y-72870952D02*
X112145671Y-72823333D01*
X112145671Y-72823333D02*
X112240909Y-72775714D01*
X112240909Y-72775714D02*
X112336147Y-72775714D01*
X112621862Y-73394761D02*
X112717100Y-73442380D01*
X112717100Y-73442380D02*
X112907576Y-73442380D01*
X112907576Y-73442380D02*
X113002814Y-73394761D01*
X113002814Y-73394761D02*
X113050433Y-73299523D01*
X113050433Y-73299523D02*
X113050433Y-73251904D01*
X113050433Y-73251904D02*
X113002814Y-73156666D01*
X113002814Y-73156666D02*
X112907576Y-73109047D01*
X112907576Y-73109047D02*
X112764719Y-73109047D01*
X112764719Y-73109047D02*
X112669481Y-73061428D01*
X112669481Y-73061428D02*
X112621862Y-72966190D01*
X112621862Y-72966190D02*
X112621862Y-72918571D01*
X112621862Y-72918571D02*
X112669481Y-72823333D01*
X112669481Y-72823333D02*
X112764719Y-72775714D01*
X112764719Y-72775714D02*
X112907576Y-72775714D01*
X112907576Y-72775714D02*
X113002814Y-72823333D01*
X113669481Y-72442380D02*
X113764719Y-72442380D01*
X113764719Y-72442380D02*
X113859957Y-72490000D01*
X113859957Y-72490000D02*
X113907576Y-72537619D01*
X113907576Y-72537619D02*
X113955195Y-72632857D01*
X113955195Y-72632857D02*
X114002814Y-72823333D01*
X114002814Y-72823333D02*
X114002814Y-73061428D01*
X114002814Y-73061428D02*
X113955195Y-73251904D01*
X113955195Y-73251904D02*
X113907576Y-73347142D01*
X113907576Y-73347142D02*
X113859957Y-73394761D01*
X113859957Y-73394761D02*
X113764719Y-73442380D01*
X113764719Y-73442380D02*
X113669481Y-73442380D01*
X113669481Y-73442380D02*
X113574243Y-73394761D01*
X113574243Y-73394761D02*
X113526624Y-73347142D01*
X113526624Y-73347142D02*
X113479005Y-73251904D01*
X113479005Y-73251904D02*
X113431386Y-73061428D01*
X113431386Y-73061428D02*
X113431386Y-72823333D01*
X113431386Y-72823333D02*
X113479005Y-72632857D01*
X113479005Y-72632857D02*
X113526624Y-72537619D01*
X113526624Y-72537619D02*
X113574243Y-72490000D01*
X113574243Y-72490000D02*
X113669481Y-72442380D01*
X114383767Y-72537619D02*
X114431386Y-72490000D01*
X114431386Y-72490000D02*
X114526624Y-72442380D01*
X114526624Y-72442380D02*
X114764719Y-72442380D01*
X114764719Y-72442380D02*
X114859957Y-72490000D01*
X114859957Y-72490000D02*
X114907576Y-72537619D01*
X114907576Y-72537619D02*
X114955195Y-72632857D01*
X114955195Y-72632857D02*
X114955195Y-72728095D01*
X114955195Y-72728095D02*
X114907576Y-72870952D01*
X114907576Y-72870952D02*
X114336148Y-73442380D01*
X114336148Y-73442380D02*
X114955195Y-73442380D01*
D11*
X185790864Y-129385836D02*
X185790864Y-129862026D01*
X185457531Y-128862026D02*
X185790864Y-129385836D01*
X185790864Y-129385836D02*
X186124197Y-128862026D01*
X186600388Y-129862026D02*
X186505150Y-129814407D01*
X186505150Y-129814407D02*
X186457531Y-129766788D01*
X186457531Y-129766788D02*
X186409912Y-129671550D01*
X186409912Y-129671550D02*
X186409912Y-129385836D01*
X186409912Y-129385836D02*
X186457531Y-129290598D01*
X186457531Y-129290598D02*
X186505150Y-129242979D01*
X186505150Y-129242979D02*
X186600388Y-129195360D01*
X186600388Y-129195360D02*
X186743245Y-129195360D01*
X186743245Y-129195360D02*
X186838483Y-129242979D01*
X186838483Y-129242979D02*
X186886102Y-129290598D01*
X186886102Y-129290598D02*
X186933721Y-129385836D01*
X186933721Y-129385836D02*
X186933721Y-129671550D01*
X186933721Y-129671550D02*
X186886102Y-129766788D01*
X186886102Y-129766788D02*
X186838483Y-129814407D01*
X186838483Y-129814407D02*
X186743245Y-129862026D01*
X186743245Y-129862026D02*
X186600388Y-129862026D01*
X187790864Y-129195360D02*
X187790864Y-129862026D01*
X187362293Y-129195360D02*
X187362293Y-129719169D01*
X187362293Y-129719169D02*
X187409912Y-129814407D01*
X187409912Y-129814407D02*
X187505150Y-129862026D01*
X187505150Y-129862026D02*
X187648007Y-129862026D01*
X187648007Y-129862026D02*
X187743245Y-129814407D01*
X187743245Y-129814407D02*
X187790864Y-129766788D01*
X188267055Y-129195360D02*
X188267055Y-129862026D01*
X188267055Y-129290598D02*
X188314674Y-129242979D01*
X188314674Y-129242979D02*
X188409912Y-129195360D01*
X188409912Y-129195360D02*
X188552769Y-129195360D01*
X188552769Y-129195360D02*
X188648007Y-129242979D01*
X188648007Y-129242979D02*
X188695626Y-129338217D01*
X188695626Y-129338217D02*
X188695626Y-129862026D01*
X189600388Y-129195360D02*
X189600388Y-130004884D01*
X189600388Y-130004884D02*
X189552769Y-130100122D01*
X189552769Y-130100122D02*
X189505150Y-130147741D01*
X189505150Y-130147741D02*
X189409912Y-130195360D01*
X189409912Y-130195360D02*
X189267055Y-130195360D01*
X189267055Y-130195360D02*
X189171817Y-130147741D01*
X189600388Y-129814407D02*
X189505150Y-129862026D01*
X189505150Y-129862026D02*
X189314674Y-129862026D01*
X189314674Y-129862026D02*
X189219436Y-129814407D01*
X189219436Y-129814407D02*
X189171817Y-129766788D01*
X189171817Y-129766788D02*
X189124198Y-129671550D01*
X189124198Y-129671550D02*
X189124198Y-129385836D01*
X189124198Y-129385836D02*
X189171817Y-129290598D01*
X189171817Y-129290598D02*
X189219436Y-129242979D01*
X189219436Y-129242979D02*
X189314674Y-129195360D01*
X189314674Y-129195360D02*
X189505150Y-129195360D01*
X189505150Y-129195360D02*
X189600388Y-129242979D01*
X190076579Y-129862026D02*
X190076579Y-128862026D01*
X190171817Y-129481074D02*
X190457531Y-129862026D01*
X190457531Y-129195360D02*
X190076579Y-129576312D01*
X190886103Y-129862026D02*
X190886103Y-129195360D01*
X190886103Y-128862026D02*
X190838484Y-128909646D01*
X190838484Y-128909646D02*
X190886103Y-128957265D01*
X190886103Y-128957265D02*
X190933722Y-128909646D01*
X190933722Y-128909646D02*
X190886103Y-128862026D01*
X190886103Y-128862026D02*
X190886103Y-128957265D01*
X191962293Y-129862026D02*
X191962293Y-128862026D01*
X191962293Y-128862026D02*
X192343245Y-128862026D01*
X192343245Y-128862026D02*
X192438483Y-128909646D01*
X192438483Y-128909646D02*
X192486102Y-128957265D01*
X192486102Y-128957265D02*
X192533721Y-129052503D01*
X192533721Y-129052503D02*
X192533721Y-129195360D01*
X192533721Y-129195360D02*
X192486102Y-129290598D01*
X192486102Y-129290598D02*
X192438483Y-129338217D01*
X192438483Y-129338217D02*
X192343245Y-129385836D01*
X192343245Y-129385836D02*
X191962293Y-129385836D01*
X193390864Y-129862026D02*
X193390864Y-129338217D01*
X193390864Y-129338217D02*
X193343245Y-129242979D01*
X193343245Y-129242979D02*
X193248007Y-129195360D01*
X193248007Y-129195360D02*
X193057531Y-129195360D01*
X193057531Y-129195360D02*
X192962293Y-129242979D01*
X193390864Y-129814407D02*
X193295626Y-129862026D01*
X193295626Y-129862026D02*
X193057531Y-129862026D01*
X193057531Y-129862026D02*
X192962293Y-129814407D01*
X192962293Y-129814407D02*
X192914674Y-129719169D01*
X192914674Y-129719169D02*
X192914674Y-129623931D01*
X192914674Y-129623931D02*
X192962293Y-129528693D01*
X192962293Y-129528693D02*
X193057531Y-129481074D01*
X193057531Y-129481074D02*
X193295626Y-129481074D01*
X193295626Y-129481074D02*
X193390864Y-129433455D01*
X193867055Y-129862026D02*
X193867055Y-129195360D01*
X193867055Y-129385836D02*
X193914674Y-129290598D01*
X193914674Y-129290598D02*
X193962293Y-129242979D01*
X193962293Y-129242979D02*
X194057531Y-129195360D01*
X194057531Y-129195360D02*
X194152769Y-129195360D01*
X194486103Y-129862026D02*
X194486103Y-128862026D01*
X194581341Y-129481074D02*
X194867055Y-129862026D01*
X194867055Y-129195360D02*
X194486103Y-129576312D01*
%TO.C,U3*%
X146253289Y-88477380D02*
X146253289Y-89286904D01*
X146253289Y-89286904D02*
X146300908Y-89382142D01*
X146300908Y-89382142D02*
X146348527Y-89429761D01*
X146348527Y-89429761D02*
X146443765Y-89477380D01*
X146443765Y-89477380D02*
X146634241Y-89477380D01*
X146634241Y-89477380D02*
X146729479Y-89429761D01*
X146729479Y-89429761D02*
X146777098Y-89382142D01*
X146777098Y-89382142D02*
X146824717Y-89286904D01*
X146824717Y-89286904D02*
X146824717Y-88477380D01*
X147205670Y-88477380D02*
X147824717Y-88477380D01*
X147824717Y-88477380D02*
X147491384Y-88858333D01*
X147491384Y-88858333D02*
X147634241Y-88858333D01*
X147634241Y-88858333D02*
X147729479Y-88905952D01*
X147729479Y-88905952D02*
X147777098Y-88953571D01*
X147777098Y-88953571D02*
X147824717Y-89048809D01*
X147824717Y-89048809D02*
X147824717Y-89286904D01*
X147824717Y-89286904D02*
X147777098Y-89382142D01*
X147777098Y-89382142D02*
X147729479Y-89429761D01*
X147729479Y-89429761D02*
X147634241Y-89477380D01*
X147634241Y-89477380D02*
X147348527Y-89477380D01*
X147348527Y-89477380D02*
X147253289Y-89429761D01*
X147253289Y-89429761D02*
X147205670Y-89382142D01*
X139549524Y-88362619D02*
X139597143Y-88315000D01*
X139597143Y-88315000D02*
X139692381Y-88267380D01*
X139692381Y-88267380D02*
X139930476Y-88267380D01*
X139930476Y-88267380D02*
X140025714Y-88315000D01*
X140025714Y-88315000D02*
X140073333Y-88362619D01*
X140073333Y-88362619D02*
X140120952Y-88457857D01*
X140120952Y-88457857D02*
X140120952Y-88553095D01*
X140120952Y-88553095D02*
X140073333Y-88695952D01*
X140073333Y-88695952D02*
X139501905Y-89267380D01*
X139501905Y-89267380D02*
X140120952Y-89267380D01*
X140454286Y-88267380D02*
X141120952Y-88267380D01*
X141120952Y-88267380D02*
X140692381Y-89267380D01*
X142073333Y-89172142D02*
X142025714Y-89219761D01*
X142025714Y-89219761D02*
X141882857Y-89267380D01*
X141882857Y-89267380D02*
X141787619Y-89267380D01*
X141787619Y-89267380D02*
X141644762Y-89219761D01*
X141644762Y-89219761D02*
X141549524Y-89124523D01*
X141549524Y-89124523D02*
X141501905Y-89029285D01*
X141501905Y-89029285D02*
X141454286Y-88838809D01*
X141454286Y-88838809D02*
X141454286Y-88695952D01*
X141454286Y-88695952D02*
X141501905Y-88505476D01*
X141501905Y-88505476D02*
X141549524Y-88410238D01*
X141549524Y-88410238D02*
X141644762Y-88315000D01*
X141644762Y-88315000D02*
X141787619Y-88267380D01*
X141787619Y-88267380D02*
X141882857Y-88267380D01*
X141882857Y-88267380D02*
X142025714Y-88315000D01*
X142025714Y-88315000D02*
X142073333Y-88362619D01*
X142454286Y-88362619D02*
X142501905Y-88315000D01*
X142501905Y-88315000D02*
X142597143Y-88267380D01*
X142597143Y-88267380D02*
X142835238Y-88267380D01*
X142835238Y-88267380D02*
X142930476Y-88315000D01*
X142930476Y-88315000D02*
X142978095Y-88362619D01*
X142978095Y-88362619D02*
X143025714Y-88457857D01*
X143025714Y-88457857D02*
X143025714Y-88553095D01*
X143025714Y-88553095D02*
X142978095Y-88695952D01*
X142978095Y-88695952D02*
X142406667Y-89267380D01*
X142406667Y-89267380D02*
X143025714Y-89267380D01*
X143930476Y-88267380D02*
X143454286Y-88267380D01*
X143454286Y-88267380D02*
X143406667Y-88743571D01*
X143406667Y-88743571D02*
X143454286Y-88695952D01*
X143454286Y-88695952D02*
X143549524Y-88648333D01*
X143549524Y-88648333D02*
X143787619Y-88648333D01*
X143787619Y-88648333D02*
X143882857Y-88695952D01*
X143882857Y-88695952D02*
X143930476Y-88743571D01*
X143930476Y-88743571D02*
X143978095Y-88838809D01*
X143978095Y-88838809D02*
X143978095Y-89076904D01*
X143978095Y-89076904D02*
X143930476Y-89172142D01*
X143930476Y-89172142D02*
X143882857Y-89219761D01*
X143882857Y-89219761D02*
X143787619Y-89267380D01*
X143787619Y-89267380D02*
X143549524Y-89267380D01*
X143549524Y-89267380D02*
X143454286Y-89219761D01*
X143454286Y-89219761D02*
X143406667Y-89172142D01*
X144835238Y-88267380D02*
X144644762Y-88267380D01*
X144644762Y-88267380D02*
X144549524Y-88315000D01*
X144549524Y-88315000D02*
X144501905Y-88362619D01*
X144501905Y-88362619D02*
X144406667Y-88505476D01*
X144406667Y-88505476D02*
X144359048Y-88695952D01*
X144359048Y-88695952D02*
X144359048Y-89076904D01*
X144359048Y-89076904D02*
X144406667Y-89172142D01*
X144406667Y-89172142D02*
X144454286Y-89219761D01*
X144454286Y-89219761D02*
X144549524Y-89267380D01*
X144549524Y-89267380D02*
X144740000Y-89267380D01*
X144740000Y-89267380D02*
X144835238Y-89219761D01*
X144835238Y-89219761D02*
X144882857Y-89172142D01*
X144882857Y-89172142D02*
X144930476Y-89076904D01*
X144930476Y-89076904D02*
X144930476Y-88838809D01*
X144930476Y-88838809D02*
X144882857Y-88743571D01*
X144882857Y-88743571D02*
X144835238Y-88695952D01*
X144835238Y-88695952D02*
X144740000Y-88648333D01*
X144740000Y-88648333D02*
X144549524Y-88648333D01*
X144549524Y-88648333D02*
X144454286Y-88695952D01*
X144454286Y-88695952D02*
X144406667Y-88743571D01*
X144406667Y-88743571D02*
X144359048Y-88838809D01*
%TO.C,C3*%
X106208527Y-79012142D02*
X106160908Y-79059761D01*
X106160908Y-79059761D02*
X106018051Y-79107380D01*
X106018051Y-79107380D02*
X105922813Y-79107380D01*
X105922813Y-79107380D02*
X105779956Y-79059761D01*
X105779956Y-79059761D02*
X105684718Y-78964523D01*
X105684718Y-78964523D02*
X105637099Y-78869285D01*
X105637099Y-78869285D02*
X105589480Y-78678809D01*
X105589480Y-78678809D02*
X105589480Y-78535952D01*
X105589480Y-78535952D02*
X105637099Y-78345476D01*
X105637099Y-78345476D02*
X105684718Y-78250238D01*
X105684718Y-78250238D02*
X105779956Y-78155000D01*
X105779956Y-78155000D02*
X105922813Y-78107380D01*
X105922813Y-78107380D02*
X106018051Y-78107380D01*
X106018051Y-78107380D02*
X106160908Y-78155000D01*
X106160908Y-78155000D02*
X106208527Y-78202619D01*
X106541861Y-78107380D02*
X107160908Y-78107380D01*
X107160908Y-78107380D02*
X106827575Y-78488333D01*
X106827575Y-78488333D02*
X106970432Y-78488333D01*
X106970432Y-78488333D02*
X107065670Y-78535952D01*
X107065670Y-78535952D02*
X107113289Y-78583571D01*
X107113289Y-78583571D02*
X107160908Y-78678809D01*
X107160908Y-78678809D02*
X107160908Y-78916904D01*
X107160908Y-78916904D02*
X107113289Y-79012142D01*
X107113289Y-79012142D02*
X107065670Y-79059761D01*
X107065670Y-79059761D02*
X106970432Y-79107380D01*
X106970432Y-79107380D02*
X106684718Y-79107380D01*
X106684718Y-79107380D02*
X106589480Y-79059761D01*
X106589480Y-79059761D02*
X106541861Y-79012142D01*
%TO.C,U8*%
X185623289Y-83397380D02*
X185623289Y-84206904D01*
X185623289Y-84206904D02*
X185670908Y-84302142D01*
X185670908Y-84302142D02*
X185718527Y-84349761D01*
X185718527Y-84349761D02*
X185813765Y-84397380D01*
X185813765Y-84397380D02*
X186004241Y-84397380D01*
X186004241Y-84397380D02*
X186099479Y-84349761D01*
X186099479Y-84349761D02*
X186147098Y-84302142D01*
X186147098Y-84302142D02*
X186194717Y-84206904D01*
X186194717Y-84206904D02*
X186194717Y-83397380D01*
X186813765Y-83825952D02*
X186718527Y-83778333D01*
X186718527Y-83778333D02*
X186670908Y-83730714D01*
X186670908Y-83730714D02*
X186623289Y-83635476D01*
X186623289Y-83635476D02*
X186623289Y-83587857D01*
X186623289Y-83587857D02*
X186670908Y-83492619D01*
X186670908Y-83492619D02*
X186718527Y-83445000D01*
X186718527Y-83445000D02*
X186813765Y-83397380D01*
X186813765Y-83397380D02*
X187004241Y-83397380D01*
X187004241Y-83397380D02*
X187099479Y-83445000D01*
X187099479Y-83445000D02*
X187147098Y-83492619D01*
X187147098Y-83492619D02*
X187194717Y-83587857D01*
X187194717Y-83587857D02*
X187194717Y-83635476D01*
X187194717Y-83635476D02*
X187147098Y-83730714D01*
X187147098Y-83730714D02*
X187099479Y-83778333D01*
X187099479Y-83778333D02*
X187004241Y-83825952D01*
X187004241Y-83825952D02*
X186813765Y-83825952D01*
X186813765Y-83825952D02*
X186718527Y-83873571D01*
X186718527Y-83873571D02*
X186670908Y-83921190D01*
X186670908Y-83921190D02*
X186623289Y-84016428D01*
X186623289Y-84016428D02*
X186623289Y-84206904D01*
X186623289Y-84206904D02*
X186670908Y-84302142D01*
X186670908Y-84302142D02*
X186718527Y-84349761D01*
X186718527Y-84349761D02*
X186813765Y-84397380D01*
X186813765Y-84397380D02*
X187004241Y-84397380D01*
X187004241Y-84397380D02*
X187099479Y-84349761D01*
X187099479Y-84349761D02*
X187147098Y-84302142D01*
X187147098Y-84302142D02*
X187194717Y-84206904D01*
X187194717Y-84206904D02*
X187194717Y-84016428D01*
X187194717Y-84016428D02*
X187147098Y-83921190D01*
X187147098Y-83921190D02*
X187099479Y-83873571D01*
X187099479Y-83873571D02*
X187004241Y-83825952D01*
X183266146Y-105837380D02*
X183932812Y-105837380D01*
X183932812Y-105837380D02*
X183504241Y-106837380D01*
X184742336Y-106170714D02*
X184742336Y-106837380D01*
X184504241Y-105789761D02*
X184266146Y-106504047D01*
X184266146Y-106504047D02*
X184885193Y-106504047D01*
X185742336Y-106837380D02*
X185266146Y-106837380D01*
X185266146Y-106837380D02*
X185266146Y-105837380D01*
X186028051Y-106789761D02*
X186170908Y-106837380D01*
X186170908Y-106837380D02*
X186409003Y-106837380D01*
X186409003Y-106837380D02*
X186504241Y-106789761D01*
X186504241Y-106789761D02*
X186551860Y-106742142D01*
X186551860Y-106742142D02*
X186599479Y-106646904D01*
X186599479Y-106646904D02*
X186599479Y-106551666D01*
X186599479Y-106551666D02*
X186551860Y-106456428D01*
X186551860Y-106456428D02*
X186504241Y-106408809D01*
X186504241Y-106408809D02*
X186409003Y-106361190D01*
X186409003Y-106361190D02*
X186218527Y-106313571D01*
X186218527Y-106313571D02*
X186123289Y-106265952D01*
X186123289Y-106265952D02*
X186075670Y-106218333D01*
X186075670Y-106218333D02*
X186028051Y-106123095D01*
X186028051Y-106123095D02*
X186028051Y-106027857D01*
X186028051Y-106027857D02*
X186075670Y-105932619D01*
X186075670Y-105932619D02*
X186123289Y-105885000D01*
X186123289Y-105885000D02*
X186218527Y-105837380D01*
X186218527Y-105837380D02*
X186456622Y-105837380D01*
X186456622Y-105837380D02*
X186599479Y-105885000D01*
X187456622Y-105837380D02*
X187266146Y-105837380D01*
X187266146Y-105837380D02*
X187170908Y-105885000D01*
X187170908Y-105885000D02*
X187123289Y-105932619D01*
X187123289Y-105932619D02*
X187028051Y-106075476D01*
X187028051Y-106075476D02*
X186980432Y-106265952D01*
X186980432Y-106265952D02*
X186980432Y-106646904D01*
X186980432Y-106646904D02*
X187028051Y-106742142D01*
X187028051Y-106742142D02*
X187075670Y-106789761D01*
X187075670Y-106789761D02*
X187170908Y-106837380D01*
X187170908Y-106837380D02*
X187361384Y-106837380D01*
X187361384Y-106837380D02*
X187456622Y-106789761D01*
X187456622Y-106789761D02*
X187504241Y-106742142D01*
X187504241Y-106742142D02*
X187551860Y-106646904D01*
X187551860Y-106646904D02*
X187551860Y-106408809D01*
X187551860Y-106408809D02*
X187504241Y-106313571D01*
X187504241Y-106313571D02*
X187456622Y-106265952D01*
X187456622Y-106265952D02*
X187361384Y-106218333D01*
X187361384Y-106218333D02*
X187170908Y-106218333D01*
X187170908Y-106218333D02*
X187075670Y-106265952D01*
X187075670Y-106265952D02*
X187028051Y-106313571D01*
X187028051Y-106313571D02*
X186980432Y-106408809D01*
X187885194Y-105837380D02*
X188551860Y-105837380D01*
X188551860Y-105837380D02*
X188123289Y-106837380D01*
X189123289Y-105837380D02*
X189218527Y-105837380D01*
X189218527Y-105837380D02*
X189313765Y-105885000D01*
X189313765Y-105885000D02*
X189361384Y-105932619D01*
X189361384Y-105932619D02*
X189409003Y-106027857D01*
X189409003Y-106027857D02*
X189456622Y-106218333D01*
X189456622Y-106218333D02*
X189456622Y-106456428D01*
X189456622Y-106456428D02*
X189409003Y-106646904D01*
X189409003Y-106646904D02*
X189361384Y-106742142D01*
X189361384Y-106742142D02*
X189313765Y-106789761D01*
X189313765Y-106789761D02*
X189218527Y-106837380D01*
X189218527Y-106837380D02*
X189123289Y-106837380D01*
X189123289Y-106837380D02*
X189028051Y-106789761D01*
X189028051Y-106789761D02*
X188980432Y-106742142D01*
X188980432Y-106742142D02*
X188932813Y-106646904D01*
X188932813Y-106646904D02*
X188885194Y-106456428D01*
X188885194Y-106456428D02*
X188885194Y-106218333D01*
X188885194Y-106218333D02*
X188932813Y-106027857D01*
X188932813Y-106027857D02*
X188980432Y-105932619D01*
X188980432Y-105932619D02*
X189028051Y-105885000D01*
X189028051Y-105885000D02*
X189123289Y-105837380D01*
%TO.C,C7*%
X192568527Y-109492142D02*
X192520908Y-109539761D01*
X192520908Y-109539761D02*
X192378051Y-109587380D01*
X192378051Y-109587380D02*
X192282813Y-109587380D01*
X192282813Y-109587380D02*
X192139956Y-109539761D01*
X192139956Y-109539761D02*
X192044718Y-109444523D01*
X192044718Y-109444523D02*
X191997099Y-109349285D01*
X191997099Y-109349285D02*
X191949480Y-109158809D01*
X191949480Y-109158809D02*
X191949480Y-109015952D01*
X191949480Y-109015952D02*
X191997099Y-108825476D01*
X191997099Y-108825476D02*
X192044718Y-108730238D01*
X192044718Y-108730238D02*
X192139956Y-108635000D01*
X192139956Y-108635000D02*
X192282813Y-108587380D01*
X192282813Y-108587380D02*
X192378051Y-108587380D01*
X192378051Y-108587380D02*
X192520908Y-108635000D01*
X192520908Y-108635000D02*
X192568527Y-108682619D01*
X192901861Y-108587380D02*
X193568527Y-108587380D01*
X193568527Y-108587380D02*
X193139956Y-109587380D01*
%TO.C,U1*%
X105608289Y-79572380D02*
X105608289Y-80381904D01*
X105608289Y-80381904D02*
X105655908Y-80477142D01*
X105655908Y-80477142D02*
X105703527Y-80524761D01*
X105703527Y-80524761D02*
X105798765Y-80572380D01*
X105798765Y-80572380D02*
X105989241Y-80572380D01*
X105989241Y-80572380D02*
X106084479Y-80524761D01*
X106084479Y-80524761D02*
X106132098Y-80477142D01*
X106132098Y-80477142D02*
X106179717Y-80381904D01*
X106179717Y-80381904D02*
X106179717Y-79572380D01*
X107179717Y-80572380D02*
X106608289Y-80572380D01*
X106894003Y-80572380D02*
X106894003Y-79572380D01*
X106894003Y-79572380D02*
X106798765Y-79715238D01*
X106798765Y-79715238D02*
X106703527Y-79810476D01*
X106703527Y-79810476D02*
X106608289Y-79858095D01*
X98909524Y-78202619D02*
X98957143Y-78155000D01*
X98957143Y-78155000D02*
X99052381Y-78107380D01*
X99052381Y-78107380D02*
X99290476Y-78107380D01*
X99290476Y-78107380D02*
X99385714Y-78155000D01*
X99385714Y-78155000D02*
X99433333Y-78202619D01*
X99433333Y-78202619D02*
X99480952Y-78297857D01*
X99480952Y-78297857D02*
X99480952Y-78393095D01*
X99480952Y-78393095D02*
X99433333Y-78535952D01*
X99433333Y-78535952D02*
X98861905Y-79107380D01*
X98861905Y-79107380D02*
X99480952Y-79107380D01*
X99814286Y-78107380D02*
X100480952Y-78107380D01*
X100480952Y-78107380D02*
X100052381Y-79107380D01*
X101433333Y-79012142D02*
X101385714Y-79059761D01*
X101385714Y-79059761D02*
X101242857Y-79107380D01*
X101242857Y-79107380D02*
X101147619Y-79107380D01*
X101147619Y-79107380D02*
X101004762Y-79059761D01*
X101004762Y-79059761D02*
X100909524Y-78964523D01*
X100909524Y-78964523D02*
X100861905Y-78869285D01*
X100861905Y-78869285D02*
X100814286Y-78678809D01*
X100814286Y-78678809D02*
X100814286Y-78535952D01*
X100814286Y-78535952D02*
X100861905Y-78345476D01*
X100861905Y-78345476D02*
X100909524Y-78250238D01*
X100909524Y-78250238D02*
X101004762Y-78155000D01*
X101004762Y-78155000D02*
X101147619Y-78107380D01*
X101147619Y-78107380D02*
X101242857Y-78107380D01*
X101242857Y-78107380D02*
X101385714Y-78155000D01*
X101385714Y-78155000D02*
X101433333Y-78202619D01*
X101814286Y-78202619D02*
X101861905Y-78155000D01*
X101861905Y-78155000D02*
X101957143Y-78107380D01*
X101957143Y-78107380D02*
X102195238Y-78107380D01*
X102195238Y-78107380D02*
X102290476Y-78155000D01*
X102290476Y-78155000D02*
X102338095Y-78202619D01*
X102338095Y-78202619D02*
X102385714Y-78297857D01*
X102385714Y-78297857D02*
X102385714Y-78393095D01*
X102385714Y-78393095D02*
X102338095Y-78535952D01*
X102338095Y-78535952D02*
X101766667Y-79107380D01*
X101766667Y-79107380D02*
X102385714Y-79107380D01*
X103290476Y-78107380D02*
X102814286Y-78107380D01*
X102814286Y-78107380D02*
X102766667Y-78583571D01*
X102766667Y-78583571D02*
X102814286Y-78535952D01*
X102814286Y-78535952D02*
X102909524Y-78488333D01*
X102909524Y-78488333D02*
X103147619Y-78488333D01*
X103147619Y-78488333D02*
X103242857Y-78535952D01*
X103242857Y-78535952D02*
X103290476Y-78583571D01*
X103290476Y-78583571D02*
X103338095Y-78678809D01*
X103338095Y-78678809D02*
X103338095Y-78916904D01*
X103338095Y-78916904D02*
X103290476Y-79012142D01*
X103290476Y-79012142D02*
X103242857Y-79059761D01*
X103242857Y-79059761D02*
X103147619Y-79107380D01*
X103147619Y-79107380D02*
X102909524Y-79107380D01*
X102909524Y-79107380D02*
X102814286Y-79059761D01*
X102814286Y-79059761D02*
X102766667Y-79012142D01*
X104195238Y-78107380D02*
X104004762Y-78107380D01*
X104004762Y-78107380D02*
X103909524Y-78155000D01*
X103909524Y-78155000D02*
X103861905Y-78202619D01*
X103861905Y-78202619D02*
X103766667Y-78345476D01*
X103766667Y-78345476D02*
X103719048Y-78535952D01*
X103719048Y-78535952D02*
X103719048Y-78916904D01*
X103719048Y-78916904D02*
X103766667Y-79012142D01*
X103766667Y-79012142D02*
X103814286Y-79059761D01*
X103814286Y-79059761D02*
X103909524Y-79107380D01*
X103909524Y-79107380D02*
X104100000Y-79107380D01*
X104100000Y-79107380D02*
X104195238Y-79059761D01*
X104195238Y-79059761D02*
X104242857Y-79012142D01*
X104242857Y-79012142D02*
X104290476Y-78916904D01*
X104290476Y-78916904D02*
X104290476Y-78678809D01*
X104290476Y-78678809D02*
X104242857Y-78583571D01*
X104242857Y-78583571D02*
X104195238Y-78535952D01*
X104195238Y-78535952D02*
X104100000Y-78488333D01*
X104100000Y-78488333D02*
X103909524Y-78488333D01*
X103909524Y-78488333D02*
X103814286Y-78535952D01*
X103814286Y-78535952D02*
X103766667Y-78583571D01*
X103766667Y-78583571D02*
X103719048Y-78678809D01*
%TO.C,CE1*%
X138096146Y-144792142D02*
X138048527Y-144839761D01*
X138048527Y-144839761D02*
X137905670Y-144887380D01*
X137905670Y-144887380D02*
X137810432Y-144887380D01*
X137810432Y-144887380D02*
X137667575Y-144839761D01*
X137667575Y-144839761D02*
X137572337Y-144744523D01*
X137572337Y-144744523D02*
X137524718Y-144649285D01*
X137524718Y-144649285D02*
X137477099Y-144458809D01*
X137477099Y-144458809D02*
X137477099Y-144315952D01*
X137477099Y-144315952D02*
X137524718Y-144125476D01*
X137524718Y-144125476D02*
X137572337Y-144030238D01*
X137572337Y-144030238D02*
X137667575Y-143935000D01*
X137667575Y-143935000D02*
X137810432Y-143887380D01*
X137810432Y-143887380D02*
X137905670Y-143887380D01*
X137905670Y-143887380D02*
X138048527Y-143935000D01*
X138048527Y-143935000D02*
X138096146Y-143982619D01*
X138524718Y-144363571D02*
X138858051Y-144363571D01*
X139000908Y-144887380D02*
X138524718Y-144887380D01*
X138524718Y-144887380D02*
X138524718Y-143887380D01*
X138524718Y-143887380D02*
X139000908Y-143887380D01*
X139953289Y-144887380D02*
X139381861Y-144887380D01*
X139667575Y-144887380D02*
X139667575Y-143887380D01*
X139667575Y-143887380D02*
X139572337Y-144030238D01*
X139572337Y-144030238D02*
X139477099Y-144125476D01*
X139477099Y-144125476D02*
X139381861Y-144173095D01*
D12*
X158047860Y-134106189D02*
X158047860Y-133915713D01*
X158162146Y-134144284D02*
X157762146Y-134010951D01*
X157762146Y-134010951D02*
X158162146Y-133877618D01*
X158162146Y-133534761D02*
X158162146Y-133763332D01*
X158162146Y-133649046D02*
X157762146Y-133649046D01*
X157762146Y-133649046D02*
X157819289Y-133687142D01*
X157819289Y-133687142D02*
X157857384Y-133725237D01*
X157857384Y-133725237D02*
X157876432Y-133763332D01*
X157762146Y-133287142D02*
X157762146Y-133249047D01*
X157762146Y-133249047D02*
X157781194Y-133210951D01*
X157781194Y-133210951D02*
X157800241Y-133191904D01*
X157800241Y-133191904D02*
X157838336Y-133172856D01*
X157838336Y-133172856D02*
X157914527Y-133153809D01*
X157914527Y-133153809D02*
X158009765Y-133153809D01*
X158009765Y-133153809D02*
X158085955Y-133172856D01*
X158085955Y-133172856D02*
X158124051Y-133191904D01*
X158124051Y-133191904D02*
X158143098Y-133210951D01*
X158143098Y-133210951D02*
X158162146Y-133249047D01*
X158162146Y-133249047D02*
X158162146Y-133287142D01*
X158162146Y-133287142D02*
X158143098Y-133325237D01*
X158143098Y-133325237D02*
X158124051Y-133344285D01*
X158124051Y-133344285D02*
X158085955Y-133363332D01*
X158085955Y-133363332D02*
X158009765Y-133382380D01*
X158009765Y-133382380D02*
X157914527Y-133382380D01*
X157914527Y-133382380D02*
X157838336Y-133363332D01*
X157838336Y-133363332D02*
X157800241Y-133344285D01*
X157800241Y-133344285D02*
X157781194Y-133325237D01*
X157781194Y-133325237D02*
X157762146Y-133287142D01*
X173422146Y-134171904D02*
X173022146Y-134171904D01*
X173422146Y-133981428D02*
X173022146Y-133981428D01*
X173022146Y-133981428D02*
X173422146Y-133752857D01*
X173422146Y-133752857D02*
X173022146Y-133752857D01*
X173022146Y-133619523D02*
X173022146Y-133390952D01*
X173422146Y-133505238D02*
X173022146Y-133505238D01*
X172881194Y-134227143D02*
X172881194Y-133392857D01*
X135282146Y-134135237D02*
X134882146Y-134135237D01*
X134882146Y-134135237D02*
X134882146Y-134039999D01*
X134882146Y-134039999D02*
X134901194Y-133982856D01*
X134901194Y-133982856D02*
X134939289Y-133944761D01*
X134939289Y-133944761D02*
X134977384Y-133925714D01*
X134977384Y-133925714D02*
X135053574Y-133906666D01*
X135053574Y-133906666D02*
X135110717Y-133906666D01*
X135110717Y-133906666D02*
X135186908Y-133925714D01*
X135186908Y-133925714D02*
X135225003Y-133944761D01*
X135225003Y-133944761D02*
X135263098Y-133982856D01*
X135263098Y-133982856D02*
X135282146Y-134039999D01*
X135282146Y-134039999D02*
X135282146Y-134135237D01*
X135015479Y-133563809D02*
X135282146Y-133563809D01*
X134863098Y-133659047D02*
X135148813Y-133754285D01*
X135148813Y-133754285D02*
X135148813Y-133506666D01*
X180984051Y-133937142D02*
X181003098Y-133956190D01*
X181003098Y-133956190D02*
X181022146Y-134013332D01*
X181022146Y-134013332D02*
X181022146Y-134051428D01*
X181022146Y-134051428D02*
X181003098Y-134108571D01*
X181003098Y-134108571D02*
X180965003Y-134146666D01*
X180965003Y-134146666D02*
X180926908Y-134165713D01*
X180926908Y-134165713D02*
X180850717Y-134184761D01*
X180850717Y-134184761D02*
X180793574Y-134184761D01*
X180793574Y-134184761D02*
X180717384Y-134165713D01*
X180717384Y-134165713D02*
X180679289Y-134146666D01*
X180679289Y-134146666D02*
X180641194Y-134108571D01*
X180641194Y-134108571D02*
X180622146Y-134051428D01*
X180622146Y-134051428D02*
X180622146Y-134013332D01*
X180622146Y-134013332D02*
X180641194Y-133956190D01*
X180641194Y-133956190D02*
X180660241Y-133937142D01*
X181003098Y-133784761D02*
X181022146Y-133727618D01*
X181022146Y-133727618D02*
X181022146Y-133632380D01*
X181022146Y-133632380D02*
X181003098Y-133594285D01*
X181003098Y-133594285D02*
X180984051Y-133575237D01*
X180984051Y-133575237D02*
X180945955Y-133556190D01*
X180945955Y-133556190D02*
X180907860Y-133556190D01*
X180907860Y-133556190D02*
X180869765Y-133575237D01*
X180869765Y-133575237D02*
X180850717Y-133594285D01*
X180850717Y-133594285D02*
X180831670Y-133632380D01*
X180831670Y-133632380D02*
X180812622Y-133708571D01*
X180812622Y-133708571D02*
X180793574Y-133746666D01*
X180793574Y-133746666D02*
X180774527Y-133765713D01*
X180774527Y-133765713D02*
X180736432Y-133784761D01*
X180736432Y-133784761D02*
X180698336Y-133784761D01*
X180698336Y-133784761D02*
X180660241Y-133765713D01*
X180660241Y-133765713D02*
X180641194Y-133746666D01*
X180641194Y-133746666D02*
X180622146Y-133708571D01*
X180622146Y-133708571D02*
X180622146Y-133613332D01*
X180622146Y-133613332D02*
X180641194Y-133556190D01*
X180660241Y-133403809D02*
X180641194Y-133384761D01*
X180641194Y-133384761D02*
X180622146Y-133346666D01*
X180622146Y-133346666D02*
X180622146Y-133251428D01*
X180622146Y-133251428D02*
X180641194Y-133213333D01*
X180641194Y-133213333D02*
X180660241Y-133194285D01*
X180660241Y-133194285D02*
X180698336Y-133175238D01*
X180698336Y-133175238D02*
X180736432Y-133175238D01*
X180736432Y-133175238D02*
X180793574Y-133194285D01*
X180793574Y-133194285D02*
X181022146Y-133422857D01*
X181022146Y-133422857D02*
X181022146Y-133175238D01*
X180481194Y-134220952D02*
X180481194Y-133139048D01*
X140382146Y-134135237D02*
X139982146Y-134135237D01*
X139982146Y-134135237D02*
X139982146Y-134039999D01*
X139982146Y-134039999D02*
X140001194Y-133982856D01*
X140001194Y-133982856D02*
X140039289Y-133944761D01*
X140039289Y-133944761D02*
X140077384Y-133925714D01*
X140077384Y-133925714D02*
X140153574Y-133906666D01*
X140153574Y-133906666D02*
X140210717Y-133906666D01*
X140210717Y-133906666D02*
X140286908Y-133925714D01*
X140286908Y-133925714D02*
X140325003Y-133944761D01*
X140325003Y-133944761D02*
X140363098Y-133982856D01*
X140363098Y-133982856D02*
X140382146Y-134039999D01*
X140382146Y-134039999D02*
X140382146Y-134135237D01*
X139982146Y-133659047D02*
X139982146Y-133620952D01*
X139982146Y-133620952D02*
X140001194Y-133582856D01*
X140001194Y-133582856D02*
X140020241Y-133563809D01*
X140020241Y-133563809D02*
X140058336Y-133544761D01*
X140058336Y-133544761D02*
X140134527Y-133525714D01*
X140134527Y-133525714D02*
X140229765Y-133525714D01*
X140229765Y-133525714D02*
X140305955Y-133544761D01*
X140305955Y-133544761D02*
X140344051Y-133563809D01*
X140344051Y-133563809D02*
X140363098Y-133582856D01*
X140363098Y-133582856D02*
X140382146Y-133620952D01*
X140382146Y-133620952D02*
X140382146Y-133659047D01*
X140382146Y-133659047D02*
X140363098Y-133697142D01*
X140363098Y-133697142D02*
X140344051Y-133716190D01*
X140344051Y-133716190D02*
X140305955Y-133735237D01*
X140305955Y-133735237D02*
X140229765Y-133754285D01*
X140229765Y-133754285D02*
X140134527Y-133754285D01*
X140134527Y-133754285D02*
X140058336Y-133735237D01*
X140058336Y-133735237D02*
X140020241Y-133716190D01*
X140020241Y-133716190D02*
X140001194Y-133697142D01*
X140001194Y-133697142D02*
X139982146Y-133659047D01*
X137832146Y-134135237D02*
X137432146Y-134135237D01*
X137432146Y-134135237D02*
X137432146Y-134039999D01*
X137432146Y-134039999D02*
X137451194Y-133982856D01*
X137451194Y-133982856D02*
X137489289Y-133944761D01*
X137489289Y-133944761D02*
X137527384Y-133925714D01*
X137527384Y-133925714D02*
X137603574Y-133906666D01*
X137603574Y-133906666D02*
X137660717Y-133906666D01*
X137660717Y-133906666D02*
X137736908Y-133925714D01*
X137736908Y-133925714D02*
X137775003Y-133944761D01*
X137775003Y-133944761D02*
X137813098Y-133982856D01*
X137813098Y-133982856D02*
X137832146Y-134039999D01*
X137832146Y-134039999D02*
X137832146Y-134135237D01*
X137470241Y-133754285D02*
X137451194Y-133735237D01*
X137451194Y-133735237D02*
X137432146Y-133697142D01*
X137432146Y-133697142D02*
X137432146Y-133601904D01*
X137432146Y-133601904D02*
X137451194Y-133563809D01*
X137451194Y-133563809D02*
X137470241Y-133544761D01*
X137470241Y-133544761D02*
X137508336Y-133525714D01*
X137508336Y-133525714D02*
X137546432Y-133525714D01*
X137546432Y-133525714D02*
X137603574Y-133544761D01*
X137603574Y-133544761D02*
X137832146Y-133773333D01*
X137832146Y-133773333D02*
X137832146Y-133525714D01*
X150427860Y-134076189D02*
X150427860Y-133885713D01*
X150542146Y-134114284D02*
X150142146Y-133980951D01*
X150142146Y-133980951D02*
X150542146Y-133847618D01*
X150542146Y-133504761D02*
X150542146Y-133733332D01*
X150542146Y-133619046D02*
X150142146Y-133619046D01*
X150142146Y-133619046D02*
X150199289Y-133657142D01*
X150199289Y-133657142D02*
X150237384Y-133695237D01*
X150237384Y-133695237D02*
X150256432Y-133733332D01*
X150142146Y-133371428D02*
X150142146Y-133123809D01*
X150142146Y-133123809D02*
X150294527Y-133257142D01*
X150294527Y-133257142D02*
X150294527Y-133199999D01*
X150294527Y-133199999D02*
X150313574Y-133161904D01*
X150313574Y-133161904D02*
X150332622Y-133142856D01*
X150332622Y-133142856D02*
X150370717Y-133123809D01*
X150370717Y-133123809D02*
X150465955Y-133123809D01*
X150465955Y-133123809D02*
X150504051Y-133142856D01*
X150504051Y-133142856D02*
X150523098Y-133161904D01*
X150523098Y-133161904D02*
X150542146Y-133199999D01*
X150542146Y-133199999D02*
X150542146Y-133314285D01*
X150542146Y-133314285D02*
X150523098Y-133352380D01*
X150523098Y-133352380D02*
X150504051Y-133371428D01*
X165792146Y-133916190D02*
X165601670Y-134049523D01*
X165792146Y-134144761D02*
X165392146Y-134144761D01*
X165392146Y-134144761D02*
X165392146Y-133992380D01*
X165392146Y-133992380D02*
X165411194Y-133954285D01*
X165411194Y-133954285D02*
X165430241Y-133935238D01*
X165430241Y-133935238D02*
X165468336Y-133916190D01*
X165468336Y-133916190D02*
X165525479Y-133916190D01*
X165525479Y-133916190D02*
X165563574Y-133935238D01*
X165563574Y-133935238D02*
X165582622Y-133954285D01*
X165582622Y-133954285D02*
X165601670Y-133992380D01*
X165601670Y-133992380D02*
X165601670Y-134144761D01*
X165792146Y-133744761D02*
X165392146Y-133744761D01*
X165392146Y-133744761D02*
X165392146Y-133649523D01*
X165392146Y-133649523D02*
X165411194Y-133592380D01*
X165411194Y-133592380D02*
X165449289Y-133554285D01*
X165449289Y-133554285D02*
X165487384Y-133535238D01*
X165487384Y-133535238D02*
X165563574Y-133516190D01*
X165563574Y-133516190D02*
X165620717Y-133516190D01*
X165620717Y-133516190D02*
X165696908Y-133535238D01*
X165696908Y-133535238D02*
X165735003Y-133554285D01*
X165735003Y-133554285D02*
X165773098Y-133592380D01*
X165773098Y-133592380D02*
X165792146Y-133649523D01*
X165792146Y-133649523D02*
X165792146Y-133744761D01*
X165251194Y-134200000D02*
X165251194Y-133480000D01*
X175982146Y-133947618D02*
X175791670Y-134080951D01*
X175982146Y-134176189D02*
X175582146Y-134176189D01*
X175582146Y-134176189D02*
X175582146Y-134023808D01*
X175582146Y-134023808D02*
X175601194Y-133985713D01*
X175601194Y-133985713D02*
X175620241Y-133966666D01*
X175620241Y-133966666D02*
X175658336Y-133947618D01*
X175658336Y-133947618D02*
X175715479Y-133947618D01*
X175715479Y-133947618D02*
X175753574Y-133966666D01*
X175753574Y-133966666D02*
X175772622Y-133985713D01*
X175772622Y-133985713D02*
X175791670Y-134023808D01*
X175791670Y-134023808D02*
X175791670Y-134176189D01*
X175772622Y-133642856D02*
X175772622Y-133776189D01*
X175982146Y-133776189D02*
X175582146Y-133776189D01*
X175582146Y-133776189D02*
X175582146Y-133585713D01*
X175963098Y-133452380D02*
X175982146Y-133395237D01*
X175982146Y-133395237D02*
X175982146Y-133299999D01*
X175982146Y-133299999D02*
X175963098Y-133261904D01*
X175963098Y-133261904D02*
X175944051Y-133242856D01*
X175944051Y-133242856D02*
X175905955Y-133223809D01*
X175905955Y-133223809D02*
X175867860Y-133223809D01*
X175867860Y-133223809D02*
X175829765Y-133242856D01*
X175829765Y-133242856D02*
X175810717Y-133261904D01*
X175810717Y-133261904D02*
X175791670Y-133299999D01*
X175791670Y-133299999D02*
X175772622Y-133376190D01*
X175772622Y-133376190D02*
X175753574Y-133414285D01*
X175753574Y-133414285D02*
X175734527Y-133433332D01*
X175734527Y-133433332D02*
X175696432Y-133452380D01*
X175696432Y-133452380D02*
X175658336Y-133452380D01*
X175658336Y-133452380D02*
X175620241Y-133433332D01*
X175620241Y-133433332D02*
X175601194Y-133414285D01*
X175601194Y-133414285D02*
X175582146Y-133376190D01*
X175582146Y-133376190D02*
X175582146Y-133280951D01*
X175582146Y-133280951D02*
X175601194Y-133223809D01*
X175982146Y-133052380D02*
X175582146Y-133052380D01*
X175772622Y-133052380D02*
X175772622Y-132823809D01*
X175982146Y-132823809D02*
X175582146Y-132823809D01*
X175441194Y-134231428D02*
X175441194Y-132768571D01*
X132762146Y-134105237D02*
X132362146Y-134105237D01*
X132362146Y-134105237D02*
X132362146Y-134009999D01*
X132362146Y-134009999D02*
X132381194Y-133952856D01*
X132381194Y-133952856D02*
X132419289Y-133914761D01*
X132419289Y-133914761D02*
X132457384Y-133895714D01*
X132457384Y-133895714D02*
X132533574Y-133876666D01*
X132533574Y-133876666D02*
X132590717Y-133876666D01*
X132590717Y-133876666D02*
X132666908Y-133895714D01*
X132666908Y-133895714D02*
X132705003Y-133914761D01*
X132705003Y-133914761D02*
X132743098Y-133952856D01*
X132743098Y-133952856D02*
X132762146Y-134009999D01*
X132762146Y-134009999D02*
X132762146Y-134105237D01*
X132362146Y-133533809D02*
X132362146Y-133609999D01*
X132362146Y-133609999D02*
X132381194Y-133648095D01*
X132381194Y-133648095D02*
X132400241Y-133667142D01*
X132400241Y-133667142D02*
X132457384Y-133705237D01*
X132457384Y-133705237D02*
X132533574Y-133724285D01*
X132533574Y-133724285D02*
X132685955Y-133724285D01*
X132685955Y-133724285D02*
X132724051Y-133705237D01*
X132724051Y-133705237D02*
X132743098Y-133686190D01*
X132743098Y-133686190D02*
X132762146Y-133648095D01*
X132762146Y-133648095D02*
X132762146Y-133571904D01*
X132762146Y-133571904D02*
X132743098Y-133533809D01*
X132743098Y-133533809D02*
X132724051Y-133514761D01*
X132724051Y-133514761D02*
X132685955Y-133495714D01*
X132685955Y-133495714D02*
X132590717Y-133495714D01*
X132590717Y-133495714D02*
X132552622Y-133514761D01*
X132552622Y-133514761D02*
X132533574Y-133533809D01*
X132533574Y-133533809D02*
X132514527Y-133571904D01*
X132514527Y-133571904D02*
X132514527Y-133648095D01*
X132514527Y-133648095D02*
X132533574Y-133686190D01*
X132533574Y-133686190D02*
X132552622Y-133705237D01*
X132552622Y-133705237D02*
X132590717Y-133724285D01*
X145347860Y-134125713D02*
X145347860Y-133935237D01*
X145462146Y-134163808D02*
X145062146Y-134030475D01*
X145062146Y-134030475D02*
X145462146Y-133897142D01*
X145100241Y-133782856D02*
X145081194Y-133763808D01*
X145081194Y-133763808D02*
X145062146Y-133725713D01*
X145062146Y-133725713D02*
X145062146Y-133630475D01*
X145062146Y-133630475D02*
X145081194Y-133592380D01*
X145081194Y-133592380D02*
X145100241Y-133573332D01*
X145100241Y-133573332D02*
X145138336Y-133554285D01*
X145138336Y-133554285D02*
X145176432Y-133554285D01*
X145176432Y-133554285D02*
X145233574Y-133573332D01*
X145233574Y-133573332D02*
X145462146Y-133801904D01*
X145462146Y-133801904D02*
X145462146Y-133554285D01*
X155497860Y-134095713D02*
X155497860Y-133905237D01*
X155612146Y-134133808D02*
X155212146Y-134000475D01*
X155212146Y-134000475D02*
X155612146Y-133867142D01*
X155212146Y-133562380D02*
X155212146Y-133638570D01*
X155212146Y-133638570D02*
X155231194Y-133676666D01*
X155231194Y-133676666D02*
X155250241Y-133695713D01*
X155250241Y-133695713D02*
X155307384Y-133733808D01*
X155307384Y-133733808D02*
X155383574Y-133752856D01*
X155383574Y-133752856D02*
X155535955Y-133752856D01*
X155535955Y-133752856D02*
X155574051Y-133733808D01*
X155574051Y-133733808D02*
X155593098Y-133714761D01*
X155593098Y-133714761D02*
X155612146Y-133676666D01*
X155612146Y-133676666D02*
X155612146Y-133600475D01*
X155612146Y-133600475D02*
X155593098Y-133562380D01*
X155593098Y-133562380D02*
X155574051Y-133543332D01*
X155574051Y-133543332D02*
X155535955Y-133524285D01*
X155535955Y-133524285D02*
X155440717Y-133524285D01*
X155440717Y-133524285D02*
X155402622Y-133543332D01*
X155402622Y-133543332D02*
X155383574Y-133562380D01*
X155383574Y-133562380D02*
X155364527Y-133600475D01*
X155364527Y-133600475D02*
X155364527Y-133676666D01*
X155364527Y-133676666D02*
X155383574Y-133714761D01*
X155383574Y-133714761D02*
X155402622Y-133733808D01*
X155402622Y-133733808D02*
X155440717Y-133752856D01*
X168312146Y-134123809D02*
X167912146Y-134123809D01*
X167912146Y-134123809D02*
X168197860Y-133990476D01*
X168197860Y-133990476D02*
X167912146Y-133857143D01*
X167912146Y-133857143D02*
X168312146Y-133857143D01*
X168102622Y-133666666D02*
X168102622Y-133533333D01*
X168312146Y-133476190D02*
X168312146Y-133666666D01*
X168312146Y-133666666D02*
X167912146Y-133666666D01*
X167912146Y-133666666D02*
X167912146Y-133476190D01*
X168312146Y-133076190D02*
X168121670Y-133209523D01*
X168312146Y-133304761D02*
X167912146Y-133304761D01*
X167912146Y-133304761D02*
X167912146Y-133152380D01*
X167912146Y-133152380D02*
X167931194Y-133114285D01*
X167931194Y-133114285D02*
X167950241Y-133095238D01*
X167950241Y-133095238D02*
X167988336Y-133076190D01*
X167988336Y-133076190D02*
X168045479Y-133076190D01*
X168045479Y-133076190D02*
X168083574Y-133095238D01*
X168083574Y-133095238D02*
X168102622Y-133114285D01*
X168102622Y-133114285D02*
X168121670Y-133152380D01*
X168121670Y-133152380D02*
X168121670Y-133304761D01*
X168350241Y-132638095D02*
X168331194Y-132676190D01*
X168331194Y-132676190D02*
X168293098Y-132714285D01*
X168293098Y-132714285D02*
X168235955Y-132771428D01*
X168235955Y-132771428D02*
X168216908Y-132809523D01*
X168216908Y-132809523D02*
X168216908Y-132847619D01*
X168312146Y-132828571D02*
X168293098Y-132866666D01*
X168293098Y-132866666D02*
X168255003Y-132904761D01*
X168255003Y-132904761D02*
X168178813Y-132923809D01*
X168178813Y-132923809D02*
X168045479Y-132923809D01*
X168045479Y-132923809D02*
X167969289Y-132904761D01*
X167969289Y-132904761D02*
X167931194Y-132866666D01*
X167931194Y-132866666D02*
X167912146Y-132828571D01*
X167912146Y-132828571D02*
X167912146Y-132752380D01*
X167912146Y-132752380D02*
X167931194Y-132714285D01*
X167931194Y-132714285D02*
X167969289Y-132676190D01*
X167969289Y-132676190D02*
X168045479Y-132657142D01*
X168045479Y-132657142D02*
X168178813Y-132657142D01*
X168178813Y-132657142D02*
X168255003Y-132676190D01*
X168255003Y-132676190D02*
X168293098Y-132714285D01*
X168293098Y-132714285D02*
X168312146Y-132752380D01*
X168312146Y-132752380D02*
X168312146Y-132828571D01*
X167771194Y-134179048D02*
X167771194Y-132620952D01*
X147907860Y-134125713D02*
X147907860Y-133935237D01*
X148022146Y-134163808D02*
X147622146Y-134030475D01*
X147622146Y-134030475D02*
X148022146Y-133897142D01*
X147622146Y-133687618D02*
X147622146Y-133649523D01*
X147622146Y-133649523D02*
X147641194Y-133611427D01*
X147641194Y-133611427D02*
X147660241Y-133592380D01*
X147660241Y-133592380D02*
X147698336Y-133573332D01*
X147698336Y-133573332D02*
X147774527Y-133554285D01*
X147774527Y-133554285D02*
X147869765Y-133554285D01*
X147869765Y-133554285D02*
X147945955Y-133573332D01*
X147945955Y-133573332D02*
X147984051Y-133592380D01*
X147984051Y-133592380D02*
X148003098Y-133611427D01*
X148003098Y-133611427D02*
X148022146Y-133649523D01*
X148022146Y-133649523D02*
X148022146Y-133687618D01*
X148022146Y-133687618D02*
X148003098Y-133725713D01*
X148003098Y-133725713D02*
X147984051Y-133744761D01*
X147984051Y-133744761D02*
X147945955Y-133763808D01*
X147945955Y-133763808D02*
X147869765Y-133782856D01*
X147869765Y-133782856D02*
X147774527Y-133782856D01*
X147774527Y-133782856D02*
X147698336Y-133763808D01*
X147698336Y-133763808D02*
X147660241Y-133744761D01*
X147660241Y-133744761D02*
X147641194Y-133725713D01*
X147641194Y-133725713D02*
X147622146Y-133687618D01*
X130174051Y-133877619D02*
X130193098Y-133896667D01*
X130193098Y-133896667D02*
X130212146Y-133953809D01*
X130212146Y-133953809D02*
X130212146Y-133991905D01*
X130212146Y-133991905D02*
X130193098Y-134049048D01*
X130193098Y-134049048D02*
X130155003Y-134087143D01*
X130155003Y-134087143D02*
X130116908Y-134106190D01*
X130116908Y-134106190D02*
X130040717Y-134125238D01*
X130040717Y-134125238D02*
X129983574Y-134125238D01*
X129983574Y-134125238D02*
X129907384Y-134106190D01*
X129907384Y-134106190D02*
X129869289Y-134087143D01*
X129869289Y-134087143D02*
X129831194Y-134049048D01*
X129831194Y-134049048D02*
X129812146Y-133991905D01*
X129812146Y-133991905D02*
X129812146Y-133953809D01*
X129812146Y-133953809D02*
X129831194Y-133896667D01*
X129831194Y-133896667D02*
X129850241Y-133877619D01*
X130212146Y-133515714D02*
X130212146Y-133706190D01*
X130212146Y-133706190D02*
X129812146Y-133706190D01*
X129812146Y-133306190D02*
X129812146Y-133229999D01*
X129812146Y-133229999D02*
X129831194Y-133191904D01*
X129831194Y-133191904D02*
X129869289Y-133153809D01*
X129869289Y-133153809D02*
X129945479Y-133134761D01*
X129945479Y-133134761D02*
X130078813Y-133134761D01*
X130078813Y-133134761D02*
X130155003Y-133153809D01*
X130155003Y-133153809D02*
X130193098Y-133191904D01*
X130193098Y-133191904D02*
X130212146Y-133229999D01*
X130212146Y-133229999D02*
X130212146Y-133306190D01*
X130212146Y-133306190D02*
X130193098Y-133344285D01*
X130193098Y-133344285D02*
X130155003Y-133382380D01*
X130155003Y-133382380D02*
X130078813Y-133401428D01*
X130078813Y-133401428D02*
X129945479Y-133401428D01*
X129945479Y-133401428D02*
X129869289Y-133382380D01*
X129869289Y-133382380D02*
X129831194Y-133344285D01*
X129831194Y-133344285D02*
X129812146Y-133306190D01*
X130174051Y-132734761D02*
X130193098Y-132753809D01*
X130193098Y-132753809D02*
X130212146Y-132810951D01*
X130212146Y-132810951D02*
X130212146Y-132849047D01*
X130212146Y-132849047D02*
X130193098Y-132906190D01*
X130193098Y-132906190D02*
X130155003Y-132944285D01*
X130155003Y-132944285D02*
X130116908Y-132963332D01*
X130116908Y-132963332D02*
X130040717Y-132982380D01*
X130040717Y-132982380D02*
X129983574Y-132982380D01*
X129983574Y-132982380D02*
X129907384Y-132963332D01*
X129907384Y-132963332D02*
X129869289Y-132944285D01*
X129869289Y-132944285D02*
X129831194Y-132906190D01*
X129831194Y-132906190D02*
X129812146Y-132849047D01*
X129812146Y-132849047D02*
X129812146Y-132810951D01*
X129812146Y-132810951D02*
X129831194Y-132753809D01*
X129831194Y-132753809D02*
X129850241Y-132734761D01*
X130212146Y-132563332D02*
X129812146Y-132563332D01*
X130212146Y-132334761D02*
X129983574Y-132506190D01*
X129812146Y-132334761D02*
X130040717Y-132563332D01*
X119909765Y-134134760D02*
X119909765Y-133829999D01*
X120062146Y-133429999D02*
X120062146Y-133658570D01*
X120062146Y-133544284D02*
X119662146Y-133544284D01*
X119662146Y-133544284D02*
X119719289Y-133582380D01*
X119719289Y-133582380D02*
X119757384Y-133620475D01*
X119757384Y-133620475D02*
X119776432Y-133658570D01*
X119700241Y-133277618D02*
X119681194Y-133258570D01*
X119681194Y-133258570D02*
X119662146Y-133220475D01*
X119662146Y-133220475D02*
X119662146Y-133125237D01*
X119662146Y-133125237D02*
X119681194Y-133087142D01*
X119681194Y-133087142D02*
X119700241Y-133068094D01*
X119700241Y-133068094D02*
X119738336Y-133049047D01*
X119738336Y-133049047D02*
X119776432Y-133049047D01*
X119776432Y-133049047D02*
X119833574Y-133068094D01*
X119833574Y-133068094D02*
X120062146Y-133296666D01*
X120062146Y-133296666D02*
X120062146Y-133049047D01*
X119662146Y-132934761D02*
X120062146Y-132801428D01*
X120062146Y-132801428D02*
X119662146Y-132668095D01*
X122459765Y-134134760D02*
X122459765Y-133829999D01*
X122612146Y-133982379D02*
X122307384Y-133982379D01*
X122612146Y-133429999D02*
X122612146Y-133658570D01*
X122612146Y-133544284D02*
X122212146Y-133544284D01*
X122212146Y-133544284D02*
X122269289Y-133582380D01*
X122269289Y-133582380D02*
X122307384Y-133620475D01*
X122307384Y-133620475D02*
X122326432Y-133658570D01*
X122250241Y-133277618D02*
X122231194Y-133258570D01*
X122231194Y-133258570D02*
X122212146Y-133220475D01*
X122212146Y-133220475D02*
X122212146Y-133125237D01*
X122212146Y-133125237D02*
X122231194Y-133087142D01*
X122231194Y-133087142D02*
X122250241Y-133068094D01*
X122250241Y-133068094D02*
X122288336Y-133049047D01*
X122288336Y-133049047D02*
X122326432Y-133049047D01*
X122326432Y-133049047D02*
X122383574Y-133068094D01*
X122383574Y-133068094D02*
X122612146Y-133296666D01*
X122612146Y-133296666D02*
X122612146Y-133049047D01*
X122212146Y-132934761D02*
X122612146Y-132801428D01*
X122612146Y-132801428D02*
X122212146Y-132668095D01*
X152977860Y-134125713D02*
X152977860Y-133935237D01*
X153092146Y-134163808D02*
X152692146Y-134030475D01*
X152692146Y-134030475D02*
X153092146Y-133897142D01*
X152863574Y-133706666D02*
X152844527Y-133744761D01*
X152844527Y-133744761D02*
X152825479Y-133763808D01*
X152825479Y-133763808D02*
X152787384Y-133782856D01*
X152787384Y-133782856D02*
X152768336Y-133782856D01*
X152768336Y-133782856D02*
X152730241Y-133763808D01*
X152730241Y-133763808D02*
X152711194Y-133744761D01*
X152711194Y-133744761D02*
X152692146Y-133706666D01*
X152692146Y-133706666D02*
X152692146Y-133630475D01*
X152692146Y-133630475D02*
X152711194Y-133592380D01*
X152711194Y-133592380D02*
X152730241Y-133573332D01*
X152730241Y-133573332D02*
X152768336Y-133554285D01*
X152768336Y-133554285D02*
X152787384Y-133554285D01*
X152787384Y-133554285D02*
X152825479Y-133573332D01*
X152825479Y-133573332D02*
X152844527Y-133592380D01*
X152844527Y-133592380D02*
X152863574Y-133630475D01*
X152863574Y-133630475D02*
X152863574Y-133706666D01*
X152863574Y-133706666D02*
X152882622Y-133744761D01*
X152882622Y-133744761D02*
X152901670Y-133763808D01*
X152901670Y-133763808D02*
X152939765Y-133782856D01*
X152939765Y-133782856D02*
X153015955Y-133782856D01*
X153015955Y-133782856D02*
X153054051Y-133763808D01*
X153054051Y-133763808D02*
X153073098Y-133744761D01*
X153073098Y-133744761D02*
X153092146Y-133706666D01*
X153092146Y-133706666D02*
X153092146Y-133630475D01*
X153092146Y-133630475D02*
X153073098Y-133592380D01*
X153073098Y-133592380D02*
X153054051Y-133573332D01*
X153054051Y-133573332D02*
X153015955Y-133554285D01*
X153015955Y-133554285D02*
X152939765Y-133554285D01*
X152939765Y-133554285D02*
X152901670Y-133573332D01*
X152901670Y-133573332D02*
X152882622Y-133592380D01*
X152882622Y-133592380D02*
X152863574Y-133630475D01*
X160537860Y-134106189D02*
X160537860Y-133915713D01*
X160652146Y-134144284D02*
X160252146Y-134010951D01*
X160252146Y-134010951D02*
X160652146Y-133877618D01*
X160652146Y-133534761D02*
X160652146Y-133763332D01*
X160652146Y-133649046D02*
X160252146Y-133649046D01*
X160252146Y-133649046D02*
X160309289Y-133687142D01*
X160309289Y-133687142D02*
X160347384Y-133725237D01*
X160347384Y-133725237D02*
X160366432Y-133763332D01*
X160252146Y-133172856D02*
X160252146Y-133363332D01*
X160252146Y-133363332D02*
X160442622Y-133382380D01*
X160442622Y-133382380D02*
X160423574Y-133363332D01*
X160423574Y-133363332D02*
X160404527Y-133325237D01*
X160404527Y-133325237D02*
X160404527Y-133229999D01*
X160404527Y-133229999D02*
X160423574Y-133191904D01*
X160423574Y-133191904D02*
X160442622Y-133172856D01*
X160442622Y-133172856D02*
X160480717Y-133153809D01*
X160480717Y-133153809D02*
X160575955Y-133153809D01*
X160575955Y-133153809D02*
X160614051Y-133172856D01*
X160614051Y-133172856D02*
X160633098Y-133191904D01*
X160633098Y-133191904D02*
X160652146Y-133229999D01*
X160652146Y-133229999D02*
X160652146Y-133325237D01*
X160652146Y-133325237D02*
X160633098Y-133363332D01*
X160633098Y-133363332D02*
X160614051Y-133382380D01*
X178473098Y-134190952D02*
X178492146Y-134133809D01*
X178492146Y-134133809D02*
X178492146Y-134038571D01*
X178492146Y-134038571D02*
X178473098Y-134000476D01*
X178473098Y-134000476D02*
X178454051Y-133981428D01*
X178454051Y-133981428D02*
X178415955Y-133962381D01*
X178415955Y-133962381D02*
X178377860Y-133962381D01*
X178377860Y-133962381D02*
X178339765Y-133981428D01*
X178339765Y-133981428D02*
X178320717Y-134000476D01*
X178320717Y-134000476D02*
X178301670Y-134038571D01*
X178301670Y-134038571D02*
X178282622Y-134114762D01*
X178282622Y-134114762D02*
X178263574Y-134152857D01*
X178263574Y-134152857D02*
X178244527Y-134171904D01*
X178244527Y-134171904D02*
X178206432Y-134190952D01*
X178206432Y-134190952D02*
X178168336Y-134190952D01*
X178168336Y-134190952D02*
X178130241Y-134171904D01*
X178130241Y-134171904D02*
X178111194Y-134152857D01*
X178111194Y-134152857D02*
X178092146Y-134114762D01*
X178092146Y-134114762D02*
X178092146Y-134019523D01*
X178092146Y-134019523D02*
X178111194Y-133962381D01*
X178492146Y-133600476D02*
X178492146Y-133790952D01*
X178492146Y-133790952D02*
X178092146Y-133790952D01*
X178092146Y-133524285D02*
X178092146Y-133295714D01*
X178492146Y-133410000D02*
X178092146Y-133410000D01*
X178473098Y-133181428D02*
X178492146Y-133124285D01*
X178492146Y-133124285D02*
X178492146Y-133029047D01*
X178492146Y-133029047D02*
X178473098Y-132990952D01*
X178473098Y-132990952D02*
X178454051Y-132971904D01*
X178454051Y-132971904D02*
X178415955Y-132952857D01*
X178415955Y-132952857D02*
X178377860Y-132952857D01*
X178377860Y-132952857D02*
X178339765Y-132971904D01*
X178339765Y-132971904D02*
X178320717Y-132990952D01*
X178320717Y-132990952D02*
X178301670Y-133029047D01*
X178301670Y-133029047D02*
X178282622Y-133105238D01*
X178282622Y-133105238D02*
X178263574Y-133143333D01*
X178263574Y-133143333D02*
X178244527Y-133162380D01*
X178244527Y-133162380D02*
X178206432Y-133181428D01*
X178206432Y-133181428D02*
X178168336Y-133181428D01*
X178168336Y-133181428D02*
X178130241Y-133162380D01*
X178130241Y-133162380D02*
X178111194Y-133143333D01*
X178111194Y-133143333D02*
X178092146Y-133105238D01*
X178092146Y-133105238D02*
X178092146Y-133009999D01*
X178092146Y-133009999D02*
X178111194Y-132952857D01*
X178492146Y-132590952D02*
X178492146Y-132781428D01*
X178492146Y-132781428D02*
X178092146Y-132781428D01*
X177951194Y-134227143D02*
X177951194Y-132592857D01*
X163242146Y-134174761D02*
X162842146Y-134174761D01*
X162842146Y-134174761D02*
X163242146Y-133946190D01*
X163242146Y-133946190D02*
X162842146Y-133946190D01*
X163204051Y-133755713D02*
X163223098Y-133736666D01*
X163223098Y-133736666D02*
X163242146Y-133755713D01*
X163242146Y-133755713D02*
X163223098Y-133774761D01*
X163223098Y-133774761D02*
X163204051Y-133755713D01*
X163204051Y-133755713D02*
X163242146Y-133755713D01*
X163204051Y-133336666D02*
X163223098Y-133355714D01*
X163223098Y-133355714D02*
X163242146Y-133412856D01*
X163242146Y-133412856D02*
X163242146Y-133450952D01*
X163242146Y-133450952D02*
X163223098Y-133508095D01*
X163223098Y-133508095D02*
X163185003Y-133546190D01*
X163185003Y-133546190D02*
X163146908Y-133565237D01*
X163146908Y-133565237D02*
X163070717Y-133584285D01*
X163070717Y-133584285D02*
X163013574Y-133584285D01*
X163013574Y-133584285D02*
X162937384Y-133565237D01*
X162937384Y-133565237D02*
X162899289Y-133546190D01*
X162899289Y-133546190D02*
X162861194Y-133508095D01*
X162861194Y-133508095D02*
X162842146Y-133450952D01*
X162842146Y-133450952D02*
X162842146Y-133412856D01*
X162842146Y-133412856D02*
X162861194Y-133355714D01*
X162861194Y-133355714D02*
X162880241Y-133336666D01*
X163204051Y-133165237D02*
X163223098Y-133146190D01*
X163223098Y-133146190D02*
X163242146Y-133165237D01*
X163242146Y-133165237D02*
X163223098Y-133184285D01*
X163223098Y-133184285D02*
X163204051Y-133165237D01*
X163204051Y-133165237D02*
X163242146Y-133165237D01*
X170662622Y-134031428D02*
X170681670Y-133974285D01*
X170681670Y-133974285D02*
X170700717Y-133955238D01*
X170700717Y-133955238D02*
X170738813Y-133936190D01*
X170738813Y-133936190D02*
X170795955Y-133936190D01*
X170795955Y-133936190D02*
X170834051Y-133955238D01*
X170834051Y-133955238D02*
X170853098Y-133974285D01*
X170853098Y-133974285D02*
X170872146Y-134012380D01*
X170872146Y-134012380D02*
X170872146Y-134164761D01*
X170872146Y-134164761D02*
X170472146Y-134164761D01*
X170472146Y-134164761D02*
X170472146Y-134031428D01*
X170472146Y-134031428D02*
X170491194Y-133993333D01*
X170491194Y-133993333D02*
X170510241Y-133974285D01*
X170510241Y-133974285D02*
X170548336Y-133955238D01*
X170548336Y-133955238D02*
X170586432Y-133955238D01*
X170586432Y-133955238D02*
X170624527Y-133974285D01*
X170624527Y-133974285D02*
X170643574Y-133993333D01*
X170643574Y-133993333D02*
X170662622Y-134031428D01*
X170662622Y-134031428D02*
X170662622Y-134164761D01*
X170472146Y-133764761D02*
X170795955Y-133764761D01*
X170795955Y-133764761D02*
X170834051Y-133745714D01*
X170834051Y-133745714D02*
X170853098Y-133726666D01*
X170853098Y-133726666D02*
X170872146Y-133688571D01*
X170872146Y-133688571D02*
X170872146Y-133612380D01*
X170872146Y-133612380D02*
X170853098Y-133574285D01*
X170853098Y-133574285D02*
X170834051Y-133555238D01*
X170834051Y-133555238D02*
X170795955Y-133536190D01*
X170795955Y-133536190D02*
X170472146Y-133536190D01*
X170853098Y-133364761D02*
X170872146Y-133307618D01*
X170872146Y-133307618D02*
X170872146Y-133212380D01*
X170872146Y-133212380D02*
X170853098Y-133174285D01*
X170853098Y-133174285D02*
X170834051Y-133155237D01*
X170834051Y-133155237D02*
X170795955Y-133136190D01*
X170795955Y-133136190D02*
X170757860Y-133136190D01*
X170757860Y-133136190D02*
X170719765Y-133155237D01*
X170719765Y-133155237D02*
X170700717Y-133174285D01*
X170700717Y-133174285D02*
X170681670Y-133212380D01*
X170681670Y-133212380D02*
X170662622Y-133288571D01*
X170662622Y-133288571D02*
X170643574Y-133326666D01*
X170643574Y-133326666D02*
X170624527Y-133345713D01*
X170624527Y-133345713D02*
X170586432Y-133364761D01*
X170586432Y-133364761D02*
X170548336Y-133364761D01*
X170548336Y-133364761D02*
X170510241Y-133345713D01*
X170510241Y-133345713D02*
X170491194Y-133326666D01*
X170491194Y-133326666D02*
X170472146Y-133288571D01*
X170472146Y-133288571D02*
X170472146Y-133193332D01*
X170472146Y-133193332D02*
X170491194Y-133136190D01*
X170872146Y-132964761D02*
X170472146Y-132964761D01*
X170472146Y-132964761D02*
X170472146Y-132869523D01*
X170472146Y-132869523D02*
X170491194Y-132812380D01*
X170491194Y-132812380D02*
X170529289Y-132774285D01*
X170529289Y-132774285D02*
X170567384Y-132755238D01*
X170567384Y-132755238D02*
X170643574Y-132736190D01*
X170643574Y-132736190D02*
X170700717Y-132736190D01*
X170700717Y-132736190D02*
X170776908Y-132755238D01*
X170776908Y-132755238D02*
X170815003Y-132774285D01*
X170815003Y-132774285D02*
X170853098Y-132812380D01*
X170853098Y-132812380D02*
X170872146Y-132869523D01*
X170872146Y-132869523D02*
X170872146Y-132964761D01*
X170331194Y-134220000D02*
X170331194Y-132700000D01*
X142827860Y-134125713D02*
X142827860Y-133935237D01*
X142942146Y-134163808D02*
X142542146Y-134030475D01*
X142542146Y-134030475D02*
X142942146Y-133897142D01*
X142675479Y-133592380D02*
X142942146Y-133592380D01*
X142523098Y-133687618D02*
X142808813Y-133782856D01*
X142808813Y-133782856D02*
X142808813Y-133535237D01*
D11*
%TO.C,R2*%
X179868527Y-68947380D02*
X179535194Y-68471190D01*
X179297099Y-68947380D02*
X179297099Y-67947380D01*
X179297099Y-67947380D02*
X179678051Y-67947380D01*
X179678051Y-67947380D02*
X179773289Y-67995000D01*
X179773289Y-67995000D02*
X179820908Y-68042619D01*
X179820908Y-68042619D02*
X179868527Y-68137857D01*
X179868527Y-68137857D02*
X179868527Y-68280714D01*
X179868527Y-68280714D02*
X179820908Y-68375952D01*
X179820908Y-68375952D02*
X179773289Y-68423571D01*
X179773289Y-68423571D02*
X179678051Y-68471190D01*
X179678051Y-68471190D02*
X179297099Y-68471190D01*
X180249480Y-68042619D02*
X180297099Y-67995000D01*
X180297099Y-67995000D02*
X180392337Y-67947380D01*
X180392337Y-67947380D02*
X180630432Y-67947380D01*
X180630432Y-67947380D02*
X180725670Y-67995000D01*
X180725670Y-67995000D02*
X180773289Y-68042619D01*
X180773289Y-68042619D02*
X180820908Y-68137857D01*
X180820908Y-68137857D02*
X180820908Y-68233095D01*
X180820908Y-68233095D02*
X180773289Y-68375952D01*
X180773289Y-68375952D02*
X180201861Y-68947380D01*
X180201861Y-68947380D02*
X180820908Y-68947380D01*
%TO.C,R4*%
X187488527Y-68947380D02*
X187155194Y-68471190D01*
X186917099Y-68947380D02*
X186917099Y-67947380D01*
X186917099Y-67947380D02*
X187298051Y-67947380D01*
X187298051Y-67947380D02*
X187393289Y-67995000D01*
X187393289Y-67995000D02*
X187440908Y-68042619D01*
X187440908Y-68042619D02*
X187488527Y-68137857D01*
X187488527Y-68137857D02*
X187488527Y-68280714D01*
X187488527Y-68280714D02*
X187440908Y-68375952D01*
X187440908Y-68375952D02*
X187393289Y-68423571D01*
X187393289Y-68423571D02*
X187298051Y-68471190D01*
X187298051Y-68471190D02*
X186917099Y-68471190D01*
X188345670Y-68280714D02*
X188345670Y-68947380D01*
X188107575Y-67899761D02*
X187869480Y-68614047D01*
X187869480Y-68614047D02*
X188488527Y-68614047D01*
%TO.C,U5*%
X124992574Y-79491904D02*
X125802098Y-79491904D01*
X125802098Y-79491904D02*
X125897336Y-79444285D01*
X125897336Y-79444285D02*
X125944955Y-79396666D01*
X125944955Y-79396666D02*
X125992574Y-79301428D01*
X125992574Y-79301428D02*
X125992574Y-79110952D01*
X125992574Y-79110952D02*
X125944955Y-79015714D01*
X125944955Y-79015714D02*
X125897336Y-78968095D01*
X125897336Y-78968095D02*
X125802098Y-78920476D01*
X125802098Y-78920476D02*
X124992574Y-78920476D01*
X124992574Y-77968095D02*
X124992574Y-78444285D01*
X124992574Y-78444285D02*
X125468765Y-78491904D01*
X125468765Y-78491904D02*
X125421146Y-78444285D01*
X125421146Y-78444285D02*
X125373527Y-78349047D01*
X125373527Y-78349047D02*
X125373527Y-78110952D01*
X125373527Y-78110952D02*
X125421146Y-78015714D01*
X125421146Y-78015714D02*
X125468765Y-77968095D01*
X125468765Y-77968095D02*
X125564003Y-77920476D01*
X125564003Y-77920476D02*
X125802098Y-77920476D01*
X125802098Y-77920476D02*
X125897336Y-77968095D01*
X125897336Y-77968095D02*
X125944955Y-78015714D01*
X125944955Y-78015714D02*
X125992574Y-78110952D01*
X125992574Y-78110952D02*
X125992574Y-78349047D01*
X125992574Y-78349047D02*
X125944955Y-78444285D01*
X125944955Y-78444285D02*
X125897336Y-78491904D01*
X147432574Y-81849047D02*
X147432574Y-81182381D01*
X147432574Y-81182381D02*
X148432574Y-81610952D01*
X147765908Y-80372857D02*
X148432574Y-80372857D01*
X147384955Y-80610952D02*
X148099241Y-80849047D01*
X148099241Y-80849047D02*
X148099241Y-80230000D01*
X148432574Y-79372857D02*
X148432574Y-79849047D01*
X148432574Y-79849047D02*
X147432574Y-79849047D01*
X148384955Y-79087142D02*
X148432574Y-78944285D01*
X148432574Y-78944285D02*
X148432574Y-78706190D01*
X148432574Y-78706190D02*
X148384955Y-78610952D01*
X148384955Y-78610952D02*
X148337336Y-78563333D01*
X148337336Y-78563333D02*
X148242098Y-78515714D01*
X148242098Y-78515714D02*
X148146860Y-78515714D01*
X148146860Y-78515714D02*
X148051622Y-78563333D01*
X148051622Y-78563333D02*
X148004003Y-78610952D01*
X148004003Y-78610952D02*
X147956384Y-78706190D01*
X147956384Y-78706190D02*
X147908765Y-78896666D01*
X147908765Y-78896666D02*
X147861146Y-78991904D01*
X147861146Y-78991904D02*
X147813527Y-79039523D01*
X147813527Y-79039523D02*
X147718289Y-79087142D01*
X147718289Y-79087142D02*
X147623051Y-79087142D01*
X147623051Y-79087142D02*
X147527813Y-79039523D01*
X147527813Y-79039523D02*
X147480194Y-78991904D01*
X147480194Y-78991904D02*
X147432574Y-78896666D01*
X147432574Y-78896666D02*
X147432574Y-78658571D01*
X147432574Y-78658571D02*
X147480194Y-78515714D01*
X148432574Y-77563333D02*
X148432574Y-78134761D01*
X148432574Y-77849047D02*
X147432574Y-77849047D01*
X147432574Y-77849047D02*
X147575432Y-77944285D01*
X147575432Y-77944285D02*
X147670670Y-78039523D01*
X147670670Y-78039523D02*
X147718289Y-78134761D01*
X147432574Y-77229999D02*
X147432574Y-76610952D01*
X147432574Y-76610952D02*
X147813527Y-76944285D01*
X147813527Y-76944285D02*
X147813527Y-76801428D01*
X147813527Y-76801428D02*
X147861146Y-76706190D01*
X147861146Y-76706190D02*
X147908765Y-76658571D01*
X147908765Y-76658571D02*
X148004003Y-76610952D01*
X148004003Y-76610952D02*
X148242098Y-76610952D01*
X148242098Y-76610952D02*
X148337336Y-76658571D01*
X148337336Y-76658571D02*
X148384955Y-76706190D01*
X148384955Y-76706190D02*
X148432574Y-76801428D01*
X148432574Y-76801428D02*
X148432574Y-77087142D01*
X148432574Y-77087142D02*
X148384955Y-77182380D01*
X148384955Y-77182380D02*
X148337336Y-77229999D01*
X148432574Y-76134761D02*
X148432574Y-75944285D01*
X148432574Y-75944285D02*
X148384955Y-75849047D01*
X148384955Y-75849047D02*
X148337336Y-75801428D01*
X148337336Y-75801428D02*
X148194479Y-75706190D01*
X148194479Y-75706190D02*
X148004003Y-75658571D01*
X148004003Y-75658571D02*
X147623051Y-75658571D01*
X147623051Y-75658571D02*
X147527813Y-75706190D01*
X147527813Y-75706190D02*
X147480194Y-75753809D01*
X147480194Y-75753809D02*
X147432574Y-75849047D01*
X147432574Y-75849047D02*
X147432574Y-76039523D01*
X147432574Y-76039523D02*
X147480194Y-76134761D01*
X147480194Y-76134761D02*
X147527813Y-76182380D01*
X147527813Y-76182380D02*
X147623051Y-76229999D01*
X147623051Y-76229999D02*
X147861146Y-76229999D01*
X147861146Y-76229999D02*
X147956384Y-76182380D01*
X147956384Y-76182380D02*
X148004003Y-76134761D01*
X148004003Y-76134761D02*
X148051622Y-76039523D01*
X148051622Y-76039523D02*
X148051622Y-75849047D01*
X148051622Y-75849047D02*
X148004003Y-75753809D01*
X148004003Y-75753809D02*
X147956384Y-75706190D01*
X147956384Y-75706190D02*
X147861146Y-75658571D01*
%TO.C,C6*%
X192568527Y-84092142D02*
X192520908Y-84139761D01*
X192520908Y-84139761D02*
X192378051Y-84187380D01*
X192378051Y-84187380D02*
X192282813Y-84187380D01*
X192282813Y-84187380D02*
X192139956Y-84139761D01*
X192139956Y-84139761D02*
X192044718Y-84044523D01*
X192044718Y-84044523D02*
X191997099Y-83949285D01*
X191997099Y-83949285D02*
X191949480Y-83758809D01*
X191949480Y-83758809D02*
X191949480Y-83615952D01*
X191949480Y-83615952D02*
X191997099Y-83425476D01*
X191997099Y-83425476D02*
X192044718Y-83330238D01*
X192044718Y-83330238D02*
X192139956Y-83235000D01*
X192139956Y-83235000D02*
X192282813Y-83187380D01*
X192282813Y-83187380D02*
X192378051Y-83187380D01*
X192378051Y-83187380D02*
X192520908Y-83235000D01*
X192520908Y-83235000D02*
X192568527Y-83282619D01*
X193425670Y-83187380D02*
X193235194Y-83187380D01*
X193235194Y-83187380D02*
X193139956Y-83235000D01*
X193139956Y-83235000D02*
X193092337Y-83282619D01*
X193092337Y-83282619D02*
X192997099Y-83425476D01*
X192997099Y-83425476D02*
X192949480Y-83615952D01*
X192949480Y-83615952D02*
X192949480Y-83996904D01*
X192949480Y-83996904D02*
X192997099Y-84092142D01*
X192997099Y-84092142D02*
X193044718Y-84139761D01*
X193044718Y-84139761D02*
X193139956Y-84187380D01*
X193139956Y-84187380D02*
X193330432Y-84187380D01*
X193330432Y-84187380D02*
X193425670Y-84139761D01*
X193425670Y-84139761D02*
X193473289Y-84092142D01*
X193473289Y-84092142D02*
X193520908Y-83996904D01*
X193520908Y-83996904D02*
X193520908Y-83758809D01*
X193520908Y-83758809D02*
X193473289Y-83663571D01*
X193473289Y-83663571D02*
X193425670Y-83615952D01*
X193425670Y-83615952D02*
X193330432Y-83568333D01*
X193330432Y-83568333D02*
X193139956Y-83568333D01*
X193139956Y-83568333D02*
X193044718Y-83615952D01*
X193044718Y-83615952D02*
X192997099Y-83663571D01*
X192997099Y-83663571D02*
X192949480Y-83758809D01*
%TO.C,C9*%
X123988527Y-71392142D02*
X123940908Y-71439761D01*
X123940908Y-71439761D02*
X123798051Y-71487380D01*
X123798051Y-71487380D02*
X123702813Y-71487380D01*
X123702813Y-71487380D02*
X123559956Y-71439761D01*
X123559956Y-71439761D02*
X123464718Y-71344523D01*
X123464718Y-71344523D02*
X123417099Y-71249285D01*
X123417099Y-71249285D02*
X123369480Y-71058809D01*
X123369480Y-71058809D02*
X123369480Y-70915952D01*
X123369480Y-70915952D02*
X123417099Y-70725476D01*
X123417099Y-70725476D02*
X123464718Y-70630238D01*
X123464718Y-70630238D02*
X123559956Y-70535000D01*
X123559956Y-70535000D02*
X123702813Y-70487380D01*
X123702813Y-70487380D02*
X123798051Y-70487380D01*
X123798051Y-70487380D02*
X123940908Y-70535000D01*
X123940908Y-70535000D02*
X123988527Y-70582619D01*
X124464718Y-71487380D02*
X124655194Y-71487380D01*
X124655194Y-71487380D02*
X124750432Y-71439761D01*
X124750432Y-71439761D02*
X124798051Y-71392142D01*
X124798051Y-71392142D02*
X124893289Y-71249285D01*
X124893289Y-71249285D02*
X124940908Y-71058809D01*
X124940908Y-71058809D02*
X124940908Y-70677857D01*
X124940908Y-70677857D02*
X124893289Y-70582619D01*
X124893289Y-70582619D02*
X124845670Y-70535000D01*
X124845670Y-70535000D02*
X124750432Y-70487380D01*
X124750432Y-70487380D02*
X124559956Y-70487380D01*
X124559956Y-70487380D02*
X124464718Y-70535000D01*
X124464718Y-70535000D02*
X124417099Y-70582619D01*
X124417099Y-70582619D02*
X124369480Y-70677857D01*
X124369480Y-70677857D02*
X124369480Y-70915952D01*
X124369480Y-70915952D02*
X124417099Y-71011190D01*
X124417099Y-71011190D02*
X124464718Y-71058809D01*
X124464718Y-71058809D02*
X124559956Y-71106428D01*
X124559956Y-71106428D02*
X124750432Y-71106428D01*
X124750432Y-71106428D02*
X124845670Y-71058809D01*
X124845670Y-71058809D02*
X124893289Y-71011190D01*
X124893289Y-71011190D02*
X124940908Y-70915952D01*
%TO.C,U7*%
X151667574Y-79491904D02*
X152477098Y-79491904D01*
X152477098Y-79491904D02*
X152572336Y-79444285D01*
X152572336Y-79444285D02*
X152619955Y-79396666D01*
X152619955Y-79396666D02*
X152667574Y-79301428D01*
X152667574Y-79301428D02*
X152667574Y-79110952D01*
X152667574Y-79110952D02*
X152619955Y-79015714D01*
X152619955Y-79015714D02*
X152572336Y-78968095D01*
X152572336Y-78968095D02*
X152477098Y-78920476D01*
X152477098Y-78920476D02*
X151667574Y-78920476D01*
X151667574Y-78539523D02*
X151667574Y-77872857D01*
X151667574Y-77872857D02*
X152667574Y-78301428D01*
X171567574Y-81372856D02*
X171567574Y-80706190D01*
X171567574Y-80706190D02*
X172567574Y-81134761D01*
X171900908Y-79896666D02*
X172567574Y-79896666D01*
X171519955Y-80134761D02*
X172234241Y-80372856D01*
X172234241Y-80372856D02*
X172234241Y-79753809D01*
X172567574Y-78896666D02*
X172567574Y-79372856D01*
X172567574Y-79372856D02*
X171567574Y-79372856D01*
X172519955Y-78610951D02*
X172567574Y-78468094D01*
X172567574Y-78468094D02*
X172567574Y-78229999D01*
X172567574Y-78229999D02*
X172519955Y-78134761D01*
X172519955Y-78134761D02*
X172472336Y-78087142D01*
X172472336Y-78087142D02*
X172377098Y-78039523D01*
X172377098Y-78039523D02*
X172281860Y-78039523D01*
X172281860Y-78039523D02*
X172186622Y-78087142D01*
X172186622Y-78087142D02*
X172139003Y-78134761D01*
X172139003Y-78134761D02*
X172091384Y-78229999D01*
X172091384Y-78229999D02*
X172043765Y-78420475D01*
X172043765Y-78420475D02*
X171996146Y-78515713D01*
X171996146Y-78515713D02*
X171948527Y-78563332D01*
X171948527Y-78563332D02*
X171853289Y-78610951D01*
X171853289Y-78610951D02*
X171758051Y-78610951D01*
X171758051Y-78610951D02*
X171662813Y-78563332D01*
X171662813Y-78563332D02*
X171615194Y-78515713D01*
X171615194Y-78515713D02*
X171567574Y-78420475D01*
X171567574Y-78420475D02*
X171567574Y-78182380D01*
X171567574Y-78182380D02*
X171615194Y-78039523D01*
X171567574Y-77420475D02*
X171567574Y-77325237D01*
X171567574Y-77325237D02*
X171615194Y-77229999D01*
X171615194Y-77229999D02*
X171662813Y-77182380D01*
X171662813Y-77182380D02*
X171758051Y-77134761D01*
X171758051Y-77134761D02*
X171948527Y-77087142D01*
X171948527Y-77087142D02*
X172186622Y-77087142D01*
X172186622Y-77087142D02*
X172377098Y-77134761D01*
X172377098Y-77134761D02*
X172472336Y-77182380D01*
X172472336Y-77182380D02*
X172519955Y-77229999D01*
X172519955Y-77229999D02*
X172567574Y-77325237D01*
X172567574Y-77325237D02*
X172567574Y-77420475D01*
X172567574Y-77420475D02*
X172519955Y-77515713D01*
X172519955Y-77515713D02*
X172472336Y-77563332D01*
X172472336Y-77563332D02*
X172377098Y-77610951D01*
X172377098Y-77610951D02*
X172186622Y-77658570D01*
X172186622Y-77658570D02*
X171948527Y-77658570D01*
X171948527Y-77658570D02*
X171758051Y-77610951D01*
X171758051Y-77610951D02*
X171662813Y-77563332D01*
X171662813Y-77563332D02*
X171615194Y-77515713D01*
X171615194Y-77515713D02*
X171567574Y-77420475D01*
X171900908Y-76229999D02*
X172567574Y-76229999D01*
X171519955Y-76468094D02*
X172234241Y-76706189D01*
X172234241Y-76706189D02*
X172234241Y-76087142D01*
%TO.C,C8*%
X151928527Y-71392142D02*
X151880908Y-71439761D01*
X151880908Y-71439761D02*
X151738051Y-71487380D01*
X151738051Y-71487380D02*
X151642813Y-71487380D01*
X151642813Y-71487380D02*
X151499956Y-71439761D01*
X151499956Y-71439761D02*
X151404718Y-71344523D01*
X151404718Y-71344523D02*
X151357099Y-71249285D01*
X151357099Y-71249285D02*
X151309480Y-71058809D01*
X151309480Y-71058809D02*
X151309480Y-70915952D01*
X151309480Y-70915952D02*
X151357099Y-70725476D01*
X151357099Y-70725476D02*
X151404718Y-70630238D01*
X151404718Y-70630238D02*
X151499956Y-70535000D01*
X151499956Y-70535000D02*
X151642813Y-70487380D01*
X151642813Y-70487380D02*
X151738051Y-70487380D01*
X151738051Y-70487380D02*
X151880908Y-70535000D01*
X151880908Y-70535000D02*
X151928527Y-70582619D01*
X152499956Y-70915952D02*
X152404718Y-70868333D01*
X152404718Y-70868333D02*
X152357099Y-70820714D01*
X152357099Y-70820714D02*
X152309480Y-70725476D01*
X152309480Y-70725476D02*
X152309480Y-70677857D01*
X152309480Y-70677857D02*
X152357099Y-70582619D01*
X152357099Y-70582619D02*
X152404718Y-70535000D01*
X152404718Y-70535000D02*
X152499956Y-70487380D01*
X152499956Y-70487380D02*
X152690432Y-70487380D01*
X152690432Y-70487380D02*
X152785670Y-70535000D01*
X152785670Y-70535000D02*
X152833289Y-70582619D01*
X152833289Y-70582619D02*
X152880908Y-70677857D01*
X152880908Y-70677857D02*
X152880908Y-70725476D01*
X152880908Y-70725476D02*
X152833289Y-70820714D01*
X152833289Y-70820714D02*
X152785670Y-70868333D01*
X152785670Y-70868333D02*
X152690432Y-70915952D01*
X152690432Y-70915952D02*
X152499956Y-70915952D01*
X152499956Y-70915952D02*
X152404718Y-70963571D01*
X152404718Y-70963571D02*
X152357099Y-71011190D01*
X152357099Y-71011190D02*
X152309480Y-71106428D01*
X152309480Y-71106428D02*
X152309480Y-71296904D01*
X152309480Y-71296904D02*
X152357099Y-71392142D01*
X152357099Y-71392142D02*
X152404718Y-71439761D01*
X152404718Y-71439761D02*
X152499956Y-71487380D01*
X152499956Y-71487380D02*
X152690432Y-71487380D01*
X152690432Y-71487380D02*
X152785670Y-71439761D01*
X152785670Y-71439761D02*
X152833289Y-71392142D01*
X152833289Y-71392142D02*
X152880908Y-71296904D01*
X152880908Y-71296904D02*
X152880908Y-71106428D01*
X152880908Y-71106428D02*
X152833289Y-71011190D01*
X152833289Y-71011190D02*
X152785670Y-70963571D01*
X152785670Y-70963571D02*
X152690432Y-70915952D01*
%TO.C,U6*%
X185623289Y-108797380D02*
X185623289Y-109606904D01*
X185623289Y-109606904D02*
X185670908Y-109702142D01*
X185670908Y-109702142D02*
X185718527Y-109749761D01*
X185718527Y-109749761D02*
X185813765Y-109797380D01*
X185813765Y-109797380D02*
X186004241Y-109797380D01*
X186004241Y-109797380D02*
X186099479Y-109749761D01*
X186099479Y-109749761D02*
X186147098Y-109702142D01*
X186147098Y-109702142D02*
X186194717Y-109606904D01*
X186194717Y-109606904D02*
X186194717Y-108797380D01*
X187099479Y-108797380D02*
X186909003Y-108797380D01*
X186909003Y-108797380D02*
X186813765Y-108845000D01*
X186813765Y-108845000D02*
X186766146Y-108892619D01*
X186766146Y-108892619D02*
X186670908Y-109035476D01*
X186670908Y-109035476D02*
X186623289Y-109225952D01*
X186623289Y-109225952D02*
X186623289Y-109606904D01*
X186623289Y-109606904D02*
X186670908Y-109702142D01*
X186670908Y-109702142D02*
X186718527Y-109749761D01*
X186718527Y-109749761D02*
X186813765Y-109797380D01*
X186813765Y-109797380D02*
X187004241Y-109797380D01*
X187004241Y-109797380D02*
X187099479Y-109749761D01*
X187099479Y-109749761D02*
X187147098Y-109702142D01*
X187147098Y-109702142D02*
X187194717Y-109606904D01*
X187194717Y-109606904D02*
X187194717Y-109368809D01*
X187194717Y-109368809D02*
X187147098Y-109273571D01*
X187147098Y-109273571D02*
X187099479Y-109225952D01*
X187099479Y-109225952D02*
X187004241Y-109178333D01*
X187004241Y-109178333D02*
X186813765Y-109178333D01*
X186813765Y-109178333D02*
X186718527Y-109225952D01*
X186718527Y-109225952D02*
X186670908Y-109273571D01*
X186670908Y-109273571D02*
X186623289Y-109368809D01*
X177697143Y-128697380D02*
X178363809Y-128697380D01*
X178363809Y-128697380D02*
X177935238Y-129697380D01*
X179173333Y-129030714D02*
X179173333Y-129697380D01*
X178935238Y-128649761D02*
X178697143Y-129364047D01*
X178697143Y-129364047D02*
X179316190Y-129364047D01*
X180173333Y-129697380D02*
X179697143Y-129697380D01*
X179697143Y-129697380D02*
X179697143Y-128697380D01*
X180459048Y-129649761D02*
X180601905Y-129697380D01*
X180601905Y-129697380D02*
X180840000Y-129697380D01*
X180840000Y-129697380D02*
X180935238Y-129649761D01*
X180935238Y-129649761D02*
X180982857Y-129602142D01*
X180982857Y-129602142D02*
X181030476Y-129506904D01*
X181030476Y-129506904D02*
X181030476Y-129411666D01*
X181030476Y-129411666D02*
X180982857Y-129316428D01*
X180982857Y-129316428D02*
X180935238Y-129268809D01*
X180935238Y-129268809D02*
X180840000Y-129221190D01*
X180840000Y-129221190D02*
X180649524Y-129173571D01*
X180649524Y-129173571D02*
X180554286Y-129125952D01*
X180554286Y-129125952D02*
X180506667Y-129078333D01*
X180506667Y-129078333D02*
X180459048Y-128983095D01*
X180459048Y-128983095D02*
X180459048Y-128887857D01*
X180459048Y-128887857D02*
X180506667Y-128792619D01*
X180506667Y-128792619D02*
X180554286Y-128745000D01*
X180554286Y-128745000D02*
X180649524Y-128697380D01*
X180649524Y-128697380D02*
X180887619Y-128697380D01*
X180887619Y-128697380D02*
X181030476Y-128745000D01*
X181363810Y-128697380D02*
X181982857Y-128697380D01*
X181982857Y-128697380D02*
X181649524Y-129078333D01*
X181649524Y-129078333D02*
X181792381Y-129078333D01*
X181792381Y-129078333D02*
X181887619Y-129125952D01*
X181887619Y-129125952D02*
X181935238Y-129173571D01*
X181935238Y-129173571D02*
X181982857Y-129268809D01*
X181982857Y-129268809D02*
X181982857Y-129506904D01*
X181982857Y-129506904D02*
X181935238Y-129602142D01*
X181935238Y-129602142D02*
X181887619Y-129649761D01*
X181887619Y-129649761D02*
X181792381Y-129697380D01*
X181792381Y-129697380D02*
X181506667Y-129697380D01*
X181506667Y-129697380D02*
X181411429Y-129649761D01*
X181411429Y-129649761D02*
X181363810Y-129602142D01*
X182363810Y-128792619D02*
X182411429Y-128745000D01*
X182411429Y-128745000D02*
X182506667Y-128697380D01*
X182506667Y-128697380D02*
X182744762Y-128697380D01*
X182744762Y-128697380D02*
X182840000Y-128745000D01*
X182840000Y-128745000D02*
X182887619Y-128792619D01*
X182887619Y-128792619D02*
X182935238Y-128887857D01*
X182935238Y-128887857D02*
X182935238Y-128983095D01*
X182935238Y-128983095D02*
X182887619Y-129125952D01*
X182887619Y-129125952D02*
X182316191Y-129697380D01*
X182316191Y-129697380D02*
X182935238Y-129697380D01*
%TO.C,U4*%
X166573289Y-88477380D02*
X166573289Y-89286904D01*
X166573289Y-89286904D02*
X166620908Y-89382142D01*
X166620908Y-89382142D02*
X166668527Y-89429761D01*
X166668527Y-89429761D02*
X166763765Y-89477380D01*
X166763765Y-89477380D02*
X166954241Y-89477380D01*
X166954241Y-89477380D02*
X167049479Y-89429761D01*
X167049479Y-89429761D02*
X167097098Y-89382142D01*
X167097098Y-89382142D02*
X167144717Y-89286904D01*
X167144717Y-89286904D02*
X167144717Y-88477380D01*
X168049479Y-88810714D02*
X168049479Y-89477380D01*
X167811384Y-88429761D02*
X167573289Y-89144047D01*
X167573289Y-89144047D02*
X168192336Y-89144047D01*
X159869524Y-88362619D02*
X159917143Y-88315000D01*
X159917143Y-88315000D02*
X160012381Y-88267380D01*
X160012381Y-88267380D02*
X160250476Y-88267380D01*
X160250476Y-88267380D02*
X160345714Y-88315000D01*
X160345714Y-88315000D02*
X160393333Y-88362619D01*
X160393333Y-88362619D02*
X160440952Y-88457857D01*
X160440952Y-88457857D02*
X160440952Y-88553095D01*
X160440952Y-88553095D02*
X160393333Y-88695952D01*
X160393333Y-88695952D02*
X159821905Y-89267380D01*
X159821905Y-89267380D02*
X160440952Y-89267380D01*
X160774286Y-88267380D02*
X161440952Y-88267380D01*
X161440952Y-88267380D02*
X161012381Y-89267380D01*
X162393333Y-89172142D02*
X162345714Y-89219761D01*
X162345714Y-89219761D02*
X162202857Y-89267380D01*
X162202857Y-89267380D02*
X162107619Y-89267380D01*
X162107619Y-89267380D02*
X161964762Y-89219761D01*
X161964762Y-89219761D02*
X161869524Y-89124523D01*
X161869524Y-89124523D02*
X161821905Y-89029285D01*
X161821905Y-89029285D02*
X161774286Y-88838809D01*
X161774286Y-88838809D02*
X161774286Y-88695952D01*
X161774286Y-88695952D02*
X161821905Y-88505476D01*
X161821905Y-88505476D02*
X161869524Y-88410238D01*
X161869524Y-88410238D02*
X161964762Y-88315000D01*
X161964762Y-88315000D02*
X162107619Y-88267380D01*
X162107619Y-88267380D02*
X162202857Y-88267380D01*
X162202857Y-88267380D02*
X162345714Y-88315000D01*
X162345714Y-88315000D02*
X162393333Y-88362619D01*
X162774286Y-88362619D02*
X162821905Y-88315000D01*
X162821905Y-88315000D02*
X162917143Y-88267380D01*
X162917143Y-88267380D02*
X163155238Y-88267380D01*
X163155238Y-88267380D02*
X163250476Y-88315000D01*
X163250476Y-88315000D02*
X163298095Y-88362619D01*
X163298095Y-88362619D02*
X163345714Y-88457857D01*
X163345714Y-88457857D02*
X163345714Y-88553095D01*
X163345714Y-88553095D02*
X163298095Y-88695952D01*
X163298095Y-88695952D02*
X162726667Y-89267380D01*
X162726667Y-89267380D02*
X163345714Y-89267380D01*
X164250476Y-88267380D02*
X163774286Y-88267380D01*
X163774286Y-88267380D02*
X163726667Y-88743571D01*
X163726667Y-88743571D02*
X163774286Y-88695952D01*
X163774286Y-88695952D02*
X163869524Y-88648333D01*
X163869524Y-88648333D02*
X164107619Y-88648333D01*
X164107619Y-88648333D02*
X164202857Y-88695952D01*
X164202857Y-88695952D02*
X164250476Y-88743571D01*
X164250476Y-88743571D02*
X164298095Y-88838809D01*
X164298095Y-88838809D02*
X164298095Y-89076904D01*
X164298095Y-89076904D02*
X164250476Y-89172142D01*
X164250476Y-89172142D02*
X164202857Y-89219761D01*
X164202857Y-89219761D02*
X164107619Y-89267380D01*
X164107619Y-89267380D02*
X163869524Y-89267380D01*
X163869524Y-89267380D02*
X163774286Y-89219761D01*
X163774286Y-89219761D02*
X163726667Y-89172142D01*
X165155238Y-88267380D02*
X164964762Y-88267380D01*
X164964762Y-88267380D02*
X164869524Y-88315000D01*
X164869524Y-88315000D02*
X164821905Y-88362619D01*
X164821905Y-88362619D02*
X164726667Y-88505476D01*
X164726667Y-88505476D02*
X164679048Y-88695952D01*
X164679048Y-88695952D02*
X164679048Y-89076904D01*
X164679048Y-89076904D02*
X164726667Y-89172142D01*
X164726667Y-89172142D02*
X164774286Y-89219761D01*
X164774286Y-89219761D02*
X164869524Y-89267380D01*
X164869524Y-89267380D02*
X165060000Y-89267380D01*
X165060000Y-89267380D02*
X165155238Y-89219761D01*
X165155238Y-89219761D02*
X165202857Y-89172142D01*
X165202857Y-89172142D02*
X165250476Y-89076904D01*
X165250476Y-89076904D02*
X165250476Y-88838809D01*
X165250476Y-88838809D02*
X165202857Y-88743571D01*
X165202857Y-88743571D02*
X165155238Y-88695952D01*
X165155238Y-88695952D02*
X165060000Y-88648333D01*
X165060000Y-88648333D02*
X164869524Y-88648333D01*
X164869524Y-88648333D02*
X164774286Y-88695952D01*
X164774286Y-88695952D02*
X164726667Y-88743571D01*
X164726667Y-88743571D02*
X164679048Y-88838809D01*
%TO.C,C5*%
X107977336Y-128416666D02*
X108024955Y-128464285D01*
X108024955Y-128464285D02*
X108072574Y-128607142D01*
X108072574Y-128607142D02*
X108072574Y-128702380D01*
X108072574Y-128702380D02*
X108024955Y-128845237D01*
X108024955Y-128845237D02*
X107929717Y-128940475D01*
X107929717Y-128940475D02*
X107834479Y-128988094D01*
X107834479Y-128988094D02*
X107644003Y-129035713D01*
X107644003Y-129035713D02*
X107501146Y-129035713D01*
X107501146Y-129035713D02*
X107310670Y-128988094D01*
X107310670Y-128988094D02*
X107215432Y-128940475D01*
X107215432Y-128940475D02*
X107120194Y-128845237D01*
X107120194Y-128845237D02*
X107072574Y-128702380D01*
X107072574Y-128702380D02*
X107072574Y-128607142D01*
X107072574Y-128607142D02*
X107120194Y-128464285D01*
X107120194Y-128464285D02*
X107167813Y-128416666D01*
X107072574Y-127511904D02*
X107072574Y-127988094D01*
X107072574Y-127988094D02*
X107548765Y-128035713D01*
X107548765Y-128035713D02*
X107501146Y-127988094D01*
X107501146Y-127988094D02*
X107453527Y-127892856D01*
X107453527Y-127892856D02*
X107453527Y-127654761D01*
X107453527Y-127654761D02*
X107501146Y-127559523D01*
X107501146Y-127559523D02*
X107548765Y-127511904D01*
X107548765Y-127511904D02*
X107644003Y-127464285D01*
X107644003Y-127464285D02*
X107882098Y-127464285D01*
X107882098Y-127464285D02*
X107977336Y-127511904D01*
X107977336Y-127511904D02*
X108024955Y-127559523D01*
X108024955Y-127559523D02*
X108072574Y-127654761D01*
X108072574Y-127654761D02*
X108072574Y-127892856D01*
X108072574Y-127892856D02*
X108024955Y-127988094D01*
X108024955Y-127988094D02*
X107977336Y-128035713D01*
X115572574Y-129178571D02*
X115572574Y-129749999D01*
X115572574Y-129464285D02*
X114572574Y-129464285D01*
X114572574Y-129464285D02*
X114715432Y-129559523D01*
X114715432Y-129559523D02*
X114810670Y-129654761D01*
X114810670Y-129654761D02*
X114858289Y-129749999D01*
X114572574Y-128559523D02*
X114572574Y-128464285D01*
X114572574Y-128464285D02*
X114620194Y-128369047D01*
X114620194Y-128369047D02*
X114667813Y-128321428D01*
X114667813Y-128321428D02*
X114763051Y-128273809D01*
X114763051Y-128273809D02*
X114953527Y-128226190D01*
X114953527Y-128226190D02*
X115191622Y-128226190D01*
X115191622Y-128226190D02*
X115382098Y-128273809D01*
X115382098Y-128273809D02*
X115477336Y-128321428D01*
X115477336Y-128321428D02*
X115524955Y-128369047D01*
X115524955Y-128369047D02*
X115572574Y-128464285D01*
X115572574Y-128464285D02*
X115572574Y-128559523D01*
X115572574Y-128559523D02*
X115524955Y-128654761D01*
X115524955Y-128654761D02*
X115477336Y-128702380D01*
X115477336Y-128702380D02*
X115382098Y-128749999D01*
X115382098Y-128749999D02*
X115191622Y-128797618D01*
X115191622Y-128797618D02*
X114953527Y-128797618D01*
X114953527Y-128797618D02*
X114763051Y-128749999D01*
X114763051Y-128749999D02*
X114667813Y-128702380D01*
X114667813Y-128702380D02*
X114620194Y-128654761D01*
X114620194Y-128654761D02*
X114572574Y-128559523D01*
X114905908Y-127369047D02*
X115572574Y-127369047D01*
X114905908Y-127797618D02*
X115429717Y-127797618D01*
X115429717Y-127797618D02*
X115524955Y-127749999D01*
X115524955Y-127749999D02*
X115572574Y-127654761D01*
X115572574Y-127654761D02*
X115572574Y-127511904D01*
X115572574Y-127511904D02*
X115524955Y-127416666D01*
X115524955Y-127416666D02*
X115477336Y-127369047D01*
X114905908Y-127035713D02*
X114905908Y-126654761D01*
X115572574Y-126892856D02*
X114715432Y-126892856D01*
X114715432Y-126892856D02*
X114620194Y-126845237D01*
X114620194Y-126845237D02*
X114572574Y-126749999D01*
X114572574Y-126749999D02*
X114572574Y-126654761D01*
%TO.C,C1*%
X157008527Y-86632142D02*
X156960908Y-86679761D01*
X156960908Y-86679761D02*
X156818051Y-86727380D01*
X156818051Y-86727380D02*
X156722813Y-86727380D01*
X156722813Y-86727380D02*
X156579956Y-86679761D01*
X156579956Y-86679761D02*
X156484718Y-86584523D01*
X156484718Y-86584523D02*
X156437099Y-86489285D01*
X156437099Y-86489285D02*
X156389480Y-86298809D01*
X156389480Y-86298809D02*
X156389480Y-86155952D01*
X156389480Y-86155952D02*
X156437099Y-85965476D01*
X156437099Y-85965476D02*
X156484718Y-85870238D01*
X156484718Y-85870238D02*
X156579956Y-85775000D01*
X156579956Y-85775000D02*
X156722813Y-85727380D01*
X156722813Y-85727380D02*
X156818051Y-85727380D01*
X156818051Y-85727380D02*
X156960908Y-85775000D01*
X156960908Y-85775000D02*
X157008527Y-85822619D01*
X157960908Y-86727380D02*
X157389480Y-86727380D01*
X157675194Y-86727380D02*
X157675194Y-85727380D01*
X157675194Y-85727380D02*
X157579956Y-85870238D01*
X157579956Y-85870238D02*
X157484718Y-85965476D01*
X157484718Y-85965476D02*
X157389480Y-86013095D01*
%TO.C,R1*%
X177328527Y-68947380D02*
X176995194Y-68471190D01*
X176757099Y-68947380D02*
X176757099Y-67947380D01*
X176757099Y-67947380D02*
X177138051Y-67947380D01*
X177138051Y-67947380D02*
X177233289Y-67995000D01*
X177233289Y-67995000D02*
X177280908Y-68042619D01*
X177280908Y-68042619D02*
X177328527Y-68137857D01*
X177328527Y-68137857D02*
X177328527Y-68280714D01*
X177328527Y-68280714D02*
X177280908Y-68375952D01*
X177280908Y-68375952D02*
X177233289Y-68423571D01*
X177233289Y-68423571D02*
X177138051Y-68471190D01*
X177138051Y-68471190D02*
X176757099Y-68471190D01*
X178280908Y-68947380D02*
X177709480Y-68947380D01*
X177995194Y-68947380D02*
X177995194Y-67947380D01*
X177995194Y-67947380D02*
X177899956Y-68090238D01*
X177899956Y-68090238D02*
X177804718Y-68185476D01*
X177804718Y-68185476D02*
X177709480Y-68233095D01*
%TO.C,U2*%
X125928289Y-88477380D02*
X125928289Y-89286904D01*
X125928289Y-89286904D02*
X125975908Y-89382142D01*
X125975908Y-89382142D02*
X126023527Y-89429761D01*
X126023527Y-89429761D02*
X126118765Y-89477380D01*
X126118765Y-89477380D02*
X126309241Y-89477380D01*
X126309241Y-89477380D02*
X126404479Y-89429761D01*
X126404479Y-89429761D02*
X126452098Y-89382142D01*
X126452098Y-89382142D02*
X126499717Y-89286904D01*
X126499717Y-89286904D02*
X126499717Y-88477380D01*
X126928289Y-88572619D02*
X126975908Y-88525000D01*
X126975908Y-88525000D02*
X127071146Y-88477380D01*
X127071146Y-88477380D02*
X127309241Y-88477380D01*
X127309241Y-88477380D02*
X127404479Y-88525000D01*
X127404479Y-88525000D02*
X127452098Y-88572619D01*
X127452098Y-88572619D02*
X127499717Y-88667857D01*
X127499717Y-88667857D02*
X127499717Y-88763095D01*
X127499717Y-88763095D02*
X127452098Y-88905952D01*
X127452098Y-88905952D02*
X126880670Y-89477380D01*
X126880670Y-89477380D02*
X127499717Y-89477380D01*
X119229524Y-88362619D02*
X119277143Y-88315000D01*
X119277143Y-88315000D02*
X119372381Y-88267380D01*
X119372381Y-88267380D02*
X119610476Y-88267380D01*
X119610476Y-88267380D02*
X119705714Y-88315000D01*
X119705714Y-88315000D02*
X119753333Y-88362619D01*
X119753333Y-88362619D02*
X119800952Y-88457857D01*
X119800952Y-88457857D02*
X119800952Y-88553095D01*
X119800952Y-88553095D02*
X119753333Y-88695952D01*
X119753333Y-88695952D02*
X119181905Y-89267380D01*
X119181905Y-89267380D02*
X119800952Y-89267380D01*
X120134286Y-88267380D02*
X120800952Y-88267380D01*
X120800952Y-88267380D02*
X120372381Y-89267380D01*
X121753333Y-89172142D02*
X121705714Y-89219761D01*
X121705714Y-89219761D02*
X121562857Y-89267380D01*
X121562857Y-89267380D02*
X121467619Y-89267380D01*
X121467619Y-89267380D02*
X121324762Y-89219761D01*
X121324762Y-89219761D02*
X121229524Y-89124523D01*
X121229524Y-89124523D02*
X121181905Y-89029285D01*
X121181905Y-89029285D02*
X121134286Y-88838809D01*
X121134286Y-88838809D02*
X121134286Y-88695952D01*
X121134286Y-88695952D02*
X121181905Y-88505476D01*
X121181905Y-88505476D02*
X121229524Y-88410238D01*
X121229524Y-88410238D02*
X121324762Y-88315000D01*
X121324762Y-88315000D02*
X121467619Y-88267380D01*
X121467619Y-88267380D02*
X121562857Y-88267380D01*
X121562857Y-88267380D02*
X121705714Y-88315000D01*
X121705714Y-88315000D02*
X121753333Y-88362619D01*
X122134286Y-88362619D02*
X122181905Y-88315000D01*
X122181905Y-88315000D02*
X122277143Y-88267380D01*
X122277143Y-88267380D02*
X122515238Y-88267380D01*
X122515238Y-88267380D02*
X122610476Y-88315000D01*
X122610476Y-88315000D02*
X122658095Y-88362619D01*
X122658095Y-88362619D02*
X122705714Y-88457857D01*
X122705714Y-88457857D02*
X122705714Y-88553095D01*
X122705714Y-88553095D02*
X122658095Y-88695952D01*
X122658095Y-88695952D02*
X122086667Y-89267380D01*
X122086667Y-89267380D02*
X122705714Y-89267380D01*
X123610476Y-88267380D02*
X123134286Y-88267380D01*
X123134286Y-88267380D02*
X123086667Y-88743571D01*
X123086667Y-88743571D02*
X123134286Y-88695952D01*
X123134286Y-88695952D02*
X123229524Y-88648333D01*
X123229524Y-88648333D02*
X123467619Y-88648333D01*
X123467619Y-88648333D02*
X123562857Y-88695952D01*
X123562857Y-88695952D02*
X123610476Y-88743571D01*
X123610476Y-88743571D02*
X123658095Y-88838809D01*
X123658095Y-88838809D02*
X123658095Y-89076904D01*
X123658095Y-89076904D02*
X123610476Y-89172142D01*
X123610476Y-89172142D02*
X123562857Y-89219761D01*
X123562857Y-89219761D02*
X123467619Y-89267380D01*
X123467619Y-89267380D02*
X123229524Y-89267380D01*
X123229524Y-89267380D02*
X123134286Y-89219761D01*
X123134286Y-89219761D02*
X123086667Y-89172142D01*
X124515238Y-88267380D02*
X124324762Y-88267380D01*
X124324762Y-88267380D02*
X124229524Y-88315000D01*
X124229524Y-88315000D02*
X124181905Y-88362619D01*
X124181905Y-88362619D02*
X124086667Y-88505476D01*
X124086667Y-88505476D02*
X124039048Y-88695952D01*
X124039048Y-88695952D02*
X124039048Y-89076904D01*
X124039048Y-89076904D02*
X124086667Y-89172142D01*
X124086667Y-89172142D02*
X124134286Y-89219761D01*
X124134286Y-89219761D02*
X124229524Y-89267380D01*
X124229524Y-89267380D02*
X124420000Y-89267380D01*
X124420000Y-89267380D02*
X124515238Y-89219761D01*
X124515238Y-89219761D02*
X124562857Y-89172142D01*
X124562857Y-89172142D02*
X124610476Y-89076904D01*
X124610476Y-89076904D02*
X124610476Y-88838809D01*
X124610476Y-88838809D02*
X124562857Y-88743571D01*
X124562857Y-88743571D02*
X124515238Y-88695952D01*
X124515238Y-88695952D02*
X124420000Y-88648333D01*
X124420000Y-88648333D02*
X124229524Y-88648333D01*
X124229524Y-88648333D02*
X124134286Y-88695952D01*
X124134286Y-88695952D02*
X124086667Y-88743571D01*
X124086667Y-88743571D02*
X124039048Y-88838809D01*
%TO.C,C4*%
X136688527Y-86632142D02*
X136640908Y-86679761D01*
X136640908Y-86679761D02*
X136498051Y-86727380D01*
X136498051Y-86727380D02*
X136402813Y-86727380D01*
X136402813Y-86727380D02*
X136259956Y-86679761D01*
X136259956Y-86679761D02*
X136164718Y-86584523D01*
X136164718Y-86584523D02*
X136117099Y-86489285D01*
X136117099Y-86489285D02*
X136069480Y-86298809D01*
X136069480Y-86298809D02*
X136069480Y-86155952D01*
X136069480Y-86155952D02*
X136117099Y-85965476D01*
X136117099Y-85965476D02*
X136164718Y-85870238D01*
X136164718Y-85870238D02*
X136259956Y-85775000D01*
X136259956Y-85775000D02*
X136402813Y-85727380D01*
X136402813Y-85727380D02*
X136498051Y-85727380D01*
X136498051Y-85727380D02*
X136640908Y-85775000D01*
X136640908Y-85775000D02*
X136688527Y-85822619D01*
X137545670Y-86060714D02*
X137545670Y-86727380D01*
X137307575Y-85679761D02*
X137069480Y-86394047D01*
X137069480Y-86394047D02*
X137688527Y-86394047D01*
%TO.C,C2*%
X167168527Y-86632142D02*
X167120908Y-86679761D01*
X167120908Y-86679761D02*
X166978051Y-86727380D01*
X166978051Y-86727380D02*
X166882813Y-86727380D01*
X166882813Y-86727380D02*
X166739956Y-86679761D01*
X166739956Y-86679761D02*
X166644718Y-86584523D01*
X166644718Y-86584523D02*
X166597099Y-86489285D01*
X166597099Y-86489285D02*
X166549480Y-86298809D01*
X166549480Y-86298809D02*
X166549480Y-86155952D01*
X166549480Y-86155952D02*
X166597099Y-85965476D01*
X166597099Y-85965476D02*
X166644718Y-85870238D01*
X166644718Y-85870238D02*
X166739956Y-85775000D01*
X166739956Y-85775000D02*
X166882813Y-85727380D01*
X166882813Y-85727380D02*
X166978051Y-85727380D01*
X166978051Y-85727380D02*
X167120908Y-85775000D01*
X167120908Y-85775000D02*
X167168527Y-85822619D01*
X167549480Y-85822619D02*
X167597099Y-85775000D01*
X167597099Y-85775000D02*
X167692337Y-85727380D01*
X167692337Y-85727380D02*
X167930432Y-85727380D01*
X167930432Y-85727380D02*
X168025670Y-85775000D01*
X168025670Y-85775000D02*
X168073289Y-85822619D01*
X168073289Y-85822619D02*
X168120908Y-85917857D01*
X168120908Y-85917857D02*
X168120908Y-86013095D01*
X168120908Y-86013095D02*
X168073289Y-86155952D01*
X168073289Y-86155952D02*
X167501861Y-86727380D01*
X167501861Y-86727380D02*
X168120908Y-86727380D01*
%TO.C,R3*%
X184948527Y-68947380D02*
X184615194Y-68471190D01*
X184377099Y-68947380D02*
X184377099Y-67947380D01*
X184377099Y-67947380D02*
X184758051Y-67947380D01*
X184758051Y-67947380D02*
X184853289Y-67995000D01*
X184853289Y-67995000D02*
X184900908Y-68042619D01*
X184900908Y-68042619D02*
X184948527Y-68137857D01*
X184948527Y-68137857D02*
X184948527Y-68280714D01*
X184948527Y-68280714D02*
X184900908Y-68375952D01*
X184900908Y-68375952D02*
X184853289Y-68423571D01*
X184853289Y-68423571D02*
X184758051Y-68471190D01*
X184758051Y-68471190D02*
X184377099Y-68471190D01*
X185281861Y-67947380D02*
X185900908Y-67947380D01*
X185900908Y-67947380D02*
X185567575Y-68328333D01*
X185567575Y-68328333D02*
X185710432Y-68328333D01*
X185710432Y-68328333D02*
X185805670Y-68375952D01*
X185805670Y-68375952D02*
X185853289Y-68423571D01*
X185853289Y-68423571D02*
X185900908Y-68518809D01*
X185900908Y-68518809D02*
X185900908Y-68756904D01*
X185900908Y-68756904D02*
X185853289Y-68852142D01*
X185853289Y-68852142D02*
X185805670Y-68899761D01*
X185805670Y-68899761D02*
X185710432Y-68947380D01*
X185710432Y-68947380D02*
X185424718Y-68947380D01*
X185424718Y-68947380D02*
X185329480Y-68899761D01*
X185329480Y-68899761D02*
X185281861Y-68852142D01*
D13*
%TO.C,U3*%
X138065194Y-90050000D02*
X138065194Y-125850000D01*
X138065194Y-125850000D02*
X155965194Y-125850000D01*
X140555194Y-90110000D02*
X140555194Y-125790000D01*
X140555194Y-125790000D02*
X153475194Y-125790000D01*
X146015194Y-90110000D02*
X140555194Y-90110000D01*
X153475194Y-90110000D02*
X148015194Y-90110000D01*
X153475194Y-125790000D02*
X153475194Y-90110000D01*
X155965194Y-90050000D02*
X138065194Y-90050000D01*
X155965194Y-125850000D02*
X155965194Y-90050000D01*
X146015194Y-90110000D02*
G75*
G03*
X148015194Y-90110000I1000000J0D01*
G01*
%TO.C,C3*%
X114535194Y-80110000D02*
X114535194Y-79665000D01*
X114535194Y-80110000D02*
X108295194Y-80110000D01*
X114535194Y-77815000D02*
X114535194Y-77370000D01*
X114535194Y-77370000D02*
X108295194Y-77370000D01*
X108295194Y-80110000D02*
X108295194Y-79665000D01*
X108295194Y-77815000D02*
X108295194Y-77370000D01*
%TO.C,U8*%
X181245194Y-84970000D02*
X181245194Y-105530000D01*
X181245194Y-105530000D02*
X191525194Y-105530000D01*
X183735194Y-85030000D02*
X183735194Y-105470000D01*
X183735194Y-105470000D02*
X189035194Y-105470000D01*
X185385194Y-85030000D02*
X183735194Y-85030000D01*
X189035194Y-85030000D02*
X187385194Y-85030000D01*
X189035194Y-105470000D02*
X189035194Y-85030000D01*
X191525194Y-84970000D02*
X181245194Y-84970000D01*
X191525194Y-105530000D02*
X191525194Y-84970000D01*
X185385194Y-85030000D02*
G75*
G03*
X187385194Y-85030000I1000000J0D01*
G01*
%TO.C,C7*%
X195396986Y-111052831D02*
X194951986Y-111052831D01*
X195396986Y-111052831D02*
X195396986Y-117292831D01*
X193101986Y-111052831D02*
X192656986Y-111052831D01*
X192656986Y-111052831D02*
X192656986Y-117292831D01*
X195396986Y-117292831D02*
X194951986Y-117292831D01*
X193101986Y-117292831D02*
X192656986Y-117292831D01*
%TO.C,U1*%
X97420194Y-81145000D02*
X97420194Y-116945000D01*
X97420194Y-116945000D02*
X115320194Y-116945000D01*
X99910194Y-81205000D02*
X99910194Y-116885000D01*
X99910194Y-116885000D02*
X112830194Y-116885000D01*
X105370194Y-81205000D02*
X99910194Y-81205000D01*
X112830194Y-81205000D02*
X107370194Y-81205000D01*
X112830194Y-116885000D02*
X112830194Y-81205000D01*
X115320194Y-81145000D02*
X97420194Y-81145000D01*
X115320194Y-116945000D02*
X115320194Y-81145000D01*
X105370194Y-81205000D02*
G75*
G03*
X107370194Y-81205000I1000000J0D01*
G01*
%TO.C,R2*%
X181065194Y-80240000D02*
X181065194Y-79470000D01*
X179695194Y-79470000D02*
X182435194Y-79470000D01*
X182435194Y-79470000D02*
X182435194Y-72930000D01*
X179695194Y-72930000D02*
X179695194Y-79470000D01*
X182435194Y-72930000D02*
X179695194Y-72930000D01*
X181065194Y-72160000D02*
X181065194Y-72930000D01*
%TO.C,R4*%
X187655194Y-80240000D02*
X187655194Y-79470000D01*
X186285194Y-79470000D02*
X189025194Y-79470000D01*
X189025194Y-79470000D02*
X189025194Y-72930000D01*
X186285194Y-72930000D02*
X186285194Y-79470000D01*
X189025194Y-72930000D02*
X186285194Y-72930000D01*
X187655194Y-72160000D02*
X187655194Y-72930000D01*
%TO.C,U5*%
X126565194Y-83870000D02*
X147125194Y-83870000D01*
X147125194Y-83870000D02*
X147125194Y-73590000D01*
X126625194Y-81380000D02*
X147065194Y-81380000D01*
X147065194Y-81380000D02*
X147065194Y-76080000D01*
X126625194Y-79730000D02*
X126625194Y-81380000D01*
X126625194Y-76080000D02*
X126625194Y-77730000D01*
X147065194Y-76080000D02*
X126625194Y-76080000D01*
X126565194Y-73590000D02*
X126565194Y-83870000D01*
X147125194Y-73590000D02*
X126565194Y-73590000D01*
X126625194Y-79730000D02*
G75*
G03*
X126625194Y-77730000I0J1000000D01*
G01*
%TO.C,C6*%
X195526649Y-85719018D02*
X195081649Y-85719018D01*
X195526649Y-85719018D02*
X195526649Y-91959018D01*
X193231649Y-85719018D02*
X192786649Y-85719018D01*
X192786649Y-85719018D02*
X192786649Y-91959018D01*
X195526649Y-91959018D02*
X195081649Y-91959018D01*
X193231649Y-91959018D02*
X192786649Y-91959018D01*
%TO.C,C9*%
X127287380Y-69648215D02*
X127287380Y-70093215D01*
X127287380Y-69648215D02*
X133527380Y-69648215D01*
X127287380Y-71943215D02*
X127287380Y-72388215D01*
X127287380Y-72388215D02*
X133527380Y-72388215D01*
X133527380Y-69648215D02*
X133527380Y-70093215D01*
X133527380Y-71943215D02*
X133527380Y-72388215D01*
%TO.C,U7*%
X153240194Y-83870000D02*
X171260194Y-83870000D01*
X171260194Y-83870000D02*
X171260194Y-73590000D01*
X153300194Y-81380000D02*
X171200194Y-81380000D01*
X171200194Y-81380000D02*
X171200194Y-76080000D01*
X153300194Y-79730000D02*
X153300194Y-81380000D01*
X153300194Y-76080000D02*
X153300194Y-77730000D01*
X171200194Y-76080000D02*
X153300194Y-76080000D01*
X153240194Y-73590000D02*
X153240194Y-83870000D01*
X171260194Y-73590000D02*
X153240194Y-73590000D01*
X153300194Y-79730000D02*
G75*
G03*
X153300194Y-77730000I0J1000000D01*
G01*
%TO.C,C8*%
X153910074Y-69373370D02*
X153910074Y-69818370D01*
X153910074Y-69373370D02*
X160150074Y-69373370D01*
X153910074Y-71668370D02*
X153910074Y-72113370D01*
X153910074Y-72113370D02*
X160150074Y-72113370D01*
X160150074Y-69373370D02*
X160150074Y-69818370D01*
X160150074Y-71668370D02*
X160150074Y-72113370D01*
%TO.C,U6*%
X181245194Y-110370000D02*
X181245194Y-128390000D01*
X181245194Y-128390000D02*
X191525194Y-128390000D01*
X183735194Y-110430000D02*
X183735194Y-128330000D01*
X183735194Y-128330000D02*
X189035194Y-128330000D01*
X185385194Y-110430000D02*
X183735194Y-110430000D01*
X189035194Y-110430000D02*
X187385194Y-110430000D01*
X189035194Y-128330000D02*
X189035194Y-110430000D01*
X191525194Y-110370000D02*
X181245194Y-110370000D01*
X191525194Y-128390000D02*
X191525194Y-110370000D01*
X185385194Y-110430000D02*
G75*
G03*
X187385194Y-110430000I1000000J0D01*
G01*
%TO.C,U4*%
X158385194Y-90050000D02*
X158385194Y-125850000D01*
X158385194Y-125850000D02*
X176285194Y-125850000D01*
X160875194Y-90110000D02*
X160875194Y-125790000D01*
X160875194Y-125790000D02*
X173795194Y-125790000D01*
X166335194Y-90110000D02*
X160875194Y-90110000D01*
X173795194Y-90110000D02*
X168335194Y-90110000D01*
X173795194Y-125790000D02*
X173795194Y-90110000D01*
X176285194Y-90050000D02*
X158385194Y-90050000D01*
X176285194Y-125850000D02*
X176285194Y-90050000D01*
X166335194Y-90110000D02*
G75*
G03*
X168335194Y-90110000I1000000J0D01*
G01*
%TO.C,C5*%
X109980194Y-131054775D02*
X109980194Y-130554775D01*
X109730194Y-130804775D02*
X110230194Y-130804775D01*
X108875194Y-128250000D02*
X114035194Y-128250000D01*
X108875194Y-128210000D02*
X114035194Y-128210000D01*
X108876194Y-128170000D02*
X114034194Y-128170000D01*
X108877194Y-128130000D02*
X114033194Y-128130000D01*
X108879194Y-128090000D02*
X114031194Y-128090000D01*
X108882194Y-128050000D02*
X114028194Y-128050000D01*
X108886194Y-128010000D02*
X110415194Y-128010000D01*
X112495194Y-128010000D02*
X114024194Y-128010000D01*
X108890194Y-127970000D02*
X110415194Y-127970000D01*
X112495194Y-127970000D02*
X114020194Y-127970000D01*
X108894194Y-127930000D02*
X110415194Y-127930000D01*
X112495194Y-127930000D02*
X114016194Y-127930000D01*
X108899194Y-127890000D02*
X110415194Y-127890000D01*
X112495194Y-127890000D02*
X114011194Y-127890000D01*
X108905194Y-127850000D02*
X110415194Y-127850000D01*
X112495194Y-127850000D02*
X114005194Y-127850000D01*
X108912194Y-127810000D02*
X110415194Y-127810000D01*
X112495194Y-127810000D02*
X113998194Y-127810000D01*
X108919194Y-127770000D02*
X110415194Y-127770000D01*
X112495194Y-127770000D02*
X113991194Y-127770000D01*
X108927194Y-127730000D02*
X110415194Y-127730000D01*
X112495194Y-127730000D02*
X113983194Y-127730000D01*
X108935194Y-127690000D02*
X110415194Y-127690000D01*
X112495194Y-127690000D02*
X113975194Y-127690000D01*
X108944194Y-127650000D02*
X110415194Y-127650000D01*
X112495194Y-127650000D02*
X113966194Y-127650000D01*
X108954194Y-127610000D02*
X110415194Y-127610000D01*
X112495194Y-127610000D02*
X113956194Y-127610000D01*
X108964194Y-127570000D02*
X110415194Y-127570000D01*
X112495194Y-127570000D02*
X113946194Y-127570000D01*
X108975194Y-127529000D02*
X110415194Y-127529000D01*
X112495194Y-127529000D02*
X113935194Y-127529000D01*
X108987194Y-127489000D02*
X110415194Y-127489000D01*
X112495194Y-127489000D02*
X113923194Y-127489000D01*
X109000194Y-127449000D02*
X110415194Y-127449000D01*
X112495194Y-127449000D02*
X113910194Y-127449000D01*
X109013194Y-127409000D02*
X110415194Y-127409000D01*
X112495194Y-127409000D02*
X113897194Y-127409000D01*
X109027194Y-127369000D02*
X110415194Y-127369000D01*
X112495194Y-127369000D02*
X113883194Y-127369000D01*
X109041194Y-127329000D02*
X110415194Y-127329000D01*
X112495194Y-127329000D02*
X113869194Y-127329000D01*
X109057194Y-127289000D02*
X110415194Y-127289000D01*
X112495194Y-127289000D02*
X113853194Y-127289000D01*
X109073194Y-127249000D02*
X110415194Y-127249000D01*
X112495194Y-127249000D02*
X113837194Y-127249000D01*
X109090194Y-127209000D02*
X110415194Y-127209000D01*
X112495194Y-127209000D02*
X113820194Y-127209000D01*
X109107194Y-127169000D02*
X110415194Y-127169000D01*
X112495194Y-127169000D02*
X113803194Y-127169000D01*
X109126194Y-127129000D02*
X110415194Y-127129000D01*
X112495194Y-127129000D02*
X113784194Y-127129000D01*
X109145194Y-127089000D02*
X110415194Y-127089000D01*
X112495194Y-127089000D02*
X113765194Y-127089000D01*
X109165194Y-127049000D02*
X110415194Y-127049000D01*
X112495194Y-127049000D02*
X113745194Y-127049000D01*
X109187194Y-127009000D02*
X110415194Y-127009000D01*
X112495194Y-127009000D02*
X113723194Y-127009000D01*
X109208194Y-126969000D02*
X110415194Y-126969000D01*
X112495194Y-126969000D02*
X113702194Y-126969000D01*
X109231194Y-126929000D02*
X110415194Y-126929000D01*
X112495194Y-126929000D02*
X113679194Y-126929000D01*
X109255194Y-126889000D02*
X110415194Y-126889000D01*
X112495194Y-126889000D02*
X113655194Y-126889000D01*
X109280194Y-126849000D02*
X110415194Y-126849000D01*
X112495194Y-126849000D02*
X113630194Y-126849000D01*
X109306194Y-126809000D02*
X110415194Y-126809000D01*
X112495194Y-126809000D02*
X113604194Y-126809000D01*
X109333194Y-126769000D02*
X110415194Y-126769000D01*
X112495194Y-126769000D02*
X113577194Y-126769000D01*
X109360194Y-126729000D02*
X110415194Y-126729000D01*
X112495194Y-126729000D02*
X113550194Y-126729000D01*
X109390194Y-126689000D02*
X110415194Y-126689000D01*
X112495194Y-126689000D02*
X113520194Y-126689000D01*
X109420194Y-126649000D02*
X110415194Y-126649000D01*
X112495194Y-126649000D02*
X113490194Y-126649000D01*
X109451194Y-126609000D02*
X110415194Y-126609000D01*
X112495194Y-126609000D02*
X113459194Y-126609000D01*
X109484194Y-126569000D02*
X110415194Y-126569000D01*
X112495194Y-126569000D02*
X113426194Y-126569000D01*
X109518194Y-126529000D02*
X110415194Y-126529000D01*
X112495194Y-126529000D02*
X113392194Y-126529000D01*
X109554194Y-126489000D02*
X110415194Y-126489000D01*
X112495194Y-126489000D02*
X113356194Y-126489000D01*
X109591194Y-126449000D02*
X110415194Y-126449000D01*
X112495194Y-126449000D02*
X113319194Y-126449000D01*
X109629194Y-126409000D02*
X110415194Y-126409000D01*
X112495194Y-126409000D02*
X113281194Y-126409000D01*
X109670194Y-126369000D02*
X110415194Y-126369000D01*
X112495194Y-126369000D02*
X113240194Y-126369000D01*
X109712194Y-126329000D02*
X110415194Y-126329000D01*
X112495194Y-126329000D02*
X113198194Y-126329000D01*
X109756194Y-126289000D02*
X110415194Y-126289000D01*
X112495194Y-126289000D02*
X113154194Y-126289000D01*
X109802194Y-126249000D02*
X110415194Y-126249000D01*
X112495194Y-126249000D02*
X113108194Y-126249000D01*
X109850194Y-126209000D02*
X110415194Y-126209000D01*
X112495194Y-126209000D02*
X113060194Y-126209000D01*
X109901194Y-126169000D02*
X110415194Y-126169000D01*
X112495194Y-126169000D02*
X113009194Y-126169000D01*
X109955194Y-126129000D02*
X110415194Y-126129000D01*
X112495194Y-126129000D02*
X112955194Y-126129000D01*
X110012194Y-126089000D02*
X110415194Y-126089000D01*
X112495194Y-126089000D02*
X112898194Y-126089000D01*
X110072194Y-126049000D02*
X110415194Y-126049000D01*
X112495194Y-126049000D02*
X112838194Y-126049000D01*
X110136194Y-126009000D02*
X110415194Y-126009000D01*
X112495194Y-126009000D02*
X112774194Y-126009000D01*
X110204194Y-125969000D02*
X110415194Y-125969000D01*
X112495194Y-125969000D02*
X112706194Y-125969000D01*
X110277194Y-125929000D02*
X112633194Y-125929000D01*
X110357194Y-125889000D02*
X112553194Y-125889000D01*
X110444194Y-125849000D02*
X112466194Y-125849000D01*
X110540194Y-125809000D02*
X112370194Y-125809000D01*
X110650194Y-125769000D02*
X112260194Y-125769000D01*
X110778194Y-125729000D02*
X112132194Y-125729000D01*
X110937194Y-125689000D02*
X111973194Y-125689000D01*
X111171194Y-125649000D02*
X111739194Y-125649000D01*
X114075194Y-128250000D02*
G75*
G03*
X114075194Y-128250000I-2620000J0D01*
G01*
%TO.C,C1*%
X155171531Y-88523390D02*
X155171531Y-88078390D01*
X155171531Y-88523390D02*
X148931531Y-88523390D01*
X155171531Y-86228390D02*
X155171531Y-85783390D01*
X155171531Y-85783390D02*
X148931531Y-85783390D01*
X148931531Y-88523390D02*
X148931531Y-88078390D01*
X148931531Y-86228390D02*
X148931531Y-85783390D01*
%TO.C,R1*%
X177495194Y-72160000D02*
X177495194Y-72930000D01*
X178865194Y-72930000D02*
X176125194Y-72930000D01*
X176125194Y-72930000D02*
X176125194Y-79470000D01*
X178865194Y-79470000D02*
X178865194Y-72930000D01*
X176125194Y-79470000D02*
X178865194Y-79470000D01*
X177495194Y-80240000D02*
X177495194Y-79470000D01*
%TO.C,U2*%
X117740194Y-90050000D02*
X117740194Y-125850000D01*
X117740194Y-125850000D02*
X135640194Y-125850000D01*
X120230194Y-90110000D02*
X120230194Y-125790000D01*
X120230194Y-125790000D02*
X133150194Y-125790000D01*
X125690194Y-90110000D02*
X120230194Y-90110000D01*
X133150194Y-90110000D02*
X127690194Y-90110000D01*
X133150194Y-125790000D02*
X133150194Y-90110000D01*
X135640194Y-90050000D02*
X117740194Y-90050000D01*
X135640194Y-125850000D02*
X135640194Y-90050000D01*
X125690194Y-90110000D02*
G75*
G03*
X127690194Y-90110000I1000000J0D01*
G01*
%TO.C,C4*%
X135056114Y-88744129D02*
X135056114Y-88299129D01*
X135056114Y-88744129D02*
X128816114Y-88744129D01*
X135056114Y-86449129D02*
X135056114Y-86004129D01*
X135056114Y-86004129D02*
X128816114Y-86004129D01*
X128816114Y-88744129D02*
X128816114Y-88299129D01*
X128816114Y-86449129D02*
X128816114Y-86004129D01*
%TO.C,C2*%
X175733891Y-88443998D02*
X175733891Y-87998998D01*
X175733891Y-88443998D02*
X169493891Y-88443998D01*
X175733891Y-86148998D02*
X175733891Y-85703998D01*
X175733891Y-85703998D02*
X169493891Y-85703998D01*
X169493891Y-88443998D02*
X169493891Y-87998998D01*
X169493891Y-86148998D02*
X169493891Y-85703998D01*
%TO.C,R3*%
X184552915Y-72175662D02*
X184552915Y-72945662D01*
X185922915Y-72945662D02*
X183182915Y-72945662D01*
X183182915Y-72945662D02*
X183182915Y-79485662D01*
X185922915Y-79485662D02*
X185922915Y-72945662D01*
X183182915Y-79485662D02*
X185922915Y-79485662D01*
X184552915Y-80255662D02*
X184552915Y-79485662D01*
%TD*%
M02*
