%TF.GenerationSoftware,KiCad,Pcbnew,(7.0.0)*%
%TF.CreationDate,2023-02-27T14:20:26+09:00*%
%TF.ProjectId,ykp74,796b7037-342e-46b6-9963-61645f706362,rev?*%
%TF.SameCoordinates,Original*%
%TF.FileFunction,Drillmap*%
%TF.FilePolarity,Positive*%
%FSLAX45Y45*%
G04 Gerber Fmt 4.5, Leading zero omitted, Abs format (unit mm)*
G04 Created by KiCad (PCBNEW (7.0.0)) date 2023-02-27 14:20:26*
%MOMM*%
%LPD*%
G01*
G04 APERTURE LIST*
%ADD10C,0.100000*%
%ADD11C,0.200000*%
G04 APERTURE END LIST*
D10*
X9564584Y-7912253D02*
X9564047Y-6633750D01*
X18372715Y-13133344D02*
X19634703Y-13133000D01*
X10614891Y-12135910D02*
X10615214Y-13132442D01*
X19634703Y-13133000D02*
X19635957Y-7915611D01*
X10615214Y-13132442D02*
X11829645Y-13132442D01*
X9562043Y-12136018D02*
X10614891Y-12135910D01*
X18293257Y-14306860D02*
G75*
G03*
X18372381Y-14231082I784J78380D01*
G01*
X11829575Y-14226391D02*
G75*
G03*
X11903426Y-14305872I78965J-679D01*
G01*
X9564047Y-6633750D02*
X19635689Y-6635818D01*
X9564584Y-7912253D02*
X9562043Y-12136018D01*
X11903426Y-14305872D02*
X18293256Y-14306865D01*
X11829645Y-13132442D02*
X11829578Y-14226391D01*
X19635957Y-7915611D02*
X19635689Y-6635818D01*
X18372715Y-13133344D02*
X18372381Y-14231082D01*
D11*
X9804662Y-14605341D02*
X9804662Y-14405341D01*
X9804662Y-14405341D02*
X9852281Y-14405341D01*
X9852281Y-14405341D02*
X9880853Y-14414865D01*
X9880853Y-14414865D02*
X9899900Y-14433913D01*
X9899900Y-14433913D02*
X9909424Y-14452960D01*
X9909424Y-14452960D02*
X9918948Y-14491056D01*
X9918948Y-14491056D02*
X9918948Y-14519627D01*
X9918948Y-14519627D02*
X9909424Y-14557722D01*
X9909424Y-14557722D02*
X9899900Y-14576770D01*
X9899900Y-14576770D02*
X9880853Y-14595818D01*
X9880853Y-14595818D02*
X9852281Y-14605341D01*
X9852281Y-14605341D02*
X9804662Y-14605341D01*
X10004662Y-14605341D02*
X10004662Y-14472008D01*
X10004662Y-14510103D02*
X10014186Y-14491056D01*
X10014186Y-14491056D02*
X10023710Y-14481532D01*
X10023710Y-14481532D02*
X10042758Y-14472008D01*
X10042758Y-14472008D02*
X10061805Y-14472008D01*
X10128472Y-14605341D02*
X10128472Y-14472008D01*
X10128472Y-14405341D02*
X10118948Y-14414865D01*
X10118948Y-14414865D02*
X10128472Y-14424389D01*
X10128472Y-14424389D02*
X10137996Y-14414865D01*
X10137996Y-14414865D02*
X10128472Y-14405341D01*
X10128472Y-14405341D02*
X10128472Y-14424389D01*
X10252281Y-14605341D02*
X10233234Y-14595818D01*
X10233234Y-14595818D02*
X10223710Y-14576770D01*
X10223710Y-14576770D02*
X10223710Y-14405341D01*
X10357043Y-14605341D02*
X10337996Y-14595818D01*
X10337996Y-14595818D02*
X10328472Y-14576770D01*
X10328472Y-14576770D02*
X10328472Y-14405341D01*
X10553234Y-14605341D02*
X10553234Y-14405341D01*
X10553234Y-14405341D02*
X10619900Y-14548199D01*
X10619900Y-14548199D02*
X10686567Y-14405341D01*
X10686567Y-14405341D02*
X10686567Y-14605341D01*
X10867519Y-14605341D02*
X10867519Y-14500579D01*
X10867519Y-14500579D02*
X10857996Y-14481532D01*
X10857996Y-14481532D02*
X10838948Y-14472008D01*
X10838948Y-14472008D02*
X10800853Y-14472008D01*
X10800853Y-14472008D02*
X10781805Y-14481532D01*
X10867519Y-14595818D02*
X10848472Y-14605341D01*
X10848472Y-14605341D02*
X10800853Y-14605341D01*
X10800853Y-14605341D02*
X10781805Y-14595818D01*
X10781805Y-14595818D02*
X10772281Y-14576770D01*
X10772281Y-14576770D02*
X10772281Y-14557722D01*
X10772281Y-14557722D02*
X10781805Y-14538675D01*
X10781805Y-14538675D02*
X10800853Y-14529151D01*
X10800853Y-14529151D02*
X10848472Y-14529151D01*
X10848472Y-14529151D02*
X10867519Y-14519627D01*
X10962758Y-14472008D02*
X10962758Y-14672008D01*
X10962758Y-14481532D02*
X10981805Y-14472008D01*
X10981805Y-14472008D02*
X11019900Y-14472008D01*
X11019900Y-14472008D02*
X11038948Y-14481532D01*
X11038948Y-14481532D02*
X11048472Y-14491056D01*
X11048472Y-14491056D02*
X11057996Y-14510103D01*
X11057996Y-14510103D02*
X11057996Y-14567246D01*
X11057996Y-14567246D02*
X11048472Y-14586294D01*
X11048472Y-14586294D02*
X11038948Y-14595818D01*
X11038948Y-14595818D02*
X11019900Y-14605341D01*
X11019900Y-14605341D02*
X10981805Y-14605341D01*
X10981805Y-14605341D02*
X10962758Y-14595818D01*
X11143710Y-14586294D02*
X11153234Y-14595818D01*
X11153234Y-14595818D02*
X11143710Y-14605341D01*
X11143710Y-14605341D02*
X11134186Y-14595818D01*
X11134186Y-14595818D02*
X11143710Y-14586294D01*
X11143710Y-14586294D02*
X11143710Y-14605341D01*
X11143710Y-14481532D02*
X11153234Y-14491056D01*
X11153234Y-14491056D02*
X11143710Y-14500579D01*
X11143710Y-14500579D02*
X11134186Y-14491056D01*
X11134186Y-14491056D02*
X11143710Y-14481532D01*
X11143710Y-14481532D02*
X11143710Y-14500579D01*
M02*
