%TF.GenerationSoftware,KiCad,Pcbnew,7.0.1*%
%TF.CreationDate,2023-03-19T20:13:47+09:00*%
%TF.ProjectId,project2,70726f6a-6563-4743-922e-6b696361645f,rev?*%
%TF.SameCoordinates,Original*%
%TF.FileFunction,Drillmap*%
%TF.FilePolarity,Positive*%
%FSLAX45Y45*%
G04 Gerber Fmt 4.5, Leading zero omitted, Abs format (unit mm)*
G04 Created by KiCad (PCBNEW 7.0.1) date 2023-03-19 20:13:47*
%MOMM*%
%LPD*%
G01*
G04 APERTURE LIST*
%ADD10C,0.100000*%
%ADD11C,0.200000*%
G04 APERTURE END LIST*
D10*
X11231521Y-12190523D02*
X11230795Y-13286721D01*
X17698798Y-13368950D02*
G75*
G03*
X17780009Y-13286539I-1208J82410D01*
G01*
X19035452Y-6973502D02*
X8968500Y-6973389D01*
X17507768Y-11792998D02*
G75*
G03*
X17507768Y-11792998I-215575J0D01*
G01*
X10021270Y-11191917D02*
X10021497Y-12190080D01*
X11903250Y-11276432D02*
G75*
G03*
X11903250Y-11276432I-210192J0D01*
G01*
X17780000Y-12192000D02*
X19039868Y-12192295D01*
X17780009Y-13286539D02*
X17780000Y-12192000D01*
X19039868Y-12192295D02*
X19035452Y-6973502D01*
X11313553Y-13369101D02*
X17698798Y-13368953D01*
X8968500Y-6973389D02*
X8969607Y-11192360D01*
X8969607Y-11192360D02*
X10021270Y-11191917D01*
X11230790Y-13286721D02*
G75*
G03*
X11313553Y-13369101I82760J381D01*
G01*
X10021497Y-12190080D02*
X11231521Y-12190523D01*
D11*
X9211119Y-13686625D02*
X9211119Y-13486625D01*
X9211119Y-13486625D02*
X9258738Y-13486625D01*
X9258738Y-13486625D02*
X9287309Y-13496149D01*
X9287309Y-13496149D02*
X9306357Y-13515196D01*
X9306357Y-13515196D02*
X9315880Y-13534244D01*
X9315880Y-13534244D02*
X9325404Y-13572339D01*
X9325404Y-13572339D02*
X9325404Y-13600910D01*
X9325404Y-13600910D02*
X9315880Y-13639006D01*
X9315880Y-13639006D02*
X9306357Y-13658053D01*
X9306357Y-13658053D02*
X9287309Y-13677101D01*
X9287309Y-13677101D02*
X9258738Y-13686625D01*
X9258738Y-13686625D02*
X9211119Y-13686625D01*
X9411119Y-13686625D02*
X9411119Y-13553291D01*
X9411119Y-13591387D02*
X9420642Y-13572339D01*
X9420642Y-13572339D02*
X9430166Y-13562815D01*
X9430166Y-13562815D02*
X9449214Y-13553291D01*
X9449214Y-13553291D02*
X9468261Y-13553291D01*
X9534928Y-13686625D02*
X9534928Y-13553291D01*
X9534928Y-13486625D02*
X9525404Y-13496149D01*
X9525404Y-13496149D02*
X9534928Y-13505672D01*
X9534928Y-13505672D02*
X9544452Y-13496149D01*
X9544452Y-13496149D02*
X9534928Y-13486625D01*
X9534928Y-13486625D02*
X9534928Y-13505672D01*
X9658738Y-13686625D02*
X9639690Y-13677101D01*
X9639690Y-13677101D02*
X9630166Y-13658053D01*
X9630166Y-13658053D02*
X9630166Y-13486625D01*
X9763499Y-13686625D02*
X9744452Y-13677101D01*
X9744452Y-13677101D02*
X9734928Y-13658053D01*
X9734928Y-13658053D02*
X9734928Y-13486625D01*
X9992071Y-13686625D02*
X9992071Y-13486625D01*
X9992071Y-13486625D02*
X10058738Y-13629482D01*
X10058738Y-13629482D02*
X10125404Y-13486625D01*
X10125404Y-13486625D02*
X10125404Y-13686625D01*
X10306357Y-13686625D02*
X10306357Y-13581863D01*
X10306357Y-13581863D02*
X10296833Y-13562815D01*
X10296833Y-13562815D02*
X10277785Y-13553291D01*
X10277785Y-13553291D02*
X10239690Y-13553291D01*
X10239690Y-13553291D02*
X10220642Y-13562815D01*
X10306357Y-13677101D02*
X10287309Y-13686625D01*
X10287309Y-13686625D02*
X10239690Y-13686625D01*
X10239690Y-13686625D02*
X10220642Y-13677101D01*
X10220642Y-13677101D02*
X10211119Y-13658053D01*
X10211119Y-13658053D02*
X10211119Y-13639006D01*
X10211119Y-13639006D02*
X10220642Y-13619958D01*
X10220642Y-13619958D02*
X10239690Y-13610434D01*
X10239690Y-13610434D02*
X10287309Y-13610434D01*
X10287309Y-13610434D02*
X10306357Y-13600910D01*
X10401595Y-13553291D02*
X10401595Y-13753291D01*
X10401595Y-13562815D02*
X10420642Y-13553291D01*
X10420642Y-13553291D02*
X10458738Y-13553291D01*
X10458738Y-13553291D02*
X10477785Y-13562815D01*
X10477785Y-13562815D02*
X10487309Y-13572339D01*
X10487309Y-13572339D02*
X10496833Y-13591387D01*
X10496833Y-13591387D02*
X10496833Y-13648529D01*
X10496833Y-13648529D02*
X10487309Y-13667577D01*
X10487309Y-13667577D02*
X10477785Y-13677101D01*
X10477785Y-13677101D02*
X10458738Y-13686625D01*
X10458738Y-13686625D02*
X10420642Y-13686625D01*
X10420642Y-13686625D02*
X10401595Y-13677101D01*
X10582547Y-13667577D02*
X10592071Y-13677101D01*
X10592071Y-13677101D02*
X10582547Y-13686625D01*
X10582547Y-13686625D02*
X10573023Y-13677101D01*
X10573023Y-13677101D02*
X10582547Y-13667577D01*
X10582547Y-13667577D02*
X10582547Y-13686625D01*
X10582547Y-13562815D02*
X10592071Y-13572339D01*
X10592071Y-13572339D02*
X10582547Y-13581863D01*
X10582547Y-13581863D02*
X10573023Y-13572339D01*
X10573023Y-13572339D02*
X10582547Y-13562815D01*
X10582547Y-13562815D02*
X10582547Y-13581863D01*
M02*
