%TF.GenerationSoftware,KiCad,Pcbnew,7.0.1*%
%TF.CreationDate,2023-03-19T20:13:47+09:00*%
%TF.ProjectId,project2,70726f6a-6563-4743-922e-6b696361645f,rev?*%
%TF.SameCoordinates,Original*%
%TF.FileFunction,Drillmap*%
%TF.FilePolarity,Positive*%
%FSLAX45Y45*%
G04 Gerber Fmt 4.5, Leading zero omitted, Abs format (unit mm)*
G04 Created by KiCad (PCBNEW 7.0.1) date 2023-03-19 20:13:47*
%MOMM*%
%LPD*%
G01*
G04 APERTURE LIST*
%ADD10C,0.100000*%
%ADD11C,0.200000*%
%ADD12C,0.040000*%
%ADD13C,0.080000*%
G04 APERTURE END LIST*
D10*
X11231521Y-12190523D02*
X11230795Y-13286721D01*
X17698798Y-13368950D02*
G75*
G03*
X17780009Y-13286539I-1208J82410D01*
G01*
X19035452Y-6973502D02*
X8968500Y-6973389D01*
X17507768Y-11792998D02*
G75*
G03*
X17507768Y-11792998I-215575J0D01*
G01*
X10021270Y-11191917D02*
X10021497Y-12190080D01*
X11903250Y-11276432D02*
G75*
G03*
X11903250Y-11276432I-210192J0D01*
G01*
X17780000Y-12192000D02*
X19039868Y-12192295D01*
X17780009Y-13286539D02*
X17780000Y-12192000D01*
X19039868Y-12192295D02*
X19035452Y-6973502D01*
X11313553Y-13369101D02*
X17698798Y-13368953D01*
X8968500Y-6973389D02*
X8969607Y-11192360D01*
X8969607Y-11192360D02*
X10021270Y-11191917D01*
X11230790Y-13286721D02*
G75*
G03*
X11313553Y-13369101I82760J381D01*
G01*
X10021497Y-12190080D02*
X11231521Y-12190523D01*
D11*
D12*
X9378000Y-7854000D02*
X9418000Y-7894000D01*
X9418000Y-7854000D02*
X9378000Y-7894000D01*
X9378000Y-8108000D02*
X9418000Y-8148000D01*
X9418000Y-8108000D02*
X9378000Y-8148000D01*
X9378000Y-8870000D02*
X9418000Y-8910000D01*
X9418000Y-8870000D02*
X9378000Y-8910000D01*
X9378000Y-9124000D02*
X9418000Y-9164000D01*
X9418000Y-9124000D02*
X9378000Y-9164000D01*
X9378000Y-9378000D02*
X9418000Y-9418000D01*
X9418000Y-9378000D02*
X9378000Y-9418000D01*
X9378000Y-9632000D02*
X9418000Y-9672000D01*
X9418000Y-9632000D02*
X9378000Y-9672000D01*
X9378000Y-9886000D02*
X9418000Y-9926000D01*
X9418000Y-9886000D02*
X9378000Y-9926000D01*
X9378000Y-10140000D02*
X9418000Y-10180000D01*
X9418000Y-10140000D02*
X9378000Y-10180000D01*
X9378000Y-10394000D02*
X9418000Y-10434000D01*
X9418000Y-10394000D02*
X9378000Y-10434000D01*
X9378000Y-10648000D02*
X9418000Y-10688000D01*
X9418000Y-10648000D02*
X9378000Y-10688000D01*
X9632000Y-7854000D02*
X9672000Y-7894000D01*
X9672000Y-7854000D02*
X9632000Y-7894000D01*
X9632000Y-8108000D02*
X9672000Y-8148000D01*
X9672000Y-8108000D02*
X9632000Y-8148000D01*
X9632000Y-8870000D02*
X9672000Y-8910000D01*
X9672000Y-8870000D02*
X9632000Y-8910000D01*
X9632000Y-9124000D02*
X9672000Y-9164000D01*
X9672000Y-9124000D02*
X9632000Y-9164000D01*
X9632000Y-9378000D02*
X9672000Y-9418000D01*
X9672000Y-9378000D02*
X9632000Y-9418000D01*
X9632000Y-9632000D02*
X9672000Y-9672000D01*
X9672000Y-9632000D02*
X9632000Y-9672000D01*
X9632000Y-9886000D02*
X9672000Y-9926000D01*
X9672000Y-9886000D02*
X9632000Y-9926000D01*
X9632000Y-10140000D02*
X9672000Y-10180000D01*
X9672000Y-10140000D02*
X9632000Y-10180000D01*
X9632000Y-10394000D02*
X9672000Y-10434000D01*
X9672000Y-10394000D02*
X9632000Y-10434000D01*
X9632000Y-10648000D02*
X9672000Y-10688000D01*
X9672000Y-10648000D02*
X9632000Y-10688000D01*
X9886000Y-7854000D02*
X9926000Y-7894000D01*
X9926000Y-7854000D02*
X9886000Y-7894000D01*
X9886000Y-8108000D02*
X9926000Y-8148000D01*
X9926000Y-8108000D02*
X9886000Y-8148000D01*
X9886000Y-8870000D02*
X9926000Y-8910000D01*
X9926000Y-8870000D02*
X9886000Y-8910000D01*
X9886000Y-9124000D02*
X9926000Y-9164000D01*
X9926000Y-9124000D02*
X9886000Y-9164000D01*
X10140000Y-7854000D02*
X10180000Y-7894000D01*
X10180000Y-7854000D02*
X10140000Y-7894000D01*
X10140000Y-8108000D02*
X10180000Y-8148000D01*
X10180000Y-8108000D02*
X10140000Y-8148000D01*
X10140000Y-11918000D02*
X10180000Y-11958000D01*
X10180000Y-11918000D02*
X10140000Y-11958000D01*
X10394000Y-7854000D02*
X10434000Y-7894000D01*
X10434000Y-7854000D02*
X10394000Y-7894000D01*
X10394000Y-8108000D02*
X10434000Y-8148000D01*
X10434000Y-8108000D02*
X10394000Y-8148000D01*
X10394000Y-11156000D02*
X10434000Y-11196000D01*
X10434000Y-11156000D02*
X10394000Y-11196000D01*
X10394000Y-11410000D02*
X10434000Y-11450000D01*
X10434000Y-11410000D02*
X10394000Y-11450000D01*
X10394000Y-11664000D02*
X10434000Y-11704000D01*
X10434000Y-11664000D02*
X10394000Y-11704000D01*
X10401419Y-12012372D02*
X10441419Y-12052372D01*
X10441419Y-12012372D02*
X10401419Y-12052372D01*
X10648000Y-7854000D02*
X10688000Y-7894000D01*
X10688000Y-7854000D02*
X10648000Y-7894000D01*
X10648000Y-8108000D02*
X10688000Y-8148000D01*
X10688000Y-8108000D02*
X10648000Y-8148000D01*
X10791601Y-11041497D02*
X10831601Y-11081497D01*
X10831601Y-11041497D02*
X10791601Y-11081497D01*
X10799422Y-12028784D02*
X10839422Y-12068784D01*
X10839422Y-12028784D02*
X10799422Y-12068784D01*
X10902000Y-11156000D02*
X10942000Y-11196000D01*
X10942000Y-11156000D02*
X10902000Y-11196000D01*
X11022197Y-11035803D02*
X11062197Y-11075803D01*
X11062197Y-11035803D02*
X11022197Y-11075803D01*
X11226147Y-12036990D02*
X11266147Y-12076990D01*
X11266147Y-12036990D02*
X11226147Y-12076990D01*
X11410000Y-8108000D02*
X11450000Y-8148000D01*
X11450000Y-8108000D02*
X11410000Y-8148000D01*
X11410000Y-11156000D02*
X11450000Y-11196000D01*
X11450000Y-11156000D02*
X11410000Y-11196000D01*
X11550645Y-12077869D02*
X11590645Y-12117869D01*
X11590645Y-12077869D02*
X11550645Y-12117869D01*
X11918000Y-7600000D02*
X11958000Y-7640000D01*
X11958000Y-7600000D02*
X11918000Y-7640000D01*
X11918000Y-11156000D02*
X11958000Y-11196000D01*
X11958000Y-11156000D02*
X11918000Y-11196000D01*
X11918000Y-11410000D02*
X11958000Y-11450000D01*
X11958000Y-11410000D02*
X11918000Y-11450000D01*
X11918000Y-11664000D02*
X11958000Y-11704000D01*
X11958000Y-11664000D02*
X11918000Y-11704000D01*
X12111902Y-8543542D02*
X12151902Y-8583542D01*
X12151902Y-8543542D02*
X12111902Y-8583542D01*
X12115258Y-8214621D02*
X12155258Y-8254621D01*
X12155258Y-8214621D02*
X12115258Y-8254621D01*
X12172000Y-11156000D02*
X12212000Y-11196000D01*
X12212000Y-11156000D02*
X12172000Y-11196000D01*
X12172000Y-11410000D02*
X12212000Y-11450000D01*
X12212000Y-11410000D02*
X12172000Y-11450000D01*
X12172000Y-11664000D02*
X12212000Y-11704000D01*
X12212000Y-11664000D02*
X12172000Y-11704000D01*
X12392329Y-8219950D02*
X12432329Y-8259950D01*
X12432329Y-8219950D02*
X12392329Y-8259950D01*
X12422622Y-8739703D02*
X12462622Y-8779703D01*
X12462622Y-8739703D02*
X12422622Y-8779703D01*
X12426000Y-7854000D02*
X12466000Y-7894000D01*
X12466000Y-7854000D02*
X12426000Y-7894000D01*
X12426000Y-8616000D02*
X12466000Y-8656000D01*
X12466000Y-8616000D02*
X12426000Y-8656000D01*
X12426000Y-11156000D02*
X12466000Y-11196000D01*
X12466000Y-11156000D02*
X12426000Y-11196000D01*
X12426000Y-11410000D02*
X12466000Y-11450000D01*
X12466000Y-11410000D02*
X12426000Y-11450000D01*
X12426000Y-11664000D02*
X12466000Y-11704000D01*
X12466000Y-11664000D02*
X12426000Y-11704000D01*
X12429026Y-7482186D02*
X12469026Y-7522186D01*
X12469026Y-7482186D02*
X12429026Y-7522186D01*
X12550238Y-11326183D02*
X12590238Y-11366183D01*
X12590238Y-11326183D02*
X12550238Y-11366183D01*
X12551921Y-12252902D02*
X12591921Y-12292902D01*
X12591921Y-12252902D02*
X12551921Y-12292902D01*
X12566754Y-8616161D02*
X12606754Y-8656161D01*
X12606754Y-8616161D02*
X12566754Y-8656161D01*
X12566754Y-8744850D02*
X12606754Y-8784850D01*
X12606754Y-8744850D02*
X12566754Y-8784850D01*
X12646904Y-11918000D02*
X12686904Y-11958000D01*
X12686904Y-11918000D02*
X12646904Y-11958000D01*
X12680000Y-11410000D02*
X12720000Y-11450000D01*
X12720000Y-11410000D02*
X12680000Y-11450000D01*
X12680000Y-11529710D02*
X12720000Y-11569710D01*
X12720000Y-11529710D02*
X12680000Y-11569710D01*
X12680000Y-11664000D02*
X12720000Y-11704000D01*
X12720000Y-11664000D02*
X12680000Y-11704000D01*
X12728081Y-8543495D02*
X12768081Y-8583495D01*
X12768081Y-8543495D02*
X12728081Y-8583495D01*
X12795671Y-8701947D02*
X12835671Y-8741947D01*
X12835671Y-8701947D02*
X12795671Y-8741947D01*
X12818012Y-11913570D02*
X12858012Y-11953570D01*
X12858012Y-11913570D02*
X12818012Y-11953570D01*
X12818012Y-12255499D02*
X12858012Y-12295499D01*
X12858012Y-12255499D02*
X12818012Y-12295499D01*
X12890694Y-7482186D02*
X12930694Y-7522186D01*
X12930694Y-7482186D02*
X12890694Y-7522186D01*
X12924876Y-11988619D02*
X12964876Y-12028619D01*
X12964876Y-11988619D02*
X12924876Y-12028619D01*
X12962764Y-11750291D02*
X13002764Y-11790291D01*
X13002764Y-11750291D02*
X12962764Y-11790291D01*
X12964694Y-10997339D02*
X13004694Y-11037339D01*
X13004694Y-10997339D02*
X12964694Y-11037339D01*
X12965817Y-11417954D02*
X13005817Y-11457954D01*
X13005817Y-11417954D02*
X12965817Y-11457954D01*
X12966399Y-11295751D02*
X13006399Y-11335751D01*
X13006399Y-11295751D02*
X12966399Y-11335751D01*
X12966894Y-11555428D02*
X13006894Y-11595428D01*
X13006894Y-11555428D02*
X12966894Y-11595428D01*
X12968104Y-11140577D02*
X13008104Y-11180577D01*
X13008104Y-11140577D02*
X12968104Y-11180577D01*
X13097771Y-12255877D02*
X13137771Y-12295877D01*
X13137771Y-12255877D02*
X13097771Y-12295877D01*
X13172426Y-12062576D02*
X13212426Y-12102576D01*
X13212426Y-12062576D02*
X13172426Y-12102576D01*
X13199265Y-10993222D02*
X13239265Y-11033222D01*
X13239265Y-10993222D02*
X13199265Y-11033222D01*
X13365100Y-12278190D02*
X13405100Y-12318190D01*
X13405100Y-12278190D02*
X13365100Y-12318190D01*
X13372179Y-11827264D02*
X13412179Y-11867264D01*
X13412179Y-11827264D02*
X13372179Y-11867264D01*
X13380249Y-7482186D02*
X13420249Y-7522186D01*
X13420249Y-7482186D02*
X13380249Y-7522186D01*
X13442000Y-8616000D02*
X13482000Y-8656000D01*
X13482000Y-8616000D02*
X13442000Y-8656000D01*
X13442000Y-8870000D02*
X13482000Y-8910000D01*
X13482000Y-8870000D02*
X13442000Y-8910000D01*
X13442000Y-10997693D02*
X13482000Y-11037693D01*
X13482000Y-10997693D02*
X13442000Y-11037693D01*
X13444314Y-10586686D02*
X13484314Y-10626686D01*
X13484314Y-10586686D02*
X13444314Y-10626686D01*
X13444629Y-11927836D02*
X13484629Y-11967836D01*
X13484629Y-11927836D02*
X13444629Y-11967836D01*
X13566876Y-11193214D02*
X13606876Y-11233214D01*
X13606876Y-11193214D02*
X13566876Y-11233214D01*
X13566876Y-11355305D02*
X13606876Y-11395305D01*
X13606876Y-11355305D02*
X13566876Y-11395305D01*
X13571788Y-10824826D02*
X13611788Y-10864826D01*
X13611788Y-10824826D02*
X13571788Y-10864826D01*
X13594446Y-10440833D02*
X13634446Y-10480833D01*
X13634446Y-10440833D02*
X13594446Y-10480833D01*
X13594446Y-10552234D02*
X13634446Y-10592234D01*
X13634446Y-10552234D02*
X13594446Y-10592234D01*
X13696000Y-7854000D02*
X13736000Y-7894000D01*
X13736000Y-7854000D02*
X13696000Y-7894000D01*
X13696000Y-8242220D02*
X13736000Y-8282220D01*
X13736000Y-8242220D02*
X13696000Y-8282220D01*
X13696000Y-8870000D02*
X13736000Y-8910000D01*
X13736000Y-8870000D02*
X13696000Y-8910000D01*
X13797946Y-11827264D02*
X13837946Y-11867264D01*
X13837946Y-11827264D02*
X13797946Y-11867264D01*
X13816295Y-8514859D02*
X13856295Y-8554859D01*
X13856295Y-8514859D02*
X13816295Y-8554859D01*
X13911093Y-11986605D02*
X13951093Y-12026605D01*
X13951093Y-11986605D02*
X13911093Y-12026605D01*
X13929063Y-8240754D02*
X13969063Y-8280754D01*
X13969063Y-8240754D02*
X13929063Y-8280754D01*
X13941368Y-10286298D02*
X13981368Y-10326298D01*
X13981368Y-10286298D02*
X13941368Y-10326298D01*
X13943087Y-9348611D02*
X13983087Y-9388611D01*
X13983087Y-9348611D02*
X13943087Y-9388611D01*
X13950000Y-7346000D02*
X13990000Y-7386000D01*
X13990000Y-7346000D02*
X13950000Y-7386000D01*
X13969185Y-10813748D02*
X14009185Y-10853748D01*
X14009185Y-10813748D02*
X13969185Y-10853748D01*
X13975580Y-11166755D02*
X14015580Y-11206755D01*
X14015580Y-11166755D02*
X13975580Y-11206755D01*
X14023120Y-11307410D02*
X14063120Y-11347410D01*
X14063120Y-11307410D02*
X14023120Y-11347410D01*
X14033361Y-9706494D02*
X14073361Y-9746494D01*
X14073361Y-9706494D02*
X14033361Y-9746494D01*
X14072142Y-8862614D02*
X14112142Y-8902614D01*
X14112142Y-8862614D02*
X14072142Y-8902614D01*
X14074377Y-8739695D02*
X14114377Y-8779695D01*
X14114377Y-8739695D02*
X14074377Y-8779695D01*
X14106425Y-11401684D02*
X14146425Y-11441684D01*
X14146425Y-11401684D02*
X14106425Y-11441684D01*
X14140742Y-8256701D02*
X14180742Y-8296701D01*
X14180742Y-8256701D02*
X14140742Y-8296701D01*
X14166433Y-9924662D02*
X14206433Y-9964662D01*
X14206433Y-9924662D02*
X14166433Y-9964662D01*
X14200054Y-7541164D02*
X14240054Y-7581164D01*
X14240054Y-7541164D02*
X14200054Y-7581164D01*
X14204000Y-7092000D02*
X14244000Y-7132000D01*
X14244000Y-7092000D02*
X14204000Y-7132000D01*
X14204000Y-7336155D02*
X14244000Y-7376155D01*
X14244000Y-7336155D02*
X14204000Y-7376155D01*
X14204000Y-7854000D02*
X14244000Y-7894000D01*
X14244000Y-7854000D02*
X14204000Y-7894000D01*
X14204000Y-7969535D02*
X14244000Y-8009535D01*
X14244000Y-7969535D02*
X14204000Y-8009535D01*
X14204000Y-9633993D02*
X14244000Y-9673993D01*
X14244000Y-9633993D02*
X14204000Y-9673993D01*
X14208658Y-8320236D02*
X14248658Y-8360236D01*
X14248658Y-8320236D02*
X14208658Y-8360236D01*
X14231666Y-11533575D02*
X14271666Y-11573575D01*
X14271666Y-11533575D02*
X14231666Y-11573575D01*
X14244702Y-10011212D02*
X14284702Y-10051212D01*
X14284702Y-10011212D02*
X14244702Y-10051212D01*
X14274383Y-8258892D02*
X14314383Y-8298892D01*
X14314383Y-8258892D02*
X14274383Y-8298892D01*
X14275067Y-8739037D02*
X14315067Y-8779037D01*
X14315067Y-8739037D02*
X14275067Y-8779037D01*
X14321067Y-9931222D02*
X14361067Y-9971222D01*
X14361067Y-9931222D02*
X14321067Y-9971222D01*
X14328593Y-11626721D02*
X14368593Y-11666721D01*
X14368593Y-11626721D02*
X14328593Y-11666721D01*
X14328593Y-12206347D02*
X14368593Y-12246347D01*
X14368593Y-12206347D02*
X14328593Y-12246347D01*
X14328978Y-9205700D02*
X14368978Y-9245700D01*
X14368978Y-9205700D02*
X14328978Y-9245700D01*
X14401150Y-9822113D02*
X14441150Y-9862113D01*
X14441150Y-9822113D02*
X14401150Y-9862113D01*
X14404815Y-11003359D02*
X14444815Y-11043359D01*
X14444815Y-11003359D02*
X14404815Y-11043359D01*
X14494377Y-11988857D02*
X14534377Y-12028857D01*
X14534377Y-11988857D02*
X14494377Y-12028857D01*
X14545993Y-7216055D02*
X14585993Y-7256055D01*
X14585993Y-7216055D02*
X14545993Y-7256055D01*
X14712000Y-9378000D02*
X14752000Y-9418000D01*
X14752000Y-9378000D02*
X14712000Y-9418000D01*
X14785004Y-11827502D02*
X14825004Y-11867502D01*
X14825004Y-11827502D02*
X14785004Y-11867502D01*
X14797994Y-7922495D02*
X14837994Y-7962495D01*
X14837994Y-7922495D02*
X14797994Y-7962495D01*
X14800834Y-7216055D02*
X14840834Y-7256055D01*
X14840834Y-7216055D02*
X14800834Y-7256055D01*
X14802020Y-11547709D02*
X14842020Y-11587709D01*
X14842020Y-11547709D02*
X14802020Y-11587709D01*
X14823862Y-12153824D02*
X14863862Y-12193824D01*
X14863862Y-12153824D02*
X14823862Y-12193824D01*
X14928939Y-8145477D02*
X14968939Y-8185477D01*
X14968939Y-8145477D02*
X14928939Y-8185477D01*
X14934591Y-9958548D02*
X14974591Y-9998548D01*
X14974591Y-9958548D02*
X14934591Y-9998548D01*
X14962670Y-12008155D02*
X15002670Y-12048155D01*
X15002670Y-12008155D02*
X14962670Y-12048155D01*
X14966000Y-8362000D02*
X15006000Y-8402000D01*
X15006000Y-8362000D02*
X14966000Y-8402000D01*
X14966000Y-8870000D02*
X15006000Y-8910000D01*
X15006000Y-8870000D02*
X14966000Y-8910000D01*
X14966000Y-9124000D02*
X15006000Y-9164000D01*
X15006000Y-9124000D02*
X14966000Y-9164000D01*
X14966000Y-9378000D02*
X15006000Y-9418000D01*
X15006000Y-9378000D02*
X14966000Y-9418000D01*
X15015010Y-11757289D02*
X15055010Y-11797289D01*
X15055010Y-11757289D02*
X15015010Y-11797289D01*
X15106666Y-11848945D02*
X15146666Y-11888945D01*
X15146666Y-11848945D02*
X15106666Y-11888945D01*
X15172951Y-11449738D02*
X15212951Y-11489738D01*
X15212951Y-11449738D02*
X15172951Y-11489738D01*
X15201337Y-10292247D02*
X15241337Y-10332247D01*
X15241337Y-10292247D02*
X15201337Y-10332247D01*
X15201337Y-10453198D02*
X15241337Y-10493198D01*
X15241337Y-10453198D02*
X15201337Y-10493198D01*
X15285569Y-11165114D02*
X15325569Y-11205114D01*
X15325569Y-11165114D02*
X15285569Y-11205114D01*
X15554058Y-12172000D02*
X15594058Y-12212000D01*
X15594058Y-12172000D02*
X15554058Y-12212000D01*
X15581286Y-7216055D02*
X15621286Y-7256055D01*
X15621286Y-7216055D02*
X15581286Y-7256055D01*
X15728000Y-7854000D02*
X15768000Y-7894000D01*
X15768000Y-7854000D02*
X15728000Y-7894000D01*
X15728000Y-8616000D02*
X15768000Y-8656000D01*
X15768000Y-8616000D02*
X15728000Y-8656000D01*
X15728000Y-8870000D02*
X15768000Y-8910000D01*
X15768000Y-8870000D02*
X15728000Y-8910000D01*
X15728000Y-9124000D02*
X15768000Y-9164000D01*
X15768000Y-9124000D02*
X15728000Y-9164000D01*
X15728000Y-9886000D02*
X15768000Y-9926000D01*
X15768000Y-9886000D02*
X15728000Y-9926000D01*
X15820885Y-12042949D02*
X15860885Y-12082949D01*
X15860885Y-12042949D02*
X15820885Y-12082949D01*
X15912366Y-12172000D02*
X15952366Y-12212000D01*
X15952366Y-12172000D02*
X15912366Y-12212000D01*
X15947621Y-7216055D02*
X15987621Y-7256055D01*
X15987621Y-7216055D02*
X15947621Y-7256055D01*
X15982000Y-9632000D02*
X16022000Y-9672000D01*
X16022000Y-9632000D02*
X15982000Y-9672000D01*
X15996053Y-12043213D02*
X16036053Y-12083213D01*
X16036053Y-12043213D02*
X15996053Y-12083213D01*
X16095462Y-11927114D02*
X16135462Y-11967114D01*
X16135462Y-11927114D02*
X16095462Y-11967114D01*
X16097580Y-10338081D02*
X16137580Y-10378081D01*
X16137580Y-10338081D02*
X16097580Y-10378081D01*
X16122824Y-8625647D02*
X16162824Y-8665647D01*
X16162824Y-8625647D02*
X16122824Y-8665647D01*
X16203420Y-11165114D02*
X16243420Y-11205114D01*
X16243420Y-11165114D02*
X16203420Y-11205114D01*
X16236000Y-7600000D02*
X16276000Y-7640000D01*
X16276000Y-7600000D02*
X16236000Y-7640000D01*
X16236000Y-7854000D02*
X16276000Y-7894000D01*
X16276000Y-7854000D02*
X16236000Y-7894000D01*
X16354829Y-8495071D02*
X16394829Y-8535071D01*
X16394829Y-8495071D02*
X16354829Y-8535071D01*
X16374420Y-11449992D02*
X16414420Y-11489992D01*
X16414420Y-11449992D02*
X16374420Y-11489992D01*
X16383412Y-11802518D02*
X16423412Y-11842518D01*
X16423412Y-11802518D02*
X16383412Y-11842518D01*
X16473460Y-8497270D02*
X16513460Y-8537270D01*
X16513460Y-8497270D02*
X16473460Y-8537270D01*
X16490000Y-7600000D02*
X16530000Y-7640000D01*
X16530000Y-7600000D02*
X16490000Y-7640000D01*
X16490000Y-7854000D02*
X16530000Y-7894000D01*
X16530000Y-7854000D02*
X16490000Y-7894000D01*
X16490000Y-9886000D02*
X16530000Y-9926000D01*
X16530000Y-9886000D02*
X16490000Y-9926000D01*
X16651114Y-12038647D02*
X16691114Y-12078647D01*
X16691114Y-12038647D02*
X16651114Y-12078647D01*
X16871547Y-11208064D02*
X16911547Y-11248064D01*
X16911547Y-11208064D02*
X16871547Y-11248064D01*
X16900265Y-12092855D02*
X16940265Y-12132855D01*
X16940265Y-12092855D02*
X16900265Y-12132855D01*
X16998000Y-8108000D02*
X17038000Y-8148000D01*
X17038000Y-8108000D02*
X16998000Y-8148000D01*
X16998000Y-8362000D02*
X17038000Y-8402000D01*
X17038000Y-8362000D02*
X16998000Y-8402000D01*
X16998000Y-9886000D02*
X17038000Y-9926000D01*
X17038000Y-9886000D02*
X16998000Y-9926000D01*
X16998000Y-10140000D02*
X17038000Y-10180000D01*
X17038000Y-10140000D02*
X16998000Y-10180000D01*
X16998000Y-10394000D02*
X17038000Y-10434000D01*
X17038000Y-10394000D02*
X16998000Y-10434000D01*
X16998000Y-10648000D02*
X17038000Y-10688000D01*
X17038000Y-10648000D02*
X16998000Y-10688000D01*
X17090580Y-8776330D02*
X17130580Y-8816330D01*
X17130580Y-8776330D02*
X17090580Y-8816330D01*
X17090580Y-8995365D02*
X17130580Y-9035365D01*
X17130580Y-8995365D02*
X17090580Y-9035365D01*
X17097646Y-9214400D02*
X17137646Y-9254400D01*
X17137646Y-9214400D02*
X17097646Y-9254400D01*
X17128872Y-11205203D02*
X17168872Y-11245203D01*
X17168872Y-11205203D02*
X17128872Y-11245203D01*
X17252000Y-7600000D02*
X17292000Y-7640000D01*
X17292000Y-7600000D02*
X17252000Y-7640000D01*
X17760000Y-7600000D02*
X17800000Y-7640000D01*
X17800000Y-7600000D02*
X17760000Y-7640000D01*
X17760000Y-7854000D02*
X17800000Y-7894000D01*
X17800000Y-7854000D02*
X17760000Y-7894000D01*
X17760000Y-8108000D02*
X17800000Y-8148000D01*
X17800000Y-8108000D02*
X17760000Y-8148000D01*
X17760000Y-8362000D02*
X17800000Y-8402000D01*
X17800000Y-8362000D02*
X17760000Y-8402000D01*
X17760000Y-8616000D02*
X17800000Y-8656000D01*
X17800000Y-8616000D02*
X17760000Y-8656000D01*
X17760000Y-11410000D02*
X17800000Y-11450000D01*
X17800000Y-11410000D02*
X17760000Y-11450000D01*
X17760000Y-11664000D02*
X17800000Y-11704000D01*
X17800000Y-11664000D02*
X17760000Y-11704000D01*
X17760000Y-11918000D02*
X17800000Y-11958000D01*
X17800000Y-11918000D02*
X17760000Y-11958000D01*
X18014000Y-7600000D02*
X18054000Y-7640000D01*
X18054000Y-7600000D02*
X18014000Y-7640000D01*
X18014000Y-7854000D02*
X18054000Y-7894000D01*
X18054000Y-7854000D02*
X18014000Y-7894000D01*
X18014000Y-8108000D02*
X18054000Y-8148000D01*
X18054000Y-8108000D02*
X18014000Y-8148000D01*
X18014000Y-8362000D02*
X18054000Y-8402000D01*
X18054000Y-8362000D02*
X18014000Y-8402000D01*
X18014000Y-8616000D02*
X18054000Y-8656000D01*
X18054000Y-8616000D02*
X18014000Y-8656000D01*
X18014000Y-11410000D02*
X18054000Y-11450000D01*
X18054000Y-11410000D02*
X18014000Y-11450000D01*
X18014000Y-11664000D02*
X18054000Y-11704000D01*
X18054000Y-11664000D02*
X18014000Y-11704000D01*
X18014000Y-11918000D02*
X18054000Y-11958000D01*
X18054000Y-11918000D02*
X18014000Y-11958000D01*
X18268000Y-7600000D02*
X18308000Y-7640000D01*
X18308000Y-7600000D02*
X18268000Y-7640000D01*
X18268000Y-7854000D02*
X18308000Y-7894000D01*
X18308000Y-7854000D02*
X18268000Y-7894000D01*
X18268000Y-8108000D02*
X18308000Y-8148000D01*
X18308000Y-8108000D02*
X18268000Y-8148000D01*
X18268000Y-8362000D02*
X18308000Y-8402000D01*
X18308000Y-8362000D02*
X18268000Y-8402000D01*
X18268000Y-8616000D02*
X18308000Y-8656000D01*
X18308000Y-8616000D02*
X18268000Y-8656000D01*
X18268000Y-11410000D02*
X18308000Y-11450000D01*
X18308000Y-11410000D02*
X18268000Y-11450000D01*
X18268000Y-11664000D02*
X18308000Y-11704000D01*
X18308000Y-11664000D02*
X18268000Y-11704000D01*
X18268000Y-11918000D02*
X18308000Y-11958000D01*
X18308000Y-11918000D02*
X18268000Y-11958000D01*
X18522000Y-7600000D02*
X18562000Y-7640000D01*
X18562000Y-7600000D02*
X18522000Y-7640000D01*
X18522000Y-7854000D02*
X18562000Y-7894000D01*
X18562000Y-7854000D02*
X18522000Y-7894000D01*
X18522000Y-8108000D02*
X18562000Y-8148000D01*
X18562000Y-8108000D02*
X18522000Y-8148000D01*
X18522000Y-8362000D02*
X18562000Y-8402000D01*
X18562000Y-8362000D02*
X18522000Y-8402000D01*
X18522000Y-8616000D02*
X18562000Y-8656000D01*
X18562000Y-8616000D02*
X18522000Y-8656000D01*
X18522000Y-11410000D02*
X18562000Y-11450000D01*
X18562000Y-11410000D02*
X18522000Y-11450000D01*
X18522000Y-11664000D02*
X18562000Y-11704000D01*
X18562000Y-11664000D02*
X18522000Y-11704000D01*
X18522000Y-11918000D02*
X18562000Y-11958000D01*
X18562000Y-11918000D02*
X18522000Y-11958000D01*
D13*
X10239287Y-9294614D02*
G75*
G03*
X10239287Y-9294614I-40000J0D01*
G01*
X10239287Y-9548614D02*
G75*
G03*
X10239287Y-9548614I-40000J0D01*
G01*
X10239287Y-9802614D02*
G75*
G03*
X10239287Y-9802614I-40000J0D01*
G01*
X10239287Y-10056614D02*
G75*
G03*
X10239287Y-10056614I-40000J0D01*
G01*
X10239287Y-10310614D02*
G75*
G03*
X10239287Y-10310614I-40000J0D01*
G01*
X10493287Y-9040614D02*
G75*
G03*
X10493287Y-9040614I-40000J0D01*
G01*
X10493287Y-9294614D02*
G75*
G03*
X10493287Y-9294614I-40000J0D01*
G01*
X10493287Y-9548614D02*
G75*
G03*
X10493287Y-9548614I-40000J0D01*
G01*
X10493287Y-9802614D02*
G75*
G03*
X10493287Y-9802614I-40000J0D01*
G01*
X10493287Y-10056614D02*
G75*
G03*
X10493287Y-10056614I-40000J0D01*
G01*
X10493287Y-10310614D02*
G75*
G03*
X10493287Y-10310614I-40000J0D01*
G01*
X10493287Y-10564614D02*
G75*
G03*
X10493287Y-10564614I-40000J0D01*
G01*
X10747287Y-9040614D02*
G75*
G03*
X10747287Y-9040614I-40000J0D01*
G01*
X10747287Y-9294614D02*
G75*
G03*
X10747287Y-9294614I-40000J0D01*
G01*
X10747287Y-10310614D02*
G75*
G03*
X10747287Y-10310614I-40000J0D01*
G01*
X10747287Y-10564614D02*
G75*
G03*
X10747287Y-10564614I-40000J0D01*
G01*
X10874287Y-11580614D02*
G75*
G03*
X10874287Y-11580614I-40000J0D01*
G01*
X10874287Y-11830614D02*
G75*
G03*
X10874287Y-11830614I-40000J0D01*
G01*
X11001287Y-9040614D02*
G75*
G03*
X11001287Y-9040614I-40000J0D01*
G01*
X11001287Y-9294614D02*
G75*
G03*
X11001287Y-9294614I-40000J0D01*
G01*
X11001287Y-10310614D02*
G75*
G03*
X11001287Y-10310614I-40000J0D01*
G01*
X11001287Y-10564614D02*
G75*
G03*
X11001287Y-10564614I-40000J0D01*
G01*
X11128287Y-8532614D02*
G75*
G03*
X11128287Y-8532614I-40000J0D01*
G01*
X11255287Y-9040614D02*
G75*
G03*
X11255287Y-9040614I-40000J0D01*
G01*
X11255287Y-9294614D02*
G75*
G03*
X11255287Y-9294614I-40000J0D01*
G01*
X11255287Y-9548614D02*
G75*
G03*
X11255287Y-9548614I-40000J0D01*
G01*
X11255287Y-9802614D02*
G75*
G03*
X11255287Y-9802614I-40000J0D01*
G01*
X11255287Y-10056614D02*
G75*
G03*
X11255287Y-10056614I-40000J0D01*
G01*
X11255287Y-10310614D02*
G75*
G03*
X11255287Y-10310614I-40000J0D01*
G01*
X11255287Y-10564614D02*
G75*
G03*
X11255287Y-10564614I-40000J0D01*
G01*
X11382287Y-7262614D02*
G75*
G03*
X11382287Y-7262614I-40000J0D01*
G01*
X11382287Y-7762614D02*
G75*
G03*
X11382287Y-7762614I-40000J0D01*
G01*
X11509287Y-9294614D02*
G75*
G03*
X11509287Y-9294614I-40000J0D01*
G01*
X11509287Y-9548614D02*
G75*
G03*
X11509287Y-9548614I-40000J0D01*
G01*
X11509287Y-9802614D02*
G75*
G03*
X11509287Y-9802614I-40000J0D01*
G01*
X11509287Y-10056614D02*
G75*
G03*
X11509287Y-10056614I-40000J0D01*
G01*
X11509287Y-10310614D02*
G75*
G03*
X11509287Y-10310614I-40000J0D01*
G01*
X11628287Y-8532614D02*
G75*
G03*
X11628287Y-8532614I-40000J0D01*
G01*
X11890287Y-7262614D02*
G75*
G03*
X11890287Y-7262614I-40000J0D01*
G01*
X11890287Y-8024614D02*
G75*
G03*
X11890287Y-8024614I-40000J0D01*
G01*
X12144287Y-7262614D02*
G75*
G03*
X12144287Y-7262614I-40000J0D01*
G01*
X12144287Y-8024614D02*
G75*
G03*
X12144287Y-8024614I-40000J0D01*
G01*
X12271287Y-9294614D02*
G75*
G03*
X12271287Y-9294614I-40000J0D01*
G01*
X12271287Y-9548614D02*
G75*
G03*
X12271287Y-9548614I-40000J0D01*
G01*
X12271287Y-9802614D02*
G75*
G03*
X12271287Y-9802614I-40000J0D01*
G01*
X12271287Y-10056614D02*
G75*
G03*
X12271287Y-10056614I-40000J0D01*
G01*
X12271287Y-10310614D02*
G75*
G03*
X12271287Y-10310614I-40000J0D01*
G01*
X12398287Y-7262614D02*
G75*
G03*
X12398287Y-7262614I-40000J0D01*
G01*
X12398287Y-8024614D02*
G75*
G03*
X12398287Y-8024614I-40000J0D01*
G01*
X12525287Y-9040614D02*
G75*
G03*
X12525287Y-9040614I-40000J0D01*
G01*
X12525287Y-9294614D02*
G75*
G03*
X12525287Y-9294614I-40000J0D01*
G01*
X12525287Y-9548614D02*
G75*
G03*
X12525287Y-9548614I-40000J0D01*
G01*
X12525287Y-9802614D02*
G75*
G03*
X12525287Y-9802614I-40000J0D01*
G01*
X12525287Y-10056614D02*
G75*
G03*
X12525287Y-10056614I-40000J0D01*
G01*
X12525287Y-10310614D02*
G75*
G03*
X12525287Y-10310614I-40000J0D01*
G01*
X12525287Y-10564614D02*
G75*
G03*
X12525287Y-10564614I-40000J0D01*
G01*
X12652287Y-7262614D02*
G75*
G03*
X12652287Y-7262614I-40000J0D01*
G01*
X12652287Y-8024614D02*
G75*
G03*
X12652287Y-8024614I-40000J0D01*
G01*
X12779287Y-9040614D02*
G75*
G03*
X12779287Y-9040614I-40000J0D01*
G01*
X12779287Y-9294614D02*
G75*
G03*
X12779287Y-9294614I-40000J0D01*
G01*
X12779287Y-10310614D02*
G75*
G03*
X12779287Y-10310614I-40000J0D01*
G01*
X12779287Y-10564614D02*
G75*
G03*
X12779287Y-10564614I-40000J0D01*
G01*
X12906287Y-7262614D02*
G75*
G03*
X12906287Y-7262614I-40000J0D01*
G01*
X12906287Y-8024614D02*
G75*
G03*
X12906287Y-8024614I-40000J0D01*
G01*
X13033287Y-9040614D02*
G75*
G03*
X13033287Y-9040614I-40000J0D01*
G01*
X13033287Y-9294614D02*
G75*
G03*
X13033287Y-9294614I-40000J0D01*
G01*
X13033287Y-10310614D02*
G75*
G03*
X13033287Y-10310614I-40000J0D01*
G01*
X13033287Y-10564614D02*
G75*
G03*
X13033287Y-10564614I-40000J0D01*
G01*
X13160287Y-7262614D02*
G75*
G03*
X13160287Y-7262614I-40000J0D01*
G01*
X13160287Y-8024614D02*
G75*
G03*
X13160287Y-8024614I-40000J0D01*
G01*
X13168287Y-8532614D02*
G75*
G03*
X13168287Y-8532614I-40000J0D01*
G01*
X13287287Y-9040614D02*
G75*
G03*
X13287287Y-9040614I-40000J0D01*
G01*
X13287287Y-9294614D02*
G75*
G03*
X13287287Y-9294614I-40000J0D01*
G01*
X13287287Y-9548614D02*
G75*
G03*
X13287287Y-9548614I-40000J0D01*
G01*
X13287287Y-9802614D02*
G75*
G03*
X13287287Y-9802614I-40000J0D01*
G01*
X13287287Y-10056614D02*
G75*
G03*
X13287287Y-10056614I-40000J0D01*
G01*
X13287287Y-10310614D02*
G75*
G03*
X13287287Y-10310614I-40000J0D01*
G01*
X13287287Y-10564614D02*
G75*
G03*
X13287287Y-10564614I-40000J0D01*
G01*
X13414287Y-7262614D02*
G75*
G03*
X13414287Y-7262614I-40000J0D01*
G01*
X13414287Y-8024614D02*
G75*
G03*
X13414287Y-8024614I-40000J0D01*
G01*
X13541287Y-9294614D02*
G75*
G03*
X13541287Y-9294614I-40000J0D01*
G01*
X13541287Y-9548614D02*
G75*
G03*
X13541287Y-9548614I-40000J0D01*
G01*
X13541287Y-9802614D02*
G75*
G03*
X13541287Y-9802614I-40000J0D01*
G01*
X13541287Y-10056614D02*
G75*
G03*
X13541287Y-10056614I-40000J0D01*
G01*
X13541287Y-10310614D02*
G75*
G03*
X13541287Y-10310614I-40000J0D01*
G01*
X13668287Y-7262614D02*
G75*
G03*
X13668287Y-7262614I-40000J0D01*
G01*
X13668287Y-8024614D02*
G75*
G03*
X13668287Y-8024614I-40000J0D01*
G01*
X13668287Y-8532614D02*
G75*
G03*
X13668287Y-8532614I-40000J0D01*
G01*
X14268879Y-8548962D02*
G75*
G03*
X14268879Y-8548962I-40000J0D01*
G01*
X14268879Y-9048962D02*
G75*
G03*
X14268879Y-9048962I-40000J0D01*
G01*
X14684287Y-7516114D02*
G75*
G03*
X14684287Y-7516114I-40000J0D01*
G01*
X14684287Y-7770114D02*
G75*
G03*
X14684287Y-7770114I-40000J0D01*
G01*
X14684287Y-8024114D02*
G75*
G03*
X14684287Y-8024114I-40000J0D01*
G01*
X14684287Y-8278114D02*
G75*
G03*
X14684287Y-8278114I-40000J0D01*
G01*
X14684287Y-8532114D02*
G75*
G03*
X14684287Y-8532114I-40000J0D01*
G01*
X14684287Y-8786114D02*
G75*
G03*
X14684287Y-8786114I-40000J0D01*
G01*
X14684287Y-9040114D02*
G75*
G03*
X14684287Y-9040114I-40000J0D01*
G01*
X14684287Y-10056614D02*
G75*
G03*
X14684287Y-10056614I-40000J0D01*
G01*
X14684287Y-10310614D02*
G75*
G03*
X14684287Y-10310614I-40000J0D01*
G01*
X14684287Y-10564614D02*
G75*
G03*
X14684287Y-10564614I-40000J0D01*
G01*
X14684287Y-10818614D02*
G75*
G03*
X14684287Y-10818614I-40000J0D01*
G01*
X14684287Y-11072614D02*
G75*
G03*
X14684287Y-11072614I-40000J0D01*
G01*
X14684287Y-11326614D02*
G75*
G03*
X14684287Y-11326614I-40000J0D01*
G01*
X14684287Y-11580614D02*
G75*
G03*
X14684287Y-11580614I-40000J0D01*
G01*
X14684287Y-11834614D02*
G75*
G03*
X14684287Y-11834614I-40000J0D01*
G01*
X14938287Y-9548614D02*
G75*
G03*
X14938287Y-9548614I-40000J0D01*
G01*
X15438287Y-9548614D02*
G75*
G03*
X15438287Y-9548614I-40000J0D01*
G01*
X15446287Y-7516114D02*
G75*
G03*
X15446287Y-7516114I-40000J0D01*
G01*
X15446287Y-7770114D02*
G75*
G03*
X15446287Y-7770114I-40000J0D01*
G01*
X15446287Y-8024114D02*
G75*
G03*
X15446287Y-8024114I-40000J0D01*
G01*
X15446287Y-8278114D02*
G75*
G03*
X15446287Y-8278114I-40000J0D01*
G01*
X15446287Y-8532114D02*
G75*
G03*
X15446287Y-8532114I-40000J0D01*
G01*
X15446287Y-8786114D02*
G75*
G03*
X15446287Y-8786114I-40000J0D01*
G01*
X15446287Y-9040114D02*
G75*
G03*
X15446287Y-9040114I-40000J0D01*
G01*
X15446287Y-10056614D02*
G75*
G03*
X15446287Y-10056614I-40000J0D01*
G01*
X15446287Y-10310614D02*
G75*
G03*
X15446287Y-10310614I-40000J0D01*
G01*
X15446287Y-10564614D02*
G75*
G03*
X15446287Y-10564614I-40000J0D01*
G01*
X15446287Y-10818614D02*
G75*
G03*
X15446287Y-10818614I-40000J0D01*
G01*
X15446287Y-11072614D02*
G75*
G03*
X15446287Y-11072614I-40000J0D01*
G01*
X15446287Y-11326614D02*
G75*
G03*
X15446287Y-11326614I-40000J0D01*
G01*
X15446287Y-11580614D02*
G75*
G03*
X15446287Y-11580614I-40000J0D01*
G01*
X15446287Y-11834614D02*
G75*
G03*
X15446287Y-11834614I-40000J0D01*
G01*
X15954287Y-7516614D02*
G75*
G03*
X15954287Y-7516614I-40000J0D01*
G01*
X15954287Y-7770614D02*
G75*
G03*
X15954287Y-7770614I-40000J0D01*
G01*
X15954287Y-8024614D02*
G75*
G03*
X15954287Y-8024614I-40000J0D01*
G01*
X15954287Y-8278614D02*
G75*
G03*
X15954287Y-8278614I-40000J0D01*
G01*
X15954287Y-8532614D02*
G75*
G03*
X15954287Y-8532614I-40000J0D01*
G01*
X15954287Y-8786614D02*
G75*
G03*
X15954287Y-8786614I-40000J0D01*
G01*
X15954287Y-9040614D02*
G75*
G03*
X15954287Y-9040614I-40000J0D01*
G01*
X15954287Y-10056614D02*
G75*
G03*
X15954287Y-10056614I-40000J0D01*
G01*
X15954287Y-10310614D02*
G75*
G03*
X15954287Y-10310614I-40000J0D01*
G01*
X15954287Y-10564614D02*
G75*
G03*
X15954287Y-10564614I-40000J0D01*
G01*
X15954287Y-10818614D02*
G75*
G03*
X15954287Y-10818614I-40000J0D01*
G01*
X15954287Y-11072614D02*
G75*
G03*
X15954287Y-11072614I-40000J0D01*
G01*
X15954287Y-11326614D02*
G75*
G03*
X15954287Y-11326614I-40000J0D01*
G01*
X15954287Y-11580614D02*
G75*
G03*
X15954287Y-11580614I-40000J0D01*
G01*
X15954287Y-11834614D02*
G75*
G03*
X15954287Y-11834614I-40000J0D01*
G01*
X16216287Y-9548614D02*
G75*
G03*
X16216287Y-9548614I-40000J0D01*
G01*
X16716287Y-7516614D02*
G75*
G03*
X16716287Y-7516614I-40000J0D01*
G01*
X16716287Y-7770614D02*
G75*
G03*
X16716287Y-7770614I-40000J0D01*
G01*
X16716287Y-8024614D02*
G75*
G03*
X16716287Y-8024614I-40000J0D01*
G01*
X16716287Y-8278614D02*
G75*
G03*
X16716287Y-8278614I-40000J0D01*
G01*
X16716287Y-8532614D02*
G75*
G03*
X16716287Y-8532614I-40000J0D01*
G01*
X16716287Y-8786614D02*
G75*
G03*
X16716287Y-8786614I-40000J0D01*
G01*
X16716287Y-9040614D02*
G75*
G03*
X16716287Y-9040614I-40000J0D01*
G01*
X16716287Y-9548614D02*
G75*
G03*
X16716287Y-9548614I-40000J0D01*
G01*
X16716287Y-10056614D02*
G75*
G03*
X16716287Y-10056614I-40000J0D01*
G01*
X16716287Y-10310614D02*
G75*
G03*
X16716287Y-10310614I-40000J0D01*
G01*
X16716287Y-10564614D02*
G75*
G03*
X16716287Y-10564614I-40000J0D01*
G01*
X16716287Y-10818614D02*
G75*
G03*
X16716287Y-10818614I-40000J0D01*
G01*
X16716287Y-11072614D02*
G75*
G03*
X16716287Y-11072614I-40000J0D01*
G01*
X16716287Y-11326614D02*
G75*
G03*
X16716287Y-11326614I-40000J0D01*
G01*
X16716287Y-11580614D02*
G75*
G03*
X16716287Y-11580614I-40000J0D01*
G01*
X16716287Y-11834614D02*
G75*
G03*
X16716287Y-11834614I-40000J0D01*
G01*
X17107116Y-7459035D02*
G75*
G03*
X17107116Y-7459035I-40000J0D01*
G01*
X17107116Y-7959035D02*
G75*
G03*
X17107116Y-7959035I-40000J0D01*
G01*
X17410546Y-9054497D02*
G75*
G03*
X17410546Y-9054497I-40000J0D01*
G01*
X17410546Y-9459497D02*
G75*
G03*
X17410546Y-9459497I-40000J0D01*
G01*
X17410546Y-9864497D02*
G75*
G03*
X17410546Y-9864497I-40000J0D01*
G01*
X17410546Y-10269497D02*
G75*
G03*
X17410546Y-10269497I-40000J0D01*
G01*
X17410546Y-10674497D02*
G75*
G03*
X17410546Y-10674497I-40000J0D01*
G01*
X17410546Y-11079497D02*
G75*
G03*
X17410546Y-11079497I-40000J0D01*
G01*
X18426546Y-9054497D02*
G75*
G03*
X18426546Y-9054497I-40000J0D01*
G01*
X18426546Y-9459497D02*
G75*
G03*
X18426546Y-9459497I-40000J0D01*
G01*
X18426546Y-9864497D02*
G75*
G03*
X18426546Y-9864497I-40000J0D01*
G01*
X18426546Y-10269497D02*
G75*
G03*
X18426546Y-10269497I-40000J0D01*
G01*
X18426546Y-10674497D02*
G75*
G03*
X18426546Y-10674497I-40000J0D01*
G01*
X18426546Y-11079497D02*
G75*
G03*
X18426546Y-11079497I-40000J0D01*
G01*
D11*
X9211119Y-13686625D02*
X9211119Y-13486625D01*
X9211119Y-13486625D02*
X9258738Y-13486625D01*
X9258738Y-13486625D02*
X9287309Y-13496149D01*
X9287309Y-13496149D02*
X9306357Y-13515196D01*
X9306357Y-13515196D02*
X9315880Y-13534244D01*
X9315880Y-13534244D02*
X9325404Y-13572339D01*
X9325404Y-13572339D02*
X9325404Y-13600910D01*
X9325404Y-13600910D02*
X9315880Y-13639006D01*
X9315880Y-13639006D02*
X9306357Y-13658053D01*
X9306357Y-13658053D02*
X9287309Y-13677101D01*
X9287309Y-13677101D02*
X9258738Y-13686625D01*
X9258738Y-13686625D02*
X9211119Y-13686625D01*
X9411119Y-13686625D02*
X9411119Y-13553291D01*
X9411119Y-13591387D02*
X9420642Y-13572339D01*
X9420642Y-13572339D02*
X9430166Y-13562815D01*
X9430166Y-13562815D02*
X9449214Y-13553291D01*
X9449214Y-13553291D02*
X9468261Y-13553291D01*
X9534928Y-13686625D02*
X9534928Y-13553291D01*
X9534928Y-13486625D02*
X9525404Y-13496149D01*
X9525404Y-13496149D02*
X9534928Y-13505672D01*
X9534928Y-13505672D02*
X9544452Y-13496149D01*
X9544452Y-13496149D02*
X9534928Y-13486625D01*
X9534928Y-13486625D02*
X9534928Y-13505672D01*
X9658738Y-13686625D02*
X9639690Y-13677101D01*
X9639690Y-13677101D02*
X9630166Y-13658053D01*
X9630166Y-13658053D02*
X9630166Y-13486625D01*
X9763499Y-13686625D02*
X9744452Y-13677101D01*
X9744452Y-13677101D02*
X9734928Y-13658053D01*
X9734928Y-13658053D02*
X9734928Y-13486625D01*
X9992071Y-13686625D02*
X9992071Y-13486625D01*
X9992071Y-13486625D02*
X10058738Y-13629482D01*
X10058738Y-13629482D02*
X10125404Y-13486625D01*
X10125404Y-13486625D02*
X10125404Y-13686625D01*
X10306357Y-13686625D02*
X10306357Y-13581863D01*
X10306357Y-13581863D02*
X10296833Y-13562815D01*
X10296833Y-13562815D02*
X10277785Y-13553291D01*
X10277785Y-13553291D02*
X10239690Y-13553291D01*
X10239690Y-13553291D02*
X10220642Y-13562815D01*
X10306357Y-13677101D02*
X10287309Y-13686625D01*
X10287309Y-13686625D02*
X10239690Y-13686625D01*
X10239690Y-13686625D02*
X10220642Y-13677101D01*
X10220642Y-13677101D02*
X10211119Y-13658053D01*
X10211119Y-13658053D02*
X10211119Y-13639006D01*
X10211119Y-13639006D02*
X10220642Y-13619958D01*
X10220642Y-13619958D02*
X10239690Y-13610434D01*
X10239690Y-13610434D02*
X10287309Y-13610434D01*
X10287309Y-13610434D02*
X10306357Y-13600910D01*
X10401595Y-13553291D02*
X10401595Y-13753291D01*
X10401595Y-13562815D02*
X10420642Y-13553291D01*
X10420642Y-13553291D02*
X10458738Y-13553291D01*
X10458738Y-13553291D02*
X10477785Y-13562815D01*
X10477785Y-13562815D02*
X10487309Y-13572339D01*
X10487309Y-13572339D02*
X10496833Y-13591387D01*
X10496833Y-13591387D02*
X10496833Y-13648529D01*
X10496833Y-13648529D02*
X10487309Y-13667577D01*
X10487309Y-13667577D02*
X10477785Y-13677101D01*
X10477785Y-13677101D02*
X10458738Y-13686625D01*
X10458738Y-13686625D02*
X10420642Y-13686625D01*
X10420642Y-13686625D02*
X10401595Y-13677101D01*
X10582547Y-13667577D02*
X10592071Y-13677101D01*
X10592071Y-13677101D02*
X10582547Y-13686625D01*
X10582547Y-13686625D02*
X10573023Y-13677101D01*
X10573023Y-13677101D02*
X10582547Y-13667577D01*
X10582547Y-13667577D02*
X10582547Y-13686625D01*
X10582547Y-13562815D02*
X10592071Y-13572339D01*
X10592071Y-13572339D02*
X10582547Y-13581863D01*
X10582547Y-13581863D02*
X10573023Y-13572339D01*
X10573023Y-13572339D02*
X10582547Y-13562815D01*
X10582547Y-13562815D02*
X10582547Y-13581863D01*
D12*
X8923500Y-13994101D02*
X8963500Y-14034101D01*
X8963500Y-13994101D02*
X8923500Y-14034101D01*
D11*
X9249214Y-13906625D02*
X9268261Y-13906625D01*
X9268261Y-13906625D02*
X9287309Y-13916149D01*
X9287309Y-13916149D02*
X9296833Y-13925672D01*
X9296833Y-13925672D02*
X9306357Y-13944720D01*
X9306357Y-13944720D02*
X9315880Y-13982815D01*
X9315880Y-13982815D02*
X9315880Y-14030434D01*
X9315880Y-14030434D02*
X9306357Y-14068529D01*
X9306357Y-14068529D02*
X9296833Y-14087577D01*
X9296833Y-14087577D02*
X9287309Y-14097101D01*
X9287309Y-14097101D02*
X9268261Y-14106625D01*
X9268261Y-14106625D02*
X9249214Y-14106625D01*
X9249214Y-14106625D02*
X9230166Y-14097101D01*
X9230166Y-14097101D02*
X9220642Y-14087577D01*
X9220642Y-14087577D02*
X9211119Y-14068529D01*
X9211119Y-14068529D02*
X9201595Y-14030434D01*
X9201595Y-14030434D02*
X9201595Y-13982815D01*
X9201595Y-13982815D02*
X9211119Y-13944720D01*
X9211119Y-13944720D02*
X9220642Y-13925672D01*
X9220642Y-13925672D02*
X9230166Y-13916149D01*
X9230166Y-13916149D02*
X9249214Y-13906625D01*
X9401595Y-14087577D02*
X9411119Y-14097101D01*
X9411119Y-14097101D02*
X9401595Y-14106625D01*
X9401595Y-14106625D02*
X9392071Y-14097101D01*
X9392071Y-14097101D02*
X9401595Y-14087577D01*
X9401595Y-14087577D02*
X9401595Y-14106625D01*
X9582547Y-13973291D02*
X9582547Y-14106625D01*
X9534928Y-13897101D02*
X9487309Y-14039958D01*
X9487309Y-14039958D02*
X9611119Y-14039958D01*
X9725404Y-13906625D02*
X9744452Y-13906625D01*
X9744452Y-13906625D02*
X9763500Y-13916149D01*
X9763500Y-13916149D02*
X9773023Y-13925672D01*
X9773023Y-13925672D02*
X9782547Y-13944720D01*
X9782547Y-13944720D02*
X9792071Y-13982815D01*
X9792071Y-13982815D02*
X9792071Y-14030434D01*
X9792071Y-14030434D02*
X9782547Y-14068529D01*
X9782547Y-14068529D02*
X9773023Y-14087577D01*
X9773023Y-14087577D02*
X9763500Y-14097101D01*
X9763500Y-14097101D02*
X9744452Y-14106625D01*
X9744452Y-14106625D02*
X9725404Y-14106625D01*
X9725404Y-14106625D02*
X9706357Y-14097101D01*
X9706357Y-14097101D02*
X9696833Y-14087577D01*
X9696833Y-14087577D02*
X9687309Y-14068529D01*
X9687309Y-14068529D02*
X9677785Y-14030434D01*
X9677785Y-14030434D02*
X9677785Y-13982815D01*
X9677785Y-13982815D02*
X9687309Y-13944720D01*
X9687309Y-13944720D02*
X9696833Y-13925672D01*
X9696833Y-13925672D02*
X9706357Y-13916149D01*
X9706357Y-13916149D02*
X9725404Y-13906625D01*
X9915880Y-13906625D02*
X9934928Y-13906625D01*
X9934928Y-13906625D02*
X9953976Y-13916149D01*
X9953976Y-13916149D02*
X9963500Y-13925672D01*
X9963500Y-13925672D02*
X9973023Y-13944720D01*
X9973023Y-13944720D02*
X9982547Y-13982815D01*
X9982547Y-13982815D02*
X9982547Y-14030434D01*
X9982547Y-14030434D02*
X9973023Y-14068529D01*
X9973023Y-14068529D02*
X9963500Y-14087577D01*
X9963500Y-14087577D02*
X9953976Y-14097101D01*
X9953976Y-14097101D02*
X9934928Y-14106625D01*
X9934928Y-14106625D02*
X9915880Y-14106625D01*
X9915880Y-14106625D02*
X9896833Y-14097101D01*
X9896833Y-14097101D02*
X9887309Y-14087577D01*
X9887309Y-14087577D02*
X9877785Y-14068529D01*
X9877785Y-14068529D02*
X9868261Y-14030434D01*
X9868261Y-14030434D02*
X9868261Y-13982815D01*
X9868261Y-13982815D02*
X9877785Y-13944720D01*
X9877785Y-13944720D02*
X9887309Y-13925672D01*
X9887309Y-13925672D02*
X9896833Y-13916149D01*
X9896833Y-13916149D02*
X9915880Y-13906625D01*
X10068261Y-14106625D02*
X10068261Y-13973291D01*
X10068261Y-13992339D02*
X10077785Y-13982815D01*
X10077785Y-13982815D02*
X10096833Y-13973291D01*
X10096833Y-13973291D02*
X10125404Y-13973291D01*
X10125404Y-13973291D02*
X10144452Y-13982815D01*
X10144452Y-13982815D02*
X10153976Y-14001863D01*
X10153976Y-14001863D02*
X10153976Y-14106625D01*
X10153976Y-14001863D02*
X10163500Y-13982815D01*
X10163500Y-13982815D02*
X10182547Y-13973291D01*
X10182547Y-13973291D02*
X10211119Y-13973291D01*
X10211119Y-13973291D02*
X10230166Y-13982815D01*
X10230166Y-13982815D02*
X10239690Y-14001863D01*
X10239690Y-14001863D02*
X10239690Y-14106625D01*
X10334928Y-14106625D02*
X10334928Y-13973291D01*
X10334928Y-13992339D02*
X10344452Y-13982815D01*
X10344452Y-13982815D02*
X10363500Y-13973291D01*
X10363500Y-13973291D02*
X10392071Y-13973291D01*
X10392071Y-13973291D02*
X10411119Y-13982815D01*
X10411119Y-13982815D02*
X10420642Y-14001863D01*
X10420642Y-14001863D02*
X10420642Y-14106625D01*
X10420642Y-14001863D02*
X10430166Y-13982815D01*
X10430166Y-13982815D02*
X10449214Y-13973291D01*
X10449214Y-13973291D02*
X10477785Y-13973291D01*
X10477785Y-13973291D02*
X10496833Y-13982815D01*
X10496833Y-13982815D02*
X10506357Y-14001863D01*
X10506357Y-14001863D02*
X10506357Y-14106625D01*
X10896833Y-13897101D02*
X10725404Y-14154244D01*
X11153976Y-13906625D02*
X11173024Y-13906625D01*
X11173024Y-13906625D02*
X11192071Y-13916149D01*
X11192071Y-13916149D02*
X11201595Y-13925672D01*
X11201595Y-13925672D02*
X11211119Y-13944720D01*
X11211119Y-13944720D02*
X11220642Y-13982815D01*
X11220642Y-13982815D02*
X11220642Y-14030434D01*
X11220642Y-14030434D02*
X11211119Y-14068529D01*
X11211119Y-14068529D02*
X11201595Y-14087577D01*
X11201595Y-14087577D02*
X11192071Y-14097101D01*
X11192071Y-14097101D02*
X11173024Y-14106625D01*
X11173024Y-14106625D02*
X11153976Y-14106625D01*
X11153976Y-14106625D02*
X11134928Y-14097101D01*
X11134928Y-14097101D02*
X11125404Y-14087577D01*
X11125404Y-14087577D02*
X11115881Y-14068529D01*
X11115881Y-14068529D02*
X11106357Y-14030434D01*
X11106357Y-14030434D02*
X11106357Y-13982815D01*
X11106357Y-13982815D02*
X11115881Y-13944720D01*
X11115881Y-13944720D02*
X11125404Y-13925672D01*
X11125404Y-13925672D02*
X11134928Y-13916149D01*
X11134928Y-13916149D02*
X11153976Y-13906625D01*
X11306357Y-14087577D02*
X11315881Y-14097101D01*
X11315881Y-14097101D02*
X11306357Y-14106625D01*
X11306357Y-14106625D02*
X11296833Y-14097101D01*
X11296833Y-14097101D02*
X11306357Y-14087577D01*
X11306357Y-14087577D02*
X11306357Y-14106625D01*
X11439690Y-13906625D02*
X11458738Y-13906625D01*
X11458738Y-13906625D02*
X11477785Y-13916149D01*
X11477785Y-13916149D02*
X11487309Y-13925672D01*
X11487309Y-13925672D02*
X11496833Y-13944720D01*
X11496833Y-13944720D02*
X11506357Y-13982815D01*
X11506357Y-13982815D02*
X11506357Y-14030434D01*
X11506357Y-14030434D02*
X11496833Y-14068529D01*
X11496833Y-14068529D02*
X11487309Y-14087577D01*
X11487309Y-14087577D02*
X11477785Y-14097101D01*
X11477785Y-14097101D02*
X11458738Y-14106625D01*
X11458738Y-14106625D02*
X11439690Y-14106625D01*
X11439690Y-14106625D02*
X11420642Y-14097101D01*
X11420642Y-14097101D02*
X11411119Y-14087577D01*
X11411119Y-14087577D02*
X11401595Y-14068529D01*
X11401595Y-14068529D02*
X11392071Y-14030434D01*
X11392071Y-14030434D02*
X11392071Y-13982815D01*
X11392071Y-13982815D02*
X11401595Y-13944720D01*
X11401595Y-13944720D02*
X11411119Y-13925672D01*
X11411119Y-13925672D02*
X11420642Y-13916149D01*
X11420642Y-13916149D02*
X11439690Y-13906625D01*
X11696833Y-14106625D02*
X11582547Y-14106625D01*
X11639690Y-14106625D02*
X11639690Y-13906625D01*
X11639690Y-13906625D02*
X11620642Y-13935196D01*
X11620642Y-13935196D02*
X11601595Y-13954244D01*
X11601595Y-13954244D02*
X11582547Y-13963768D01*
X11877785Y-13906625D02*
X11782547Y-13906625D01*
X11782547Y-13906625D02*
X11773023Y-14001863D01*
X11773023Y-14001863D02*
X11782547Y-13992339D01*
X11782547Y-13992339D02*
X11801595Y-13982815D01*
X11801595Y-13982815D02*
X11849214Y-13982815D01*
X11849214Y-13982815D02*
X11868262Y-13992339D01*
X11868262Y-13992339D02*
X11877785Y-14001863D01*
X11877785Y-14001863D02*
X11887309Y-14020910D01*
X11887309Y-14020910D02*
X11887309Y-14068529D01*
X11887309Y-14068529D02*
X11877785Y-14087577D01*
X11877785Y-14087577D02*
X11868262Y-14097101D01*
X11868262Y-14097101D02*
X11849214Y-14106625D01*
X11849214Y-14106625D02*
X11801595Y-14106625D01*
X11801595Y-14106625D02*
X11782547Y-14097101D01*
X11782547Y-14097101D02*
X11773023Y-14087577D01*
X11953976Y-13906625D02*
X12087309Y-13906625D01*
X12087309Y-13906625D02*
X12001595Y-14106625D01*
X12153976Y-13906625D02*
X12153976Y-13944720D01*
X12230166Y-13906625D02*
X12230166Y-13944720D01*
X12525405Y-14182815D02*
X12515881Y-14173291D01*
X12515881Y-14173291D02*
X12496833Y-14144720D01*
X12496833Y-14144720D02*
X12487309Y-14125672D01*
X12487309Y-14125672D02*
X12477785Y-14097101D01*
X12477785Y-14097101D02*
X12468262Y-14049482D01*
X12468262Y-14049482D02*
X12468262Y-14011387D01*
X12468262Y-14011387D02*
X12477785Y-13963768D01*
X12477785Y-13963768D02*
X12487309Y-13935196D01*
X12487309Y-13935196D02*
X12496833Y-13916149D01*
X12496833Y-13916149D02*
X12515881Y-13887577D01*
X12515881Y-13887577D02*
X12525405Y-13878053D01*
X12592071Y-13925672D02*
X12601595Y-13916149D01*
X12601595Y-13916149D02*
X12620643Y-13906625D01*
X12620643Y-13906625D02*
X12668262Y-13906625D01*
X12668262Y-13906625D02*
X12687309Y-13916149D01*
X12687309Y-13916149D02*
X12696833Y-13925672D01*
X12696833Y-13925672D02*
X12706357Y-13944720D01*
X12706357Y-13944720D02*
X12706357Y-13963768D01*
X12706357Y-13963768D02*
X12696833Y-13992339D01*
X12696833Y-13992339D02*
X12582547Y-14106625D01*
X12582547Y-14106625D02*
X12706357Y-14106625D01*
X12782547Y-13925672D02*
X12792071Y-13916149D01*
X12792071Y-13916149D02*
X12811119Y-13906625D01*
X12811119Y-13906625D02*
X12858738Y-13906625D01*
X12858738Y-13906625D02*
X12877785Y-13916149D01*
X12877785Y-13916149D02*
X12887309Y-13925672D01*
X12887309Y-13925672D02*
X12896833Y-13944720D01*
X12896833Y-13944720D02*
X12896833Y-13963768D01*
X12896833Y-13963768D02*
X12887309Y-13992339D01*
X12887309Y-13992339D02*
X12773024Y-14106625D01*
X12773024Y-14106625D02*
X12896833Y-14106625D01*
X13068262Y-13973291D02*
X13068262Y-14106625D01*
X13020643Y-13897101D02*
X12973024Y-14039958D01*
X12973024Y-14039958D02*
X13096833Y-14039958D01*
X13325405Y-14106625D02*
X13325405Y-13906625D01*
X13411119Y-14106625D02*
X13411119Y-14001863D01*
X13411119Y-14001863D02*
X13401595Y-13982815D01*
X13401595Y-13982815D02*
X13382547Y-13973291D01*
X13382547Y-13973291D02*
X13353976Y-13973291D01*
X13353976Y-13973291D02*
X13334928Y-13982815D01*
X13334928Y-13982815D02*
X13325405Y-13992339D01*
X13534928Y-14106625D02*
X13515881Y-14097101D01*
X13515881Y-14097101D02*
X13506357Y-14087577D01*
X13506357Y-14087577D02*
X13496833Y-14068529D01*
X13496833Y-14068529D02*
X13496833Y-14011387D01*
X13496833Y-14011387D02*
X13506357Y-13992339D01*
X13506357Y-13992339D02*
X13515881Y-13982815D01*
X13515881Y-13982815D02*
X13534928Y-13973291D01*
X13534928Y-13973291D02*
X13563500Y-13973291D01*
X13563500Y-13973291D02*
X13582547Y-13982815D01*
X13582547Y-13982815D02*
X13592071Y-13992339D01*
X13592071Y-13992339D02*
X13601595Y-14011387D01*
X13601595Y-14011387D02*
X13601595Y-14068529D01*
X13601595Y-14068529D02*
X13592071Y-14087577D01*
X13592071Y-14087577D02*
X13582547Y-14097101D01*
X13582547Y-14097101D02*
X13563500Y-14106625D01*
X13563500Y-14106625D02*
X13534928Y-14106625D01*
X13715881Y-14106625D02*
X13696833Y-14097101D01*
X13696833Y-14097101D02*
X13687309Y-14078053D01*
X13687309Y-14078053D02*
X13687309Y-13906625D01*
X13868262Y-14097101D02*
X13849214Y-14106625D01*
X13849214Y-14106625D02*
X13811119Y-14106625D01*
X13811119Y-14106625D02*
X13792071Y-14097101D01*
X13792071Y-14097101D02*
X13782547Y-14078053D01*
X13782547Y-14078053D02*
X13782547Y-14001863D01*
X13782547Y-14001863D02*
X13792071Y-13982815D01*
X13792071Y-13982815D02*
X13811119Y-13973291D01*
X13811119Y-13973291D02*
X13849214Y-13973291D01*
X13849214Y-13973291D02*
X13868262Y-13982815D01*
X13868262Y-13982815D02*
X13877786Y-14001863D01*
X13877786Y-14001863D02*
X13877786Y-14020910D01*
X13877786Y-14020910D02*
X13782547Y-14039958D01*
X13953976Y-14097101D02*
X13973024Y-14106625D01*
X13973024Y-14106625D02*
X14011119Y-14106625D01*
X14011119Y-14106625D02*
X14030167Y-14097101D01*
X14030167Y-14097101D02*
X14039690Y-14078053D01*
X14039690Y-14078053D02*
X14039690Y-14068529D01*
X14039690Y-14068529D02*
X14030167Y-14049482D01*
X14030167Y-14049482D02*
X14011119Y-14039958D01*
X14011119Y-14039958D02*
X13982547Y-14039958D01*
X13982547Y-14039958D02*
X13963500Y-14030434D01*
X13963500Y-14030434D02*
X13953976Y-14011387D01*
X13953976Y-14011387D02*
X13953976Y-14001863D01*
X13953976Y-14001863D02*
X13963500Y-13982815D01*
X13963500Y-13982815D02*
X13982547Y-13973291D01*
X13982547Y-13973291D02*
X14011119Y-13973291D01*
X14011119Y-13973291D02*
X14030167Y-13982815D01*
X14106357Y-14182815D02*
X14115881Y-14173291D01*
X14115881Y-14173291D02*
X14134928Y-14144720D01*
X14134928Y-14144720D02*
X14144452Y-14125672D01*
X14144452Y-14125672D02*
X14153976Y-14097101D01*
X14153976Y-14097101D02*
X14163500Y-14049482D01*
X14163500Y-14049482D02*
X14163500Y-14011387D01*
X14163500Y-14011387D02*
X14153976Y-13963768D01*
X14153976Y-13963768D02*
X14144452Y-13935196D01*
X14144452Y-13935196D02*
X14134928Y-13916149D01*
X14134928Y-13916149D02*
X14115881Y-13887577D01*
X14115881Y-13887577D02*
X14106357Y-13878053D01*
D13*
X8963500Y-14278101D02*
G75*
G03*
X8963500Y-14278101I-40000J0D01*
G01*
D11*
X9249214Y-14170625D02*
X9268261Y-14170625D01*
X9268261Y-14170625D02*
X9287309Y-14180149D01*
X9287309Y-14180149D02*
X9296833Y-14189672D01*
X9296833Y-14189672D02*
X9306357Y-14208720D01*
X9306357Y-14208720D02*
X9315880Y-14246815D01*
X9315880Y-14246815D02*
X9315880Y-14294434D01*
X9315880Y-14294434D02*
X9306357Y-14332529D01*
X9306357Y-14332529D02*
X9296833Y-14351577D01*
X9296833Y-14351577D02*
X9287309Y-14361101D01*
X9287309Y-14361101D02*
X9268261Y-14370625D01*
X9268261Y-14370625D02*
X9249214Y-14370625D01*
X9249214Y-14370625D02*
X9230166Y-14361101D01*
X9230166Y-14361101D02*
X9220642Y-14351577D01*
X9220642Y-14351577D02*
X9211119Y-14332529D01*
X9211119Y-14332529D02*
X9201595Y-14294434D01*
X9201595Y-14294434D02*
X9201595Y-14246815D01*
X9201595Y-14246815D02*
X9211119Y-14208720D01*
X9211119Y-14208720D02*
X9220642Y-14189672D01*
X9220642Y-14189672D02*
X9230166Y-14180149D01*
X9230166Y-14180149D02*
X9249214Y-14170625D01*
X9401595Y-14351577D02*
X9411119Y-14361101D01*
X9411119Y-14361101D02*
X9401595Y-14370625D01*
X9401595Y-14370625D02*
X9392071Y-14361101D01*
X9392071Y-14361101D02*
X9401595Y-14351577D01*
X9401595Y-14351577D02*
X9401595Y-14370625D01*
X9525404Y-14256339D02*
X9506357Y-14246815D01*
X9506357Y-14246815D02*
X9496833Y-14237291D01*
X9496833Y-14237291D02*
X9487309Y-14218244D01*
X9487309Y-14218244D02*
X9487309Y-14208720D01*
X9487309Y-14208720D02*
X9496833Y-14189672D01*
X9496833Y-14189672D02*
X9506357Y-14180149D01*
X9506357Y-14180149D02*
X9525404Y-14170625D01*
X9525404Y-14170625D02*
X9563500Y-14170625D01*
X9563500Y-14170625D02*
X9582547Y-14180149D01*
X9582547Y-14180149D02*
X9592071Y-14189672D01*
X9592071Y-14189672D02*
X9601595Y-14208720D01*
X9601595Y-14208720D02*
X9601595Y-14218244D01*
X9601595Y-14218244D02*
X9592071Y-14237291D01*
X9592071Y-14237291D02*
X9582547Y-14246815D01*
X9582547Y-14246815D02*
X9563500Y-14256339D01*
X9563500Y-14256339D02*
X9525404Y-14256339D01*
X9525404Y-14256339D02*
X9506357Y-14265863D01*
X9506357Y-14265863D02*
X9496833Y-14275387D01*
X9496833Y-14275387D02*
X9487309Y-14294434D01*
X9487309Y-14294434D02*
X9487309Y-14332529D01*
X9487309Y-14332529D02*
X9496833Y-14351577D01*
X9496833Y-14351577D02*
X9506357Y-14361101D01*
X9506357Y-14361101D02*
X9525404Y-14370625D01*
X9525404Y-14370625D02*
X9563500Y-14370625D01*
X9563500Y-14370625D02*
X9582547Y-14361101D01*
X9582547Y-14361101D02*
X9592071Y-14351577D01*
X9592071Y-14351577D02*
X9601595Y-14332529D01*
X9601595Y-14332529D02*
X9601595Y-14294434D01*
X9601595Y-14294434D02*
X9592071Y-14275387D01*
X9592071Y-14275387D02*
X9582547Y-14265863D01*
X9582547Y-14265863D02*
X9563500Y-14256339D01*
X9725404Y-14170625D02*
X9744452Y-14170625D01*
X9744452Y-14170625D02*
X9763500Y-14180149D01*
X9763500Y-14180149D02*
X9773023Y-14189672D01*
X9773023Y-14189672D02*
X9782547Y-14208720D01*
X9782547Y-14208720D02*
X9792071Y-14246815D01*
X9792071Y-14246815D02*
X9792071Y-14294434D01*
X9792071Y-14294434D02*
X9782547Y-14332529D01*
X9782547Y-14332529D02*
X9773023Y-14351577D01*
X9773023Y-14351577D02*
X9763500Y-14361101D01*
X9763500Y-14361101D02*
X9744452Y-14370625D01*
X9744452Y-14370625D02*
X9725404Y-14370625D01*
X9725404Y-14370625D02*
X9706357Y-14361101D01*
X9706357Y-14361101D02*
X9696833Y-14351577D01*
X9696833Y-14351577D02*
X9687309Y-14332529D01*
X9687309Y-14332529D02*
X9677785Y-14294434D01*
X9677785Y-14294434D02*
X9677785Y-14246815D01*
X9677785Y-14246815D02*
X9687309Y-14208720D01*
X9687309Y-14208720D02*
X9696833Y-14189672D01*
X9696833Y-14189672D02*
X9706357Y-14180149D01*
X9706357Y-14180149D02*
X9725404Y-14170625D01*
X9915880Y-14170625D02*
X9934928Y-14170625D01*
X9934928Y-14170625D02*
X9953976Y-14180149D01*
X9953976Y-14180149D02*
X9963500Y-14189672D01*
X9963500Y-14189672D02*
X9973023Y-14208720D01*
X9973023Y-14208720D02*
X9982547Y-14246815D01*
X9982547Y-14246815D02*
X9982547Y-14294434D01*
X9982547Y-14294434D02*
X9973023Y-14332529D01*
X9973023Y-14332529D02*
X9963500Y-14351577D01*
X9963500Y-14351577D02*
X9953976Y-14361101D01*
X9953976Y-14361101D02*
X9934928Y-14370625D01*
X9934928Y-14370625D02*
X9915880Y-14370625D01*
X9915880Y-14370625D02*
X9896833Y-14361101D01*
X9896833Y-14361101D02*
X9887309Y-14351577D01*
X9887309Y-14351577D02*
X9877785Y-14332529D01*
X9877785Y-14332529D02*
X9868261Y-14294434D01*
X9868261Y-14294434D02*
X9868261Y-14246815D01*
X9868261Y-14246815D02*
X9877785Y-14208720D01*
X9877785Y-14208720D02*
X9887309Y-14189672D01*
X9887309Y-14189672D02*
X9896833Y-14180149D01*
X9896833Y-14180149D02*
X9915880Y-14170625D01*
X10068261Y-14370625D02*
X10068261Y-14237291D01*
X10068261Y-14256339D02*
X10077785Y-14246815D01*
X10077785Y-14246815D02*
X10096833Y-14237291D01*
X10096833Y-14237291D02*
X10125404Y-14237291D01*
X10125404Y-14237291D02*
X10144452Y-14246815D01*
X10144452Y-14246815D02*
X10153976Y-14265863D01*
X10153976Y-14265863D02*
X10153976Y-14370625D01*
X10153976Y-14265863D02*
X10163500Y-14246815D01*
X10163500Y-14246815D02*
X10182547Y-14237291D01*
X10182547Y-14237291D02*
X10211119Y-14237291D01*
X10211119Y-14237291D02*
X10230166Y-14246815D01*
X10230166Y-14246815D02*
X10239690Y-14265863D01*
X10239690Y-14265863D02*
X10239690Y-14370625D01*
X10334928Y-14370625D02*
X10334928Y-14237291D01*
X10334928Y-14256339D02*
X10344452Y-14246815D01*
X10344452Y-14246815D02*
X10363500Y-14237291D01*
X10363500Y-14237291D02*
X10392071Y-14237291D01*
X10392071Y-14237291D02*
X10411119Y-14246815D01*
X10411119Y-14246815D02*
X10420642Y-14265863D01*
X10420642Y-14265863D02*
X10420642Y-14370625D01*
X10420642Y-14265863D02*
X10430166Y-14246815D01*
X10430166Y-14246815D02*
X10449214Y-14237291D01*
X10449214Y-14237291D02*
X10477785Y-14237291D01*
X10477785Y-14237291D02*
X10496833Y-14246815D01*
X10496833Y-14246815D02*
X10506357Y-14265863D01*
X10506357Y-14265863D02*
X10506357Y-14370625D01*
X10896833Y-14161101D02*
X10725404Y-14418244D01*
X11153976Y-14170625D02*
X11173024Y-14170625D01*
X11173024Y-14170625D02*
X11192071Y-14180149D01*
X11192071Y-14180149D02*
X11201595Y-14189672D01*
X11201595Y-14189672D02*
X11211119Y-14208720D01*
X11211119Y-14208720D02*
X11220642Y-14246815D01*
X11220642Y-14246815D02*
X11220642Y-14294434D01*
X11220642Y-14294434D02*
X11211119Y-14332529D01*
X11211119Y-14332529D02*
X11201595Y-14351577D01*
X11201595Y-14351577D02*
X11192071Y-14361101D01*
X11192071Y-14361101D02*
X11173024Y-14370625D01*
X11173024Y-14370625D02*
X11153976Y-14370625D01*
X11153976Y-14370625D02*
X11134928Y-14361101D01*
X11134928Y-14361101D02*
X11125404Y-14351577D01*
X11125404Y-14351577D02*
X11115881Y-14332529D01*
X11115881Y-14332529D02*
X11106357Y-14294434D01*
X11106357Y-14294434D02*
X11106357Y-14246815D01*
X11106357Y-14246815D02*
X11115881Y-14208720D01*
X11115881Y-14208720D02*
X11125404Y-14189672D01*
X11125404Y-14189672D02*
X11134928Y-14180149D01*
X11134928Y-14180149D02*
X11153976Y-14170625D01*
X11306357Y-14351577D02*
X11315881Y-14361101D01*
X11315881Y-14361101D02*
X11306357Y-14370625D01*
X11306357Y-14370625D02*
X11296833Y-14361101D01*
X11296833Y-14361101D02*
X11306357Y-14351577D01*
X11306357Y-14351577D02*
X11306357Y-14370625D01*
X11439690Y-14170625D02*
X11458738Y-14170625D01*
X11458738Y-14170625D02*
X11477785Y-14180149D01*
X11477785Y-14180149D02*
X11487309Y-14189672D01*
X11487309Y-14189672D02*
X11496833Y-14208720D01*
X11496833Y-14208720D02*
X11506357Y-14246815D01*
X11506357Y-14246815D02*
X11506357Y-14294434D01*
X11506357Y-14294434D02*
X11496833Y-14332529D01*
X11496833Y-14332529D02*
X11487309Y-14351577D01*
X11487309Y-14351577D02*
X11477785Y-14361101D01*
X11477785Y-14361101D02*
X11458738Y-14370625D01*
X11458738Y-14370625D02*
X11439690Y-14370625D01*
X11439690Y-14370625D02*
X11420642Y-14361101D01*
X11420642Y-14361101D02*
X11411119Y-14351577D01*
X11411119Y-14351577D02*
X11401595Y-14332529D01*
X11401595Y-14332529D02*
X11392071Y-14294434D01*
X11392071Y-14294434D02*
X11392071Y-14246815D01*
X11392071Y-14246815D02*
X11401595Y-14208720D01*
X11401595Y-14208720D02*
X11411119Y-14189672D01*
X11411119Y-14189672D02*
X11420642Y-14180149D01*
X11420642Y-14180149D02*
X11439690Y-14170625D01*
X11573023Y-14170625D02*
X11696833Y-14170625D01*
X11696833Y-14170625D02*
X11630166Y-14246815D01*
X11630166Y-14246815D02*
X11658738Y-14246815D01*
X11658738Y-14246815D02*
X11677785Y-14256339D01*
X11677785Y-14256339D02*
X11687309Y-14265863D01*
X11687309Y-14265863D02*
X11696833Y-14284910D01*
X11696833Y-14284910D02*
X11696833Y-14332529D01*
X11696833Y-14332529D02*
X11687309Y-14351577D01*
X11687309Y-14351577D02*
X11677785Y-14361101D01*
X11677785Y-14361101D02*
X11658738Y-14370625D01*
X11658738Y-14370625D02*
X11601595Y-14370625D01*
X11601595Y-14370625D02*
X11582547Y-14361101D01*
X11582547Y-14361101D02*
X11573023Y-14351577D01*
X11887309Y-14370625D02*
X11773023Y-14370625D01*
X11830166Y-14370625D02*
X11830166Y-14170625D01*
X11830166Y-14170625D02*
X11811119Y-14199196D01*
X11811119Y-14199196D02*
X11792071Y-14218244D01*
X11792071Y-14218244D02*
X11773023Y-14227768D01*
X12068262Y-14170625D02*
X11973023Y-14170625D01*
X11973023Y-14170625D02*
X11963500Y-14265863D01*
X11963500Y-14265863D02*
X11973023Y-14256339D01*
X11973023Y-14256339D02*
X11992071Y-14246815D01*
X11992071Y-14246815D02*
X12039690Y-14246815D01*
X12039690Y-14246815D02*
X12058738Y-14256339D01*
X12058738Y-14256339D02*
X12068262Y-14265863D01*
X12068262Y-14265863D02*
X12077785Y-14284910D01*
X12077785Y-14284910D02*
X12077785Y-14332529D01*
X12077785Y-14332529D02*
X12068262Y-14351577D01*
X12068262Y-14351577D02*
X12058738Y-14361101D01*
X12058738Y-14361101D02*
X12039690Y-14370625D01*
X12039690Y-14370625D02*
X11992071Y-14370625D01*
X11992071Y-14370625D02*
X11973023Y-14361101D01*
X11973023Y-14361101D02*
X11963500Y-14351577D01*
X12153976Y-14170625D02*
X12153976Y-14208720D01*
X12230166Y-14170625D02*
X12230166Y-14208720D01*
X12525405Y-14446815D02*
X12515881Y-14437291D01*
X12515881Y-14437291D02*
X12496833Y-14408720D01*
X12496833Y-14408720D02*
X12487309Y-14389672D01*
X12487309Y-14389672D02*
X12477785Y-14361101D01*
X12477785Y-14361101D02*
X12468262Y-14313482D01*
X12468262Y-14313482D02*
X12468262Y-14275387D01*
X12468262Y-14275387D02*
X12477785Y-14227768D01*
X12477785Y-14227768D02*
X12487309Y-14199196D01*
X12487309Y-14199196D02*
X12496833Y-14180149D01*
X12496833Y-14180149D02*
X12515881Y-14151577D01*
X12515881Y-14151577D02*
X12525405Y-14142053D01*
X12706357Y-14370625D02*
X12592071Y-14370625D01*
X12649214Y-14370625D02*
X12649214Y-14170625D01*
X12649214Y-14170625D02*
X12630166Y-14199196D01*
X12630166Y-14199196D02*
X12611119Y-14218244D01*
X12611119Y-14218244D02*
X12592071Y-14227768D01*
X12877785Y-14170625D02*
X12839690Y-14170625D01*
X12839690Y-14170625D02*
X12820643Y-14180149D01*
X12820643Y-14180149D02*
X12811119Y-14189672D01*
X12811119Y-14189672D02*
X12792071Y-14218244D01*
X12792071Y-14218244D02*
X12782547Y-14256339D01*
X12782547Y-14256339D02*
X12782547Y-14332529D01*
X12782547Y-14332529D02*
X12792071Y-14351577D01*
X12792071Y-14351577D02*
X12801595Y-14361101D01*
X12801595Y-14361101D02*
X12820643Y-14370625D01*
X12820643Y-14370625D02*
X12858738Y-14370625D01*
X12858738Y-14370625D02*
X12877785Y-14361101D01*
X12877785Y-14361101D02*
X12887309Y-14351577D01*
X12887309Y-14351577D02*
X12896833Y-14332529D01*
X12896833Y-14332529D02*
X12896833Y-14284910D01*
X12896833Y-14284910D02*
X12887309Y-14265863D01*
X12887309Y-14265863D02*
X12877785Y-14256339D01*
X12877785Y-14256339D02*
X12858738Y-14246815D01*
X12858738Y-14246815D02*
X12820643Y-14246815D01*
X12820643Y-14246815D02*
X12801595Y-14256339D01*
X12801595Y-14256339D02*
X12792071Y-14265863D01*
X12792071Y-14265863D02*
X12782547Y-14284910D01*
X13011119Y-14256339D02*
X12992071Y-14246815D01*
X12992071Y-14246815D02*
X12982547Y-14237291D01*
X12982547Y-14237291D02*
X12973024Y-14218244D01*
X12973024Y-14218244D02*
X12973024Y-14208720D01*
X12973024Y-14208720D02*
X12982547Y-14189672D01*
X12982547Y-14189672D02*
X12992071Y-14180149D01*
X12992071Y-14180149D02*
X13011119Y-14170625D01*
X13011119Y-14170625D02*
X13049214Y-14170625D01*
X13049214Y-14170625D02*
X13068262Y-14180149D01*
X13068262Y-14180149D02*
X13077785Y-14189672D01*
X13077785Y-14189672D02*
X13087309Y-14208720D01*
X13087309Y-14208720D02*
X13087309Y-14218244D01*
X13087309Y-14218244D02*
X13077785Y-14237291D01*
X13077785Y-14237291D02*
X13068262Y-14246815D01*
X13068262Y-14246815D02*
X13049214Y-14256339D01*
X13049214Y-14256339D02*
X13011119Y-14256339D01*
X13011119Y-14256339D02*
X12992071Y-14265863D01*
X12992071Y-14265863D02*
X12982547Y-14275387D01*
X12982547Y-14275387D02*
X12973024Y-14294434D01*
X12973024Y-14294434D02*
X12973024Y-14332529D01*
X12973024Y-14332529D02*
X12982547Y-14351577D01*
X12982547Y-14351577D02*
X12992071Y-14361101D01*
X12992071Y-14361101D02*
X13011119Y-14370625D01*
X13011119Y-14370625D02*
X13049214Y-14370625D01*
X13049214Y-14370625D02*
X13068262Y-14361101D01*
X13068262Y-14361101D02*
X13077785Y-14351577D01*
X13077785Y-14351577D02*
X13087309Y-14332529D01*
X13087309Y-14332529D02*
X13087309Y-14294434D01*
X13087309Y-14294434D02*
X13077785Y-14275387D01*
X13077785Y-14275387D02*
X13068262Y-14265863D01*
X13068262Y-14265863D02*
X13049214Y-14256339D01*
X13325405Y-14370625D02*
X13325405Y-14170625D01*
X13411119Y-14370625D02*
X13411119Y-14265863D01*
X13411119Y-14265863D02*
X13401595Y-14246815D01*
X13401595Y-14246815D02*
X13382547Y-14237291D01*
X13382547Y-14237291D02*
X13353976Y-14237291D01*
X13353976Y-14237291D02*
X13334928Y-14246815D01*
X13334928Y-14246815D02*
X13325405Y-14256339D01*
X13534928Y-14370625D02*
X13515881Y-14361101D01*
X13515881Y-14361101D02*
X13506357Y-14351577D01*
X13506357Y-14351577D02*
X13496833Y-14332529D01*
X13496833Y-14332529D02*
X13496833Y-14275387D01*
X13496833Y-14275387D02*
X13506357Y-14256339D01*
X13506357Y-14256339D02*
X13515881Y-14246815D01*
X13515881Y-14246815D02*
X13534928Y-14237291D01*
X13534928Y-14237291D02*
X13563500Y-14237291D01*
X13563500Y-14237291D02*
X13582547Y-14246815D01*
X13582547Y-14246815D02*
X13592071Y-14256339D01*
X13592071Y-14256339D02*
X13601595Y-14275387D01*
X13601595Y-14275387D02*
X13601595Y-14332529D01*
X13601595Y-14332529D02*
X13592071Y-14351577D01*
X13592071Y-14351577D02*
X13582547Y-14361101D01*
X13582547Y-14361101D02*
X13563500Y-14370625D01*
X13563500Y-14370625D02*
X13534928Y-14370625D01*
X13715881Y-14370625D02*
X13696833Y-14361101D01*
X13696833Y-14361101D02*
X13687309Y-14342053D01*
X13687309Y-14342053D02*
X13687309Y-14170625D01*
X13868262Y-14361101D02*
X13849214Y-14370625D01*
X13849214Y-14370625D02*
X13811119Y-14370625D01*
X13811119Y-14370625D02*
X13792071Y-14361101D01*
X13792071Y-14361101D02*
X13782547Y-14342053D01*
X13782547Y-14342053D02*
X13782547Y-14265863D01*
X13782547Y-14265863D02*
X13792071Y-14246815D01*
X13792071Y-14246815D02*
X13811119Y-14237291D01*
X13811119Y-14237291D02*
X13849214Y-14237291D01*
X13849214Y-14237291D02*
X13868262Y-14246815D01*
X13868262Y-14246815D02*
X13877786Y-14265863D01*
X13877786Y-14265863D02*
X13877786Y-14284910D01*
X13877786Y-14284910D02*
X13782547Y-14303958D01*
X13953976Y-14361101D02*
X13973024Y-14370625D01*
X13973024Y-14370625D02*
X14011119Y-14370625D01*
X14011119Y-14370625D02*
X14030167Y-14361101D01*
X14030167Y-14361101D02*
X14039690Y-14342053D01*
X14039690Y-14342053D02*
X14039690Y-14332529D01*
X14039690Y-14332529D02*
X14030167Y-14313482D01*
X14030167Y-14313482D02*
X14011119Y-14303958D01*
X14011119Y-14303958D02*
X13982547Y-14303958D01*
X13982547Y-14303958D02*
X13963500Y-14294434D01*
X13963500Y-14294434D02*
X13953976Y-14275387D01*
X13953976Y-14275387D02*
X13953976Y-14265863D01*
X13953976Y-14265863D02*
X13963500Y-14246815D01*
X13963500Y-14246815D02*
X13982547Y-14237291D01*
X13982547Y-14237291D02*
X14011119Y-14237291D01*
X14011119Y-14237291D02*
X14030167Y-14246815D01*
X14106357Y-14446815D02*
X14115881Y-14437291D01*
X14115881Y-14437291D02*
X14134928Y-14408720D01*
X14134928Y-14408720D02*
X14144452Y-14389672D01*
X14144452Y-14389672D02*
X14153976Y-14361101D01*
X14153976Y-14361101D02*
X14163500Y-14313482D01*
X14163500Y-14313482D02*
X14163500Y-14275387D01*
X14163500Y-14275387D02*
X14153976Y-14227768D01*
X14153976Y-14227768D02*
X14144452Y-14199196D01*
X14144452Y-14199196D02*
X14134928Y-14180149D01*
X14134928Y-14180149D02*
X14115881Y-14151577D01*
X14115881Y-14151577D02*
X14106357Y-14142053D01*
M02*
