M48
; DRILL file {KiCad 7.0.1} date Sun Mar 19 20:13:45 2023
; FORMAT={-:-/ absolute / metric / decimal}
; #@! TF.CreationDate,2023-03-19T20:13:45+09:00
; #@! TF.GenerationSoftware,Kicad,Pcbnew,7.0.1
; #@! TF.FileFunction,Plated,1,2,PTH
FMAT,2
METRIC
; #@! TA.AperFunction,Plated,PTH,ViaDrill
T1C0.400
; #@! TA.AperFunction,Plated,PTH,ComponentDrill
T2C0.800
%
G90
G05
T1
X93.98Y-78.74
X93.98Y-81.28
X93.98Y-88.9
X93.98Y-91.44
X93.98Y-93.98
X93.98Y-96.52
X93.98Y-99.06
X93.98Y-101.6
X93.98Y-104.14
X93.98Y-106.68
X96.52Y-78.74
X96.52Y-81.28
X96.52Y-88.9
X96.52Y-91.44
X96.52Y-93.98
X96.52Y-96.52
X96.52Y-99.06
X96.52Y-101.6
X96.52Y-104.14
X96.52Y-106.68
X99.06Y-78.74
X99.06Y-81.28
X99.06Y-88.9
X99.06Y-91.44
X101.6Y-78.74
X101.6Y-81.28
X101.6Y-119.38
X104.14Y-78.74
X104.14Y-81.28
X104.14Y-111.76
X104.14Y-114.3
X104.14Y-116.84
X104.214Y-120.324
X106.68Y-78.74
X106.68Y-81.28
X108.116Y-110.615
X108.194Y-120.488
X109.22Y-111.76
X110.422Y-110.558
X112.461Y-120.57
X114.3Y-81.28
X114.3Y-111.76
X115.706Y-120.979
X119.38Y-76.2
X119.38Y-111.76
X119.38Y-114.3
X119.38Y-116.84
X121.319Y-85.635
X121.353Y-82.346
X121.92Y-111.76
X121.92Y-114.3
X121.92Y-116.84
X124.123Y-82.399
X124.426Y-87.597
X124.46Y-78.74
X124.46Y-86.36
X124.46Y-111.76
X124.46Y-114.3
X124.46Y-116.84
X124.49Y-75.022
X125.702Y-113.462
X125.719Y-122.729
X125.868Y-86.362
X125.868Y-87.649
X126.669Y-119.38
X127.0Y-114.3
X127.0Y-115.497
X127.0Y-116.84
X127.481Y-85.635
X128.157Y-87.219
X128.38Y-119.336
X128.38Y-122.755
X129.107Y-75.022
X129.449Y-120.086
X129.828Y-117.703
X129.847Y-110.173
X129.858Y-114.38
X129.864Y-113.158
X129.869Y-115.754
X129.881Y-111.606
X131.178Y-122.759
X131.924Y-120.826
X132.193Y-110.132
X133.851Y-122.982
X133.922Y-118.473
X134.002Y-75.022
X134.62Y-86.36
X134.62Y-88.9
X134.62Y-110.177
X134.643Y-106.067
X134.646Y-119.478
X135.869Y-112.132
X135.869Y-113.753
X135.918Y-108.448
X136.144Y-104.608
X136.144Y-105.722
X137.16Y-78.74
X137.16Y-82.622
X137.16Y-88.9
X138.179Y-118.473
X138.363Y-85.349
X139.311Y-120.066
X139.491Y-82.608
X139.614Y-103.063
X139.631Y-93.686
X139.7Y-73.66
X139.892Y-108.337
X139.956Y-111.868
X140.431Y-113.274
X140.534Y-97.265
X140.921Y-88.826
X140.944Y-87.597
X141.264Y-114.217
X141.607Y-82.767
X141.864Y-99.447
X142.201Y-75.612
X142.24Y-71.12
X142.24Y-73.562
X142.24Y-78.74
X142.24Y-79.895
X142.24Y-96.54
X142.287Y-83.402
X142.517Y-115.536
X142.647Y-100.312
X142.944Y-82.789
X142.951Y-87.59
X143.411Y-99.512
X143.486Y-116.467
X143.486Y-122.263
X143.49Y-92.257
X144.212Y-98.421
X144.248Y-110.234
X145.144Y-120.089
X145.66Y-72.361
X147.32Y-93.98
X148.05Y-118.475
X148.18Y-79.425
X148.208Y-72.361
X148.22Y-115.677
X148.439Y-121.738
X149.489Y-81.655
X149.546Y-99.785
X149.827Y-120.282
X149.86Y-83.82
X149.86Y-88.9
X149.86Y-91.44
X149.86Y-93.98
X150.35Y-117.773
X151.267Y-118.689
X151.93Y-114.697
X152.213Y-103.122
X152.213Y-104.732
X153.056Y-111.851
X155.741Y-121.92
X156.013Y-72.361
X157.48Y-78.74
X157.48Y-86.36
X157.48Y-88.9
X157.48Y-91.44
X157.48Y-99.06
X158.409Y-120.629
X159.324Y-121.92
X159.676Y-72.361
X160.02Y-96.52
X160.161Y-120.632
X161.155Y-119.471
X161.176Y-103.581
X161.428Y-86.456
X162.234Y-111.851
X162.56Y-76.2
X162.56Y-78.74
X163.748Y-85.151
X163.944Y-114.7
X164.034Y-118.225
X164.935Y-85.173
X165.1Y-76.2
X165.1Y-78.74
X165.1Y-99.06
X166.711Y-120.586
X168.915Y-112.281
X169.203Y-121.129
X170.18Y-81.28
X170.18Y-83.82
X170.18Y-99.06
X170.18Y-101.6
X170.18Y-104.14
X170.18Y-106.68
X171.106Y-87.963
X171.106Y-90.154
X171.176Y-92.344
X171.489Y-112.252
X172.72Y-76.2
X177.8Y-76.2
X177.8Y-78.74
X177.8Y-81.28
X177.8Y-83.82
X177.8Y-86.36
X177.8Y-114.3
X177.8Y-116.84
X177.8Y-119.38
X180.34Y-76.2
X180.34Y-78.74
X180.34Y-81.28
X180.34Y-83.82
X180.34Y-86.36
X180.34Y-114.3
X180.34Y-116.84
X180.34Y-119.38
X182.88Y-76.2
X182.88Y-78.74
X182.88Y-81.28
X182.88Y-83.82
X182.88Y-86.36
X182.88Y-114.3
X182.88Y-116.84
X182.88Y-119.38
X185.42Y-76.2
X185.42Y-78.74
X185.42Y-81.28
X185.42Y-83.82
X185.42Y-86.36
X185.42Y-114.3
X185.42Y-116.84
X185.42Y-119.38
T2
X101.993Y-92.946
X101.993Y-95.486
X101.993Y-98.026
X101.993Y-100.566
X101.993Y-103.106
X104.533Y-90.406
X104.533Y-92.946
X104.533Y-95.486
X104.533Y-98.026
X104.533Y-100.566
X104.533Y-103.106
X104.533Y-105.646
X107.073Y-90.406
X107.073Y-92.946
X107.073Y-103.106
X107.073Y-105.646
X108.343Y-115.806
X108.343Y-118.306
X109.613Y-90.406
X109.613Y-92.946
X109.613Y-103.106
X109.613Y-105.646
X110.883Y-85.326
X112.153Y-90.406
X112.153Y-92.946
X112.153Y-95.486
X112.153Y-98.026
X112.153Y-100.566
X112.153Y-103.106
X112.153Y-105.646
X113.423Y-72.626
X113.423Y-77.626
X114.693Y-92.946
X114.693Y-95.486
X114.693Y-98.026
X114.693Y-100.566
X114.693Y-103.106
X115.883Y-85.326
X118.503Y-72.626
X118.503Y-80.246
X121.043Y-72.626
X121.043Y-80.246
X122.313Y-92.946
X122.313Y-95.486
X122.313Y-98.026
X122.313Y-100.566
X122.313Y-103.106
X123.583Y-72.626
X123.583Y-80.246
X124.853Y-90.406
X124.853Y-92.946
X124.853Y-95.486
X124.853Y-98.026
X124.853Y-100.566
X124.853Y-103.106
X124.853Y-105.646
X126.123Y-72.626
X126.123Y-80.246
X127.393Y-90.406
X127.393Y-92.946
X127.393Y-103.106
X127.393Y-105.646
X128.663Y-72.626
X128.663Y-80.246
X129.933Y-90.406
X129.933Y-92.946
X129.933Y-103.106
X129.933Y-105.646
X131.203Y-72.626
X131.203Y-80.246
X131.283Y-85.326
X132.473Y-90.406
X132.473Y-92.946
X132.473Y-95.486
X132.473Y-98.026
X132.473Y-100.566
X132.473Y-103.106
X132.473Y-105.646
X133.743Y-72.626
X133.743Y-80.246
X135.013Y-92.946
X135.013Y-95.486
X135.013Y-98.026
X135.013Y-100.566
X135.013Y-103.106
X136.283Y-72.626
X136.283Y-80.246
X136.283Y-85.326
X142.289Y-85.49
X142.289Y-90.49
X146.443Y-75.161
X146.443Y-77.701
X146.443Y-80.241
X146.443Y-82.781
X146.443Y-85.321
X146.443Y-87.861
X146.443Y-90.401
X146.443Y-100.566
X146.443Y-103.106
X146.443Y-105.646
X146.443Y-108.186
X146.443Y-110.726
X146.443Y-113.266
X146.443Y-115.806
X146.443Y-118.346
X148.983Y-95.486
X153.983Y-95.486
X154.063Y-75.161
X154.063Y-77.701
X154.063Y-80.241
X154.063Y-82.781
X154.063Y-85.321
X154.063Y-87.861
X154.063Y-90.401
X154.063Y-100.566
X154.063Y-103.106
X154.063Y-105.646
X154.063Y-108.186
X154.063Y-110.726
X154.063Y-113.266
X154.063Y-115.806
X154.063Y-118.346
X159.143Y-75.166
X159.143Y-77.706
X159.143Y-80.246
X159.143Y-82.786
X159.143Y-85.326
X159.143Y-87.866
X159.143Y-90.406
X159.143Y-100.566
X159.143Y-103.106
X159.143Y-105.646
X159.143Y-108.186
X159.143Y-110.726
X159.143Y-113.266
X159.143Y-115.806
X159.143Y-118.346
X161.763Y-95.486
X166.763Y-75.166
X166.763Y-77.706
X166.763Y-80.246
X166.763Y-82.786
X166.763Y-85.326
X166.763Y-87.866
X166.763Y-90.406
X166.763Y-95.486
X166.763Y-100.566
X166.763Y-103.106
X166.763Y-105.646
X166.763Y-108.186
X166.763Y-110.726
X166.763Y-113.266
X166.763Y-115.806
X166.763Y-118.346
X170.671Y-74.59
X170.671Y-79.59
X173.705Y-90.545
X173.705Y-94.595
X173.705Y-98.645
X173.705Y-102.695
X173.705Y-106.745
X173.705Y-110.795
X183.865Y-90.545
X183.865Y-94.595
X183.865Y-98.645
X183.865Y-102.695
X183.865Y-106.745
X183.865Y-110.795
T0
M30
