%TF.GenerationSoftware,KiCad,Pcbnew,7.0.1*%
%TF.CreationDate,2023-03-19T20:13:41+09:00*%
%TF.ProjectId,project2,70726f6a-6563-4743-922e-6b696361645f,rev?*%
%TF.SameCoordinates,Original*%
%TF.FileFunction,Copper,L2,Bot*%
%TF.FilePolarity,Positive*%
%FSLAX46Y46*%
G04 Gerber Fmt 4.6, Leading zero omitted, Abs format (unit mm)*
G04 Created by KiCad (PCBNEW 7.0.1) date 2023-03-19 20:13:41*
%MOMM*%
%LPD*%
G01*
G04 APERTURE LIST*
%TA.AperFunction,ComponentPad*%
%ADD10O,1.600000X1.600000*%
%TD*%
%TA.AperFunction,ComponentPad*%
%ADD11C,1.600000*%
%TD*%
%TA.AperFunction,ComponentPad*%
%ADD12R,1.600000X1.600000*%
%TD*%
%TA.AperFunction,ComponentPad*%
%ADD13R,1.422400X1.422400*%
%TD*%
%TA.AperFunction,ComponentPad*%
%ADD14C,1.422400*%
%TD*%
%TA.AperFunction,ConnectorPad*%
%ADD15R,1.700000X8.000000*%
%TD*%
%TA.AperFunction,ViaPad*%
%ADD16C,0.800000*%
%TD*%
%TA.AperFunction,Conductor*%
%ADD17C,0.250000*%
%TD*%
%TA.AperFunction,Conductor*%
%ADD18C,0.800000*%
%TD*%
G04 APERTURE END LIST*
D10*
%TO.P,R1,2*%
%TO.N,/MA13*%
X173705464Y-110794972D03*
D11*
%TO.P,R1,1*%
%TO.N,GND*%
X183865464Y-110794972D03*
%TD*%
D12*
%TO.P,U3,1*%
%TO.N,/{slash}WR*%
X146442867Y-75161140D03*
D10*
%TO.P,U3,2*%
%TO.N,/{slash}SLTSL*%
X146442867Y-77701140D03*
%TO.P,U3,3*%
%TO.N,Net-(U5-~{Ew})*%
X146442867Y-80241140D03*
%TO.P,U3,4*%
%TO.N,/A15*%
X146442867Y-82781140D03*
%TO.P,U3,5*%
%TO.N,/A13*%
X146442867Y-85321140D03*
%TO.P,U3,6*%
%TO.N,Net-(U3-Pad6)*%
X146442867Y-87861140D03*
%TO.P,U3,7,GND*%
%TO.N,GND*%
X146442867Y-90401140D03*
%TO.P,U3,8*%
%TO.N,N/C*%
X154062867Y-90401140D03*
%TO.P,U3,9*%
X154062867Y-87861140D03*
%TO.P,U3,10*%
X154062867Y-85321140D03*
%TO.P,U3,11*%
X154062867Y-82781140D03*
%TO.P,U3,12*%
X154062867Y-80241140D03*
%TO.P,U3,13*%
X154062867Y-77701140D03*
%TO.P,U3,14,VCC*%
%TO.N,+5V*%
X154062867Y-75161140D03*
%TD*%
D13*
%TO.P,U1,1,NC*%
%TO.N,unconnected-(U1-NC-Pad1)*%
X109612867Y-92946140D03*
D14*
%TO.P,U1,2,A16*%
%TO.N,/MA16*%
X107072867Y-90406140D03*
%TO.P,U1,3,A15*%
%TO.N,/MA15*%
X107072867Y-92946140D03*
%TO.P,U1,4,A12*%
%TO.N,/A12*%
X104532867Y-90406140D03*
%TO.P,U1,5,A7*%
%TO.N,/A7*%
X101992867Y-92946140D03*
%TO.P,U1,6,A6*%
%TO.N,/A6*%
X104532867Y-92946140D03*
%TO.P,U1,7,A5*%
%TO.N,/A5*%
X101992867Y-95486140D03*
%TO.P,U1,8,A4*%
%TO.N,/A4*%
X104532867Y-95486140D03*
%TO.P,U1,9,A3*%
%TO.N,/A3*%
X101992867Y-98026140D03*
%TO.P,U1,10,A2*%
%TO.N,/A2*%
X104532867Y-98026140D03*
%TO.P,U1,11,A1*%
%TO.N,/A1*%
X101992867Y-100566140D03*
%TO.P,U1,12,A0*%
%TO.N,/A0*%
X104532867Y-100566140D03*
%TO.P,U1,13,D0*%
%TO.N,/D0*%
X101992867Y-103106140D03*
%TO.P,U1,14,D1*%
%TO.N,/D1*%
X104532867Y-105646140D03*
%TO.P,U1,15,D2*%
%TO.N,/D2*%
X104532867Y-103106140D03*
%TO.P,U1,16,GND*%
%TO.N,GND*%
X107072867Y-105646140D03*
%TO.P,U1,17,D3*%
%TO.N,/D3*%
X107072867Y-103106140D03*
%TO.P,U1,18,D4*%
%TO.N,/D4*%
X109612867Y-105646140D03*
%TO.P,U1,19,D5*%
%TO.N,/D5*%
X109612867Y-103106140D03*
%TO.P,U1,20,D6*%
%TO.N,/D6*%
X112152867Y-105646140D03*
%TO.P,U1,21,D7*%
%TO.N,/D7*%
X114692867Y-103106140D03*
%TO.P,U1,22,~{CE}*%
%TO.N,/ROM_CE2*%
X112152867Y-103106140D03*
%TO.P,U1,23,A10*%
%TO.N,/A10*%
X114692867Y-100566140D03*
%TO.P,U1,24,~{OE}*%
%TO.N,/{slash}RD*%
X112152867Y-100566140D03*
%TO.P,U1,25,A11*%
%TO.N,/A11*%
X114692867Y-98026140D03*
%TO.P,U1,26,A9*%
%TO.N,/A9*%
X112152867Y-98026140D03*
%TO.P,U1,27,A8*%
%TO.N,/A8*%
X114692867Y-95486140D03*
%TO.P,U1,28,A13*%
%TO.N,/MA13*%
X112152867Y-95486140D03*
%TO.P,U1,29,A14*%
%TO.N,/MA14*%
X114692867Y-92946140D03*
%TO.P,U1,30,A17*%
%TO.N,/MA17*%
X112152867Y-90406140D03*
%TO.P,U1,31,~{PGM}*%
%TO.N,+5V*%
X112152867Y-92946140D03*
%TO.P,U1,32,VCC*%
X109612867Y-90406140D03*
%TD*%
D11*
%TO.P,R4,1*%
%TO.N,GND*%
X183865464Y-98644972D03*
D10*
%TO.P,R4,2*%
%TO.N,/MA16*%
X173705464Y-98644972D03*
%TD*%
D11*
%TO.P,C1,1*%
%TO.N,+5V*%
X110882867Y-85326140D03*
%TO.P,C1,2*%
%TO.N,GND*%
X115882867Y-85326140D03*
%TD*%
%TO.P,C6,1*%
%TO.N,+5V*%
X142288788Y-85489617D03*
%TO.P,C6,2*%
%TO.N,GND*%
X142288788Y-90489617D03*
%TD*%
%TO.P,C8,1*%
%TO.N,+5V*%
X113422867Y-72626140D03*
%TO.P,C8,2*%
%TO.N,GND*%
X113422867Y-77626140D03*
%TD*%
%TO.P,R3,1*%
%TO.N,GND*%
X183865464Y-102694972D03*
D10*
%TO.P,R3,2*%
%TO.N,/MA15*%
X173705464Y-102694972D03*
%TD*%
D12*
%TO.P,U5,1,D2*%
%TO.N,/D2*%
X146442867Y-100566140D03*
D10*
%TO.P,U5,2,D3*%
%TO.N,/D1*%
X146442867Y-103106140D03*
%TO.P,U5,3,D4*%
%TO.N,/D0*%
X146442867Y-105646140D03*
%TO.P,U5,4,Rb*%
%TO.N,/A13*%
X146442867Y-108186140D03*
%TO.P,U5,5,Ra*%
%TO.N,/A15*%
X146442867Y-110726140D03*
%TO.P,U5,6,Q4*%
%TO.N,/MA13*%
X146442867Y-113266140D03*
%TO.P,U5,7,Q3*%
%TO.N,/MA14*%
X146442867Y-115806140D03*
%TO.P,U5,8,GND*%
%TO.N,GND*%
X146442867Y-118346140D03*
%TO.P,U5,9,Q2*%
%TO.N,/MA15*%
X154062867Y-118346140D03*
%TO.P,U5,10,Q1*%
%TO.N,/MA16*%
X154062867Y-115806140D03*
%TO.P,U5,11,~{Er}*%
%TO.N,Net-(U5-~{Er})*%
X154062867Y-113266140D03*
%TO.P,U5,12,~{Ew}*%
%TO.N,Net-(U5-~{Ew})*%
X154062867Y-110726140D03*
%TO.P,U5,13,Wb*%
%TO.N,/A13*%
X154062867Y-108186140D03*
%TO.P,U5,14,Wa*%
%TO.N,/A15*%
X154062867Y-105646140D03*
%TO.P,U5,15,D1*%
%TO.N,/D3*%
X154062867Y-103106140D03*
%TO.P,U5,16,VCC*%
%TO.N,+5V*%
X154062867Y-100566140D03*
%TD*%
D11*
%TO.P,R6,1*%
%TO.N,GND*%
X183865464Y-90544972D03*
D10*
%TO.P,R6,2*%
%TO.N,/MA17*%
X173705464Y-90544972D03*
%TD*%
D13*
%TO.P,U2,1,NC*%
%TO.N,unconnected-(U2-NC-Pad1)*%
X129932867Y-92946140D03*
D14*
%TO.P,U2,2,A16*%
%TO.N,/MA16*%
X127392867Y-90406140D03*
%TO.P,U2,3,A15*%
%TO.N,/MA15*%
X127392867Y-92946140D03*
%TO.P,U2,4,A12*%
%TO.N,/A12*%
X124852867Y-90406140D03*
%TO.P,U2,5,A7*%
%TO.N,/A7*%
X122312867Y-92946140D03*
%TO.P,U2,6,A6*%
%TO.N,/A6*%
X124852867Y-92946140D03*
%TO.P,U2,7,A5*%
%TO.N,/A5*%
X122312867Y-95486140D03*
%TO.P,U2,8,A4*%
%TO.N,/A4*%
X124852867Y-95486140D03*
%TO.P,U2,9,A3*%
%TO.N,/A3*%
X122312867Y-98026140D03*
%TO.P,U2,10,A2*%
%TO.N,/A2*%
X124852867Y-98026140D03*
%TO.P,U2,11,A1*%
%TO.N,/A1*%
X122312867Y-100566140D03*
%TO.P,U2,12,A0*%
%TO.N,/A0*%
X124852867Y-100566140D03*
%TO.P,U2,13,D0*%
%TO.N,/D0*%
X122312867Y-103106140D03*
%TO.P,U2,14,D1*%
%TO.N,/D1*%
X124852867Y-105646140D03*
%TO.P,U2,15,D2*%
%TO.N,/D2*%
X124852867Y-103106140D03*
%TO.P,U2,16,GND*%
%TO.N,GND*%
X127392867Y-105646140D03*
%TO.P,U2,17,D3*%
%TO.N,/D3*%
X127392867Y-103106140D03*
%TO.P,U2,18,D4*%
%TO.N,/D4*%
X129932867Y-105646140D03*
%TO.P,U2,19,D5*%
%TO.N,/D5*%
X129932867Y-103106140D03*
%TO.P,U2,20,D6*%
%TO.N,/D6*%
X132472867Y-105646140D03*
%TO.P,U2,21,D7*%
%TO.N,/D7*%
X135012867Y-103106140D03*
%TO.P,U2,22,~{CE}*%
%TO.N,/ROM_CE1*%
X132472867Y-103106140D03*
%TO.P,U2,23,A10*%
%TO.N,/A10*%
X135012867Y-100566140D03*
%TO.P,U2,24,~{OE}*%
%TO.N,/{slash}RD*%
X132472867Y-100566140D03*
%TO.P,U2,25,A11*%
%TO.N,/A11*%
X135012867Y-98026140D03*
%TO.P,U2,26,A9*%
%TO.N,/A9*%
X132472867Y-98026140D03*
%TO.P,U2,27,A8*%
%TO.N,/A8*%
X135012867Y-95486140D03*
%TO.P,U2,28,A13*%
%TO.N,/MA13*%
X132472867Y-95486140D03*
%TO.P,U2,29,A14*%
%TO.N,/MA14*%
X135012867Y-92946140D03*
%TO.P,U2,30,A17*%
%TO.N,/MA17*%
X132472867Y-90406140D03*
%TO.P,U2,31,~{PGM}*%
%TO.N,+5V*%
X132472867Y-92946140D03*
%TO.P,U2,32,VCC*%
X129932867Y-90406140D03*
%TD*%
D12*
%TO.P,U4,1*%
%TO.N,Net-(U3-Pad6)*%
X159142867Y-75166140D03*
D10*
%TO.P,U4,2*%
%TO.N,Net-(U5-~{Er})*%
X159142867Y-77706140D03*
%TO.P,U4,3*%
%TO.N,N/C*%
X159142867Y-80246140D03*
%TO.P,U4,4*%
X159142867Y-82786140D03*
%TO.P,U4,5*%
X159142867Y-85326140D03*
%TO.P,U4,6*%
X159142867Y-87866140D03*
%TO.P,U4,7,GND*%
%TO.N,GND*%
X159142867Y-90406140D03*
%TO.P,U4,8*%
%TO.N,N/C*%
X166762867Y-90406140D03*
%TO.P,U4,9*%
X166762867Y-87866140D03*
%TO.P,U4,10*%
X166762867Y-85326140D03*
%TO.P,U4,11*%
X166762867Y-82786140D03*
%TO.P,U4,12*%
X166762867Y-80246140D03*
%TO.P,U4,13*%
X166762867Y-77706140D03*
%TO.P,U4,14,VCC*%
%TO.N,+5V*%
X166762867Y-75166140D03*
%TD*%
D11*
%TO.P,C5,1*%
%TO.N,+5V*%
X166762867Y-95486140D03*
%TO.P,C5,2*%
%TO.N,GND*%
X161762867Y-95486140D03*
%TD*%
%TO.P,C7,1*%
%TO.N,+5V*%
X170671162Y-74590350D03*
%TO.P,C7,2*%
%TO.N,GND*%
X170671162Y-79590350D03*
%TD*%
D12*
%TO.P,U6,1,E*%
%TO.N,/{slash}SLTSL*%
X118502867Y-80246140D03*
D10*
%TO.P,U6,2,A0*%
%TO.N,Net-(U6A-A0)*%
X121042867Y-80246140D03*
%TO.P,U6,3,A1*%
%TO.N,GND*%
X123582867Y-80246140D03*
%TO.P,U6,4,O0*%
%TO.N,/ROM_CE1*%
X126122867Y-80246140D03*
%TO.P,U6,5,O1*%
%TO.N,/ROM_CE2*%
X128662867Y-80246140D03*
%TO.P,U6,6,O2*%
%TO.N,unconnected-(U6A-O2-Pad6)*%
X131202867Y-80246140D03*
%TO.P,U6,7,O3*%
%TO.N,unconnected-(U6A-O3-Pad7)*%
X133742867Y-80246140D03*
%TO.P,U6,8,GND*%
%TO.N,GND*%
X136282867Y-80246140D03*
%TO.P,U6,9*%
%TO.N,N/C*%
X136282867Y-72626140D03*
%TO.P,U6,10*%
X133742867Y-72626140D03*
%TO.P,U6,11*%
X131202867Y-72626140D03*
%TO.P,U6,12*%
X128662867Y-72626140D03*
%TO.P,U6,13*%
X126122867Y-72626140D03*
%TO.P,U6,14*%
X123582867Y-72626140D03*
%TO.P,U6,15*%
X121042867Y-72626140D03*
%TO.P,U6,16,VCC*%
%TO.N,+5V*%
X118502867Y-72626140D03*
%TD*%
D12*
%TO.P,U7,1,D2*%
%TO.N,/D5*%
X159142867Y-100566140D03*
D10*
%TO.P,U7,2,D3*%
%TO.N,unconnected-(U7-D3-Pad2)*%
X159142867Y-103106140D03*
%TO.P,U7,3,D4*%
%TO.N,unconnected-(U7-D4-Pad3)*%
X159142867Y-105646140D03*
%TO.P,U7,4,Rb*%
%TO.N,/A13*%
X159142867Y-108186140D03*
%TO.P,U7,5,Ra*%
%TO.N,/A15*%
X159142867Y-110726140D03*
%TO.P,U7,6,Q4*%
%TO.N,unconnected-(U7-Q4-Pad6)*%
X159142867Y-113266140D03*
%TO.P,U7,7,Q3*%
%TO.N,unconnected-(U7-Q3-Pad7)*%
X159142867Y-115806140D03*
%TO.P,U7,8,GND*%
%TO.N,GND*%
X159142867Y-118346140D03*
%TO.P,U7,9,Q2*%
%TO.N,Net-(U6A-A0)*%
X166762867Y-118346140D03*
%TO.P,U7,10,Q1*%
%TO.N,/MA17*%
X166762867Y-115806140D03*
%TO.P,U7,11,~{Er}*%
%TO.N,Net-(U5-~{Er})*%
X166762867Y-113266140D03*
%TO.P,U7,12,~{Ew}*%
%TO.N,Net-(U5-~{Ew})*%
X166762867Y-110726140D03*
%TO.P,U7,13,Wb*%
%TO.N,/A13*%
X166762867Y-108186140D03*
%TO.P,U7,14,Wa*%
%TO.N,/A15*%
X166762867Y-105646140D03*
%TO.P,U7,15,D1*%
%TO.N,/D4*%
X166762867Y-103106140D03*
%TO.P,U7,16,VCC*%
%TO.N,+5V*%
X166762867Y-100566140D03*
%TD*%
D11*
%TO.P,C2,1*%
%TO.N,+5V*%
X131282867Y-85326140D03*
%TO.P,C2,2*%
%TO.N,GND*%
X136282867Y-85326140D03*
%TD*%
D12*
%TO.P,C4,1*%
%TO.N,+5V*%
X108342867Y-118306140D03*
D11*
%TO.P,C4,2*%
%TO.N,GND*%
X108342867Y-115806140D03*
%TD*%
%TO.P,R5,1*%
%TO.N,GND*%
X183865464Y-94594972D03*
D10*
%TO.P,R5,2*%
%TO.N,Net-(U6A-A0)*%
X173705464Y-94594972D03*
%TD*%
D11*
%TO.P,R2,1*%
%TO.N,GND*%
X183865464Y-106744972D03*
D10*
%TO.P,R2,2*%
%TO.N,/MA14*%
X173705464Y-106744972D03*
%TD*%
D11*
%TO.P,C3,1*%
%TO.N,+5V*%
X153982867Y-95486140D03*
%TO.P,C3,2*%
%TO.N,GND*%
X148982867Y-95486140D03*
%TD*%
D15*
%TO.P,CE1,1,~{CS1}*%
%TO.N,unconnected-(CE1-~{CS1}-Pad1)*%
X175532707Y-128863580D03*
%TO.P,CE1,3,~{CS12}*%
%TO.N,unconnected-(CE1-~{CS12}-Pad3)*%
X172992707Y-128863580D03*
%TO.P,CE1,5,N.C.*%
%TO.N,unconnected-(CE1-N.C.-Pad5)*%
X170452707Y-128863580D03*
%TO.P,CE1,7,~{WAIT}*%
%TO.N,unconnected-(CE1-~{WAIT}-Pad7)*%
X167912707Y-128863580D03*
%TO.P,CE1,9,~{M1}*%
%TO.N,unconnected-(CE1-~{M1}-Pad9)*%
X165372707Y-128863580D03*
%TO.P,CE1,11,~{IORQ}*%
%TO.N,unconnected-(CE1-~{IORQ}-Pad11)*%
X162832707Y-128863580D03*
%TO.P,CE1,13,~{WR}*%
%TO.N,/{slash}WR*%
X160292707Y-128863580D03*
%TO.P,CE1,15,~{RESET}*%
%TO.N,unconnected-(CE1-~{RESET}-Pad15)*%
X157752707Y-128863580D03*
%TO.P,CE1,17,A9*%
%TO.N,/A9*%
X155212707Y-128863580D03*
%TO.P,CE1,19,A11*%
%TO.N,/A11*%
X152672707Y-128863580D03*
%TO.P,CE1,21,A7*%
%TO.N,/A7*%
X150132707Y-128863580D03*
%TO.P,CE1,23,A12*%
%TO.N,/A12*%
X147592707Y-128863580D03*
%TO.P,CE1,25,A14*%
%TO.N,unconnected-(CE1-A14-Pad25)*%
X145052707Y-128863580D03*
%TO.P,CE1,27,A1*%
%TO.N,/A1*%
X142512707Y-128863580D03*
%TO.P,CE1,29,A3*%
%TO.N,/A3*%
X139972707Y-128863580D03*
%TO.P,CE1,31,A5*%
%TO.N,/A5*%
X137432707Y-128863580D03*
%TO.P,CE1,33,D1*%
%TO.N,/D1*%
X134892707Y-128863580D03*
%TO.P,CE1,35,D3*%
%TO.N,/D3*%
X132352707Y-128863580D03*
%TO.P,CE1,37,D5*%
%TO.N,/D5*%
X129812707Y-128863580D03*
%TO.P,CE1,39,D7*%
%TO.N,/D7*%
X127272707Y-128863580D03*
%TO.P,CE1,41,GND*%
%TO.N,GND*%
X124732707Y-128863580D03*
%TO.P,CE1,43,GND*%
X122192707Y-128863580D03*
%TO.P,CE1,45,+5V*%
%TO.N,+5V*%
X119652707Y-128863580D03*
%TO.P,CE1,47,+5V*%
X117112707Y-128863580D03*
%TO.P,CE1,49,SNDOUT*%
%TO.N,unconnected-(CE1-SNDOUT-Pad49)*%
X114572707Y-128863580D03*
%TD*%
D16*
%TO.N,+5V*%
X115706453Y-120978689D03*
%TO.N,GND*%
X182880000Y-81280000D03*
X104140000Y-111760000D03*
X180340000Y-86360000D03*
X124460000Y-86360000D03*
X104140000Y-78740000D03*
X185420000Y-78740000D03*
X157480000Y-86360000D03*
X96520000Y-81280000D03*
X160160530Y-120632128D03*
X185420000Y-83820000D03*
X124460000Y-114300000D03*
X177800000Y-119380000D03*
X142943834Y-82788920D03*
X151266660Y-118689450D03*
X162560000Y-78740000D03*
X182880000Y-116840000D03*
X177800000Y-83820000D03*
X177800000Y-86360000D03*
X119380000Y-76200000D03*
X127000000Y-114300000D03*
X112461467Y-120569905D03*
X93980000Y-93980000D03*
X142200543Y-75611643D03*
X139700000Y-73660000D03*
X96520000Y-78740000D03*
X182880000Y-86360000D03*
X148220201Y-115677090D03*
X185420000Y-116840000D03*
X135868762Y-113753054D03*
X170180000Y-106680000D03*
X145659931Y-72360552D03*
X165100000Y-99060000D03*
X165100000Y-78740000D03*
X96520000Y-106680000D03*
X124426220Y-87597027D03*
X101600000Y-119380000D03*
X180340000Y-119380000D03*
X185420000Y-86360000D03*
X142240000Y-71120000D03*
X149860000Y-83820000D03*
X185420000Y-81280000D03*
X137160000Y-78740000D03*
X141607417Y-82767012D03*
X180340000Y-81280000D03*
X159676207Y-72360552D03*
X99060000Y-81280000D03*
X157480000Y-88900000D03*
X104140000Y-81280000D03*
X180340000Y-83820000D03*
X121352581Y-82346214D03*
X182880000Y-114300000D03*
X119380000Y-114300000D03*
X99060000Y-78740000D03*
X142240000Y-79895348D03*
X119380000Y-111760000D03*
X96520000Y-96520000D03*
X121920000Y-116840000D03*
X127000000Y-115497101D03*
X148208345Y-72360552D03*
X129827638Y-117702914D03*
X96520000Y-88900000D03*
X93980000Y-104140000D03*
X156012862Y-72360552D03*
X93980000Y-101600000D03*
X121920000Y-114300000D03*
X180340000Y-76200000D03*
X142950667Y-87590370D03*
X124460000Y-78740000D03*
X132192654Y-110132223D03*
X114300000Y-111760000D03*
X177800000Y-78740000D03*
X99060000Y-88900000D03*
X185420000Y-76200000D03*
X149860000Y-91440000D03*
X96520000Y-104140000D03*
X93980000Y-88900000D03*
X93980000Y-78740000D03*
X99060000Y-91440000D03*
X93980000Y-81280000D03*
X185420000Y-114300000D03*
X93980000Y-106680000D03*
X180340000Y-116840000D03*
X147320000Y-93980000D03*
X114300000Y-81280000D03*
X104214189Y-120323718D03*
X137160000Y-88900000D03*
X139891851Y-108337483D03*
X134620000Y-86360000D03*
X109220000Y-111760000D03*
X140943768Y-87596951D03*
X104140000Y-114300000D03*
X124123287Y-82399497D03*
X135917880Y-108448263D03*
X149860000Y-93980000D03*
X93980000Y-99060000D03*
X165100000Y-76200000D03*
X106680000Y-78740000D03*
X96520000Y-101600000D03*
X142286580Y-83402357D03*
X162560000Y-76200000D03*
X161428241Y-86456465D03*
X93980000Y-96520000D03*
X158408854Y-120629488D03*
X134002494Y-75021861D03*
X166711145Y-120586471D03*
X108116009Y-110614965D03*
X177800000Y-81280000D03*
X101600000Y-78740000D03*
X140921419Y-88826136D03*
X125867537Y-87648502D03*
X124460000Y-116840000D03*
X182880000Y-78740000D03*
X96520000Y-93980000D03*
X172720000Y-76200000D03*
X180340000Y-114300000D03*
X177800000Y-114300000D03*
X96520000Y-91440000D03*
X125867537Y-86361613D03*
X182880000Y-83820000D03*
X171105799Y-90153653D03*
X149860000Y-88900000D03*
X170180000Y-101600000D03*
X135868762Y-112132145D03*
X177800000Y-76200000D03*
X148050044Y-118475022D03*
X110421972Y-110558027D03*
X101600000Y-81280000D03*
X93980000Y-91440000D03*
X139955801Y-111867549D03*
X170180000Y-83820000D03*
X182880000Y-119380000D03*
X171105799Y-87963302D03*
X157480000Y-78740000D03*
X129106945Y-75021861D03*
X170180000Y-104140000D03*
X119380000Y-116840000D03*
X177800000Y-116840000D03*
X134620000Y-88900000D03*
X124490256Y-75021861D03*
X157480000Y-91440000D03*
X104140000Y-116840000D03*
X121920000Y-111760000D03*
X127000000Y-116840000D03*
X124460000Y-111760000D03*
X170180000Y-99060000D03*
X96520000Y-99060000D03*
X182880000Y-76200000D03*
X170180000Y-81280000D03*
X157480000Y-99060000D03*
X150350099Y-117772889D03*
X142240000Y-78740000D03*
X108194219Y-120487843D03*
X180340000Y-78740000D03*
X171176455Y-92344003D03*
X106680000Y-81280000D03*
X160020000Y-96520000D03*
X185420000Y-119380000D03*
%TO.N,/D6*%
X126669040Y-119380000D03*
%TO.N,/D7*%
X125702385Y-113461834D03*
X125719206Y-122729024D03*
%TO.N,/D4*%
X149489390Y-81654768D03*
X121319020Y-85635415D03*
X127480815Y-85634947D03*
X129448761Y-120086193D03*
X163748289Y-85150711D03*
%TO.N,/D5*%
X128380124Y-122754995D03*
X134643137Y-106066860D03*
X152213367Y-104731977D03*
X128380124Y-119335699D03*
%TO.N,/D2*%
X131924263Y-120825757D03*
%TO.N,/D3*%
X131177707Y-122758774D03*
X152213367Y-103122470D03*
%TO.N,/D0*%
X133851000Y-122981900D03*
X136144463Y-105722341D03*
X134620000Y-110176931D03*
%TO.N,/D1*%
X136144462Y-104608329D03*
%TO.N,/A4*%
X140431198Y-113274097D03*
X140533611Y-97264939D03*
%TO.N,/A5*%
X129863990Y-113157508D03*
%TO.N,/A2*%
X141864328Y-99446616D03*
X141264248Y-114216842D03*
%TO.N,/A3*%
X129881042Y-111605766D03*
%TO.N,/A0*%
X142516658Y-115535751D03*
X142647018Y-100312123D03*
%TO.N,/A1*%
X129846938Y-110173388D03*
%TO.N,/A13*%
X144211505Y-98421125D03*
X144248151Y-110233587D03*
%TO.N,/A8*%
X145143775Y-120088569D03*
%TO.N,/A12*%
X138179460Y-118472642D03*
X133921786Y-118472642D03*
X129868944Y-115754282D03*
%TO.N,/A6*%
X149826699Y-120281555D03*
X142240000Y-96539925D03*
%TO.N,/A7*%
X134646286Y-119478362D03*
X139310927Y-120066047D03*
X129858174Y-114379543D03*
%TO.N,/A10*%
X149545914Y-99785482D03*
X151929511Y-114697383D03*
%TO.N,/A11*%
X143485933Y-122263475D03*
X143410666Y-99512217D03*
X143485933Y-116467208D03*
%TO.N,/{slash}RD*%
X155740578Y-121920000D03*
X148438620Y-121738238D03*
X159323656Y-121920000D03*
%TO.N,/{slash}SLTSL*%
X169202654Y-121128550D03*
%TO.N,/MA14*%
X164034121Y-118225185D03*
%TO.N,/MA13*%
X143489781Y-92257002D03*
X162234201Y-111851140D03*
X153055694Y-111851140D03*
%TO.N,/MA15*%
X161154622Y-119471140D03*
%TO.N,/MA16*%
X142240000Y-73561552D03*
X128156710Y-87219472D03*
X139490628Y-82607541D03*
%TO.N,/ROM_CE1*%
X139630868Y-93686111D03*
X139613678Y-103062979D03*
X138362946Y-85348594D03*
X137160000Y-82622198D03*
%TO.N,Net-(U6A-A0)*%
X164934602Y-85172698D03*
X148179938Y-79424946D03*
%TO.N,/MA17*%
X171488724Y-112252032D03*
%TO.N,Net-(U5-~{Ew})*%
X161175803Y-103580812D03*
%TO.N,Net-(U5-~{Er})*%
X163944196Y-114699925D03*
X168915466Y-112280643D03*
%TD*%
D17*
%TO.N,+5V*%
X106036667Y-93375349D02*
X106643658Y-93982340D01*
D18*
X115706453Y-121110613D02*
X115706453Y-120978689D01*
X119475346Y-128686219D02*
X119652707Y-128863580D01*
D17*
X107093658Y-91459940D02*
X106036667Y-92516931D01*
X106036667Y-92516931D02*
X106036667Y-93375349D01*
D18*
X116929846Y-128680719D02*
X117112707Y-128863580D01*
D17*
X106643658Y-93982340D02*
X111116667Y-93982340D01*
D18*
X119114144Y-124403139D02*
X119475346Y-124403139D01*
X116929846Y-122218841D02*
X116814681Y-122218841D01*
D17*
X108559067Y-91459940D02*
X107093658Y-91459940D01*
X111116667Y-93982340D02*
X112152867Y-92946140D01*
D18*
X116929846Y-122218841D02*
X116929846Y-126140719D01*
X119475346Y-124403139D02*
X119475346Y-128686219D01*
D17*
X109612867Y-90406140D02*
X108559067Y-91459940D01*
D18*
X116929846Y-122218841D02*
X119114144Y-124403139D01*
D17*
X117112707Y-128863580D02*
X117112707Y-125713580D01*
D18*
X116814681Y-122218841D02*
X115706453Y-121110613D01*
X116929846Y-122218841D02*
X116929846Y-128680719D01*
%TO.N,GND*%
X124732707Y-123810239D02*
X124732707Y-128863580D01*
X124325606Y-123403138D02*
X124732707Y-123810239D01*
X107072867Y-109571823D02*
X108116009Y-110614965D01*
X119545116Y-123403138D02*
X111948118Y-115806140D01*
X111948118Y-115806140D02*
X108342867Y-115806140D01*
X147921162Y-118346140D02*
X148050044Y-118475022D01*
X146442867Y-118346140D02*
X147921162Y-118346140D01*
X119545116Y-123403138D02*
X124325606Y-123403138D01*
X122192707Y-128863580D02*
X122192707Y-123854027D01*
X107072867Y-105646140D02*
X107072867Y-109571823D01*
D17*
%TO.N,/D6*%
X130869874Y-107249133D02*
X132472867Y-105646140D01*
X113755860Y-107249133D02*
X130869874Y-107249133D01*
X126669040Y-119380000D02*
X122187818Y-119380000D01*
X112152867Y-105646140D02*
X113755860Y-107249133D01*
X122187818Y-119380000D02*
X121050992Y-118243174D01*
X112152867Y-112443529D02*
X112152867Y-105646140D01*
X117952512Y-118243174D02*
X112152867Y-112443529D01*
X121050992Y-118243174D02*
X117952512Y-118243174D01*
%TO.N,/D7*%
X132500833Y-104152765D02*
X133966242Y-104152765D01*
X133966242Y-104152765D02*
X135012867Y-103106140D01*
X125719206Y-122729024D02*
X127272707Y-124282525D01*
X131598439Y-107985977D02*
X130372648Y-107985977D01*
X130372648Y-107985977D02*
X125702385Y-112656240D01*
X125702385Y-112656240D02*
X125702385Y-113461834D01*
X131436667Y-105994190D02*
X131436667Y-105216931D01*
X130631225Y-106799632D02*
X131436667Y-105994190D01*
X114692867Y-103106140D02*
X118386359Y-106799632D01*
X135012867Y-104571549D02*
X131598439Y-107985977D01*
X127272707Y-124282525D02*
X127272707Y-128863580D01*
X135012867Y-103106140D02*
X135012867Y-104571549D01*
X118386359Y-106799632D02*
X130631225Y-106799632D01*
X131436667Y-105216931D02*
X132500833Y-104152765D01*
%TO.N,/D4*%
X120864803Y-118692675D02*
X122277128Y-120105000D01*
X101563658Y-101602340D02*
X104494476Y-101602340D01*
X111583060Y-112509412D02*
X117766323Y-118692675D01*
X131492109Y-81623653D02*
X149458275Y-81623653D01*
X118960780Y-88020439D02*
X104816763Y-88020439D01*
X111583060Y-107616333D02*
X111583060Y-112509412D01*
X121319020Y-85635415D02*
X121345804Y-85635415D01*
X105569067Y-103535349D02*
X106176058Y-104142340D01*
X163748289Y-100091562D02*
X166762867Y-103106140D01*
X163748289Y-85150711D02*
X163748289Y-100091562D01*
X127480815Y-85634947D02*
X131492109Y-81623653D01*
X100323757Y-100362439D02*
X101563658Y-101602340D01*
X109612867Y-105646140D02*
X111583060Y-107616333D01*
X121319020Y-85662199D02*
X118960780Y-88020439D01*
X105569067Y-102676931D02*
X105569067Y-103535349D01*
X104494476Y-101602340D02*
X105569067Y-102676931D01*
X104816763Y-88020439D02*
X100323757Y-92513445D01*
X107034476Y-104142340D02*
X108538276Y-105646140D01*
X117766323Y-118692675D02*
X120864803Y-118692675D01*
X121345804Y-85635415D02*
X121292380Y-85688839D01*
X108538276Y-105646140D02*
X109612867Y-105646140D01*
X122277128Y-120105000D02*
X129429954Y-120105000D01*
X121319020Y-85635415D02*
X121319020Y-85662199D01*
X106176058Y-104142340D02*
X107034476Y-104142340D01*
X100323757Y-92513445D02*
X100323757Y-100362439D01*
%TO.N,/D5*%
X111098568Y-101620439D02*
X119997447Y-101620439D01*
X120446948Y-102069940D02*
X128896667Y-102069940D01*
X129775021Y-109220000D02*
X128380124Y-110614897D01*
X128380124Y-110614897D02*
X128380124Y-119335699D01*
X109612867Y-103106140D02*
X111098568Y-101620439D01*
X129812707Y-124187578D02*
X129812707Y-128863580D01*
X134643137Y-106232680D02*
X134643137Y-106066860D01*
X152424204Y-104521140D02*
X152213367Y-104731977D01*
X131655817Y-109220000D02*
X134643137Y-106232680D01*
X159142867Y-100566140D02*
X155187867Y-104521140D01*
X155187867Y-104521140D02*
X152424204Y-104521140D01*
X128896667Y-102069940D02*
X129932867Y-103106140D01*
X119997447Y-101620439D02*
X120446948Y-102069940D01*
X128380124Y-122754995D02*
X129812707Y-124187578D01*
X131655817Y-109220000D02*
X129775021Y-109220000D01*
%TO.N,/D2*%
X120678614Y-119142176D02*
X122362195Y-120825757D01*
X109665860Y-114179705D02*
X112617663Y-114179705D01*
X105888237Y-110402082D02*
X109665860Y-114179705D01*
X104532867Y-104180731D02*
X105888237Y-105536101D01*
X105888237Y-105536101D02*
X105888237Y-110402082D01*
X112617663Y-114179705D02*
X117580134Y-119142176D01*
X104532867Y-103106140D02*
X104532867Y-104180731D01*
X122362195Y-120825757D02*
X131924263Y-120825757D01*
X117580134Y-119142176D02*
X120678614Y-119142176D01*
%TO.N,/D3*%
X107072867Y-103106140D02*
X108576667Y-104609940D01*
X132352707Y-123933774D02*
X132352707Y-128863580D01*
X126452355Y-104145288D02*
X126474787Y-104122856D01*
X126474787Y-104122856D02*
X126474787Y-104024220D01*
X154048914Y-103120093D02*
X152215744Y-103120093D01*
X114263658Y-102069940D02*
X119811258Y-102069940D01*
X113656667Y-103535349D02*
X113656667Y-102676931D01*
X108576667Y-104609940D02*
X112582076Y-104609940D01*
X112582076Y-104609940D02*
X113656667Y-103535349D01*
X113656667Y-102676931D02*
X114263658Y-102069940D01*
X152215744Y-103120093D02*
X152213367Y-103122470D01*
X126474787Y-104024220D02*
X127392867Y-103106140D01*
X131177707Y-122758774D02*
X132352707Y-123933774D01*
X121886606Y-104145288D02*
X126452355Y-104145288D01*
X119811258Y-102069940D02*
X121886606Y-104145288D01*
%TO.N,/D0*%
X117207756Y-120041178D02*
X112247718Y-115081140D01*
X120306236Y-120041178D02*
X117207756Y-120041178D01*
X122269582Y-122004524D02*
X120306236Y-120041178D01*
X134620000Y-107246804D02*
X134620000Y-110176931D01*
X136144463Y-105722341D02*
X134620000Y-107246804D01*
X132873624Y-122004524D02*
X122269582Y-122004524D01*
X133851000Y-122981900D02*
X132873624Y-122004524D01*
X109241772Y-115081140D02*
X101992867Y-107832235D01*
X112247718Y-115081140D02*
X109241772Y-115081140D01*
X101992867Y-107832235D02*
X101992867Y-103106140D01*
%TO.N,/D1*%
X132043658Y-102069940D02*
X135442076Y-102069940D01*
X134892707Y-122886165D02*
X134892707Y-128863580D01*
X136193557Y-102821421D02*
X136193557Y-104559234D01*
X124852867Y-105646140D02*
X125889067Y-104609940D01*
X135442076Y-102069940D02*
X136193557Y-102821421D01*
X109426733Y-114629705D02*
X112431973Y-114629705D01*
X125889067Y-104609940D02*
X130348273Y-104609940D01*
X131436667Y-102676931D02*
X132043658Y-102069940D01*
X117393945Y-119591677D02*
X120492425Y-119591677D01*
X130348273Y-104609940D02*
X131436667Y-103521546D01*
X131436667Y-103521546D02*
X131436667Y-102676931D01*
X122455771Y-121555023D02*
X133561565Y-121555023D01*
X104532867Y-105646140D02*
X104532867Y-109735839D01*
X104532867Y-109735839D02*
X109426733Y-114629705D01*
X112431973Y-114629705D02*
X117393945Y-119591677D01*
X133561565Y-121555023D02*
X134892707Y-122886165D01*
X120492425Y-119591677D02*
X122455771Y-121555023D01*
%TO.N,/A4*%
X140533611Y-97264939D02*
X141003191Y-97734519D01*
X141003191Y-97734519D02*
X141003191Y-113021753D01*
X141003191Y-113021753D02*
X140431198Y-113274097D01*
%TO.N,/A5*%
X135500562Y-117099804D02*
X135500562Y-121844887D01*
X129863990Y-113157508D02*
X131558266Y-113157508D01*
X137432707Y-123777032D02*
X137432707Y-128863580D01*
X131558266Y-113157508D02*
X135500562Y-117099804D01*
X135500562Y-121844887D02*
X137432707Y-123777032D01*
%TO.N,/A2*%
X141264248Y-114351428D02*
X141331541Y-114284135D01*
X141264248Y-114216842D02*
X141264248Y-114351428D01*
X141864328Y-113751348D02*
X141398834Y-114216842D01*
X141864328Y-99446616D02*
X141864328Y-113751348D01*
X141398834Y-114216842D02*
X141264248Y-114216842D01*
%TO.N,/A3*%
X136322191Y-120871104D02*
X139972707Y-124521620D01*
X139972707Y-124521620D02*
X139972707Y-128863580D01*
X136322191Y-117285037D02*
X136322191Y-120871104D01*
X129881042Y-111605766D02*
X130642920Y-111605766D01*
X130642920Y-111605766D02*
X136322191Y-117285037D01*
%TO.N,/A0*%
X142647018Y-100312123D02*
X142647018Y-115405391D01*
X142647018Y-115405391D02*
X142516658Y-115535751D01*
%TO.N,/A1*%
X141917837Y-124424538D02*
X141978699Y-124424538D01*
X137143820Y-119650521D02*
X141917837Y-124424538D01*
X137143820Y-117470270D02*
X137143820Y-119650521D01*
X142512707Y-124958546D02*
X142512707Y-128863580D01*
X129846938Y-110173388D02*
X137143820Y-117470270D01*
X141978699Y-124424538D02*
X142512707Y-124958546D01*
%TO.N,/A13*%
X154062867Y-108186140D02*
X159142867Y-108186140D01*
X144211505Y-98421125D02*
X144211505Y-110196941D01*
X144211505Y-110196941D02*
X144248151Y-110233587D01*
%TO.N,/A8*%
X138851315Y-114184311D02*
X138851315Y-99324588D01*
X115729067Y-96522340D02*
X133976667Y-96522340D01*
X114692867Y-95486140D02*
X115729067Y-96522340D01*
X138851315Y-99324588D02*
X135012867Y-95486140D01*
X133976667Y-96522340D02*
X135012867Y-95486140D01*
X144755573Y-120088569D02*
X138851315Y-114184311D01*
X145143775Y-120088569D02*
X144755573Y-120088569D01*
%TO.N,/A12*%
X127372076Y-88919940D02*
X128429067Y-89976931D01*
X128429067Y-89976931D02*
X128429067Y-90835349D01*
X132882248Y-115754282D02*
X129868944Y-115754282D01*
X133921786Y-118472642D02*
X133921786Y-116793820D01*
X125889067Y-91442340D02*
X124852867Y-90406140D01*
X145499423Y-123620296D02*
X147592707Y-125713580D01*
X133921786Y-116793820D02*
X132882248Y-115754282D01*
X128429067Y-90835349D02*
X127822076Y-91442340D01*
X138179460Y-118472642D02*
X138179460Y-119959885D01*
X141839871Y-123620296D02*
X145499423Y-123620296D01*
X106019067Y-88919940D02*
X127372076Y-88919940D01*
X127822076Y-91442340D02*
X125889067Y-91442340D01*
X138179460Y-119959885D02*
X141839871Y-123620296D01*
X147592707Y-125713580D02*
X147592707Y-128863580D01*
X104532867Y-90406140D02*
X106019067Y-88919940D01*
%TO.N,/A6*%
X145317867Y-98113282D02*
X143744510Y-96539925D01*
X145969033Y-119471140D02*
X145317867Y-118819974D01*
X143744510Y-96539925D02*
X142240000Y-96539925D01*
X149016284Y-119471140D02*
X145969033Y-119471140D01*
X149826699Y-120281555D02*
X149016284Y-119471140D01*
X145317867Y-118819974D02*
X145317867Y-98113282D01*
%TO.N,/A7*%
X150132707Y-128863580D02*
X150132707Y-125713580D01*
X132143905Y-114379543D02*
X134646286Y-116881924D01*
X134646286Y-116881924D02*
X134646286Y-119478362D01*
X129892744Y-114504625D02*
X129846046Y-114504625D01*
X129846046Y-114504625D02*
X129729498Y-114621173D01*
X139310927Y-120066047D02*
X142415674Y-123170795D01*
X150132707Y-125903580D02*
X150132707Y-128863580D01*
X142415674Y-123170795D02*
X147399922Y-123170795D01*
X129963486Y-114621173D02*
X129729498Y-114621173D01*
X147399922Y-123170795D02*
X150132707Y-125903580D01*
X129858174Y-114379543D02*
X132143905Y-114379543D01*
%TO.N,/A10*%
X114692867Y-100566140D02*
X119578838Y-100566140D01*
X149483199Y-112106183D02*
X151929511Y-114552495D01*
X133976667Y-101602340D02*
X135012867Y-100566140D01*
X119578838Y-100566140D02*
X120615038Y-101602340D01*
X151929511Y-114552495D02*
X151929511Y-114697383D01*
X149545914Y-99785482D02*
X149483199Y-99848197D01*
X120615038Y-101602340D02*
X133976667Y-101602340D01*
X149483199Y-99848197D02*
X149483199Y-112106183D01*
%TO.N,/A11*%
X143685696Y-122463238D02*
X149720609Y-122463238D01*
X143410666Y-99512217D02*
X143493262Y-99594813D01*
X152672707Y-125415336D02*
X152672707Y-128863580D01*
X114692867Y-98026140D02*
X115729067Y-96989940D01*
X143485933Y-122263475D02*
X143685696Y-122463238D01*
X115729067Y-96989940D02*
X133976667Y-96989940D01*
X133976667Y-96989940D02*
X135012867Y-98026140D01*
X149720609Y-122463238D02*
X152672707Y-125415336D01*
X143493262Y-99594813D02*
X143485933Y-116467208D01*
%TO.N,/A9*%
X137567692Y-99062340D02*
X138055545Y-99550193D01*
X150505682Y-121006555D02*
X155212707Y-125713580D01*
X145037163Y-121006555D02*
X150505682Y-121006555D01*
X131436667Y-99062340D02*
X132472867Y-98026140D01*
X155212707Y-125713580D02*
X155212707Y-128863580D01*
X138055545Y-114024937D02*
X145037163Y-121006555D01*
X132472867Y-98026140D02*
X133509067Y-99062340D01*
X112152867Y-98026140D02*
X113189067Y-99062340D01*
X138055545Y-99550193D02*
X138055545Y-114024937D01*
X133509067Y-99062340D02*
X137567692Y-99062340D01*
X113189067Y-99062340D02*
X131436667Y-99062340D01*
%TO.N,/{slash}RD*%
X144301908Y-121738238D02*
X137194957Y-114631287D01*
X133509067Y-99529940D02*
X132472867Y-100566140D01*
X137194957Y-114631287D02*
X137194957Y-101282821D01*
X148438620Y-121738238D02*
X144301908Y-121738238D01*
X155740578Y-121920000D02*
X159323656Y-121920000D01*
X112152867Y-100566140D02*
X113189067Y-99529940D01*
X135442076Y-99529940D02*
X133509067Y-99529940D01*
X137194957Y-101282821D02*
X135442076Y-99529940D01*
X113189067Y-99529940D02*
X131436667Y-99529940D01*
X131436667Y-99529940D02*
X132472867Y-100566140D01*
%TO.N,/{slash}WR*%
X169736099Y-121853050D02*
X169927154Y-121661995D01*
X160292707Y-128863580D02*
X160292707Y-125713580D01*
X162438366Y-108282630D02*
X162438366Y-100367630D01*
X169927154Y-114809434D02*
X167258860Y-112141140D01*
X152937867Y-81656140D02*
X146442867Y-75161140D01*
X166296876Y-112141140D02*
X162438366Y-108282630D01*
X160292707Y-125713580D02*
X164153237Y-121853050D01*
X164153237Y-121853050D02*
X169736099Y-121853050D01*
X169927154Y-121661995D02*
X169927154Y-114809434D01*
X167258860Y-112141140D02*
X166296876Y-112141140D01*
X162438366Y-100367630D02*
X152937867Y-90867131D01*
X152937867Y-90867131D02*
X152937867Y-81656140D01*
%TO.N,/{slash}SLTSL*%
X169202654Y-116654936D02*
X169202654Y-121128550D01*
X161988865Y-100553819D02*
X161988865Y-110083129D01*
X118502867Y-80246140D02*
X121824007Y-76925000D01*
X147574237Y-77701140D02*
X152488366Y-82615269D01*
X145634534Y-76925000D02*
X146410674Y-77701140D01*
X152488366Y-91053320D02*
X161988865Y-100553819D01*
X161988865Y-110083129D02*
X166495148Y-114589412D01*
X146442867Y-77701140D02*
X147574237Y-77701140D01*
X152488366Y-82615269D02*
X152488366Y-91053320D01*
X166495148Y-114589412D02*
X167137130Y-114589412D01*
X167137130Y-114589412D02*
X169202654Y-116654936D01*
X121824007Y-76925000D02*
X145634534Y-76925000D01*
X146410674Y-77701140D02*
X146442867Y-77701140D01*
%TO.N,/MA14*%
X133975669Y-91908942D02*
X135012867Y-92946140D01*
X159767226Y-122645000D02*
X164034121Y-118378105D01*
X140907377Y-92946140D02*
X147647030Y-99685793D01*
X164034121Y-118378105D02*
X164034121Y-118225185D01*
X128896667Y-91909940D02*
X128897665Y-91908942D01*
X128897665Y-91908942D02*
X133975669Y-91908942D01*
X146442867Y-115806140D02*
X153281727Y-122645000D01*
X115729067Y-93982340D02*
X127860467Y-93982340D01*
X147647030Y-114601977D02*
X146442867Y-115806140D01*
X153281727Y-122645000D02*
X159767226Y-122645000D01*
X127860467Y-93982340D02*
X128896667Y-92946140D01*
X114692867Y-92946140D02*
X115729067Y-93982340D01*
X135012867Y-92946140D02*
X140907377Y-92946140D01*
X128896667Y-92946140D02*
X128896667Y-91909940D01*
X147647030Y-99685793D02*
X147647030Y-114601977D01*
%TO.N,/MA13*%
X151039366Y-109834812D02*
X153055694Y-111851140D01*
X113189067Y-94449940D02*
X131436667Y-94449940D01*
X143489781Y-92257002D02*
X144283149Y-92257002D01*
X112152867Y-95486140D02*
X113189067Y-94449940D01*
X145231738Y-93205591D02*
X145231738Y-93809604D01*
X144283149Y-92257002D02*
X145231738Y-93205591D01*
X162234201Y-111851140D02*
X153055694Y-111851140D01*
X131436667Y-94449940D02*
X132472867Y-95486140D01*
X145231738Y-93809604D02*
X151039366Y-99617232D01*
X151039366Y-99617232D02*
X151039366Y-109834812D01*
%TO.N,/MA15*%
X148096531Y-99476215D02*
X140079757Y-91459441D01*
X128440665Y-91459441D02*
X127392867Y-92507239D01*
X154062867Y-118346140D02*
X152931497Y-118346140D01*
X126356667Y-91909940D02*
X127392867Y-92946140D01*
X154062867Y-118346140D02*
X155187867Y-119471140D01*
X152931497Y-118346140D02*
X148096531Y-113511174D01*
X148096531Y-113511174D02*
X148096531Y-99476215D01*
X107072867Y-92946140D02*
X108109067Y-91909940D01*
X108109067Y-91909940D02*
X126356667Y-91909940D01*
X127392867Y-92507239D02*
X127392867Y-92946140D01*
X140079757Y-91459441D02*
X128440665Y-91459441D01*
X155187867Y-119471140D02*
X161154622Y-119471140D01*
%TO.N,/MA16*%
X126356667Y-89369940D02*
X127392867Y-90406140D01*
X139461312Y-89512007D02*
X149009305Y-99060000D01*
X172580464Y-79392746D02*
X172580464Y-91878981D01*
X128156710Y-87219472D02*
X137168777Y-87219472D01*
X137168777Y-87219472D02*
X139461312Y-89512007D01*
X142240000Y-73561552D02*
X166749270Y-73561552D01*
X172580464Y-91878981D02*
X174830464Y-94128981D01*
X150589865Y-99804128D02*
X150589865Y-112333138D01*
X139461312Y-82636857D02*
X139461312Y-89253132D01*
X108109067Y-89369940D02*
X126356667Y-89369940D01*
X139490628Y-82607541D02*
X139461312Y-82636857D01*
X150589865Y-112333138D02*
X154062867Y-115806140D01*
X139461312Y-89253132D02*
X139461312Y-89512007D01*
X149009305Y-99060000D02*
X149845737Y-99060000D01*
X166749270Y-73561552D02*
X172580464Y-79392746D01*
X149845737Y-99060000D02*
X150589865Y-99804128D01*
X174830464Y-94128981D02*
X174830464Y-97519972D01*
X174830464Y-97519972D02*
X173705464Y-98644972D01*
X107072867Y-90406140D02*
X108109067Y-89369940D01*
%TO.N,/ROM_CE1*%
X138362946Y-83825144D02*
X138362946Y-85348594D01*
X137160000Y-82622198D02*
X138362946Y-83825144D01*
X139613678Y-103062979D02*
X139613678Y-93703301D01*
X139613678Y-93703301D02*
X139630868Y-93686111D01*
%TO.N,/ROM_CE2*%
X111116667Y-104142340D02*
X112152867Y-103106140D01*
X105003658Y-88469940D02*
X103496667Y-89976931D01*
X128662867Y-80246140D02*
X120439067Y-88469940D01*
X108576667Y-98064531D02*
X108576667Y-103558627D01*
X103496667Y-89976931D02*
X103496667Y-95915349D01*
X109160380Y-104142340D02*
X111116667Y-104142340D01*
X120439067Y-88469940D02*
X105003658Y-88469940D01*
X107502076Y-96989940D02*
X108576667Y-98064531D01*
X103496667Y-95915349D02*
X104571258Y-96989940D01*
X104571258Y-96989940D02*
X107502076Y-96989940D01*
X108576667Y-103558627D02*
X109160380Y-104142340D01*
%TO.N,Net-(U6A-A0)*%
X164934602Y-90171090D02*
X169358484Y-94594972D01*
X164934602Y-85172698D02*
X164934602Y-90171090D01*
X123914007Y-77375000D02*
X144535151Y-77375000D01*
X144535151Y-77375000D02*
X144535151Y-77384415D01*
X147581132Y-78826140D02*
X148179938Y-79424946D01*
X145976876Y-78826140D02*
X147581132Y-78826140D01*
X144535151Y-77384415D02*
X145976876Y-78826140D01*
X121042867Y-80246140D02*
X123914007Y-77375000D01*
X169358484Y-94594972D02*
X173705464Y-94594972D01*
%TO.N,/MA17*%
X139719049Y-90406140D02*
X148705185Y-99392276D01*
X174838524Y-90544972D02*
X173705464Y-90544972D01*
X171488724Y-107370721D02*
X175950045Y-102909400D01*
X171488724Y-112252032D02*
X171488724Y-107370721D01*
X153138670Y-116931140D02*
X165637867Y-116931140D01*
X175950045Y-102909400D02*
X175950045Y-91656493D01*
X175950045Y-91656493D02*
X174838524Y-90544972D01*
X148705185Y-99392276D02*
X148705185Y-112497655D01*
X148705185Y-112497655D02*
X153138670Y-116931140D01*
X132472867Y-90406140D02*
X139719049Y-90406140D01*
X165637867Y-116931140D02*
X166762867Y-115806140D01*
%TO.N,Net-(U5-~{Ew})*%
X161175803Y-107744195D02*
X161175803Y-103580812D01*
X151488867Y-108152140D02*
X154062867Y-110726140D01*
X151488867Y-102255551D02*
X151488867Y-108152140D01*
X151969030Y-82816037D02*
X151969030Y-101775388D01*
X149394133Y-80241140D02*
X151969030Y-82816037D01*
X151969030Y-101775388D02*
X151488867Y-102255551D01*
X155477867Y-109311140D02*
X159608858Y-109311140D01*
X154062867Y-110726140D02*
X155477867Y-109311140D01*
X159608858Y-109311140D02*
X161175803Y-107744195D01*
X146442867Y-80241140D02*
X149394133Y-80241140D01*
%TO.N,Net-(U5-~{Er})*%
X163944196Y-114699925D02*
X163944196Y-114729241D01*
X167249556Y-109601140D02*
X168915466Y-111267050D01*
X168915466Y-111267050D02*
X168915466Y-112280643D01*
X163944196Y-114729241D02*
X163929538Y-114714583D01*
X166296876Y-109601140D02*
X167249556Y-109601140D01*
X159142867Y-77706140D02*
X162887867Y-81451140D01*
X162887867Y-106192131D02*
X166296876Y-109601140D01*
X154062867Y-113266140D02*
X155477867Y-114681140D01*
X163914880Y-114699925D02*
X163944196Y-114699925D01*
X162887867Y-81451140D02*
X162887867Y-106192131D01*
X163896095Y-114681140D02*
X163914880Y-114699925D01*
X155477867Y-114681140D02*
X163896095Y-114681140D01*
%TD*%
%TA.AperFunction,Conductor*%
%TO.N,GND*%
G36*
X190067442Y-69963409D02*
G01*
X190129392Y-69980061D01*
X190174732Y-70025443D01*
X190191325Y-70087409D01*
X190191325Y-121654594D01*
X190174712Y-121716594D01*
X190129325Y-121761981D01*
X190067325Y-121778594D01*
X170679295Y-121778594D01*
X170620698Y-121763875D01*
X170576012Y-121723214D01*
X170555845Y-121666262D01*
X170555202Y-121659462D01*
X170553204Y-121638319D01*
X170552654Y-121626651D01*
X170552654Y-118332728D01*
X170567213Y-118274430D01*
X170607470Y-118229822D01*
X170663973Y-118209378D01*
X170723454Y-118217899D01*
X170771945Y-118253384D01*
X170798060Y-118307500D01*
X170840782Y-118513091D01*
X170935077Y-118778410D01*
X170939567Y-118791044D01*
X171059660Y-119022811D01*
X171075281Y-119052958D01*
X171245385Y-119293941D01*
X171245388Y-119293944D01*
X171245390Y-119293947D01*
X171446731Y-119509532D01*
X171675553Y-119695692D01*
X171927592Y-119848961D01*
X172198154Y-119966482D01*
X172482199Y-120046068D01*
X172774434Y-120086235D01*
X173069418Y-120086235D01*
X173361653Y-120046068D01*
X173645698Y-119966482D01*
X173916260Y-119848961D01*
X174168299Y-119695692D01*
X174397121Y-119509532D01*
X174598462Y-119293947D01*
X174768573Y-119052955D01*
X174904285Y-118791044D01*
X175003069Y-118513093D01*
X175063085Y-118224279D01*
X175083215Y-117929984D01*
X175063085Y-117635689D01*
X175003069Y-117346875D01*
X174904285Y-117068924D01*
X174768573Y-116807013D01*
X174661598Y-116655464D01*
X174598466Y-116566026D01*
X174598464Y-116566023D01*
X174598462Y-116566021D01*
X174397121Y-116350436D01*
X174168299Y-116164276D01*
X173916260Y-116011007D01*
X173916256Y-116011005D01*
X173916254Y-116011004D01*
X173645703Y-115893488D01*
X173645701Y-115893487D01*
X173645698Y-115893486D01*
X173481876Y-115847585D01*
X173361651Y-115813899D01*
X173069418Y-115773733D01*
X172774434Y-115773733D01*
X172482200Y-115813899D01*
X172285350Y-115869054D01*
X172198154Y-115893486D01*
X172198151Y-115893486D01*
X172198148Y-115893488D01*
X171927597Y-116011004D01*
X171675551Y-116164277D01*
X171446734Y-116350433D01*
X171446731Y-116350435D01*
X171446731Y-116350436D01*
X171410509Y-116389221D01*
X171245385Y-116566026D01*
X171075281Y-116807009D01*
X171072661Y-116812065D01*
X170942977Y-117062344D01*
X170939565Y-117068928D01*
X170840782Y-117346876D01*
X170798060Y-117552468D01*
X170771945Y-117606584D01*
X170723454Y-117642069D01*
X170663973Y-117650590D01*
X170607470Y-117630146D01*
X170567213Y-117585538D01*
X170552654Y-117527240D01*
X170552654Y-114892178D01*
X170554918Y-114871670D01*
X170554373Y-114854337D01*
X170552715Y-114801547D01*
X170552654Y-114797653D01*
X170552654Y-114770088D01*
X170552654Y-114770084D01*
X170552151Y-114766104D01*
X170551235Y-114754462D01*
X170551068Y-114749147D01*
X170549864Y-114710807D01*
X170544272Y-114691560D01*
X170540328Y-114672519D01*
X170537818Y-114652642D01*
X170521733Y-114612017D01*
X170517962Y-114601002D01*
X170505772Y-114559044D01*
X170495568Y-114541789D01*
X170487015Y-114524329D01*
X170484495Y-114517964D01*
X170479640Y-114505702D01*
X170453962Y-114470359D01*
X170447555Y-114460605D01*
X170425323Y-114423013D01*
X170411160Y-114408850D01*
X170398521Y-114394051D01*
X170386749Y-114377847D01*
X170353095Y-114350007D01*
X170344453Y-114342143D01*
X169287438Y-113285128D01*
X169256697Y-113234218D01*
X169253195Y-113174850D01*
X169277740Y-113120679D01*
X169324684Y-113084167D01*
X169368198Y-113064793D01*
X169521336Y-112953532D01*
X169547099Y-112924920D01*
X169647999Y-112812859D01*
X169742645Y-112648927D01*
X169801140Y-112468899D01*
X169820926Y-112280643D01*
X169801140Y-112092387D01*
X169755811Y-111952879D01*
X169742645Y-111912358D01*
X169648001Y-111748429D01*
X169597113Y-111691913D01*
X169572813Y-111664925D01*
X169549202Y-111626394D01*
X169540966Y-111581956D01*
X169540966Y-111349794D01*
X169543230Y-111329286D01*
X169542299Y-111299665D01*
X169541027Y-111259163D01*
X169540966Y-111255269D01*
X169540966Y-111227704D01*
X169540966Y-111227700D01*
X169540463Y-111223720D01*
X169539547Y-111212078D01*
X169538176Y-111168423D01*
X169532584Y-111149176D01*
X169528640Y-111130135D01*
X169526130Y-111110258D01*
X169510045Y-111069633D01*
X169506272Y-111058612D01*
X169494084Y-111016660D01*
X169483885Y-110999414D01*
X169475327Y-110981947D01*
X169467952Y-110963318D01*
X169442274Y-110927976D01*
X169435871Y-110918226D01*
X169422637Y-110895848D01*
X169413637Y-110880630D01*
X169399472Y-110866465D01*
X169386835Y-110851670D01*
X169375061Y-110835464D01*
X169375060Y-110835463D01*
X169341401Y-110807618D01*
X169332771Y-110799764D01*
X167750358Y-109217351D01*
X167733339Y-109196107D01*
X167731726Y-109193565D01*
X167713247Y-109141375D01*
X167719325Y-109086345D01*
X167748745Y-109039447D01*
X167762914Y-109025279D01*
X167893435Y-108838874D01*
X167989606Y-108632636D01*
X168048502Y-108412832D01*
X168068335Y-108186140D01*
X168048502Y-107959448D01*
X167989606Y-107739644D01*
X167893435Y-107533406D01*
X167876908Y-107509803D01*
X167762913Y-107346999D01*
X167602007Y-107186093D01*
X167415600Y-107055571D01*
X167374594Y-107036450D01*
X167357591Y-107028521D01*
X167305416Y-106982765D01*
X167285996Y-106916140D01*
X167305416Y-106849515D01*
X167357592Y-106803758D01*
X167415601Y-106776708D01*
X167602006Y-106646187D01*
X167762914Y-106485279D01*
X167893435Y-106298874D01*
X167989606Y-106092636D01*
X168048502Y-105872832D01*
X168068335Y-105646140D01*
X168048502Y-105419448D01*
X167989606Y-105199644D01*
X167893435Y-104993406D01*
X167884561Y-104980733D01*
X167762913Y-104806999D01*
X167602007Y-104646093D01*
X167415600Y-104515571D01*
X167357592Y-104488522D01*
X167305416Y-104442765D01*
X167285996Y-104376140D01*
X167305416Y-104309515D01*
X167357592Y-104263758D01*
X167388996Y-104249114D01*
X167415601Y-104236708D01*
X167602006Y-104106187D01*
X167762914Y-103945279D01*
X167893435Y-103758874D01*
X167989606Y-103552636D01*
X168048502Y-103332832D01*
X168068335Y-103106140D01*
X168048502Y-102879448D01*
X167989606Y-102659644D01*
X167893435Y-102453406D01*
X167890757Y-102449582D01*
X167762913Y-102266999D01*
X167602007Y-102106093D01*
X167415599Y-101975570D01*
X167357591Y-101948520D01*
X167305416Y-101902763D01*
X167285997Y-101836137D01*
X167305417Y-101769513D01*
X167357588Y-101723759D01*
X167415601Y-101696708D01*
X167602006Y-101566187D01*
X167762914Y-101405279D01*
X167893435Y-101218874D01*
X167989606Y-101012636D01*
X168048502Y-100792832D01*
X168068335Y-100566140D01*
X168048502Y-100339448D01*
X167989606Y-100119644D01*
X167893435Y-99913406D01*
X167864240Y-99871711D01*
X167762913Y-99726999D01*
X167602007Y-99566093D01*
X167415602Y-99435572D01*
X167209364Y-99339401D01*
X166989556Y-99280504D01*
X166762867Y-99260671D01*
X166536177Y-99280504D01*
X166316369Y-99339401D01*
X166110131Y-99435572D01*
X165923726Y-99566093D01*
X165762820Y-99726999D01*
X165632299Y-99913404D01*
X165536128Y-100119642D01*
X165477231Y-100339450D01*
X165457398Y-100566140D01*
X165461256Y-100610243D01*
X165451870Y-100669500D01*
X165415763Y-100717415D01*
X165361388Y-100742770D01*
X165301474Y-100739630D01*
X165250047Y-100708729D01*
X164410108Y-99868790D01*
X164383228Y-99828562D01*
X164373789Y-99781109D01*
X164373789Y-95486140D01*
X165457398Y-95486140D01*
X165477231Y-95712829D01*
X165536128Y-95932637D01*
X165632299Y-96138875D01*
X165762820Y-96325280D01*
X165923726Y-96486186D01*
X166110131Y-96616707D01*
X166110132Y-96616707D01*
X166110133Y-96616708D01*
X166316371Y-96712879D01*
X166536175Y-96771775D01*
X166762867Y-96791608D01*
X166989559Y-96771775D01*
X167209363Y-96712879D01*
X167415601Y-96616708D01*
X167602006Y-96486187D01*
X167762914Y-96325279D01*
X167893435Y-96138874D01*
X167989606Y-95932636D01*
X168048502Y-95712832D01*
X168068335Y-95486140D01*
X168048502Y-95259448D01*
X167989606Y-95039644D01*
X167893435Y-94833406D01*
X167885150Y-94821574D01*
X167762913Y-94646999D01*
X167602007Y-94486093D01*
X167415602Y-94355572D01*
X167209364Y-94259401D01*
X166989556Y-94200504D01*
X166762867Y-94180671D01*
X166536177Y-94200504D01*
X166316369Y-94259401D01*
X166110131Y-94355572D01*
X165923726Y-94486093D01*
X165762820Y-94646999D01*
X165632299Y-94833404D01*
X165536128Y-95039642D01*
X165477231Y-95259450D01*
X165457398Y-95486140D01*
X164373789Y-95486140D01*
X164373789Y-90794229D01*
X164387304Y-90737934D01*
X164424904Y-90693911D01*
X164478391Y-90671756D01*
X164536107Y-90676298D01*
X164585469Y-90706547D01*
X166735679Y-92856758D01*
X168857680Y-94978759D01*
X168870580Y-94994860D01*
X168921707Y-95042872D01*
X168924504Y-95045583D01*
X168944013Y-95065092D01*
X168947195Y-95067560D01*
X168956055Y-95075127D01*
X168987902Y-95105034D01*
X169000135Y-95111759D01*
X169005456Y-95114684D01*
X169021720Y-95125368D01*
X169031026Y-95132586D01*
X169037548Y-95137645D01*
X169062393Y-95148396D01*
X169077636Y-95154993D01*
X169088115Y-95160126D01*
X169126392Y-95181169D01*
X169145790Y-95186149D01*
X169164192Y-95192449D01*
X169182588Y-95200410D01*
X169225745Y-95207245D01*
X169237148Y-95209606D01*
X169279465Y-95220472D01*
X169299500Y-95220472D01*
X169318897Y-95221998D01*
X169338680Y-95225132D01*
X169382158Y-95221022D01*
X169393828Y-95220472D01*
X172491276Y-95220472D01*
X172548533Y-95234483D01*
X172592851Y-95273349D01*
X172705417Y-95434112D01*
X172866323Y-95595018D01*
X173052728Y-95725539D01*
X173052729Y-95725539D01*
X173052730Y-95725540D01*
X173258968Y-95821711D01*
X173478772Y-95880607D01*
X173705464Y-95900440D01*
X173932156Y-95880607D01*
X173982808Y-95867035D01*
X174048871Y-95849334D01*
X174105155Y-95847492D01*
X174156451Y-95870733D01*
X174192176Y-95914265D01*
X174204964Y-95969109D01*
X174204964Y-97209518D01*
X174195525Y-97256971D01*
X174168644Y-97297200D01*
X174120284Y-97345559D01*
X174064697Y-97377652D01*
X174000511Y-97377652D01*
X173932154Y-97359336D01*
X173705463Y-97339503D01*
X173478774Y-97359336D01*
X173258966Y-97418233D01*
X173052728Y-97514404D01*
X172866323Y-97644925D01*
X172705417Y-97805831D01*
X172574896Y-97992236D01*
X172478725Y-98198474D01*
X172419828Y-98418282D01*
X172399995Y-98644971D01*
X172419828Y-98871661D01*
X172478725Y-99091469D01*
X172574896Y-99297707D01*
X172705417Y-99484112D01*
X172866323Y-99645018D01*
X173052728Y-99775539D01*
X173052729Y-99775539D01*
X173052730Y-99775540D01*
X173258968Y-99871711D01*
X173478772Y-99930607D01*
X173705464Y-99950440D01*
X173932156Y-99930607D01*
X174151960Y-99871711D01*
X174358198Y-99775540D01*
X174544603Y-99645019D01*
X174705511Y-99484111D01*
X174836032Y-99297706D01*
X174932203Y-99091468D01*
X174991099Y-98871664D01*
X175010932Y-98644972D01*
X174991099Y-98418280D01*
X174972783Y-98349923D01*
X174972783Y-98285735D01*
X175004874Y-98230151D01*
X175112866Y-98122159D01*
X175162227Y-98091912D01*
X175219943Y-98087370D01*
X175273431Y-98109525D01*
X175311030Y-98153548D01*
X175324545Y-98209843D01*
X175324545Y-102598948D01*
X175315106Y-102646401D01*
X175288228Y-102686626D01*
X175220600Y-102754253D01*
X175159759Y-102787632D01*
X175090510Y-102783093D01*
X175034545Y-102742057D01*
X175009393Y-102677378D01*
X174991099Y-102468282D01*
X174991099Y-102468280D01*
X174932203Y-102248476D01*
X174836032Y-102042238D01*
X174811694Y-102007480D01*
X174705510Y-101855831D01*
X174544604Y-101694925D01*
X174358199Y-101564404D01*
X174151961Y-101468233D01*
X173932153Y-101409336D01*
X173705464Y-101389503D01*
X173478774Y-101409336D01*
X173258966Y-101468233D01*
X173052728Y-101564404D01*
X172866323Y-101694925D01*
X172705417Y-101855831D01*
X172574896Y-102042236D01*
X172478725Y-102248474D01*
X172419828Y-102468282D01*
X172399995Y-102694972D01*
X172419828Y-102921661D01*
X172478725Y-103141469D01*
X172574896Y-103347707D01*
X172705417Y-103534112D01*
X172866323Y-103695018D01*
X173052728Y-103825539D01*
X173052729Y-103825539D01*
X173052730Y-103825540D01*
X173258968Y-103921711D01*
X173478772Y-103980607D01*
X173546583Y-103986539D01*
X173687869Y-103998901D01*
X173752548Y-104024053D01*
X173793584Y-104080018D01*
X173798123Y-104149268D01*
X173764743Y-104210110D01*
X171104932Y-106869920D01*
X171088834Y-106882817D01*
X171040820Y-106933946D01*
X171038115Y-106936738D01*
X171018598Y-106956255D01*
X171016139Y-106959426D01*
X171008566Y-106968293D01*
X170978659Y-107000141D01*
X170969009Y-107017695D01*
X170958333Y-107033949D01*
X170946050Y-107049784D01*
X170928699Y-107089879D01*
X170923562Y-107100365D01*
X170902526Y-107138628D01*
X170897545Y-107158030D01*
X170891244Y-107176432D01*
X170883285Y-107194823D01*
X170876452Y-107237963D01*
X170874084Y-107249395D01*
X170863224Y-107291699D01*
X170863224Y-107311737D01*
X170861697Y-107331136D01*
X170858564Y-107350915D01*
X170862674Y-107394396D01*
X170863224Y-107406065D01*
X170863224Y-111553345D01*
X170854988Y-111597783D01*
X170831376Y-111636314D01*
X170801598Y-111669387D01*
X170756188Y-111719818D01*
X170661544Y-111883747D01*
X170603050Y-112063774D01*
X170589747Y-112190352D01*
X170583264Y-112252032D01*
X170590352Y-112319468D01*
X170603050Y-112440289D01*
X170661544Y-112620316D01*
X170756190Y-112784248D01*
X170882853Y-112924921D01*
X171035993Y-113036183D01*
X171208921Y-113113176D01*
X171394076Y-113152532D01*
X171394078Y-113152532D01*
X171583370Y-113152532D01*
X171583372Y-113152532D01*
X171706808Y-113126294D01*
X171768527Y-113113176D01*
X171941454Y-113036183D01*
X172023324Y-112976701D01*
X172094594Y-112924921D01*
X172154640Y-112858234D01*
X172221257Y-112784248D01*
X172315903Y-112620316D01*
X172374398Y-112440288D01*
X172394184Y-112252032D01*
X172374398Y-112063776D01*
X172333497Y-111937897D01*
X172315903Y-111883747D01*
X172221259Y-111719818D01*
X172178616Y-111672459D01*
X172146071Y-111636314D01*
X172122460Y-111597783D01*
X172114224Y-111553345D01*
X172114224Y-110794971D01*
X172399995Y-110794971D01*
X172419828Y-111021661D01*
X172478725Y-111241469D01*
X172574896Y-111447707D01*
X172705417Y-111634112D01*
X172866323Y-111795018D01*
X173052728Y-111925539D01*
X173052729Y-111925539D01*
X173052730Y-111925540D01*
X173258968Y-112021711D01*
X173478772Y-112080607D01*
X173705464Y-112100440D01*
X173932156Y-112080607D01*
X174151960Y-112021711D01*
X174358198Y-111925540D01*
X174431808Y-111873998D01*
X183139990Y-111873998D01*
X183212979Y-111925105D01*
X183419137Y-112021238D01*
X183638861Y-112080113D01*
X183865464Y-112099938D01*
X184092066Y-112080113D01*
X184311790Y-112021238D01*
X184517944Y-111925106D01*
X184590936Y-111873997D01*
X183865465Y-111148525D01*
X183865464Y-111148525D01*
X183139990Y-111873997D01*
X183139990Y-111873998D01*
X174431808Y-111873998D01*
X174544603Y-111795019D01*
X174705511Y-111634111D01*
X174836032Y-111447706D01*
X174932203Y-111241468D01*
X174991099Y-111021664D01*
X175010932Y-110794972D01*
X175010932Y-110794971D01*
X182560497Y-110794971D01*
X182580322Y-111021574D01*
X182639197Y-111241298D01*
X182735330Y-111447456D01*
X182786436Y-111520443D01*
X182786437Y-111520444D01*
X183511908Y-110794973D01*
X184219017Y-110794973D01*
X184944489Y-111520444D01*
X184995598Y-111447452D01*
X185091730Y-111241298D01*
X185150605Y-111021574D01*
X185170430Y-110794971D01*
X185150605Y-110568369D01*
X185091730Y-110348645D01*
X184995597Y-110142487D01*
X184944489Y-110069498D01*
X184219017Y-110794972D01*
X184219017Y-110794973D01*
X183511908Y-110794973D01*
X183511910Y-110794971D01*
X183511910Y-110794970D01*
X182786437Y-110069499D01*
X182735329Y-110142488D01*
X182639197Y-110348644D01*
X182580322Y-110568369D01*
X182560497Y-110794971D01*
X175010932Y-110794971D01*
X174991099Y-110568280D01*
X174932203Y-110348476D01*
X174836032Y-110142238D01*
X174833822Y-110139082D01*
X174705510Y-109955831D01*
X174544604Y-109794925D01*
X174431808Y-109715945D01*
X183139990Y-109715945D01*
X183865464Y-110441418D01*
X183865465Y-110441418D01*
X184590936Y-109715946D01*
X184590935Y-109715944D01*
X184517948Y-109664838D01*
X184311790Y-109568705D01*
X184092066Y-109509830D01*
X183865464Y-109490005D01*
X183638861Y-109509830D01*
X183419136Y-109568705D01*
X183212980Y-109664837D01*
X183139991Y-109715945D01*
X183139990Y-109715945D01*
X174431808Y-109715945D01*
X174358199Y-109664404D01*
X174151961Y-109568233D01*
X173932153Y-109509336D01*
X173705464Y-109489503D01*
X173478774Y-109509336D01*
X173258966Y-109568233D01*
X173052728Y-109664404D01*
X172866323Y-109794925D01*
X172705417Y-109955831D01*
X172574896Y-110142236D01*
X172478725Y-110348474D01*
X172419828Y-110568282D01*
X172399995Y-110794971D01*
X172114224Y-110794971D01*
X172114224Y-107681173D01*
X172123663Y-107633721D01*
X172150540Y-107593494D01*
X172376990Y-107367043D01*
X172427378Y-107336468D01*
X172486197Y-107332611D01*
X172540151Y-107356350D01*
X172567097Y-107389923D01*
X172568674Y-107388820D01*
X172705417Y-107584112D01*
X172866323Y-107745018D01*
X173052728Y-107875539D01*
X173052729Y-107875539D01*
X173052730Y-107875540D01*
X173258968Y-107971711D01*
X173478772Y-108030607D01*
X173705464Y-108050440D01*
X173932156Y-108030607D01*
X174151960Y-107971711D01*
X174358198Y-107875540D01*
X174431808Y-107823998D01*
X183139990Y-107823998D01*
X183212979Y-107875105D01*
X183419137Y-107971238D01*
X183638861Y-108030113D01*
X183865464Y-108049938D01*
X184092066Y-108030113D01*
X184311790Y-107971238D01*
X184517944Y-107875106D01*
X184590936Y-107823997D01*
X183865465Y-107098525D01*
X183865464Y-107098525D01*
X183139990Y-107823997D01*
X183139990Y-107823998D01*
X174431808Y-107823998D01*
X174544603Y-107745019D01*
X174705511Y-107584111D01*
X174836032Y-107397706D01*
X174932203Y-107191468D01*
X174991099Y-106971664D01*
X175010932Y-106744972D01*
X182560497Y-106744972D01*
X182580322Y-106971574D01*
X182639197Y-107191298D01*
X182735330Y-107397456D01*
X182786436Y-107470443D01*
X182786438Y-107470444D01*
X183511910Y-106744973D01*
X184219017Y-106744973D01*
X184944489Y-107470444D01*
X184995598Y-107397452D01*
X185091730Y-107191298D01*
X185150605Y-106971574D01*
X185170430Y-106744972D01*
X185150605Y-106518369D01*
X185091730Y-106298645D01*
X184995597Y-106092487D01*
X184944489Y-106019498D01*
X184219017Y-106744972D01*
X184219017Y-106744973D01*
X183511910Y-106744973D01*
X183511910Y-106744972D01*
X182786437Y-106019498D01*
X182786437Y-106019499D01*
X182735329Y-106092488D01*
X182639197Y-106298644D01*
X182580322Y-106518369D01*
X182560497Y-106744972D01*
X175010932Y-106744972D01*
X174991099Y-106518280D01*
X174932203Y-106298476D01*
X174836032Y-106092238D01*
X174814964Y-106062150D01*
X174705510Y-105905831D01*
X174544604Y-105744925D01*
X174431807Y-105665945D01*
X183139990Y-105665945D01*
X183865464Y-106391418D01*
X183865465Y-106391418D01*
X184590936Y-105665946D01*
X184590935Y-105665944D01*
X184517948Y-105614838D01*
X184311790Y-105518705D01*
X184092066Y-105459830D01*
X183865464Y-105440005D01*
X183638861Y-105459830D01*
X183419136Y-105518705D01*
X183212980Y-105614837D01*
X183139991Y-105665945D01*
X183139990Y-105665945D01*
X174431807Y-105665945D01*
X174349312Y-105608182D01*
X174350415Y-105606605D01*
X174316842Y-105579659D01*
X174293103Y-105525705D01*
X174296959Y-105466887D01*
X174327537Y-105416496D01*
X175970035Y-103773998D01*
X183139990Y-103773998D01*
X183212979Y-103825105D01*
X183419137Y-103921238D01*
X183638861Y-103980113D01*
X183865464Y-103999938D01*
X184092066Y-103980113D01*
X184311790Y-103921238D01*
X184517944Y-103825106D01*
X184590936Y-103773997D01*
X183865465Y-103048525D01*
X183865464Y-103048525D01*
X183139990Y-103773997D01*
X183139990Y-103773998D01*
X175970035Y-103773998D01*
X176333831Y-103410202D01*
X176349932Y-103397304D01*
X176351919Y-103395187D01*
X176351922Y-103395186D01*
X176397977Y-103346141D01*
X176400658Y-103343376D01*
X176420165Y-103323870D01*
X176422626Y-103320695D01*
X176430197Y-103311831D01*
X176460107Y-103279982D01*
X176469758Y-103262426D01*
X176480438Y-103246167D01*
X176492719Y-103230336D01*
X176510063Y-103190251D01*
X176515205Y-103179756D01*
X176536242Y-103141492D01*
X176541223Y-103122088D01*
X176547525Y-103103683D01*
X176555483Y-103085295D01*
X176562315Y-103042148D01*
X176564684Y-103030716D01*
X176575545Y-102988420D01*
X176575545Y-102968384D01*
X176577072Y-102948985D01*
X176580205Y-102929204D01*
X176576095Y-102885725D01*
X176575545Y-102874056D01*
X176575545Y-102694972D01*
X182560497Y-102694972D01*
X182580322Y-102921574D01*
X182639197Y-103141298D01*
X182735330Y-103347456D01*
X182786436Y-103420443D01*
X182786438Y-103420444D01*
X183511910Y-102694973D01*
X184219017Y-102694973D01*
X184944489Y-103420444D01*
X184995598Y-103347452D01*
X185091730Y-103141298D01*
X185150605Y-102921574D01*
X185170430Y-102694972D01*
X185150605Y-102468369D01*
X185091730Y-102248645D01*
X184995597Y-102042487D01*
X184944489Y-101969498D01*
X184219017Y-102694972D01*
X184219017Y-102694973D01*
X183511910Y-102694973D01*
X183511910Y-102694972D01*
X182786437Y-101969498D01*
X182786437Y-101969499D01*
X182735329Y-102042488D01*
X182639197Y-102248644D01*
X182580322Y-102468369D01*
X182560497Y-102694972D01*
X176575545Y-102694972D01*
X176575545Y-101615945D01*
X183139990Y-101615945D01*
X183865464Y-102341418D01*
X183865465Y-102341418D01*
X184590936Y-101615946D01*
X184590935Y-101615944D01*
X184517948Y-101564838D01*
X184311790Y-101468705D01*
X184092066Y-101409830D01*
X183865464Y-101390005D01*
X183638861Y-101409830D01*
X183419136Y-101468705D01*
X183212980Y-101564837D01*
X183139991Y-101615945D01*
X183139990Y-101615945D01*
X176575545Y-101615945D01*
X176575545Y-99723998D01*
X183139990Y-99723998D01*
X183212979Y-99775105D01*
X183419137Y-99871238D01*
X183638861Y-99930113D01*
X183865464Y-99949938D01*
X184092066Y-99930113D01*
X184311790Y-99871238D01*
X184517944Y-99775106D01*
X184590936Y-99723997D01*
X183865465Y-98998525D01*
X183865464Y-98998525D01*
X183139990Y-99723997D01*
X183139990Y-99723998D01*
X176575545Y-99723998D01*
X176575545Y-98644971D01*
X182560497Y-98644971D01*
X182580322Y-98871574D01*
X182639197Y-99091298D01*
X182735330Y-99297456D01*
X182786436Y-99370443D01*
X182786437Y-99370444D01*
X183511909Y-98644972D01*
X184219017Y-98644972D01*
X184944489Y-99370444D01*
X184995598Y-99297452D01*
X185091730Y-99091298D01*
X185150605Y-98871574D01*
X185170430Y-98644971D01*
X185150605Y-98418369D01*
X185091730Y-98198645D01*
X184995597Y-97992487D01*
X184944489Y-97919498D01*
X184219017Y-98644970D01*
X184219017Y-98644972D01*
X183511909Y-98644972D01*
X183511910Y-98644971D01*
X183511910Y-98644970D01*
X182786437Y-97919499D01*
X182735329Y-97992488D01*
X182639197Y-98198644D01*
X182580322Y-98418369D01*
X182560497Y-98644971D01*
X176575545Y-98644971D01*
X176575545Y-97565945D01*
X183139990Y-97565945D01*
X183865464Y-98291418D01*
X183865465Y-98291418D01*
X184590936Y-97565946D01*
X184590935Y-97565944D01*
X184517948Y-97514838D01*
X184311790Y-97418705D01*
X184092066Y-97359830D01*
X183865464Y-97340005D01*
X183638861Y-97359830D01*
X183419136Y-97418705D01*
X183212980Y-97514837D01*
X183139991Y-97565945D01*
X183139990Y-97565945D01*
X176575545Y-97565945D01*
X176575545Y-95673998D01*
X183139990Y-95673998D01*
X183212979Y-95725105D01*
X183419137Y-95821238D01*
X183638861Y-95880113D01*
X183865464Y-95899938D01*
X184092066Y-95880113D01*
X184311790Y-95821238D01*
X184517944Y-95725106D01*
X184590936Y-95673997D01*
X183865465Y-94948525D01*
X183865464Y-94948525D01*
X183139990Y-95673997D01*
X183139990Y-95673998D01*
X176575545Y-95673998D01*
X176575545Y-94594972D01*
X182560497Y-94594972D01*
X182580322Y-94821574D01*
X182639197Y-95041298D01*
X182735330Y-95247456D01*
X182786436Y-95320443D01*
X182786438Y-95320444D01*
X183511910Y-94594973D01*
X184219017Y-94594973D01*
X184944489Y-95320444D01*
X184995598Y-95247452D01*
X185091730Y-95041298D01*
X185150605Y-94821574D01*
X185170430Y-94594972D01*
X185150605Y-94368369D01*
X185091730Y-94148645D01*
X184995597Y-93942487D01*
X184944489Y-93869498D01*
X184219017Y-94594972D01*
X184219017Y-94594973D01*
X183511910Y-94594973D01*
X183511910Y-94594972D01*
X182786437Y-93869498D01*
X182786437Y-93869499D01*
X182735329Y-93942488D01*
X182639197Y-94148644D01*
X182580322Y-94368369D01*
X182560497Y-94594972D01*
X176575545Y-94594972D01*
X176575545Y-93515945D01*
X183139990Y-93515945D01*
X183865464Y-94241418D01*
X183865465Y-94241418D01*
X184590936Y-93515946D01*
X184590935Y-93515944D01*
X184517948Y-93464838D01*
X184311790Y-93368705D01*
X184092066Y-93309830D01*
X183865464Y-93290005D01*
X183638861Y-93309830D01*
X183419136Y-93368705D01*
X183212980Y-93464837D01*
X183139991Y-93515945D01*
X183139990Y-93515945D01*
X176575545Y-93515945D01*
X176575545Y-91739234D01*
X176577808Y-91718730D01*
X176576437Y-91675105D01*
X176575606Y-91648638D01*
X176575545Y-91644744D01*
X176575545Y-91623998D01*
X183139990Y-91623998D01*
X183212979Y-91675105D01*
X183419137Y-91771238D01*
X183638861Y-91830113D01*
X183865464Y-91849938D01*
X184092066Y-91830113D01*
X184311790Y-91771238D01*
X184517944Y-91675106D01*
X184590936Y-91623997D01*
X183865465Y-90898525D01*
X183865464Y-90898525D01*
X183139990Y-91623997D01*
X183139990Y-91623998D01*
X176575545Y-91623998D01*
X176575545Y-91617150D01*
X176575545Y-91617143D01*
X176575040Y-91613146D01*
X176574125Y-91601516D01*
X176573715Y-91588459D01*
X176572754Y-91557866D01*
X176567165Y-91538633D01*
X176563219Y-91519575D01*
X176560709Y-91499699D01*
X176544633Y-91459097D01*
X176540849Y-91448046D01*
X176528687Y-91406186D01*
X176528663Y-91406103D01*
X176518459Y-91388848D01*
X176509906Y-91371388D01*
X176504012Y-91356502D01*
X176502531Y-91352761D01*
X176476853Y-91317418D01*
X176470446Y-91307664D01*
X176459857Y-91289759D01*
X176448215Y-91270073D01*
X176434051Y-91255909D01*
X176421412Y-91241110D01*
X176409640Y-91224906D01*
X176375986Y-91197066D01*
X176367344Y-91189202D01*
X175723115Y-90544972D01*
X182560497Y-90544972D01*
X182580322Y-90771574D01*
X182639197Y-90991298D01*
X182735330Y-91197456D01*
X182786436Y-91270443D01*
X182786438Y-91270444D01*
X183511910Y-90544973D01*
X184219017Y-90544973D01*
X184944489Y-91270444D01*
X184995598Y-91197452D01*
X185091730Y-90991298D01*
X185150605Y-90771574D01*
X185170430Y-90544972D01*
X185150605Y-90318369D01*
X185091730Y-90098645D01*
X184995597Y-89892487D01*
X184944489Y-89819498D01*
X184219017Y-90544972D01*
X184219017Y-90544973D01*
X183511910Y-90544973D01*
X183511910Y-90544972D01*
X182786437Y-89819498D01*
X182786437Y-89819499D01*
X182735329Y-89892488D01*
X182639197Y-90098644D01*
X182580322Y-90318369D01*
X182560497Y-90544972D01*
X175723115Y-90544972D01*
X175339326Y-90161183D01*
X175326430Y-90145085D01*
X175275299Y-90097070D01*
X175272502Y-90094359D01*
X175252994Y-90074851D01*
X175249814Y-90072384D01*
X175240948Y-90064811D01*
X175209106Y-90034910D01*
X175191548Y-90025257D01*
X175175288Y-90014576D01*
X175159460Y-90002299D01*
X175119375Y-89984952D01*
X175108885Y-89979813D01*
X175070615Y-89958774D01*
X175051215Y-89953793D01*
X175032808Y-89947491D01*
X175014421Y-89939534D01*
X174971282Y-89932701D01*
X174959848Y-89930333D01*
X174902372Y-89915577D01*
X174902452Y-89915263D01*
X174862396Y-89905461D01*
X174818078Y-89866595D01*
X174705511Y-89705832D01*
X174544604Y-89544925D01*
X174431808Y-89465945D01*
X183139990Y-89465945D01*
X183865464Y-90191418D01*
X183865465Y-90191418D01*
X184590936Y-89465946D01*
X184590935Y-89465944D01*
X184517948Y-89414838D01*
X184311790Y-89318705D01*
X184092066Y-89259830D01*
X183865464Y-89240005D01*
X183638861Y-89259830D01*
X183419136Y-89318705D01*
X183212980Y-89414837D01*
X183139991Y-89465945D01*
X183139990Y-89465945D01*
X174431808Y-89465945D01*
X174358199Y-89414404D01*
X174151961Y-89318233D01*
X173932153Y-89259336D01*
X173705464Y-89239503D01*
X173478772Y-89259336D01*
X173362057Y-89290610D01*
X173305773Y-89292452D01*
X173254477Y-89269211D01*
X173218752Y-89225679D01*
X173205964Y-89170835D01*
X173205964Y-79475490D01*
X173208228Y-79454982D01*
X173206563Y-79401999D01*
X173206025Y-79384859D01*
X173205964Y-79380965D01*
X173205964Y-79353400D01*
X173205964Y-79353396D01*
X173205461Y-79349416D01*
X173204545Y-79337774D01*
X173203174Y-79294119D01*
X173197582Y-79274872D01*
X173193638Y-79255831D01*
X173191128Y-79235954D01*
X173175043Y-79195329D01*
X173171272Y-79184314D01*
X173159082Y-79142356D01*
X173148878Y-79125101D01*
X173140325Y-79107641D01*
X173132950Y-79089015D01*
X173132950Y-79089014D01*
X173107272Y-79053671D01*
X173100865Y-79043917D01*
X173097227Y-79037765D01*
X173078634Y-79006326D01*
X173064469Y-78992161D01*
X173051831Y-78977363D01*
X173040059Y-78961159D01*
X173006405Y-78933319D01*
X172997763Y-78925455D01*
X170093725Y-76021416D01*
X170060580Y-75961610D01*
X170064174Y-75893328D01*
X170103415Y-75837333D01*
X170166370Y-75810650D01*
X170213165Y-75818094D01*
X170214187Y-75814281D01*
X170224665Y-75817088D01*
X170224666Y-75817089D01*
X170444470Y-75875985D01*
X170671162Y-75895818D01*
X170897854Y-75875985D01*
X171117658Y-75817089D01*
X171323896Y-75720918D01*
X171510301Y-75590397D01*
X171671209Y-75429489D01*
X171801730Y-75243084D01*
X171897901Y-75036846D01*
X171956797Y-74817042D01*
X171976630Y-74590350D01*
X171956797Y-74363658D01*
X171897901Y-74143854D01*
X171801730Y-73937616D01*
X171797523Y-73931608D01*
X171671208Y-73751209D01*
X171510302Y-73590303D01*
X171323897Y-73459782D01*
X171117659Y-73363611D01*
X170897851Y-73304714D01*
X170671162Y-73284881D01*
X170444472Y-73304714D01*
X170224664Y-73363611D01*
X170018426Y-73459782D01*
X169832021Y-73590303D01*
X169671115Y-73751209D01*
X169540594Y-73937614D01*
X169444423Y-74143852D01*
X169385526Y-74363660D01*
X169365693Y-74590350D01*
X169385526Y-74817039D01*
X169447231Y-75047325D01*
X169443425Y-75048344D01*
X169450853Y-75095203D01*
X169424148Y-75158133D01*
X169368153Y-75197347D01*
X169299885Y-75200928D01*
X169240095Y-75167786D01*
X167250072Y-73177763D01*
X167237176Y-73161665D01*
X167186045Y-73113650D01*
X167183248Y-73110939D01*
X167163740Y-73091431D01*
X167160560Y-73088964D01*
X167151694Y-73081391D01*
X167119852Y-73051490D01*
X167102294Y-73041837D01*
X167086034Y-73031156D01*
X167070206Y-73018879D01*
X167030121Y-73001532D01*
X167019631Y-72996393D01*
X166981361Y-72975354D01*
X166961961Y-72970373D01*
X166943554Y-72964071D01*
X166925167Y-72956114D01*
X166882028Y-72949281D01*
X166870594Y-72946913D01*
X166828289Y-72936052D01*
X166808254Y-72936052D01*
X166788856Y-72934525D01*
X166781432Y-72933349D01*
X166769075Y-72931392D01*
X166769074Y-72931392D01*
X166736021Y-72934516D01*
X166725595Y-72935502D01*
X166713926Y-72936052D01*
X142943747Y-72936052D01*
X142893312Y-72925332D01*
X142851598Y-72895025D01*
X142845871Y-72888664D01*
X142692730Y-72777401D01*
X142692729Y-72777400D01*
X142692727Y-72777399D01*
X142519802Y-72700407D01*
X142334648Y-72661052D01*
X142334646Y-72661052D01*
X142145354Y-72661052D01*
X142145352Y-72661052D01*
X141960197Y-72700407D01*
X141787269Y-72777400D01*
X141634129Y-72888662D01*
X141507466Y-73029335D01*
X141412820Y-73193267D01*
X141354326Y-73373294D01*
X141334540Y-73561551D01*
X141354326Y-73749809D01*
X141412820Y-73929836D01*
X141507466Y-74093768D01*
X141634129Y-74234441D01*
X141787269Y-74345703D01*
X141960197Y-74422696D01*
X142145352Y-74462052D01*
X142145354Y-74462052D01*
X142334646Y-74462052D01*
X142334648Y-74462052D01*
X142458084Y-74435814D01*
X142519803Y-74422696D01*
X142692730Y-74345703D01*
X142845871Y-74234440D01*
X142851598Y-74228078D01*
X142893312Y-74197772D01*
X142943747Y-74187052D01*
X145018367Y-74187052D01*
X145080367Y-74203665D01*
X145125754Y-74249052D01*
X145142367Y-74311052D01*
X145142367Y-76009009D01*
X145148776Y-76068624D01*
X145172476Y-76132167D01*
X145179327Y-76190954D01*
X145158150Y-76246220D01*
X145113769Y-76285376D01*
X145056294Y-76299500D01*
X121906747Y-76299500D01*
X121886243Y-76297236D01*
X121816151Y-76299439D01*
X121812257Y-76299500D01*
X121784655Y-76299500D01*
X121780660Y-76300004D01*
X121769036Y-76300918D01*
X121725375Y-76302290D01*
X121706135Y-76307880D01*
X121687088Y-76311825D01*
X121667216Y-76314335D01*
X121626606Y-76330413D01*
X121615561Y-76334194D01*
X121573618Y-76346380D01*
X121556376Y-76356578D01*
X121538904Y-76365138D01*
X121520273Y-76372514D01*
X121484945Y-76398181D01*
X121475187Y-76404591D01*
X121437586Y-76426829D01*
X121423417Y-76440998D01*
X121408629Y-76453628D01*
X121392420Y-76465405D01*
X121364579Y-76499058D01*
X121356718Y-76507696D01*
X118955093Y-78909321D01*
X118914865Y-78936201D01*
X118867412Y-78945640D01*
X117654997Y-78945640D01*
X117595382Y-78952049D01*
X117460536Y-79002344D01*
X117345321Y-79088594D01*
X117259071Y-79203808D01*
X117215201Y-79321429D01*
X117208776Y-79338657D01*
X117206079Y-79363747D01*
X117202367Y-79398270D01*
X117202367Y-81094009D01*
X117208108Y-81147408D01*
X117208776Y-81153623D01*
X117259071Y-81288471D01*
X117345321Y-81403686D01*
X117460536Y-81489936D01*
X117595384Y-81540231D01*
X117654994Y-81546640D01*
X119350739Y-81546639D01*
X119410350Y-81540231D01*
X119545198Y-81489936D01*
X119660413Y-81403686D01*
X119746663Y-81288471D01*
X119796958Y-81153623D01*
X119800729Y-81118545D01*
X119821106Y-81062626D01*
X119865195Y-81022641D01*
X119922836Y-81007807D01*
X119980749Y-81021540D01*
X120025592Y-81060677D01*
X120042818Y-81085278D01*
X120203726Y-81246186D01*
X120390131Y-81376707D01*
X120390132Y-81376707D01*
X120390133Y-81376708D01*
X120596371Y-81472879D01*
X120816175Y-81531775D01*
X121042867Y-81551608D01*
X121269559Y-81531775D01*
X121489363Y-81472879D01*
X121695601Y-81376708D01*
X121882006Y-81246187D01*
X122042914Y-81085279D01*
X122173435Y-80898874D01*
X122200760Y-80840274D01*
X122246516Y-80788099D01*
X122313141Y-80768679D01*
X122379766Y-80788098D01*
X122425524Y-80840273D01*
X122452733Y-80898622D01*
X122583208Y-81084959D01*
X122744047Y-81245798D01*
X122930386Y-81376274D01*
X123136540Y-81472406D01*
X123332866Y-81525011D01*
X123332867Y-81525012D01*
X123332867Y-78943065D01*
X123332409Y-78942440D01*
X123327869Y-78873190D01*
X123361247Y-78812350D01*
X124136778Y-78036819D01*
X124177007Y-78009939D01*
X124224460Y-78000500D01*
X144215284Y-78000500D01*
X144262737Y-78009939D01*
X144302965Y-78036819D01*
X145467801Y-79201656D01*
X145499895Y-79257243D01*
X145499895Y-79321429D01*
X145467803Y-79377017D01*
X145442818Y-79402002D01*
X145312299Y-79588404D01*
X145216128Y-79794642D01*
X145157231Y-80014450D01*
X145137398Y-80241140D01*
X145157231Y-80467829D01*
X145216128Y-80687637D01*
X145278666Y-80821748D01*
X145290019Y-80882263D01*
X145270865Y-80940778D01*
X145225927Y-80982867D01*
X145166284Y-80998153D01*
X137561230Y-80998153D01*
X137501587Y-80982867D01*
X137456649Y-80940778D01*
X137437495Y-80882263D01*
X137448848Y-80821748D01*
X137509133Y-80692466D01*
X137561739Y-80496140D01*
X136156867Y-80496140D01*
X136094867Y-80479527D01*
X136049480Y-80434140D01*
X136032867Y-80372140D01*
X136032867Y-78967268D01*
X136532867Y-78967268D01*
X136532867Y-79996140D01*
X137561739Y-79996140D01*
X137561738Y-79996139D01*
X137509133Y-79799813D01*
X137413001Y-79593659D01*
X137282525Y-79407320D01*
X137121686Y-79246481D01*
X136935347Y-79116005D01*
X136729193Y-79019873D01*
X136532867Y-78967268D01*
X136032867Y-78967268D01*
X136032866Y-78967268D01*
X135836540Y-79019873D01*
X135630386Y-79116005D01*
X135444047Y-79246481D01*
X135283208Y-79407320D01*
X135152730Y-79593662D01*
X135125523Y-79652006D01*
X135079766Y-79704181D01*
X135013141Y-79723600D01*
X134946517Y-79704180D01*
X134900760Y-79652005D01*
X134900681Y-79651836D01*
X134873435Y-79593406D01*
X134871295Y-79590350D01*
X134742913Y-79406999D01*
X134582007Y-79246093D01*
X134395602Y-79115572D01*
X134189364Y-79019401D01*
X133969556Y-78960504D01*
X133742867Y-78940671D01*
X133516177Y-78960504D01*
X133296369Y-79019401D01*
X133090131Y-79115572D01*
X132903726Y-79246093D01*
X132742820Y-79406999D01*
X132612300Y-79593403D01*
X132585249Y-79651415D01*
X132539492Y-79703590D01*
X132472867Y-79723009D01*
X132406242Y-79703590D01*
X132360485Y-79651415D01*
X132333554Y-79593662D01*
X132333435Y-79593406D01*
X132250870Y-79475490D01*
X132202913Y-79406999D01*
X132042007Y-79246093D01*
X131855602Y-79115572D01*
X131649364Y-79019401D01*
X131429556Y-78960504D01*
X131202867Y-78940671D01*
X130976177Y-78960504D01*
X130756369Y-79019401D01*
X130550131Y-79115572D01*
X130363726Y-79246093D01*
X130202820Y-79406999D01*
X130072300Y-79593403D01*
X130045249Y-79651415D01*
X129999492Y-79703590D01*
X129932867Y-79723009D01*
X129866242Y-79703590D01*
X129820485Y-79651415D01*
X129793554Y-79593662D01*
X129793435Y-79593406D01*
X129710870Y-79475490D01*
X129662913Y-79406999D01*
X129502007Y-79246093D01*
X129315602Y-79115572D01*
X129109364Y-79019401D01*
X128889556Y-78960504D01*
X128662867Y-78940671D01*
X128436177Y-78960504D01*
X128216369Y-79019401D01*
X128010131Y-79115572D01*
X127823726Y-79246093D01*
X127662820Y-79406999D01*
X127532300Y-79593403D01*
X127505249Y-79651415D01*
X127459492Y-79703590D01*
X127392867Y-79723009D01*
X127326242Y-79703590D01*
X127280485Y-79651415D01*
X127253554Y-79593662D01*
X127253435Y-79593406D01*
X127170870Y-79475490D01*
X127122913Y-79406999D01*
X126962007Y-79246093D01*
X126775602Y-79115572D01*
X126569364Y-79019401D01*
X126349556Y-78960504D01*
X126122867Y-78940671D01*
X125896177Y-78960504D01*
X125676369Y-79019401D01*
X125470131Y-79115572D01*
X125283726Y-79246093D01*
X125122820Y-79406999D01*
X124992297Y-79593407D01*
X124964972Y-79652006D01*
X124919215Y-79704181D01*
X124852590Y-79723600D01*
X124785966Y-79704180D01*
X124740209Y-79652005D01*
X124713001Y-79593659D01*
X124582525Y-79407320D01*
X124421686Y-79246481D01*
X124235347Y-79116005D01*
X124029193Y-79019873D01*
X123832867Y-78967268D01*
X123832867Y-81525011D01*
X124029193Y-81472406D01*
X124235347Y-81376274D01*
X124421686Y-81245798D01*
X124582525Y-81084959D01*
X124713002Y-80898619D01*
X124740209Y-80840275D01*
X124785965Y-80788099D01*
X124852590Y-80768679D01*
X124919215Y-80788098D01*
X124964972Y-80840272D01*
X124992299Y-80898873D01*
X124992300Y-80898876D01*
X125122820Y-81085280D01*
X125283726Y-81246186D01*
X125470131Y-81376707D01*
X125470132Y-81376707D01*
X125470133Y-81376708D01*
X125676371Y-81472879D01*
X125896175Y-81531775D01*
X126047302Y-81544996D01*
X126122866Y-81551608D01*
X126122866Y-81551607D01*
X126122867Y-81551608D01*
X126138060Y-81550278D01*
X126166966Y-81547750D01*
X126226224Y-81557135D01*
X126274140Y-81593242D01*
X126299496Y-81647617D01*
X126296356Y-81707532D01*
X126265455Y-81758959D01*
X122423954Y-85600460D01*
X122363639Y-85633721D01*
X122294881Y-85629666D01*
X122238893Y-85589546D01*
X122212953Y-85525743D01*
X122204694Y-85447159D01*
X122146199Y-85267131D01*
X122146199Y-85267130D01*
X122051553Y-85103198D01*
X121924890Y-84962525D01*
X121771750Y-84851263D01*
X121598822Y-84774270D01*
X121413668Y-84734915D01*
X121413666Y-84734915D01*
X121224374Y-84734915D01*
X121224372Y-84734915D01*
X121039217Y-84774270D01*
X120866289Y-84851263D01*
X120713149Y-84962525D01*
X120586486Y-85103198D01*
X120491840Y-85267130D01*
X120433346Y-85447157D01*
X120412553Y-85644995D01*
X120401153Y-85685416D01*
X120376913Y-85719714D01*
X118738008Y-87358620D01*
X118697780Y-87385500D01*
X118650327Y-87394939D01*
X104899507Y-87394939D01*
X104879000Y-87392674D01*
X104808890Y-87394878D01*
X104804995Y-87394939D01*
X104777413Y-87394939D01*
X104773428Y-87395442D01*
X104761796Y-87396357D01*
X104718132Y-87397729D01*
X104698892Y-87403319D01*
X104679844Y-87407264D01*
X104659972Y-87409774D01*
X104619362Y-87425852D01*
X104608317Y-87429633D01*
X104566373Y-87441820D01*
X104549128Y-87452018D01*
X104531667Y-87460572D01*
X104513030Y-87467951D01*
X104477694Y-87493624D01*
X104467937Y-87500034D01*
X104430343Y-87522268D01*
X104416176Y-87536435D01*
X104401387Y-87549065D01*
X104385176Y-87560843D01*
X104357335Y-87594497D01*
X104349474Y-87603136D01*
X99939965Y-92012644D01*
X99923867Y-92025541D01*
X99875853Y-92076670D01*
X99873148Y-92079462D01*
X99853631Y-92098979D01*
X99851172Y-92102150D01*
X99843599Y-92111017D01*
X99813692Y-92142865D01*
X99804042Y-92160419D01*
X99793366Y-92176673D01*
X99781083Y-92192508D01*
X99763732Y-92232603D01*
X99758595Y-92243089D01*
X99737559Y-92281352D01*
X99732578Y-92300754D01*
X99726277Y-92319156D01*
X99718318Y-92337547D01*
X99711485Y-92380687D01*
X99709117Y-92392119D01*
X99698257Y-92434423D01*
X99698257Y-92454461D01*
X99696730Y-92473860D01*
X99693597Y-92493639D01*
X99697707Y-92537120D01*
X99698257Y-92548789D01*
X99698257Y-100279695D01*
X99695992Y-100300201D01*
X99698196Y-100370312D01*
X99698257Y-100374207D01*
X99698257Y-100401788D01*
X99698760Y-100405773D01*
X99699675Y-100417406D01*
X99701047Y-100461065D01*
X99706636Y-100480299D01*
X99710582Y-100499355D01*
X99713092Y-100519231D01*
X99729171Y-100559843D01*
X99732954Y-100570890D01*
X99745139Y-100612830D01*
X99755337Y-100630074D01*
X99763893Y-100647539D01*
X99771271Y-100666171D01*
X99771272Y-100666172D01*
X99796937Y-100701498D01*
X99803350Y-100711261D01*
X99825583Y-100748855D01*
X99825586Y-100748858D01*
X99825587Y-100748859D01*
X99839752Y-100763024D01*
X99852384Y-100777814D01*
X99864163Y-100794026D01*
X99897815Y-100821865D01*
X99906456Y-100829728D01*
X101062854Y-101986127D01*
X101075754Y-102002228D01*
X101126881Y-102050240D01*
X101129678Y-102052951D01*
X101143384Y-102066657D01*
X101175478Y-102122244D01*
X101175478Y-102186431D01*
X101143385Y-102242018D01*
X101061109Y-102324295D01*
X101061106Y-102324298D01*
X101061106Y-102324299D01*
X100960290Y-102468280D01*
X100939495Y-102497978D01*
X100849893Y-102690129D01*
X100795017Y-102894929D01*
X100776538Y-103106140D01*
X100795017Y-103317350D01*
X100849893Y-103522150D01*
X100883955Y-103595195D01*
X100939496Y-103714304D01*
X101061106Y-103887981D01*
X101211026Y-104037901D01*
X101308547Y-104106186D01*
X101314490Y-104110347D01*
X101353356Y-104154665D01*
X101367367Y-104211922D01*
X101367367Y-107749491D01*
X101365102Y-107769997D01*
X101367306Y-107840108D01*
X101367367Y-107844003D01*
X101367367Y-107871584D01*
X101367870Y-107875569D01*
X101368785Y-107887202D01*
X101370157Y-107930861D01*
X101375746Y-107950095D01*
X101379692Y-107969151D01*
X101382202Y-107989027D01*
X101398281Y-108029639D01*
X101402064Y-108040686D01*
X101414249Y-108082626D01*
X101424447Y-108099870D01*
X101433003Y-108117335D01*
X101440381Y-108135967D01*
X101440382Y-108135968D01*
X101466047Y-108171294D01*
X101472460Y-108181057D01*
X101494693Y-108218651D01*
X101494696Y-108218654D01*
X101494697Y-108218655D01*
X101508862Y-108232820D01*
X101521494Y-108247610D01*
X101533273Y-108263822D01*
X101566925Y-108291661D01*
X101575566Y-108299524D01*
X107743613Y-114467571D01*
X107774193Y-114517964D01*
X107778048Y-114576783D01*
X107754309Y-114630737D01*
X107708339Y-114667633D01*
X107690383Y-114676006D01*
X107617393Y-114727113D01*
X109421892Y-116531612D01*
X109473001Y-116458620D01*
X109569133Y-116252466D01*
X109628008Y-116032742D01*
X109646636Y-115819833D01*
X109666564Y-115762501D01*
X109711314Y-115721495D01*
X109770164Y-115706640D01*
X111937266Y-115706640D01*
X111984719Y-115716079D01*
X112024947Y-115742959D01*
X116258119Y-119976132D01*
X116291162Y-120035498D01*
X116287961Y-120103364D01*
X116249479Y-120159357D01*
X116187267Y-120186666D01*
X116120003Y-120177093D01*
X115986253Y-120117543D01*
X115801101Y-120078189D01*
X115801099Y-120078189D01*
X115611807Y-120078189D01*
X115611805Y-120078189D01*
X115426650Y-120117544D01*
X115253722Y-120194537D01*
X115100582Y-120305799D01*
X114973919Y-120446472D01*
X114879273Y-120610404D01*
X114820779Y-120790431D01*
X114800993Y-120978689D01*
X114805122Y-121017982D01*
X114804275Y-121050336D01*
X114802233Y-121063224D01*
X114805783Y-121130950D01*
X114805953Y-121137439D01*
X114805953Y-121157811D01*
X114808080Y-121178058D01*
X114808589Y-121184522D01*
X114812139Y-121252258D01*
X114815768Y-121265800D01*
X114819313Y-121284928D01*
X114820778Y-121298867D01*
X114841735Y-121363367D01*
X114843578Y-121369589D01*
X114861132Y-121435100D01*
X114867495Y-121447587D01*
X114874942Y-121465566D01*
X114879273Y-121478896D01*
X114913178Y-121537621D01*
X114916276Y-121543326D01*
X114944286Y-121598299D01*
X114957705Y-121659462D01*
X114939528Y-121719384D01*
X114894390Y-121762784D01*
X114833801Y-121778594D01*
X100584486Y-121778594D01*
X100522486Y-121761981D01*
X100477099Y-121716594D01*
X100460486Y-121654594D01*
X100460486Y-119154009D01*
X107042367Y-119154009D01*
X107048776Y-119213624D01*
X107053936Y-119227458D01*
X107099071Y-119348471D01*
X107185321Y-119463686D01*
X107300536Y-119549936D01*
X107435384Y-119600231D01*
X107494994Y-119606640D01*
X109190739Y-119606639D01*
X109250350Y-119600231D01*
X109385198Y-119549936D01*
X109500413Y-119463686D01*
X109586663Y-119348471D01*
X109636958Y-119213623D01*
X109643367Y-119154013D01*
X109643366Y-117458268D01*
X109636958Y-117398657D01*
X109586663Y-117263809D01*
X109500413Y-117148594D01*
X109385198Y-117062344D01*
X109250350Y-117012049D01*
X109190740Y-117005640D01*
X109190736Y-117005640D01*
X109184132Y-117004930D01*
X109184323Y-117003145D01*
X109128024Y-116987178D01*
X109082310Y-116937290D01*
X109073281Y-116890107D01*
X108342868Y-116159693D01*
X108342867Y-116159693D01*
X107612451Y-116890107D01*
X107603425Y-116937283D01*
X107557724Y-116987169D01*
X107501410Y-117003150D01*
X107501602Y-117004931D01*
X107494996Y-117005640D01*
X107494995Y-117005641D01*
X107471534Y-117008163D01*
X107435382Y-117012049D01*
X107300536Y-117062344D01*
X107185321Y-117148594D01*
X107099071Y-117263808D01*
X107048776Y-117398655D01*
X107048776Y-117398657D01*
X107045307Y-117430927D01*
X107042367Y-117458270D01*
X107042367Y-119154009D01*
X100460486Y-119154009D01*
X100460486Y-115806140D01*
X107037900Y-115806140D01*
X107057725Y-116032742D01*
X107116600Y-116252466D01*
X107212733Y-116458624D01*
X107263839Y-116531611D01*
X107263841Y-116531612D01*
X107989313Y-115806141D01*
X107989313Y-115806140D01*
X107263840Y-115080666D01*
X107263840Y-115080667D01*
X107212732Y-115153656D01*
X107116600Y-115359812D01*
X107057725Y-115579537D01*
X107037900Y-115806140D01*
X100460486Y-115806140D01*
X100460486Y-111661419D01*
X89993985Y-111661419D01*
X89932147Y-111644900D01*
X89886785Y-111599743D01*
X89869986Y-111537980D01*
X89751380Y-85326140D01*
X109577398Y-85326140D01*
X109597231Y-85552829D01*
X109656128Y-85772637D01*
X109752299Y-85978875D01*
X109882820Y-86165280D01*
X110043726Y-86326186D01*
X110230131Y-86456707D01*
X110230132Y-86456707D01*
X110230133Y-86456708D01*
X110436371Y-86552879D01*
X110656175Y-86611775D01*
X110807303Y-86624997D01*
X110882866Y-86631608D01*
X110882866Y-86631607D01*
X110882867Y-86631608D01*
X111109559Y-86611775D01*
X111329363Y-86552879D01*
X111535601Y-86456708D01*
X111609211Y-86405166D01*
X115157393Y-86405166D01*
X115230382Y-86456273D01*
X115436540Y-86552406D01*
X115656264Y-86611281D01*
X115882866Y-86631106D01*
X116109469Y-86611281D01*
X116329193Y-86552406D01*
X116535347Y-86456274D01*
X116608339Y-86405165D01*
X115882868Y-85679693D01*
X115882867Y-85679693D01*
X115157393Y-86405165D01*
X115157393Y-86405166D01*
X111609211Y-86405166D01*
X111722006Y-86326187D01*
X111882914Y-86165279D01*
X112013435Y-85978874D01*
X112109606Y-85772636D01*
X112168502Y-85552832D01*
X112188335Y-85326140D01*
X114577900Y-85326140D01*
X114597725Y-85552742D01*
X114656600Y-85772466D01*
X114752733Y-85978624D01*
X114803839Y-86051611D01*
X114803841Y-86051612D01*
X115529313Y-85326141D01*
X116236420Y-85326141D01*
X116961892Y-86051612D01*
X117013001Y-85978620D01*
X117109133Y-85772466D01*
X117168008Y-85552742D01*
X117187833Y-85326140D01*
X117168008Y-85099537D01*
X117109133Y-84879813D01*
X117013000Y-84673655D01*
X116961892Y-84600666D01*
X116236420Y-85326140D01*
X116236420Y-85326141D01*
X115529313Y-85326141D01*
X115529313Y-85326140D01*
X114803840Y-84600666D01*
X114803840Y-84600667D01*
X114752732Y-84673656D01*
X114656600Y-84879812D01*
X114597725Y-85099537D01*
X114577900Y-85326140D01*
X112188335Y-85326140D01*
X112168502Y-85099448D01*
X112109606Y-84879644D01*
X112013435Y-84673406D01*
X111997379Y-84650476D01*
X111882913Y-84486999D01*
X111722007Y-84326093D01*
X111609211Y-84247113D01*
X115157393Y-84247113D01*
X115882867Y-84972586D01*
X115882868Y-84972586D01*
X116608339Y-84247114D01*
X116608338Y-84247112D01*
X116535351Y-84196006D01*
X116329193Y-84099873D01*
X116109469Y-84040998D01*
X115882866Y-84021173D01*
X115656264Y-84040998D01*
X115436539Y-84099873D01*
X115230383Y-84196005D01*
X115157394Y-84247113D01*
X115157393Y-84247113D01*
X111609211Y-84247113D01*
X111535602Y-84195572D01*
X111329364Y-84099401D01*
X111109556Y-84040504D01*
X110882866Y-84020671D01*
X110656177Y-84040504D01*
X110436369Y-84099401D01*
X110230131Y-84195572D01*
X110043726Y-84326093D01*
X109882820Y-84486999D01*
X109752299Y-84673404D01*
X109656128Y-84879642D01*
X109597231Y-85099450D01*
X109577398Y-85326140D01*
X89751380Y-85326140D01*
X89721421Y-78705166D01*
X112697393Y-78705166D01*
X112770382Y-78756273D01*
X112976540Y-78852406D01*
X113196264Y-78911281D01*
X113422866Y-78931106D01*
X113649469Y-78911281D01*
X113869193Y-78852406D01*
X114075347Y-78756274D01*
X114148339Y-78705165D01*
X113422868Y-77979693D01*
X113422867Y-77979693D01*
X112697393Y-78705165D01*
X112697393Y-78705166D01*
X89721421Y-78705166D01*
X89716538Y-77626140D01*
X112117900Y-77626140D01*
X112137725Y-77852742D01*
X112196600Y-78072466D01*
X112292733Y-78278624D01*
X112343839Y-78351611D01*
X112343841Y-78351612D01*
X113069313Y-77626141D01*
X113776420Y-77626141D01*
X114501892Y-78351612D01*
X114553001Y-78278620D01*
X114649133Y-78072466D01*
X114708008Y-77852742D01*
X114727833Y-77626140D01*
X114708008Y-77399537D01*
X114649133Y-77179813D01*
X114553000Y-76973655D01*
X114501892Y-76900666D01*
X113776420Y-77626140D01*
X113776420Y-77626141D01*
X113069313Y-77626141D01*
X113069313Y-77626140D01*
X112343840Y-76900666D01*
X112343840Y-76900667D01*
X112292732Y-76973656D01*
X112196600Y-77179812D01*
X112137725Y-77399537D01*
X112117900Y-77626140D01*
X89716538Y-77626140D01*
X89711656Y-76547113D01*
X112697393Y-76547113D01*
X113422865Y-77272586D01*
X113422866Y-77272586D01*
X114148339Y-76547113D01*
X114148338Y-76547112D01*
X114075351Y-76496006D01*
X113869193Y-76399873D01*
X113649469Y-76340998D01*
X113422867Y-76321173D01*
X113196264Y-76340998D01*
X112976539Y-76399873D01*
X112770383Y-76496005D01*
X112697393Y-76547113D01*
X89711656Y-76547113D01*
X89693914Y-72626140D01*
X112117398Y-72626140D01*
X112137231Y-72852829D01*
X112196128Y-73072637D01*
X112292299Y-73278875D01*
X112422820Y-73465280D01*
X112583726Y-73626186D01*
X112770131Y-73756707D01*
X112770132Y-73756707D01*
X112770133Y-73756708D01*
X112976371Y-73852879D01*
X113196175Y-73911775D01*
X113422867Y-73931608D01*
X113649559Y-73911775D01*
X113869363Y-73852879D01*
X114075601Y-73756708D01*
X114262006Y-73626187D01*
X114422914Y-73465279D01*
X114553435Y-73278874D01*
X114649606Y-73072636D01*
X114708502Y-72852832D01*
X114728335Y-72626140D01*
X117197398Y-72626140D01*
X117217231Y-72852829D01*
X117276128Y-73072637D01*
X117372299Y-73278875D01*
X117502820Y-73465280D01*
X117663726Y-73626186D01*
X117850131Y-73756707D01*
X117850132Y-73756707D01*
X117850133Y-73756708D01*
X118056371Y-73852879D01*
X118276175Y-73911775D01*
X118502867Y-73931608D01*
X118729559Y-73911775D01*
X118949363Y-73852879D01*
X119155601Y-73756708D01*
X119342006Y-73626187D01*
X119502914Y-73465279D01*
X119633435Y-73278874D01*
X119660485Y-73220864D01*
X119706242Y-73168689D01*
X119772867Y-73149269D01*
X119839492Y-73168689D01*
X119885249Y-73220865D01*
X119912298Y-73278873D01*
X120042820Y-73465280D01*
X120203726Y-73626186D01*
X120390131Y-73756707D01*
X120390132Y-73756707D01*
X120390133Y-73756708D01*
X120596371Y-73852879D01*
X120816175Y-73911775D01*
X121042867Y-73931608D01*
X121269559Y-73911775D01*
X121489363Y-73852879D01*
X121695601Y-73756708D01*
X121882006Y-73626187D01*
X122042914Y-73465279D01*
X122173435Y-73278874D01*
X122200485Y-73220864D01*
X122246242Y-73168689D01*
X122312867Y-73149269D01*
X122379492Y-73168689D01*
X122425249Y-73220865D01*
X122452298Y-73278873D01*
X122582820Y-73465280D01*
X122743726Y-73626186D01*
X122930131Y-73756707D01*
X122930132Y-73756707D01*
X122930133Y-73756708D01*
X123136371Y-73852879D01*
X123356175Y-73911775D01*
X123582867Y-73931608D01*
X123809559Y-73911775D01*
X124029363Y-73852879D01*
X124235601Y-73756708D01*
X124422006Y-73626187D01*
X124582914Y-73465279D01*
X124713435Y-73278874D01*
X124740485Y-73220864D01*
X124786242Y-73168689D01*
X124852867Y-73149269D01*
X124919492Y-73168689D01*
X124965249Y-73220865D01*
X124992298Y-73278873D01*
X125122820Y-73465280D01*
X125283726Y-73626186D01*
X125470131Y-73756707D01*
X125470132Y-73756707D01*
X125470133Y-73756708D01*
X125676371Y-73852879D01*
X125896175Y-73911775D01*
X126122867Y-73931608D01*
X126349559Y-73911775D01*
X126569363Y-73852879D01*
X126775601Y-73756708D01*
X126962006Y-73626187D01*
X127122914Y-73465279D01*
X127253435Y-73278874D01*
X127280485Y-73220864D01*
X127326242Y-73168689D01*
X127392867Y-73149269D01*
X127459492Y-73168689D01*
X127505249Y-73220865D01*
X127532298Y-73278873D01*
X127662820Y-73465280D01*
X127823726Y-73626186D01*
X128010131Y-73756707D01*
X128010132Y-73756707D01*
X128010133Y-73756708D01*
X128216371Y-73852879D01*
X128436175Y-73911775D01*
X128662867Y-73931608D01*
X128889559Y-73911775D01*
X129109363Y-73852879D01*
X129315601Y-73756708D01*
X129502006Y-73626187D01*
X129662914Y-73465279D01*
X129793435Y-73278874D01*
X129820485Y-73220864D01*
X129866242Y-73168689D01*
X129932867Y-73149269D01*
X129999492Y-73168689D01*
X130045249Y-73220865D01*
X130072298Y-73278873D01*
X130202820Y-73465280D01*
X130363726Y-73626186D01*
X130550131Y-73756707D01*
X130550132Y-73756707D01*
X130550133Y-73756708D01*
X130756371Y-73852879D01*
X130976175Y-73911775D01*
X131202867Y-73931608D01*
X131429559Y-73911775D01*
X131649363Y-73852879D01*
X131855601Y-73756708D01*
X132042006Y-73626187D01*
X132202914Y-73465279D01*
X132333435Y-73278874D01*
X132360485Y-73220864D01*
X132406242Y-73168689D01*
X132472867Y-73149269D01*
X132539492Y-73168689D01*
X132585249Y-73220865D01*
X132612298Y-73278873D01*
X132742820Y-73465280D01*
X132903726Y-73626186D01*
X133090131Y-73756707D01*
X133090132Y-73756707D01*
X133090133Y-73756708D01*
X133296371Y-73852879D01*
X133516175Y-73911775D01*
X133742867Y-73931608D01*
X133969559Y-73911775D01*
X134189363Y-73852879D01*
X134395601Y-73756708D01*
X134582006Y-73626187D01*
X134742914Y-73465279D01*
X134873435Y-73278874D01*
X134900485Y-73220864D01*
X134946242Y-73168689D01*
X135012867Y-73149269D01*
X135079492Y-73168689D01*
X135125249Y-73220865D01*
X135152298Y-73278873D01*
X135282820Y-73465280D01*
X135443726Y-73626186D01*
X135630131Y-73756707D01*
X135630132Y-73756707D01*
X135630133Y-73756708D01*
X135836371Y-73852879D01*
X136056175Y-73911775D01*
X136282867Y-73931608D01*
X136509559Y-73911775D01*
X136729363Y-73852879D01*
X136935601Y-73756708D01*
X137122006Y-73626187D01*
X137282914Y-73465279D01*
X137413435Y-73278874D01*
X137509606Y-73072636D01*
X137568502Y-72852832D01*
X137588335Y-72626140D01*
X137568502Y-72399448D01*
X137509606Y-72179644D01*
X137413435Y-71973406D01*
X137282914Y-71787001D01*
X137282913Y-71786999D01*
X137122007Y-71626093D01*
X136935602Y-71495572D01*
X136729364Y-71399401D01*
X136509556Y-71340504D01*
X136282867Y-71320671D01*
X136056177Y-71340504D01*
X135836369Y-71399401D01*
X135630131Y-71495572D01*
X135443726Y-71626093D01*
X135282820Y-71786999D01*
X135152300Y-71973403D01*
X135125249Y-72031415D01*
X135079492Y-72083590D01*
X135012867Y-72103009D01*
X134946242Y-72083590D01*
X134900485Y-72031415D01*
X134873435Y-71973406D01*
X134742914Y-71787001D01*
X134742913Y-71786999D01*
X134582007Y-71626093D01*
X134395602Y-71495572D01*
X134189364Y-71399401D01*
X133969556Y-71340504D01*
X133742867Y-71320671D01*
X133516177Y-71340504D01*
X133296369Y-71399401D01*
X133090131Y-71495572D01*
X132903726Y-71626093D01*
X132742820Y-71786999D01*
X132612300Y-71973403D01*
X132585249Y-72031415D01*
X132539492Y-72083590D01*
X132472867Y-72103009D01*
X132406242Y-72083590D01*
X132360485Y-72031415D01*
X132333435Y-71973406D01*
X132202914Y-71787001D01*
X132202913Y-71786999D01*
X132042007Y-71626093D01*
X131855602Y-71495572D01*
X131649364Y-71399401D01*
X131429556Y-71340504D01*
X131202867Y-71320671D01*
X130976177Y-71340504D01*
X130756369Y-71399401D01*
X130550131Y-71495572D01*
X130363726Y-71626093D01*
X130202820Y-71786999D01*
X130072300Y-71973403D01*
X130045249Y-72031415D01*
X129999492Y-72083590D01*
X129932867Y-72103009D01*
X129866242Y-72083590D01*
X129820485Y-72031415D01*
X129793435Y-71973406D01*
X129662914Y-71787001D01*
X129662913Y-71786999D01*
X129502007Y-71626093D01*
X129315602Y-71495572D01*
X129109364Y-71399401D01*
X128889556Y-71340504D01*
X128662867Y-71320671D01*
X128436177Y-71340504D01*
X128216369Y-71399401D01*
X128010131Y-71495572D01*
X127823726Y-71626093D01*
X127662820Y-71786999D01*
X127532300Y-71973403D01*
X127505249Y-72031415D01*
X127459492Y-72083590D01*
X127392867Y-72103009D01*
X127326242Y-72083590D01*
X127280485Y-72031415D01*
X127253435Y-71973406D01*
X127122914Y-71787001D01*
X127122913Y-71786999D01*
X126962007Y-71626093D01*
X126775602Y-71495572D01*
X126569364Y-71399401D01*
X126349556Y-71340504D01*
X126122867Y-71320671D01*
X125896177Y-71340504D01*
X125676369Y-71399401D01*
X125470131Y-71495572D01*
X125283726Y-71626093D01*
X125122820Y-71786999D01*
X124992300Y-71973403D01*
X124965249Y-72031415D01*
X124919492Y-72083590D01*
X124852867Y-72103009D01*
X124786242Y-72083590D01*
X124740485Y-72031415D01*
X124713435Y-71973406D01*
X124582914Y-71787001D01*
X124582913Y-71786999D01*
X124422007Y-71626093D01*
X124235602Y-71495572D01*
X124029364Y-71399401D01*
X123809556Y-71340504D01*
X123582867Y-71320671D01*
X123356177Y-71340504D01*
X123136369Y-71399401D01*
X122930131Y-71495572D01*
X122743726Y-71626093D01*
X122582820Y-71786999D01*
X122452300Y-71973403D01*
X122425249Y-72031415D01*
X122379492Y-72083590D01*
X122312867Y-72103009D01*
X122246242Y-72083590D01*
X122200485Y-72031415D01*
X122173435Y-71973406D01*
X122042914Y-71787001D01*
X122042913Y-71786999D01*
X121882007Y-71626093D01*
X121695602Y-71495572D01*
X121489364Y-71399401D01*
X121269556Y-71340504D01*
X121042867Y-71320671D01*
X120816177Y-71340504D01*
X120596369Y-71399401D01*
X120390131Y-71495572D01*
X120203726Y-71626093D01*
X120042820Y-71786999D01*
X119912300Y-71973403D01*
X119885249Y-72031415D01*
X119839492Y-72083590D01*
X119772867Y-72103009D01*
X119706242Y-72083590D01*
X119660485Y-72031415D01*
X119633435Y-71973406D01*
X119502914Y-71787001D01*
X119502913Y-71786999D01*
X119342007Y-71626093D01*
X119155602Y-71495572D01*
X118949364Y-71399401D01*
X118729556Y-71340504D01*
X118502867Y-71320671D01*
X118276177Y-71340504D01*
X118056369Y-71399401D01*
X117850131Y-71495572D01*
X117663726Y-71626093D01*
X117502820Y-71786999D01*
X117372299Y-71973404D01*
X117276128Y-72179642D01*
X117217231Y-72399450D01*
X117197398Y-72626140D01*
X114728335Y-72626140D01*
X114708502Y-72399448D01*
X114649606Y-72179644D01*
X114553435Y-71973406D01*
X114422914Y-71787001D01*
X114422913Y-71786999D01*
X114262007Y-71626093D01*
X114075602Y-71495572D01*
X113869364Y-71399401D01*
X113649556Y-71340504D01*
X113422867Y-71320671D01*
X113196177Y-71340504D01*
X112976369Y-71399401D01*
X112770131Y-71495572D01*
X112583726Y-71626093D01*
X112422820Y-71786999D01*
X112292299Y-71973404D01*
X112196128Y-72179642D01*
X112137231Y-72399450D01*
X112117398Y-72626140D01*
X89693914Y-72626140D01*
X89685782Y-70828986D01*
X89685562Y-69993005D01*
X89702165Y-69930992D01*
X89747554Y-69885591D01*
X89809563Y-69868973D01*
X89870545Y-69868973D01*
X190067442Y-69963409D01*
G37*
%TD.AperFunction*%
%TA.AperFunction,Conductor*%
G36*
X168040949Y-116397637D02*
G01*
X168091344Y-116428217D01*
X168540835Y-116877708D01*
X168567715Y-116917936D01*
X168577154Y-116965389D01*
X168577154Y-120429863D01*
X168568918Y-120474301D01*
X168545306Y-120512832D01*
X168512199Y-120549601D01*
X168470118Y-120596336D01*
X168375474Y-120760265D01*
X168316980Y-120940292D01*
X168315167Y-120957542D01*
X168298459Y-121116513D01*
X168277940Y-121172890D01*
X168233354Y-121213035D01*
X168175139Y-121227550D01*
X164235981Y-121227550D01*
X164215474Y-121225285D01*
X164145364Y-121227489D01*
X164141469Y-121227550D01*
X164113887Y-121227550D01*
X164109902Y-121228053D01*
X164098270Y-121228968D01*
X164054606Y-121230340D01*
X164035366Y-121235930D01*
X164016318Y-121239875D01*
X163996446Y-121242385D01*
X163955836Y-121258463D01*
X163944791Y-121262244D01*
X163902847Y-121274431D01*
X163885602Y-121284629D01*
X163868141Y-121293183D01*
X163849504Y-121300562D01*
X163814168Y-121326235D01*
X163804411Y-121332645D01*
X163766817Y-121354879D01*
X163752650Y-121369046D01*
X163737861Y-121381676D01*
X163721650Y-121393454D01*
X163693809Y-121427108D01*
X163685948Y-121435747D01*
X163379421Y-121742275D01*
X163339193Y-121769155D01*
X163291740Y-121778594D01*
X161817584Y-121778594D01*
X161761289Y-121765079D01*
X161717266Y-121727479D01*
X161695111Y-121673992D01*
X161699653Y-121616276D01*
X161729903Y-121566913D01*
X163453215Y-119843600D01*
X164156596Y-119140218D01*
X164185107Y-119118928D01*
X164218486Y-119106614D01*
X164313924Y-119086329D01*
X164313925Y-119086328D01*
X164313927Y-119086328D01*
X164486851Y-119009336D01*
X164639991Y-118898074D01*
X164685273Y-118847784D01*
X164766654Y-118757401D01*
X164861300Y-118593469D01*
X164919795Y-118413441D01*
X164939581Y-118225185D01*
X164919795Y-118036929D01*
X164885046Y-117929984D01*
X164861300Y-117856900D01*
X164795332Y-117742640D01*
X164778719Y-117680640D01*
X164795332Y-117618640D01*
X164840719Y-117573253D01*
X164902719Y-117556640D01*
X165501433Y-117556640D01*
X165561076Y-117571926D01*
X165606014Y-117614015D01*
X165625168Y-117672530D01*
X165613815Y-117733045D01*
X165536128Y-117899642D01*
X165477231Y-118119450D01*
X165457398Y-118346140D01*
X165477231Y-118572829D01*
X165536128Y-118792637D01*
X165632299Y-118998875D01*
X165762820Y-119185280D01*
X165923726Y-119346186D01*
X166110131Y-119476707D01*
X166110132Y-119476707D01*
X166110133Y-119476708D01*
X166316371Y-119572879D01*
X166536175Y-119631775D01*
X166762867Y-119651608D01*
X166989559Y-119631775D01*
X167209363Y-119572879D01*
X167415601Y-119476708D01*
X167602006Y-119346187D01*
X167762914Y-119185279D01*
X167893435Y-118998874D01*
X167989606Y-118792636D01*
X168048502Y-118572832D01*
X168068335Y-118346140D01*
X168048502Y-118119448D01*
X167989606Y-117899644D01*
X167893435Y-117693406D01*
X167884496Y-117680640D01*
X167762913Y-117506999D01*
X167602007Y-117346093D01*
X167415599Y-117215570D01*
X167357591Y-117188520D01*
X167305416Y-117142763D01*
X167285997Y-117076137D01*
X167305417Y-117009513D01*
X167357588Y-116963759D01*
X167415601Y-116936708D01*
X167602006Y-116806187D01*
X167762914Y-116645279D01*
X167842504Y-116531612D01*
X167899658Y-116449987D01*
X167901235Y-116451091D01*
X167928172Y-116417526D01*
X167982127Y-116393783D01*
X168040949Y-116397637D01*
G37*
%TD.AperFunction*%
%TA.AperFunction,Conductor*%
G36*
X148398579Y-114718194D02*
G01*
X148449798Y-114749031D01*
X152430693Y-118729927D01*
X152443593Y-118746028D01*
X152445710Y-118748016D01*
X152445711Y-118748017D01*
X152491524Y-118791039D01*
X152494720Y-118794040D01*
X152497516Y-118796750D01*
X152517026Y-118816260D01*
X152520208Y-118818728D01*
X152529068Y-118826295D01*
X152536050Y-118832852D01*
X152560915Y-118856202D01*
X152578467Y-118865851D01*
X152594735Y-118876537D01*
X152610561Y-118888813D01*
X152650643Y-118906157D01*
X152661130Y-118911295D01*
X152699404Y-118932337D01*
X152707907Y-118934519D01*
X152718805Y-118937318D01*
X152737210Y-118943618D01*
X152755601Y-118951577D01*
X152798747Y-118958410D01*
X152810165Y-118960775D01*
X152852478Y-118971640D01*
X152852479Y-118971640D01*
X152867652Y-118975536D01*
X152867471Y-118976238D01*
X152905936Y-118985651D01*
X152950254Y-119024517D01*
X153062820Y-119185280D01*
X153223726Y-119346186D01*
X153410131Y-119476707D01*
X153410132Y-119476707D01*
X153410133Y-119476708D01*
X153616371Y-119572879D01*
X153836175Y-119631775D01*
X154062867Y-119651608D01*
X154289559Y-119631775D01*
X154357915Y-119613459D01*
X154422101Y-119613459D01*
X154477689Y-119645553D01*
X154687063Y-119854927D01*
X154699963Y-119871028D01*
X154751090Y-119919040D01*
X154753886Y-119921750D01*
X154773396Y-119941260D01*
X154776578Y-119943728D01*
X154785438Y-119951295D01*
X154801610Y-119966482D01*
X154817285Y-119981202D01*
X154834837Y-119990851D01*
X154851105Y-120001537D01*
X154866931Y-120013813D01*
X154907013Y-120031157D01*
X154917500Y-120036295D01*
X154955774Y-120057337D01*
X154964277Y-120059519D01*
X154975175Y-120062318D01*
X154993580Y-120068618D01*
X155011971Y-120076577D01*
X155055117Y-120083410D01*
X155066535Y-120085775D01*
X155108848Y-120096640D01*
X155128883Y-120096640D01*
X155148282Y-120098167D01*
X155168063Y-120101300D01*
X155211541Y-120097190D01*
X155223211Y-120096640D01*
X160450875Y-120096640D01*
X160501310Y-120107360D01*
X160543023Y-120137666D01*
X160548751Y-120144028D01*
X160701892Y-120255291D01*
X160701893Y-120255291D01*
X160701894Y-120255292D01*
X160874815Y-120332283D01*
X160874818Y-120332283D01*
X160874819Y-120332284D01*
X160915774Y-120340989D01*
X160974163Y-120371222D01*
X161008886Y-120427060D01*
X161010178Y-120492802D01*
X160977674Y-120549960D01*
X160188224Y-121339409D01*
X160130542Y-121372045D01*
X160064289Y-121370310D01*
X160008394Y-121334701D01*
X159929526Y-121247111D01*
X159776386Y-121135848D01*
X159603458Y-121058855D01*
X159418304Y-121019500D01*
X159418302Y-121019500D01*
X159229010Y-121019500D01*
X159229008Y-121019500D01*
X159043853Y-121058855D01*
X158870928Y-121135847D01*
X158819943Y-121172890D01*
X158717785Y-121247112D01*
X158712057Y-121253473D01*
X158670344Y-121283780D01*
X158619909Y-121294500D01*
X156444325Y-121294500D01*
X156393890Y-121283780D01*
X156352176Y-121253473D01*
X156346449Y-121247112D01*
X156193308Y-121135849D01*
X156193307Y-121135848D01*
X156193305Y-121135847D01*
X156020380Y-121058855D01*
X155835226Y-121019500D01*
X155835224Y-121019500D01*
X155645932Y-121019500D01*
X155645930Y-121019500D01*
X155460775Y-121058855D01*
X155287847Y-121135848D01*
X155134707Y-121247110D01*
X155008044Y-121387783D01*
X154913398Y-121551715D01*
X154887150Y-121632502D01*
X154867520Y-121692914D01*
X154841741Y-121737566D01*
X154800027Y-121767874D01*
X154749591Y-121778594D01*
X153351273Y-121778594D01*
X153303820Y-121769155D01*
X153263592Y-121742275D01*
X150734941Y-119213624D01*
X147742280Y-116220962D01*
X147710186Y-116165374D01*
X147710186Y-116101187D01*
X147728502Y-116032832D01*
X147748335Y-115806140D01*
X147728502Y-115579448D01*
X147710185Y-115511087D01*
X147710185Y-115446904D01*
X147742277Y-115391318D01*
X148030816Y-115102779D01*
X148046917Y-115089881D01*
X148048904Y-115087764D01*
X148048907Y-115087763D01*
X148094962Y-115038718D01*
X148097643Y-115035953D01*
X148101730Y-115031866D01*
X148117150Y-115016447D01*
X148119611Y-115013272D01*
X148127182Y-115004408D01*
X148157092Y-114972559D01*
X148166743Y-114955003D01*
X148177423Y-114938744D01*
X148189704Y-114922913D01*
X148207048Y-114882828D01*
X148212190Y-114872333D01*
X148233227Y-114834069D01*
X148238208Y-114814665D01*
X148244505Y-114796271D01*
X148248319Y-114787458D01*
X148284588Y-114739937D01*
X148338883Y-114714908D01*
X148398579Y-114718194D01*
G37*
%TD.AperFunction*%
%TA.AperFunction,Conductor*%
G36*
X136474404Y-106585177D02*
G01*
X136523493Y-106609385D01*
X136557378Y-106652368D01*
X136569457Y-106705751D01*
X136569457Y-114548543D01*
X136567192Y-114569049D01*
X136569396Y-114639160D01*
X136569457Y-114643055D01*
X136569457Y-114670636D01*
X136569960Y-114674621D01*
X136570875Y-114686254D01*
X136572247Y-114729913D01*
X136577836Y-114749147D01*
X136581782Y-114768203D01*
X136584292Y-114788079D01*
X136600371Y-114828691D01*
X136604154Y-114839738D01*
X136616339Y-114881678D01*
X136626537Y-114898922D01*
X136635093Y-114916387D01*
X136642471Y-114935019D01*
X136642472Y-114935020D01*
X136668137Y-114970346D01*
X136674550Y-114980109D01*
X136696783Y-115017703D01*
X136696786Y-115017706D01*
X136696787Y-115017707D01*
X136710952Y-115031872D01*
X136723584Y-115046662D01*
X136735363Y-115062874D01*
X136753630Y-115077986D01*
X136769015Y-115090713D01*
X136777656Y-115098576D01*
X143003056Y-121323977D01*
X143031711Y-121368740D01*
X143038993Y-121421387D01*
X143023564Y-121472247D01*
X142988260Y-121511976D01*
X142880062Y-121590585D01*
X142747721Y-121737566D01*
X142706006Y-121767874D01*
X142655571Y-121778594D01*
X141959426Y-121778594D01*
X141911973Y-121769155D01*
X141871745Y-121742275D01*
X141404696Y-121275226D01*
X140249887Y-120120416D01*
X140225647Y-120086118D01*
X140214248Y-120045702D01*
X140196601Y-119877791D01*
X140138106Y-119697763D01*
X140138106Y-119697762D01*
X140043460Y-119533830D01*
X139916797Y-119393157D01*
X139763657Y-119281895D01*
X139590729Y-119204902D01*
X139405575Y-119165547D01*
X139405573Y-119165547D01*
X139216281Y-119165547D01*
X139216278Y-119165547D01*
X139034336Y-119204219D01*
X138972714Y-119201636D01*
X138919959Y-119169685D01*
X138889123Y-119116271D01*
X138887833Y-119054608D01*
X138907372Y-119017239D01*
X138905477Y-119016145D01*
X139006639Y-118840926D01*
X139013856Y-118818713D01*
X139065134Y-118660898D01*
X139084920Y-118472642D01*
X139065134Y-118284386D01*
X139006639Y-118104358D01*
X139006639Y-118104357D01*
X138911993Y-117940425D01*
X138785330Y-117799752D01*
X138632190Y-117688490D01*
X138459262Y-117611497D01*
X138274108Y-117572142D01*
X138274106Y-117572142D01*
X138084814Y-117572142D01*
X138084811Y-117572142D01*
X137919960Y-117607181D01*
X137866180Y-117606688D01*
X137817667Y-117583470D01*
X137783548Y-117541895D01*
X137770241Y-117489784D01*
X137769381Y-117462407D01*
X137769320Y-117458514D01*
X137769320Y-117430927D01*
X137769320Y-117430920D01*
X137768815Y-117426923D01*
X137767900Y-117415293D01*
X137766529Y-117371642D01*
X137760939Y-117352404D01*
X137756994Y-117333352D01*
X137754484Y-117313478D01*
X137754483Y-117313477D01*
X137738398Y-117272851D01*
X137734625Y-117261830D01*
X137722437Y-117219880D01*
X137712241Y-117202639D01*
X137703683Y-117185172D01*
X137696306Y-117166538D01*
X137670618Y-117131182D01*
X137664229Y-117121454D01*
X137641990Y-117083849D01*
X137627826Y-117069685D01*
X137615189Y-117054890D01*
X137603415Y-117038684D01*
X137596398Y-117032879D01*
X137569755Y-117010838D01*
X137561125Y-117002984D01*
X130785898Y-110227757D01*
X130761658Y-110193459D01*
X130750259Y-110153043D01*
X130732612Y-109985132D01*
X130732611Y-109985130D01*
X130732331Y-109982461D01*
X130744202Y-109915141D01*
X130789942Y-109864342D01*
X130855652Y-109845500D01*
X131573073Y-109845500D01*
X131593579Y-109847764D01*
X131596482Y-109847672D01*
X131596484Y-109847673D01*
X131663689Y-109845561D01*
X131667585Y-109845500D01*
X131695166Y-109845500D01*
X131695167Y-109845500D01*
X131699136Y-109844998D01*
X131710782Y-109844080D01*
X131754444Y-109842709D01*
X131773676Y-109837120D01*
X131792735Y-109833174D01*
X131799013Y-109832381D01*
X131812609Y-109830664D01*
X131853224Y-109814582D01*
X131864261Y-109810803D01*
X131906207Y-109798618D01*
X131923446Y-109788422D01*
X131940919Y-109779862D01*
X131959549Y-109772486D01*
X131994881Y-109746814D01*
X132004647Y-109740400D01*
X132042235Y-109718171D01*
X132042234Y-109718171D01*
X132042237Y-109718170D01*
X132056402Y-109704004D01*
X132071190Y-109691373D01*
X132087404Y-109679594D01*
X132115255Y-109645926D01*
X132123096Y-109637309D01*
X133496585Y-108263822D01*
X133782819Y-107977589D01*
X133832182Y-107947339D01*
X133889898Y-107942797D01*
X133943385Y-107964952D01*
X133980985Y-108008975D01*
X133994500Y-108065270D01*
X133994500Y-109478244D01*
X133986264Y-109522682D01*
X133962652Y-109561213D01*
X133940077Y-109586286D01*
X133887464Y-109644717D01*
X133792820Y-109808646D01*
X133734326Y-109988673D01*
X133714540Y-110176931D01*
X133734326Y-110365188D01*
X133792820Y-110545215D01*
X133887466Y-110709147D01*
X134014129Y-110849820D01*
X134167269Y-110961082D01*
X134340197Y-111038075D01*
X134525352Y-111077431D01*
X134525354Y-111077431D01*
X134714646Y-111077431D01*
X134714648Y-111077431D01*
X134838084Y-111051193D01*
X134899803Y-111038075D01*
X135072730Y-110961082D01*
X135111550Y-110932878D01*
X135225870Y-110849820D01*
X135275257Y-110794971D01*
X135352533Y-110709147D01*
X135447179Y-110545215D01*
X135505674Y-110365187D01*
X135525460Y-110176931D01*
X135505674Y-109988675D01*
X135459889Y-109847764D01*
X135447179Y-109808646D01*
X135352535Y-109644717D01*
X135299923Y-109586286D01*
X135277347Y-109561213D01*
X135253736Y-109522682D01*
X135245500Y-109478244D01*
X135245500Y-107557256D01*
X135254939Y-107509803D01*
X135281819Y-107469575D01*
X136092235Y-106659160D01*
X136132463Y-106632280D01*
X136179916Y-106622841D01*
X136239111Y-106622841D01*
X136419676Y-106584461D01*
X136474404Y-106585177D01*
G37*
%TD.AperFunction*%
%TA.AperFunction,Conductor*%
G36*
X129172847Y-116348052D02*
G01*
X129221774Y-116381303D01*
X129263073Y-116427171D01*
X129416213Y-116538433D01*
X129589141Y-116615426D01*
X129774296Y-116654782D01*
X129774298Y-116654782D01*
X129963590Y-116654782D01*
X129963592Y-116654782D01*
X130087028Y-116628544D01*
X130148747Y-116615426D01*
X130321674Y-116538433D01*
X130474815Y-116427170D01*
X130480542Y-116420808D01*
X130522256Y-116390502D01*
X130572691Y-116379782D01*
X132571796Y-116379782D01*
X132619249Y-116389221D01*
X132659477Y-116416101D01*
X133259967Y-117016591D01*
X133286847Y-117056819D01*
X133296286Y-117104272D01*
X133296286Y-117773955D01*
X133288050Y-117818393D01*
X133264438Y-117856924D01*
X133231331Y-117893693D01*
X133189250Y-117940428D01*
X133094606Y-118104357D01*
X133036112Y-118284384D01*
X133026275Y-118377978D01*
X133016326Y-118472642D01*
X133021183Y-118518855D01*
X133036112Y-118660899D01*
X133094606Y-118840926D01*
X133189252Y-119004858D01*
X133315915Y-119145531D01*
X133469055Y-119256793D01*
X133641980Y-119333785D01*
X133641981Y-119333785D01*
X133641983Y-119333786D01*
X133644317Y-119334282D01*
X133698243Y-119360583D01*
X133733508Y-119409121D01*
X133741859Y-119468533D01*
X133740826Y-119478362D01*
X133748349Y-119549936D01*
X133760612Y-119666619D01*
X133819106Y-119846646D01*
X133913752Y-120010578D01*
X134040415Y-120151251D01*
X134193555Y-120262513D01*
X134366483Y-120339506D01*
X134551638Y-120378862D01*
X134751062Y-120378862D01*
X134813062Y-120395475D01*
X134858449Y-120440862D01*
X134875062Y-120502862D01*
X134875062Y-121654594D01*
X134858449Y-121716594D01*
X134813062Y-121761981D01*
X134751062Y-121778594D01*
X134721088Y-121778594D01*
X134673635Y-121769155D01*
X134633407Y-121742275D01*
X134467514Y-121576382D01*
X134062367Y-121171234D01*
X134049471Y-121155136D01*
X133998340Y-121107121D01*
X133995543Y-121104410D01*
X133976035Y-121084902D01*
X133972855Y-121082435D01*
X133963989Y-121074862D01*
X133932147Y-121044961D01*
X133914589Y-121035308D01*
X133898329Y-121024627D01*
X133882501Y-121012350D01*
X133842416Y-120995003D01*
X133831926Y-120989864D01*
X133793656Y-120968825D01*
X133774256Y-120963844D01*
X133755849Y-120957542D01*
X133737462Y-120949585D01*
X133694323Y-120942752D01*
X133682889Y-120940384D01*
X133640584Y-120929523D01*
X133620549Y-120929523D01*
X133601151Y-120927996D01*
X133593727Y-120926820D01*
X133581370Y-120924863D01*
X133581369Y-120924863D01*
X133548316Y-120927987D01*
X133537890Y-120928973D01*
X133526221Y-120929523D01*
X132952279Y-120929523D01*
X132894064Y-120915008D01*
X132849478Y-120874863D01*
X132828958Y-120818486D01*
X132809937Y-120637501D01*
X132779595Y-120544120D01*
X132751442Y-120457472D01*
X132656796Y-120293540D01*
X132530133Y-120152867D01*
X132376993Y-120041605D01*
X132204065Y-119964612D01*
X132018911Y-119925257D01*
X132018909Y-119925257D01*
X131829617Y-119925257D01*
X131829615Y-119925257D01*
X131644460Y-119964612D01*
X131471535Y-120041604D01*
X131410267Y-120086118D01*
X131318392Y-120152869D01*
X131312664Y-120159230D01*
X131270951Y-120189537D01*
X131220516Y-120200257D01*
X130477860Y-120200257D01*
X130419646Y-120185743D01*
X130375059Y-120145597D01*
X130354539Y-120089219D01*
X130352374Y-120068621D01*
X130334435Y-119897937D01*
X130275940Y-119717909D01*
X130275940Y-119717908D01*
X130181294Y-119553976D01*
X130054631Y-119413303D01*
X129901491Y-119302041D01*
X129728563Y-119225048D01*
X129543409Y-119185693D01*
X129543407Y-119185693D01*
X129368317Y-119185693D01*
X129317882Y-119174973D01*
X129276167Y-119144665D01*
X129250386Y-119100011D01*
X129245940Y-119086329D01*
X129223492Y-119017239D01*
X129207303Y-118967414D01*
X129112659Y-118803485D01*
X129084111Y-118771780D01*
X129037471Y-118719981D01*
X129013860Y-118681450D01*
X129005624Y-118637012D01*
X129005624Y-116464275D01*
X129019735Y-116406826D01*
X129058856Y-116362452D01*
X129114083Y-116341253D01*
X129172847Y-116348052D01*
G37*
%TD.AperFunction*%
%TA.AperFunction,Conductor*%
G36*
X116711697Y-120433409D02*
G01*
X116770978Y-120489077D01*
X116773775Y-120491788D01*
X116793285Y-120511298D01*
X116796467Y-120513766D01*
X116805327Y-120521333D01*
X116837174Y-120551240D01*
X116854728Y-120560890D01*
X116870992Y-120571574D01*
X116882728Y-120580677D01*
X116886820Y-120583851D01*
X116911665Y-120594602D01*
X116926908Y-120601199D01*
X116937387Y-120606332D01*
X116975664Y-120627375D01*
X116995062Y-120632355D01*
X117013464Y-120638655D01*
X117031860Y-120646616D01*
X117075017Y-120653451D01*
X117086420Y-120655812D01*
X117128737Y-120666678D01*
X117148772Y-120666678D01*
X117168169Y-120668204D01*
X117187952Y-120671338D01*
X117231430Y-120667228D01*
X117243100Y-120666678D01*
X119995784Y-120666678D01*
X120043237Y-120676117D01*
X120083465Y-120702997D01*
X120947381Y-121566913D01*
X120977631Y-121616276D01*
X120982173Y-121673992D01*
X120960018Y-121727479D01*
X120915995Y-121765079D01*
X120859700Y-121778594D01*
X117814460Y-121778594D01*
X117767007Y-121769155D01*
X117726779Y-121742275D01*
X117623610Y-121639106D01*
X117610971Y-121624308D01*
X117602734Y-121612970D01*
X117602733Y-121612969D01*
X117572288Y-121585556D01*
X117563120Y-121576387D01*
X117535717Y-121545953D01*
X117502585Y-121521882D01*
X117492503Y-121513717D01*
X117462063Y-121486308D01*
X117449919Y-121479297D01*
X117433885Y-121468277D01*
X117422995Y-121459458D01*
X117410499Y-121453091D01*
X117393917Y-121442929D01*
X117382576Y-121434690D01*
X117345154Y-121418028D01*
X117333601Y-121412141D01*
X117298129Y-121391661D01*
X117284799Y-121387330D01*
X117266823Y-121379884D01*
X117254334Y-121373521D01*
X117254332Y-121373520D01*
X117248436Y-121370516D01*
X117217052Y-121347713D01*
X116580619Y-120711280D01*
X116550369Y-120661916D01*
X116533633Y-120610407D01*
X116525508Y-120596334D01*
X116519427Y-120585802D01*
X116502946Y-120518092D01*
X116525587Y-120452184D01*
X116580201Y-120408897D01*
X116649538Y-120401902D01*
X116711697Y-120433409D01*
G37*
%TD.AperFunction*%
%TA.AperFunction,Conductor*%
G36*
X157941627Y-117571926D02*
G01*
X157986564Y-117614015D01*
X158005718Y-117672530D01*
X157994366Y-117733044D01*
X157916601Y-117899811D01*
X157863995Y-118096139D01*
X157863995Y-118096140D01*
X160421739Y-118096140D01*
X160421738Y-118096139D01*
X160369132Y-117899811D01*
X160291368Y-117733044D01*
X160280016Y-117672530D01*
X160299170Y-117614015D01*
X160344107Y-117571926D01*
X160403750Y-117556640D01*
X163165523Y-117556640D01*
X163227523Y-117573253D01*
X163272910Y-117618640D01*
X163289523Y-117680640D01*
X163272910Y-117742640D01*
X163206941Y-117856900D01*
X163148447Y-118036927D01*
X163128661Y-118225185D01*
X163139007Y-118323625D01*
X163132573Y-118377978D01*
X163103367Y-118424267D01*
X162233518Y-119294115D01*
X162179496Y-119325778D01*
X162116890Y-119327008D01*
X162061666Y-119297490D01*
X162027906Y-119244752D01*
X161981801Y-119102855D01*
X161887155Y-118938923D01*
X161760492Y-118798250D01*
X161607352Y-118686988D01*
X161434424Y-118609995D01*
X161249270Y-118570640D01*
X161249268Y-118570640D01*
X161059976Y-118570640D01*
X161059974Y-118570640D01*
X160874819Y-118609995D01*
X160701891Y-118686988D01*
X160607077Y-118755875D01*
X160551020Y-118778410D01*
X160490969Y-118771780D01*
X160441178Y-118737559D01*
X160413468Y-118683872D01*
X160414417Y-118623462D01*
X160421738Y-118596140D01*
X157863995Y-118596140D01*
X157889023Y-118689546D01*
X157890865Y-118745831D01*
X157867624Y-118797126D01*
X157824092Y-118832852D01*
X157769248Y-118845640D01*
X155498320Y-118845640D01*
X155450867Y-118836201D01*
X155410639Y-118809321D01*
X155362280Y-118760962D01*
X155330186Y-118705374D01*
X155330186Y-118641187D01*
X155332123Y-118633959D01*
X155348502Y-118572832D01*
X155368335Y-118346140D01*
X155348502Y-118119448D01*
X155289606Y-117899644D01*
X155211918Y-117733044D01*
X155200566Y-117672530D01*
X155219720Y-117614015D01*
X155264658Y-117571926D01*
X155324301Y-117556640D01*
X157881984Y-117556640D01*
X157941627Y-117571926D01*
G37*
%TD.AperFunction*%
%TA.AperFunction,Conductor*%
G36*
X112940685Y-107337662D02*
G01*
X112990048Y-107367912D01*
X113255056Y-107632920D01*
X113267956Y-107649021D01*
X113319083Y-107697033D01*
X113321879Y-107699743D01*
X113341389Y-107719253D01*
X113344571Y-107721721D01*
X113353431Y-107729288D01*
X113370181Y-107745018D01*
X113385278Y-107759195D01*
X113402830Y-107768844D01*
X113419098Y-107779530D01*
X113434924Y-107791806D01*
X113475006Y-107809150D01*
X113485493Y-107814288D01*
X113523767Y-107835330D01*
X113532270Y-107837512D01*
X113543168Y-107840311D01*
X113561573Y-107846611D01*
X113579964Y-107854570D01*
X113623110Y-107861403D01*
X113634528Y-107863768D01*
X113676841Y-107874633D01*
X113696876Y-107874633D01*
X113716275Y-107876160D01*
X113736056Y-107879293D01*
X113779534Y-107875183D01*
X113791204Y-107874633D01*
X129300039Y-107874633D01*
X129356334Y-107888148D01*
X129400357Y-107925748D01*
X129422512Y-107979235D01*
X129417970Y-108036951D01*
X129387720Y-108086314D01*
X125318593Y-112155439D01*
X125302495Y-112168336D01*
X125254481Y-112219465D01*
X125251776Y-112222257D01*
X125232259Y-112241774D01*
X125229800Y-112244945D01*
X125222227Y-112253812D01*
X125192320Y-112285660D01*
X125182670Y-112303214D01*
X125171994Y-112319468D01*
X125159711Y-112335303D01*
X125142360Y-112375398D01*
X125137223Y-112385884D01*
X125116187Y-112424147D01*
X125111206Y-112443549D01*
X125104905Y-112461951D01*
X125096946Y-112480342D01*
X125090113Y-112523482D01*
X125087745Y-112534914D01*
X125076885Y-112577218D01*
X125076885Y-112597256D01*
X125075358Y-112616655D01*
X125072225Y-112636434D01*
X125076335Y-112679915D01*
X125076885Y-112691584D01*
X125076885Y-112763147D01*
X125068649Y-112807585D01*
X125045037Y-112846116D01*
X125034127Y-112858234D01*
X124969849Y-112929620D01*
X124875205Y-113093549D01*
X124816711Y-113273576D01*
X124796925Y-113461834D01*
X124816711Y-113650091D01*
X124875205Y-113830118D01*
X124969851Y-113994050D01*
X125096514Y-114134723D01*
X125249654Y-114245985D01*
X125422582Y-114322978D01*
X125607737Y-114362334D01*
X125607739Y-114362334D01*
X125797031Y-114362334D01*
X125797033Y-114362334D01*
X125941436Y-114331640D01*
X125982188Y-114322978D01*
X126155115Y-114245985D01*
X126262853Y-114167709D01*
X126308255Y-114134723D01*
X126312275Y-114130259D01*
X126434918Y-113994050D01*
X126529564Y-113830118D01*
X126588059Y-113650090D01*
X126607845Y-113461834D01*
X126588059Y-113273578D01*
X126529564Y-113093550D01*
X126529564Y-113093549D01*
X126438085Y-112935103D01*
X126421944Y-112883910D01*
X126428950Y-112830692D01*
X126457789Y-112785424D01*
X127542942Y-111700272D01*
X127592306Y-111670022D01*
X127650022Y-111665480D01*
X127703509Y-111687635D01*
X127741109Y-111731658D01*
X127754624Y-111787953D01*
X127754624Y-118637012D01*
X127746388Y-118681450D01*
X127722776Y-118719981D01*
X127688782Y-118757736D01*
X127647589Y-118803484D01*
X127619180Y-118852691D01*
X127573792Y-118898078D01*
X127511792Y-118914690D01*
X127449793Y-118898077D01*
X127404406Y-118852690D01*
X127401573Y-118847783D01*
X127274910Y-118707110D01*
X127121770Y-118595848D01*
X126948842Y-118518855D01*
X126763688Y-118479500D01*
X126763686Y-118479500D01*
X126574394Y-118479500D01*
X126574392Y-118479500D01*
X126389237Y-118518855D01*
X126216312Y-118595847D01*
X126153907Y-118641187D01*
X126063169Y-118707112D01*
X126057441Y-118713473D01*
X126015728Y-118743780D01*
X125965293Y-118754500D01*
X122498270Y-118754500D01*
X122450817Y-118745061D01*
X122410589Y-118718181D01*
X121551794Y-117859385D01*
X121538898Y-117843287D01*
X121487767Y-117795272D01*
X121484970Y-117792561D01*
X121465462Y-117773053D01*
X121462282Y-117770586D01*
X121453416Y-117763013D01*
X121421574Y-117733112D01*
X121404016Y-117723459D01*
X121387756Y-117712778D01*
X121371928Y-117700501D01*
X121331843Y-117683154D01*
X121321353Y-117678015D01*
X121283083Y-117656976D01*
X121263683Y-117651995D01*
X121245276Y-117645693D01*
X121226889Y-117637736D01*
X121183750Y-117630903D01*
X121172316Y-117628535D01*
X121130011Y-117617674D01*
X121109976Y-117617674D01*
X121090578Y-117616147D01*
X121083154Y-117614971D01*
X121070797Y-117613014D01*
X121070796Y-117613014D01*
X121060207Y-117614015D01*
X121027317Y-117617124D01*
X121015648Y-117617674D01*
X118262964Y-117617674D01*
X118215511Y-117608235D01*
X118175283Y-117581355D01*
X113358250Y-112764321D01*
X114823256Y-112764321D01*
X114842884Y-113051266D01*
X114901403Y-113332876D01*
X114997718Y-113603879D01*
X115130042Y-113859255D01*
X115295908Y-114094232D01*
X115458256Y-114268063D01*
X115492222Y-114304432D01*
X115715330Y-114485945D01*
X115961077Y-114635386D01*
X116224884Y-114749974D01*
X116501836Y-114827572D01*
X116786776Y-114866736D01*
X117074394Y-114866736D01*
X117359334Y-114827572D01*
X117636286Y-114749974D01*
X117900093Y-114635386D01*
X118145840Y-114485945D01*
X118368948Y-114304432D01*
X118565263Y-114094230D01*
X118731127Y-113859255D01*
X118863450Y-113603883D01*
X118959768Y-113332871D01*
X119018285Y-113051269D01*
X119037913Y-112764321D01*
X119018285Y-112477373D01*
X118959768Y-112195771D01*
X118923024Y-112092385D01*
X118863451Y-111924762D01*
X118863450Y-111924759D01*
X118763393Y-111731658D01*
X118731127Y-111669386D01*
X118565261Y-111434409D01*
X118368948Y-111224210D01*
X118320276Y-111184612D01*
X118145840Y-111042697D01*
X117900093Y-110893256D01*
X117636286Y-110778668D01*
X117433043Y-110721722D01*
X117359331Y-110701069D01*
X117074394Y-110661906D01*
X116786776Y-110661906D01*
X116501838Y-110701069D01*
X116298593Y-110758015D01*
X116224884Y-110778668D01*
X116224882Y-110778668D01*
X116224881Y-110778669D01*
X115961076Y-110893256D01*
X115715331Y-111042696D01*
X115492221Y-111224210D01*
X115295908Y-111434409D01*
X115130042Y-111669386D01*
X114997718Y-111924762D01*
X114901403Y-112195765D01*
X114842884Y-112477375D01*
X114823256Y-112764321D01*
X113358250Y-112764321D01*
X112814686Y-112220757D01*
X112787806Y-112180529D01*
X112778367Y-112133076D01*
X112778367Y-107455593D01*
X112791882Y-107399298D01*
X112829482Y-107355275D01*
X112882969Y-107333120D01*
X112940685Y-107337662D01*
G37*
%TD.AperFunction*%
%TA.AperFunction,Conductor*%
G36*
X147876659Y-118124522D02*
G01*
X148386096Y-118633959D01*
X148416346Y-118683322D01*
X148420888Y-118741038D01*
X148398733Y-118794525D01*
X148354710Y-118832125D01*
X148298415Y-118845640D01*
X147816486Y-118845640D01*
X147761642Y-118832852D01*
X147718110Y-118797126D01*
X147694869Y-118745831D01*
X147696711Y-118689546D01*
X147721739Y-118596140D01*
X146316867Y-118596140D01*
X146254867Y-118579527D01*
X146209480Y-118534140D01*
X146192867Y-118472140D01*
X146192867Y-118220140D01*
X146209480Y-118158140D01*
X146254867Y-118112753D01*
X146316867Y-118096140D01*
X147745938Y-118096140D01*
X147746560Y-118095684D01*
X147815812Y-118091141D01*
X147876659Y-118124522D01*
G37*
%TD.AperFunction*%
%TA.AperFunction,Conductor*%
G36*
X107160548Y-105380267D02*
G01*
X108088132Y-106307851D01*
X108123105Y-106257907D01*
X108168257Y-106218612D01*
X108226557Y-106205046D01*
X108284417Y-106220370D01*
X108306184Y-106232337D01*
X108325584Y-106237318D01*
X108343989Y-106243618D01*
X108362380Y-106251577D01*
X108405526Y-106258410D01*
X108416944Y-106260775D01*
X108459257Y-106271640D01*
X108479292Y-106271640D01*
X108498690Y-106273167D01*
X108529949Y-106278118D01*
X108576261Y-106295433D01*
X108612125Y-106329466D01*
X108681106Y-106427981D01*
X108831026Y-106577901D01*
X109004703Y-106699511D01*
X109196858Y-106789114D01*
X109401654Y-106843989D01*
X109612867Y-106862468D01*
X109824080Y-106843989D01*
X109835406Y-106840954D01*
X109899595Y-106840953D01*
X109955184Y-106873047D01*
X110921241Y-107839104D01*
X110948121Y-107879332D01*
X110957560Y-107926785D01*
X110957560Y-112426668D01*
X110955295Y-112447174D01*
X110957499Y-112517285D01*
X110957560Y-112521180D01*
X110957560Y-112548761D01*
X110958063Y-112552746D01*
X110958978Y-112564379D01*
X110960350Y-112608038D01*
X110965939Y-112627272D01*
X110969885Y-112646328D01*
X110972395Y-112666204D01*
X110988474Y-112706816D01*
X110992257Y-112717863D01*
X111004442Y-112759803D01*
X111014640Y-112777047D01*
X111023196Y-112794512D01*
X111030574Y-112813144D01*
X111041126Y-112827668D01*
X111056240Y-112848471D01*
X111062653Y-112858234D01*
X111084886Y-112895828D01*
X111084889Y-112895831D01*
X111084890Y-112895832D01*
X111099055Y-112909997D01*
X111111687Y-112924787D01*
X111123466Y-112940999D01*
X111157118Y-112968838D01*
X111165759Y-112976701D01*
X111531582Y-113342524D01*
X111561832Y-113391887D01*
X111566374Y-113449603D01*
X111544219Y-113503090D01*
X111500196Y-113540690D01*
X111443901Y-113554205D01*
X109976312Y-113554205D01*
X109928859Y-113544766D01*
X109888631Y-113517886D01*
X106550056Y-110179310D01*
X106523176Y-110139082D01*
X106513737Y-110091629D01*
X106513737Y-106911849D01*
X106526525Y-106857005D01*
X106562251Y-106813473D01*
X106613546Y-106790232D01*
X106669831Y-106792074D01*
X106861743Y-106843496D01*
X107072867Y-106861967D01*
X107283990Y-106843496D01*
X107488707Y-106788642D01*
X107680778Y-106699078D01*
X107734578Y-106661405D01*
X106806994Y-105733821D01*
X106774900Y-105678234D01*
X106774900Y-105614046D01*
X106806994Y-105558459D01*
X106985186Y-105380267D01*
X107040773Y-105348173D01*
X107104961Y-105348173D01*
X107160548Y-105380267D01*
G37*
%TD.AperFunction*%
%TA.AperFunction,Conductor*%
G36*
X140309986Y-103753849D02*
G01*
X140359418Y-103799544D01*
X140377691Y-103864334D01*
X140377691Y-112264439D01*
X140365141Y-112318797D01*
X140330033Y-112362152D01*
X140279472Y-112385729D01*
X140151395Y-112412952D01*
X139978467Y-112489945D01*
X139825327Y-112601207D01*
X139692965Y-112748211D01*
X139644038Y-112781462D01*
X139585274Y-112788261D01*
X139530046Y-112767061D01*
X139490926Y-112722688D01*
X139476815Y-112665239D01*
X139476815Y-104087479D01*
X139493428Y-104025479D01*
X139538815Y-103980092D01*
X139600815Y-103963479D01*
X139708326Y-103963479D01*
X139831761Y-103937241D01*
X139893481Y-103924123D01*
X140066408Y-103847130D01*
X140131905Y-103799544D01*
X140180806Y-103764016D01*
X140243962Y-103740716D01*
X140309986Y-103753849D01*
G37*
%TD.AperFunction*%
%TA.AperFunction,Conductor*%
G36*
X155374417Y-94823961D02*
G01*
X159604415Y-99053959D01*
X159634665Y-99103322D01*
X159639207Y-99161038D01*
X159617052Y-99214525D01*
X159573029Y-99252125D01*
X159516734Y-99265640D01*
X158294997Y-99265640D01*
X158235382Y-99272049D01*
X158100536Y-99322344D01*
X157985321Y-99408594D01*
X157899071Y-99523808D01*
X157850855Y-99653081D01*
X157848776Y-99658657D01*
X157844186Y-99701355D01*
X157842367Y-99718271D01*
X157842367Y-100930687D01*
X157832928Y-100978140D01*
X157806048Y-101018368D01*
X155575686Y-103248728D01*
X155524259Y-103279629D01*
X155464344Y-103282769D01*
X155409969Y-103257413D01*
X155373862Y-103209497D01*
X155364477Y-103150239D01*
X155368335Y-103106139D01*
X155353156Y-102932646D01*
X155348502Y-102879448D01*
X155289606Y-102659644D01*
X155193435Y-102453406D01*
X155190757Y-102449582D01*
X155062913Y-102266999D01*
X154902007Y-102106093D01*
X154715599Y-101975570D01*
X154657591Y-101948520D01*
X154605416Y-101902763D01*
X154585997Y-101836137D01*
X154605417Y-101769513D01*
X154657588Y-101723759D01*
X154715601Y-101696708D01*
X154902006Y-101566187D01*
X155062914Y-101405279D01*
X155193435Y-101218874D01*
X155289606Y-101012636D01*
X155348502Y-100792832D01*
X155368335Y-100566140D01*
X155348502Y-100339448D01*
X155289606Y-100119644D01*
X155193435Y-99913406D01*
X155164240Y-99871711D01*
X155062913Y-99726999D01*
X154902007Y-99566093D01*
X154715602Y-99435572D01*
X154509364Y-99339401D01*
X154289556Y-99280504D01*
X154062867Y-99260671D01*
X153836177Y-99280504D01*
X153616369Y-99339401D01*
X153410131Y-99435572D01*
X153223726Y-99566093D01*
X153062820Y-99726999D01*
X152932299Y-99913404D01*
X152831543Y-100129476D01*
X152829082Y-100128328D01*
X152809953Y-100163199D01*
X152760941Y-100195948D01*
X152702345Y-100202365D01*
X152647407Y-100181001D01*
X152608541Y-100136683D01*
X152594530Y-100079426D01*
X152594530Y-96145414D01*
X152612241Y-96081549D01*
X152660315Y-96035929D01*
X152725020Y-96021584D01*
X152787870Y-96042613D01*
X152830912Y-96093009D01*
X152852299Y-96138875D01*
X152982820Y-96325280D01*
X153143726Y-96486186D01*
X153330131Y-96616707D01*
X153330132Y-96616707D01*
X153330133Y-96616708D01*
X153536371Y-96712879D01*
X153756175Y-96771775D01*
X153982867Y-96791608D01*
X154209559Y-96771775D01*
X154429363Y-96712879D01*
X154635601Y-96616708D01*
X154822006Y-96486187D01*
X154982914Y-96325279D01*
X155113435Y-96138874D01*
X155209606Y-95932636D01*
X155268502Y-95712832D01*
X155288335Y-95486140D01*
X155268502Y-95259448D01*
X155209606Y-95039644D01*
X155174353Y-94964045D01*
X155163660Y-94896531D01*
X155190370Y-94833607D01*
X155246365Y-94794398D01*
X155314630Y-94790820D01*
X155374417Y-94823961D01*
G37*
%TD.AperFunction*%
%TA.AperFunction,Conductor*%
G36*
X157784217Y-74205944D02*
G01*
X157829960Y-74256862D01*
X157839509Y-74311620D01*
X157842367Y-74311620D01*
X157842367Y-76014009D01*
X157848776Y-76073623D01*
X157899071Y-76208471D01*
X157985321Y-76323686D01*
X158100536Y-76409936D01*
X158235384Y-76460231D01*
X158270461Y-76464002D01*
X158326380Y-76484379D01*
X158366364Y-76528467D01*
X158381199Y-76586108D01*
X158367467Y-76644021D01*
X158328331Y-76688864D01*
X158303727Y-76706092D01*
X158142820Y-76866999D01*
X158012299Y-77053404D01*
X157916128Y-77259642D01*
X157857231Y-77479450D01*
X157837398Y-77706140D01*
X157857231Y-77932829D01*
X157916128Y-78152637D01*
X158012299Y-78358875D01*
X158142820Y-78545280D01*
X158303726Y-78706186D01*
X158482989Y-78831706D01*
X158490133Y-78836708D01*
X158548140Y-78863757D01*
X158600316Y-78909513D01*
X158619736Y-78976137D01*
X158600318Y-79042762D01*
X158548143Y-79088520D01*
X158490133Y-79115571D01*
X158303726Y-79246093D01*
X158142820Y-79406999D01*
X158012299Y-79593404D01*
X157916128Y-79799642D01*
X157857231Y-80019450D01*
X157837398Y-80246140D01*
X157857231Y-80472829D01*
X157916128Y-80692637D01*
X158012299Y-80898875D01*
X158142820Y-81085280D01*
X158303726Y-81246186D01*
X158482992Y-81371708D01*
X158490133Y-81376708D01*
X158548142Y-81403758D01*
X158600317Y-81449515D01*
X158619736Y-81516140D01*
X158600317Y-81582765D01*
X158548142Y-81628522D01*
X158490130Y-81655573D01*
X158303726Y-81786093D01*
X158142820Y-81946999D01*
X158012299Y-82133404D01*
X157916128Y-82339642D01*
X157857231Y-82559450D01*
X157837398Y-82786140D01*
X157857231Y-83012829D01*
X157916128Y-83232637D01*
X158012299Y-83438875D01*
X158142820Y-83625280D01*
X158303726Y-83786186D01*
X158482988Y-83911705D01*
X158490133Y-83916708D01*
X158548142Y-83943758D01*
X158600317Y-83989515D01*
X158619736Y-84056140D01*
X158600317Y-84122765D01*
X158548142Y-84168522D01*
X158490130Y-84195573D01*
X158303726Y-84326093D01*
X158142820Y-84486999D01*
X158012299Y-84673404D01*
X157916128Y-84879642D01*
X157857231Y-85099450D01*
X157837398Y-85326140D01*
X157857231Y-85552829D01*
X157916128Y-85772637D01*
X158012299Y-85978875D01*
X158142820Y-86165280D01*
X158303726Y-86326186D01*
X158416521Y-86405165D01*
X158490133Y-86456708D01*
X158548140Y-86483757D01*
X158600316Y-86529513D01*
X158619736Y-86596137D01*
X158600318Y-86662762D01*
X158548143Y-86708520D01*
X158490133Y-86735571D01*
X158303726Y-86866093D01*
X158142820Y-87026999D01*
X158012299Y-87213404D01*
X157916128Y-87419642D01*
X157857231Y-87639450D01*
X157837398Y-87866140D01*
X157857231Y-88092829D01*
X157916128Y-88312637D01*
X158012299Y-88518875D01*
X158142820Y-88705280D01*
X158303726Y-88866186D01*
X158490131Y-88996707D01*
X158490132Y-88996707D01*
X158490133Y-88996708D01*
X158548732Y-89024033D01*
X158600907Y-89069790D01*
X158620327Y-89136414D01*
X158600908Y-89203039D01*
X158548733Y-89248796D01*
X158490389Y-89276003D01*
X158304047Y-89406481D01*
X158143208Y-89567320D01*
X158012732Y-89753659D01*
X157916600Y-89959813D01*
X157863995Y-90156139D01*
X157863995Y-90156140D01*
X160421739Y-90156140D01*
X160421738Y-90156139D01*
X160369133Y-89959813D01*
X160273001Y-89753659D01*
X160142525Y-89567320D01*
X159981686Y-89406481D01*
X159795349Y-89276006D01*
X159737000Y-89248797D01*
X159684825Y-89203039D01*
X159665406Y-89136414D01*
X159684826Y-89069789D01*
X159737001Y-89024033D01*
X159795601Y-88996708D01*
X159982006Y-88866187D01*
X160142914Y-88705279D01*
X160273435Y-88518874D01*
X160369606Y-88312636D01*
X160428502Y-88092832D01*
X160448335Y-87866140D01*
X160428502Y-87639448D01*
X160369606Y-87419644D01*
X160273435Y-87213406D01*
X160157818Y-87048287D01*
X160142913Y-87026999D01*
X159982007Y-86866093D01*
X159795599Y-86735570D01*
X159737591Y-86708520D01*
X159685416Y-86662763D01*
X159665997Y-86596137D01*
X159685417Y-86529513D01*
X159737588Y-86483759D01*
X159795601Y-86456708D01*
X159982006Y-86326187D01*
X160142914Y-86165279D01*
X160273435Y-85978874D01*
X160369606Y-85772636D01*
X160428502Y-85552832D01*
X160448335Y-85326140D01*
X160428502Y-85099448D01*
X160369606Y-84879644D01*
X160273435Y-84673406D01*
X160257379Y-84650476D01*
X160142913Y-84486999D01*
X159982007Y-84326093D01*
X159795600Y-84195571D01*
X159737592Y-84168522D01*
X159685416Y-84122765D01*
X159665996Y-84056140D01*
X159685416Y-83989515D01*
X159737592Y-83943758D01*
X159748319Y-83938756D01*
X159795601Y-83916708D01*
X159982006Y-83786187D01*
X160142914Y-83625279D01*
X160273435Y-83438874D01*
X160369606Y-83232636D01*
X160428502Y-83012832D01*
X160448335Y-82786140D01*
X160428502Y-82559448D01*
X160369606Y-82339644D01*
X160273435Y-82133406D01*
X160262636Y-82117984D01*
X160142913Y-81946999D01*
X159982007Y-81786093D01*
X159795600Y-81655571D01*
X159737592Y-81628522D01*
X159685416Y-81582765D01*
X159665996Y-81516140D01*
X159685416Y-81449515D01*
X159737592Y-81403758D01*
X159795601Y-81376708D01*
X159982006Y-81246187D01*
X160142914Y-81085279D01*
X160273435Y-80898874D01*
X160369606Y-80692636D01*
X160428502Y-80472832D01*
X160448335Y-80246140D01*
X160447898Y-80241140D01*
X160444477Y-80202037D01*
X160453862Y-80142779D01*
X160489969Y-80094864D01*
X160544345Y-80069508D01*
X160604259Y-80072648D01*
X160655686Y-80103549D01*
X162226048Y-81673911D01*
X162252928Y-81714139D01*
X162262367Y-81761592D01*
X162262367Y-94112521D01*
X162249579Y-94167365D01*
X162213853Y-94210897D01*
X162162558Y-94234138D01*
X162106273Y-94232296D01*
X161989469Y-94200998D01*
X161762867Y-94181173D01*
X161536264Y-94200998D01*
X161316539Y-94259873D01*
X161110383Y-94356005D01*
X161037393Y-94407113D01*
X162028738Y-95398458D01*
X162060832Y-95454045D01*
X162060832Y-95518233D01*
X162028738Y-95573820D01*
X161037393Y-96565165D01*
X161037393Y-96565166D01*
X161110382Y-96616273D01*
X161316540Y-96712406D01*
X161536264Y-96771281D01*
X161762867Y-96791106D01*
X161989469Y-96771281D01*
X162106273Y-96739984D01*
X162162558Y-96738142D01*
X162213853Y-96761383D01*
X162249579Y-96804915D01*
X162262367Y-96859759D01*
X162262367Y-99007679D01*
X162248852Y-99063974D01*
X162211252Y-99107997D01*
X162157765Y-99130152D01*
X162100049Y-99125610D01*
X162050686Y-99095360D01*
X158441466Y-95486140D01*
X160457900Y-95486140D01*
X160477725Y-95712742D01*
X160536600Y-95932466D01*
X160632733Y-96138624D01*
X160683839Y-96211611D01*
X160683840Y-96211612D01*
X161409313Y-95486140D01*
X161409313Y-95486138D01*
X160683840Y-94760667D01*
X160632732Y-94833656D01*
X160536600Y-95039812D01*
X160477725Y-95259537D01*
X160457900Y-95486140D01*
X158441466Y-95486140D01*
X158409371Y-95454045D01*
X154684944Y-91729617D01*
X154654364Y-91679222D01*
X154650510Y-91620400D01*
X154674253Y-91566445D01*
X154707818Y-91539508D01*
X154706714Y-91537931D01*
X154894865Y-91406187D01*
X154902006Y-91401187D01*
X155062914Y-91240279D01*
X155193435Y-91053874D01*
X155289606Y-90847636D01*
X155340917Y-90656140D01*
X157863995Y-90656140D01*
X157916600Y-90852466D01*
X158012732Y-91058620D01*
X158143208Y-91244959D01*
X158304047Y-91405798D01*
X158490386Y-91536274D01*
X158696540Y-91632406D01*
X158892866Y-91685011D01*
X158892867Y-91685012D01*
X158892867Y-90656140D01*
X159392867Y-90656140D01*
X159392867Y-91685011D01*
X159589193Y-91632406D01*
X159795347Y-91536274D01*
X159981686Y-91405798D01*
X160142525Y-91244959D01*
X160273001Y-91058620D01*
X160369133Y-90852466D01*
X160421739Y-90656140D01*
X159392867Y-90656140D01*
X158892867Y-90656140D01*
X157863995Y-90656140D01*
X155340917Y-90656140D01*
X155348502Y-90627832D01*
X155368335Y-90401140D01*
X155348502Y-90174448D01*
X155289606Y-89954644D01*
X155193435Y-89748406D01*
X155163625Y-89705833D01*
X155062913Y-89561999D01*
X154902007Y-89401093D01*
X154715600Y-89270571D01*
X154668905Y-89248797D01*
X154657591Y-89243521D01*
X154605416Y-89197765D01*
X154585996Y-89131140D01*
X154605416Y-89064515D01*
X154657592Y-89018758D01*
X154715601Y-88991708D01*
X154902006Y-88861187D01*
X155062914Y-88700279D01*
X155193435Y-88513874D01*
X155289606Y-88307636D01*
X155348502Y-88087832D01*
X155368335Y-87861140D01*
X155348502Y-87634448D01*
X155289606Y-87414644D01*
X155193435Y-87208406D01*
X155081319Y-87048287D01*
X155062913Y-87021999D01*
X154902007Y-86861093D01*
X154715599Y-86730570D01*
X154657591Y-86703520D01*
X154605416Y-86657763D01*
X154585997Y-86591137D01*
X154605417Y-86524513D01*
X154657588Y-86478759D01*
X154715601Y-86451708D01*
X154902006Y-86321187D01*
X155062914Y-86160279D01*
X155193435Y-85973874D01*
X155289606Y-85767636D01*
X155348502Y-85547832D01*
X155368335Y-85321140D01*
X155348502Y-85094448D01*
X155289606Y-84874644D01*
X155193435Y-84668406D01*
X155180880Y-84650476D01*
X155062913Y-84481999D01*
X154902007Y-84321093D01*
X154715599Y-84190570D01*
X154657591Y-84163520D01*
X154605416Y-84117763D01*
X154585997Y-84051137D01*
X154605417Y-83984513D01*
X154657588Y-83938759D01*
X154715601Y-83911708D01*
X154902006Y-83781187D01*
X155062914Y-83620279D01*
X155193435Y-83433874D01*
X155289606Y-83227636D01*
X155348502Y-83007832D01*
X155368335Y-82781140D01*
X155348502Y-82554448D01*
X155289606Y-82334644D01*
X155193435Y-82128406D01*
X155062914Y-81942001D01*
X155062913Y-81941999D01*
X154902007Y-81781093D01*
X154715600Y-81650571D01*
X154657592Y-81623522D01*
X154605416Y-81577765D01*
X154585996Y-81511140D01*
X154605416Y-81444515D01*
X154657592Y-81398758D01*
X154715601Y-81371708D01*
X154902006Y-81241187D01*
X155062914Y-81080279D01*
X155193435Y-80893874D01*
X155289606Y-80687636D01*
X155348502Y-80467832D01*
X155368335Y-80241140D01*
X155348502Y-80014448D01*
X155289606Y-79794644D01*
X155193435Y-79588406D01*
X155104785Y-79461800D01*
X155062913Y-79401999D01*
X154902007Y-79241093D01*
X154715600Y-79110571D01*
X154668315Y-79088522D01*
X154657591Y-79083521D01*
X154605416Y-79037765D01*
X154585996Y-78971140D01*
X154605416Y-78904515D01*
X154657592Y-78858758D01*
X154671214Y-78852406D01*
X154715601Y-78831708D01*
X154902006Y-78701187D01*
X155062914Y-78540279D01*
X155193435Y-78353874D01*
X155289606Y-78147636D01*
X155348502Y-77927832D01*
X155368335Y-77701140D01*
X155348502Y-77474448D01*
X155289606Y-77254644D01*
X155193435Y-77048406D01*
X155141094Y-76973655D01*
X155062913Y-76861999D01*
X154902007Y-76701093D01*
X154715600Y-76570571D01*
X154657592Y-76543522D01*
X154605416Y-76497765D01*
X154585996Y-76431140D01*
X154605416Y-76364515D01*
X154657592Y-76318758D01*
X154667075Y-76314336D01*
X154715601Y-76291708D01*
X154902006Y-76161187D01*
X155062914Y-76000279D01*
X155193435Y-75813874D01*
X155289606Y-75607636D01*
X155348502Y-75387832D01*
X155368335Y-75161140D01*
X155348502Y-74934448D01*
X155289606Y-74714644D01*
X155193435Y-74508406D01*
X155105048Y-74382175D01*
X155082888Y-74319162D01*
X155096634Y-74253795D01*
X155142295Y-74205043D01*
X155206623Y-74187052D01*
X157718428Y-74187052D01*
X157784217Y-74205944D01*
G37*
%TD.AperFunction*%
%TA.AperFunction,Conductor*%
G36*
X150373822Y-82123503D02*
G01*
X150421644Y-82153241D01*
X150870249Y-82601847D01*
X151307211Y-83038809D01*
X151334091Y-83079037D01*
X151343530Y-83126490D01*
X151343530Y-98737443D01*
X151330015Y-98793738D01*
X151292415Y-98837761D01*
X151238928Y-98859916D01*
X151181212Y-98855374D01*
X151131849Y-98825124D01*
X149257656Y-96950931D01*
X149225562Y-96895343D01*
X149225562Y-96831156D01*
X149257656Y-96775569D01*
X149313244Y-96743475D01*
X149429192Y-96712406D01*
X149635347Y-96616274D01*
X149708339Y-96565165D01*
X148982867Y-95839693D01*
X148629313Y-95486139D01*
X149336420Y-95486139D01*
X150061892Y-96211612D01*
X150113001Y-96138620D01*
X150209133Y-95932466D01*
X150268008Y-95712742D01*
X150287833Y-95486140D01*
X150268008Y-95259537D01*
X150209133Y-95039813D01*
X150113000Y-94833655D01*
X150061892Y-94760666D01*
X149336420Y-95486139D01*
X148629313Y-95486139D01*
X147903840Y-94760667D01*
X147852732Y-94833656D01*
X147756600Y-95039813D01*
X147725531Y-95155763D01*
X147693437Y-95211351D01*
X147637849Y-95243444D01*
X147573662Y-95243444D01*
X147518075Y-95211350D01*
X146713838Y-94407113D01*
X148257393Y-94407113D01*
X148982867Y-95132586D01*
X148982868Y-95132586D01*
X149708339Y-94407114D01*
X149708338Y-94407112D01*
X149635351Y-94356006D01*
X149429193Y-94259873D01*
X149209469Y-94200998D01*
X148982867Y-94181173D01*
X148756264Y-94200998D01*
X148536539Y-94259873D01*
X148330383Y-94356005D01*
X148257394Y-94407113D01*
X148257393Y-94407113D01*
X146713838Y-94407113D01*
X145893557Y-93586832D01*
X145866677Y-93546604D01*
X145857238Y-93499151D01*
X145857238Y-93288331D01*
X145859501Y-93267827D01*
X145858859Y-93247405D01*
X145857299Y-93197735D01*
X145857238Y-93193841D01*
X145857238Y-93166248D01*
X145857238Y-93166241D01*
X145856733Y-93162244D01*
X145855818Y-93150614D01*
X145854447Y-93106963D01*
X145848857Y-93087725D01*
X145844912Y-93068673D01*
X145842402Y-93048799D01*
X145839375Y-93041153D01*
X145826316Y-93008172D01*
X145822543Y-92997151D01*
X145810355Y-92955201D01*
X145804996Y-92946139D01*
X145800159Y-92937960D01*
X145791601Y-92920493D01*
X145784224Y-92901859D01*
X145758536Y-92866503D01*
X145752147Y-92856775D01*
X145729908Y-92819170D01*
X145715744Y-92805006D01*
X145703107Y-92790211D01*
X145691333Y-92774005D01*
X145691332Y-92774004D01*
X145657673Y-92746159D01*
X145649043Y-92738305D01*
X144783951Y-91873213D01*
X144771055Y-91857115D01*
X144719924Y-91809100D01*
X144717127Y-91806389D01*
X144697619Y-91786881D01*
X144694439Y-91784414D01*
X144685573Y-91776841D01*
X144653731Y-91746940D01*
X144636173Y-91737287D01*
X144619913Y-91726606D01*
X144604085Y-91714329D01*
X144564000Y-91696982D01*
X144553510Y-91691843D01*
X144515240Y-91670804D01*
X144495840Y-91665823D01*
X144477433Y-91659521D01*
X144459046Y-91651564D01*
X144415907Y-91644731D01*
X144404473Y-91642363D01*
X144362168Y-91631502D01*
X144342133Y-91631502D01*
X144322735Y-91629975D01*
X144315311Y-91628799D01*
X144302954Y-91626842D01*
X144302953Y-91626842D01*
X144296987Y-91627406D01*
X144259474Y-91630952D01*
X144247805Y-91631502D01*
X144193528Y-91631502D01*
X144143093Y-91620782D01*
X144101379Y-91590475D01*
X144095652Y-91584114D01*
X143942511Y-91472851D01*
X143942510Y-91472850D01*
X143942508Y-91472849D01*
X143769583Y-91395857D01*
X143584429Y-91356502D01*
X143584427Y-91356502D01*
X143506998Y-91356502D01*
X143442670Y-91338511D01*
X143397009Y-91289759D01*
X143383263Y-91224393D01*
X143405423Y-91161379D01*
X143418921Y-91142101D01*
X143515054Y-90935943D01*
X143573929Y-90716219D01*
X143579623Y-90651140D01*
X145163995Y-90651140D01*
X145216600Y-90847466D01*
X145312732Y-91053620D01*
X145443208Y-91239959D01*
X145604047Y-91400798D01*
X145790386Y-91531274D01*
X145996540Y-91627406D01*
X146192866Y-91680011D01*
X146192867Y-91680012D01*
X146192867Y-90651140D01*
X146692867Y-90651140D01*
X146692867Y-91680011D01*
X146889193Y-91627406D01*
X147095347Y-91531274D01*
X147281686Y-91400798D01*
X147442525Y-91239959D01*
X147573001Y-91053620D01*
X147669133Y-90847466D01*
X147721739Y-90651140D01*
X146692867Y-90651140D01*
X146192867Y-90651140D01*
X145163995Y-90651140D01*
X143579623Y-90651140D01*
X143593754Y-90489616D01*
X143573929Y-90263014D01*
X143515054Y-90043290D01*
X143418921Y-89837132D01*
X143367813Y-89764143D01*
X142376468Y-90755489D01*
X142320881Y-90787583D01*
X142256693Y-90787583D01*
X142201106Y-90755489D01*
X141209761Y-89764144D01*
X141158653Y-89837133D01*
X141078423Y-90009188D01*
X141041527Y-90055159D01*
X140987573Y-90078899D01*
X140928753Y-90075044D01*
X140878360Y-90044464D01*
X140244486Y-89410590D01*
X141563314Y-89410590D01*
X142288788Y-90136063D01*
X142288789Y-90136063D01*
X143014260Y-89410591D01*
X143014259Y-89410589D01*
X142941272Y-89359483D01*
X142735114Y-89263350D01*
X142515390Y-89204475D01*
X142288788Y-89184650D01*
X142062185Y-89204475D01*
X141842460Y-89263350D01*
X141636304Y-89359482D01*
X141563315Y-89410590D01*
X141563314Y-89410590D01*
X140244486Y-89410590D01*
X140123131Y-89289235D01*
X140096251Y-89249007D01*
X140086812Y-89201554D01*
X140086812Y-85489617D01*
X140983319Y-85489617D01*
X141003152Y-85716306D01*
X141062049Y-85936114D01*
X141158220Y-86142352D01*
X141288741Y-86328757D01*
X141449647Y-86489663D01*
X141636052Y-86620184D01*
X141636053Y-86620184D01*
X141636054Y-86620185D01*
X141842292Y-86716356D01*
X142062096Y-86775252D01*
X142288788Y-86795085D01*
X142515480Y-86775252D01*
X142735284Y-86716356D01*
X142941522Y-86620185D01*
X143127927Y-86489664D01*
X143288835Y-86328756D01*
X143419356Y-86142351D01*
X143515527Y-85936113D01*
X143574423Y-85716309D01*
X143594256Y-85489617D01*
X143574423Y-85262925D01*
X143515527Y-85043121D01*
X143419356Y-84836883D01*
X143412577Y-84827202D01*
X143288834Y-84650476D01*
X143127928Y-84489570D01*
X142941523Y-84359049D01*
X142735285Y-84262878D01*
X142515477Y-84203981D01*
X142288788Y-84184148D01*
X142062098Y-84203981D01*
X141842290Y-84262878D01*
X141636052Y-84359049D01*
X141449647Y-84489570D01*
X141288741Y-84650476D01*
X141158220Y-84836881D01*
X141062049Y-85043119D01*
X141003152Y-85262927D01*
X140983319Y-85489617D01*
X140086812Y-85489617D01*
X140086812Y-83338787D01*
X140095048Y-83294349D01*
X140118662Y-83255815D01*
X140223161Y-83139757D01*
X140317807Y-82975825D01*
X140371539Y-82810455D01*
X140376302Y-82795797D01*
X140396088Y-82607541D01*
X140376302Y-82419285D01*
X140373761Y-82411467D01*
X140369221Y-82353754D01*
X140391376Y-82300267D01*
X140435400Y-82262668D01*
X140491694Y-82249153D01*
X145077435Y-82249153D01*
X145132279Y-82261941D01*
X145175811Y-82297667D01*
X145199052Y-82348962D01*
X145197210Y-82405246D01*
X145157231Y-82554448D01*
X145137398Y-82781140D01*
X145157231Y-83007829D01*
X145216128Y-83227637D01*
X145312299Y-83433875D01*
X145442820Y-83620280D01*
X145603726Y-83781186D01*
X145790129Y-83911705D01*
X145790133Y-83911708D01*
X145848140Y-83938757D01*
X145900316Y-83984513D01*
X145919736Y-84051137D01*
X145900318Y-84117762D01*
X145848143Y-84163520D01*
X145790133Y-84190571D01*
X145603726Y-84321093D01*
X145442820Y-84481999D01*
X145312299Y-84668404D01*
X145216128Y-84874642D01*
X145157231Y-85094450D01*
X145137398Y-85321140D01*
X145157231Y-85547829D01*
X145216128Y-85767637D01*
X145312299Y-85973875D01*
X145442820Y-86160280D01*
X145603726Y-86321186D01*
X145743561Y-86419098D01*
X145790133Y-86451708D01*
X145848140Y-86478757D01*
X145900316Y-86524513D01*
X145919736Y-86591137D01*
X145900318Y-86657762D01*
X145848143Y-86703520D01*
X145790133Y-86730571D01*
X145603726Y-86861093D01*
X145442820Y-87021999D01*
X145312299Y-87208404D01*
X145216128Y-87414642D01*
X145157231Y-87634450D01*
X145137398Y-87861140D01*
X145157231Y-88087829D01*
X145216128Y-88307637D01*
X145312299Y-88513875D01*
X145442820Y-88700280D01*
X145603726Y-88861186D01*
X145790131Y-88991707D01*
X145790132Y-88991707D01*
X145790133Y-88991708D01*
X145848732Y-89019033D01*
X145900907Y-89064790D01*
X145920327Y-89131414D01*
X145900908Y-89198039D01*
X145848733Y-89243796D01*
X145790389Y-89271003D01*
X145604047Y-89401481D01*
X145443208Y-89562320D01*
X145312732Y-89748659D01*
X145216600Y-89954813D01*
X145163995Y-90151139D01*
X145163995Y-90151140D01*
X147721739Y-90151140D01*
X147721738Y-90151139D01*
X147669133Y-89954813D01*
X147573001Y-89748659D01*
X147442525Y-89562320D01*
X147281686Y-89401481D01*
X147095349Y-89271006D01*
X147037000Y-89243797D01*
X146984825Y-89198039D01*
X146965406Y-89131414D01*
X146984826Y-89064789D01*
X147037001Y-89019033D01*
X147095601Y-88991708D01*
X147282006Y-88861187D01*
X147442914Y-88700279D01*
X147573435Y-88513874D01*
X147669606Y-88307636D01*
X147728502Y-88087832D01*
X147748335Y-87861140D01*
X147728502Y-87634448D01*
X147669606Y-87414644D01*
X147573435Y-87208406D01*
X147461319Y-87048287D01*
X147442913Y-87021999D01*
X147282007Y-86861093D01*
X147095599Y-86730570D01*
X147037591Y-86703520D01*
X146985416Y-86657763D01*
X146965997Y-86591137D01*
X146985417Y-86524513D01*
X147037588Y-86478759D01*
X147095601Y-86451708D01*
X147282006Y-86321187D01*
X147442914Y-86160279D01*
X147573435Y-85973874D01*
X147669606Y-85767636D01*
X147728502Y-85547832D01*
X147748335Y-85321140D01*
X147728502Y-85094448D01*
X147669606Y-84874644D01*
X147573435Y-84668406D01*
X147560880Y-84650476D01*
X147442913Y-84481999D01*
X147282007Y-84321093D01*
X147095599Y-84190570D01*
X147037591Y-84163520D01*
X146985416Y-84117763D01*
X146965997Y-84051137D01*
X146985417Y-83984513D01*
X147037588Y-83938759D01*
X147095601Y-83911708D01*
X147282006Y-83781187D01*
X147442914Y-83620279D01*
X147573435Y-83433874D01*
X147669606Y-83227636D01*
X147728502Y-83007832D01*
X147748335Y-82781140D01*
X147728502Y-82554448D01*
X147718176Y-82515912D01*
X147688524Y-82405246D01*
X147686682Y-82348962D01*
X147709923Y-82297667D01*
X147753455Y-82261941D01*
X147808299Y-82249153D01*
X148757625Y-82249153D01*
X148808060Y-82259873D01*
X148849774Y-82290180D01*
X148883518Y-82327656D01*
X149036659Y-82438919D01*
X149209587Y-82515912D01*
X149394742Y-82555268D01*
X149394744Y-82555268D01*
X149584036Y-82555268D01*
X149584038Y-82555268D01*
X149707473Y-82529030D01*
X149769193Y-82515912D01*
X149942120Y-82438919D01*
X149979898Y-82411472D01*
X150095260Y-82327657D01*
X150122263Y-82297667D01*
X150221923Y-82186984D01*
X150226577Y-82178922D01*
X150265072Y-82137822D01*
X150317777Y-82117984D01*
X150373822Y-82123503D01*
G37*
%TD.AperFunction*%
%TA.AperFunction,Conductor*%
G36*
X168040949Y-75757636D02*
G01*
X168091344Y-75788216D01*
X170421857Y-78118729D01*
X170453951Y-78174316D01*
X170453951Y-78238503D01*
X170421858Y-78294091D01*
X170366271Y-78326185D01*
X170224833Y-78364084D01*
X170018678Y-78460215D01*
X169945688Y-78511323D01*
X171750187Y-80315822D01*
X171765762Y-80314459D01*
X171776606Y-80305199D01*
X171837453Y-80292819D01*
X171896674Y-80311491D01*
X171939417Y-80356533D01*
X171954964Y-80416649D01*
X171954964Y-91796237D01*
X171952699Y-91816743D01*
X171954903Y-91886854D01*
X171954964Y-91890749D01*
X171954964Y-91918330D01*
X171955467Y-91922315D01*
X171956382Y-91933948D01*
X171957754Y-91977607D01*
X171963343Y-91996841D01*
X171967289Y-92015897D01*
X171969799Y-92035773D01*
X171985878Y-92076385D01*
X171989661Y-92087432D01*
X172001846Y-92129372D01*
X172012044Y-92146616D01*
X172020600Y-92164081D01*
X172027978Y-92182713D01*
X172035095Y-92192509D01*
X172053644Y-92218040D01*
X172060057Y-92227803D01*
X172082290Y-92265397D01*
X172082293Y-92265400D01*
X172082294Y-92265401D01*
X172096459Y-92279566D01*
X172109091Y-92294356D01*
X172120870Y-92310568D01*
X172154522Y-92338407D01*
X172163163Y-92346270D01*
X173083387Y-93266494D01*
X173113965Y-93316882D01*
X173117824Y-93375696D01*
X173094092Y-93429648D01*
X173060513Y-93456606D01*
X173061616Y-93458182D01*
X172866323Y-93594925D01*
X172705417Y-93755831D01*
X172592851Y-93916595D01*
X172548533Y-93955461D01*
X172491276Y-93969472D01*
X169668936Y-93969472D01*
X169621483Y-93960033D01*
X169581255Y-93933153D01*
X167383426Y-91735324D01*
X167352845Y-91684928D01*
X167348992Y-91626105D01*
X167372736Y-91572150D01*
X167407590Y-91544180D01*
X167406715Y-91542930D01*
X167506802Y-91472849D01*
X167602006Y-91406187D01*
X167762914Y-91245279D01*
X167893435Y-91058874D01*
X167989606Y-90852636D01*
X168048502Y-90632832D01*
X168068335Y-90406140D01*
X168048502Y-90179448D01*
X167989606Y-89959644D01*
X167893435Y-89753406D01*
X167890111Y-89748659D01*
X167762913Y-89566999D01*
X167602007Y-89406093D01*
X167415603Y-89275573D01*
X167405803Y-89271003D01*
X167357589Y-89248520D01*
X167305415Y-89202763D01*
X167285996Y-89136137D01*
X167305416Y-89069512D01*
X167357588Y-89023759D01*
X167415601Y-88996708D01*
X167602006Y-88866187D01*
X167762914Y-88705279D01*
X167893435Y-88518874D01*
X167989606Y-88312636D01*
X168048502Y-88092832D01*
X168068335Y-87866140D01*
X168048502Y-87639448D01*
X167989606Y-87419644D01*
X167893435Y-87213406D01*
X167777818Y-87048287D01*
X167762913Y-87026999D01*
X167602007Y-86866093D01*
X167415599Y-86735570D01*
X167357591Y-86708520D01*
X167305416Y-86662763D01*
X167285997Y-86596137D01*
X167305417Y-86529513D01*
X167357588Y-86483759D01*
X167415601Y-86456708D01*
X167602006Y-86326187D01*
X167762914Y-86165279D01*
X167893435Y-85978874D01*
X167989606Y-85772636D01*
X168048502Y-85552832D01*
X168068335Y-85326140D01*
X168048502Y-85099448D01*
X167989606Y-84879644D01*
X167893435Y-84673406D01*
X167877379Y-84650476D01*
X167762913Y-84486999D01*
X167602007Y-84326093D01*
X167415600Y-84195571D01*
X167357592Y-84168522D01*
X167305416Y-84122765D01*
X167285996Y-84056140D01*
X167305416Y-83989515D01*
X167357592Y-83943758D01*
X167368319Y-83938756D01*
X167415601Y-83916708D01*
X167602006Y-83786187D01*
X167762914Y-83625279D01*
X167893435Y-83438874D01*
X167989606Y-83232636D01*
X168048502Y-83012832D01*
X168068335Y-82786140D01*
X168048502Y-82559448D01*
X167989606Y-82339644D01*
X167893435Y-82133406D01*
X167882636Y-82117984D01*
X167762913Y-81946999D01*
X167602007Y-81786093D01*
X167415600Y-81655571D01*
X167357592Y-81628522D01*
X167305416Y-81582765D01*
X167285996Y-81516140D01*
X167305416Y-81449515D01*
X167357592Y-81403758D01*
X167415601Y-81376708D01*
X167602006Y-81246187D01*
X167762914Y-81085279D01*
X167893435Y-80898874D01*
X167989606Y-80692636D01*
X167995838Y-80669376D01*
X169945688Y-80669376D01*
X170018677Y-80720483D01*
X170224835Y-80816616D01*
X170444559Y-80875491D01*
X170671162Y-80895316D01*
X170897764Y-80875491D01*
X171117488Y-80816616D01*
X171323642Y-80720484D01*
X171396634Y-80669375D01*
X170671163Y-79943903D01*
X170671162Y-79943903D01*
X169945688Y-80669375D01*
X169945688Y-80669376D01*
X167995838Y-80669376D01*
X168048502Y-80472832D01*
X168068335Y-80246140D01*
X168048502Y-80019448D01*
X167989606Y-79799644D01*
X167893435Y-79593406D01*
X167891295Y-79590350D01*
X169366195Y-79590350D01*
X169386020Y-79816952D01*
X169444895Y-80036676D01*
X169541028Y-80242834D01*
X169592134Y-80315821D01*
X169592136Y-80315822D01*
X170317608Y-79590351D01*
X170317608Y-79590350D01*
X169592135Y-78864876D01*
X169592135Y-78864877D01*
X169541027Y-78937866D01*
X169444895Y-79144022D01*
X169386020Y-79363747D01*
X169366195Y-79590350D01*
X167891295Y-79590350D01*
X167762913Y-79406999D01*
X167602007Y-79246093D01*
X167415600Y-79115571D01*
X167374594Y-79096450D01*
X167357591Y-79088521D01*
X167305416Y-79042765D01*
X167285996Y-78976140D01*
X167305416Y-78909515D01*
X167357592Y-78863758D01*
X167415601Y-78836708D01*
X167602006Y-78706187D01*
X167762914Y-78545279D01*
X167893435Y-78358874D01*
X167989606Y-78152636D01*
X168048502Y-77932832D01*
X168068335Y-77706140D01*
X168048502Y-77479448D01*
X167989606Y-77259644D01*
X167893435Y-77053406D01*
X167837593Y-76973655D01*
X167762913Y-76866999D01*
X167602007Y-76706093D01*
X167415600Y-76575571D01*
X167357592Y-76548522D01*
X167305416Y-76502765D01*
X167285996Y-76436140D01*
X167305416Y-76369515D01*
X167357592Y-76323758D01*
X167415601Y-76296708D01*
X167602006Y-76166187D01*
X167762914Y-76005279D01*
X167893435Y-75818874D01*
X167893435Y-75818873D01*
X167899657Y-75809988D01*
X167901233Y-75811092D01*
X167928173Y-75777524D01*
X167982127Y-75753781D01*
X168040949Y-75757636D01*
G37*
%TD.AperFunction*%
%TA.AperFunction,Conductor*%
G36*
X129999492Y-80788689D02*
G01*
X130045249Y-80840865D01*
X130072298Y-80898873D01*
X130202820Y-81085280D01*
X130363726Y-81246186D01*
X130460893Y-81314222D01*
X130550133Y-81376708D01*
X130597186Y-81398649D01*
X130643153Y-81435542D01*
X130666894Y-81489496D01*
X130663039Y-81548316D01*
X130632459Y-81598710D01*
X127533043Y-84698128D01*
X127492815Y-84725008D01*
X127445362Y-84734447D01*
X127386167Y-84734447D01*
X127201012Y-84773802D01*
X127028084Y-84850795D01*
X126874944Y-84962057D01*
X126748281Y-85102730D01*
X126653635Y-85266662D01*
X126595141Y-85446689D01*
X126575355Y-85634946D01*
X126595141Y-85823204D01*
X126653635Y-86003231D01*
X126748281Y-86167163D01*
X126874944Y-86307836D01*
X127028084Y-86419098D01*
X127201012Y-86496091D01*
X127331146Y-86523752D01*
X127383400Y-86548676D01*
X127418644Y-86594606D01*
X127429195Y-86651531D01*
X127412753Y-86707041D01*
X127329530Y-86851188D01*
X127271036Y-87031214D01*
X127251250Y-87219472D01*
X127271036Y-87407729D01*
X127329530Y-87587756D01*
X127424176Y-87751688D01*
X127550839Y-87892361D01*
X127703979Y-88003623D01*
X127876907Y-88080616D01*
X128062062Y-88119972D01*
X128062064Y-88119972D01*
X128251356Y-88119972D01*
X128251358Y-88119972D01*
X128402578Y-88087829D01*
X128436513Y-88080616D01*
X128609440Y-88003623D01*
X128762581Y-87892360D01*
X128768308Y-87885998D01*
X128810022Y-87855692D01*
X128860457Y-87844972D01*
X136858325Y-87844972D01*
X136905778Y-87854411D01*
X136946006Y-87881291D01*
X138633673Y-89568959D01*
X138663923Y-89618322D01*
X138668465Y-89676038D01*
X138646310Y-89729525D01*
X138602287Y-89767125D01*
X138545992Y-89780640D01*
X133578649Y-89780640D01*
X133521392Y-89766629D01*
X133477074Y-89727763D01*
X133404628Y-89624299D01*
X133254708Y-89474379D01*
X133081031Y-89352769D01*
X132992435Y-89311456D01*
X132888877Y-89263166D01*
X132684077Y-89208290D01*
X132472866Y-89189811D01*
X132261656Y-89208290D01*
X132056856Y-89263166D01*
X131885762Y-89342949D01*
X131864703Y-89352769D01*
X131691026Y-89474379D01*
X131691022Y-89474382D01*
X131541109Y-89624295D01*
X131541106Y-89624298D01*
X131541106Y-89624299D01*
X131441446Y-89766629D01*
X131419495Y-89797978D01*
X131329893Y-89990130D01*
X131322642Y-90017193D01*
X131290548Y-90072780D01*
X131234960Y-90104874D01*
X131170774Y-90104874D01*
X131115186Y-90072780D01*
X131083092Y-90017193D01*
X131079101Y-90002299D01*
X131075841Y-89990131D01*
X130986238Y-89797976D01*
X130864628Y-89624299D01*
X130714708Y-89474379D01*
X130541031Y-89352769D01*
X130452435Y-89311456D01*
X130348877Y-89263166D01*
X130144077Y-89208290D01*
X129932866Y-89189811D01*
X129721656Y-89208290D01*
X129516856Y-89263166D01*
X129345762Y-89342949D01*
X129324703Y-89352769D01*
X129151026Y-89474379D01*
X129151025Y-89474380D01*
X129071865Y-89553540D01*
X129027101Y-89582194D01*
X128974453Y-89589476D01*
X128923592Y-89574046D01*
X128901495Y-89554408D01*
X128900733Y-89555330D01*
X128855008Y-89517504D01*
X128846366Y-89509640D01*
X127872878Y-88536151D01*
X127859982Y-88520053D01*
X127808851Y-88472038D01*
X127806054Y-88469327D01*
X127786546Y-88449819D01*
X127783366Y-88447352D01*
X127774500Y-88439779D01*
X127742658Y-88409878D01*
X127725100Y-88400225D01*
X127708840Y-88389544D01*
X127693012Y-88377267D01*
X127652927Y-88359920D01*
X127642437Y-88354781D01*
X127604167Y-88333742D01*
X127584767Y-88328761D01*
X127566360Y-88322459D01*
X127547973Y-88314502D01*
X127504834Y-88307669D01*
X127493400Y-88305301D01*
X127451095Y-88294440D01*
X127431060Y-88294440D01*
X127411662Y-88292913D01*
X127404238Y-88291737D01*
X127391881Y-88289780D01*
X127391880Y-88289780D01*
X127358827Y-88292904D01*
X127348401Y-88293890D01*
X127336732Y-88294440D01*
X121798519Y-88294440D01*
X121742224Y-88280925D01*
X121698201Y-88243325D01*
X121676046Y-88189838D01*
X121680588Y-88132122D01*
X121710838Y-88082759D01*
X124977219Y-84816378D01*
X128248045Y-81545551D01*
X128303630Y-81513459D01*
X128367818Y-81513459D01*
X128436175Y-81531775D01*
X128662867Y-81551608D01*
X128889559Y-81531775D01*
X129109363Y-81472879D01*
X129315601Y-81376708D01*
X129502006Y-81246187D01*
X129662914Y-81085279D01*
X129793435Y-80898874D01*
X129820485Y-80840864D01*
X129866242Y-80788689D01*
X129932867Y-80769269D01*
X129999492Y-80788689D01*
G37*
%TD.AperFunction*%
%TA.AperFunction,Conductor*%
G36*
X136219992Y-82262668D02*
G01*
X136264015Y-82300268D01*
X136286170Y-82353756D01*
X136281628Y-82411467D01*
X136274326Y-82433941D01*
X136274326Y-82433942D01*
X136256081Y-82607540D01*
X136254540Y-82622198D01*
X136260254Y-82676567D01*
X136274326Y-82810455D01*
X136332820Y-82990482D01*
X136427466Y-83154414D01*
X136554129Y-83295087D01*
X136707269Y-83406349D01*
X136880197Y-83483342D01*
X137065352Y-83522698D01*
X137065354Y-83522698D01*
X137124548Y-83522698D01*
X137172001Y-83532137D01*
X137212229Y-83559017D01*
X137701127Y-84047915D01*
X137728007Y-84088143D01*
X137737446Y-84135596D01*
X137737446Y-84649907D01*
X137729210Y-84694346D01*
X137705596Y-84732878D01*
X137683906Y-84756968D01*
X137656380Y-84787538D01*
X137606131Y-84821270D01*
X137545901Y-84827202D01*
X137490038Y-84803919D01*
X137451848Y-84756968D01*
X137412998Y-84673653D01*
X137361892Y-84600666D01*
X136636420Y-85326140D01*
X136636420Y-85326141D01*
X137361892Y-86051612D01*
X137413001Y-85978621D01*
X137438052Y-85924898D01*
X137476242Y-85877946D01*
X137532106Y-85854663D01*
X137592336Y-85860595D01*
X137642585Y-85894329D01*
X137757075Y-86021483D01*
X137910215Y-86132745D01*
X138083143Y-86209738D01*
X138268298Y-86249094D01*
X138268300Y-86249094D01*
X138457592Y-86249094D01*
X138457594Y-86249094D01*
X138642746Y-86209739D01*
X138642747Y-86209738D01*
X138642749Y-86209738D01*
X138661375Y-86201444D01*
X138721540Y-86191106D01*
X138779347Y-86210728D01*
X138820785Y-86255556D01*
X138835812Y-86314724D01*
X138835812Y-87702555D01*
X138822297Y-87758850D01*
X138784697Y-87802873D01*
X138731210Y-87825028D01*
X138673494Y-87820486D01*
X138624131Y-87790236D01*
X138243670Y-87409775D01*
X137669579Y-86835683D01*
X137656683Y-86819585D01*
X137605552Y-86771570D01*
X137602755Y-86768859D01*
X137583247Y-86749351D01*
X137580067Y-86746884D01*
X137571201Y-86739311D01*
X137539359Y-86709410D01*
X137521801Y-86699757D01*
X137505541Y-86689076D01*
X137489713Y-86676799D01*
X137449628Y-86659452D01*
X137439138Y-86654313D01*
X137400868Y-86633274D01*
X137381468Y-86628293D01*
X137363061Y-86621991D01*
X137344674Y-86614034D01*
X137301535Y-86607201D01*
X137290101Y-86604833D01*
X137247796Y-86593972D01*
X137227761Y-86593972D01*
X137208363Y-86592445D01*
X137200104Y-86591137D01*
X137188582Y-86589312D01*
X137188581Y-86589312D01*
X137169275Y-86591137D01*
X137145102Y-86593422D01*
X137133433Y-86593972D01*
X137127143Y-86593972D01*
X137062046Y-86575510D01*
X137016332Y-86525623D01*
X137003615Y-86459164D01*
X137008339Y-86405165D01*
X136282868Y-85679693D01*
X136282867Y-85679693D01*
X135557393Y-86405165D01*
X135562118Y-86459164D01*
X135549401Y-86525623D01*
X135503687Y-86575510D01*
X135438590Y-86593972D01*
X132132847Y-86593972D01*
X132072730Y-86578425D01*
X132027689Y-86535682D01*
X132009017Y-86476461D01*
X132021397Y-86415613D01*
X132061724Y-86368397D01*
X132115609Y-86330666D01*
X132122006Y-86326187D01*
X132282914Y-86165279D01*
X132413435Y-85978874D01*
X132509606Y-85772636D01*
X132568502Y-85552832D01*
X132588335Y-85326140D01*
X134977900Y-85326140D01*
X134997725Y-85552742D01*
X135056600Y-85772466D01*
X135152733Y-85978624D01*
X135203839Y-86051611D01*
X135203841Y-86051612D01*
X135929313Y-85326141D01*
X135929313Y-85326140D01*
X135203840Y-84600666D01*
X135203840Y-84600667D01*
X135152732Y-84673656D01*
X135056600Y-84879812D01*
X134997725Y-85099537D01*
X134977900Y-85326140D01*
X132588335Y-85326140D01*
X132568502Y-85099448D01*
X132509606Y-84879644D01*
X132413435Y-84673406D01*
X132397379Y-84650476D01*
X132282913Y-84486999D01*
X132122007Y-84326093D01*
X132009211Y-84247113D01*
X135557393Y-84247113D01*
X136282867Y-84972586D01*
X136282868Y-84972586D01*
X137008339Y-84247114D01*
X137008338Y-84247112D01*
X136935351Y-84196006D01*
X136729193Y-84099873D01*
X136509469Y-84040998D01*
X136282866Y-84021173D01*
X136056264Y-84040998D01*
X135836539Y-84099873D01*
X135630383Y-84196005D01*
X135557394Y-84247113D01*
X135557393Y-84247113D01*
X132009211Y-84247113D01*
X131935602Y-84195572D01*
X131729364Y-84099401D01*
X131509556Y-84040504D01*
X131282867Y-84020671D01*
X131056177Y-84040504D01*
X130836369Y-84099401D01*
X130630131Y-84195572D01*
X130443726Y-84326093D01*
X130282820Y-84486999D01*
X130152299Y-84673404D01*
X130056128Y-84879642D01*
X129997231Y-85099450D01*
X129977398Y-85326140D01*
X129997231Y-85552829D01*
X130056128Y-85772637D01*
X130152299Y-85978875D01*
X130282820Y-86165280D01*
X130443726Y-86326186D01*
X130504010Y-86368397D01*
X130544337Y-86415613D01*
X130556717Y-86476461D01*
X130538045Y-86535682D01*
X130493004Y-86578425D01*
X130432887Y-86593972D01*
X128860457Y-86593972D01*
X128810022Y-86583252D01*
X128768308Y-86552945D01*
X128762581Y-86546584D01*
X128609440Y-86435321D01*
X128609439Y-86435320D01*
X128609437Y-86435319D01*
X128436512Y-86358327D01*
X128306378Y-86330666D01*
X128254123Y-86305742D01*
X128218879Y-86259811D01*
X128208329Y-86202886D01*
X128224772Y-86147376D01*
X128307994Y-86003231D01*
X128333446Y-85924898D01*
X128366489Y-85823203D01*
X128384136Y-85655291D01*
X128395536Y-85614872D01*
X128419773Y-85580577D01*
X131714880Y-82285472D01*
X131755109Y-82258592D01*
X131802562Y-82249153D01*
X136163697Y-82249153D01*
X136219992Y-82262668D01*
G37*
%TD.AperFunction*%
%TA.AperFunction,Conductor*%
G36*
X165686940Y-74205043D02*
G01*
X165732601Y-74253795D01*
X165746347Y-74319162D01*
X165724187Y-74382175D01*
X165632299Y-74513405D01*
X165536128Y-74719642D01*
X165477231Y-74939450D01*
X165457398Y-75166140D01*
X165477231Y-75392829D01*
X165536128Y-75612637D01*
X165632299Y-75818875D01*
X165762820Y-76005280D01*
X165923726Y-76166186D01*
X165984116Y-76208471D01*
X166110133Y-76296708D01*
X166168142Y-76323758D01*
X166220317Y-76369515D01*
X166239736Y-76436140D01*
X166220317Y-76502765D01*
X166168142Y-76548522D01*
X166110130Y-76575573D01*
X165923726Y-76706093D01*
X165762820Y-76866999D01*
X165632299Y-77053404D01*
X165536128Y-77259642D01*
X165477231Y-77479450D01*
X165457398Y-77706140D01*
X165477231Y-77932829D01*
X165536128Y-78152637D01*
X165632299Y-78358875D01*
X165762820Y-78545280D01*
X165923726Y-78706186D01*
X166102989Y-78831706D01*
X166110133Y-78836708D01*
X166168140Y-78863757D01*
X166220316Y-78909513D01*
X166239736Y-78976137D01*
X166220318Y-79042762D01*
X166168143Y-79088520D01*
X166110133Y-79115571D01*
X165923726Y-79246093D01*
X165762820Y-79406999D01*
X165632299Y-79593404D01*
X165536128Y-79799642D01*
X165477231Y-80019450D01*
X165457398Y-80246140D01*
X165477231Y-80472829D01*
X165536128Y-80692637D01*
X165632299Y-80898875D01*
X165762820Y-81085280D01*
X165923726Y-81246186D01*
X166102992Y-81371708D01*
X166110133Y-81376708D01*
X166168142Y-81403758D01*
X166220317Y-81449515D01*
X166239736Y-81516140D01*
X166220317Y-81582765D01*
X166168142Y-81628522D01*
X166110130Y-81655573D01*
X165923726Y-81786093D01*
X165762820Y-81946999D01*
X165632299Y-82133404D01*
X165536128Y-82339642D01*
X165477231Y-82559450D01*
X165457398Y-82786140D01*
X165477231Y-83012829D01*
X165536128Y-83232637D01*
X165632299Y-83438875D01*
X165762820Y-83625280D01*
X165923726Y-83786186D01*
X166102988Y-83911705D01*
X166110133Y-83916708D01*
X166168142Y-83943758D01*
X166220317Y-83989515D01*
X166239736Y-84056140D01*
X166220317Y-84122765D01*
X166168142Y-84168522D01*
X166110130Y-84195573D01*
X165923727Y-84326093D01*
X165762820Y-84487000D01*
X165749917Y-84505427D01*
X165708930Y-84542491D01*
X165655912Y-84558068D01*
X165601391Y-84549065D01*
X165556195Y-84517271D01*
X165554314Y-84515182D01*
X165540473Y-84499810D01*
X165540472Y-84499809D01*
X165540471Y-84499808D01*
X165387332Y-84388546D01*
X165214404Y-84311553D01*
X165029250Y-84272198D01*
X165029248Y-84272198D01*
X164839956Y-84272198D01*
X164839954Y-84272198D01*
X164654799Y-84311553D01*
X164481872Y-84388546D01*
X164429460Y-84426625D01*
X164382356Y-84447597D01*
X164330794Y-84447596D01*
X164283690Y-84426624D01*
X164231281Y-84388547D01*
X164201019Y-84366560D01*
X164201018Y-84366559D01*
X164201016Y-84366558D01*
X164028091Y-84289566D01*
X163842937Y-84250211D01*
X163842935Y-84250211D01*
X163653643Y-84250211D01*
X163640610Y-84250211D01*
X163640610Y-84247896D01*
X163608411Y-84247472D01*
X163559327Y-84223262D01*
X163525445Y-84180281D01*
X163513367Y-84126900D01*
X163513367Y-81533884D01*
X163515631Y-81513377D01*
X163515051Y-81494930D01*
X163513428Y-81443267D01*
X163513367Y-81439372D01*
X163513367Y-81411793D01*
X163512864Y-81407812D01*
X163511947Y-81396159D01*
X163511336Y-81376706D01*
X163510576Y-81352513D01*
X163504987Y-81333280D01*
X163501041Y-81314222D01*
X163498531Y-81294346D01*
X163482455Y-81253744D01*
X163478671Y-81242693D01*
X163472748Y-81222308D01*
X163466485Y-81200750D01*
X163456281Y-81183495D01*
X163447728Y-81166035D01*
X163442814Y-81153624D01*
X163440353Y-81147408D01*
X163414675Y-81112065D01*
X163408268Y-81102311D01*
X163395239Y-81080280D01*
X163386037Y-81064720D01*
X163371873Y-81050556D01*
X163359234Y-81035757D01*
X163347462Y-81019553D01*
X163313808Y-80991713D01*
X163305166Y-80983849D01*
X160442280Y-78120962D01*
X160410186Y-78065374D01*
X160410186Y-78001187D01*
X160410370Y-78000500D01*
X160428502Y-77932832D01*
X160448335Y-77706140D01*
X160428502Y-77479448D01*
X160369606Y-77259644D01*
X160273435Y-77053406D01*
X160217593Y-76973655D01*
X160142913Y-76866999D01*
X159982007Y-76706093D01*
X159957404Y-76688866D01*
X159918266Y-76644024D01*
X159904533Y-76586110D01*
X159919367Y-76528468D01*
X159959352Y-76484379D01*
X160015273Y-76464001D01*
X160050350Y-76460231D01*
X160185198Y-76409936D01*
X160300413Y-76323686D01*
X160386663Y-76208471D01*
X160436958Y-76073623D01*
X160443367Y-76014013D01*
X160443366Y-74318268D01*
X160443366Y-74318267D01*
X160443366Y-74311622D01*
X160446215Y-74311622D01*
X160455786Y-74256835D01*
X160501529Y-74205935D01*
X160567305Y-74187052D01*
X165622612Y-74187052D01*
X165686940Y-74205043D01*
G37*
%TD.AperFunction*%
%TD*%
M02*
